<svg width="24" height="24" viewBox="0 0 24 24" fill="none" xmlns="http://www.w3.org/2000/svg">
<path fill-rule="evenodd" clip-rule="evenodd" d="M12.516 2.17056C12.3767 2.03847 12.192 1.96484 12 1.96484C11.808 1.96484 11.6233 2.03847 11.484 2.17056C9.36128 4.18644 6.53413 5.29189 3.60701 5.25056C3.44754 5.24849 3.29157 5.2973 3.16173 5.38991C3.0319 5.48252 2.93496 5.61411 2.88501 5.76556C2.46298 7.05172 2.24862 8.39693 2.25001 9.75056C2.25001 15.6926 6.31401 20.6836 11.813 22.0986C11.9357 22.1302 12.0643 22.1302 12.187 22.0986C17.686 20.6836 21.75 15.6926 21.75 9.75056C21.75 8.36056 21.527 7.02056 21.115 5.76556C21.0652 5.61392 20.9684 5.48212 20.8385 5.38932C20.7087 5.29651 20.5526 5.24756 20.393 5.24956L20.25 5.25056C17.254 5.25056 14.533 4.08056 12.516 2.17056ZM15.61 10.1866C15.67 10.1066 15.7134 10.0155 15.7377 9.91851C15.762 9.82154 15.7666 9.7207 15.7514 9.62191C15.7361 9.52313 15.7013 9.42838 15.6489 9.34326C15.5965 9.25813 15.5276 9.18434 15.4463 9.12621C15.3649 9.06809 15.2728 9.0268 15.1753 9.00479C15.0778 8.98278 14.9769 8.98048 14.8785 8.99802C14.7801 9.01557 14.6862 9.05261 14.6023 9.10697C14.5184 9.16133 14.4462 9.23191 14.39 9.31456L11.154 13.8446L9.53001 12.2206C9.38783 12.0881 9.19979 12.016 9.00548 12.0194C8.81118 12.0228 8.6258 12.1015 8.48839 12.2389C8.35097 12.3764 8.27226 12.5617 8.26883 12.756C8.2654 12.9503 8.33753 13.1384 8.47001 13.2806L10.72 15.5306C10.797 15.6075 10.8898 15.6667 10.992 15.7042C11.0942 15.7417 11.2033 15.7564 11.3118 15.7475C11.4202 15.7386 11.5255 15.7061 11.6201 15.6524C11.7148 15.5987 11.7967 15.5251 11.86 15.4366L15.61 10.1866Z" fill="#007A86"/>
</svg>
