<svg width="24" height="24" viewBox="0 0 24 24" fill="none" xmlns="http://www.w3.org/2000/svg">
<path d="M7.49301 18.5C7.06801 18.5 6.67301 18.264 6.51801 17.868C6.17475 16.9943 5.99902 16.0637 6.00001 15.125C6.00001 13.375 6.59901 11.767 7.60201 10.491C7.75301 10.299 7.97501 10.182 8.20201 10.094C8.67501 9.911 9.09201 9.58 9.41401 9.17C10.1903 8.17964 11.1647 7.36221 12.275 6.77C12.998 6.386 13.625 5.814 13.928 5.055C14.1408 4.52325 14.2501 3.95575 14.25 3.383V2.75C14.25 2.55109 14.329 2.36032 14.4697 2.21967C14.6103 2.07902 14.8011 2 15 2C15.5967 2 16.169 2.23705 16.591 2.65901C17.013 3.08097 17.25 3.65326 17.25 4.25C17.25 5.402 16.99 6.493 16.527 7.468C16.261 8.026 16.634 8.75 17.252 8.75H20.378C21.404 8.75 22.323 9.444 22.432 10.465C22.477 10.887 22.5 11.315 22.5 11.75C22.5041 14.4863 21.5691 17.1412 19.851 19.271C19.463 19.753 18.864 20 18.246 20H14.23C13.747 20 13.266 19.922 12.807 19.77L9.69301 18.73C9.23411 18.5774 8.75362 18.4997 8.27001 18.5H7.49301ZM2.33101 10.727C1.77993 12.1277 1.498 13.6198 1.50001 15.125C1.49875 16.3133 1.67399 17.4952 2.02001 18.632C2.28001 19.482 3.10501 20 3.99401 20H4.90001C5.34501 20 5.62001 19.502 5.42301 19.102C4.81315 17.8651 4.49695 16.5041 4.49901 15.125C4.49901 13.417 4.97501 11.82 5.80101 10.459C6.04601 10.056 5.77301 9.5 5.30101 9.5H4.25001C3.41801 9.5 2.63701 9.953 2.33101 10.727Z" fill="#EF841F"/>
</svg>
