<svg width="24" height="24" viewBox="0 0 24 24" fill="none" xmlns="http://www.w3.org/2000/svg">
<path fill-rule="evenodd" clip-rule="evenodd" d="M9.315 7.584C12.195 3.883 16.695 1.5 21.75 1.5C21.9489 1.5 22.1397 1.57902 22.2803 1.71967C22.421 1.86032 22.5 2.05109 22.5 2.25C22.5 7.306 20.117 11.805 16.416 14.686C16.5699 15.6502 16.5128 16.6364 16.2486 17.5764C15.9844 18.5164 15.5194 19.388 14.8857 20.1308C14.2519 20.8737 13.4646 21.4702 12.5779 21.8792C11.6913 22.2883 10.7264 22.5001 9.75 22.5C9.55109 22.5 9.36032 22.421 9.21967 22.2803C9.07902 22.1397 9 21.9489 9 21.75V17.619C8.02793 16.8514 7.14925 15.9724 6.382 15H2.25C2.05109 15 1.86032 14.921 1.71967 14.7803C1.57902 14.6397 1.5 14.4489 1.5 14.25C1.49992 13.2735 1.71173 12.3085 2.12082 11.4218C2.52991 10.5351 3.12653 9.74765 3.86951 9.11391C4.61249 8.48017 5.48413 8.01519 6.42427 7.75105C7.36442 7.48692 8.35068 7.42992 9.315 7.584ZM15 6.75C14.4033 6.75 13.831 6.98705 13.409 7.40901C12.9871 7.83097 12.75 8.40326 12.75 9C12.75 9.59674 12.9871 10.169 13.409 10.591C13.831 11.0129 14.4033 11.25 15 11.25C15.5967 11.25 16.169 11.0129 16.591 10.591C17.0129 10.169 17.25 9.59674 17.25 9C17.25 8.40326 17.0129 7.83097 16.591 7.40901C16.169 6.98705 15.5967 6.75 15 6.75Z" fill="#EF841F"/>
<path d="M5.25979 17.2424C5.33878 17.1835 5.4054 17.1097 5.45584 17.025C5.50627 16.9404 5.53955 16.8466 5.55375 16.7491C5.56796 16.6516 5.56283 16.5523 5.53864 16.4568C5.51445 16.3612 5.47169 16.2714 5.41279 16.1924C5.35389 16.1134 5.28001 16.0468 5.19537 15.9964C5.11073 15.9459 5.01698 15.9127 4.91948 15.8985C4.82198 15.8843 4.72263 15.8894 4.62712 15.9136C4.5316 15.9378 4.44178 15.9805 4.36279 16.0394C3.59568 16.61 2.9992 17.3796 2.63788 18.2647C2.27655 19.1499 2.16413 20.117 2.31279 21.0614C2.33697 21.2187 2.41056 21.3643 2.52291 21.477C2.63527 21.5897 2.78057 21.6637 2.93779 21.6884C3.88232 21.837 4.8495 21.7244 5.73466 21.3629C6.61983 21.0014 7.38929 20.4047 7.95979 19.6374C8.02059 19.5586 8.0651 19.4686 8.09073 19.3724C8.11636 19.2763 8.1226 19.176 8.10909 19.0774C8.09558 18.9788 8.06258 18.8839 8.01202 18.7982C7.96146 18.7124 7.89435 18.6377 7.8146 18.5781C7.73484 18.5186 7.64405 18.4756 7.54749 18.4515C7.45094 18.4274 7.35056 18.4228 7.2522 18.4379C7.15384 18.453 7.05947 18.4875 6.97459 18.5395C6.88971 18.5914 6.81601 18.6597 6.75779 18.7404C6.40906 19.2094 5.95537 19.5903 5.43304 19.8525C4.91071 20.1147 4.33424 20.251 3.74979 20.2504C3.74979 19.0204 4.34179 17.9274 5.25979 17.2424Z" fill="#EF841F"/>
</svg>
