<svg width="24" height="24" viewBox="0 0 24 24" fill="none" xmlns="http://www.w3.org/2000/svg">
<path fill-rule="evenodd" clip-rule="evenodd" d="M10.5 3.75087C9.61358 3.75087 8.73583 3.92546 7.91689 4.26468C7.09794 4.6039 6.35382 5.1011 5.72703 5.72789C5.10023 6.35469 4.60303 7.0988 4.26381 7.91775C3.92459 8.7367 3.75 9.61444 3.75 10.5009C3.75 11.3873 3.92459 12.265 4.26381 13.084C4.60303 13.9029 5.10023 14.647 5.72703 15.2738C6.35382 15.9006 7.09794 16.3978 7.91689 16.7371C8.73583 17.0763 9.61358 17.2509 10.5 17.2509C12.2902 17.2509 14.0071 16.5397 15.273 15.2738C16.5388 14.008 17.25 12.2911 17.25 10.5009C17.25 8.71065 16.5388 6.99377 15.273 5.72789C14.0071 4.46202 12.2902 3.75087 10.5 3.75087ZM2.25 10.5009C2.25017 9.17596 2.56944 7.87059 3.18079 6.69516C3.79214 5.51974 4.67759 4.50884 5.76224 3.74799C6.84689 2.98713 8.09883 2.49869 9.41216 2.32399C10.7255 2.14929 12.0616 2.29347 13.3074 2.74432C14.5533 3.19518 15.6722 3.93945 16.5695 4.91419C17.4669 5.88892 18.1163 7.06544 18.4628 8.34423C18.8094 9.62301 18.8428 10.9664 18.5603 12.2609C18.2778 13.5553 17.6878 14.7627 16.84 15.7809L21.53 20.4709C21.6037 20.5395 21.6628 20.6223 21.7038 20.7143C21.7448 20.8063 21.7668 20.9056 21.7686 21.0063C21.7704 21.107 21.7518 21.2071 21.7141 21.3005C21.6764 21.3939 21.6203 21.4787 21.549 21.5499C21.4778 21.6211 21.393 21.6773 21.2996 21.715C21.2062 21.7527 21.1062 21.7712 21.0055 21.7695C20.9048 21.7677 20.8055 21.7456 20.7135 21.7046C20.6215 21.6637 20.5387 21.6046 20.47 21.5309L15.78 16.8409C14.5752 17.8444 13.1094 18.4837 11.5543 18.6841C9.99922 18.8845 8.41922 18.6376 6.99941 17.9723C5.5796 17.307 4.37878 16.2508 3.53763 14.9276C2.69648 13.6044 2.24983 12.0688 2.25 10.5009Z" fill="#007A86"/>
</svg>
