<svg width="350" height="327" viewBox="0 0 350 327" fill="none" xmlns="http://www.w3.org/2000/svg">
<circle cx="172.75" cy="151.75" r="125.75" fill="#E6F2F3"/>
<mask id="mask0_1433_12727" style="mask-type:alpha" maskUnits="userSpaceOnUse" x="47" y="26" width="252" height="252">
<circle cx="172.75" cy="151.75" r="125.75" fill="#33959E"/>
</mask>
<g mask="url(#mask0_1433_12727)">
<path d="M236.941 359.943L26.9641 306.73L52.4871 197.103L172.762 129.962C176.979 127.608 182.295 128.841 185.046 132.811L263.488 246.04L236.941 359.943Z" fill="white"/>
<path d="M237.105 359.347L231.503 357.928L216.184 354.045L193.605 348.323L166.064 341.344L135.784 333.67L105.334 325.953L76.9413 318.758L52.9445 312.676L35.6803 308.301L30.3035 306.939C29.3929 306.708 28.4209 306.336 27.4862 306.225C27.3652 306.202 27.2458 306.172 27.1286 306.134L27.5591 306.892L30.774 293.084L38.1584 261.366L46.4173 225.892L52.1712 201.178C52.2254 200.945 53.2309 197.349 53.0815 197.268C53.7196 197.613 52.4014 197.674 52.9584 197.545C53.1367 197.472 53.3055 197.377 53.4612 197.264L55.5017 196.125L74.3715 185.591L104.089 169.002L136.127 151.118L161.958 136.698C165.657 134.633 169.332 132.514 173.059 130.501C177.407 128.152 182.215 129.802 184.913 133.697L188.262 138.53L202.809 159.528L223.062 188.763L243.491 218.252L258.536 239.968L262.301 245.402C262.357 245.483 262.845 246.337 262.942 246.327C262.691 246.351 263.071 245.725 262.871 245.978C262.799 246.154 262.755 246.34 262.742 246.53L258.523 264.631L250.8 297.766L242.626 332.839L237.135 356.395L236.347 359.778C236.167 360.55 237.355 360.879 237.536 360.106L240.67 346.656L248.011 315.162L256.368 279.304L262.639 252.399C263.088 250.47 263.553 248.544 263.988 246.612C264.185 245.734 263.744 245.327 263.251 244.615L252.611 229.258L233.881 202.221L212.726 171.685L194.815 145.831C191.815 141.5 188.815 137.17 185.815 132.84C182.77 128.468 177.243 126.85 172.447 129.431C171.448 129.969 170.465 130.538 169.474 131.091L149.977 141.974L119.831 158.803L87.6899 176.745L62.1834 190.983L54.7469 195.134L52.772 196.237C52.4199 196.433 52.074 196.559 51.8933 196.938C51.7809 197.269 51.7015 197.61 51.6564 197.956L51.0039 200.758L48.6227 210.985L41.1617 243.032L32.8923 278.551L27.1969 303.015L26.3704 306.565C26.2858 306.892 26.4763 307.228 26.8009 307.323L32.4028 308.742L47.7223 312.625L70.3008 318.347L97.8417 325.326L128.122 333L158.573 340.717L186.965 347.912L210.962 353.994L228.226 358.369C230.956 359.061 233.679 359.799 236.42 360.445C236.54 360.474 236.658 360.506 236.778 360.536C237.547 360.731 237.875 359.542 237.105 359.347Z" fill="black"/>
<path d="M142.907 213.779C142.907 213.779 144.672 206.105 154.408 204.691C155.432 199.591 161.095 193.808 168.411 196.535C175.727 199.262 160.414 226.225 160.414 226.225" fill="#231F20"/>
<path d="M143.502 213.943C143.566 213.685 143.647 213.431 143.744 213.183C143.79 213.06 143.839 212.939 143.889 212.817C143.812 213.004 143.915 212.758 143.935 212.714C143.975 212.624 144.016 212.535 144.059 212.446C144.227 212.092 144.413 211.746 144.616 211.409C145.776 209.505 147.43 207.949 149.402 206.907C151.019 206.074 152.768 205.526 154.572 205.285C154.783 205.231 154.948 205.066 155.002 204.854C155.981 200.088 160.403 196.124 165.385 196.477C166.122 196.534 166.85 196.674 167.555 196.895C167.729 196.948 167.902 197.005 168.073 197.066C168.137 197.089 168.416 197.202 168.237 197.122C168.346 197.17 168.453 197.224 168.556 197.285C168.606 197.315 168.653 197.348 168.703 197.379C168.727 197.395 168.749 197.414 168.773 197.43C168.841 197.478 168.653 197.327 168.743 197.408C168.829 197.485 168.915 197.559 168.994 197.643C169.033 197.685 169.069 197.73 169.107 197.773C169.163 197.835 169.032 197.656 169.127 197.801C169.192 197.9 169.257 197.997 169.314 198.101C169.345 198.158 169.491 198.488 169.417 198.302C169.464 198.421 169.508 198.54 169.545 198.663C169.623 198.925 169.682 199.194 169.72 199.465C169.697 199.312 169.722 199.478 169.728 199.54C169.736 199.607 169.742 199.674 169.747 199.741C169.76 199.903 169.768 200.065 169.772 200.228C169.779 200.551 169.77 200.874 169.749 201.196C169.738 201.363 169.724 201.53 169.707 201.696C169.699 201.777 169.69 201.858 169.681 201.939C169.675 201.985 169.67 202.03 169.664 202.075C169.645 202.234 169.67 202.037 169.653 202.16C169.602 202.524 169.541 202.886 169.47 203.247C169.312 204.063 169.112 204.871 168.887 205.671C168.39 207.439 167.775 209.173 167.106 210.882C165.806 214.204 164.278 217.473 162.655 220.687C161.777 222.424 160.833 224.122 159.923 225.841C159.91 225.865 159.895 225.889 159.882 225.913C159.489 226.604 160.554 227.226 160.946 226.535C161.786 225.056 162.577 223.546 163.352 222.032C165.037 218.739 166.616 215.388 167.998 211.956C169.327 208.657 170.607 205.182 170.948 201.616C171.07 200.341 171.049 198.984 170.529 197.792C169.898 196.342 168.556 195.828 167.09 195.495C164.312 194.857 161.393 195.384 159.015 196.956C156.864 198.4 155.214 200.475 154.291 202.895C154.087 203.425 153.928 203.971 153.813 204.526L154.244 204.096C151.141 204.556 148.151 205.782 145.844 207.944C144.45 209.253 143.358 210.85 142.645 212.624C142.509 212.945 142.398 213.276 142.313 213.615C142.134 214.387 143.322 214.716 143.501 213.943L143.502 213.943Z" fill="black"/>
<path d="M138.091 238.757L95.1235 195.452C85.5205 185.815 84.5122 180.418 86.1278 171.283L93.6168 128.939L110.886 131.795L102.982 175.367L142.914 212.714L159.014 216.694" fill="#D08B5B"/>
<path d="M138.527 238.32L134.533 234.294L124.878 224.563L112.97 212.562L102.215 201.723L96.0219 195.481C92.0208 191.449 87.7793 186.953 86.5145 181.227C85.6376 177.257 86.4051 173.24 87.1006 169.307L89.3917 156.354L92.2869 139.984L94.1217 129.61L94.2115 129.102L93.4533 129.533L108.568 132.032L110.723 132.388L110.292 131.63L109.001 138.744L106.193 154.226L103.469 169.244L102.627 173.883C102.533 174.404 102.179 175.377 102.568 175.822C103.01 176.327 103.573 176.762 104.062 177.219L107.531 180.463L118.213 190.454L130.376 201.831L139.804 210.648L142.131 212.824C142.244 212.93 142.354 213.053 142.477 213.148C142.824 213.416 143.366 213.46 143.78 213.562L157.648 216.99L158.85 217.288C159.62 217.478 159.949 216.29 159.178 216.099L144.222 212.402C143.895 212.321 143.563 212.212 143.23 212.157C142.878 212.098 143.351 212.299 143.319 212.249C143.118 212.013 142.891 211.801 142.642 211.615L138.958 208.17L125.744 195.812L111.307 182.308L106.093 177.432C105.251 176.645 104.441 175.741 103.529 175.034C103.49 175.004 103.455 174.965 103.418 174.93L103.577 175.53L104.361 171.204L106.246 160.812L108.528 148.234L110.503 137.349C110.824 135.577 111.172 133.808 111.467 132.032C111.471 132.007 111.476 131.982 111.481 131.958C111.566 131.63 111.375 131.294 111.05 131.199L95.9355 128.701L93.7809 128.344C93.4534 128.259 93.1176 128.45 93.0227 128.775L91.691 136.304L88.8776 152.211L86.2929 166.824C85.707 170.137 84.9615 173.494 84.8895 176.863C84.8067 180.178 85.5847 183.457 87.1476 186.38C89.0593 189.965 91.8589 193.038 94.7025 195.902C96.1746 197.384 97.646 198.867 99.1168 200.351L109.104 210.416L121.079 222.485L131.651 233.141L137.396 238.93L137.655 239.192C138.215 239.756 139.087 238.884 138.527 238.32L138.527 238.32Z" fill="black"/>
<path d="M159.014 216.693L142.914 212.713L127.785 198.562C126.356 201.554 123.783 205.382 120.467 209.242C118.519 211.508 107.576 218.074 105.722 219.726L133.984 243.006L159.014 216.693Z" fill="#91CFA6"/>
<path d="M159.177 216.1L153.744 214.757L145.076 212.614L143.077 212.12L143.349 212.278L138.23 207.491L130.08 199.868L128.22 198.128C128.084 197.995 127.894 197.932 127.706 197.956C127.517 197.981 127.35 198.09 127.252 198.253C126.012 200.743 124.534 203.108 122.838 205.313C121.563 207.021 120.282 208.764 118.6 210.092C117.268 211.144 115.671 212.224 114.191 213.219C112.49 214.364 110.772 215.484 109.064 216.617C107.791 217.462 106.433 218.276 105.285 219.292C105.046 219.533 105.046 219.922 105.285 220.163L108.108 222.489L114.856 228.047L123.014 234.766L130.066 240.575C131.21 241.517 132.346 242.47 133.498 243.402C133.515 243.416 133.531 243.429 133.548 243.443C133.791 243.677 134.176 243.677 134.419 243.443L136.909 240.825L142.888 234.54L150.121 226.936L156.372 220.364C157.382 219.303 158.425 218.265 159.405 217.177C159.419 217.161 159.435 217.145 159.449 217.13C159.996 216.555 159.126 215.682 158.578 216.258L156.088 218.876L150.109 225.161L142.876 232.765L136.625 239.337L134.571 241.496C134.25 241.833 133.882 242.159 133.592 242.525C133.579 242.541 133.562 242.556 133.548 242.571H134.42L131.596 240.246L124.849 234.688L116.691 227.968L109.638 222.159L107.306 220.238C106.956 219.917 106.589 219.615 106.206 219.332C106.189 219.32 106.173 219.306 106.157 219.292V220.163C106.231 220.098 106.306 220.035 106.382 219.974C106.422 219.942 106.462 219.91 106.502 219.879C106.362 219.99 106.544 219.848 106.58 219.82C106.819 219.641 107.062 219.466 107.307 219.294C107.963 218.833 108.63 218.386 109.297 217.941C110.985 216.816 112.686 215.709 114.372 214.58C115.943 213.529 117.515 212.47 119.016 211.318C119.572 210.908 120.103 210.464 120.606 209.991C121.502 209.05 122.333 208.049 123.094 206.997C125.065 204.458 126.922 201.78 128.316 198.875L127.348 199L131.66 203.033L139.3 210.178L141.885 212.596C142.216 212.906 142.497 213.246 142.947 213.358L150.943 215.334C153.533 215.974 156.118 216.649 158.716 217.256C158.76 217.266 158.805 217.278 158.849 217.289C159.62 217.479 159.948 216.29 159.177 216.1Z" fill="black"/>
<path d="M105.729 219.673C106.997 220.763 110.277 220.335 114.69 215.171L109.175 209.613C105.903 214.509 104.413 218.543 105.729 219.673Z" fill="black"/>
<path d="M105.292 220.109C107.409 221.889 110.546 219.868 112.249 218.476C113.29 217.606 114.253 216.646 115.125 215.607C115.359 215.364 115.359 214.979 115.125 214.736L110.295 209.867L109.61 209.178C109.474 209.046 109.285 208.983 109.096 209.007C108.908 209.031 108.741 209.14 108.642 209.302C107.246 211.399 105.903 213.624 105.092 216.023C104.688 217.218 104.182 219.117 105.292 220.109C105.882 220.636 106.757 219.767 106.164 219.237C106.121 219.198 106.081 219.158 106.042 219.115C106.148 219.231 106.043 219.117 106.023 219.079C105.998 219.032 105.972 218.986 105.949 218.938C106.018 219.086 105.938 218.893 105.93 218.86C105.917 218.81 105.906 218.761 105.894 218.712C105.856 218.549 105.886 218.71 105.879 218.607C105.869 218.468 105.866 218.328 105.872 218.188C105.936 217.467 106.105 216.759 106.373 216.086C107.166 213.893 108.42 211.856 109.707 209.924L108.739 210.049L113.57 214.918L114.254 215.607V214.736C112.983 216.216 111.573 217.653 109.882 218.653C109.366 218.973 108.809 219.222 108.226 219.393C108.107 219.426 107.987 219.456 107.866 219.48C107.799 219.494 107.732 219.506 107.665 219.517C107.592 219.529 107.679 219.516 107.689 219.515C107.653 219.52 107.617 219.524 107.58 219.527C107.37 219.544 107.158 219.545 106.948 219.532C106.793 219.523 107.028 219.552 106.883 219.524C106.833 219.514 106.782 219.505 106.732 219.493C106.636 219.47 106.544 219.438 106.451 219.406C106.354 219.373 106.553 219.463 106.433 219.397C106.388 219.372 106.341 219.35 106.297 219.324C106.259 219.302 106.223 219.276 106.185 219.253C106.059 219.177 106.222 219.286 106.164 219.237C105.561 218.73 104.684 219.597 105.292 220.109Z" fill="black"/>
<path d="M123.492 194.548L102.982 175.366L110.886 131.793L94.149 123.256L93.6169 128.938L81.1025 169.175C77.6097 180.476 83.0551 188.279 92.658 197.916L106.71 212.078L112.224 217.636C114.079 215.984 118.519 211.508 120.466 209.242C123.783 205.382 126.356 201.555 127.784 198.563L123.492 194.548Z" fill="#D08B5B"/>
<path d="M123.928 194.113L116.958 187.595L105.943 177.292L103.418 174.93L103.576 175.53L104.363 171.193L106.252 160.779L108.529 148.228L110.506 137.332C110.826 135.566 111.17 133.803 111.467 132.033C111.471 132.008 111.476 131.983 111.481 131.958C111.548 131.689 111.434 131.407 111.197 131.262L105.555 128.383L96.5466 123.789L94.4601 122.724C94.2688 122.619 94.0361 122.621 93.8466 122.729C93.657 122.838 93.5379 123.038 93.5326 123.257L93.0695 128.203C93.0475 128.439 93.0024 128.684 93.0023 128.921C93.0023 128.841 93.0608 128.714 93.0016 128.843C92.9273 129.037 92.8654 129.236 92.8161 129.439L90.5286 136.794L86.8214 148.713L83.106 160.659L80.7515 168.23C80.4537 169.187 80.1638 170.145 79.9492 171.126C79.27 174.111 79.264 177.209 79.9316 180.197C81.4339 186.676 86.0629 191.99 90.558 196.656C92.7273 198.907 94.9535 201.105 97.1556 203.325L105.341 211.574C107.156 213.403 108.971 215.233 110.787 217.062L111.789 218.072C112.032 218.306 112.417 218.306 112.66 218.072C114.765 216.192 116.742 214.15 118.684 212.104C121.129 209.55 123.363 206.802 125.366 203.889C126.474 202.294 127.46 200.618 128.317 198.874C128.451 198.631 128.412 198.329 128.22 198.128L123.928 194.113C123.349 193.571 122.475 194.441 123.056 194.985L127.349 198.999L127.252 198.252C124.317 204.361 119.647 209.479 114.893 214.222C113.879 215.234 112.858 216.245 111.789 217.201H112.66C110.79 215.315 108.919 213.43 107.049 211.545L100.319 204.762L93.2864 197.675C89.1643 193.52 84.9186 189.129 82.448 183.743C81.2074 181.08 80.5971 178.168 80.6646 175.231C80.7489 173.166 81.1155 171.122 81.7541 169.156L83.6418 163.087L87.1715 151.738L90.9752 139.508L93.689 130.783C93.8581 130.24 94.0662 129.694 94.1997 129.141C94.2613 128.798 94.2988 128.451 94.3118 128.103L94.5983 125.043L94.7656 123.256L93.8381 123.789L99.4809 126.667L108.489 131.262L110.575 132.326L110.292 131.63L109.747 134.637L108.379 142.178L106.576 152.117L104.717 162.365L103.201 170.718L102.423 175.008C102.403 175.099 102.387 175.191 102.377 175.284C102.364 175.561 102.499 175.824 102.732 175.975L104.323 177.463L110.783 183.505L118.251 190.49L122.833 194.776L123.056 194.985C123.635 195.526 124.509 194.656 123.928 194.113Z" fill="black"/>
<path d="M109.635 138.691L110.3 134.983C110.752 132.459 111.488 129.994 112.491 127.634C113.272 125.798 114.353 123.438 115.781 120.7C115.781 120.7 118.245 115.977 116.078 115.619C113.911 115.261 110.455 118.749 110.455 118.749C110.455 118.749 112.874 111.712 107.966 110.51C103.154 109.33 94.1781 108.13 93.767 119.024C93.7529 119.443 93.6764 119.858 93.54 120.255C92.985 121.849 91.6723 126.395 93.7224 128.918" fill="#D08B5B"/>
<path d="M110.23 138.855C110.484 137.436 110.72 136.012 110.998 134.598C111.659 131.229 112.899 128.08 114.348 124.982C114.985 123.622 115.671 122.288 116.347 120.946C116.676 120.295 116.958 119.621 117.191 118.93C117.472 118.089 117.751 117.072 117.495 116.191C117.187 115.128 116.146 114.867 115.159 115.037C113.896 115.255 112.743 116.049 111.749 116.815C111.14 117.277 110.563 117.777 110.02 118.314L111.05 118.914C111.652 117.156 111.911 115.052 111.449 113.24C111.123 111.835 110.134 110.676 108.798 110.133C107.731 109.701 106.489 109.53 105.354 109.369C102.862 109.016 100.22 109.005 97.8982 110.101C95.0578 111.442 93.6925 114.341 93.2953 117.327C93.2253 117.853 93.1803 118.381 93.1554 118.911C93.1242 119.402 93.0242 119.887 92.8583 120.35C92.6276 121.045 92.4391 121.753 92.2939 122.471C91.9188 124.337 91.7842 126.38 92.5571 128.166C92.7465 128.593 92.9919 128.992 93.2867 129.355C93.5282 129.593 93.9169 129.593 94.1584 129.355C94.3911 129.111 94.3911 128.727 94.1584 128.483C93.1161 127.169 93.118 125.256 93.3316 123.677C93.4418 122.9 93.6084 122.132 93.8301 121.38C94.0685 120.551 94.3467 119.787 94.3881 118.911C94.4647 117.293 94.7259 115.627 95.465 114.168C95.9854 113.101 96.7906 112.199 97.7916 111.561C98.7497 110.99 99.8164 110.624 100.924 110.488C102.061 110.354 103.21 110.35 104.348 110.477C104.906 110.534 105.303 110.591 105.902 110.698C106.409 110.789 106.914 110.895 107.416 111.012C108.019 111.117 108.593 111.348 109.101 111.69C109.516 112.015 109.842 112.44 110.05 112.925C110.49 113.936 110.498 115.104 110.369 116.264C110.345 116.485 110.323 116.634 110.269 116.938C110.229 117.161 110.183 117.384 110.131 117.605C110.064 117.895 109.982 118.179 109.9 118.465C109.889 118.506 109.875 118.546 109.861 118.586C109.657 119.183 110.474 119.606 110.891 119.186C111.972 118.098 113.302 116.97 114.75 116.43C114.966 116.347 115.188 116.284 115.415 116.239C115.501 116.222 115.588 116.213 115.675 116.212C115.738 116.21 115.966 116.222 115.914 116.214C115.965 116.222 116.198 116.305 116.087 116.25C116.129 116.271 116.285 116.35 116.168 116.291C116.177 116.296 116.271 116.408 116.218 116.333C116.162 116.255 116.251 116.386 116.253 116.389C116.269 116.417 116.285 116.446 116.298 116.476C116.237 116.348 116.299 116.484 116.307 116.518C116.315 116.554 116.355 116.801 116.343 116.676C116.35 116.754 116.353 116.833 116.353 116.911C116.354 117.093 116.339 117.274 116.306 117.452C116.219 117.899 116.098 118.338 115.945 118.767C115.758 119.314 115.531 119.847 115.264 120.36C114.59 121.687 113.915 123.012 113.284 124.36C111.89 127.337 110.652 130.363 109.951 133.585C109.595 135.221 109.336 136.88 109.041 138.528C108.96 138.854 109.149 139.188 109.472 139.286C109.8 139.373 110.137 139.182 110.23 138.855L110.23 138.855Z" fill="black"/>
<path d="M106.757 115.223C109.957 108.537 111.229 105.606 112.825 101.586C114.421 97.567 117.58 98.1347 116.966 102.505C115.34 109.302 110.455 118.75 110.455 118.75C110.455 118.75 98.4835 118.07 96.9568 123.592" fill="#D08B5B"/>
<path d="M107.289 115.533C108.731 112.519 110.162 109.497 111.487 106.429C111.988 105.268 112.475 104.1 112.947 102.927C113.392 101.824 113.829 100.363 114.85 99.7173C115.001 99.6018 115.178 99.5258 115.366 99.496C115.535 99.4595 115.248 99.493 115.416 99.4915C115.468 99.4911 115.52 99.4907 115.572 99.4937C115.548 99.4924 115.446 99.4665 115.56 99.4928C115.626 99.5068 115.691 99.5259 115.754 99.5499C115.625 99.4983 115.842 99.6091 115.879 99.6354C115.792 99.5725 115.999 99.7587 116.035 99.8043C115.986 99.7427 116.121 99.9484 116.143 99.9857C116.203 100.091 116.249 100.205 116.279 100.323C116.712 101.74 116.168 103.234 115.751 104.587C114.793 107.589 113.652 110.53 112.333 113.391C111.569 115.091 110.778 116.782 109.922 118.438L110.455 118.133C109.035 118.065 107.611 118.101 106.197 118.242C103.693 118.47 100.986 118.921 98.833 120.303C97.6539 121.006 96.7744 122.117 96.3619 123.427C96.1443 124.191 97.3334 124.517 97.5506 123.754C97.5856 123.632 97.6251 123.511 97.6691 123.391C97.6772 123.362 97.6885 123.334 97.7028 123.307C97.7365 123.231 97.7731 123.157 97.8116 123.083C97.8689 122.974 97.9311 122.867 97.998 122.762C98.0313 122.71 98.0664 122.659 98.1013 122.608C98.1503 122.536 98.1649 122.519 98.1719 122.51C98.4905 122.111 98.8674 121.763 99.29 121.477C100.265 120.84 101.342 120.378 102.475 120.11C104.612 119.573 106.809 119.314 109.013 119.339C109.493 119.336 109.975 119.338 110.455 119.365C110.674 119.368 110.878 119.251 110.987 119.06C111.757 117.57 112.472 116.05 113.167 114.523C114.579 111.498 115.808 108.39 116.846 105.217C117.338 103.658 117.858 102.071 117.568 100.42C117.375 99.322 116.607 98.1773 115.363 98.2623C114.012 98.3546 113.056 99.6355 112.519 100.754C111.914 102.014 111.457 103.359 110.916 104.648C109.46 108.117 107.848 111.518 106.224 114.91C105.883 115.623 106.946 116.249 107.289 115.533H107.289Z" fill="black"/>
<path d="M106.844 115.089C106.844 115.089 109.987 105.802 110.347 98.8229C110.153 94.4135 106.943 94.4315 106.107 98.6746C105.271 102.918 104.191 106.809 102.263 113.967" fill="#D08B5B"/>
<path d="M107.438 115.254C107.974 113.671 108.435 112.059 108.868 110.445C109.778 107.202 110.433 103.892 110.826 100.546C110.985 99.0357 111.092 97.3664 110.243 96.0182C109.647 95.0717 108.57 94.5884 107.523 95.1264C106.312 95.749 105.766 97.2673 105.513 98.512C105.247 99.8194 104.967 101.123 104.657 102.421C103.747 106.236 102.689 110.017 101.669 113.804C101.463 114.571 102.652 114.898 102.858 114.132C103.751 110.817 104.666 107.507 105.497 104.176C105.807 102.936 106.102 101.692 106.371 100.442C106.64 99.1941 106.747 97.7502 107.548 96.7033C107.663 96.5686 107.787 96.4427 107.92 96.3266C108.007 96.2642 108.099 96.2106 108.196 96.1665C108.095 96.2113 108.351 96.1259 108.404 96.117C108.258 96.1413 108.502 96.1228 108.543 96.1254C108.394 96.116 108.624 96.1489 108.676 96.1656C108.83 96.2153 108.576 96.1038 108.719 96.1872C108.767 96.2147 108.813 96.2413 108.858 96.2722C108.838 96.2581 108.774 96.1997 108.868 96.28C108.928 96.3326 108.986 96.3888 109.039 96.4485C109.34 96.8658 109.539 97.3477 109.621 97.8558C109.737 98.6022 109.742 99.3616 109.636 100.109C109.291 103.302 108.686 106.46 107.829 109.555C107.356 111.359 106.847 113.16 106.249 114.927C105.995 115.68 107.185 116.003 107.438 115.254L107.438 115.254Z" fill="black"/>
<path d="M102.269 114.048C102.269 114.048 103.162 104.285 101.885 97.4136C100.669 93.1707 97.552 93.9361 97.7276 98.2572C97.9032 102.578 98.0046 107.611 97.7978 115.021" fill="#D08B5B"/>
<path d="M102.886 114.048C103.036 112.398 103.109 110.738 103.154 109.082C103.287 105.753 103.158 102.42 102.768 99.1113C102.565 97.5608 102.308 95.9053 101.16 94.7376C100.363 93.9275 99.1784 93.7035 98.2758 94.4784C97.2132 95.3906 97.065 97.0441 97.1151 98.3434C97.1694 99.7552 97.2172 101.167 97.2476 102.58C97.3368 106.726 97.2966 110.875 97.1818 115.021C97.1598 115.814 98.3926 115.813 98.4146 115.021C98.5144 111.415 98.5588 107.808 98.5089 104.202C98.4893 102.78 98.4553 101.358 98.407 99.9366C98.3646 98.6814 98.147 97.2687 98.6334 96.0857C98.7155 95.8783 98.831 95.6856 98.9752 95.5154C99.0108 95.4776 99.1894 95.3202 99.1129 95.3765C99.1605 95.3415 99.4059 95.2239 99.299 95.2613C99.3456 95.245 99.5816 95.2047 99.438 95.2164C99.4837 95.2127 99.7257 95.2296 99.5873 95.2075C99.7902 95.2272 99.9806 95.3145 100.128 95.4554C100.521 95.8289 100.827 96.2851 101.022 96.791C101.29 97.5212 101.46 98.2835 101.528 99.0582C101.908 102.192 102.044 105.35 101.936 108.504C101.896 110.353 101.821 112.206 101.653 114.048C101.581 114.838 102.814 114.833 102.886 114.048V114.048Z" fill="black"/>
<path d="M97.8995 115.499C97.3881 112.108 96.4033 107.024 95.0312 103.415C93.0769 99.4575 90.1463 100.768 91.0912 104.988C92.0361 109.208 92.632 112.357 93.7523 119.684" fill="#D08B5B"/>
<path d="M98.4946 115.334C98.0844 112.54 97.5234 109.77 96.8142 107.036C96.6299 106.339 96.4324 105.646 96.2155 104.958C96.03 104.285 95.7933 103.628 95.5075 102.991C95.0045 101.977 94.1982 100.889 93.0759 100.525C92.2339 100.255 91.3158 100.586 90.8396 101.331C90.2073 102.254 90.2276 103.505 90.3877 104.563C90.5499 105.635 90.8415 106.696 91.0631 107.757C91.2689 108.742 91.4641 109.73 91.6488 110.719C92.2149 113.751 92.6923 116.799 93.1587 119.848C93.2512 120.174 93.589 120.366 93.9169 120.278C94.2398 120.181 94.4293 119.847 94.3474 119.52C93.654 114.988 92.9202 110.463 91.9424 105.982C91.7223 104.973 91.4033 103.928 91.5611 102.886C91.6024 102.544 91.7255 102.218 91.9199 101.933C91.9537 101.894 92.0887 101.768 92.0668 101.785C92.0374 101.807 92.1803 101.717 92.2125 101.701C92.2971 101.658 92.1246 101.731 92.2139 101.7C92.2475 101.688 92.2819 101.678 92.3168 101.67C92.3354 101.667 92.4473 101.647 92.3678 101.658C92.2837 101.668 92.4335 101.657 92.4501 101.657C92.5684 101.658 92.6854 101.682 92.7943 101.728C92.9404 101.795 93.0793 101.877 93.2087 101.972C93.6177 102.311 93.9581 102.725 94.2115 103.191C94.5113 103.751 94.749 104.342 94.9204 104.954C95.1291 105.595 95.3201 106.242 95.4984 106.892C96.2719 109.778 96.8754 112.706 97.3059 115.662C97.3983 115.989 97.7361 116.181 98.0641 116.093C98.3869 115.995 98.5763 115.662 98.4946 115.334L98.4946 115.334Z" fill="black"/>
<path d="M170.707 273.951C167.352 267.92 123.858 262.32 123.858 262.32L142.91 218.236C143.944 215.325 146.837 213.638 149.622 214.321L168.206 218.876C171.232 219.618 172.506 221.257 172.717 226.016C172.717 226.016 172.953 258.873 170.707 273.951Z" fill="white"/>
<path d="M263.489 246.04L253.789 232.149C253.265 237.177 249.852 241.436 245.059 243.041L155.863 272.923C149.267 275.133 141.989 273.43 137.058 268.523L52.5219 197.084L52.488 197.103L47.8048 217.296L24.3816 319.738L235.064 368.601L263.489 246.04Z" fill="black"/>
<path d="M264.021 245.728L254.321 231.837C254.175 231.606 253.896 231.497 253.632 231.568C253.368 231.64 253.182 231.875 253.173 232.148C252.646 237.209 249.031 241.061 244.333 242.634L238.722 244.514L215.098 252.429L185.068 262.489L161.63 270.341L156.183 272.166C150.923 273.928 145.269 273.496 140.523 270.506C138.856 269.456 137.395 268.003 135.881 266.724L130.381 262.076L111.023 245.718L86.9715 225.392L65.2548 207.04L53.5113 197.115L52.9576 196.647C52.7558 196.457 52.4543 196.418 52.2107 196.551C51.8183 196.77 51.7917 197.377 51.701 197.768L51.0692 200.492L49.0986 208.989C48.4467 211.8 47.7886 214.609 47.1438 217.422C45.7998 223.283 44.4593 229.146 43.1224 235.01L35.4454 268.585L27.8127 301.968L25.1562 313.586C24.7204 315.492 24.1958 317.4 23.8442 319.324C23.8289 319.408 23.8061 319.491 23.7871 319.574C23.702 319.901 23.8927 320.237 24.2176 320.332L29.8513 321.639L45.1831 325.194L67.8599 330.454L95.5277 336.871L125.833 343.899L156.423 350.994L184.944 357.609L209.041 363.197L226.313 367.203C229.059 367.84 231.799 368.516 234.554 369.115C234.67 369.14 234.785 369.168 234.9 369.195C235.227 369.28 235.563 369.089 235.658 368.764L238.494 356.535L245.277 327.291L253.505 291.815L260.591 261.261L262.926 251.193C263.293 249.611 263.768 248.015 264.035 246.412C264.047 246.342 264.067 246.272 264.083 246.203C264.262 245.431 263.074 245.101 262.895 245.875L260.058 258.105L253.276 287.348L245.048 322.824L237.962 353.378L235.627 363.447L234.899 366.583C234.785 367.076 234.51 367.718 234.518 368.228C234.509 368.299 234.493 368.369 234.469 368.437L235.228 368.006L229.594 366.7L214.262 363.144L191.585 357.884L163.918 351.467L133.612 344.439L103.022 337.344L74.5017 330.73L50.404 325.141L33.1324 321.135L27.7143 319.878C26.8022 319.667 25.8248 319.315 24.8912 319.224C24.7743 319.204 24.6587 319.177 24.5452 319.143L24.9757 319.902L28.2255 305.689L35.5709 273.563L43.3841 239.391L48.1264 218.651C49.6695 211.902 51.251 205.161 52.8151 198.417C52.8933 198.149 52.9565 197.877 53.0044 197.601C53.0581 197.13 53.2443 197.386 52.8328 197.616L52.0859 197.519L60.5877 204.704L80.9696 221.928L105.458 242.622L126.508 260.412C129.844 263.231 133.268 265.972 136.527 268.879C138.373 270.525 140.236 271.963 142.532 272.946C146.169 274.5 150.199 274.887 154.067 274.054C155.692 273.703 157.277 273.098 158.852 272.57L179.555 265.635L209.514 255.598L235.757 246.806L243.345 244.265C245.696 243.477 247.927 242.657 249.856 240.984C252.433 238.719 254.058 235.562 254.405 232.149L253.257 232.46L262.957 246.35C263.408 246.996 264.477 246.38 264.021 245.728Z" fill="black"/>
<path d="M125.376 258.67L123.598 261.972C122.353 264.286 122.645 267.125 124.334 269.137L127.433 272.829L133.186 261.94" fill="black"/>
<path d="M124.844 258.359L123.612 260.647C123.056 261.681 122.498 262.692 122.313 263.873C122.011 265.738 122.468 267.647 123.583 269.173C124.09 269.854 124.666 270.488 125.212 271.137L126.998 273.265C127.133 273.399 127.323 273.463 127.512 273.438C127.701 273.414 127.868 273.304 127.966 273.14L133.006 263.6L133.719 262.251C134.089 261.55 133.025 260.926 132.654 261.629L127.614 271.169L126.901 272.518L127.869 272.393C126.847 271.176 125.821 269.962 124.803 268.741C123.842 267.583 123.362 266.1 123.462 264.599C123.536 263.454 124.021 262.488 124.551 261.503L125.908 258.981C126.284 258.283 125.22 257.66 124.844 258.359V258.359Z" fill="black"/>
<path d="M171.205 269.953L170.757 273.935C170.518 276.057 169.196 277.903 167.264 278.813L159.894 282.281L154.758 263.584" fill="black"/>
<path d="M170.589 269.953L170.227 273.171C170.189 273.64 170.12 274.106 170.02 274.566C169.779 275.545 169.276 276.44 168.565 277.155C167.802 277.92 166.846 278.331 165.888 278.782L162.21 280.512L159.584 281.748L160.489 282.117L158.751 275.788L155.983 265.714L155.353 263.42C155.143 262.656 153.954 262.98 154.164 263.748L155.903 270.077L158.671 280.15L159.301 282.444C159.355 282.627 159.489 282.774 159.665 282.846C159.841 282.918 160.04 282.905 160.206 282.813L166.283 279.953C167.269 279.489 168.249 279.07 169.088 278.35C170.508 277.13 171.204 275.45 171.409 273.626L171.822 269.953C171.82 269.614 171.545 269.339 171.206 269.337C170.868 269.344 170.597 269.616 170.589 269.953V269.953Z" fill="black"/>
<path d="M181.981 199.789C181.981 199.789 188.761 199.378 189.172 210.267C199.651 213.555 201.089 225.882 194.309 232.457C167.805 224.444 161.23 220.54 161.23 220.54C161.23 220.54 166.367 201.844 181.981 199.789Z" fill="#231F20"/>
<path d="M181.981 200.405C182.202 200.399 182.422 200.412 182.64 200.442C182.381 200.415 182.747 200.462 182.825 200.477C182.96 200.503 183.094 200.534 183.227 200.57C183.353 200.604 183.479 200.641 183.602 200.683C183.675 200.708 183.747 200.734 183.818 200.761C183.855 200.775 183.892 200.79 183.929 200.804C184.092 200.867 183.868 200.775 183.969 200.821C184.31 200.975 184.639 201.156 184.951 201.364C185.285 201.589 185.593 201.85 185.87 202.143C186.59 202.903 187.153 203.797 187.528 204.774C188.177 206.534 188.524 208.391 188.556 210.266C188.563 210.542 188.745 210.781 189.009 210.861C192.461 211.956 195.367 214.326 196.826 217.677C198.88 222.611 197.709 228.299 193.873 232.02L194.473 231.861C190.008 230.511 185.557 229.114 181.132 227.638C177.999 226.593 174.879 225.509 171.785 224.357C170.652 223.935 169.524 223.502 168.399 223.059C167.927 222.872 167.455 222.683 166.984 222.491C166.775 222.405 166.566 222.319 166.358 222.233C166.255 222.19 166.152 222.147 166.05 222.104C166.007 222.086 165.964 222.068 165.921 222.05C165.873 222.03 165.731 221.97 165.859 222.024C164.772 221.565 163.691 221.09 162.63 220.572C162.277 220.399 161.921 220.152 161.553 220.014C161.549 220.012 161.545 220.01 161.541 220.007L161.825 220.703C161.998 220.071 162.221 219.451 162.448 218.837C163.006 217.326 163.663 215.854 164.415 214.43C166.585 210.279 169.512 206.41 173.414 203.742C175.971 201.976 178.904 200.833 181.981 200.404C182.317 200.394 182.587 200.124 182.598 199.788C182.598 199.489 182.314 199.127 181.981 199.172C179.048 199.554 176.227 200.548 173.701 202.088C171.462 203.484 169.456 205.222 167.754 207.238C165.059 210.449 162.927 214.093 161.447 218.015C161.137 218.788 160.866 219.576 160.636 220.375C160.566 220.644 160.681 220.927 160.919 221.071C161.194 221.235 161.484 221.377 161.77 221.519C162.744 222.004 163.739 222.448 164.739 222.877C166.633 223.69 168.55 224.449 170.478 225.178C173.429 226.295 176.407 227.343 179.396 228.354C183.664 229.797 187.958 231.161 192.266 232.479C192.892 232.67 193.518 232.861 194.145 233.05C194.359 233.109 194.587 233.048 194.745 232.892C197.406 230.279 198.952 226.737 199.059 223.01C199.176 219.334 197.786 215.771 195.21 213.146C193.558 211.535 191.544 210.344 189.336 209.672L189.789 210.267C189.667 207.234 189.081 203.959 187.036 201.592C185.999 200.373 184.573 199.549 182.998 199.26C182.664 199.194 182.323 199.164 181.982 199.172C181.193 199.218 181.188 200.451 181.981 200.405Z" fill="black"/>
<path d="M129.487 257.523L114.694 290.602L158.867 312.997L166.264 307.449L171.297 263.687" fill="white"/>
<path d="M128.955 257.212L127.48 260.511L123.939 268.429L119.673 277.968L115.985 286.214C115.386 287.553 114.78 288.89 114.189 290.232C114.18 290.252 114.171 290.271 114.162 290.291C113.997 290.585 114.095 290.958 114.384 291.134L118.793 293.369L129.344 298.719L142.101 305.186L153.149 310.787C154.925 311.688 156.691 312.618 158.482 313.491C158.507 313.503 158.532 313.516 158.557 313.529C158.749 313.642 158.987 313.642 159.179 313.529L163.581 310.227L166.102 308.337C166.258 308.22 166.414 308.104 166.57 307.986C166.759 307.843 166.876 307.624 166.888 307.387C166.98 306.623 167.064 305.858 167.152 305.094L167.719 300.165L168.493 293.43L169.372 285.789L170.25 278.158L171.034 271.342L171.618 266.26C171.713 265.441 171.841 264.618 171.902 263.796C171.904 263.76 171.91 263.723 171.914 263.687C171.912 263.347 171.638 263.073 171.298 263.071C170.961 263.078 170.689 263.35 170.682 263.687L170.182 268.033L168.977 278.507L167.524 291.143L166.264 302.089L165.851 305.68C165.787 306.242 165.684 306.813 165.656 307.378C165.655 307.401 165.651 307.426 165.648 307.449L165.953 306.917L159.479 311.773L158.557 312.464H159.179L154.77 310.229L144.218 304.879L131.461 298.412L120.414 292.811L116.811 290.985C116.242 290.696 115.673 290.347 115.081 290.107C115.055 290.097 115.03 290.082 115.006 290.069L115.227 290.913L116.702 287.614L120.243 279.696L124.509 270.157L128.197 261.91C128.796 260.571 129.402 259.235 129.993 257.893C130.002 257.873 130.011 257.854 130.02 257.834C130.181 257.539 130.084 257.169 129.799 256.991C129.504 256.822 129.129 256.92 128.955 257.212V257.212Z" fill="black"/>
<path d="M141.552 221.488L140.104 224.814C135.597 223.614 130.889 225.889 129.029 230.166C127.168 234.443 128.713 239.438 132.664 241.918L123.762 262.377C123.762 262.377 167.351 267.919 170.706 273.951C172.952 258.873 172.716 226.016 172.716 226.016C172.505 221.257 171.231 219.618 168.205 218.876L144.622 213.096" fill="#91CFA6"/>
<path d="M141.02 221.176L139.573 224.502L140.269 224.219C136.613 223.244 132.719 224.405 130.194 227.224C127.67 230.043 126.943 234.041 128.314 237.568C129.112 239.58 130.525 241.288 132.353 242.449L132.132 241.606L129.106 248.561L124.325 259.551L123.231 262.065C123.127 262.257 123.129 262.489 123.238 262.678C123.346 262.867 123.545 262.986 123.763 262.993C124.153 263.042 124.542 263.095 124.931 263.147C125.086 263.167 124.769 263.125 124.928 263.146L125.069 263.165C125.186 263.181 125.302 263.197 125.418 263.213C125.665 263.246 125.912 263.28 126.159 263.314C126.768 263.398 127.377 263.484 127.985 263.571C131.502 264.072 135.012 264.616 138.517 265.2C142.877 265.93 147.227 266.725 151.551 267.646C155.526 268.446 159.455 269.456 163.323 270.67C164.098 270.924 164.869 271.193 165.63 271.487C165.793 271.55 165.955 271.615 166.117 271.68C166.204 271.715 166.29 271.751 166.376 271.787C166.407 271.799 166.514 271.845 166.391 271.792C166.444 271.815 166.497 271.838 166.55 271.86C166.86 271.994 167.167 272.134 167.471 272.281C168.002 272.533 168.515 272.821 169.006 273.142C169.108 273.21 169.208 273.281 169.307 273.352C169.342 273.378 169.503 273.508 169.34 273.376C169.39 273.416 169.44 273.456 169.489 273.497C169.654 273.633 169.807 273.781 169.95 273.941C169.979 273.974 170.005 274.009 170.035 274.042C170.078 274.089 169.942 273.899 170.032 274.038C170.079 274.113 170.13 274.184 170.174 274.262C170.413 274.686 171.22 274.656 171.3 274.114C171.797 270.769 172.095 267.396 172.335 264.023C172.613 260.108 172.799 256.187 172.941 252.265C173.081 248.426 173.18 244.586 173.239 240.744C173.29 237.65 173.322 234.555 173.334 231.46C173.341 229.777 173.341 228.094 173.335 226.412C173.323 224.02 173.013 221.054 170.989 219.468C169.694 218.453 167.98 218.186 166.418 217.803L159.042 215.995L150.364 213.868L145.046 212.565L144.786 212.501C144.015 212.312 143.686 213.5 144.458 213.689L148.197 214.606L156.358 216.606L164.49 218.6C165.751 218.909 167.021 219.192 168.275 219.53C169.674 219.907 170.731 220.578 171.346 221.903C171.921 223.142 172.076 224.707 172.1 226.079C172.123 227.366 172.108 228.655 172.106 229.942C172.101 232.748 172.079 235.553 172.042 238.359C171.993 242.041 171.914 245.722 171.804 249.403C171.684 253.336 171.524 257.267 171.288 261.194C171.076 264.715 170.813 268.236 170.387 271.738C170.298 272.469 170.219 273.066 170.112 273.787L171.239 273.639C170.75 272.772 169.84 272.17 168.997 271.69C167.728 270.998 166.401 270.417 165.032 269.954C161.313 268.62 157.447 267.686 153.595 266.83C149.246 265.864 144.865 265.041 140.474 264.287C136.761 263.65 133.04 263.063 129.311 262.526C128.108 262.351 126.904 262.182 125.699 262.017C125.087 261.934 124.456 261.799 123.838 261.77C123.813 261.768 123.788 261.763 123.763 261.76L124.295 262.688L127.321 255.732L132.102 244.742L133.196 242.228C133.357 241.932 133.26 241.563 132.975 241.385C129.286 239.064 127.846 234.396 129.588 230.401C131.33 226.406 135.73 224.284 139.941 225.408C140.21 225.479 140.494 225.364 140.637 225.124L142.084 221.798C142.245 221.503 142.148 221.133 141.863 220.955C141.569 220.786 141.193 220.884 141.02 221.176L141.02 221.176Z" fill="black"/>
<path d="M168.031 240.287L207.39 264.159C221.033 269.664 225.668 262.029 231.394 254.73L257.933 220.896L258.076 209.379L244.282 209.94L217.105 244.903L185.632 223.525L162.35 217.38" fill="#D08B5B"/>
<path d="M167.72 240.818L173.778 244.492L187.154 252.605L200.589 260.753L205.176 263.536C205.803 263.916 206.42 264.339 207.068 264.683C207.844 265.048 208.651 265.345 209.479 265.57C210.551 265.918 211.646 266.189 212.757 266.382C214.582 266.715 216.45 266.731 218.28 266.431C221.428 265.875 224.114 264.081 226.329 261.841C228.953 259.19 231.108 256.085 233.409 253.152L241.707 242.572L251.887 229.594L258.125 221.642C258.338 221.435 258.485 221.169 258.549 220.879C258.617 220.23 258.566 219.547 258.574 218.895L258.671 211.019L258.692 209.378C258.688 209.039 258.414 208.765 258.075 208.762L245.403 209.277C244.989 209.294 244.175 209.19 243.845 209.505C243.71 209.655 243.586 209.814 243.474 209.982L241.087 213.053L232.132 224.573L222.139 237.429L218.532 242.069C217.946 242.824 217.27 243.56 216.749 244.363C216.726 244.399 216.695 244.432 216.669 244.466L217.416 244.37L209.813 239.205L195.322 229.362L186.104 223.101C185.947 222.996 185.772 222.919 185.588 222.875L183.751 222.39L176.451 220.463L162.762 216.85L162.514 216.785C161.746 216.582 161.418 217.771 162.186 217.973L173.965 221.083L181.968 223.195L184.556 223.878L185.26 224.064C185.312 224.083 185.365 224.097 185.42 224.106C185.527 224.11 185.419 224.177 185.325 224.059C185.52 224.232 185.737 224.38 185.97 224.498L187.63 225.625L193.131 229.362L207.634 239.212C210.637 241.253 213.598 243.384 216.657 245.342C216.704 245.371 216.748 245.403 216.794 245.434C217.036 245.576 217.342 245.536 217.541 245.338L220.244 241.86L226.737 233.508L234.59 223.404L241.378 214.672L243.608 211.804C243.995 211.375 244.35 210.918 244.67 210.437C244.685 210.415 244.701 210.395 244.718 210.375L244.282 210.556L256.349 210.065L258.075 209.995L257.459 209.378L257.334 219.457L257.316 220.896L257.497 220.46L253.72 225.275L245.231 236.098L236.337 247.436L231.165 254.029C228.397 257.558 225.746 261.646 221.74 263.892C219.094 265.376 216.05 265.694 213.085 265.194C212.106 265.025 211.14 264.793 210.191 264.501C209.338 264.274 208.504 263.981 207.697 263.623C207.55 263.551 207.411 263.45 207.271 263.365L200.05 258.985L187.777 251.541L175.632 244.175L168.675 239.955L168.342 239.754C167.662 239.341 167.042 240.407 167.72 240.818L167.72 240.818Z" fill="black"/>
<path d="M166.419 248.295L191.189 261.266C190.566 257.185 194.134 247.74 196.406 243.886C198.213 240.766 200.307 237.821 202.661 235.091L188.657 225.579C186.655 224.219 184.436 223.208 182.096 222.591L162.35 217.379" fill="#91CFA6"/>
<path d="M166.108 248.827L168.572 250.117L174.488 253.216L181.646 256.964L187.832 260.204C188.831 260.727 189.821 261.279 190.833 261.775C190.848 261.783 190.863 261.791 190.878 261.799C191.095 261.916 191.361 261.895 191.557 261.745C191.752 261.594 191.841 261.343 191.783 261.103C191.781 261.086 191.77 260.983 191.781 261.084C191.777 261.053 191.773 261.022 191.77 260.99C191.763 260.915 191.756 260.84 191.751 260.765C191.74 260.607 191.735 260.448 191.734 260.289C191.731 259.94 191.748 259.591 191.777 259.244C191.848 258.48 191.964 257.721 192.127 256.972C192.519 255.159 193.029 253.373 193.654 251.627C194.246 249.919 194.925 248.243 195.689 246.606C196.502 244.918 197.43 243.288 198.465 241.726C199.853 239.548 201.401 237.476 203.097 235.527C203.228 235.39 203.29 235.201 203.266 235.013C203.242 234.825 203.134 234.658 202.972 234.559L196.734 230.322L189.189 225.197C187.15 223.795 184.895 222.738 182.514 222.065C181.833 221.877 181.148 221.703 180.464 221.523L170.325 218.847C167.765 218.171 165.212 217.454 162.641 216.819C162.598 216.808 162.556 216.796 162.514 216.785C161.746 216.582 161.418 217.771 162.186 217.974L168.653 219.68L179.188 222.461C180.066 222.693 180.945 222.925 181.823 223.157C184.155 223.769 186.366 224.772 188.363 226.123C190.561 227.612 192.756 229.103 194.95 230.597L202.22 235.535L202.35 235.624L202.226 234.656C200.683 236.422 199.259 238.29 197.965 240.246C196.797 241.94 195.75 243.714 194.829 245.554C193.165 248.942 191.893 252.508 191.038 256.185C190.656 257.887 190.339 259.687 190.595 261.431L191.5 260.735L189.037 259.444L183.12 256.346L175.963 252.598L169.776 249.358C168.777 248.835 167.788 248.283 166.775 247.786C166.76 247.779 166.746 247.771 166.731 247.763C166.029 247.395 165.405 248.459 166.108 248.827L166.108 248.827Z" fill="black"/>
<path d="M191.286 261.198C192.397 261.854 194.53 260.52 197.023 257.869L191.446 254.486C190.31 257.993 190.166 260.538 191.286 261.198Z" fill="black"/>
<path d="M190.974 261.732C191.899 262.252 192.989 261.853 193.839 261.369C195.211 260.589 196.383 259.445 197.458 258.306C197.59 258.17 197.653 257.981 197.629 257.792C197.605 257.604 197.496 257.437 197.334 257.338L192.463 254.384L191.757 253.956C191.591 253.862 191.391 253.849 191.215 253.921C191.038 253.993 190.904 254.141 190.851 254.324C190.365 255.837 189.924 257.435 189.9 259.035C189.885 260.02 190.066 261.171 190.974 261.732C191.65 262.15 192.27 261.084 191.596 260.668C191.456 260.581 191.615 260.701 191.497 260.592C191.485 260.58 191.394 260.48 191.449 260.546C191.503 260.61 191.412 260.491 191.41 260.487C191.327 260.372 191.27 260.241 191.242 260.102C191.134 259.671 191.1 259.226 191.141 258.784C191.26 257.374 191.562 255.984 192.04 254.652L191.134 255.02L196.005 257.974L196.711 258.403L196.587 257.435C195.659 258.482 194.599 259.404 193.433 260.177C193.072 260.42 192.673 260.599 192.253 260.709C192.205 260.721 191.982 260.75 192.102 260.741C192.013 260.748 191.926 260.747 191.836 260.746C191.716 260.744 191.897 260.762 191.827 260.746C191.787 260.737 191.748 260.727 191.709 260.718C191.551 260.682 191.738 260.747 191.596 260.668C190.903 260.279 190.281 261.343 190.974 261.732Z" fill="black"/>
<path d="M258.076 209.379L244.283 209.94L217.105 244.903L208.464 239.033L202.662 235.092C200.307 237.822 198.213 240.767 196.407 243.886C194.304 247.496 192.568 251.307 191.227 255.263L197.596 259.167L210.267 267.446C223.909 272.951 228.545 265.317 234.27 258.017L257.933 220.896L258.076 209.379Z" fill="#D08B5B"/>
<path d="M258.076 208.762L253.008 208.968L245.446 209.276C245.037 209.293 244.166 209.183 243.845 209.507C243.71 209.661 243.585 209.822 243.469 209.991L241.07 213.077L237.05 218.249L232.096 224.621L226.9 231.306L222.132 237.44L218.526 242.079C217.936 242.839 217.302 243.58 216.748 244.366C216.724 244.401 216.696 244.433 216.67 244.467L217.417 244.37L211.199 240.147L206.302 236.821L202.973 234.559C202.731 234.419 202.425 234.458 202.226 234.656C198.041 239.394 194.743 244.97 192.277 250.776C191.674 252.195 191.111 253.632 190.633 255.099C190.562 255.368 190.678 255.652 190.917 255.795C193.193 257.19 195.507 258.536 197.742 259.997L207.531 266.393L209.395 267.611C209.856 267.91 210.351 268.155 210.869 268.338C213.992 269.515 217.372 270.264 220.714 269.789C223.304 269.421 225.639 268.228 227.639 266.572C229.628 264.926 231.258 262.893 232.837 260.865C233.597 259.887 234.415 258.938 235.081 257.892L236.589 255.526L242.36 246.473L249.691 234.973L255.907 225.221L257.805 222.244L258.313 221.447C258.442 221.288 258.524 221.097 258.55 220.894C258.58 220.463 258.561 220.024 258.566 219.593L258.602 216.671L258.679 210.493L258.693 209.379C258.702 208.585 257.47 208.585 257.46 209.379L257.335 219.468L257.317 220.896L257.401 220.585L255.327 223.839L250.271 231.77L243.921 241.731L238.027 250.978L234.277 256.862L233.874 257.494C233.84 257.548 233.805 257.602 233.77 257.656C233.687 257.785 233.853 257.56 233.727 257.719C232.288 259.536 230.925 261.412 229.381 263.142C227.955 264.739 226.372 266.223 224.481 267.255C222.492 268.317 220.251 268.815 218 268.695C216.553 268.62 215.12 268.38 213.727 267.98C212.914 267.756 212.112 267.491 211.322 267.197C211.039 267.11 210.765 266.999 210.502 266.863C209.546 266.285 208.625 265.637 207.689 265.026L198.79 259.211C196.761 257.885 194.672 256.651 192.606 255.385L191.539 254.731L191.822 255.427C193.745 249.676 196.532 244.252 200.087 239.34C201.024 238.018 202.029 236.746 203.098 235.528L202.351 235.624C204.281 236.935 206.21 238.246 208.14 239.556C210.142 240.916 212.144 242.276 214.146 243.636L216.795 245.435C217.037 245.576 217.343 245.537 217.542 245.339L220.247 241.858L226.743 233.502L234.599 223.395L241.387 214.663L243.61 211.802C243.988 211.365 244.343 210.909 244.673 210.435C244.687 210.415 244.703 210.395 244.719 210.376L244.283 210.556L248.926 210.368L256.372 210.064L258.076 209.995C258.867 209.963 258.871 208.73 258.076 208.762Z" fill="black"/>
<path d="M239.981 215.473L242.299 212.504C243.877 210.483 245.222 208.29 246.31 205.968C247.156 204.162 248.193 201.781 249.279 198.891C249.279 198.891 251.153 193.904 252.865 195.279C254.577 196.654 254.286 201.555 254.286 201.555C254.286 201.555 257.913 195.058 262.084 197.911C266.173 200.707 273.056 206.592 265.217 214.168C264.914 214.458 264.657 214.792 264.452 215.158C263.635 216.635 261.126 220.647 257.879 220.803" fill="#D08B5B"/>
<path d="M240.417 215.909C241.25 214.842 242.088 213.78 242.914 212.708C244.937 210.085 246.469 207.206 247.792 204.179C248.473 202.623 249.115 201.052 249.719 199.464C249.812 199.217 249.904 198.971 250.005 198.728C249.944 198.874 250.012 198.711 250.037 198.655C250.068 198.584 250.099 198.514 250.131 198.444C250.214 198.262 250.3 198.081 250.389 197.902C250.766 197.151 251.223 196.31 251.818 195.847C251.803 195.859 251.941 195.768 251.987 195.738C252.131 195.643 251.969 195.738 252.122 195.676C252.152 195.666 252.184 195.658 252.216 195.653C252.068 195.686 252.202 195.653 252.243 195.655C252.278 195.657 252.357 195.669 252.223 195.646C252.272 195.655 252.32 195.667 252.367 195.683C252.251 195.645 252.465 195.743 252.506 195.775C252.447 195.729 252.608 195.878 252.637 195.908C252.773 196.064 252.889 196.238 252.979 196.425C253.464 197.361 253.593 198.559 253.656 199.624C253.698 200.267 253.702 200.912 253.669 201.555C253.633 202.173 254.528 202.384 254.818 201.866C255.083 201.405 255.381 200.963 255.71 200.545C255.638 200.639 255.763 200.479 255.764 200.478C255.797 200.437 255.83 200.396 255.863 200.355C255.939 200.262 256.016 200.17 256.095 200.08C256.276 199.87 256.465 199.666 256.662 199.471C257.034 199.089 257.449 198.751 257.898 198.462C258.849 197.861 259.896 197.595 260.974 198.008C261.507 198.249 262.006 198.557 262.46 198.925C262.922 199.258 263.356 199.591 263.793 199.953C265.694 201.532 267.537 203.518 268.058 206.012C268.314 207.33 268.153 208.695 267.598 209.918C267.245 210.703 266.796 211.441 266.259 212.114C265.62 212.928 264.796 213.588 264.19 214.424C263.819 214.936 263.54 215.521 263.192 216.051C262.793 216.665 262.349 217.248 261.864 217.797C260.835 218.948 259.49 220.091 257.878 220.187C257.09 220.234 257.085 221.467 257.878 221.42C260.992 221.234 263.271 218.387 264.737 215.901C264.885 215.651 265.017 215.388 265.182 215.149C265.542 214.702 265.934 214.281 266.354 213.889C267.044 213.157 267.654 212.353 268.172 211.491C269.032 210.096 269.46 208.478 269.402 206.84C269.23 203.962 267.409 201.532 265.339 199.665C264.375 198.781 263.336 197.981 262.235 197.274C261.073 196.527 259.625 196.377 258.335 196.869C256.374 197.623 254.764 199.44 253.753 201.244L254.902 201.555C254.997 199.919 254.908 198.12 254.367 196.566C254.047 195.649 253.43 194.511 252.339 194.428C251.375 194.355 250.639 195.199 250.133 195.908C248.956 197.557 248.375 199.593 247.62 201.445C246.345 204.571 244.952 207.656 243.04 210.451C241.956 212.036 240.726 213.524 239.545 215.037C239.315 215.282 239.315 215.664 239.545 215.909C239.787 216.147 240.175 216.147 240.417 215.909L240.417 215.909Z" fill="black"/>
<path d="M265.085 208.737C267.952 206.855 272.395 204.196 275.999 202.81C280.251 201.624 281.23 204.681 277.457 206.794C273.683 208.906 270.94 210.564 264.735 214.619" fill="#D08B5B"/>
<path d="M265.396 209.27C267.626 207.797 269.927 206.436 272.293 205.193C273.484 204.561 274.706 203.991 275.956 203.486C276.511 203.273 277.101 203.164 277.695 203.162C278.067 203.147 278.436 203.218 278.776 203.37C278.896 203.422 279.001 203.506 279.078 203.613C279.139 203.687 279.019 203.544 279.077 203.617C279.099 203.645 279.117 203.676 279.131 203.709C279.169 203.795 279.1 203.617 279.133 203.705C279.149 203.747 279.16 203.789 279.173 203.831C279.182 203.866 279.19 203.901 279.194 203.936C279.176 203.813 279.188 203.909 279.188 203.935C279.188 203.982 279.189 204.028 279.186 204.075C279.182 204.174 279.204 203.984 279.188 204.085C279.162 204.235 279.116 204.38 279.052 204.518C278.585 205.444 277.641 205.983 276.771 206.472C275.114 207.404 273.474 208.364 271.85 209.352C269.346 210.884 266.882 212.482 264.424 214.088C263.762 214.52 264.38 215.588 265.046 215.152C269.121 212.49 273.223 209.879 277.468 207.495C278.473 206.93 279.522 206.25 280.084 205.203C280.504 204.42 280.573 203.47 279.967 202.762C279.31 201.994 278.16 201.861 277.215 201.957C275.79 202.1 274.501 202.74 273.224 203.351C270.302 204.779 267.479 206.401 264.774 208.206C264.113 208.639 264.73 209.707 265.396 209.27L265.396 209.27Z" fill="black"/>
<path d="M259.381 201.956C262.224 195.111 263.559 192.208 265.487 188.337C267.416 184.467 264.885 182.492 262.039 185.866C258.063 191.613 254.285 201.556 254.285 201.556C254.285 201.556 262.781 210.018 259.687 214.84" fill="#D08B5B"/>
<path d="M259.976 202.12C261.27 199.006 262.58 195.895 264 192.835C264.544 191.661 265.104 190.495 265.679 189.336C266.326 188.029 267.124 186.473 266.653 184.974C266.251 183.695 264.971 183.248 263.774 183.736C262.193 184.381 261.269 185.845 260.416 187.24C258.746 190.044 257.258 192.954 255.963 195.95C255.164 197.744 254.39 199.555 253.692 201.392C253.631 201.606 253.692 201.836 253.85 201.992C254.769 202.923 255.623 203.917 256.405 204.965C257.82 206.844 259.197 208.969 259.646 211.311C259.901 212.407 259.726 213.559 259.156 214.529C258.732 215.202 259.798 215.821 260.22 215.151C261.604 212.953 260.857 210.237 259.805 208.071C258.732 205.971 257.383 204.024 255.795 202.28C255.448 201.885 255.095 201.492 254.722 201.12L254.88 201.72C256.448 197.55 258.316 193.5 260.468 189.6C260.845 188.925 261.235 188.256 261.643 187.598C262.017 186.927 262.471 186.304 262.994 185.742C263.436 185.31 263.981 184.87 264.61 184.767C264.772 184.737 264.938 184.754 265.09 184.817C264.954 184.763 265.276 184.943 265.164 184.856C265.209 184.892 265.251 184.932 265.29 184.975C265.404 185.097 265.246 184.894 265.338 185.039C265.438 185.199 265.503 185.378 265.53 185.565C265.566 185.858 265.556 186.155 265.5 186.444C265.328 187.199 265.049 187.925 264.671 188.6C264.128 189.697 263.597 190.8 263.077 191.908C261.557 195.163 260.165 198.476 258.787 201.793C258.698 202.121 258.89 202.459 259.217 202.551C259.544 202.632 259.878 202.443 259.976 202.12L259.976 202.12Z" fill="black"/>
<path d="M259.421 201.804C259.421 201.804 264.24 193.265 269.198 188.34C272.612 185.542 274.74 187.944 272.138 191.399C269.536 194.853 267.358 198.254 263.314 204.466" fill="#D08B5B"/>
<path d="M259.953 202.115C260.67 200.846 261.443 199.608 262.23 198.383C263.848 195.815 265.632 193.357 267.573 191.023C268.538 189.885 269.55 188.544 270.96 187.944C271.188 187.846 271.427 187.778 271.671 187.74C271.799 187.724 271.928 187.724 272.056 187.738C271.949 187.725 272.337 187.825 272.222 187.777C272.497 187.886 272.677 188.153 272.675 188.449C272.78 189.748 271.739 190.898 271.014 191.882C270.275 192.885 269.555 193.901 268.853 194.931C266.774 197.968 264.789 201.07 262.781 204.155C262.347 204.821 263.414 205.44 263.846 204.777C265.753 201.847 267.64 198.904 269.605 196.012C270.352 194.912 271.114 193.821 271.9 192.747C272.777 191.549 273.783 190.359 273.905 188.814C274 187.605 273.233 186.565 271.989 186.5C270.414 186.418 269.023 187.599 268.02 188.668C265.79 191.115 263.767 193.743 261.973 196.525C260.895 198.146 259.847 199.796 258.889 201.492C258.498 202.184 259.563 202.806 259.953 202.115L259.953 202.115Z" fill="black"/>
<path d="M263.25 204.516C263.25 204.516 269.926 197.335 275.895 193.701C279.866 191.775 281.377 194.608 278.041 197.36C274.706 200.113 270.889 203.396 265.509 208.494" fill="#D08B5B"/>
<path d="M263.686 204.952C264.677 203.887 265.715 202.864 266.765 201.857C268.933 199.739 271.238 197.765 273.665 195.948C274.895 195.046 276.228 193.943 277.782 193.714C278.209 193.613 278.659 193.683 279.035 193.91C278.928 193.83 279.186 194.08 279.1 193.969C279.128 194.005 279.234 194.217 279.197 194.121C279.257 194.272 279.277 194.435 279.256 194.596C279.085 195.913 277.73 196.818 276.795 197.596C275.778 198.443 274.768 199.299 273.766 200.164C270.803 202.723 267.915 205.367 265.073 208.059C264.496 208.605 265.369 209.476 265.945 208.93C268.639 206.379 271.373 203.87 274.175 201.436C275.261 200.493 276.356 199.56 277.461 198.639C278.599 197.69 279.879 196.751 280.357 195.279C280.731 194.127 280.256 192.933 279.058 192.567C277.588 192.118 275.968 192.9 274.771 193.682C272.012 195.544 269.415 197.635 267.008 199.933C265.569 201.27 264.153 202.642 262.814 204.08C262.275 204.66 263.144 205.534 263.686 204.952L263.686 204.952Z" fill="black"/>
<path d="M191.558 270.116L192.604 272.916L195.426 280.471L199.594 291.63L204.712 305.333L210.283 320.248L215.924 335.35L221.183 349.43L225.614 361.292L228.811 369.852C229.316 371.203 229.813 372.557 230.325 373.905C230.347 373.962 230.368 374.02 230.389 374.077C230.664 374.814 231.856 374.495 231.578 373.75L230.532 370.95L227.71 363.395L223.542 352.236L218.424 338.533L212.853 323.618L207.212 308.516L201.953 294.436L197.522 282.574L194.325 274.014C193.82 272.663 193.323 271.309 192.811 269.961C192.789 269.904 192.768 269.846 192.747 269.789C192.472 269.052 191.28 269.371 191.558 270.116Z" fill="black"/>
<path d="M103.575 248.56L103.031 249.097L101.473 250.635L99.0244 253.052L95.7706 256.263L91.8316 260.15L87.317 264.606L82.3368 269.521L77.0274 274.761L71.4465 280.269L65.7291 285.911L59.9849 291.58L54.324 297.167L48.8562 302.563L43.7155 307.637L38.9611 312.329L34.7289 316.506L31.1286 320.059L28.2703 322.88L26.2712 324.853L25.2213 325.889L25.0908 326.018C24.5253 326.576 25.397 327.447 25.9625 326.889L26.5063 326.353L28.0645 324.815L30.5133 322.398L33.7671 319.187L37.7063 315.299L42.2209 310.844L47.2011 305.929L52.5105 300.689L58.0913 295.181L63.8087 289.538L69.5528 283.869L75.2136 278.283L80.6815 272.886L85.8222 267.813L90.5766 263.121L94.8088 258.944L98.409 255.391L101.267 252.57L103.266 250.597L104.316 249.561L104.447 249.432C105.012 248.874 104.141 248.002 103.575 248.56L103.575 248.56Z" fill="black"/>
<circle cx="173.66" cy="153.459" r="7.39644" fill="#EF841F"/>
<path d="M180.44 153.458C180.439 156.321 178.64 158.874 175.945 159.839C173.249 160.803 170.238 159.971 168.421 157.759C166.604 155.546 166.373 152.431 167.842 149.975C169.312 147.518 172.166 146.249 174.975 146.804C178.139 147.454 180.418 150.228 180.44 153.458C180.446 154.251 181.679 154.253 181.673 153.458C181.673 150.07 179.543 147.048 176.352 145.91C173.162 144.771 169.6 145.762 167.455 148.385C165.311 151.008 165.048 154.696 166.798 157.597C168.548 160.498 171.933 161.985 175.253 161.311C178.963 160.585 181.647 157.206 181.673 153.458C181.679 152.665 180.446 152.664 180.44 153.458Z" fill="black"/>
<ellipse cx="66.823" cy="151.501" rx="11.4028" ry="12.4231" fill="#FC7F3A"/>
<path d="M67.4393 163.922C67.4575 159.292 70.0418 154.628 74.4551 152.853C75.654 152.37 76.9335 152.12 78.2258 152.115C79.019 152.112 79.0203 150.886 78.2258 150.883C73.5492 150.861 69.581 147.545 68.1144 143.198C67.6688 141.87 67.4408 140.477 67.4393 139.076C67.4362 138.283 66.2097 138.281 66.2066 139.076C66.1883 143.706 63.6041 148.37 59.1907 150.145C57.9919 150.628 56.7123 150.878 55.4201 150.883C54.6269 150.886 54.6256 152.112 55.4201 152.115C60.0966 152.137 64.0648 155.453 65.5315 159.799C65.9771 161.128 66.2051 162.52 66.2066 163.922C66.2097 164.715 67.4424 164.717 67.4393 163.922C67.4188 158.714 64.4747 153.674 59.5628 151.682C58.2451 151.155 56.8392 150.884 55.4201 150.882V152.115C60.6447 152.091 65.0483 148.418 66.7039 143.574C67.1912 142.125 67.4396 140.605 67.4394 139.076H66.2067C66.2272 144.283 69.1713 149.323 74.0832 151.316C75.4009 151.843 76.8068 152.114 78.2259 152.115V150.883C73.0014 150.907 68.5977 154.579 66.9421 159.423C66.4548 160.873 66.2064 162.393 66.2066 163.922C66.2034 164.715 67.4361 164.716 67.4393 163.922Z" fill="black"/>
<ellipse cx="246.598" cy="167.525" rx="11.4028" ry="12.4231" fill="#FC7F3A"/>
<path d="M247.214 179.949C247.232 175.32 249.816 170.656 254.23 168.88C255.429 168.398 256.708 168.147 258 168.143C258.794 168.139 258.795 166.914 258 166.91C253.324 166.888 249.356 163.572 247.889 159.226C247.443 157.897 247.215 156.505 247.214 155.103C247.211 154.31 245.984 154.309 245.981 155.103C245.963 159.733 243.379 164.397 238.965 166.172C237.767 166.655 236.487 166.905 235.195 166.91C234.402 166.914 234.4 168.139 235.195 168.143C239.871 168.165 243.839 171.48 245.306 175.827C245.752 177.156 245.98 178.548 245.981 179.949C245.984 180.742 247.217 180.744 247.214 179.949C247.193 174.742 244.249 169.702 239.337 167.709C238.02 167.182 236.614 166.911 235.195 166.91V168.143C240.419 168.118 244.823 164.446 246.479 159.602C246.966 158.152 247.214 156.633 247.214 155.103H245.981C246.002 160.311 248.946 165.351 253.858 167.343C255.176 167.87 256.581 168.142 258.001 168.143V166.91C252.776 166.934 248.372 170.607 246.717 175.451C246.229 176.9 245.981 178.42 245.981 179.949C245.978 180.743 247.211 180.744 247.214 179.949Z" fill="black"/>
<ellipse cx="224.819" cy="134.058" rx="13.4574" ry="14.6615" fill="#FC7F3A"/>
<path d="M225.436 148.719C225.454 143.203 228.543 137.664 233.794 135.549C235.219 134.976 236.741 134.679 238.277 134.674C239.07 134.671 239.071 133.444 238.277 133.441C232.707 133.419 227.986 129.466 226.237 124.295C225.707 122.716 225.437 121.062 225.436 119.396C225.433 118.603 224.206 118.602 224.203 119.396C224.185 124.913 221.096 130.451 215.845 132.566C214.42 133.14 212.898 133.437 211.362 133.441C210.569 133.444 210.567 134.671 211.362 134.674C216.931 134.696 221.653 138.649 223.401 143.821C223.931 145.4 224.202 147.054 224.203 148.719C224.206 149.512 225.438 149.514 225.436 148.719C225.415 142.611 221.948 136.676 216.172 134.361C214.641 133.754 213.009 133.443 211.362 133.441V134.674C214.318 134.653 217.184 133.658 219.517 131.843C221.881 129.986 223.645 127.475 224.59 124.622C225.151 122.937 225.436 121.173 225.436 119.396H224.203C224.224 125.504 227.691 131.44 233.467 133.755C234.998 134.361 236.63 134.673 238.277 134.674V133.442C235.321 133.462 232.454 134.457 230.121 136.272C227.758 138.129 225.994 140.64 225.049 143.493C224.488 145.178 224.203 146.943 224.203 148.719C224.201 149.512 225.433 149.514 225.436 148.719Z" fill="black"/>
<path d="M143.048 266.049L140.582 282.28L143.048 266.049Z" fill="white"/>
<path d="M142.454 265.885L141.62 271.375L140.292 280.118L139.988 282.116C139.909 282.443 140.097 282.775 140.419 282.875C140.747 282.963 141.084 282.771 141.177 282.444L142.011 276.955L143.339 268.211L143.642 266.213C143.722 265.886 143.533 265.554 143.212 265.455C142.884 265.367 142.546 265.559 142.454 265.885Z" fill="black"/>
<path d="M138.263 264.495L137.529 269.635C137.428 270.342 137.324 271.049 137.225 271.757C136.97 273.43 137.439 275.134 138.514 276.441C139.162 277.226 140.022 277.867 140.779 278.541C141.37 279.067 142.245 278.198 141.651 277.669C141.083 277.163 140.509 276.663 139.946 276.151C139.31 275.588 138.84 274.862 138.585 274.052C138.466 273.67 138.398 273.275 138.382 272.875C138.376 272.645 138.383 272.415 138.404 272.185C138.405 272.173 138.427 271.982 138.41 272.118C138.411 272.11 138.412 272.102 138.413 272.095C138.641 270.342 138.913 268.594 139.163 266.845L139.452 264.823C139.531 264.496 139.342 264.164 139.021 264.064C138.693 263.976 138.356 264.168 138.263 264.495L138.263 264.495Z" fill="black"/>
<path d="M53.5958 181.888C51.5918 179.967 49.3833 178.272 47.01 176.832C43.8853 174.929 39.1733 172.75 35.7887 175.29C34.7307 176.084 33.475 177.481 33.6127 178.92C33.716 180 34.6144 180.72 35.641 180.9C36.7676 181.096 37.9255 180.823 38.8458 180.144C39.9689 179.262 40.5856 177.884 40.4946 176.459C40.4346 174.622 39.6256 172.707 38.6097 171.2C37.4811 169.526 35.7978 168.189 34.0586 167.203C33.3155 166.787 32.5444 166.424 31.7508 166.115C31.4228 166.027 31.085 166.219 30.9926 166.546C30.9103 166.873 31.1 167.207 31.4231 167.304C33.6585 168.149 35.6448 169.545 37.1987 171.361C37.2432 171.414 37.2864 171.469 37.3301 171.524C37.4199 171.636 37.2692 171.443 37.3222 171.513C37.3409 171.538 37.3602 171.563 37.3785 171.588C37.4349 171.666 37.4918 171.743 37.5454 171.822C37.6858 172.031 37.8085 172.251 37.931 172.47C38.4541 173.366 38.8492 174.331 39.1049 175.337C39.1972 175.685 39.2491 176.043 39.2597 176.403C39.2679 176.585 39.2663 176.768 39.2549 176.95C39.2499 177.028 39.2425 177.105 39.2341 177.183C39.2232 177.285 39.2594 177.033 39.2327 177.193C39.2246 177.242 39.2167 177.29 39.2074 177.339C39.1808 177.478 39.1466 177.616 39.105 177.752C39.0827 177.824 39.0559 177.895 39.0317 177.966C38.9772 178.128 39.0684 177.91 38.9824 178.082C38.9223 178.203 38.8608 178.322 38.7893 178.436C38.7564 178.488 38.7204 178.539 38.6863 178.59C38.5809 178.75 38.7324 178.552 38.6221 178.674C38.5378 178.768 38.456 178.862 38.3644 178.949C38.322 178.989 38.2776 179.027 38.2339 179.066C38.2099 179.088 38.1841 179.107 38.1594 179.128C38.1154 179.165 38.276 179.046 38.162 179.126C37.96 179.266 37.7472 179.39 37.5255 179.496C37.4089 179.552 37.6333 179.454 37.553 179.485C37.5243 179.496 37.4959 179.509 37.4668 179.519C37.4146 179.537 37.363 179.557 37.3104 179.574C37.1893 179.614 37.0662 179.647 36.9416 179.674C36.8889 179.685 36.8357 179.694 36.783 179.705C36.6113 179.74 36.8225 179.705 36.7533 179.71C36.6371 179.72 36.522 179.732 36.4053 179.734C36.2918 179.736 36.1794 179.729 36.0662 179.722C36.022 179.72 35.9782 179.713 35.9342 179.708C36.1584 179.732 35.9253 179.704 35.8732 179.693C35.7803 179.674 35.6886 179.65 35.5982 179.621C35.5494 179.606 35.502 179.586 35.4534 179.57C35.4162 179.558 35.5731 179.638 35.4357 179.56C35.3511 179.512 35.2678 179.464 35.1841 179.415C35.0799 179.353 35.1457 179.382 35.1846 179.418C35.1472 179.383 35.1075 179.352 35.0714 179.315C35.039 179.283 35.0111 179.246 34.9786 179.214C34.9181 179.155 35.0536 179.351 34.9927 179.231C34.9729 179.192 34.945 179.152 34.9213 179.115C34.8652 179.027 34.873 178.988 34.9082 179.1C34.8813 179.015 34.8604 178.929 34.836 178.843C34.8207 178.788 34.8343 179.004 34.8385 178.846C34.8399 178.79 34.8365 178.732 34.8359 178.676C34.8354 178.625 34.8693 178.434 34.8318 178.646C34.8407 178.596 34.8488 178.545 34.86 178.494C34.8903 178.367 34.9294 178.242 34.9771 178.119C35.0082 178.036 34.9255 178.215 34.9975 178.078C35.0314 178.013 35.0626 177.947 35.098 177.883C35.1764 177.742 35.2624 177.606 35.3556 177.474C35.3735 177.449 35.5237 177.25 35.4516 177.342C35.5048 177.274 35.5596 177.208 35.6154 177.143C35.7607 176.974 35.9132 176.809 36.0742 176.654C37.2369 175.535 38.8672 175.234 40.4109 175.462C42.2972 175.74 44.0268 176.538 45.6655 177.471C48.1811 178.915 50.514 180.655 52.6142 182.656C52.651 182.691 52.6877 182.725 52.724 182.76C53.295 183.311 54.1678 182.441 53.5957 181.888L53.5958 181.888Z" fill="black"/>
<path d="M147.363 213.863L174.505 220.587C174.505 220.587 170.476 232.046 153.218 227.526C145.822 224.444 147.363 213.863 147.363 213.863Z" fill="#D08B5B"/>
<path d="M147.199 214.456L149.898 215.125L156.381 216.731L164.224 218.674L171.004 220.354L173.229 220.905C173.578 221.012 173.933 221.1 174.292 221.168C174.308 221.171 174.325 221.175 174.341 221.18L173.91 220.422C173.882 220.503 173.769 220.735 173.889 220.486C173.802 220.666 173.724 220.85 173.633 221.028C173.307 221.657 172.925 222.256 172.493 222.819C172.576 222.71 172.502 222.808 172.464 222.856C172.429 222.899 172.394 222.943 172.359 222.986C172.286 223.076 172.212 223.164 172.137 223.252C171.973 223.442 171.804 223.628 171.629 223.809C171.249 224.203 170.845 224.572 170.419 224.915C170.363 224.961 170.306 225.005 170.25 225.049C170.341 224.979 170.186 225.097 170.156 225.119C170.029 225.214 169.9 225.307 169.769 225.398C169.504 225.581 169.233 225.754 168.955 225.918C168.387 226.252 167.796 226.546 167.187 226.798C163.625 228.229 159.654 228.194 155.929 227.502C155.28 227.382 154.634 227.243 153.993 227.085C153.493 226.967 153.014 226.778 152.568 226.524C151.801 226.089 151.112 225.53 150.528 224.87C149.493 223.647 148.761 222.197 148.389 220.639C147.842 218.467 147.697 216.214 147.962 213.99C147.983 213.794 147.95 214.073 147.957 214.026C148.036 213.699 147.847 213.367 147.526 213.267C147.198 213.179 146.861 213.371 146.768 213.698C146.493 215.753 146.555 217.84 146.954 219.875C147.245 221.567 147.872 223.183 148.797 224.628C149.862 226.221 151.523 227.736 153.422 228.213C157.603 229.265 162.151 229.693 166.332 228.405C168.901 227.637 171.204 226.166 172.98 224.157C173.807 223.201 174.687 222.032 175.079 220.804C175.085 220.786 175.093 220.768 175.099 220.75C175.187 220.422 174.995 220.085 174.669 219.992L171.969 219.323L165.486 217.717L157.643 215.774L150.864 214.094C149.77 213.823 148.678 213.513 147.575 213.279C147.559 213.276 147.543 213.271 147.526 213.267C146.756 213.077 146.428 214.265 147.199 214.456Z" fill="black"/>
<path d="M137.217 143.724C137.882 142.876 138.465 141.967 138.958 141.009C140.06 138.988 140.761 136.772 141.021 134.484C141.174 132.972 141.053 131.444 140.663 129.975C140.584 129.712 140.344 129.529 140.068 129.523C138.689 129.404 137.248 129.235 135.863 129.375C135.398 129.422 134.733 129.533 134.727 130.139C134.721 130.641 134.795 131.148 134.787 131.654C134.77 132.964 134.587 134.266 134.244 135.529C133.728 137.484 132.759 139.289 131.414 140.798C131.177 141.04 131.177 141.428 131.414 141.67C132.931 142.841 134.722 143.603 136.617 143.883C136.944 143.962 137.276 143.773 137.375 143.452C137.463 143.124 137.272 142.787 136.945 142.694C135.256 142.467 133.653 141.815 132.286 140.798V141.67C134.536 139.182 135.723 135.974 135.975 132.654C136.058 131.861 136.057 131.061 135.973 130.267C135.972 130.225 135.967 130.184 135.96 130.142C136.05 130.159 135.803 130.543 135.793 130.553C135.818 130.528 135.617 130.675 135.703 130.625C135.769 130.588 135.51 130.665 135.624 130.659C135.7 130.648 135.775 130.631 135.849 130.609C135.957 130.585 135.678 130.625 135.798 130.615C135.843 130.612 135.888 130.606 135.934 130.602C136.033 130.593 136.132 130.587 136.231 130.583C136.495 130.571 136.759 130.571 137.022 130.575C138.039 130.591 139.055 130.669 140.068 130.756L139.474 130.303C140.563 134.386 139.14 138.701 136.864 142.119C136.726 142.326 136.584 142.531 136.436 142.731C136.394 142.788 136.35 142.844 136.308 142.902C136.448 142.708 136.382 142.807 136.345 142.853C136.114 143.097 136.114 143.48 136.345 143.724C136.587 143.963 136.975 143.963 137.217 143.724Z" fill="black"/>
<path d="M271.064 226.128C271.72 226.939 272.452 227.685 273.25 228.357C274.954 229.88 276.936 231.06 279.088 231.832C280.521 232.327 282.032 232.559 283.548 232.518C283.823 232.512 284.063 232.329 284.142 232.066C284.594 230.687 285.107 229.259 285.274 227.808C285.334 227.292 285.234 226.763 284.629 226.685C284.489 226.668 284.605 226.681 284.647 226.689C284.533 226.667 284.417 226.654 284.303 226.634C283.904 226.564 283.509 226.475 283.118 226.372C281.869 226.046 280.665 225.567 279.534 224.944C277.795 224.001 276.299 222.669 275.161 221.051C275.061 220.891 274.894 220.783 274.706 220.759C274.519 220.735 274.33 220.796 274.193 220.927C272.722 222.154 271.59 223.739 270.906 225.528C270.818 225.856 271.009 226.194 271.336 226.287C271.663 226.369 271.997 226.179 272.094 225.856C272.149 225.718 272.041 225.972 272.092 225.859C272.141 225.754 272.186 225.647 272.236 225.543C272.413 225.168 272.609 224.803 272.82 224.447C273.402 223.436 274.162 222.538 275.064 221.798L274.096 221.674C275.97 224.387 278.754 226.271 281.868 227.289C282.643 227.547 283.438 227.741 284.245 227.867C284.363 227.885 284.482 227.906 284.601 227.915C284.643 227.918 284.669 227.94 284.547 227.907C284.419 227.887 284.299 227.83 284.202 227.744C284.221 227.762 284.081 227.571 284.12 227.641C284.101 227.608 284.047 227.439 284.074 227.551C284.026 227.351 284.065 227.468 284.06 227.602C284.058 227.666 284.049 227.729 284.044 227.793C284.032 227.926 284.064 227.677 284.044 227.786C284.034 227.84 284.026 227.896 284.017 227.951C283.969 228.217 283.909 228.481 283.844 228.743C283.594 229.754 283.278 230.749 282.953 231.738L283.548 231.286C279.312 231.415 275.423 229.044 272.612 226.031C272.378 225.781 272.146 225.526 271.936 225.256C271.694 225.018 271.306 225.018 271.064 225.256C270.832 225.501 270.832 225.884 271.064 226.128Z" fill="black"/>
<path d="M270.739 151.917C270.738 153.039 270.035 154.041 268.979 154.424C267.924 154.807 266.742 154.489 266.022 153.628C265.301 152.768 265.195 151.548 265.757 150.577C266.319 149.605 267.429 149.089 268.534 149.284C269.805 149.52 270.731 150.624 270.739 151.917C270.75 152.71 271.983 152.712 271.972 151.917C271.955 150.285 270.938 148.83 269.411 148.253C267.811 147.668 266.017 148.189 264.978 149.539C263.94 150.889 263.897 152.756 264.873 154.153C265.849 155.549 267.618 156.15 269.242 155.638C270.867 155.127 271.972 153.62 271.972 151.917C271.983 151.124 270.75 151.123 270.739 151.917Z" fill="black"/>
<path d="M167.189 221.978L170.065 207.391L156.71 209.445L154.245 218.896" fill="#D08B5B"/>
<path d="M167.783 222.143L168.756 217.21L170.305 209.352L170.659 207.556C170.712 207.343 170.649 207.118 170.494 206.963C170.339 206.808 170.114 206.745 169.901 206.798L165.382 207.493L158.212 208.596L156.546 208.852C156.336 208.907 156.171 209.072 156.116 209.283L153.962 217.541L153.65 218.734C153.45 219.502 154.639 219.83 154.839 219.061L156.993 210.803L157.305 209.61L156.874 210.041L161.393 209.346L168.563 208.242L170.229 207.986L169.471 207.228L168.498 212.161L166.948 220.019L166.594 221.815C166.441 222.59 167.629 222.922 167.783 222.143Z" fill="black"/>
<path d="M125.481 174.724C125.479 175.846 124.776 176.848 123.721 177.231C122.666 177.613 121.484 177.295 120.763 176.435C120.043 175.574 119.937 174.355 120.499 173.384C121.061 172.412 122.17 171.895 123.276 172.091C124.547 172.326 125.472 173.431 125.481 174.724C125.492 175.516 126.724 175.519 126.713 174.724C126.696 173.091 125.679 171.637 124.152 171.06C122.553 170.475 120.758 170.995 119.72 172.345C118.681 173.695 118.639 175.563 119.614 176.959C120.59 178.355 122.359 178.957 123.984 178.445C125.609 177.933 126.713 176.427 126.713 174.724C126.724 173.93 125.492 173.93 125.481 174.724Z" fill="black"/>
<path d="M171.214 117.918C171.79 116.877 172.143 115.727 172.252 114.542C172.49 112.3 171.416 110.122 169.493 108.947C168.537 108.334 167.104 107.896 166.327 109.017C165.737 109.868 165.962 111.063 166.389 111.929C166.941 113.04 168.005 113.807 169.234 113.98C171.139 114.24 172.939 113.169 174.367 112.025C175.329 111.254 176.231 110.293 176.491 109.045C176.693 108.038 176.489 106.992 175.923 106.134C175.446 105.386 174.77 104.784 173.972 104.395C173.315 104.088 172.482 103.895 171.825 104.311C171.125 104.755 171.059 105.643 171.185 106.383C171.352 107.219 171.712 108.005 172.236 108.677C173.457 110.303 175.466 111.393 177.497 110.616C178.093 110.377 178.645 110.04 179.131 109.619C179.369 109.378 179.369 108.989 179.131 108.748C178.887 108.514 178.503 108.514 178.259 108.748C177.595 109.358 176.714 109.678 175.813 109.635C175.103 109.535 174.442 109.215 173.923 108.72C173.37 108.218 172.929 107.605 172.628 106.921C172.504 106.625 172.416 106.317 172.365 106.001C172.382 106.122 172.363 105.966 172.362 105.924C172.359 105.857 172.36 105.79 172.359 105.722C172.358 105.69 172.362 105.658 172.364 105.626C172.37 105.535 172.343 105.738 172.36 105.652C172.372 105.586 172.39 105.524 172.407 105.46C172.428 105.374 172.377 105.564 172.427 105.42C172.471 105.29 172.448 105.444 172.451 105.381C172.451 105.373 172.509 105.327 172.509 105.327C172.432 105.379 172.485 105.37 172.481 105.354C172.503 105.34 172.527 105.328 172.55 105.316C172.49 105.339 172.457 105.367 172.536 105.328C172.562 105.318 172.589 105.311 172.617 105.307C172.701 105.291 172.494 105.317 172.582 105.31C172.635 105.306 172.687 105.305 172.74 105.305C172.788 105.304 172.954 105.328 172.818 105.305C172.903 105.32 172.988 105.339 173.072 105.363C173.143 105.383 173.213 105.407 173.283 105.432C173.3 105.439 173.391 105.476 173.296 105.436C173.323 105.447 173.35 105.46 173.377 105.473C173.535 105.549 173.689 105.635 173.836 105.731C174.119 105.921 174.374 106.148 174.596 106.407C175.058 106.92 175.324 107.582 175.344 108.273C175.341 109.204 174.761 110.046 174.067 110.671C173.334 111.346 172.507 111.91 171.61 112.345C171.302 112.488 170.981 112.601 170.651 112.682C170.571 112.702 170.49 112.72 170.409 112.735C170.384 112.74 170.159 112.776 170.28 112.76C170.123 112.78 169.965 112.79 169.807 112.791C169.668 112.791 169.529 112.783 169.391 112.768C169.318 112.76 169.425 112.772 169.43 112.773C169.398 112.768 169.365 112.764 169.333 112.757C169.254 112.739 169.175 112.724 169.097 112.704C168.976 112.671 168.858 112.632 168.742 112.586C168.855 112.63 168.757 112.594 168.703 112.566C168.643 112.536 168.583 112.506 168.525 112.473C168.423 112.416 168.327 112.351 168.231 112.284C168.166 112.239 168.296 112.347 168.187 112.248C168.14 112.205 168.091 112.164 168.045 112.12C167.963 112.043 167.89 111.959 167.814 111.877C167.796 111.856 167.779 111.834 167.761 111.813C167.707 111.749 167.83 111.907 167.781 111.84C167.745 111.79 167.709 111.741 167.675 111.69C167.615 111.6 167.56 111.508 167.508 111.413C167.478 111.356 167.351 111.067 167.419 111.239C167.343 111.046 167.282 110.846 167.238 110.643C167.234 110.621 167.205 110.448 167.223 110.565C167.24 110.681 167.217 110.512 167.216 110.489C167.209 110.393 167.206 110.297 167.209 110.2C167.21 110.157 167.217 110.113 167.217 110.07C167.217 109.972 167.178 110.226 167.217 110.077C167.238 109.995 167.261 109.911 167.281 109.829C167.306 109.726 167.305 109.785 167.266 109.855C167.284 109.822 167.298 109.787 167.317 109.755C167.335 109.723 167.359 109.694 167.375 109.662C167.388 109.637 167.276 109.755 167.381 109.661C167.535 109.525 167.317 109.71 167.431 109.614C167.462 109.594 167.493 109.576 167.526 109.561C167.461 109.602 167.407 109.587 167.521 109.567C167.559 109.56 167.597 109.551 167.634 109.539C167.694 109.52 167.486 109.533 167.623 109.543C167.667 109.545 167.71 109.545 167.754 109.542C167.877 109.537 167.843 109.551 167.783 109.539C167.887 109.558 167.989 109.582 168.09 109.613C168.139 109.629 168.187 109.647 168.235 109.663C168.338 109.7 168.234 109.661 168.216 109.654C168.261 109.673 168.306 109.693 168.35 109.715C169.937 110.443 170.981 112.002 171.051 113.747C171.067 114.463 170.962 115.177 170.74 115.858C170.656 116.138 170.557 116.413 170.447 116.684C170.414 116.766 170.491 116.582 170.457 116.66C170.446 116.685 170.436 116.711 170.424 116.736C170.406 116.777 170.388 116.819 170.369 116.86C170.33 116.944 170.29 117.028 170.248 117.112C170.216 117.174 170.184 117.236 170.15 117.296C169.754 117.985 170.819 118.607 171.214 117.918L171.214 117.918Z" fill="black"/>
<path d="M203.327 195.638L206.383 187.189L206.82 185.981L206.062 186.412L211.448 188.566L212.225 188.877L212.078 187.751L203.631 194.041L202.422 194.942C202.136 195.12 202.039 195.49 202.201 195.785C202.374 196.077 202.75 196.176 203.044 196.006L211.491 189.716L212.7 188.815C212.906 188.685 213.017 188.447 212.986 188.205C212.954 187.964 212.785 187.762 212.553 187.689L207.167 185.534L206.389 185.223C206.062 185.139 205.726 185.329 205.631 185.654L202.575 194.102L202.139 195.31C201.868 196.058 203.059 196.379 203.327 195.638Z" fill="black"/>
<path d="M162.511 211.386C159.856 211.938 157.12 211.977 154.45 211.502C143.15 206.571 152.601 186.23 152.601 186.23L176.434 190.545C176.434 190.545 178.401 196.276 177.666 198.558C176.402 202.487 171.863 204.508 169.654 209.447L172.735 209.036" fill="#D08B5B"/>
<path d="M162.348 210.791C160.222 211.233 158.039 211.329 155.883 211.075C155.38 211.069 154.881 210.978 154.409 210.806C154.127 210.67 153.853 210.52 153.586 210.357C153.098 210.061 152.645 209.709 152.238 209.308C150.624 207.734 149.844 205.487 149.613 203.291C149.403 200.835 149.57 198.361 150.109 195.956C150.56 193.783 151.167 191.646 151.927 189.56C152.181 188.855 152.45 188.155 152.735 187.461C152.76 187.401 152.785 187.341 152.81 187.28C152.824 187.247 152.838 187.215 152.851 187.182C152.86 187.162 152.791 187.323 152.84 187.21C152.88 187.116 152.92 187.022 152.961 186.929C153.017 186.817 153.068 186.703 153.113 186.586C153.119 186.57 153.126 186.555 153.134 186.54L152.438 186.824L160.513 188.286L173.333 190.606L176.271 191.138L175.84 190.708C176.091 191.439 176.305 192.185 176.502 192.932C176.897 194.274 177.135 195.657 177.212 197.054C177.25 197.626 177.162 198.2 176.953 198.735C176.681 199.408 176.32 200.042 175.88 200.619C174.943 201.897 173.755 202.981 172.671 204.13C171.259 205.628 169.976 207.249 169.122 209.135C168.956 209.501 169.139 210.131 169.654 210.062L172.736 209.651C173.072 209.641 173.342 209.371 173.353 209.035C173.353 208.736 173.069 208.374 172.736 208.419L169.654 208.83L170.186 209.757C170.982 208.086 172.045 206.555 173.333 205.226C174.455 204.018 175.671 202.891 176.684 201.585C177.583 200.425 178.366 199.082 178.44 197.585C178.512 196.119 178.187 194.615 177.841 193.2C177.609 192.251 177.345 191.305 177.029 190.38C176.971 190.171 176.807 190.007 176.598 189.95L168.523 188.488L155.703 186.167L152.765 185.635C152.496 185.566 152.214 185.681 152.069 185.918C151.648 186.826 151.281 187.764 150.933 188.702C150.153 190.775 149.521 192.9 149.04 195.062C148.483 197.609 148.133 200.256 148.341 202.864C148.538 205.353 149.266 207.834 150.945 209.737C151.812 210.706 152.877 211.478 154.068 212.001C154.607 212.24 155.298 212.246 155.883 212.308C156.498 212.373 157.115 212.415 157.735 212.433C158.874 212.466 160.015 212.405 161.144 212.252C161.658 212.182 162.169 212.091 162.675 211.979C163.45 211.809 163.122 210.62 162.347 210.791H162.348Z" fill="black"/>
<path d="M92.5382 213.991L84.3461 210.303L83.1748 209.776L83.3959 210.619L85.9528 205.413L86.3221 204.66H85.2577L90.8886 213.561L91.6949 214.835C92.1179 215.504 93.1851 214.886 92.7593 214.213L87.1284 205.313L86.3221 204.038C86.2094 203.852 86.0076 203.738 85.7899 203.738C85.5722 203.738 85.3704 203.852 85.2577 204.038L82.7007 209.245L82.3314 209.997C82.1639 210.292 82.2621 210.666 82.5525 210.84L90.7447 214.529L91.916 215.056C92.2113 215.217 92.5811 215.12 92.7593 214.835C92.9285 214.541 92.8301 214.165 92.5382 213.991Z" fill="black"/>
<path d="M60.0405 115.468L65.6253 119.611L66.4096 120.193C66.7039 120.363 67.0796 120.264 67.2529 119.972C67.4165 119.677 67.3191 119.305 67.0318 119.129L61.4469 114.985L60.6628 114.403C60.3685 114.234 59.9927 114.332 59.8195 114.624C59.6559 114.919 59.7533 115.291 60.0406 115.468H60.0405Z" fill="black"/>
<path d="M220.51 219.992L213.738 221.529L212.776 221.748C212.002 221.923 212.33 223.112 213.104 222.936L219.875 221.399L220.838 221.181C221.611 221.005 221.284 219.817 220.51 219.992Z" fill="black"/>
<path d="M181.981 199.79C187.118 170.204 156.094 170.82 151.779 171.231C147.465 171.642 146.437 175.135 150.136 176.573C143.766 178.422 145.205 183.559 145.205 183.559C146.609 189.878 167.805 190.133 167.805 190.133L165.918 199.888C166.619 197.076 169.796 193.825 171.811 194.327C173.826 194.83 175.205 195.895 174.486 198.78C174.01 200.689 171.58 203.618 170.248 204.212C170.248 204.212 166.572 211.912 171.914 211.706" fill="#231F20"/>
<path d="M182.576 199.953C183.495 194.619 183.507 188.982 181.295 183.949C179.647 180.2 176.761 177.162 173.271 175.061C170.079 173.138 166.464 171.961 162.815 171.28C159.933 170.742 157.005 170.484 154.073 170.512C153.194 170.507 152.316 170.554 151.443 170.653C150.019 170.839 148.48 171.395 147.673 172.662C147.018 173.723 147.181 175.095 148.066 175.972C148.606 176.506 149.256 176.914 149.972 177.167V175.978C148.174 176.51 146.442 177.441 145.392 179.044C144.748 180.054 144.42 181.234 144.45 182.432C144.449 183.026 144.55 183.616 144.749 184.176C145.176 185.171 145.891 186.014 146.801 186.6C148.991 188.14 151.797 188.833 154.38 189.363C157.237 189.927 160.126 190.31 163.031 190.511C164.078 190.591 165.126 190.654 166.175 190.698C166.694 190.743 167.215 190.759 167.735 190.748C167.758 190.746 167.782 190.749 167.805 190.749L167.21 189.969L165.555 198.525L165.324 199.723C165.175 200.493 166.312 200.828 166.512 200.051C166.903 198.683 167.643 197.44 168.661 196.446C169.38 195.716 170.485 194.778 171.542 194.898C172.03 194.986 172.501 195.155 172.935 195.397C173.34 195.602 173.667 195.933 173.865 196.341C174.334 197.34 173.968 198.717 173.475 199.675C172.834 200.91 171.98 202.022 170.952 202.96C170.774 203.127 170.584 203.281 170.384 203.422C170.166 203.57 169.854 203.669 169.715 203.9C169.668 203.989 169.627 204.08 169.592 204.173C168.96 205.533 168.562 206.991 168.415 208.484C168.351 209.379 168.454 210.374 168.993 211.122C169.672 212.063 170.8 212.356 171.914 212.322C172.705 212.297 172.709 211.064 171.914 211.089C171.515 211.115 171.115 211.068 170.733 210.951C170.611 210.911 170.495 210.855 170.387 210.785C170.356 210.767 170.327 210.746 170.297 210.725C170.212 210.668 170.402 210.818 170.275 210.71C170.217 210.659 170.162 210.606 170.108 210.55C170.078 210.52 170.051 210.488 170.024 210.455C170.038 210.473 170.093 210.553 170.028 210.459C169.99 210.403 169.953 210.347 169.919 210.288C169.881 210.221 169.847 210.153 169.816 210.083C169.778 209.999 169.851 210.174 169.819 210.087C169.804 210.046 169.789 210.005 169.776 209.964C169.728 209.81 169.69 209.653 169.664 209.494C169.66 209.47 169.648 209.374 169.663 209.494C169.658 209.457 169.654 209.42 169.651 209.382C169.644 209.288 169.637 209.194 169.634 209.099C169.592 207.841 169.974 206.549 170.456 205.293C170.503 205.169 170.553 205.045 170.603 204.922C170.622 204.876 170.703 204.688 170.617 204.886C170.636 204.844 170.653 204.802 170.672 204.76C170.707 204.68 170.742 204.6 170.779 204.522L170.558 204.743C171.158 204.428 171.699 204.012 172.156 203.513C172.768 202.894 173.322 202.221 173.811 201.502C174.741 200.15 175.471 198.532 175.26 196.852C175.07 195.344 174.001 194.401 172.62 193.922C171.974 193.661 171.262 193.607 170.584 193.767C169.832 193.997 169.135 194.38 168.539 194.894C166.989 196.128 165.864 197.817 165.324 199.723L166.512 200.051L168.167 191.494L168.399 190.296C168.446 190.111 168.406 189.915 168.291 189.763C168.175 189.61 167.996 189.52 167.805 189.516C166.583 189.501 165.361 189.436 164.142 189.357C161.507 189.201 158.882 188.905 156.278 188.47C154.87 188.235 153.475 187.927 152.1 187.547C150.885 187.229 149.707 186.787 148.582 186.229C148.327 186.097 148.076 185.957 147.833 185.806C147.724 185.738 147.617 185.668 147.511 185.596C147.46 185.561 147.409 185.525 147.358 185.489C147.325 185.465 147.19 185.365 147.231 185.396C147.237 185.401 147.057 185.255 146.996 185.202C146.902 185.122 146.811 185.038 146.723 184.951C146.643 184.873 146.566 184.792 146.492 184.709C146.45 184.662 146.411 184.614 146.37 184.567C146.355 184.549 146.341 184.531 146.327 184.513C146.279 184.454 146.393 184.605 146.326 184.51C146.199 184.336 146.087 184.152 145.989 183.96C145.967 183.914 145.946 183.868 145.925 183.822C145.992 183.971 145.927 183.825 145.914 183.788C145.877 183.678 145.842 183.569 145.814 183.457C145.775 183.305 145.748 183.151 145.72 182.996C145.703 182.897 145.721 182.992 145.727 183.046C145.723 183.003 145.716 182.961 145.712 182.919C145.704 182.83 145.696 182.741 145.691 182.651C145.679 182.446 145.679 182.241 145.688 182.036C145.694 181.924 145.704 181.813 145.714 181.701C145.717 181.668 145.722 181.634 145.726 181.601C145.723 181.624 145.706 181.732 145.725 181.613C145.736 181.544 145.747 181.475 145.76 181.406C145.811 181.138 145.883 180.875 145.974 180.618C146.182 180.069 146.488 179.562 146.878 179.123C147.44 178.525 148.113 178.042 148.859 177.702C149.324 177.485 149.806 177.306 150.299 177.166C150.56 177.086 150.737 176.845 150.737 176.572C150.737 176.3 150.56 176.059 150.299 175.978C149.722 175.768 149.208 175.413 148.806 174.948C148.678 174.785 148.584 174.597 148.53 174.396C148.514 174.337 148.501 174.277 148.491 174.217C148.511 174.344 148.488 174.152 148.488 174.141C148.487 174.081 148.487 174.021 148.489 173.961C148.495 173.816 148.472 174.017 148.496 173.886C148.59 173.419 148.861 173.006 149.252 172.734C149.766 172.361 150.353 172.104 150.975 171.979C151.902 171.805 152.844 171.728 153.787 171.748C154.975 171.728 156.163 171.76 157.349 171.836C158.074 171.882 158.798 171.945 159.52 172.026C159.715 172.048 159.911 172.071 160.106 172.095C160.188 172.106 160.271 172.116 160.353 172.127C160.379 172.13 160.547 172.153 160.388 172.131C160.455 172.14 160.522 172.149 160.589 172.159C160.98 172.214 161.37 172.274 161.76 172.339C163.455 172.62 165.128 173.016 166.769 173.525C168.471 174.041 170.116 174.727 171.681 175.572C175.017 177.376 177.797 179.915 179.596 183.269C181.882 187.531 182.258 192.594 181.709 197.403C181.625 198.147 181.514 198.887 181.387 199.625C181.307 199.952 181.496 200.284 181.817 200.383C182.145 200.471 182.483 200.279 182.576 199.952L182.576 199.953Z" fill="black"/>
<path d="M155.882 202.557C156.673 202.371 157.453 202.14 158.217 201.865C158.217 201.865 158.867 202.768 157.429 203.385C156.402 203.796 155.882 202.557 155.882 202.557Z" fill="black"/>
<path d="M156.046 203.152C156.838 202.97 157.618 202.739 158.381 202.46L157.685 202.177C157.703 202.203 157.719 202.23 157.733 202.259C157.739 202.274 157.746 202.289 157.754 202.303C157.747 202.293 157.681 202.113 157.713 202.207C157.728 202.25 157.74 202.293 157.751 202.337C157.753 202.349 157.754 202.361 157.757 202.372C157.774 202.434 157.743 202.243 157.742 202.252C157.741 202.278 157.743 202.304 157.747 202.329C157.748 202.357 157.746 202.384 157.745 202.411C157.74 202.529 157.783 202.233 157.752 202.349C157.744 202.379 157.736 202.409 157.728 202.438C157.692 202.558 157.809 202.286 157.744 202.4C157.729 202.425 157.717 202.45 157.701 202.474C157.693 202.488 157.677 202.522 157.663 202.53C157.685 202.517 157.774 202.395 157.699 202.48C157.643 202.539 157.583 202.595 157.521 202.648C157.673 202.509 157.537 202.631 157.49 202.661C157.434 202.696 157.377 202.728 157.318 202.759C157.285 202.776 157.174 202.805 157.157 202.836L157.236 202.802C157.217 202.81 157.197 202.816 157.178 202.822C157.159 202.828 157.14 202.834 157.121 202.839C157.102 202.844 157.083 202.848 157.065 202.852C157.003 202.865 156.937 202.848 157.12 202.847C157.077 202.847 157.034 202.853 156.991 202.852C156.97 202.851 156.95 202.848 156.929 202.848C156.854 202.846 157.107 202.881 157.009 202.858C156.971 202.849 156.934 202.838 156.896 202.828C156.881 202.824 156.866 202.815 156.852 202.813C156.995 202.835 156.985 202.874 156.936 202.848C156.897 202.827 156.856 202.808 156.818 202.784C156.79 202.766 156.763 202.746 156.736 202.728C156.677 202.688 156.869 202.841 156.801 202.777C156.79 202.767 156.779 202.758 156.768 202.748C156.714 202.7 156.663 202.647 156.615 202.591C156.605 202.579 156.594 202.566 156.584 202.553C156.523 202.483 156.684 202.691 156.633 202.617C156.614 202.59 156.594 202.563 156.576 202.536C156.544 202.489 156.515 202.441 156.487 202.392C156.46 202.345 156.436 202.296 156.414 202.247C156.333 202.108 156.201 202.006 156.046 201.964C155.885 201.921 155.715 201.943 155.571 202.026C155.432 202.107 155.331 202.239 155.288 202.394C155.254 202.555 155.276 202.722 155.35 202.869C155.444 203.07 155.566 203.258 155.712 203.425C156.004 203.789 156.429 204.023 156.893 204.076C157.486 204.094 158.06 203.866 158.479 203.445C158.81 203.151 158.993 202.725 158.978 202.283C158.967 202.024 158.889 201.773 158.75 201.555C158.605 201.318 158.323 201.203 158.054 201.271C157.29 201.55 156.51 201.781 155.718 201.964C155.392 202.056 155.2 202.394 155.288 202.722C155.385 203.045 155.719 203.234 156.046 203.152Z" fill="black"/>
<path d="M168.243 200.825C168.598 200.17 169.023 199.554 169.51 198.988C169.817 198.59 170.209 198.264 170.657 198.034C170.708 198.011 170.591 198.058 170.676 198.027C170.702 198.017 170.728 198.008 170.755 197.999C170.806 197.983 170.858 197.97 170.911 197.96C170.994 197.944 170.868 197.963 170.92 197.959C170.941 197.957 170.963 197.956 170.984 197.955C171.01 197.955 171.036 197.956 171.061 197.956C171.078 197.957 171.095 197.959 171.112 197.96C171.072 197.955 171.07 197.955 171.106 197.961C171.148 197.971 171.19 197.982 171.23 197.996C171.311 198.024 171.177 197.967 171.255 198.007C171.304 198.032 171.352 198.058 171.398 198.087C171.507 198.153 171.598 198.245 171.662 198.355C171.804 198.682 171.523 199.105 171.279 199.347C170.996 199.626 171.432 200.062 171.714 199.783C172.068 199.459 172.284 199.011 172.315 198.532C172.251 197.823 171.631 197.294 170.92 197.343C170.342 197.442 169.816 197.736 169.428 198.176C168.993 198.616 168.603 199.098 168.266 199.617C168.069 199.908 167.879 200.206 167.71 200.514C167.52 200.863 168.052 201.174 168.243 200.826L168.243 200.825Z" fill="black"/>
<path d="M150.136 176.573C150.136 176.573 154.861 176.162 158.354 177.806L150.136 176.573Z" fill="#EF841F"/>
<path d="M150.136 177.189C151.036 177.122 151.94 177.12 152.84 177.183C154.608 177.288 156.426 177.589 158.043 178.338C158.338 178.499 158.708 178.402 158.886 178.117C159.055 177.822 158.957 177.447 158.665 177.273C156.883 176.495 154.973 176.051 153.031 175.963C152.067 175.887 151.1 175.885 150.136 175.956C149.351 176.024 149.344 177.257 150.136 177.189V177.189Z" fill="black"/>
<path d="M159.061 194.007C159.166 193.958 158.873 194.076 159.035 194.018C159.126 193.986 159.216 193.953 159.309 193.925C159.457 193.88 159.608 193.843 159.76 193.813C159.805 193.804 159.85 193.796 159.895 193.788C159.913 193.785 160.047 193.765 159.956 193.778C159.864 193.791 160.03 193.77 160.049 193.768C160.101 193.762 160.154 193.758 160.207 193.754C160.427 193.739 160.647 193.74 160.867 193.756C160.929 193.76 160.991 193.766 161.052 193.773C160.946 193.761 161.127 193.785 161.141 193.788C161.262 193.808 161.382 193.834 161.5 193.865C162.039 194.004 162.542 194.255 162.976 194.602C163.221 194.833 163.603 194.833 163.848 194.602C164.086 194.361 164.086 193.972 163.848 193.731C162.844 192.896 161.565 192.464 160.261 192.518C159.632 192.543 159.014 192.687 158.439 192.942C158.147 193.116 158.049 193.491 158.218 193.785C158.394 194.073 158.766 194.17 159.061 194.006V194.007Z" fill="black"/>
<path d="M150.651 192.648C151.428 192.458 152.239 192.457 153.016 192.645C153.927 192.836 154.623 193.576 154.757 194.497C154.875 195.409 154.355 196.334 153.846 197.049C153.483 197.544 153.064 197.995 152.597 198.392C152.345 198.613 152.085 198.763 151.979 199.097C151.915 199.297 151.884 199.506 151.889 199.716C151.934 200.957 153.335 201.181 154.311 201.212C155.105 201.236 155.104 200.003 154.311 199.979C153.907 200.002 153.504 199.921 153.141 199.743C153.166 199.759 153.151 199.76 153.128 199.719C153.073 199.623 153.121 199.787 153.114 199.665C153.125 199.847 153.133 199.493 153.116 199.632C153.132 199.536 153.158 199.442 153.193 199.352L153.034 199.624C154.435 198.508 155.88 196.835 155.999 194.956C156.041 194.057 155.728 193.177 155.129 192.505C154.464 191.744 153.543 191.446 152.569 191.332C151.819 191.229 151.057 191.272 150.324 191.459C149.563 191.68 149.887 192.87 150.651 192.648Z" fill="black"/>
<circle cx="152.02" cy="195.365" r="0.847512" fill="black"/>
<path d="M152.561 195.407C152.555 195.446 152.547 195.484 152.536 195.522C152.532 195.545 152.525 195.567 152.514 195.587C152.518 195.583 152.546 195.524 152.518 195.576C152.501 195.609 152.484 195.642 152.463 195.674L152.451 195.692C152.431 195.72 152.433 195.717 152.459 195.683C152.452 195.7 152.426 195.72 152.414 195.733C152.391 195.761 152.364 195.787 152.333 195.807C152.391 195.778 152.358 195.789 152.342 195.799C152.323 195.81 152.305 195.823 152.286 195.834C152.273 195.841 152.261 195.848 152.247 195.855L152.228 195.864C152.197 195.879 152.201 195.877 152.24 195.86C152.221 195.881 152.148 195.889 152.122 195.895C152.105 195.901 152.086 195.904 152.067 195.905C152.137 195.912 152.095 195.901 152.07 195.903C152.031 195.905 151.993 195.901 151.954 195.901C151.907 195.902 152.028 195.918 151.954 195.902C151.935 195.898 151.916 195.894 151.897 195.89C151.878 195.885 151.859 195.88 151.841 195.874C151.825 195.869 151.755 195.855 151.829 195.872C151.794 195.86 151.76 195.842 151.73 195.82C151.71 195.81 151.691 195.797 151.674 195.782C151.678 195.787 151.726 195.828 151.685 195.789C151.658 195.763 151.631 195.739 151.606 195.711C151.602 195.707 151.561 195.651 151.588 195.691C151.615 195.731 151.567 195.657 151.562 195.65C151.541 195.62 151.523 195.587 151.511 195.552C151.525 195.616 151.523 195.581 151.518 195.564C151.511 195.542 151.504 195.521 151.498 195.5C151.494 195.485 151.491 195.471 151.488 195.456L151.483 195.434C151.478 195.4 151.478 195.404 151.485 195.449C151.468 195.425 151.481 195.35 151.482 195.322C151.485 195.256 151.478 195.322 151.479 195.322C151.478 195.322 151.486 195.282 151.487 195.276C151.495 195.237 151.508 195.201 151.518 195.164C151.539 195.091 151.488 195.22 151.522 195.153C151.529 195.14 151.535 195.127 151.542 195.113C151.553 195.094 151.565 195.074 151.577 195.056C151.59 195.036 151.607 194.982 151.582 195.046C151.602 195.015 151.628 194.988 151.657 194.966C151.67 194.953 151.686 194.942 151.699 194.929C151.728 194.898 151.638 194.967 151.698 194.931C151.73 194.912 151.76 194.891 151.793 194.875C151.805 194.867 151.819 194.86 151.833 194.856C151.751 194.872 151.845 194.854 151.863 194.848C151.898 194.834 151.935 194.826 151.973 194.824C151.967 194.823 151.899 194.829 151.959 194.827C151.978 194.827 151.997 194.825 152.016 194.825C152.035 194.825 152.055 194.827 152.074 194.827C152.149 194.827 152.028 194.816 152.074 194.825C152.116 194.833 152.158 194.843 152.199 194.855L152.221 194.863C152.253 194.875 152.25 194.873 152.211 194.857C152.211 194.857 152.269 194.886 152.271 194.887C152.288 194.896 152.304 194.906 152.32 194.916C152.329 194.922 152.338 194.928 152.348 194.934C152.375 194.954 152.372 194.951 152.338 194.926C152.372 194.938 152.412 194.993 152.434 195.018C152.445 195.028 152.454 195.039 152.463 195.052C152.43 194.985 152.455 195.043 152.466 195.061C152.493 195.096 152.515 195.135 152.529 195.177C152.514 195.102 152.523 195.167 152.53 195.187C152.537 195.208 152.543 195.229 152.548 195.251C152.552 195.27 152.555 195.288 152.559 195.306C152.563 195.33 152.561 195.321 152.555 195.281C152.557 195.296 152.558 195.311 152.559 195.326C152.559 195.342 152.559 195.357 152.559 195.372C152.559 195.389 152.549 195.493 152.561 195.407C152.521 195.571 152.615 195.737 152.776 195.786C152.94 195.83 153.109 195.734 153.155 195.571C153.196 195.321 153.158 195.064 153.047 194.836C152.946 194.636 152.787 194.471 152.592 194.36C152.158 194.119 151.618 194.178 151.246 194.507C150.894 194.825 150.772 195.325 150.939 195.769C151.12 196.256 151.605 196.562 152.123 196.515C152.64 196.469 153.063 196.083 153.155 195.571C153.196 195.407 153.102 195.241 152.94 195.192C152.776 195.149 152.608 195.245 152.561 195.407Z" fill="black"/>
<circle cx="159.916" cy="196.537" r="0.847512" fill="black"/>
<path d="M160.457 196.579C160.451 196.618 160.442 196.656 160.432 196.694C160.428 196.717 160.42 196.739 160.41 196.759C160.413 196.755 160.441 196.696 160.414 196.748C160.396 196.781 160.379 196.814 160.359 196.846L160.346 196.864C160.326 196.891 160.329 196.888 160.354 196.855C160.348 196.872 160.322 196.892 160.31 196.905C160.287 196.933 160.259 196.958 160.229 196.979C160.286 196.949 160.253 196.961 160.238 196.97C160.219 196.982 160.201 196.995 160.182 197.006C160.169 197.013 160.156 197.02 160.143 197.027L160.123 197.036C160.092 197.05 160.096 197.049 160.135 197.031C160.116 197.053 160.044 197.061 160.018 197.067C160 197.073 159.981 197.076 159.963 197.077C160.032 197.084 159.99 197.073 159.965 197.074C159.927 197.077 159.888 197.073 159.85 197.073C159.803 197.074 159.924 197.09 159.85 197.074C159.831 197.07 159.811 197.066 159.792 197.062C159.773 197.057 159.755 197.052 159.737 197.046C159.72 197.041 159.651 197.027 159.725 197.044C159.689 197.032 159.656 197.014 159.625 196.991C159.605 196.982 159.587 196.969 159.57 196.954C159.574 196.959 159.622 197 159.58 196.961C159.553 196.935 159.526 196.911 159.502 196.883C159.498 196.879 159.456 196.823 159.484 196.863C159.51 196.903 159.462 196.829 159.458 196.822C159.436 196.792 159.419 196.759 159.407 196.724C159.421 196.788 159.418 196.753 159.413 196.735C159.407 196.714 159.399 196.693 159.393 196.672C159.39 196.657 159.386 196.643 159.383 196.628L159.379 196.606C159.373 196.571 159.374 196.576 159.38 196.62C159.364 196.596 159.376 196.522 159.377 196.494C159.381 196.428 159.374 196.494 159.374 196.494C159.373 196.494 159.381 196.453 159.383 196.447C159.39 196.409 159.403 196.373 159.414 196.336C159.434 196.263 159.383 196.392 159.417 196.325C159.424 196.312 159.431 196.298 159.438 196.285C159.449 196.265 159.46 196.246 159.473 196.227C159.486 196.207 159.502 196.154 159.477 196.218C159.498 196.187 159.523 196.16 159.553 196.137C159.566 196.125 159.582 196.114 159.594 196.101C159.623 196.07 159.534 196.138 159.593 196.103C159.625 196.084 159.655 196.063 159.688 196.046C159.701 196.039 159.714 196.032 159.728 196.027C159.647 196.044 159.74 196.026 159.759 196.02C159.794 196.006 159.831 195.998 159.868 195.996C159.862 195.995 159.795 196 159.854 195.999C159.873 195.999 159.893 195.997 159.912 195.997C159.931 195.997 159.95 195.999 159.97 195.999C160.045 195.999 159.924 195.988 159.97 195.997C160.012 196.005 160.054 196.015 160.095 196.027L160.116 196.035C160.148 196.047 160.145 196.045 160.106 196.029C160.106 196.029 160.164 196.057 160.167 196.059C160.183 196.068 160.199 196.078 160.215 196.088C160.225 196.093 160.234 196.1 160.243 196.106C160.27 196.126 160.267 196.123 160.234 196.098C160.267 196.11 160.307 196.165 160.33 196.19C160.34 196.2 160.35 196.211 160.358 196.223C160.326 196.157 160.35 196.215 160.362 196.233C160.389 196.268 160.41 196.307 160.425 196.349C160.41 196.274 160.419 196.339 160.425 196.359C160.432 196.38 160.438 196.401 160.443 196.423C160.448 196.441 160.45 196.46 160.454 196.478C160.458 196.502 160.457 196.493 160.451 196.453C160.452 196.468 160.453 196.483 160.454 196.498C160.455 196.513 160.455 196.529 160.455 196.544C160.455 196.561 160.445 196.665 160.457 196.579C160.416 196.742 160.511 196.909 160.672 196.958C160.836 197.002 161.004 196.906 161.051 196.743C161.091 196.493 161.053 196.236 160.943 196.008C160.841 195.808 160.683 195.643 160.488 195.532C160.053 195.291 159.514 195.35 159.141 195.679C158.79 195.997 158.668 196.497 158.834 196.941C159.016 197.428 159.501 197.734 160.018 197.687C160.536 197.641 160.959 197.254 161.051 196.743C161.092 196.579 160.997 196.413 160.836 196.364C160.672 196.321 160.504 196.416 160.457 196.579Z" fill="black"/>
</g>
</svg>
