<svg width="584" height="371" viewBox="0 0 584 371" fill="none" xmlns="http://www.w3.org/2000/svg">
<path fill-rule="evenodd" clip-rule="evenodd" d="M464.046 366.893C470.256 367.032 467.593 309.272 463.447 298.628C462.866 296.471 462.386 293.524 462.483 290.877C467.612 291.388 467.06 287.889 466.795 283.669C466.882 280.318 467.115 273.405 461.971 276.097C446.549 245.317 463.224 165.753 422.618 158.259C417.725 157.075 412.667 155.849 408.548 152.467C404.189 144.434 401.969 143.408 394.745 142.889C393.408 135.653 390.908 127.923 383.457 125.108C376.636 122.443 368.697 122.231 361.585 123.653C355.697 125.567 355.159 136.475 353.851 141.854C345.922 139.758 336.15 135.349 331.882 145.343C329.814 144.727 327.898 145.127 325.797 145.812C308.189 148.641 291.104 156.582 284.573 173.151C280.539 183.094 283.402 193.918 284.915 204.215C286.326 215.429 282.605 225.817 280.88 236.603C278.312 251.455 277.848 263.368 279.524 274.407C275.094 275.411 274.767 279.428 276.559 283.631C277.086 285.053 277.616 286.553 278.78 287.357C281.147 288.842 284.207 287.13 286.779 286.868C287.314 292.799 288.351 298.619 290.065 305.233C289.569 307.212 288.999 309.423 288.488 311.411L288.315 311.225C282.441 335.75 264.973 359.574 270.402 385.64C270.721 386.508 271.327 386.327 271.792 386.312C274.487 387.334 276.963 386.685 279.681 386.789C286.128 386.794 292.356 387.617 298.134 388.333C299.19 395.212 302.624 406.472 308.747 409.094C308.85 409.129 310.666 408.752 310.817 408.741C294.516 474.634 265.184 535.565 253.533 602.786C253.464 603.606 254.803 603.172 255.242 603.272C255.182 605.137 256.391 605.586 258.084 606.249C255.903 610.796 253.937 615.336 251.766 619.894C250.759 622.151 249.117 624.379 248.818 626.791C246.414 628.323 244.795 631.317 244.838 634.112C238.354 636.843 240.117 650.336 238.637 657.019C237.142 666.975 230.028 673.927 225.15 682.09C224.156 683.728 223.097 685.875 223.05 687.933C220.026 689.346 218.898 692.434 219.099 697.63C219.088 703.709 220.808 706.024 225.447 706.171C238.046 707.426 252.748 706.915 265.42 705.488C274.9 704.286 283.3 705.283 281.181 693.928C280.744 691.179 281.582 687.478 279.95 685.253C278.944 678.631 279.529 671.955 281.699 665.413C283.018 659.904 285.247 648.524 284.324 641.131C283.896 637.712 276.894 635.83 275.662 635.664C276.054 633.09 275.881 628.592 274.492 626.803C277.043 626.448 277.684 625.776 278.216 622.952C279.485 618.377 279.654 613.41 282.799 609.556C288.454 609.629 294.09 608.198 299.742 608.024L300.023 607.377C303.366 607.334 306.69 606.746 309.863 605.591C310.567 605.923 311.467 606.208 311.863 605.146L313.75 599.262C335.722 529.558 360.078 459.685 383.825 390.492C385.211 387.128 386.878 383.553 389.046 380.555C389.78 422.891 398.677 465.183 399.441 507.499C400.474 536.61 400.208 565.415 402.955 594.629C403.662 600.812 404.413 600.606 405.339 600.227C405.71 600.285 406.583 600.471 406.962 600.55C406.343 606.694 405.63 616.667 402.987 622.952C397.145 623.85 398.191 628.319 399.487 632.023C398.093 633.21 398.291 635.976 398.705 637.507C393.208 637.513 392.009 641.97 392.388 644.783C392.911 649.487 392.618 656.807 395.767 660.824C397.621 665.947 400.639 670.782 401.818 676.3C402.559 680.361 402.273 686.276 402.987 690.304C401.189 691.132 401.951 692.43 401.648 694.941C400.092 706.434 405.569 704.481 415.254 705.272C421.059 706.55 465.252 709.093 463.342 701.446C463.668 698.332 462.215 696.965 461.593 693.898C461.314 693.085 455.808 683.667 452.524 680.102C441.51 669.786 441.991 655.935 442.34 639.982C441.692 635.658 438.355 631.517 434.097 631.983C435.32 627.364 433.054 623.349 428.319 622.014C428.792 616.785 429.29 609.68 431.021 605.157L429.391 603.502L431.574 603.762L432.298 601.943L433.089 603.936C436.836 603.936 441.065 603.108 444.655 602.718C445.228 602.751 444.972 601.974 445.067 601.674C448.457 600.974 448.828 599.179 448.229 594.9C449.019 525.425 448.676 456.602 447.596 386.998C452.895 387.234 458.061 385.307 463.268 384.024C465.118 385.181 465.642 381.06 465.426 380.17C465.132 375.565 464.56 371.073 464.046 366.893Z" fill="#D08B5B"/>
<path fill-rule="evenodd" clip-rule="evenodd" d="M289.246 304.072C290.334 307.902 291.553 313.577 292.829 317.357C295.123 327.832 296.844 338.468 297.971 349.131C298.348 352.695 298.643 356.26 299.075 359.808C298.635 362.115 299.54 368.673 299.01 370.966C289.837 372.662 277.02 379.897 269.667 385.67C267.301 366.295 278.156 344.596 282.8 326.295C283.108 325.119 283.415 323.932 283.71 322.735C285.037 319.014 287.638 309.658 288.558 305.915L288.682 305.405L288.855 305.592L289.246 304.072ZM407.889 151.863C408.921 152.509 409.995 153.054 411.096 153.526C419.67 158.441 434.721 158.59 439.902 168.211C453.288 195.959 453.705 242.912 461.236 275.961C461.651 277.784 465.53 275.834 465.952 277.603C466.998 281.994 465.907 286.215 467.131 290.194C462.356 291.42 449.965 292.224 445.202 293.478C446.381 297.543 459.101 330.443 464.149 377.341C462.321 376.932 460.537 376.34 458.791 375.66L458.122 375.371C448.301 371.112 432.867 364.488 422.21 362.78C415.461 321.827 409.293 278.318 408.524 236.493L408.491 234.563C408.264 222.191 406.742 209.93 404.831 197.721L404.726 196.863C403.69 188.361 402.809 179.504 404.816 171.108C405.466 171.306 403.605 166.788 402.759 161.017C402.235 157.444 403.688 153.312 401.58 149.758C398.654 144.821 394.672 151.133 394.978 149.758C395.132 149.066 391.113 140.664 392.62 141.547C394.265 142.511 400.401 142.486 402.759 144.831C407.912 149.957 408.851 153.856 407.969 152.028L407.889 151.863ZM320.243 147.922C322.387 147.505 328.609 145.417 330.842 145.536C329.533 148.323 332.729 135.918 342.868 138.733C343.311 138.856 353.757 140.443 353.714 142.486C353.686 143.857 342.195 145.475 341.217 147.178C340.069 149.178 342.024 155.195 341.217 157.265C338.794 163.484 339.939 165.205 340.669 164.54C341.248 165.431 341.328 166.697 341.445 167.879L341.577 169.161C343.707 189.38 348.125 209.293 349.735 229.574C352.062 252.265 347.03 274.666 345.409 297.205C344.086 317.511 345.876 339.269 345.154 359.572C345.055 360.699 344.703 362.225 343.991 363.218L343.92 363.313L343.913 363.315L343.631 363.371C338.461 364.411 330.747 367.652 325.427 367.623C320.463 358.011 315.083 333.43 316.695 316.779C317.893 304.4 319.524 288.395 319.524 285.345C319.524 279.83 287.456 288.395 278.025 287.222C274.921 286.836 274.774 283.311 274.432 277.572C274.334 275.936 277.979 275.198 278.025 273.382C278.357 260.227 278.323 242.645 278.481 241.611C279.819 231.314 283.253 221.316 283.715 210.914C283.87 200.415 279.482 190.156 281.254 179.628C283.832 164.294 297.561 153.652 311.792 149.755C314.572 148.909 317.4 148.473 320.243 147.922Z" fill="#9FD8E5"/>
<path fill-rule="evenodd" clip-rule="evenodd" d="M339.721 162.257L339.762 162.576L339.802 162.895C340.938 172.044 348.087 225.715 348.921 234.894C350.586 253.194 346.31 273.767 346.169 292.148C346.132 296.902 347.289 331.173 346.283 333.288C345.982 333.922 341.851 341.09 349.705 339.064C367.447 334.488 407.664 317.476 416.454 317.262C415.136 317.052 414.389 315.998 414.215 314.654C414.049 313.37 410.915 284.135 409.617 253.697C408.189 220.185 402.928 161.755 402.759 161.019C399.469 162.747 394.978 185.18 382.009 185.18C369.04 185.18 352.063 169.698 342.396 154.216C340.406 151.03 340.456 162.602 339.721 162.257Z" fill="#8FA7DF"/>
<path fill-rule="evenodd" clip-rule="evenodd" d="M355.239 132.166C356.027 132.786 355.944 134.504 356.022 135.466L356.027 135.529C356.275 138.434 355.94 141.352 355.229 144.173L355.119 144.603C354.78 145.951 354.443 147.567 353.38 148.491C352.174 149.542 350.257 148.862 350.213 147.168C350.191 146.381 350.455 145.624 350.788 144.885C348.451 145.784 346.113 146.674 343.766 147.541C342.266 159.902 359.589 175.035 369.618 180.333C384.223 188.392 396.512 176.048 398.382 161.537C398.696 159.61 398.906 157.629 398.947 155.675L398.95 155.487C398.958 153.871 398.689 151.711 399.745 150.368C398.968 150.349 398.277 150.458 397.516 150.577L397.553 150.64C397.984 151.409 398.594 153.322 397.228 153.467C394.28 153.158 392.909 148.006 392.19 145.536L392.162 145.428C391.698 143.577 391.107 136.856 392.505 136.05C392.935 137.708 392.765 139.509 393.288 141.172C394.477 141.649 396.742 141.779 397.267 141.867C403.393 141.937 406.867 146.321 409.35 151.452C416.629 157.407 427.092 156.384 434.952 161.288C459.004 178.667 451.149 246.324 463.129 275.106C465.528 274.117 467.972 276.098 468.293 278.515C468.624 280.374 468.525 282.365 468.551 284.249L468.563 284.484C468.759 288.336 469.427 292.666 464.207 292.75C464.215 294.901 464.621 296.983 465.143 299.059C468.033 311.625 469.295 324.568 469.579 337.45L469.593 338.397C469.687 345.168 469.77 366.115 465.866 368.593L466.047 370.068C466.5 373.758 466.925 377.458 467.163 381.166C467.538 383.091 466.263 387.704 463.661 386.483C458.889 387.659 454.182 389.395 449.224 389.404C450.425 429.247 449.828 469.13 450.005 508.989C449.622 538.371 451.216 567.995 449.823 597.264L449.873 597.677C450.267 600.964 450.385 603.821 446.574 604.947C446.519 605.751 445.899 606.18 445.162 606.275C443.074 606.555 440.985 606.82 438.894 607.076C436.946 607.221 434.861 607.704 432.92 607.473C433.108 607.663 432.598 607.692 432.543 607.554C430.773 611.981 430.259 616.807 429.821 621.53C434.117 623.163 436.462 626.834 435.761 631.438C440.096 631.612 443.261 636.414 443.869 640.461C444.258 643.253 443.946 646.026 443.821 648.823C443.221 658.383 444.63 668.681 450.822 676.306C454.84 681.093 460.072 685.422 461.826 691.654C462.302 691.876 462.694 692.305 462.865 692.975L463.978 697.327L464.531 699.503C464.936 701.089 465.296 702.712 465.079 704.354L465.056 704.513C463.972 714.915 421.19 709.901 412.84 709.154C409.484 708.63 405.801 708.916 402.779 707.144C399.072 704.706 398.608 699.758 399.245 695.706L399.297 695.327C399.555 693.515 399.932 691.615 401.657 690.602C401.076 686.847 401.301 683.006 400.611 679.267C399.567 673.975 396.412 669.383 394.801 664.303C392.451 661.699 392.372 657.639 391.881 654.308C391.509 651.077 391.204 647.824 391.079 644.574C390.737 640.277 392.608 636.734 397.141 636.172C396.931 635.358 397.507 634.654 398.08 634.133C396.728 629.348 396.355 622.78 402.218 621.148C404.439 615.659 405.084 609.712 405.675 603.857C405.605 603.843 405.535 603.831 405.465 603.818C402.778 604.933 402.049 600.161 401.798 597.641L401.742 597.04C398.977 567.907 399.232 538.602 398.193 509.379L398.092 507.267C397.182 488.012 396.64 468.589 393.299 449.592C389.937 428.418 389.058 406.899 387.909 385.503C386.556 387.599 385.828 390.007 384.732 392.24C370.519 433.866 355.935 475.366 341.882 517.047C331.698 547.225 321.967 577.564 312.208 607.883C311.71 609.435 310.141 609.757 308.993 609.26C306.07 610.27 303.002 610.844 299.915 610.943C299.729 611.37 299.347 611.682 298.788 611.621C297.137 611.44 295.237 611.954 293.586 612.147C289.808 612.519 286.14 613.096 282.328 613.151C279.966 616.127 279.817 620.164 278.728 623.706C278.102 625.512 278.2 629.562 276.035 630.071C276.811 631.262 276.913 632.693 276.787 634.167C277.46 634.319 278.143 634.608 278.776 634.903C279.393 635.214 280.208 635.187 280.633 635.814C292.725 637.999 283.888 660.885 281.787 668.455C279.724 674.644 279.078 681.107 280.019 687.568C281.458 689.549 280.976 692.496 281.197 694.844C281.312 696.939 281.525 699.067 281.506 701.165C281.271 709.88 270.477 708.462 264.388 709.593C260.585 710.034 256.765 710.341 252.946 710.58C243.258 711.18 233.517 711.226 223.849 710.292C217.607 710.095 216.265 706.036 216.275 700.484L216.265 700.255C216.125 696.487 216.734 691.937 220.324 689.978C220.503 687.987 221.516 685.977 222.551 684.237C227.361 676.176 234.583 669.111 236.004 659.437C237.397 653.104 235.819 639.162 242.277 635.86C242.427 633.009 244.184 630.102 246.36 628.56C246.78 626.185 248.362 624.001 249.341 621.818C251.338 617.65 253.184 613.416 255.17 609.245C254.13 608.806 253.025 608 252.88 606.855C251.882 606.867 250.896 606.223 251.017 605.012C251.369 601.497 252.141 598.039 252.87 594.584L252.96 594.152C265.926 531.676 292.701 473.255 308.366 411.58C306.259 411.96 304.288 409.558 303.123 407.993C299.359 402.942 297.136 396.829 296.158 390.627L294.389 390.409C288.489 389.687 282.559 389.054 276.609 389.224L275.176 389.272C273.583 389.321 271.987 389.308 270.472 388.737C269.416 388.834 268.316 388.269 268.055 387.087C263.648 365.195 274.48 344.42 282.238 324.638C284.066 319.775 285.367 314.841 286.607 309.804C286.648 309.641 286.904 309.675 286.897 309.843C286.655 315.443 285.263 321.088 283.848 326.485C279.204 344.786 269.528 362.732 271.894 382.106C279.247 376.334 287.981 372.324 297.154 370.627C297.684 368.335 298.269 366.059 298.709 363.751C298.276 360.204 297.981 356.639 297.604 353.074C296.477 342.411 294.756 331.775 292.462 321.3C288.903 310.76 285.796 300.077 284.685 288.964L284.483 289.003C282.015 289.503 279.296 290.586 277.007 289.02C275.554 288.016 274.925 286.352 274.338 284.753C272.661 280.878 272.351 275.784 277.096 274.163C275.327 261.842 276.477 248.979 278.615 236.773C280.327 226.074 284.082 215.533 282.676 204.58C281.116 194.055 278.205 183.032 282.412 172.729C289.326 155.535 306.835 147.377 324.054 144.751L324.332 144.67C326.463 144.041 328.402 143.378 330.622 143.855C335.857 134.171 344.347 138.11 352.638 140.268C353.198 138.626 353.664 136.946 354.103 135.268C354.376 134.413 354.286 132.44 355.239 132.166ZM403.226 695.299L403.205 695.721C402.985 700.255 403.232 704.14 408.871 704.11C412.751 704.523 416.632 704.925 420.519 705.275L421.976 705.404C433.511 706.429 445.185 706.931 456.697 705.391L457.177 705.326C458.139 705.189 459.921 705.216 460.683 704.507C461.601 703.275 460.538 700.927 460.315 699.497C442.351 699.289 424.364 698.628 406.388 698.856C404.498 698.866 403.644 697.255 403.818 695.789C403.606 695.645 403.405 695.479 403.226 695.299ZM220.839 693.025C219.956 696.121 220.173 699.048 220.672 702.148C220.922 705.395 222.471 705.603 225.275 705.679C236.221 706.685 247.245 706.475 258.194 705.63C264.062 705 270.092 705.023 275.851 703.73C278.599 702.516 277.013 698.699 277.106 696.359C264.173 704.667 244.613 703.613 230.509 698.805L230.283 698.709C226.947 697.312 222.682 696.432 220.839 693.025ZM242.263 637.123C240.776 638.795 240.745 643.557 240.683 645.178L240.675 645.359C240.508 648.763 240.534 652.174 240.386 655.578C240.495 669.913 232.192 677.062 226.025 688.587C224.338 691.384 226.792 691.781 228.788 692.688C241.712 698.684 256.999 699.6 270.501 695.01C277.288 693.044 275.806 688.491 275.23 682.922C274.663 671.542 280.67 661.289 282.446 650.281L282.494 649.996C283.024 646.764 283.939 638.48 278.774 640.252C277.65 640.941 276.593 640.076 276.461 639.019C276.327 639.041 276.189 639.053 276.057 639.055C275.46 642.735 274.841 646.409 274.246 650.088C274.746 650.405 275.215 650.763 275.631 651.173C276.137 651.672 275.784 652.72 275.022 652.657C274.631 652.622 274.244 652.564 273.859 652.491C273.554 655.689 268.459 653.895 269.931 651.331C262.604 648.807 254.533 649.009 247.093 650.944L247.062 650.957C246.486 651.185 242.345 652.013 243.677 652.657C244.232 652.724 242.968 653.447 242.746 652.327C242.675 650.921 245.894 650.231 246.88 649.647C244.393 646.098 242.693 641.498 242.263 637.123ZM429.957 625.885C423.055 622.159 414.573 623.542 407.087 624.201L406.773 624.236C404.868 624.441 402.213 624.567 401.338 626.523C400.072 629.657 402.171 636.668 402.83 640.154L403.054 641.068C403.601 643.299 404.12 645.512 404.307 647.819C404.312 647.892 404.242 647.943 404.177 647.943C401.554 645.151 400.376 641.395 399.151 637.812C398.628 638.109 398.118 638.431 397.637 638.784C395.758 645.222 395.129 652.077 396.617 658.645L396.67 658.877C398.508 666.993 404.232 673.63 404.776 682.112C405.14 685.542 405.058 689.055 406.048 692.385C406.61 692.509 407.101 692.923 407.322 693.443L410.548 693.447C426.143 693.473 441.742 693.614 457.327 694.254C456.825 689.885 452.957 686.009 450.232 683.014C441.872 674.479 438.257 662.219 439.634 650.402C440.358 644.49 443.667 635.203 435.573 633.019C434.981 637.837 434.182 642.639 433.74 647.476C435.268 648.211 435.173 650.147 433.307 650.11C432.47 652.92 429.661 651.784 429.964 649.133C419.69 645.35 413.796 644.082 403.787 649.781C403.507 649.74 404.556 648.62 404.689 648.421C407.852 645.021 412.71 643.423 417.267 643.365C421.785 643.364 426.034 645.062 430.295 646.374C430.936 641.81 431.367 637.218 431.875 632.638L431.985 631.657C432.251 629.252 432.154 627.266 429.957 625.885ZM264.852 684.825C266.355 684.491 267.738 683.984 269.266 684.328C274.643 688.354 252.674 689.489 250.804 689.203C246.042 689.063 241.278 688.461 236.696 687.12L236.376 687.025C235.925 686.9 231.357 685.632 232.223 685.066C238.421 685.613 244.49 686.748 250.804 686.452C253.954 686.386 257.116 686.165 260.232 685.692C261.782 685.456 263.324 685.168 264.852 684.825ZM410.094 679.837C409.11 678.366 413.909 680.319 414.533 680.337C418.507 681.314 422.551 682.054 426.632 682.362C429.369 682.569 432.135 682.612 434.876 682.478C436.906 682.408 438.915 682.109 440.932 681.903L441.004 681.9C442.203 681.858 444.605 682.599 443.125 684.021C440.823 685.801 437.417 685.258 434.658 685.52C426.281 685.493 417.41 684.148 410.094 679.837ZM252.593 669.148C255.008 668.711 268.302 668.569 266.977 672.637C266.655 673.409 265.92 673.665 265.147 673.543C256.919 671.548 248.044 670.505 239.843 673.256C239.71 673.302 239.618 673.085 239.749 673.027C243.781 671.012 248.096 669.604 252.593 669.148ZM425.147 665.17C427.318 665.006 429.501 665.064 431.673 665.227L432.562 665.296C433.478 665.37 434.414 665.464 435.289 665.729L435.463 665.784C436.655 666.168 439.343 668.21 437.303 669.193C435.112 669.9 433.26 669.059 431.148 668.518C425.258 667.127 419.067 667.598 413.232 669.02L414.054 669.284C414.104 669.247 414.17 669.332 414.121 669.374C413.532 669.888 412.721 669.705 412.304 669.067C412.231 668.957 412.277 668.782 412.393 668.721C416.348 666.652 420.709 665.507 425.147 665.17ZM241.711 664.651C248.363 661.715 256.069 661.391 263.202 662.242L263.711 662.304C265.936 662.564 268.839 662.684 270.112 664.75C270.552 665.467 270.097 666.288 269.387 666.546C267.293 667.309 264.832 665.781 262.821 665.213C256.873 663.59 250.522 663.419 244.474 664.541C244.517 664.764 243.515 664.666 243.297 664.746C243.024 664.73 241.21 665.328 241.711 664.651ZM409.447 660.068C415.249 657.254 421.959 656.583 428.223 658.035L428.484 658.109C431.26 658.887 435.729 659.803 436.723 662.733C436.938 663.394 436.472 664.285 435.773 664.419C433.406 664.87 431.257 663.147 429.115 662.319C422.814 659.958 415.68 659.393 409.164 661.13C409.12 661.386 409.077 661.639 409.031 661.895C409.142 661.822 409.258 661.985 409.169 662.076C408.129 662.802 407.047 660.969 409.447 660.068ZM256.664 655.123C261.359 654.811 266.093 655.407 270.626 656.641L271.478 656.875C272.717 657.222 274.322 657.767 274.502 659.102C274.572 659.633 274.439 659.998 274.007 660.327C272.429 661.504 268.997 659.038 267.035 658.748C259.912 656.615 252.267 656.645 245.052 658.278L244.806 658.334L244.98 659.569C245.151 660.16 243.565 658.768 244.168 658.134C247.976 656.2 252.421 655.471 256.664 655.123ZM413.873 652.914C417.641 652.235 421.528 652.106 425.338 652.448L425.788 652.49C428.064 652.69 435.435 652.982 433.692 656.817C433.399 657.458 432.551 657.541 432.002 657.263C430.159 656.332 428.146 655.996 426.113 655.689C418.934 654.693 411.6 655.101 404.592 657.029C404.744 657.268 404.43 657.55 404.133 657.607C403.393 657.743 403.393 656.863 403.71 656.396C404.087 655.842 404.839 655.64 405.419 655.396C408.118 654.224 410.98 653.431 413.873 652.914ZM271.151 631.576L270.722 631.474C263.531 629.787 247.588 626.762 245.937 636.64C245.351 640.99 247.284 645.233 247.141 649.542C254.598 646.517 262.844 646.549 270.591 648.547C271.277 644.076 271.932 639.6 272.633 635.131L272.747 634.597C273.059 633.09 273.165 631.911 271.151 631.576ZM255.136 633.376C256.703 632.035 259.316 632.055 260.853 633.517C262.259 633.811 263.25 635.299 263.273 636.575C265.41 640.321 262.833 645.496 258.752 646.431C249.538 648.368 245.42 635.747 255.136 633.376ZM414.772 627.397C422.481 626.024 425.282 635.776 418.954 639.732C410.016 644.203 404.061 630.146 414.772 627.397ZM258.951 605.736C259.064 606.482 258.696 607.013 258.257 607.515C256.676 613.976 254.298 619.989 251.952 626.182C259.582 624.921 266.792 626.022 273.543 628.088C273.624 626.198 274.487 624.238 275.087 622.457C276.256 619.073 277.668 615.777 279.297 612.593L279.502 612.196C280.087 611.063 280.65 609.879 281.341 608.794C273.874 607.777 266.406 606.861 258.951 605.736ZM409.352 604.359L409.153 605.259C408.296 609.158 407.482 613.095 406.207 616.884L406.189 616.962C405.994 617.918 405.555 622.345 405.278 619.22C405.066 619.691 404.838 620.156 404.597 620.614L406.446 620.395C413.343 619.587 420.538 618.944 427.302 620.67C426.6 615.248 427.633 610.067 429.141 604.939C422.53 604.788 415.977 604.836 409.352 604.359ZM284.153 611.1C283.911 611.326 283.674 611.558 283.449 611.799C283.754 611.721 284.059 611.645 284.341 611.58C284.33 611.402 284.203 611.268 284.153 611.1ZM433.138 606.125L432.923 606.629C433.034 606.564 433.158 606.5 433.29 606.444C433.23 606.347 433.179 606.242 433.138 606.125ZM254.865 605.02C254.787 605.309 254.727 605.627 254.587 605.889C254.698 605.909 254.812 605.931 254.926 605.955C255.063 605.677 255.208 605.407 255.365 605.141C255.199 605.102 255.032 605.063 254.865 605.02ZM312.37 285.242C311.693 285.569 310.987 285.652 310.054 285.691C302.472 286.004 294.915 286.88 287.47 288.373C287.881 294.38 289.713 300.198 291.457 305.924L291.819 307.179C297.71 327.696 302.853 349.136 301.817 370.595C301.876 370.617 301.931 370.646 301.985 370.673C301.89 370.936 301.823 371.205 301.728 371.466L301.668 371.621L301.314 372.497C301.118 372.984 300.928 373.472 300.763 373.972C300.474 374.076 300.118 374.153 299.78 374.201C298.06 385.563 299.695 398.301 307.446 407.186C304.683 401.639 303.719 395.338 303.84 389.176L303.862 388.235C303.894 387.07 303.964 385.911 304.32 384.806C304.334 384.747 304.411 384.757 304.431 384.806C306.072 389.86 306.179 395.35 307.791 400.441L307.914 400.832C309.19 404.822 311.319 409.958 315.017 412.02C315.698 412.223 316.745 411.983 317.099 412.766L317.123 412.822L317.144 412.815C315.493 407.422 314.431 401.845 314.066 396.215L314.043 395.831C313.927 393.867 313.671 391.762 314.161 389.844C315.097 391.598 314.864 394.462 315.3 396.584L315.317 396.705C315.661 398.998 318.971 416.526 321.146 414.184C321.595 413.538 321.478 412.289 321.492 411.521L321.493 411.445C321.527 410.334 321.515 409.223 321.477 408.112C321.242 401.566 320.222 394.849 322.221 388.473C322.555 387.398 324.368 387.196 324.588 388.473C325.468 393.58 326.309 398.692 327.15 403.804C327.764 406.926 327.738 410.448 329.602 413.141C329.623 407.262 329.297 401.399 329.014 395.527L328.938 395.282C328.715 394.541 328.495 393.579 329.007 392.949C329.212 391.609 331.176 391.762 331.342 393.166C331.379 393.458 331.405 393.755 331.434 394.05C332.085 394.864 332.689 395.695 333.458 396.394C338.591 385.941 321.796 367.887 319.477 356.083C312.649 333.094 316.575 308.991 318.561 285.581C316.507 285.338 314.436 285.274 312.37 285.242ZM410.099 152.936C413.689 160.124 416.324 167.731 418.149 175.56C418.711 177.977 415.462 179.46 414.149 177.343L414.109 177.277C412.495 174.59 410.089 172.223 407.043 171.298C404.968 179.977 405.979 189.148 407.057 197.911C408.969 210.12 410.49 222.381 410.718 234.753L410.729 235.415C411.395 277.666 417.62 319.726 424.437 361.093C435.335 362.839 445.313 367.766 455.359 372.096C457.104 372.776 458.888 373.368 460.716 373.778C455.669 326.879 436.473 282.896 430.541 236.169C428.974 224.016 428.9 211.675 431.066 199.592C431.102 199.361 431.431 199.439 431.445 199.643C431.683 204.607 432.534 209.505 433.038 214.441C433.382 211.622 434.175 208.766 434.815 206.064C435.598 203.42 435.888 199.176 438.183 197.453L438.328 196.953C438.388 196.739 438.707 196.829 438.657 197.044C438.633 197.146 438.608 197.246 438.586 197.348C440.061 197.739 438.684 199.483 438.318 200.318C435.952 206.652 435.248 213.508 433.633 220.036C435.97 240.415 440.179 260.535 445.363 280.342C450.126 279.089 454.904 277.882 459.679 276.656C449.029 242.015 455.256 203.355 439.299 170.277C433.321 159.177 418.598 160.685 410.099 152.936ZM329.181 146.604C326.948 146.485 324.615 147.696 322.47 148.112C319.627 148.663 316.799 149.099 314.019 149.945C299.788 153.842 286.059 164.484 283.481 179.818C281.709 190.346 286.097 200.605 285.943 211.104C285.48 221.506 282.046 231.504 280.708 241.801C279.099 252.331 278.545 263.352 279.925 273.933C292.691 270.315 306.022 270.089 319.113 271.957C318.021 255.92 319.453 239.803 320.246 223.777C320.817 213.485 321.793 203.146 321.448 192.834C321.44 192.605 321.813 192.549 321.848 192.778C325.774 213.839 323.472 235.219 323.075 256.46C322.823 261.826 323.488 267.244 323.22 272.58C329.171 273.86 328.956 280.793 327.136 285.363C326.813 286.463 325.719 286.272 324.832 286.138C323.872 287.146 321.581 285.831 320.275 285.831C319.253 312.196 313.044 340.356 325.768 364.998C331.087 365.027 336.208 363.193 341.378 362.154L341.66 362.098L341.667 362.095C342.427 361.107 342.799 359.518 342.901 358.355C343.623 338.051 341.362 317.701 342.685 297.395C344.305 274.857 349.338 252.455 347.01 229.764C345.4 209.484 340.982 189.571 338.853 169.351L338.745 168.305C338.612 167.058 338.562 165.681 337.945 164.73C334.352 168.001 331.337 171.889 329.179 176.265C327.984 178.378 324.783 177.438 324.733 175.052C324.273 170.791 324.205 166.514 324.671 162.253L324.714 161.877C325.292 156.542 326.905 151.451 329.181 146.604ZM462.745 292.926C458.118 293.17 453.485 293.683 448.85 293.623L449.316 295.372C454.928 316.362 460.903 337.316 464.425 358.793L464.553 356.779C464.681 354.765 464.803 352.749 464.882 350.73C465.882 331.428 464.355 312.152 462.745 292.926ZM342.289 158.961C342.308 159.833 342.352 160.703 342.42 161.571C344.558 164.776 344.368 169.036 344.847 172.723C347.531 192.635 351.483 212.465 352.815 232.584C354.054 248.678 352.031 264.716 349.963 280.649C347.412 298.896 347.68 317.332 348.272 335.702C358.071 326.84 371.999 325.285 384.363 322.532L384.951 322.413C394.458 320.467 403.945 317.648 412.022 312.108C406.213 270.593 407.58 228.544 401.641 187.065C401.458 183.799 401.42 180.514 401.691 177.25C401.431 173.717 401.353 170.164 401.346 166.622C398.743 177.087 390.023 187.198 378.597 186.868C366.44 186.155 356.121 176.207 348.195 167.679C346.046 165.135 343.909 162.165 342.289 158.961ZM449.207 292.944L448.658 292.918L448.692 293.037C448.805 293.014 448.92 292.994 449.035 292.974L449.207 292.944ZM464.287 278.768C464.2 278.741 464.052 278.741 463.888 278.748C463.651 279.294 463.173 279.745 462.617 279.894L457.978 281.146C454.112 282.189 450.244 283.228 446.371 284.238C447.021 286.743 447.681 289.248 448.348 291.75C453.631 290.046 459.479 290.432 464.865 289.335C464.799 286.444 464.641 283.538 464.591 280.642C464.579 280.169 464.676 279.409 464.434 278.985C464.282 278.714 464.434 278.814 464.287 278.768ZM286.849 288.5L286.703 288.532C286.752 288.663 286.796 288.795 286.837 288.929C286.839 288.785 286.841 288.644 286.849 288.5ZM321.237 274.587C311.286 273.136 301.165 272.279 291.127 273.266C286.587 273.882 281.979 274.539 277.529 275.379C275.982 277.759 277.694 283.552 279.62 285.384C280.198 285.603 281.192 285.177 281.745 285.053C285.899 284.113 290.093 283.356 294.309 282.765C294.435 282.923 294.618 283.025 294.845 283.003L295.814 282.914C301.628 282.383 307.494 281.994 313.32 282.326L313.363 282.36C317.294 282.648 321.212 283.268 325.127 283.717C326.672 279.668 326.406 275.021 321.237 274.587ZM393.648 142.514C394.033 143.819 394.495 145.087 395.07 146.32C395.67 146.153 396.497 146.287 396.938 146.666L397.126 146.632C397.642 146.533 398.262 146.383 398.423 146.366C405.534 145.38 404.992 154.915 405.018 159.707C405.061 162.109 405.109 164.514 405.182 166.917C407.217 166.222 409.938 167.471 411.716 168.576C410.324 163.929 408.687 159.358 406.862 154.867L406.517 153.992C405.079 150.369 403.487 146.701 400.432 144.178C398.109 143.569 395.859 143.458 393.648 142.514ZM342.093 140.122C335.483 137.759 332.865 143.129 331.032 148.484C328.871 154.415 328.281 160.945 328.642 167.326L328.864 167.031C331.296 163.782 334.802 158.419 339.235 159.281C339.191 156.815 339.28 154.107 339.752 151.547C339.477 149.895 339.407 148.225 339.598 146.556C339.699 144.464 341.973 144.781 343.47 144.485C344.766 143.62 346.335 143.272 347.911 143.881C349.101 143.723 350.29 143.572 351.479 143.42C351.662 143.018 351.809 142.614 351.963 142.202C348.671 141.52 345.38 140.817 342.093 140.122Z" fill="black"/>
<path fill-rule="evenodd" clip-rule="evenodd" d="M387.387 144.005C382.164 144.036 377.725 142.558 374.339 140.114C370.112 138.612 365.014 136.294 361.918 133.861C360.71 134.169 359.265 132.89 358.341 132.214C352.594 127.936 348.082 121.673 346.746 115.4C344.682 117.997 341.746 118.105 338.933 116.814C333.036 113.48 333.257 106.461 335.38 101.216C330.917 91.233 327.824 64.879 334.636 54.2429C336.03 52.6515 338.075 51.6996 339.547 50.0676C340.857 48.6423 342.103 47.1844 343.627 46.0566C348.278 42.5276 356.289 40.6486 361.304 39.7649C382.241 35.2521 398.328 43.3634 417.293 50.2053C416.202 52.9265 414.692 55.4081 412.961 57.722C417.67 59.474 415.507 63.4133 411.854 65.4103L409.68 64.3566C413.07 76.4482 420.871 106.517 417.505 116.173C414.821 131.238 403.04 144.114 387.387 144.005Z" fill="#D08B5B"/>
<path fill-rule="evenodd" clip-rule="evenodd" d="M410.453 67.5466H410.38H409.047L408.891 66.2236L408.891 66.2235L408.89 66.2232L408.89 66.2227L408.89 66.2217L408.889 66.2096L408.882 66.1536C408.875 66.1026 408.864 66.0251 408.85 65.9247C408.82 65.7237 408.774 65.4324 408.709 65.0805C408.578 64.372 408.374 63.439 408.081 62.5097C407.782 61.5639 407.418 60.7075 406.999 60.0991C406.567 59.4705 406.246 59.3401 406.082 59.3238C405.7 59.2859 404.967 59.4462 403.818 59.9554C402.729 60.438 401.504 61.1208 400.212 61.8552L399.829 62.0731C398.682 62.7258 397.493 63.4026 396.405 63.9285C395.253 64.4853 393.95 65.01 392.798 65.01C392.212 65.01 391.471 64.8627 390.723 64.6782C389.937 64.4845 389.002 64.2126 387.971 63.8957C386.977 63.5905 385.809 63.2161 384.564 62.8172C383.316 62.4174 381.992 61.9929 380.688 61.5885C375.247 59.9 369.365 58.3018 365.305 58.3018C361.396 58.3018 357.698 59.9149 354.581 62.215C351.462 64.5163 349.032 67.4283 347.673 69.8251C346.656 71.6208 347.308 73.8295 348.708 75.9926C349.372 77.0196 350.129 77.9116 350.727 78.5517C351.024 78.8697 351.277 79.1206 351.453 79.2897C351.541 79.3741 351.61 79.4378 351.655 79.4789C351.677 79.4994 351.694 79.5143 351.704 79.5233L351.714 79.5322L351.714 79.5323L351.714 79.5327L351.715 79.5331L351.715 79.5334L352.776 80.4677L351.904 81.5821L351.904 81.5822L351.904 81.5824L351.904 81.5824L351.902 81.5844L351.894 81.5944L351.861 81.6371C351.832 81.6756 351.787 81.7334 351.73 81.8085C351.616 81.9589 351.452 82.178 351.254 82.4492C350.857 82.9931 350.331 83.7392 349.808 84.5545C349.281 85.375 348.774 86.238 348.405 87.0198C348.01 87.8556 347.868 88.4018 347.868 88.6549C347.868 89.7674 348.11 92.1878 348.367 94.4249C348.494 95.5227 348.62 96.5459 348.715 97.295C348.762 97.6693 348.802 97.9748 348.83 98.1865L348.862 98.4303L348.87 98.4935L348.872 98.5094L348.873 98.5133L348.873 98.5143L348.873 98.5145L347.386 98.7129L348.873 98.5145L349.189 100.881L346.92 100.139L346.92 100.139L346.92 100.139L346.92 100.139L346.918 100.138L346.91 100.135L346.874 100.124C346.842 100.114 346.793 100.098 346.729 100.078C346.602 100.038 346.415 99.9802 346.182 99.9105C345.715 99.771 345.066 99.5852 344.337 99.3997C342.834 99.0174 341.152 98.6792 340.016 98.6792C339.221 98.6792 338.405 99.133 337.683 99.7781C337.341 100.084 337.064 100.393 336.873 100.627C336.778 100.742 336.707 100.836 336.662 100.898C336.64 100.929 336.624 100.951 336.615 100.964L336.61 100.972L336.609 100.972L336.609 100.973L336.608 100.974L336.607 100.976L336.164 101.64H335.361H335.178C335.219 101.534 335.26 101.43 335.302 101.325C334.946 100.529 334.599 99.6283 334.265 98.6398H334.623C334.882 98.3297 335.241 97.9369 335.684 97.5408C336.619 96.7056 338.131 95.6792 340.016 95.6792C341.562 95.6792 343.565 96.1078 345.077 96.4923C345.259 96.5388 345.437 96.5853 345.609 96.6312C345.54 96.0659 345.463 95.4306 345.387 94.7679C345.136 92.5843 344.868 89.9757 344.868 88.6549C344.868 87.6915 345.271 86.6297 345.692 85.738C346.139 84.7923 346.722 83.8081 347.283 82.9335C347.807 82.1184 348.328 81.3745 348.735 80.8119C348.67 80.7442 348.603 80.6734 348.534 80.5996C347.859 79.8763 346.979 78.8431 346.189 77.6221C344.68 75.2895 343.156 71.7119 345.063 68.3459C346.63 65.581 349.344 62.3511 352.8 59.801C356.258 57.2496 360.566 55.3018 365.305 55.3018C369.895 55.3018 376.21 57.0577 381.578 58.7233C382.989 59.1611 384.29 59.5786 385.503 59.9678C386.698 60.3512 387.807 60.7071 388.852 61.028C389.867 61.3401 390.739 61.5922 391.441 61.7654C392.181 61.9478 392.61 62.01 392.798 62.01C393.196 62.01 393.945 61.7851 395.1 61.2273C396.091 60.7485 397.188 60.1242 398.354 59.4606L398.354 59.4606L398.729 59.2469C400.006 58.5218 401.356 57.765 402.603 57.2126C403.79 56.6869 405.153 56.217 406.378 56.3385C407.822 56.4816 408.824 57.4578 409.471 58.3995C410.133 59.3613 410.605 60.5389 410.942 61.607C411.284 62.6917 411.514 63.7529 411.659 64.535L411.661 64.5466H413.249C412.8 64.9031 412.304 65.2317 411.777 65.5198L409.603 64.4661C409.862 65.393 410.148 66.4256 410.453 67.5466Z" fill="#ECDCBF"/>
<path fill-rule="evenodd" clip-rule="evenodd" d="M390.412 145.301C383.631 145.995 375.575 144.397 371.054 138.905C370.919 138.741 370.86 138.555 370.856 138.375C370.852 138.175 370.919 137.982 371.036 137.832C371.158 137.674 371.332 137.564 371.531 137.528C371.699 137.498 371.891 137.517 372.088 137.628L372.504 137.859C375.591 139.559 378.797 141.008 382.296 141.629C385.899 142.268 389.567 142.196 393.138 141.385C399.641 139.908 404.905 136.139 408.779 131.17C413.103 125.625 415.699 118.585 416.36 111.546C417.162 103.014 415.302 94.5349 413.378 86.2745C411.355 77.5948 409.145 68.9594 406.577 60.4242C406.5 60.1673 406.479 59.9268 406.501 59.7053C405.744 59.4095 404.938 59.4916 404.136 59.7617C402.67 60.2551 401.21 61.3677 399.992 62.2861C399.551 62.6187 399.141 62.9279 398.772 63.1794C397.262 64.2096 395.611 64.9509 393.765 65.0674C391.845 65.1884 389.963 64.5936 388.22 63.8491C387.334 63.4709 386.462 63.0786 385.594 62.6879C383.122 61.5752 380.68 60.4735 378.01 59.7576C374.434 58.798 370.741 58.3253 367.037 58.3592C360.426 58.4194 353.795 60.1159 349.744 65.6899C348.102 67.9479 347.032 70.5431 347.867 73.3298C348.321 74.8457 349.178 76.2219 350.113 77.4876L350.433 77.9186C350.946 78.6134 351.392 79.3054 351.526 80.0421C351.639 80.6593 351.551 81.3122 351.109 82.0279C350.831 82.4783 350.477 82.8823 350.121 83.285C349.864 83.5754 349.606 83.8653 349.385 84.1775C348.938 84.8068 348.543 85.4846 348.232 86.1914C347.625 87.5752 347.368 89.0637 347.314 90.565C347.248 92.3761 347.504 94.1479 347.757 95.9222C347.937 97.1803 348.116 98.4397 348.189 99.7143C348.201 99.9367 348.133 100.102 348.037 100.225C347.92 100.375 347.75 100.47 347.556 100.496C347.497 100.504 347.436 100.505 347.374 100.5C347.405 100.622 347.431 100.746 347.454 100.869C347.332 100.712 347.201 100.559 347.063 100.412C347.054 100.407 347.046 100.403 347.037 100.398C346.895 100.32 346.775 100.202 346.699 100.049C346.503 99.8681 346.297 99.6966 346.08 99.5353C344.952 98.6963 343.635 98.1989 342.314 98.1824C341.04 98.1665 339.763 98.5989 338.781 99.5122C336.83 101.327 336.258 104.29 336.238 106.834C336.217 109.431 336.82 112.547 339.091 114.16C340.002 114.806 341.115 115.195 342.235 115.206C343.165 115.215 344.054 114.888 344.929 114.576C345.199 114.479 345.468 114.383 345.736 114.296C346.04 114.198 346.318 114.204 346.56 114.276C346.832 114.358 347.064 114.526 347.236 114.75C347.409 114.973 347.522 115.253 347.557 115.546C347.59 115.829 347.551 116.124 347.431 116.389C347.401 116.456 347.369 116.521 347.336 116.584L347.835 117.403C349.748 120.53 351.694 123.6 354.246 126.288C355.711 127.831 357.263 129.287 358.966 130.562L359.212 130.743C359.359 130.851 359.522 130.984 359.696 131.125C360.193 131.531 360.788 132.074 361.344 132.095C361.509 132.102 361.653 132.081 361.784 132.064C362.1 132.023 362.366 132.01 362.627 132.117C362.837 132.202 363.054 132.361 363.278 132.69C363.429 132.913 363.507 133.193 363.507 133.476C363.507 133.761 363.428 134.046 363.289 134.271C362.999 134.737 362.649 135.026 362.269 135.19C361.846 135.373 361.378 135.401 360.892 135.31C359.694 135.088 358.367 134.098 357.523 133.452L357.36 133.328C355.489 131.905 353.717 130.332 352.159 128.572C349.505 125.575 347.122 122.043 345.897 118.184C345.035 118.749 343.969 119.017 342.854 119.059C341.23 119.121 339.512 118.704 338.245 118.106C335.454 116.786 333.759 114.29 332.964 111.42C332.042 108.087 332.342 104.256 333.51 101.262C333.544 101.175 333.579 101.088 333.615 101C330.02 91.9175 328.914 81.8323 329.222 72.1399C329.366 67.6031 329.676 62.8432 330.749 58.4185C331.231 56.4353 332.067 54.5467 333.402 52.9854C334.163 52.095 335.097 51.4019 336.035 50.7107C336.847 50.112 337.663 49.5147 338.349 48.7672L338.674 48.4122C338.744 48.335 338.814 48.2579 338.884 48.181C340.069 46.8786 341.223 45.6149 342.662 44.5469C344.33 43.3086 346.17 42.3393 348.083 41.5343C352.203 39.8007 356.638 38.7613 361.025 37.9571C370.515 36.2177 380.258 36.1318 389.633 38.5769C393.991 39.7135 398.221 41.2694 402.444 42.8234C402.836 42.9677 403.228 43.1119 403.62 43.2558C406.902 44.4604 410.185 45.6599 413.468 46.8594C414.994 47.4168 416.52 47.9743 418.046 48.5323C418.377 48.6534 418.701 48.9143 418.886 49.2384C419.066 49.5546 419.119 49.9234 418.974 50.2906C418.038 52.6555 416.857 54.8741 415.419 56.946C415.918 57.2849 416.344 57.7355 416.665 58.2629C417.072 58.9299 417.313 59.7197 417.329 60.5574C417.384 63.3633 414.823 65.2653 412.698 66.641C412.5 66.7693 412.304 66.8451 412.115 66.8798C414.173 74.7282 416.144 82.6031 417.819 90.5405L417.934 91.0907C419.659 99.3976 420.773 107.875 419.141 116.292C417.736 123.54 414.472 130.536 409.373 135.935C404.375 141.227 397.668 144.559 390.412 145.301ZM345.76 97.5143C344.872 94.7051 344.402 91.6486 344.741 88.8009C344.955 87.0109 345.495 85.2877 346.374 83.71C346.877 82.8063 347.491 81.9698 348.16 81.1819L348.391 80.9173C348.508 80.7822 348.625 80.6579 348.661 80.5022C348.682 80.4117 348.66 80.3128 348.605 80.1945C348.483 79.9327 348.256 79.6803 348.043 79.4339C347.908 79.2773 347.776 79.1237 347.665 78.9742C345.719 76.3479 344.268 73.2212 344.739 69.8908C345.2 66.6415 347.336 63.6127 349.61 61.3301C354.617 56.304 362.38 55.149 369.181 55.4262C373.139 55.5875 377.092 56.2831 380.862 57.4981C382.721 58.0974 384.539 58.8272 386.305 59.6637L386.696 59.851C386.907 59.9529 387.118 60.056 387.329 60.1591C388.71 60.8342 390.096 61.5158 391.594 61.8828C394.522 62.5993 396.507 61.0901 398.594 59.5681C399.309 59.0465 400.035 58.5177 400.807 58.0536L400.966 57.9599C402.359 57.1552 404.024 56.6136 405.624 56.6379C407.014 56.659 408.355 57.1014 409.446 58.1468C409.67 58.3616 409.799 58.596 409.86 58.8292C409.981 58.998 410.078 59.1993 410.142 59.4371C410.533 60.8999 410.922 62.3637 411.31 63.828L411.627 63.6242C412.567 63.0157 413.589 62.3202 414.05 61.3022C414.228 60.9103 414.202 60.2575 413.979 59.7775C413.9 59.6098 413.797 59.4607 413.654 59.3677C413.55 59.2999 413.425 59.2682 413.279 59.2799C412.925 59.3253 412.6 59.2737 412.324 59.1575C412.006 59.0235 411.752 58.803 411.588 58.5373C411.419 58.2653 411.342 57.9454 411.384 57.6137C411.419 57.3285 411.542 57.0307 411.786 56.7508C413.389 54.9085 414.739 52.8763 415.765 50.6704L408.978 48.1668C406.558 47.2746 404.137 46.3836 401.716 45.4959L400.39 45.0103C395.986 43.4001 391.558 41.8265 386.978 40.7898C377.878 38.7298 368.388 39.2139 359.312 41.1531L358.764 41.2712C354.955 42.0991 351.096 43.1007 347.6 44.8419C345.885 45.6965 344.254 46.7356 342.853 48.0486C342.234 48.6284 341.675 49.2632 341.116 49.8971C340.332 50.7855 339.547 51.6716 338.615 52.42L337.75 53.1107C336.462 54.1447 335.302 55.1521 334.575 56.7557C333.816 58.4322 333.453 60.2843 333.158 62.0888C332.412 66.6346 332.117 71.2531 332.145 75.8576C332.193 83.5889 333.371 91.1627 334.859 98.7099C336.054 97.006 337.731 95.6852 339.884 95.4035C341.288 95.22 342.68 95.4808 343.886 96.0996C344.584 96.4573 345.219 96.9344 345.76 97.5143ZM343.505 106.695C341.932 106.088 340.281 105.889 338.618 106.18C338.444 106.21 338.278 106.174 338.138 106.093C337.996 106.011 337.885 105.881 337.824 105.738C337.754 105.572 337.75 105.393 337.812 105.234C337.866 105.096 337.968 104.961 338.156 104.872C339.957 104.015 341.959 103.637 343.946 103.906L344.143 103.934C345.159 104.084 346.587 104.4 347.658 105.022C348.5 105.511 349.116 106.185 349.269 107.065C349.349 107.524 349.235 108.003 348.97 108.35C348.713 108.686 348.321 108.909 347.814 108.895C346.919 108.87 346.389 108.493 345.751 108.004C345.674 107.945 345.595 107.884 345.512 107.823C344.896 107.363 344.223 106.973 343.505 106.695Z" fill="black"/>
<path fill-rule="evenodd" clip-rule="evenodd" d="M391.816 124.641C390.231 123.998 388.816 122.925 387.782 121.554C387.423 121.078 387.33 120.574 387.405 120.114C387.49 119.597 387.798 119.128 388.217 118.813C388.638 118.497 389.165 118.342 389.674 118.421C390.117 118.49 390.557 118.731 390.906 119.231L390.978 119.331C391.593 120.158 392.394 120.837 393.307 121.274C394.187 121.696 395.17 121.893 396.189 121.779C398.128 121.561 399.464 120.517 400.885 119.101C401.061 118.922 401.237 118.737 401.414 118.55C401.526 118.38 401.681 118.271 401.853 118.213C402.045 118.15 402.261 118.153 402.459 118.222C402.651 118.289 402.821 118.414 402.936 118.582C403.045 118.741 403.107 118.937 403.087 119.163C402.957 120.632 402.185 121.942 401.089 122.971C399.872 124.114 398.258 124.904 396.739 125.181C395.065 125.487 393.36 125.268 391.816 124.641ZM397.529 101.989C399.31 103.066 402.023 105.576 400.107 108.246C397.852 110.599 394.606 107.901 393.007 106.68C391.523 105.734 389.857 108.167 391.233 109.272C402.792 117.786 407.483 102.27 398.43 100.723C397.433 100.552 397.063 101.656 397.529 101.989ZM376.814 92.0865C377.011 89.6571 380.73 89.1054 381.1 91.5094C381.431 93.6628 381.041 95.641 380.066 97.5798C379.134 99.4321 376.793 98.5679 376.616 96.8813C376.378 94.6205 376.692 93.5977 376.814 92.0865ZM405.124 91.0106C405.643 90.335 406.391 89.8738 407.288 90.1344C410.091 90.9491 409.265 94.9072 408.28 96.8338C407.746 97.88 406.017 98.1453 405.236 97.2241C403.963 95.7219 403.353 92.7218 404.972 91.2421C405.015 91.1656 405.064 91.0885 405.124 91.0106ZM380.027 81.4555L380.469 81.3784C381.839 81.1428 383.542 80.9164 384.51 82.0116C385.024 82.5925 385.201 83.672 384.51 84.228C383.296 85.2061 381.952 84.8271 380.497 84.9099C379.297 84.9784 378.144 85.1759 376.988 85.5045C374.453 86.2254 372.387 87.5414 370.222 88.9864C369.938 89.1759 369.648 88.8144 369.783 88.5501C371.033 86.1144 373.456 84.1137 375.882 82.8941C377.177 82.2432 378.594 81.7032 380.027 81.4555ZM402.57 80.3643L402.908 80.4333C406.596 81.2 411.386 82.7317 413.132 86.3347C413.199 86.8441 413.128 86.9533 413.071 87.0247L413.052 87.0484C413.005 87.1093 412.967 87.1933 412.745 87.2626C412.684 87.248 412.622 87.2326 412.559 87.2162C411.758 87.0075 411.125 86.7201 410.512 86.4218L409.847 86.096C409.076 85.7198 408.298 85.3573 407.474 85.0897C405.714 84.5188 403.904 84.1166 402.067 83.9018C401.668 83.8553 401.285 83.7216 400.982 83.4923C400.695 83.2748 400.475 82.9735 400.375 82.5731C400.246 82.0549 400.283 81.6626 400.562 81.1951C400.773 80.844 401.073 80.6007 401.419 80.4609C401.771 80.3185 402.171 80.2849 402.57 80.3643Z" fill="black"/>
<path fill-rule="evenodd" clip-rule="evenodd" d="M424.909 84.1314C424.715 84.0992 424.52 84.069 424.326 84.0406C424.174 83.955 423.996 83.889 423.789 83.8494C423.317 83.73 422.847 83.6495 422.378 83.6061C415.651 82.0999 400.087 84.2386 399.444 89.9501C397.302 90.6616 395.448 90.0245 392.965 90.0878C391.075 82.2282 358.398 83.3375 356.826 88.076C356.821 88.0744 356.815 88.073 356.808 88.0711C355.298 87.6062 353.072 87.7183 351.344 87.6447C347.654 87.5677 343.959 87.895 340.348 88.6693C333.587 89.7383 324.359 90.9898 329.062 99.3896C329.062 99.391 329.063 99.3926 329.064 99.394L329.065 99.3933C329.876 100.22 331.251 99.5542 331.302 98.4355C329.721 94.4561 333.292 93.9783 336.039 92.8347C342.876 90.3913 349.836 90.0526 356.906 90.8084C357.438 91.4315 358.245 91.9748 359.099 92.2591C363.826 93.0397 361.335 96.5284 364.323 97.0358C363.774 109.197 378.615 115.835 387.214 107.841C390.647 104.501 391.466 99.5542 392.262 95.0951C392.683 95.0011 392.95 94.7721 393.107 94.469C394.119 93.4636 394.755 92.5352 396.757 92.2591C398.758 91.9832 400.299 92.537 400.508 92.7066C400.56 92.812 400.616 92.9175 400.682 93.0231C400.774 93.1805 400.898 93.306 401.039 93.4047C399.063 105.515 408.513 113.173 418.053 106.892C422.198 103.013 423.074 97.074 423.247 91.773C423.809 91.4357 424.165 90.7819 423.97 89.96C423.702 88.8269 424.331 87.8459 425.332 87.3533C426.633 86.7136 426.403 84.3774 424.909 84.1314ZM383.917 89.8768C382.733 89.6177 382.227 91.434 383.415 91.6938C384.256 91.8778 384.969 92.2998 385.451 93.0147L385.501 93.0925C386.148 94.1157 387.782 93.1711 387.131 92.1413C386.399 90.9824 385.261 90.1708 383.917 89.8768ZM418.598 88.7498C418.181 88.4572 417.549 88.6744 417.307 89.0878C417.04 89.543 417.215 90.0498 417.606 90.3476L417.645 90.3767C418.004 90.6281 418.353 91.0789 418.397 91.5407L418.401 91.5985C418.448 92.8071 420.336 92.8132 420.289 91.5985C420.243 90.4101 419.551 89.4173 418.598 88.7498Z" fill="black"/>
<path fill-rule="evenodd" clip-rule="evenodd" d="M75.9164 253.44C69.5548 260.879 70.1172 262.948 73.5066 270.458C80.9949 287.885 91.7323 305.6 103.921 321.76C103.116 285.505 102.424 249.054 101.234 212.469C93.9868 226.605 86.2686 239.373 75.9164 253.44M74.7162 701.518C70.7119 701.131 42.5297 702.172 50.0719 693.957C47.7438 688.903 54.2479 684.64 58.2558 680.796C62.0057 677.22 65.7013 673.245 69.552 668.647C73.1378 664.384 77.1801 659.345 79.7935 653.465C80.372 652.544 80.9595 651.898 81.5414 651.546L81.877 651.343L82.0859 651.011C84.2915 647.491 86.1126 643.855 88.1167 640.27C83.2152 638.499 78.7618 636.721 73.21 634.264C81.0438 588.142 92.7846 543.206 100.376 496.947C104.997 456.693 107.477 416.061 118.051 376.417L119.403 376.521L120.157 373.923C119.047 373.894 116.797 373.819 115.683 373.776L115.944 375.105C110.903 374.521 105.964 373.085 101.064 371.867C98.5632 371.525 96.056 369.737 96.9559 366.757C97.2454 362.434 98.14 358.216 98.5611 353.894C96.9663 352.805 95.3212 351.563 93.7455 350.289C89.5785 352.254 84.5421 358.597 79.9856 356.983C69.3373 342.694 60.4008 325.516 52.3138 311.793C32.7815 280.058 26.5821 260.22 46.7271 227.129C64.1439 199.407 82.9312 155.346 117.846 148.389C121.766 147.657 125.874 147.627 129.641 145.841C129.835 143.28 131.114 141.81 132.051 141.789C134.326 141.289 136.824 140.486 139.046 140.465C139.829 140.138 140.785 140.407 141.538 140.555C143.777 136.061 143.577 130.325 146.03 126.112C146.12 122.921 147.092 119.395 156.931 118.753C163.628 118.194 173.113 117.656 178.466 120.581C182.212 123.596 182.25 130.351 181.781 135.11C181.265 138.605 181.495 142.67 184.233 146.775C192.036 144.367 197.477 149.457 202.362 158.954C222.809 161.737 227.218 163.318 235.151 183.567C238.934 192.349 242.874 201.731 245.823 211.344C249.772 223.096 250.119 235.398 253.959 247.234C264.388 273.318 274.993 290.152 278.333 320.519C279.963 333.927 279.026 340.576 277.477 342.59C273.069 341.316 267.384 340.34 262.755 339.797L267.708 343.564C263.511 362.59 275.599 416.848 242.824 412.68C242.533 411.972 243.068 408.077 243.208 406.461C242.312 406.523 240.655 406.582 239.773 406.471C238.21 410.98 235.863 415.032 234.382 419.619C233.65 422.413 232.724 425.226 231.819 427.944C211.179 497.444 207.091 564.352 216.302 634.125L215.886 634.276L215.717 634.576L215.464 634.671C214.814 635.538 213.893 635.576 212.423 635.578C203.395 635.895 195.462 636.303 188.106 636.507C188.887 640.413 188.387 644.525 188.043 648.497C192.324 648.197 196.252 649.934 200.165 652.02C207.643 655.691 215.09 659.545 222.331 663.76C229.519 668.359 241.143 672.292 235.372 680.557L237.041 681.212C237.097 681.235 237.133 681.254 237.154 681.267C237.351 681.969 235.09 684.875 234.421 684.844C218.613 685.582 205.132 681.891 184.912 678.024C180.283 676.345 156.967 673.49 156.869 669.082C156.943 667.708 158.363 667.801 159.354 667.629C156.384 652.632 166.425 651.421 167.863 637.812C165.875 638.191 163.725 638.515 161.689 637.956C159.902 608.915 162.773 579.186 159.598 549.86L156.371 549.503C145.523 581.413 134.275 614.064 125.636 647.21C125.472 647.93 124.664 647.438 124.295 647.174C118.649 647.041 113.001 646.438 107.465 645.487C107.332 648.747 107.192 652.068 107.054 655.325L107.908 655.783C108.458 656.549 108.226 660.134 108.127 661.677C108.026 663.255 107.943 664.396 108.083 665.466C109.863 668.976 103.775 676.583 100.554 680.813C93.5379 689.892 87.7258 703.338 74.7162 701.518" fill="#D08B5B"/>
<path fill-rule="evenodd" clip-rule="evenodd" d="M214.609 297.822C214.609 297.822 245.083 344.295 242.677 370.018C242.535 371.542 240.078 395.162 240.065 396.8C239.982 407.409 244.438 397.947 241.252 406.518C238.651 413.517 220.865 455.04 214.654 515.542C211.16 549.569 215.841 635.232 215.841 635.232L162.406 638.551L157.656 546.591C156.959 547.71 124.645 645.898 124.645 645.898L99.4713 643.291L73.585 633.336C73.585 633.336 86.5091 579.37 99.4713 504.403C105.608 468.91 115 371.366 115 371.366C114.569 365.215 172.381 366.7 172.381 366.7C172.381 366.7 152.635 304.001 166.918 295.36C175.969 289.885 214.609 297.822 214.609 297.822Z" fill="#9DDADB"/>
<path fill-rule="evenodd" clip-rule="evenodd" d="M114.385 374.155C115.394 374.2 116.305 374.241 117.066 374.293L117.4 374.316L117.412 374.409L117.819 374.421C135.077 374.92 152.401 374.339 169.531 372.114L170.597 371.974C171.126 371.905 171.659 371.841 172.195 371.776C174.22 371.531 176.272 371.282 178.231 370.809C179.496 370.631 180.237 369.965 180.655 369.083C181.174 367.985 181.158 366.509 181.002 365.242L180.979 365.068C178.98 322.947 168.649 282.21 158.318 241.482L158.31 241.451C149.862 208.149 141.416 174.852 137.544 140.806L136.515 141.065L134.812 141.489C133.153 141.91 131.98 142.29 131.134 142.969C130.366 143.585 129.848 144.44 129.513 145.815C129.318 146.661 129.195 147.715 129.122 149.047C128.374 154.008 128.282 151.143 128.455 147.698C128.467 147.456 128.471 147.207 128.465 146.951C128.25 147.051 128.03 147.145 127.807 147.233C125.621 148.091 123.284 148.218 120.949 148.345L120.873 148.349C119.458 148.426 118.044 148.504 116.656 148.731C109.578 149.971 103.341 153.986 97.788 158.383L97.4205 158.675C76.2118 177.385 62.1436 202.808 48.5536 227.387C47.8799 228.605 47.2074 229.821 46.5352 231.035L45.6679 232.598C35.7186 249.77 30.9638 270.75 40.9323 289.005C52.4315 312.247 65.77 334.65 79.895 356.43C80.532 357.257 81.2842 357.486 82.0774 357.397C83.0341 357.289 84.0779 356.647 85.0392 356.033L85.0559 356.022C85.4044 355.8 85.7417 355.584 86.076 355.402C95.5061 349.739 103.683 342.036 109.972 333.028C110.039 332.933 110.106 332.837 110.172 332.741C110.103 332.648 110.029 332.557 109.956 332.465L109.954 332.462C93.6102 311.987 78.3994 289.623 69.9171 264.714C69.5099 260.785 73.0821 256.478 76.3624 252.522C76.4425 252.426 76.5225 252.329 76.6021 252.233C78.2364 250.261 79.7931 248.379 80.7999 246.678C87.4943 237.453 93.7606 227.913 99.7633 218.193C99.9184 217.9 100.073 217.608 100.227 217.314L100.304 217.168C100.293 217.12 100.284 217.071 100.276 217.022C100.222 216.669 100.258 216.305 100.404 216.024C100.505 215.832 100.664 215.682 100.894 215.641C100.967 215.628 101.038 215.628 101.105 215.639L101.122 215.607L101.134 215.994L102.095 214.39L102.763 213.284C102.883 213.088 102.998 212.897 103.111 212.713C102.903 213.141 102.679 213.602 102.438 214.096L102.22 214.546L101.762 215.486C103.325 238.684 103.683 262.18 104.041 285.645L104.041 285.658C104.225 297.707 104.408 309.748 104.754 321.736L104.759 321.885C104.789 321.927 104.82 321.968 104.85 322.008C107.611 325.66 110.453 329.252 113.362 332.786L113.64 333.123C113.707 333.077 113.774 333.03 113.841 332.984C113.894 332.947 113.946 332.911 113.999 332.875C123.356 326.431 134.363 322.228 145.668 320.926L146.098 320.883L147.313 320.758C150.115 320.476 153.677 320.18 156.241 321.189C157.115 321.532 157.869 322.031 158.416 322.752C158.9 323.39 159.219 324.2 159.33 325.218C159.142 326.902 158.133 327.931 156.673 328.598C154.516 329.586 151.418 329.817 148.303 330.05L148.154 330.061C143.994 330.372 139.851 330.729 137.653 332.614C137.466 332.774 137.289 332.949 137.119 333.138C137.34 333.232 137.562 333.323 137.785 333.413C140.912 334.672 144.208 335.596 147.513 336.521L147.584 336.541C153.064 338.075 158.567 339.616 163.35 342.778C164.749 343.593 166.977 345.464 167.555 347.204C167.723 347.711 167.743 348.208 167.482 348.644C167.239 349.05 166.775 349.389 166.059 349.663C164.887 349.751 163.693 349.512 162.503 349.273L162.434 349.259C161.605 349.093 160.779 348.929 159.964 348.859L159.771 349.781C161.985 350.526 164.029 351.781 165.357 353.807C165.852 354.546 166.275 355.715 166.143 356.683C166.099 357.008 165.989 357.31 165.776 357.549C165.595 357.753 165.342 357.906 165.009 358.001C161.431 358.093 157.864 357.323 154.317 356.558L154.259 356.546C152.604 356.188 150.953 355.833 149.309 355.562C148.074 355.359 146.821 355.2 145.562 355.053L149.518 356.658L149.747 356.752C151.899 357.642 154.691 358.897 155.583 360.611C155.86 361.142 155.927 361.72 155.681 362.346C155.438 362.966 154.911 363.619 154.047 364.321C150.637 366.057 146.743 364.485 143.054 362.996L142.808 362.897C141.115 362.215 139.463 361.55 137.91 361.185C132.347 359.891 127.362 360.517 122.471 361.138L122.399 361.148C115.228 362.059 108.254 362.946 99.8853 357.315C99.6568 357.161 99.4331 357.006 99.2142 356.851C99.1945 357.122 99.1725 357.393 99.1469 357.663C99.0125 359.082 98.7771 360.515 98.5409 361.952L98.5382 361.968C98.0721 364.806 97.6085 367.66 97.8689 370.463C97.8743 370.521 97.88 370.579 97.886 370.637C97.9291 370.681 97.9729 370.724 98.017 370.765C100.924 373.484 108.977 373.911 114.376 374.154L114.385 374.155ZM277.028 341.517C277.186 340.146 277.308 338.77 277.394 337.392C278.816 312.271 270.012 287.87 259.714 265.317C253.594 253.445 249.811 240.773 248.224 227.497C245.284 210.997 238.875 195.406 232.307 180.055L231.277 177.651C229.271 172.129 226.216 168.509 222.38 166.062C217.725 163.092 211.905 161.859 205.385 161.08C205.064 161.042 204.743 161.005 204.425 160.97C204.589 161.244 200.203 157.826 196.475 152.265C193.049 147.878 192.317 147.832 189.776 147.672L189.681 147.666L189.675 147.665C188.775 147.608 187.632 147.536 186.031 147.241C185.639 147.169 185.278 147.094 184.943 147.018C185.138 147.341 185.34 147.659 185.55 147.971C186.173 148.897 186.863 149.779 187.609 150.613C187.626 150.632 187.722 150.717 187.88 150.857C189.134 151.966 194.282 156.518 194.325 158.552C211.902 215.84 212.684 276.684 212.38 336.163L212.36 339.82C212.639 344.782 211.972 349.689 211.306 354.59L211.3 354.635C210.676 359.228 210.054 363.817 210.188 368.441C210.191 368.543 210.194 368.646 210.198 368.748C210.199 368.778 210.2 368.809 210.201 368.839C210.332 368.859 210.464 368.878 210.595 368.897C220.466 370.317 230.48 370.439 240.392 369.387C240.489 369.377 240.586 369.367 240.682 369.356C240.693 369.328 240.875 369.137 241.128 368.871C241.684 368.287 242.587 367.338 242.779 366.957C254.121 349.946 253.166 339.853 253.166 339.853L253.166 339.855C253.231 339.847 253.295 339.839 253.36 339.832C253.454 339.82 253.549 339.809 253.644 339.798C261.292 338.911 269.025 340.003 276.437 341.922C276.613 341.967 276.788 342.013 276.964 342.06C276.986 341.879 277.008 341.698 277.028 341.517Z" fill="#E86BBB"/>
<path fill-rule="evenodd" clip-rule="evenodd" d="M144.373 126.213C146.284 124.919 143.562 136.145 143.558 137.225L143.51 137.46C143.033 139.746 142.194 142.406 140.264 143.873C141.154 151.15 142.262 158.403 143.627 165.604L144.429 165.71C156.332 167.285 168.313 169.451 180.416 168.322C186.936 168.374 191.253 163.918 193.882 158.392C193.704 157.74 193.526 157.091 193.343 156.439C185.062 151.375 178.792 141.098 182.523 131.397C182.682 130.982 183.176 130.953 183.43 131.169C183.471 131.173 183.509 131.207 183.506 131.252L183.373 133.304C183.12 137.385 183.036 141.603 185.247 145.274C194.257 143.222 199.859 150.724 203.626 157.823L206.332 158.223C216.686 159.759 226.671 161.577 231.783 172.169L232.483 173.657C239.627 188.877 246.284 204.528 250.181 220.918C252.143 229.637 252.853 238.622 255.731 247.127C261.706 262.918 270.127 277.758 274.692 294.106C277.525 300.005 285.498 344.408 277.633 344.746C274.804 343.9 271.923 343.215 269.012 342.729C269.461 343.07 269.624 343.651 269.539 344.243C268.523 351.361 268.446 358.571 268.451 365.748C268.988 383.129 268.507 420.524 242.294 414.522C240.38 413.818 241.623 410.754 241.546 408.613C241.396 408.62 241.244 408.618 241.092 408.608C239.588 412.663 237.477 416.406 236.155 420.527C235.034 424.068 234.25 427.877 232.688 431.269C216.138 490.046 209.305 551.867 215.776 612.702C216.139 616.345 216.548 619.983 217.004 623.614C216.94 625.94 219.654 635.303 217.222 636.029C217.128 636.212 216.802 636.423 216.607 636.489C215.139 638.071 212.697 637.485 210.758 637.695C203.906 637.999 197.056 638.281 190.201 638.508C190.611 641.412 190.28 644.36 190.037 647.261C195.036 647.302 199.63 650.341 204.051 652.404C210.618 655.639 217.077 659.097 223.414 662.763C229.265 666.852 242.336 670.801 237.839 680.072C241.192 681.431 236.532 687.115 233.984 687.179C217.399 687.095 200.92 683.338 184.712 680.04C175.503 677.61 165.455 676.686 156.936 672.495C154.517 671.403 155.024 667.048 157.684 666.643C155.709 652.126 163.724 652.326 165.982 640.231C164.669 640.446 163.22 640.324 161.904 640.058C158.857 642.873 159.976 620.72 159.562 618.556C159.479 595.841 160.558 573.078 158.135 550.44L154.017 562.548C144.417 590.808 134.961 619.14 127.435 648.031C126.983 649.775 125.15 649.984 123.979 649.223C119.037 649.079 114.114 648.614 109.238 647.827C109.143 650.138 109.046 652.449 108.949 654.76C111.052 655.891 109.628 663.023 109.896 665.434C112.186 670.646 102.916 680.796 99.9122 685.073C94.5036 692.619 89.1313 703.181 78.6714 703.532L78.3529 703.539C70.5447 703.729 62.6662 703.273 54.9338 702.159L53.9928 702.006C51.7878 701.637 49.3467 701.1 48.0775 699.14C46.99 697.462 47.123 695.296 48.4432 694.013C46.6996 687.694 53.487 683.866 57.2781 680.018C64.3598 673.194 70.7964 665.688 76.3627 657.583L76.6824 656.826C77.7142 654.395 78.9469 651.696 80.8677 650.532C82.6992 647.626 84.2654 644.569 85.9193 641.565C81.402 639.908 76.9541 638.058 72.5555 636.109C71.6803 635.72 71.4018 634.583 71.5548 633.737L71.5659 633.68C80.1528 589.136 90.4477 544.911 98.4549 500.265C103.569 459.12 105.666 417.45 116.418 377.209C111.201 376.668 106.01 375.17 100.891 373.891C96.7868 373.018 94.7116 370.936 95.521 366.594C95.7993 362.734 96.5728 358.937 96.9911 355.094C95.8984 354.33 94.832 353.527 93.7942 352.702C91.8705 354.136 89.8851 355.487 87.8453 356.748C82.9606 360.262 79.1903 360.809 76.1727 355.049C67.4331 341.256 59.0049 327.263 51.0509 313.003C43.6728 299.324 34.529 285.673 32.6561 269.924C29.9357 241.58 63.2262 196.221 79.9034 173.186C89.1002 162.09 100.301 150.671 114.867 147.445C119.347 146.781 124.071 146.691 128.342 145.067C128.689 142.993 129.664 141.083 131.866 140.576C134.183 140.064 136.667 139.273 139.001 139.215C139.528 139.067 140.15 138.973 140.708 139.076C142.305 134.932 142.54 130.263 144.373 126.213ZM55.1404 697.289C55.5396 697.486 55.9526 697.656 56.3756 697.808C56.8957 697.879 57.4134 697.945 57.9309 698.004C56.9928 697.794 56.0619 697.557 55.1404 697.289ZM106.97 657.007C99.3194 659.782 97.2169 646.756 82.1693 652.027C76.2886 662.935 68.6752 672.842 59.9731 681.651C56.88 685.492 47.7251 689.854 52.6587 695.487L53.4143 695.626C61.982 697.183 70.6789 698.42 79.4095 697.715C86.0069 695.897 90.9548 690.614 94.9534 685.287C97.8462 680.164 101.23 675.342 104.685 670.587C106.585 668.223 106.777 665.215 106.768 662.306C106.832 660.538 106.899 658.772 106.97 657.007ZM192.915 650.612C189.667 649.422 186.335 650.541 183.38 652.001C178.333 654.258 167.4 656.962 162.73 653.364C160.441 657.148 159.673 661.354 160.301 665.719L160.306 665.922C160.355 667.715 160.581 669.169 162.752 669.296L168.838 670.825C189.372 675.976 210.108 680.956 231.244 682.388C236.885 678.869 237.043 674.242 231.047 671.021L229.513 670.081C217.741 662.885 205.693 655.813 192.915 650.612ZM237.587 680.542C237.53 680.639 237.475 680.736 237.419 680.831C237.506 680.873 237.587 680.935 237.663 681.001C237.663 680.843 237.639 680.686 237.587 680.542ZM87.0592 641.978C87.1376 643.578 86.3513 645.384 85.7979 646.82C85.4728 647.668 85.1379 648.88 84.62 649.851C97.4843 646.059 101.4 657.17 106.038 654.86L106.179 654.786V654.783C105.232 652.622 106.265 649.579 106.901 647.424C100.146 646.203 93.5128 644.304 87.0592 641.978ZM188.717 638.558L185.008 638.672C179.238 638.847 173.468 638.999 167.694 638.991C168.298 643.137 167.116 649.976 164.431 653.198C164.426 653.2 164.421 653.2 164.419 653.202C172.019 654.352 179.216 650.874 185.985 647.948C186.271 644.771 187.519 641.528 188.717 638.558ZM163.899 651.188C163.669 651.619 163.436 652.051 163.203 652.482C163.305 652.594 163.419 652.695 163.54 652.783C163.47 652.245 163.662 651.712 163.899 651.188ZM174.581 298.576C178.818 319.968 182.162 341.625 183.323 363.436L183.334 363.653C183.446 365.859 183.776 368.32 182.3 370.163C180.768 372.075 178.381 372.317 176.118 372.666C157.135 375.552 137.885 376.527 118.695 375.946C111.612 410.986 107.279 446.461 104.637 482.091C98.895 533.001 85.8623 582.768 76.1012 632.997C91.2388 639.615 106.939 644.31 123.53 644.962C147.014 558.234 190.98 466.703 193.321 379.944C193.447 379.804 193.749 379.837 193.782 380.048C194.556 384.796 194.226 389.749 194.055 394.534C193.406 409.26 191.766 423.978 189.348 438.509C183.21 474.599 171.872 509.517 160.258 544.156C159.869 545.711 160.457 547.442 160.477 549.03C162.903 575.52 163.151 602.147 163.932 628.719C163.768 631.657 164.693 634.983 163.673 637.742C172.445 636.567 181.261 635.934 190.077 635.199L190.143 635.156C190.508 634.925 191.091 634.68 191.426 635.093C198.875 634.507 206.331 633.971 213.783 633.471C203.214 557.85 210.519 479.022 239.114 407.98C237.303 406.322 238.092 402.628 237.677 400.32C237.295 390.898 237.316 381.261 239.169 371.986L238.697 372.014C233.004 372.338 207.954 373.342 207.267 369.094C206.314 361.896 208.616 354.76 209.086 347.614C209.93 331.467 209.726 315.258 209.616 299.091C204.658 299.753 199.904 298.844 195.003 298.657C188.188 298.597 181.387 298.771 174.581 298.576ZM86.2302 641.682C86.1019 642.238 85.9525 642.796 85.7934 643.353C86.0134 642.855 86.2611 642.377 86.5559 641.955L86.6458 641.831L86.2302 641.682ZM167.295 638.994L166.889 638.998V638.998L166.887 639.231V639.231C166.982 639.39 166.998 639.584 166.879 639.74C166.865 640.456 166.834 641.174 166.779 641.892C166.936 640.925 167.093 639.958 167.295 638.994ZM162.134 638.757L162.156 639.117V639.117C162.676 639.098 163.2 639.119 163.718 639.094C163.991 639.079 164.272 639.032 164.554 638.982C163.74 638.956 162.928 638.892 162.134 638.757ZM254.563 341.71C254.306 342.011 254.026 342.193 253.741 342.286C253.743 349.128 252.361 355.857 248.574 361.782C246.998 363.87 246.108 366.247 245.346 368.724C241.34 380.062 240.596 392.24 242.056 404.112C245.993 398.342 247.557 391.457 248.656 384.668C248.716 384.327 249.281 384.331 249.343 384.668C250.673 391.934 248.386 399.072 245.652 405.788C243.944 407.008 244.351 410.203 244.147 412.083C273.165 416.309 263.074 360.634 266.791 343.487C266.86 343.016 267.261 342.672 267.717 342.528C263.365 341.864 258.954 341.815 254.563 341.71ZM117.907 375.913C117.942 376.095 117.973 376.278 117.997 376.46C118.049 376.282 118.101 376.102 118.153 375.922C118.073 375.92 117.99 375.917 117.907 375.913ZM137.518 140.417L137.01 140.55C131.648 141.932 129.913 141.742 129.61 148.212C128.292 156.993 123.426 164.651 121.239 173.141C120.364 176.139 121.29 181.665 125.437 180.854C126.781 180.441 127.829 182.252 126.812 183.212C123.808 186.051 120.892 188.978 117.959 191.886C129.737 231.609 145.036 270.3 163.673 307.317C164.412 308.787 162.196 310.078 161.462 308.609C142.934 271.474 127.525 232.795 115.565 193.062L115.204 191.857C114.675 190.395 121.429 185.152 122.659 183.442C110.327 177.504 127.544 156.709 128.012 146.696C124.482 148.246 120.481 147.69 116.752 148.314C109.599 149.568 103.321 153.697 97.7403 158.154C75.0722 178.156 60.5863 205.847 46.0959 231.948C36.2275 248.978 31.4699 269.796 41.3729 287.911C52.8636 311.137 66.1932 333.524 80.2858 355.257C81.8333 357.269 84.2151 354.956 85.8454 354.112C95.2184 348.484 103.346 340.827 109.597 331.874C94.443 313.294 81.2431 292.988 71.9079 270.865L71.7791 270.609C69.6846 266.402 68.0283 261.312 71.5224 257.351C83.9294 241.471 94.9638 224.613 105.348 207.361C105.455 207.187 105.695 207.339 105.616 207.52C104.55 209.932 103.427 212.326 102.256 214.699C104.621 249.776 104.221 285.539 105.244 320.839C108.001 324.486 110.839 328.072 113.743 331.601C123.165 325.113 134.249 320.882 145.631 319.571L146.367 319.497C151.202 319 159.188 318.063 159.821 324.335C159.038 332.051 143.079 327.713 137.977 332.089C146.341 335.458 155.925 336.407 163.604 341.485C166.067 342.921 170.896 347.496 166.179 349.247C164.12 349.423 161.994 348.624 159.938 348.448C162.252 349.227 164.381 350.548 165.737 352.617C166.713 354.037 167.425 356.983 165.094 357.59C159.777 357.74 154.482 356.008 149.246 355.146L149.711 355.335C153.528 356.897 159.462 359.702 154.321 363.838C149.174 366.5 142.942 361.971 137.815 360.762C124.006 357.552 113.791 366.351 99.6343 356.824C99.2325 360.008 98.6293 363.169 98.3877 366.371L98.3566 366.552C97.8661 369.474 98.2861 370.529 101.439 371.087C105.241 372.234 109.223 372.594 113.174 372.808C132.186 373.812 151.324 373.099 170.207 370.666C172.924 369.937 179.306 370.624 180.442 367.636C178.314 290.734 146.246 218.373 137.417 142.47C137.271 141.74 137.262 140.996 137.518 140.417ZM191.118 146.99C189.601 147.052 188.189 147.38 186.681 147.532C187.516 149.308 191.925 151.82 191.524 152.701C191.842 152.948 192.165 153.185 192.493 153.415C192.037 151.812 191.576 150.213 191.114 148.61C207.867 189.406 210.169 237.674 212.395 282.178C213.128 304.617 213.527 327.127 212.442 349.552C211.839 355.509 210.242 361.528 210.677 367.544C220.509 368.959 230.484 369.08 240.356 368.032C240.648 367.266 240.978 366.513 241.353 365.773C256.131 347.76 248.294 325.186 241.178 305.675C236.875 305.857 232.546 305.584 228.239 305.637C229.57 309.755 229.913 314.111 230.622 318.369C231.104 321.403 231.719 324.414 232.426 327.402L232.616 328.198C232.883 329.3 233.236 330.489 232.849 331.582C232.469 332.661 231.158 333.097 230.289 332.258C228.722 330.472 228.89 327.81 228.384 325.596L228.291 324.899C227.428 318.54 226.292 311.943 227.869 305.634C226.322 305.302 222.091 306.522 221.869 304.442C221.935 301.007 219.442 293.565 222.217 291.303C223.867 290.044 226.705 290.442 228.641 290.364C230.878 290.274 233.113 290.191 235.347 290.205C217.388 246.812 222.382 233.455 224.205 190.27L224.259 188.952C224.254 188.668 224.713 188.597 224.763 188.883C227.509 206.572 223.848 224.482 225.583 242.227C228.662 275.943 250.031 304.89 253.603 338.444C261.308 337.55 269.103 338.646 276.571 340.579C276.728 339.217 276.849 337.849 276.934 336.481C278.352 311.436 269.562 287.113 259.306 264.65C253.16 252.727 249.361 240.002 247.771 226.696C244.683 209.366 237.755 193.04 230.849 176.941C226.483 164.904 217.046 162.065 205.343 160.667C209.29 167.209 213.214 173.765 217.13 180.325C218.004 182.309 215.325 183.725 214.156 184.946C228.533 192.785 220.139 216.991 220.436 230.555C219.368 243.018 218.966 255.552 217.085 267.929C216.947 268.787 215.631 268.535 215.619 267.732C215.793 249.187 218.004 230.717 218.975 212.202L219.093 210.853C219.85 202.087 220.59 189.441 210.048 187.035C208.625 186.802 208.516 184.688 209.658 184.053C211.178 183.207 212.511 182.173 213.703 180.944C209.675 174.186 205.654 167.425 201.669 160.639L201.482 160.323C198.652 155.522 196.022 149.935 191.118 146.99ZM156.907 323.865C155.744 320.44 144.457 322.671 141.444 323.043C130.334 325.14 119.153 330.056 110.692 337.626C110.169 338.093 109.552 338.086 109.065 337.832C105.275 342.673 100.898 347.06 96.0978 350.915C96.9766 351.607 97.879 352.278 98.8076 352.92C99.2519 352.968 99.6533 353.198 99.8338 353.61C113.041 363.178 122.756 355.715 136.476 357.438C141.598 358.471 146.315 361.728 151.594 361.865C155.468 360.984 152.057 359.365 150.248 358.739C146.151 356.784 141.975 355.001 137.789 353.243L134.441 351.84C132.795 351.15 133.36 348.663 135.198 349.097C138.416 349.856 141.644 350.576 144.873 351.285C151.085 352.552 157.444 354.177 163.721 354.793C162.325 350.916 147.522 346.728 143.218 345.187C141.592 344.419 136.956 344.565 137.485 342.046C137.913 339.702 142.846 342.386 144.491 342.577C151.206 344.28 158.059 345.312 164.901 346.35C157.552 338.979 146.161 338.343 136.775 334.891L136.57 334.844C134.897 334.459 132.548 333.731 133.919 331.815C138.741 324.707 157.714 328.304 156.907 323.865ZM143.021 284.287C146.444 281.479 148.278 287.246 148.061 289.928C148.222 292.153 148.395 294.379 148.541 296.604C148.328 298.345 150.183 304.688 147.702 304.746C136.857 304.195 126.031 304.334 115.183 303.682C115.168 305.869 115.062 308.054 115.173 310.244C115.114 312.983 116.066 315.718 115.51 318.426C115.171 319.67 113.478 319.839 112.816 318.777C110.835 314.116 112.197 308.104 113.601 303.39C108.289 302.409 107.556 297.416 108.956 292.962L108.941 292.72C108.863 291.346 108.869 289.872 109.483 288.762C111.123 286.831 114.526 288.085 116.786 287.94C123.713 287.225 130.767 287.028 137.614 285.756C139.386 285.298 141.193 284.374 143.021 284.287ZM99.9597 219.211C94.5665 229.504 88.3616 239.297 81.7561 248.833C80.3407 250.869 78.8872 252.879 77.4105 254.874L77.1372 255.223C74.1859 258.971 71.1211 262.079 73.9095 267.051C81.2156 284.793 90.9982 301.454 102.332 316.916C101.614 284.347 100.98 251.77 99.9597 219.211ZM235.547 290.727C221.997 293.565 221.743 288.249 224.005 303.295C229.439 303.332 234.871 303.21 240.306 303.298C238.753 299.095 237.143 294.912 235.547 290.727ZM144.593 286.477C137.516 288.936 130.002 288.585 122.611 288.887C122.626 290.476 115.064 289.001 113.613 289.219L113.055 289.172C111.855 289.075 110.346 289.059 110.333 290.53C110.718 293.104 109.269 295.922 110.167 298.451C111.378 301.857 116.56 301.506 119.419 301.572C124.134 301.679 128.848 301.792 133.562 301.916C137.796 302.027 142.045 302.238 146.284 302.269C145.902 299.254 145.798 296.163 145.567 293.151C145.277 290.985 145.695 288.418 144.593 286.477ZM174.351 297.429C174.358 297.467 174.365 297.505 174.375 297.545C174.457 297.522 174.551 297.508 174.631 297.486C174.538 297.469 174.443 297.451 174.351 297.429Z" fill="black"/>
<path fill-rule="evenodd" clip-rule="evenodd" d="M211.8 88.9367C210.902 74.1942 206.119 57.48 192.041 50.2417C161.005 37.785 120.199 69.1547 118.039 101.201C117.286 112.171 123.376 124.158 134.505 127.208C136.98 130.486 140.722 132.488 144.415 134.226C188.407 157.052 216.823 138.497 211.8 88.9367V88.9367Z" fill="#D08B5B"/>
<path fill-rule="evenodd" clip-rule="evenodd" d="M221.823 79.7661C220.268 75.4477 218.626 71.1626 216.898 66.9106C215.216 62.7724 213.696 58.5448 211.606 54.6027C199.127 31.0581 176.433 31.0581 164.702 34.1345C158.618 31.5132 147.224 32.2526 140.889 34.618C130.634 38.4474 118.133 53.5113 113.859 60.2793C104.423 75.2226 98.5334 95.1118 104.802 112.379C105.621 114.636 106.666 116.726 107.842 118.741C107.101 119.745 106.248 120.697 105.303 121.631C102.496 124.41 99.6878 127.096 97.2622 130.23C94.8518 133.344 92.8535 136.655 91.3659 140.306C88.5609 147.192 88.4258 154.989 92.1342 161.559C95.3606 167.276 101.076 171.533 107.515 171.939C107.846 171.985 108.177 172.027 108.509 172.06C109.363 173.466 110.403 174.76 111.59 175.888C115.228 179.348 123.899 181.123 128.845 181.237C129.099 181.441 129.355 181.645 129.611 181.846C132.637 184.228 135.813 186.632 139.287 188.326C141.64 189.476 144.726 190.436 147.181 189.606C148.295 190.35 150.122 190.194 151.227 189.585C153.042 188.584 154.518 186.783 155.417 184.939C157.594 180.462 157.071 175.563 156.511 170.78C155.895 165.497 155.303 160.212 154.701 154.929C154.229 150.798 153.736 146.598 152.48 142.619C151.831 140.557 150.98 138.575 149.88 136.712C149.909 136.556 149.904 136.4 149.859 136.253C149.499 135.082 148.755 134.468 147.873 133.672C147.759 133.57 147.646 133.465 147.534 133.359C147.093 132.856 146.622 132.389 146.117 131.994C145.923 131.797 145.731 131.598 145.539 131.399C143.944 129.728 142.437 127.972 141.098 126.09C139.799 124.265 138.626 122.359 137.51 120.418C136.375 118.444 135.623 116.266 134.49 114.306C134.393 114.137 134.147 114.104 134.009 114.244C133.659 114.607 133.433 115.009 133.476 115.434L133.301 115.46C133.234 114.82 132.644 114.298 131.843 114.438C130.644 114.647 129.658 114.725 128.62 114.327C128.803 113.116 128.971 111.902 129.137 110.686C129.44 108.449 129.722 106.205 129.964 103.96C130.549 104.1 131.13 104.301 131.699 104.557C132.509 104.92 133.275 105.408 133.929 106.008C134.573 106.6 135.019 107.399 135.806 107.811C136.711 108.283 137.804 107.503 137.538 106.479C137 104.41 133.955 103.225 132.071 102.834C131.424 102.699 130.763 102.642 130.101 102.656C130.251 101.215 130.383 99.7745 130.492 98.3311C130.545 97.6485 130.592 96.9659 130.637 96.2809C132.102 95.8377 133.67 95.705 135.194 95.9136C135.697 96.3141 136.199 96.7099 136.685 97.1105C138.228 98.3856 139.763 99.6678 141.28 100.974C141.418 101.09 141.553 101.206 141.69 101.324C142.591 102.1 143.714 101.332 143.562 100.234C142.325 91.2421 147.833 84.0891 154.281 78.5478C161.419 72.4116 174.397 71.6971 182.886 61.0683C186.795 61.8641 195.524 64.2277 199.127 69.9681C204.17 78.0122 203.511 85.2197 203.895 94.3446C204.279 103.477 205.255 113.002 203.182 122.006C201.269 130.308 196.091 137.402 188.057 140.663C187.858 140.744 187.656 140.822 187.455 140.898C183.301 142.465 178.767 142.908 174.397 142.083C169.56 141.168 165.522 138.955 161.498 136.231C161.265 136.077 160.926 136.395 161.102 136.627C166.406 143.657 176.824 146.006 185.087 144.15C185.474 144.062 185.858 143.967 186.239 143.863C184.391 149.179 184.763 155.014 187.171 160.191C188.619 163.305 190.827 166 193.517 168.126C196.482 170.467 200.16 172.359 202.217 175.646C204.101 178.658 203.542 182.043 200.316 183.783C199.503 184.223 199.191 185.648 199.996 186.274C200.304 186.511 200.613 186.752 200.928 186.989C202.734 188.352 207.694 190.912 208.497 191.007C215.631 191.853 220.427 186.615 223.501 180.436C227.11 173.184 226.172 164.345 222.195 157.439C219.005 151.898 212.723 146.437 215.221 139.424C216.112 136.919 217.934 134.783 219.704 132.854C221.723 130.657 223.894 128.6 225.831 126.324C227.755 124.066 229.461 121.608 230.414 118.773C231.805 114.63 231.113 110.151 230.068 106.015C227.828 97.1365 224.92 88.3766 221.823 79.7661Z" fill="black"/>
<path fill-rule="evenodd" clip-rule="evenodd" d="M182.019 126.117C180.422 125.467 178.998 124.383 177.956 122.998C177.594 122.517 177.501 122.008 177.576 121.543C177.662 121.02 177.972 120.546 178.395 120.229C178.819 119.91 179.349 119.752 179.862 119.833C180.307 119.902 180.751 120.146 181.102 120.651L181.175 120.752C181.795 121.588 182.601 122.273 183.521 122.716C184.407 123.142 185.398 123.341 186.423 123.225C188.376 123.005 189.722 121.951 191.153 120.519C191.331 120.338 191.508 120.152 191.686 119.963C191.799 119.791 191.955 119.681 192.129 119.623C192.321 119.558 192.539 119.562 192.739 119.632C192.931 119.699 193.104 119.826 193.219 119.995C193.329 120.156 193.391 120.354 193.371 120.583C193.24 122.066 192.463 123.39 191.359 124.43C190.133 125.584 188.507 126.383 186.977 126.663C185.292 126.972 183.574 126.75 182.019 126.117V126.117ZM187.773 103.232C189.566 104.32 192.299 106.856 190.369 109.553C188.098 111.931 184.829 109.205 183.218 107.972C181.724 107.016 180.045 109.474 181.431 110.59C193.074 119.192 197.799 103.516 188.68 101.953C187.676 101.78 187.303 102.895 187.773 103.232ZM166.909 93.225C167.107 90.7704 170.853 90.2131 171.226 92.6419C171.559 94.8177 171.166 96.8164 170.184 98.7753C169.246 100.647 166.888 99.7736 166.709 98.0695C166.47 95.7852 166.786 94.7518 166.909 93.225ZM195.423 92.1383C195.945 91.4557 196.699 90.9898 197.602 91.2531C200.425 92.0762 199.593 96.0753 198.602 98.0218C198.063 99.0789 196.322 99.347 195.535 98.4162C194.253 96.8984 193.639 93.8673 195.269 92.3722C195.313 92.295 195.362 92.217 195.423 92.1383ZM170.145 82.4847L170.59 82.4068C171.97 82.1687 173.685 81.94 174.66 83.0466C175.178 83.6334 175.356 84.7242 174.66 85.2859C173.437 86.2742 172.084 85.8912 170.618 85.9749C169.41 86.0441 168.248 86.2436 167.084 86.5757C164.531 87.304 162.45 88.6336 160.269 90.0936C159.983 90.2851 159.691 89.9199 159.828 89.6528C161.087 87.1919 163.526 85.1705 165.97 83.9382C167.274 83.2805 168.702 82.7349 170.145 82.4847ZM192.85 81.3823L193.191 81.452C196.905 82.2267 201.73 83.7742 203.488 87.4145C203.555 87.9293 203.484 88.0396 203.427 88.1117L203.408 88.1357C203.36 88.1972 203.322 88.2821 203.099 88.3521C203.037 88.3374 202.974 88.3218 202.911 88.3052C202.105 88.0944 201.467 87.8039 200.849 87.5026L200.18 87.1734C199.403 86.7933 198.62 86.4271 197.789 86.1567C196.017 85.5799 194.194 85.1735 192.343 84.9565C191.942 84.9095 191.556 84.7744 191.251 84.5428C190.962 84.3229 190.741 84.0186 190.64 83.614C190.509 83.0904 190.547 82.6941 190.828 82.2217C191.04 81.867 191.343 81.6211 191.69 81.48C192.045 81.336 192.449 81.3021 192.85 81.3823Z" fill="black"/>
</svg>
