<svg width="146" height="40" viewBox="0 0 146 40" fill="none" xmlns="http://www.w3.org/2000/svg">
<g clip-path="url(#clip0_637_10106)">
<path d="M21.1039 40L0.785622 40L22.53 1.32227L33.2093 18.591L21.1039 40Z" fill="#007A86"/>
<path d="M57.9618 18.0166L47.7318 34.7146L27.6258 1.32227H47.6292L57.9618 18.0166Z" fill="#007A86"/>
<path d="M57.9618 18.0166L47.7318 1.32227L27.6258 34.7146H47.6292L57.9618 18.0166Z" fill="#B0D6D9"/>
</g>
<path d="M129.418 23.4016V7.28047H133.091L133.416 10.0107C133.914 9.05726 134.629 8.29887 135.561 7.7355C136.514 7.17213 137.63 6.89044 138.909 6.89044C140.902 6.89044 142.451 7.51882 143.556 8.77558C144.661 10.0323 145.214 11.8741 145.214 14.301V23.4016H141.054V14.691C141.054 13.3042 140.772 12.2425 140.209 11.5058C139.645 10.7691 138.768 10.4007 137.576 10.4007C136.406 10.4007 135.442 10.8124 134.683 11.6358C133.947 12.4592 133.578 13.6076 133.578 15.081V23.4016H129.418Z" fill="black"/>
<path d="M117.443 23.7916C115.882 23.7916 114.474 23.4341 113.217 22.7191C111.982 22.004 110.996 21.0181 110.259 19.7614C109.544 18.4829 109.187 17.0095 109.187 15.341C109.187 13.6726 109.555 12.21 110.292 10.9532C111.029 9.67481 112.015 8.67807 113.25 7.96302C114.506 7.24797 115.915 6.89044 117.475 6.89044C119.013 6.89044 120.4 7.24797 121.635 7.96302C122.892 8.67807 123.878 9.67481 124.593 10.9532C125.33 12.21 125.698 13.6726 125.698 15.341C125.698 17.0095 125.33 18.4829 124.593 19.7614C123.878 21.0181 122.892 22.004 121.635 22.7191C120.379 23.4341 118.981 23.7916 117.443 23.7916ZM117.443 20.1839C118.526 20.1839 119.468 19.783 120.27 18.9813C121.072 18.1579 121.473 16.9445 121.473 15.341C121.473 13.7376 121.072 12.535 120.27 11.7333C119.468 10.9099 118.537 10.4982 117.475 10.4982C116.37 10.4982 115.417 10.9099 114.615 11.7333C113.835 12.535 113.445 13.7376 113.445 15.341C113.445 16.9445 113.835 18.1579 114.615 18.9813C115.417 19.783 116.359 20.1839 117.443 20.1839Z" fill="black"/>
<path d="M97.1059 23.4016V7.28047H100.811L101.201 10.3032C101.786 9.26311 102.577 8.43972 103.574 7.83301C104.592 7.20463 105.784 6.89044 107.149 6.89044V11.2783H105.979C105.069 11.2783 104.256 11.4191 103.541 11.7008C102.826 11.9825 102.263 12.47 101.851 13.1634C101.461 13.8568 101.266 14.821 101.266 16.0561V23.4016H97.1059Z" fill="black"/>
<path d="M90.6837 4.77784C89.9253 4.77784 89.2969 4.55032 88.7985 4.09529C88.3218 3.64026 88.0835 3.06605 88.0835 2.37267C88.0835 1.67929 88.3218 1.11591 88.7985 0.682547C89.2969 0.227516 89.9253 0 90.6837 0C91.4421 0 92.0596 0.227516 92.5363 0.682547C93.0347 1.11591 93.2839 1.67929 93.2839 2.37267C93.2839 3.06605 93.0347 3.64026 92.5363 4.09529C92.0596 4.55032 91.4421 4.77784 90.6837 4.77784ZM88.6035 23.4017V7.28052H92.7638V23.4017H88.6035Z" fill="black"/>
<path d="M68.7959 23.4018V0.650208H77.214C79.0341 0.650208 80.5401 0.953562 81.7318 1.56027C82.9236 2.16698 83.812 3.00121 84.397 4.06295C84.982 5.12469 85.2746 6.31644 85.2746 7.6382C85.2746 8.89496 84.9929 10.0542 84.4295 11.116C83.8661 12.156 82.9886 13.0011 81.7968 13.6511C80.6051 14.2795 79.0775 14.5937 77.214 14.5937H72.9562V23.4018H68.7959ZM72.9562 11.2135H76.954C78.4057 11.2135 79.4458 10.8993 80.0742 10.2709C80.7242 9.62085 81.0493 8.74328 81.0493 7.6382C81.0493 6.51146 80.7242 5.6339 80.0742 5.00552C79.4458 4.35547 78.4057 4.03045 76.954 4.03045H72.9562V11.2135Z" fill="black"/>
<path d="M137.845 39.8564V29.3523H144.184V30.4807H139.117V34.0299H143.856V35.1583H139.117V38.728H144.266V39.8564H137.845Z" fill="black"/>
<path d="M133.334 32.6349H132.062C131.987 32.269 131.855 31.9476 131.667 31.6706C131.482 31.3937 131.257 31.1612 130.99 30.9731C130.727 30.7816 130.434 30.638 130.113 30.5423C129.791 30.4465 129.456 30.3987 129.107 30.3987C128.471 30.3987 127.895 30.5594 127.379 30.8808C126.866 31.2022 126.458 31.6758 126.153 32.3015C125.852 32.9272 125.702 33.6949 125.702 34.6044C125.702 35.5139 125.852 36.2815 126.153 36.9073C126.458 37.533 126.866 38.0066 127.379 38.328C127.895 38.6494 128.471 38.8101 129.107 38.8101C129.456 38.8101 129.791 38.7622 130.113 38.6665C130.434 38.5708 130.727 38.4289 130.99 38.2408C131.257 38.0493 131.482 37.8151 131.667 37.5381C131.855 37.2578 131.987 36.9363 132.062 36.5739H133.334C133.238 37.1107 133.064 37.5911 132.811 38.0151C132.558 38.4391 132.243 38.7999 131.867 39.0973C131.491 39.3914 131.068 39.6154 130.6 39.7692C130.135 39.9231 129.637 40 129.107 40C128.212 40 127.415 39.7812 126.717 39.3435C126.02 38.9059 125.471 38.2835 125.071 37.4766C124.671 36.6696 124.471 35.7122 124.471 34.6044C124.471 33.4965 124.671 32.5391 125.071 31.7322C125.471 30.9252 126.02 30.3029 126.717 29.8652C127.415 29.4276 128.212 29.2087 129.107 29.2087C129.637 29.2087 130.135 29.2857 130.6 29.4395C131.068 29.5934 131.491 29.8191 131.867 30.1166C132.243 30.4106 132.558 30.7696 132.811 31.1936C133.064 31.6142 133.238 32.0946 133.334 32.6349Z" fill="black"/>
<path d="M119.881 29.3524V39.8564H118.65L112.926 31.6091H112.823V39.8564H111.551V29.3524H112.782L118.527 37.6202H118.629V29.3524H119.881Z" fill="black"/>
<path d="M99.7665 39.8564H98.433L102.29 29.3523H103.603L107.46 39.8564H106.126L102.987 31.0141H102.905L99.7665 39.8564ZM100.259 35.7532H105.634V36.8816H100.259V35.7532Z" fill="black"/>
<path d="M94.3351 29.3524V39.8564H93.1041L87.3802 31.6091H87.2776V39.8564H86.0057V29.3524H87.2366L92.981 37.6202H93.0836V29.3524H94.3351Z" fill="black"/>
<path d="M80.9997 29.3524V39.8564H79.7277V29.3524H80.9997Z" fill="black"/>
<path d="M68.7959 39.8564V29.3523H75.0942V30.4807H70.0679V34.0299H74.6224V35.1583H70.0679V39.8564H68.7959Z" fill="black"/>
<defs>
<clipPath id="clip0_637_10106">
<rect width="57.1758" height="38.6777" fill="white" transform="translate(0.78598 1.32227)"/>
</clipPath>
</defs>
</svg>
