<svg width="295" height="295" viewBox="0 0 295 295" fill="none" xmlns="http://www.w3.org/2000/svg">
<path fill-rule="evenodd" clip-rule="evenodd" d="M147.5 294.646C228.686 294.646 294.5 228.832 294.5 147.646C294.5 66.4599 228.686 0.645752 147.5 0.645752C66.3141 0.645752 0.5 66.4599 0.5 147.646C0.5 228.832 66.3141 294.646 147.5 294.646Z" fill="#E6F2F3"/>
<mask id="mask0_711_7616" style="mask-type:luminance" maskUnits="userSpaceOnUse" x="0" y="0" width="295" height="295">
<path fill-rule="evenodd" clip-rule="evenodd" d="M147.5 294.646C228.686 294.646 294.5 228.832 294.5 147.646C294.5 66.4599 228.686 0.645752 147.5 0.645752C66.3141 0.645752 0.5 66.4599 0.5 147.646C0.5 228.832 66.3141 294.646 147.5 294.646Z" fill="white"/>
</mask>
<g mask="url(#mask0_711_7616)">
<path d="M111.244 280.693L113.357 289.577C113.712 291.068 113.364 292.64 112.414 293.843C111.464 295.046 110.015 295.747 108.482 295.747H101.085L96.3149 281.436" fill="black"/>
<path d="M110.691 280.844L112.728 289.407C112.93 290.131 112.966 290.892 112.832 291.632C112.571 292.862 111.807 293.926 110.726 294.568C109.333 295.386 107.616 295.174 106.064 295.174H101.085L101.637 295.595L100.025 290.759L97.4557 283.051L96.8663 281.283C96.6344 280.587 95.5284 280.886 95.7622 281.587L97.3743 286.423L99.9434 294.131L100.533 295.899C100.606 296.144 100.829 296.314 101.085 296.319H108.015C108.85 296.353 109.683 296.229 110.471 295.953C113.085 294.922 114.546 292.13 113.901 289.395C113.575 287.986 113.232 286.58 112.897 285.172L111.795 280.54C111.625 279.824 110.52 280.127 110.691 280.844V280.844Z" fill="black"/>
<path d="M28.1021 285.658L27.1396 292.133C26.8767 293.901 27.3969 295.696 28.5643 297.05C29.7317 298.403 31.4308 299.182 33.2185 299.182H49.5628L52.0435 275.52" fill="black"/>
<path d="M27.5505 285.505L26.6481 291.575C26.5747 291.999 26.5261 292.427 26.5024 292.857C26.4765 293.83 26.6636 294.798 27.0507 295.692C27.8071 297.433 29.2594 298.778 31.0541 299.398C31.918 299.666 32.8208 299.786 33.7247 299.754H44.2148C45.9666 299.754 47.725 299.799 49.4764 299.754C49.5052 299.753 49.5343 299.754 49.5631 299.754C49.8759 299.746 50.1276 299.494 50.1356 299.182L50.3819 296.832L50.9736 291.188L51.6898 284.357L52.3095 278.446C52.4093 277.494 52.5808 276.52 52.6118 275.562C52.6123 275.548 52.6148 275.534 52.6163 275.519C52.6142 275.204 52.3591 274.949 52.0438 274.947C51.7305 274.954 51.4782 275.206 51.4714 275.519L51.225 277.869L50.6333 283.513L49.9172 290.344L49.2975 296.255L49.0921 298.214C49.0602 298.518 48.9997 298.833 48.9952 299.139C48.995 299.153 48.9922 299.168 48.9908 299.182L49.5632 298.609H37.4562C36.0286 298.609 34.6003 298.622 33.1728 298.609C31.4275 298.592 29.79 297.762 28.7445 296.364C27.8634 295.165 27.4901 293.667 27.7053 292.195C28.0008 290.128 28.3192 288.065 28.6261 286.001L28.6545 285.81C28.7282 285.506 28.5531 285.198 28.2547 285.105C27.9501 285.024 27.6364 285.202 27.5504 285.505L27.5505 285.505Z" fill="black"/>
<path d="M66.7004 211.688L126.473 196.904C145.904 192.257 146.274 184.348 150.124 173.37L162.267 122.483L141.635 114.987L123.488 167.473L89.1848 176.887C88.2793 177.136 87.3464 177.27 86.4076 177.288L65.4331 177.684" fill="#458DC9"/>
<path d="M66.8516 212.241L68.8096 211.756L74.0409 210.462L81.684 208.572L90.759 206.327L100.395 203.944L109.732 201.634L117.773 199.645L123.684 198.183C124.624 197.951 125.563 197.718 126.503 197.486C130.172 196.583 133.82 195.502 137.202 193.787C140.219 192.256 142.922 190.176 144.915 187.423C146.668 185.002 147.769 182.194 148.725 179.383C149.243 177.858 149.726 176.32 150.239 174.793C150.418 174.262 150.623 173.742 150.753 173.197L151.655 169.415L153.321 162.435L155.464 153.454L157.764 143.814L159.942 134.686L161.677 127.414L162.685 123.191L162.818 122.635C162.893 122.331 162.717 122.022 162.418 121.931L155.451 119.399L144.342 115.363L141.787 114.435C141.482 114.356 141.171 114.533 141.082 114.835L139.279 120.05L134.948 132.576L129.708 147.733L125.175 160.844L123.679 165.169C123.446 165.843 123.131 166.534 122.967 167.229C122.96 167.26 122.946 167.29 122.935 167.321L123.335 166.921L115.259 169.137L99.5807 173.44L89.315 176.258C88.0434 176.58 86.7361 176.74 85.4243 176.734L79.0236 176.855L65.6835 177.107L65.4322 177.112C64.6964 177.125 64.6939 178.27 65.4322 178.256L76.8381 178.041L84.1 177.904C85.8644 177.871 87.6141 177.901 89.3374 177.439C92.0198 176.719 94.6943 175.969 97.3725 175.234L112.786 171.004L123.243 168.134C123.589 168.039 123.875 168.003 124.041 167.622C124.103 167.478 124.145 167.321 124.196 167.173L125.196 164.279L129.229 152.616L134.546 137.237L139.404 123.186L142.061 115.502L142.187 115.139L141.482 115.539L148.45 118.07L159.559 122.107L162.114 123.035L161.714 122.331L161.176 124.585L159.77 130.477L157.779 138.819L155.508 148.339L153.254 157.786L151.323 165.875L149.996 171.439C149.758 172.437 149.511 173.376 149.182 174.349C148.2 177.257 147.369 180.24 146.098 183.042C144.912 185.77 143.111 188.186 140.838 190.104C137.643 192.735 133.654 194.291 129.726 195.448C128.192 195.9 126.637 196.273 125.085 196.657L120.507 197.79L113.346 199.561L104.519 201.744L94.9772 204.104L85.5258 206.442L77.1128 208.523L70.6411 210.124L67.0225 211.019L66.5471 211.137C65.8323 211.313 66.1351 212.418 66.8515 212.241H66.8516Z" fill="black"/>
<path d="M134.25 136.347L123.488 167.473L89.1848 176.888C88.2793 177.136 87.3464 177.271 86.4076 177.289L65.4331 177.685L69.4461 219.504L131.119 203.875C150.55 199.228 155.994 185.073 159.844 174.094L167.236 141.357C164.114 141.001 150.751 141.337 146.886 140.402C141.957 139.21 137.542 137.765 134.25 136.347Z" fill="#458DC9"/>
<path d="M133.698 136.195L130.05 146.747L124.271 163.459L122.936 167.321L123.336 166.921L115.216 169.149L99.5315 173.454L89.3146 176.258C88.0362 176.581 86.7222 176.741 85.4037 176.735L79.0243 176.855L65.6834 177.107L65.4328 177.112C65.1176 177.114 64.8627 177.369 64.8604 177.684L65.2592 181.841L66.2172 191.824L67.3764 203.904L68.3788 214.35C68.5413 216.043 68.6835 217.74 68.8664 219.431C68.869 219.455 68.871 219.48 68.8733 219.504C68.8769 219.681 68.9613 219.847 69.1024 219.955C69.2435 220.062 69.426 220.099 69.598 220.056L75.237 218.627L88.95 215.151L105.931 210.848L121.374 206.934L130.474 204.628C132.001 204.241 133.528 203.857 135.024 203.357C138.959 202.072 142.646 200.124 145.926 197.598C151.349 193.365 155.076 187.519 157.737 181.249C158.34 179.83 158.9 178.393 159.431 176.945C159.767 176.03 160.171 175.101 160.415 174.157C160.721 172.977 160.954 171.773 161.222 170.583L164.771 154.867L167.634 142.191L167.788 141.508C167.831 141.336 167.793 141.154 167.686 141.013C167.579 140.872 167.413 140.788 167.236 140.784C165.803 140.625 164.345 140.634 162.906 140.609C160.752 140.571 158.598 140.552 156.445 140.506C154.337 140.462 152.227 140.406 150.124 140.249C149.349 140.191 148.571 140.125 147.804 140C146.583 139.769 145.374 139.474 144.184 139.116C140.897 138.253 137.675 137.163 134.539 135.852C133.869 135.565 133.285 136.551 133.961 136.841C136.716 138.004 139.54 138.995 142.417 139.81C144.644 140.454 146.868 141.092 149.181 141.314C153.437 141.722 157.74 141.674 162.011 141.739C163.746 141.766 165.509 141.737 167.236 141.929L166.684 141.204L164.575 150.541L160.841 167.077L159.581 172.657C159.255 173.994 158.842 175.309 158.345 176.592C156.123 182.653 153.327 188.596 148.871 193.355C146.298 196.095 143.27 198.369 139.923 200.078C137.036 201.56 133.978 202.567 130.838 203.355C128.496 203.943 126.157 204.541 123.817 205.134L109.466 208.771L92.4604 213.08L77.5985 216.847L69.6535 218.86L69.2936 218.952L70.0183 219.504L69.6194 215.347L68.6614 205.363L67.5023 193.284L66.4999 182.838L66.1694 179.394C66.1576 178.845 66.1051 178.297 66.0123 177.756C66.0082 177.732 66.0059 177.708 66.0054 177.684L65.4329 178.257L73.5039 178.104L85.0545 177.886C86.5038 177.859 87.9193 177.819 89.3378 177.439C89.8494 177.302 90.3595 177.159 90.8703 177.019L100.294 174.432L112.821 170.994L122.172 168.428C122.668 168.32 123.158 168.186 123.64 168.025C124.175 167.812 124.347 166.738 124.514 166.256L127.752 156.889L131.983 144.654L134.669 136.886L134.802 136.499C135.043 135.801 133.938 135.501 133.698 136.195Z" fill="black"/>
<path d="M159.057 135.934L157.528 142.344C163.107 142.979 166.982 142.666 167.307 141.321C167.633 139.975 164.321 137.921 159.057 135.934Z" fill="black"/>
<path d="M158.505 135.782L157.166 141.395L156.976 142.192C156.932 142.364 156.97 142.546 157.077 142.687C157.185 142.828 157.35 142.913 157.528 142.917C159.443 143.159 161.374 143.26 163.304 143.218C164.505 143.175 165.863 143.102 166.947 142.522C167.772 142.081 168.12 141.243 167.708 140.381C167.226 139.37 166.07 138.667 165.149 138.114C163.254 137.029 161.266 136.115 159.209 135.382C158.905 135.301 158.591 135.479 158.505 135.782C158.428 136.086 158.604 136.397 158.905 136.487C160.612 137.111 162.275 137.852 163.879 138.707C164.478 139.027 165.055 139.388 165.606 139.785C165.775 139.91 165.937 140.044 166.092 140.186C166.176 140.262 166.257 140.34 166.335 140.422C166.371 140.46 166.407 140.499 166.442 140.538C166.457 140.556 166.587 140.721 166.506 140.612C166.56 140.683 166.609 140.757 166.653 140.833C166.674 140.869 166.691 140.905 166.711 140.941C166.775 141.058 166.676 140.823 166.713 140.946C166.735 141.013 166.752 141.081 166.767 141.15C166.734 140.982 166.758 141.085 166.757 141.13C166.754 141.291 166.769 141.035 166.762 141.138C166.758 141.201 166.675 141.327 166.761 141.181C166.733 141.227 166.611 141.387 166.727 141.258C166.679 141.312 166.629 141.36 166.576 141.409C166.481 141.497 166.682 141.342 166.568 141.414C166.521 141.443 166.475 141.474 166.427 141.502C166.348 141.547 166.266 141.588 166.182 141.624C166.305 141.57 166.15 141.635 166.134 141.641C166.084 141.658 166.035 141.677 165.985 141.693C165.758 141.766 165.528 141.825 165.295 141.871C164.696 141.983 164.089 142.048 163.48 142.066C161.491 142.123 159.501 142.025 157.527 141.772L158.079 142.496L159.419 136.884L159.609 136.087C159.78 135.37 158.676 135.065 158.505 135.782Z" fill="black"/>
<path d="M74.5612 329.905L68.6562 242.104L98.8307 228.653C98.8307 228.653 102.225 249.486 103.372 265.123C103.929 272.72 102.737 302.629 101.276 329.905" fill="#458DC9"/>
<path d="M75.1335 329.905L74.9751 327.551L74.5444 321.145L73.9101 311.715L73.1367 300.215L72.2863 287.569L71.4277 274.804L70.6303 262.947L69.9538 252.887L69.4691 245.68C69.3933 244.553 69.4146 243.367 69.2384 242.25C69.2309 242.203 69.2318 242.152 69.2285 242.104L68.945 242.598L79.1689 238.04L95.3996 230.805L99.1194 229.147L98.2785 228.805C98.8865 232.538 99.433 236.281 99.9588 240.027C101.009 247.506 101.952 255.007 102.593 262.533C103.005 267.364 102.964 272.189 102.874 277.033C102.734 284.528 102.458 292.021 102.152 299.511C101.783 308.535 101.359 317.557 100.88 326.576C100.822 327.686 100.763 328.795 100.704 329.905C100.664 330.641 101.809 330.639 101.849 329.905C102.334 320.83 102.773 311.754 103.165 302.675C103.497 294.864 103.797 287.05 103.973 279.233C104.079 274.548 104.279 269.803 103.944 265.122C103.395 257.455 102.443 249.812 101.405 242.197C100.791 237.692 100.138 233.191 99.4151 228.702C99.4042 228.635 99.3933 228.567 99.3824 228.5C99.317 228.099 98.841 228.025 98.5415 228.158L88.3175 232.716L72.0868 239.951L68.3671 241.609C68.1887 241.709 68.0798 241.899 68.0836 242.104L68.2419 244.458L68.6727 250.863L69.3069 260.294L70.0803 271.793L70.9308 284.439L71.7893 297.205L72.5868 309.062L73.2633 319.121L73.748 326.328C73.8249 327.471 73.8877 328.616 73.9787 329.758C73.9826 329.807 73.9852 329.856 73.9885 329.905C74.0377 330.636 75.183 330.642 75.1335 329.905V329.905Z" fill="black"/>
<path d="M45.4492 245.397C45.4492 245.397 35.2456 247.36 34.0682 253.246C32.8908 259.133 47.8038 260.507 47.8038 260.507" fill="black"/>
<path d="M45.2969 244.845C43.6312 245.188 42.0061 245.703 40.4481 246.385C37.8999 247.467 35.1431 249.112 33.963 251.743C33.4745 252.832 33.2217 254.059 33.6789 255.202C34.0917 256.235 34.9024 257.014 35.8048 257.633C37.8545 259.038 40.4002 259.741 42.7994 260.271C43.8376 260.5 44.8834 260.691 45.9368 260.844C46.5259 260.93 47.1262 261.037 47.7216 261.071C47.749 261.073 47.7764 261.077 47.8037 261.079C48.1189 261.077 48.3738 260.822 48.3761 260.507C48.3696 260.193 48.1171 259.941 47.8037 259.934C47.4401 259.901 47.0776 259.854 46.7156 259.807C46.5608 259.787 46.7965 259.818 46.6957 259.804C46.6534 259.798 46.6111 259.793 46.5689 259.787C46.4663 259.772 46.3637 259.758 46.2611 259.743C46.0402 259.71 45.8194 259.676 45.5989 259.641C45.0941 259.56 44.5908 259.47 44.0889 259.372C42.9182 259.147 41.7595 258.864 40.6172 258.523C39.4731 258.199 38.3655 257.758 37.3121 257.207C37.0709 257.077 36.834 256.939 36.6035 256.791C36.4925 256.719 36.3831 256.646 36.2753 256.569C36.226 256.534 36.1773 256.499 36.1287 256.463C36.0912 256.439 36.0559 256.411 36.023 256.381C35.8324 256.227 35.6507 256.063 35.4789 255.888C35.3972 255.804 35.3184 255.717 35.2427 255.627C35.2236 255.604 35.1346 255.493 35.1723 255.542C35.2031 255.582 35.1047 255.448 35.0833 255.417C34.9584 255.235 34.8499 255.042 34.7591 254.841C34.8175 254.97 34.7483 254.813 34.7358 254.777C34.7194 254.729 34.7025 254.682 34.6876 254.633C34.6542 254.523 34.6265 254.41 34.6044 254.297C34.5929 254.24 34.5822 254.138 34.5951 254.255C34.5886 254.196 34.583 254.137 34.5794 254.078C34.5724 253.958 34.5724 253.837 34.5794 253.716C34.5826 253.662 34.5878 253.608 34.593 253.554C34.6012 253.468 34.5775 253.652 34.5908 253.565C34.5944 253.542 34.5976 253.518 34.6022 253.494C34.6333 253.332 34.6678 253.171 34.7116 253.012C35.0554 251.76 35.8565 250.724 36.8482 249.852C37.8859 248.98 39.0406 248.257 40.2787 247.706C41.9627 246.96 43.7146 246.378 45.5101 245.968C45.5401 245.961 45.571 245.955 45.6013 245.95C46.3239 245.81 46.0181 244.706 45.2969 244.845H45.2969Z" fill="black"/>
<path d="M80.3538 263.24C80.3538 263.24 75.4608 290.68 75.3447 300.894C76.0668 274.954 76.373 260.507 76.373 260.507C76.373 260.507 80.3267 256.397 80.3538 263.24Z" fill="black" stroke="black" stroke-width="1.4577"/>
<path d="M74.605 329.953L76.8508 241.745L43.4659 228.653C43.4659 228.653 40.0713 249.486 38.9248 265.123C38.3678 272.72 40.0879 302.629 41.5486 329.905" fill="#458DC9"/>
<path d="M75.1773 329.953L75.2377 327.581L75.4004 321.19L75.6429 311.669L75.9375 300.094L76.2603 287.418L76.5861 274.622L76.8899 262.689L77.1476 252.567L77.3315 245.343C77.3608 244.194 77.4195 243.041 77.4194 241.891C77.4194 241.842 77.422 241.793 77.4231 241.744C77.4175 241.489 77.2478 241.266 77.0029 241.192L73.6922 239.894L65.7381 236.775L56.0615 232.98L47.7338 229.715L44.9761 228.633C44.5483 228.465 44.1175 228.256 43.677 228.124C43.6569 228.118 43.6374 228.108 43.6179 228.1C43.3131 228.017 42.9982 228.196 42.9137 228.5C42.3057 232.233 41.7591 235.977 41.2333 239.722C40.1765 247.251 39.2216 254.802 38.5711 262.378C38.1551 267.224 38.2382 272.049 38.3848 276.908C38.6122 284.446 38.9812 291.979 39.3613 299.511C39.8167 308.534 40.3115 317.555 40.7972 326.576C40.8569 327.686 40.9165 328.795 40.976 329.905C41.0152 330.638 42.1604 330.642 42.1209 329.905C41.6347 320.828 41.1502 311.752 40.6676 302.675C40.2677 294.908 39.8793 287.139 39.6097 279.366C39.5102 276.499 39.4252 273.631 39.3975 270.762C39.3794 268.901 39.3643 267.032 39.4933 265.174C40.0198 257.592 40.9691 250.03 41.9951 242.501C42.6089 237.996 43.2622 233.495 43.9852 229.006C43.996 228.939 44.0069 228.872 44.0177 228.805L43.3135 229.204L46.6242 230.503L54.5782 233.622L64.2548 237.417L72.5824 240.682L75.3402 241.764C75.7612 241.963 76.1953 242.133 76.6392 242.273C76.6594 242.28 76.6792 242.287 76.6983 242.296L76.278 241.744L76.2176 244.117L76.0549 250.507L75.8125 260.029L75.5178 271.603L75.1951 284.28L74.8696 297.076L74.5659 309.009L74.3082 319.13L74.1242 326.354C74.095 327.503 74.0332 328.657 74.0364 329.807C74.0365 329.855 74.0337 329.904 74.0326 329.953C74.0139 330.69 75.1588 330.69 75.1776 329.953L75.1773 329.953Z" fill="black"/>
<path d="M84.0069 177.323H53.556C49.6487 177.323 47.6074 178.938 45.9303 184.672C45.9303 184.672 29.0029 273.659 27.2368 292.694C39.6403 290.213 53.7463 282.409 78.5682 260.445C89.2543 278.764 112.153 285.061 112.153 285.061L92.6892 191.558" fill="#458DC9"/>
<path d="M84.0068 176.75H56.0406C54.7414 176.75 53.3953 176.673 52.104 176.84C50.5947 176.998 49.192 177.692 48.1514 178.797C46.7971 180.278 46.0657 182.259 45.4893 184.149C45.003 185.742 44.8195 187.468 44.5115 189.102C43.7379 193.203 42.9688 197.305 42.2042 201.409C41.1165 207.243 40.0372 213.079 38.9662 218.917C37.7329 225.642 36.5133 232.369 35.3076 239.099C34.0961 245.872 32.9064 252.648 31.7385 259.429C30.7135 265.407 29.7098 271.389 28.7689 277.381C28.083 281.75 27.4089 286.126 26.8954 290.52C26.8108 291.244 26.732 291.969 26.6643 292.694C26.6274 293.091 27.0579 293.313 27.389 293.246C32.9804 292.123 38.3079 289.995 43.3399 287.338C50.7001 283.452 57.4954 278.54 64.0248 273.405C69.1403 269.382 74.0987 265.161 78.973 260.85L78.0739 260.734C81.999 267.431 87.7202 272.884 94.1574 277.151C98.8007 280.218 103.789 282.727 109.019 284.627C110.001 284.985 110.993 285.336 112.001 285.613C112.199 285.664 112.409 285.606 112.554 285.462C112.698 285.317 112.756 285.107 112.705 284.909L112.183 282.4L110.769 275.607L108.67 265.523L106.119 253.27L103.326 239.851L100.494 226.249L97.8542 213.567L95.6327 202.895L94.0344 195.216C93.7814 194.001 93.5696 192.768 93.2736 191.562C93.261 191.51 93.252 191.458 93.2412 191.406C93.0911 190.685 91.9871 190.99 92.1372 191.71L92.6595 194.22L94.0733 201.012L96.1726 211.097L98.7231 223.35L101.516 236.769L104.348 250.371L106.988 263.053L109.209 273.724L110.808 281.404C111.058 282.604 111.213 283.883 111.569 285.058C111.584 285.108 111.59 285.162 111.601 285.214L112.305 284.51C109.481 283.731 106.727 282.579 104.074 281.353C98.0359 278.564 92.3083 274.972 87.4207 270.442C84.146 267.441 81.3299 263.976 79.0624 260.156C78.9708 260.006 78.8156 259.905 78.6407 259.882C78.4658 259.86 78.2902 259.918 78.1633 260.041C70.2744 267.018 62.1718 273.825 53.4796 279.79C47.8539 283.65 41.9227 287.211 35.5364 289.668C32.7938 290.73 29.9665 291.557 27.0844 292.142L27.8091 292.694C28.1641 288.884 28.735 285.133 29.3076 281.348C30.1607 275.708 31.0888 270.08 32.0385 264.456C33.157 257.833 34.3059 251.215 35.4853 244.602C36.6883 237.821 37.9089 231.042 39.1472 224.267C40.2626 218.153 41.388 212.041 42.5235 205.93C43.3816 201.31 44.2449 196.69 45.1133 192.072C45.5459 189.772 45.9801 187.472 46.416 185.173C46.4378 185.058 46.4553 184.941 46.4818 184.827C46.8906 183.069 47.6763 181.061 48.8852 179.691C50.2744 178.116 52.1756 177.895 54.155 177.895H84.0068C84.7435 177.895 84.7447 176.75 84.0068 176.75V176.75Z" fill="black"/>
<path d="M62.5758 172.409C64.8948 172.867 67.2823 172.854 69.5963 172.371C70.315 172.21 70.0109 171.106 69.2919 171.267C67.8507 171.563 66.3749 171.653 64.9083 171.536C64.6261 171.518 64.3443 171.495 64.0629 171.466C63.9429 171.454 63.8229 171.441 63.703 171.427C63.6605 171.422 63.4081 171.389 63.4879 171.4C63.2848 171.372 63.0815 171.343 62.8801 171.304C62.5764 171.229 62.2667 171.405 62.1759 171.704C62.0947 172.009 62.2726 172.322 62.5757 172.409L62.5758 172.409Z" fill="black"/>
<path d="M55.5062 192.258L85.0743 221.629L153.969 209.12L157.323 230.813L92.7187 247.817C81.2419 249.723 74.13 253.203 60.7084 238.404L42.4752 218.937C34.9387 210.89 33.1744 199.017 38.0457 189.127L39.8743 185.414C42.3327 180.423 47.4134 177.262 52.9773 177.262H67.4639" fill="#458DC9"/>
<path d="M55.1018 192.663L60.1567 197.684L70.9832 208.438L81.207 218.594L84.1073 221.475C84.4893 221.854 84.7623 222.259 85.3536 222.158C87.2887 221.828 89.2175 221.456 91.1489 221.106L103.437 218.874L118.97 216.054L134.641 213.209L147.342 210.903L153.83 209.725L154.121 209.672L153.417 209.272L154.549 216.594L156.355 228.272L156.771 230.965L157.171 230.261L148.929 232.43L129.977 237.418L108.976 242.946L94.6281 246.722C93.7627 246.95 92.9053 247.205 92.0236 247.357C88.231 248.009 84.4352 248.985 80.5666 249.016C76.4429 249.049 72.6532 247.68 69.2603 245.376C65.9412 243.123 63.1941 240.22 60.4667 237.308L47.5353 223.502C46.0287 221.893 44.5222 220.285 43.0157 218.676C39.7426 215.203 37.4773 210.904 36.4627 206.24C35.2683 200.62 35.9701 194.762 38.4585 189.584C39.0574 188.345 39.6726 187.114 40.2817 185.88C41.3214 183.712 42.8882 181.839 44.8386 180.433C47.0704 178.851 49.7134 177.952 52.4465 177.844C53.3253 177.812 54.2083 177.834 55.0874 177.834H67.4643C68.201 177.834 68.2022 176.689 67.4643 176.689H54.7515C53.693 176.689 52.6237 176.655 51.569 176.757C46.3051 177.28 41.6818 180.478 39.3347 185.218C38.7387 186.422 38.1451 187.628 37.5537 188.834C33.715 196.602 33.825 205.738 37.8496 213.412C39.2945 216.17 41.2673 218.484 43.3766 220.736L57.0163 235.298C61.9879 240.606 66.9235 246.599 73.9804 249.096C77.6059 250.379 81.3975 250.314 85.1529 249.748C87.1104 249.454 89.0505 249.055 90.9972 248.698C91.725 248.564 92.4637 248.476 93.1796 248.288L104.179 245.393L124.424 240.064L145.068 234.63L156.916 231.512L157.475 231.365C157.774 231.274 157.95 230.964 157.875 230.661L156.743 223.339L154.937 211.66L154.521 208.968C154.471 208.643 154.091 208.518 153.817 208.568L146.964 209.812L130.508 212.8L110.6 216.414L93.3929 219.539L87.7245 220.568C86.8497 220.727 85.891 220.799 85.0381 221.056C85 221.065 84.9615 221.072 84.9226 221.077L85.4796 221.224L82.5384 218.302L75.4754 211.287L66.9311 202.799L59.5461 195.463C58.3627 194.288 57.2279 192.997 55.9649 191.906C55.946 191.89 55.9291 191.871 55.9114 191.853C55.3881 191.333 54.5781 192.142 55.1018 192.663Z" fill="black"/>
<path d="M60.9159 177.057V170.066C59.0782 169.238 57.699 168.139 57.0737 166.779C53.9932 160.077 57.0737 135.605 57.0737 135.605H85.8855C85.8855 135.605 90.2345 159.725 85.8855 166.779C84.412 169.169 80.982 170.708 76.9719 171.439V180.007" fill="#D08B5B"/>
<path d="M61.4883 177.057V170.066C61.4904 169.862 61.3819 169.673 61.2048 169.572C60.2601 169.172 59.3885 168.618 58.6257 167.932C58.3109 167.64 58.0362 167.307 57.8088 166.942C57.7107 166.779 57.6221 166.61 57.5436 166.436C57.52 166.385 57.4861 166.302 57.5297 166.408C57.5088 166.357 57.4882 166.306 57.4681 166.255C57.1279 165.333 56.8865 164.377 56.7479 163.405C56.6507 162.806 56.5971 162.372 56.533 161.733C56.4681 161.088 56.4197 160.441 56.3827 159.793C56.3019 158.379 56.2746 156.962 56.2771 155.546C56.2825 152.576 56.4175 149.607 56.6154 146.644C56.7811 144.162 56.9912 141.683 57.2457 139.208C57.3277 138.403 57.4142 137.599 57.5053 136.795C57.5482 136.419 57.6234 136.034 57.6398 135.655C57.6405 135.639 57.644 135.621 57.6461 135.605L57.0736 136.177H84.7075C85.0773 136.177 85.467 136.212 85.8356 136.177C85.8519 136.175 85.869 136.177 85.8853 136.177L85.3333 135.757C85.5331 136.866 85.7027 137.98 85.8664 139.095C86.0495 140.341 86.1861 141.354 86.3386 142.596C86.5192 144.066 86.6775 145.538 86.8134 147.014C87.127 150.204 87.2684 153.409 87.2371 156.614C87.1904 159.382 87.0459 162.122 86.1764 164.751C86.0881 165.018 85.9914 165.283 85.8824 165.542C85.9255 165.44 85.8676 165.574 85.8527 165.608C85.8263 165.666 85.7998 165.724 85.7724 165.782C85.7156 165.902 85.6559 166.021 85.5933 166.138C85.2386 166.788 84.7698 167.37 84.2093 167.854C82.6436 169.234 80.5677 169.995 78.575 170.504C77.9946 170.653 77.4087 170.778 76.8196 170.887C76.5721 170.956 76.4007 171.182 76.3993 171.439V180.007C76.3993 180.744 77.5443 180.745 77.5443 180.007V171.439L77.124 171.991C80.7953 171.314 85.2142 169.858 86.8512 166.163C87.9522 163.678 88.2113 160.846 88.3343 158.16C88.4527 154.904 88.3668 151.644 88.0771 148.399C87.8451 145.496 87.5097 142.602 87.1039 139.718C86.9699 138.766 86.8268 137.815 86.6746 136.865C86.6025 136.417 86.5541 135.952 86.4476 135.51C86.4431 135.491 86.4408 135.472 86.4373 135.453C86.3678 135.205 86.1425 135.033 85.8853 135.032H60.6247C59.4607 135.032 58.2869 134.988 57.1235 135.032C57.1069 135.033 57.0902 135.032 57.0737 135.032C56.7613 135.041 56.5101 135.292 56.5013 135.605C56.3771 136.592 56.2704 137.581 56.1668 138.57C55.915 140.974 55.7024 143.382 55.5292 145.794C55.3156 148.794 55.1643 151.8 55.1365 154.807C55.0718 157.583 55.2115 160.36 55.5546 163.115C55.681 164.147 55.903 165.165 56.2178 166.156C56.3958 166.729 56.6548 167.274 56.9868 167.774C57.5774 168.586 58.3243 169.273 59.1836 169.793C59.6468 170.081 60.1291 170.337 60.627 170.561L60.3435 170.066V177.057C60.3435 177.794 61.4884 177.795 61.4884 177.057L61.4883 177.057Z" fill="black"/>
<path d="M48.5942 134.844C51.0907 135.071 53.8142 135.071 53.8142 135.071C53.8142 135.071 50.4099 138.475 49.5021 145.511C48.8667 150.435 51.4605 158.646 53.5041 163.974C54.7175 167.142 57.5074 169.439 60.8497 170.022L61.7195 159.582C60.2286 158.417 58.0881 153.965 58.0881 151.411C58.0881 147.553 60.1593 146.645 62.8541 146.645C65.549 146.645 68.5279 151.736 68.5279 155.497L68.7549 143.922C68.7549 143.922 87.7794 146.524 89.2187 138.248C89.2187 138.248 90.8074 125.312 76.5094 124.631C62.2113 123.95 51.5446 130.078 48.5942 134.844Z" fill="black"/>
<path d="M48.5934 135.416C50.3268 135.571 52.0729 135.642 53.8133 135.643L53.4085 134.666C52.5638 135.576 51.8566 136.606 51.3092 137.721C49.9024 140.371 49.0669 143.287 48.8567 146.281C48.6716 149.319 49.3428 152.426 50.099 155.349C50.5144 156.955 50.9942 158.545 51.5169 160.119C51.993 161.553 52.4784 162.997 53.0581 164.393C54.3908 167.616 57.2668 169.942 60.6967 170.573C60.8686 170.616 61.0506 170.578 61.1915 170.471C61.3324 170.364 61.4169 170.198 61.4213 170.021L61.8238 165.191L62.118 161.659C62.1734 160.994 62.2611 160.323 62.2848 159.656C62.3009 159.203 61.8214 158.927 61.5499 158.608C61.099 158.051 60.7062 157.448 60.3776 156.811C59.5549 155.37 58.9915 153.796 58.713 152.161C58.5269 150.85 58.7029 149.141 59.636 148.196C60.0219 147.817 60.5034 147.55 61.0291 147.424C61.6428 147.26 62.2781 147.19 62.9128 147.218C63.1672 147.233 63.4168 147.293 63.6503 147.395C63.9213 147.52 64.1774 147.675 64.4138 147.857C65.0066 148.334 65.5208 148.9 65.9376 149.536C66.9312 150.983 67.5915 152.632 67.8708 154.364C67.9263 154.739 67.9543 155.117 67.9546 155.496C67.9588 156.233 69.085 156.233 69.0995 155.496L69.1758 151.603L69.2983 145.355L69.3264 143.921L68.6018 144.473C69.7376 144.628 70.8829 144.721 72.0268 144.788C74.4457 144.948 76.8736 144.914 79.2869 144.685C81.782 144.429 84.4009 143.951 86.5878 142.656C88.216 141.692 89.6053 140.108 89.7995 138.159C89.892 137.021 89.8442 135.876 89.657 134.749C89.381 132.727 88.6221 130.8 87.4444 129.133C85.7957 126.876 83.3836 125.405 80.7038 124.681C78.7561 124.155 76.735 124.025 74.7256 124.008C72.3584 123.988 69.9934 124.155 67.6523 124.506C63.6666 125.08 59.7948 126.272 56.1767 128.04C53.5777 129.33 50.994 130.988 49.0933 133.213C48.7288 133.635 48.3965 134.083 48.0989 134.554C47.7081 135.182 48.6983 135.757 49.0875 135.132C49.3462 134.709 49.643 134.309 49.9745 133.94C50.3687 133.489 50.7897 133.063 51.2352 132.664C52.288 131.727 53.4297 130.896 54.644 130.181C57.7977 128.332 61.2232 126.991 64.7944 126.208C66.8922 125.728 69.0242 125.411 71.1711 125.261C73.4293 125.073 75.7 125.093 77.9547 125.319C80.7572 125.639 83.5333 126.641 85.5042 128.611C85.709 128.815 85.9049 129.028 86.0918 129.25C86.2553 129.438 86.4081 129.635 86.5494 129.841C86.8538 130.272 87.1265 130.724 87.3655 131.195C87.4822 131.424 87.5912 131.657 87.6923 131.893C87.6443 131.781 87.7171 131.954 87.7284 131.982C87.7496 132.034 87.7704 132.087 87.7908 132.139C87.837 132.258 87.8814 132.378 87.9239 132.498C88.0788 132.937 88.2103 133.384 88.3181 133.837C88.4187 134.258 88.498 134.684 88.5616 135.113C88.5649 135.135 88.5858 135.287 88.573 135.192C88.5611 135.103 88.5794 135.242 88.5827 135.269C88.5947 135.369 88.6062 135.468 88.6167 135.568C88.6356 135.75 88.6512 135.932 88.6635 136.115C88.7016 136.66 88.708 137.206 88.6827 137.751C88.676 137.887 88.6662 138.023 88.6544 138.159C88.652 138.186 88.6492 138.213 88.646 138.24C88.6451 138.248 88.6821 138.08 88.6465 138.199C88.6073 138.331 88.5886 138.47 88.5519 138.603C88.5182 138.725 88.48 138.845 88.4373 138.965C88.4149 139.028 88.391 139.09 88.3663 139.151C88.3417 139.213 88.3728 139.137 88.3762 139.129C88.3599 139.167 88.3432 139.205 88.3257 139.242C88.2187 139.471 88.0954 139.693 87.9567 139.905C87.8456 140.085 87.7159 140.254 87.5696 140.408C87.3989 140.599 87.2163 140.78 87.023 140.948C86.8517 141.104 86.668 141.246 86.4737 141.372C86.2492 141.526 86.0167 141.668 85.7787 141.8C85.3134 142.06 84.8273 142.28 84.3254 142.46C83.1637 142.872 81.9648 143.171 80.7454 143.352C78.3424 143.694 75.9129 143.814 73.4879 143.71C71.9845 143.661 70.4792 143.56 68.9857 143.378C68.9045 143.368 68.5851 143.326 68.9059 143.369C68.734 143.326 68.5519 143.364 68.4109 143.471C68.2699 143.579 68.1854 143.744 68.1813 143.921L68.1049 147.815L67.9824 154.063L67.9543 155.496H69.0993C69.0863 153.267 68.2602 150.996 67.0497 149.144C66.0305 147.584 64.5556 146.023 62.5562 146.076C60.8667 146.121 59.1248 146.618 58.2294 148.172C57.1825 149.989 57.4216 152.303 58.0321 154.217C58.414 155.411 58.9177 156.563 59.5352 157.654C60.0058 158.485 60.5568 159.382 61.3134 159.986L61.1458 159.581L60.3838 168.728L60.2761 170.021L61.0008 169.469C58.1745 168.977 55.7413 167.191 54.4252 164.642C53.7678 163.363 53.3407 161.931 52.8763 160.573C52.366 159.081 51.8933 157.575 51.4733 156.056C50.6782 153.178 49.9793 150.181 49.9757 147.18C49.9999 145.68 50.2131 144.188 50.6101 142.741C50.9381 141.435 51.3939 140.164 51.971 138.947C52.4136 138.013 52.9414 137.122 53.5478 136.285C53.6032 136.209 53.6594 136.134 53.7164 136.06C53.613 136.195 53.7502 136.017 53.7785 135.982C53.8558 135.886 53.9348 135.791 54.0155 135.697C54.0812 135.622 54.1474 135.546 54.2181 135.475C54.3757 135.309 54.4208 135.066 54.3332 134.855C54.2457 134.644 54.042 134.504 53.8133 134.498C52.0729 134.497 50.3268 134.426 48.5934 134.271C48.2782 134.273 48.0233 134.528 48.021 134.843C48.0273 135.157 48.2799 135.41 48.5934 135.416Z" fill="black"/>
<path d="M77.6457 149.101C77.065 148.741 76.4214 148.493 75.7487 148.37C74.2712 148.077 72.7375 148.337 71.4394 149.101C70.8012 149.469 71.3771 150.459 72.0173 150.09C73.0876 149.452 74.3593 149.243 75.5777 149.503C75.7992 149.553 76.0177 149.615 76.2319 149.691C76.3235 149.723 76.4143 149.758 76.5042 149.795C76.3883 149.747 76.6016 149.839 76.6366 149.856C76.7857 149.924 76.9297 150.002 77.0677 150.09C77.684 150.498 78.2581 149.507 77.6456 149.101H77.6457Z" fill="black"/>
<path d="M76.9197 152.349C75.7542 152.007 74.5126 152.024 73.3566 152.397C73.0517 152.481 72.8727 152.796 72.9568 153.101C73.0408 153.406 73.3561 153.585 73.661 153.501C73.9519 153.405 74.2499 153.333 74.5522 153.285L74.5716 153.282C74.6092 153.277 74.6469 153.273 74.6846 153.269C74.7586 153.262 74.8328 153.257 74.9071 153.253C75.0415 153.245 75.176 153.243 75.3105 153.246C75.4387 153.249 75.5667 153.256 75.6945 153.268C75.76 153.274 75.8253 153.281 75.8906 153.289C75.7492 153.271 75.9228 153.296 75.9511 153.301C76.1753 153.339 76.3971 153.39 76.6154 153.453C76.8126 153.508 77.0239 153.453 77.1696 153.309C77.3153 153.166 77.3733 152.955 77.3218 152.757C77.2702 152.559 77.117 152.404 76.9198 152.349H76.9197Z" fill="black"/>
<path d="M86.908 152.016C85.7246 151.742 84.4862 151.833 83.3549 152.275C83.0552 152.366 82.8793 152.675 82.9551 152.979C83.0418 153.282 83.3549 153.46 83.6594 153.379C83.943 153.264 84.2358 153.172 84.5346 153.105C84.6096 153.089 84.6848 153.074 84.7604 153.061C84.7812 153.057 85.002 153.027 84.885 153.04C85.0186 153.025 85.1527 153.013 85.2871 153.008C85.5369 152.997 85.7872 153.003 86.0361 153.026C86.0904 153.031 86.1445 153.038 86.1988 153.044C86.0435 153.027 86.2408 153.051 86.2699 153.055C86.3818 153.074 86.493 153.095 86.6037 153.12C86.9086 153.204 87.2239 153.025 87.3079 152.72C87.392 152.415 87.213 152.1 86.9081 152.016L86.908 152.016Z" fill="black"/>
<path d="M72.4026 178.393L81.5444 177.761C82.3328 177.666 83.1208 177.942 83.6765 178.51C84.379 179.254 84.461 180.242 84.145 181.174L82.4858 186.07L81.7418 188.265C81.6825 188.392 81.6418 188.528 81.6209 188.667C81.6407 188.858 81.6834 189.045 81.748 189.225C82.1261 190.785 82.5144 192.343 82.8824 193.905C83.1501 195.066 83.0812 196.279 82.6838 197.403C82.5549 197.782 82.4258 198.161 82.2963 198.539L80.6378 203.404L77.4686 212.699L77.4068 212.88C77.2877 213.23 77.8405 213.38 77.9589 213.032L80.7713 204.783L82.594 199.437C82.9883 198.281 83.496 197.088 83.6012 195.863C83.6873 194.86 83.4739 193.916 83.2406 192.954L82.5404 190.065L82.2569 188.896C82.2435 188.809 82.2228 188.723 82.195 188.64C82.1412 188.519 82.1358 188.786 82.1939 188.711C82.2799 188.54 82.3418 188.357 82.3778 188.169L82.7536 187.06L84.5642 181.718C84.7996 181.024 85.0002 180.367 84.8605 179.616C84.5848 178.231 83.3931 177.217 81.9818 177.166C81.5609 177.159 81.1322 177.217 80.7128 177.246L77.9265 177.439L72.7223 177.798L72.4026 177.82C72.0371 177.846 72.0343 178.418 72.4026 178.393Z" fill="black"/>
<path d="M71.1357 177.82L66.4997 177.579L59.1179 177.194C58.5718 177.165 58.0037 177.088 57.4566 177.107C56.8565 177.129 56.207 177.547 55.8022 177.966C55.2306 178.559 54.9217 179.357 54.9451 180.18C54.9779 181.08 55.4728 181.801 55.9066 182.552L57.7646 185.769L59.2571 188.353C59.2865 188.417 59.3218 188.478 59.3625 188.535C59.3136 188.541 59.3575 188.33 59.3242 188.432C59.3159 188.484 59.3137 188.536 59.3178 188.589L59.2602 190.001L59.1188 193.46C59.0833 194.095 59.1277 194.731 59.2509 195.354C59.3666 195.891 59.549 196.412 59.7938 196.904C59.8658 197.074 59.9593 197.233 60.0723 197.379C60.3197 197.66 60.6149 197.91 60.8821 198.171L62.6618 199.912L67.8773 205.013L73.3103 210.328L76.4839 213.432L76.6361 213.581C76.8997 213.839 77.3048 213.434 77.0409 213.176L74.8576 211.04L69.8685 206.16L64.4149 200.826L60.8384 197.328C60.7307 197.222 60.6087 197.122 60.5105 197.007C60.1818 196.623 60.0111 196.011 59.8815 195.529C59.5825 194.416 59.699 193.271 59.7453 192.135L59.8867 188.676C59.9142 188.507 59.8902 188.334 59.8178 188.179C59.6653 187.899 59.4982 187.626 59.3387 187.349L55.9974 181.565C55.8116 181.274 55.6703 180.958 55.578 180.625C55.3958 179.816 55.6321 178.969 56.2069 178.371C56.5433 177.995 57.0021 177.751 57.5016 177.682C57.7134 177.674 57.9339 177.705 58.1453 177.716L64.741 178.059L70.7976 178.375L71.1357 178.393C71.5039 178.412 71.5028 177.839 71.1357 177.82L71.1357 177.82Z" fill="black"/>
<path d="M87.6539 148.874C87.0259 148.604 86.3601 148.433 85.6799 148.365C84.5305 148.223 83.3068 148.276 82.3072 148.921C81.4214 149.488 80.7981 150.384 80.5751 151.412C80.4188 152.391 80.5421 153.393 80.9306 154.305C81.4549 155.618 82.2311 156.815 83.2154 157.83L83.0681 157.577C83.103 157.723 83.0992 157.876 83.0571 158.02C83.1029 157.881 82.956 158.178 83.0375 158.055C83.0251 158.074 82.9125 158.161 83.0055 158.094C82.9695 158.119 82.9319 158.142 82.8929 158.161C82.8097 158.205 83.0155 158.123 82.8469 158.181C82.7978 158.197 82.7476 158.211 82.6972 158.223C82.5955 158.248 82.4913 158.263 82.3865 158.265C82.0404 158.279 81.6937 158.262 81.3506 158.215C81.0351 158.216 80.7799 158.472 80.7781 158.787C80.7854 159.1 81.0375 159.352 81.3506 159.359C82.3383 159.477 83.7926 159.493 84.161 158.325C84.2227 158.117 84.2459 157.9 84.2295 157.685C84.2249 157.546 84.2057 157.408 84.1721 157.273C84.0659 157.049 83.9131 156.851 83.724 156.691C83.2279 156.133 82.7965 155.52 82.4379 154.865C81.9317 153.933 81.4503 152.707 81.6975 151.631C81.9519 150.522 82.8504 149.675 83.9729 149.488C84.7106 149.391 85.4599 149.43 86.1836 149.602C86.4331 149.656 86.6792 149.724 86.9205 149.807C86.9893 149.831 87.0566 149.862 87.1259 149.884C87.2164 149.912 86.9803 149.819 87.0759 149.863C87.3501 150.013 87.6938 149.923 87.8591 149.657C88.016 149.384 87.9246 149.035 87.6537 148.874H87.6539Z" fill="black"/>
<path d="M66.2433 155.685C66.0757 155.06 65.8681 154.446 65.6215 153.848C65.2142 152.843 64.7171 151.722 63.8626 151.014C63.3971 150.585 62.7565 150.402 62.1348 150.519C61.9376 150.573 61.7844 150.729 61.7328 150.927C61.6813 151.125 61.7393 151.335 61.885 151.479C62.0307 151.622 62.2419 151.677 62.4392 151.623C62.5906 151.592 62.3664 151.613 62.4584 151.618C62.5022 151.621 62.5492 151.617 62.5932 151.617C62.7414 151.615 62.5227 151.59 62.6063 151.616C62.659 151.633 62.7148 151.644 62.7681 151.66C62.899 151.698 62.7276 151.629 62.7896 151.667C62.8295 151.691 62.8732 151.709 62.9135 151.733C62.9551 151.757 62.9949 151.784 63.035 151.811C63.1576 151.893 62.9921 151.766 63.0821 151.848C63.2484 151.998 63.4023 152.161 63.5421 152.335C63.4557 152.226 63.5613 152.364 63.583 152.394C63.6175 152.442 63.6512 152.491 63.6842 152.54C63.7603 152.654 63.8327 152.771 63.9015 152.889C64.0312 153.112 64.1498 153.34 64.2607 153.573C64.3109 153.678 64.3596 153.784 64.4067 153.89C64.4315 153.946 64.4557 154.003 64.48 154.059C64.4255 153.932 64.5114 154.136 64.5259 154.172C64.6854 154.567 64.8293 154.968 64.9577 155.375C65.0224 155.578 65.0853 155.783 65.1393 155.989C65.3256 156.701 66.4303 156.399 66.2434 155.685L66.2433 155.685Z" fill="black"/>
<path d="M55.6293 133.482C55.6293 133.482 51.3401 134.262 47.8213 139.075C47.7371 139.19 47.7426 139.349 47.8348 139.458C47.9269 139.567 48.0819 139.6 48.2101 139.536C49.5396 138.931 50.9923 138.646 52.452 138.702" fill="black"/>
<path d="M55.6293 133.482C55.6293 133.482 51.3401 134.262 47.8213 139.075C47.7371 139.19 47.7426 139.349 47.8348 139.458C47.9269 139.567 48.0819 139.6 48.2101 139.536C49.5396 138.931 50.9923 138.646 52.452 138.702" stroke="black" stroke-width="1.4577"/>
<path d="M81.2748 158.907C81.2748 158.907 76.5088 158.275 74.2393 163.652C78.0974 164.917 81.2748 160.805 81.2748 160.805C81.2748 160.805 85.5868 165.233 88.0834 163.336C86.6069 160.668 86.8122 159.023 81.2748 158.907Z" fill="black"/>
<path d="M81.2752 158.335C80.6299 158.275 79.9792 158.32 79.3481 158.467C77.9236 158.764 76.6194 159.477 75.6016 160.517C74.8116 161.343 74.1822 162.308 73.7455 163.364C73.6604 163.518 73.6495 163.702 73.7159 163.866C73.7823 164.029 73.9189 164.153 74.0876 164.205C76.7509 165.051 79.4036 163.638 81.2183 161.735C81.381 161.568 81.5352 161.393 81.6801 161.21H80.8705C81.4143 161.754 82.0001 162.255 82.6225 162.707C83.6936 163.503 84.9336 164.224 86.2847 164.362C87.0226 164.45 87.7666 164.26 88.3729 163.831C88.6385 163.665 88.7287 163.321 88.5782 163.047C88.0912 162.163 87.7394 161.181 87.1356 160.366C86.441 159.468 85.4412 158.857 84.3259 158.648C83.322 158.443 82.3 158.338 81.2753 158.335C80.5382 158.318 80.5385 159.463 81.2753 159.48C82.109 159.483 82.9411 159.556 83.7626 159.698C84.0733 159.757 84.3796 159.836 84.6794 159.936C84.8996 160.005 85.1109 160.1 85.3086 160.219C85.4058 160.274 85.4987 160.336 85.5912 160.399C85.6219 160.42 85.7095 160.49 85.6331 160.428C85.677 160.464 85.72 160.5 85.7621 160.538C85.8387 160.606 85.912 160.678 85.982 160.753C86.0139 160.788 86.0452 160.823 86.0757 160.858C86.0976 160.884 86.2056 161.02 86.133 160.925C86.3872 161.276 86.6079 161.65 86.7923 162.043C87.056 162.572 87.3044 163.107 87.5895 163.625L87.7949 162.842C87.4037 163.15 86.9053 163.29 86.4108 163.229C85.8677 163.162 85.3406 163 84.8539 162.749C83.8934 162.261 83.0056 161.641 82.2163 160.907C82.0333 160.743 81.8517 160.577 81.6801 160.401C81.4559 160.179 81.0946 160.179 80.8705 160.401C79.3986 162.298 76.8588 163.884 74.3919 163.1L74.734 163.941C75.4011 162.382 76.4223 160.994 77.9291 160.184C78.4249 159.916 78.9563 159.72 79.5074 159.602C79.6253 159.576 79.7439 159.552 79.8631 159.532C79.9228 159.522 79.9826 159.513 80.0425 159.504C80.1097 159.494 80.0014 159.51 79.9984 159.51C80.0402 159.505 80.0819 159.499 80.1237 159.495C80.3106 159.476 80.4978 159.462 80.6857 159.459C80.8825 159.451 81.0795 159.458 81.2753 159.48C81.5908 159.479 81.8462 159.223 81.8477 158.908C81.8401 158.595 81.5882 158.343 81.2752 158.335Z" fill="black"/>
<path d="M77.9437 170.657C77.8334 170.681 77.7217 170.7 77.6103 170.719C77.4715 170.742 77.3325 170.762 77.1934 170.782C77.0595 170.801 77.2335 170.777 77.1769 170.784C77.1231 170.791 77.0693 170.798 77.0155 170.805C76.9131 170.817 76.8107 170.829 76.7081 170.84C75.3604 170.979 74.006 171.045 72.6511 171.038C71.9145 171.039 71.9132 172.184 72.6511 172.183C74.0241 172.19 75.3965 172.122 76.7621 171.979C77.2609 171.933 77.7569 171.86 78.2481 171.761C78.9674 171.603 78.663 170.499 77.9437 170.657Z" fill="black"/>
<path d="M74.9376 177.323L74.304 205.986L59.7305 177.262L74.9376 177.323Z" fill="white"/>
<path d="M74.3642 177.323L74.3011 180.175L74.1497 187.025L73.9673 195.278L73.8083 202.469L73.7564 204.818C73.7483 205.185 73.7062 205.569 73.7317 205.936C73.7328 205.953 73.7309 205.97 73.7306 205.986L74.7974 205.697L73.3436 202.832L69.8683 195.982L65.6507 187.669L62.0178 180.509L60.8197 178.147C60.6325 177.778 60.4699 177.374 60.2494 177.023C60.2395 177.007 60.2323 176.989 60.2239 176.973L59.7295 177.834L64.8576 177.855L73.0425 177.887L74.9366 177.895C75.6734 177.898 75.6744 176.753 74.9366 176.75L69.8086 176.73L61.6237 176.697L59.7295 176.689C59.5261 176.693 59.3397 176.803 59.2384 176.98C59.1372 177.156 59.136 177.373 59.2352 177.551L60.689 180.416L64.1643 187.266L68.3818 195.579L72.0147 202.739C72.6012 203.895 73.1359 205.101 73.7831 206.225C73.7925 206.241 73.8002 206.258 73.8087 206.275C74.0755 206.801 74.8635 206.526 74.8755 205.986L74.9385 203.134L75.0899 196.284L75.2724 188.031L75.4313 180.84C75.4568 179.688 75.5337 178.525 75.508 177.373C75.5076 177.356 75.5087 177.339 75.5091 177.323C75.5254 176.585 74.3805 176.586 74.3642 177.323Z" fill="black"/>
<path d="M63.1463 183.68L70.0791 181.901V178.153L63.1463 176.374C62.4316 176.128 61.6421 176.242 61.0266 176.681C60.4112 177.12 60.0459 177.829 60.0459 178.585V181.469C60.0459 182.225 60.4112 182.934 61.0267 183.373C61.6421 183.812 62.4317 183.926 63.1463 183.68Z" fill="black"/>
<path d="M63.2991 184.231L69.3642 182.675L70.232 182.452C70.4784 182.381 70.6491 182.157 70.6522 181.9V178.152C70.649 177.896 70.4783 177.672 70.232 177.6L63.8483 175.962C63.4746 175.849 63.0939 175.759 62.7086 175.695C61.6521 175.581 60.6167 176.047 60.002 176.914C59.5602 177.524 59.4741 178.226 59.4741 178.953V180.956C59.4741 181.765 59.5431 182.53 60.0527 183.205C60.8061 184.203 62.1089 184.615 63.2992 184.231C63.9973 184.006 63.6987 182.9 62.9948 183.127C62.231 183.399 61.3797 183.125 60.9194 182.457C60.6096 181.988 60.6191 181.49 60.6191 180.956V179.097C60.6191 178.562 60.6088 178.065 60.9194 177.596C61.3901 176.884 62.2165 176.709 62.9948 176.925C63.2141 176.986 63.4361 177.039 63.6565 177.095L67.1814 178L69.9278 178.704L69.5075 178.152V181.901L69.9278 181.348L63.8627 182.905L62.9949 183.127C62.2816 183.31 62.5839 184.415 63.2991 184.231Z" fill="black"/>
<path d="M77.5397 183.68L70.6069 181.901V178.153L77.5397 176.374C78.2544 176.128 79.0439 176.242 79.6594 176.681C80.2748 177.12 80.6401 177.829 80.6401 178.585V181.469C80.6401 182.225 80.2748 182.934 79.6594 183.373C79.0439 183.812 78.2544 183.926 77.5397 183.68Z" fill="black"/>
<path d="M77.6917 183.127L71.6266 181.571L70.7589 181.348L71.1791 181.9V178.152L70.7589 178.704L76.6899 177.182C77.5811 176.953 78.5522 176.549 79.378 177.18C79.8502 177.563 80.1072 178.151 80.0674 178.757V180.502C80.0674 181.047 80.1455 181.681 79.9185 182.191C79.5279 183.03 78.5643 183.435 77.6917 183.127C76.989 182.9 76.688 184.005 77.3873 184.231C78.4129 184.563 79.5376 184.308 80.3198 183.566C80.9187 182.972 81.2422 182.154 81.2123 181.311V179.4C81.2123 178.798 81.2528 178.182 81.0432 177.607C80.6774 176.6 79.7918 175.872 78.7328 175.708C78.1838 175.659 77.6303 175.722 77.1064 175.893L73.5748 176.799L70.4545 177.6C70.208 177.671 70.0373 177.896 70.0342 178.152V181.9C70.0375 182.157 70.2081 182.381 70.4545 182.452L76.5195 184.009L77.3873 184.231C78.1014 184.414 78.406 183.31 77.6917 183.127Z" fill="black"/>
<rect x="68.812" y="176.206" width="3.59056" height="7.60353" rx="1.79528" fill="black" stroke="black" stroke-width="1.4577"/>
<path d="M70.7129 183.81L75.1483 211.689L70.7129 183.81Z" fill="white"/>
<path d="M70.1613 183.961L70.6037 186.741L71.6607 193.385L72.9442 201.453L74.0496 208.401L74.4145 210.695C74.4721 211.058 74.5051 211.436 74.5892 211.793C74.5929 211.809 74.5943 211.825 74.5968 211.841C74.6827 212.144 74.9965 212.322 75.3011 212.24C75.6011 212.15 75.7771 211.84 75.7009 211.536L75.2584 208.756L74.2015 202.112L72.918 194.044L71.8126 187.096L71.4476 184.802C71.39 184.44 71.3571 184.061 71.2729 183.704C71.2693 183.688 71.2679 183.672 71.2654 183.657C71.1795 183.353 70.8657 183.175 70.5611 183.257C70.2611 183.347 70.0851 183.657 70.1613 183.961L70.1613 183.961Z" fill="black"/>
<path d="M266.511 99.2837V184.306H191.87V81.2303H266.479L266.511 99.2837Z" fill="white"/>
<path d="M265.937 99.2837V180.842C265.937 181.936 265.847 183.073 265.937 184.164C265.941 184.211 265.937 184.259 265.937 184.306L266.51 183.734H194.904C193.95 183.734 192.946 183.643 191.995 183.734C191.954 183.738 191.91 183.734 191.869 183.734L192.441 184.306V85.4145C192.441 84.0883 192.527 82.7298 192.441 81.4056C192.438 81.3477 192.441 81.2884 192.441 81.2303L191.869 81.8028H263.439C264.394 81.8028 265.4 81.8937 266.352 81.8028C266.393 81.7988 266.437 81.8028 266.478 81.8028L265.906 81.2303L265.916 87.3194L265.933 97.0369L265.937 99.2837C265.938 100.02 267.083 100.022 267.082 99.2837L267.071 93.1946L267.055 83.4771L267.051 81.2303C267.046 80.916 266.793 80.6624 266.478 80.6578H194.908C193.938 80.6578 192.964 80.6306 191.995 80.6578C191.953 80.659 191.911 80.6578 191.869 80.6578C191.555 80.6623 191.301 80.916 191.297 81.2303V180.122C191.297 181.458 191.271 182.796 191.297 184.131C191.298 184.19 191.297 184.248 191.297 184.307C191.301 184.621 191.555 184.875 191.869 184.879H263.475C264.443 184.879 265.416 184.906 266.384 184.879C266.426 184.878 266.468 184.879 266.51 184.879C266.824 184.875 267.078 184.621 267.082 184.307V102.748C267.082 101.642 267.109 100.532 267.082 99.4263C267.081 99.3788 267.082 99.3312 267.082 99.2837C267.082 98.547 265.937 98.5458 265.937 99.2837Z" fill="black"/>
<path d="M258.877 106.726V191.749H184.236V88.6729H258.846L258.877 106.726Z" fill="white"/>
<path d="M258.304 106.726V188.285C258.304 189.379 258.214 190.516 258.304 191.607C258.308 191.653 258.304 191.702 258.304 191.749L258.877 191.177H187.271C186.317 191.177 185.313 191.086 184.362 191.177C184.321 191.181 184.278 191.177 184.236 191.177L184.809 191.749V92.8571C184.809 91.5309 184.894 90.1725 184.809 88.8482C184.805 88.7903 184.809 88.731 184.809 88.6728L184.236 89.2453H255.807C256.762 89.2453 257.767 89.3362 258.719 89.2453C258.76 89.2413 258.804 89.2453 258.845 89.2453L258.273 88.6728L258.283 94.762L258.3 104.479L258.304 106.726C258.305 107.463 259.45 107.464 259.449 106.726L259.439 100.637L259.422 90.9196L259.418 88.6728C259.413 88.3585 259.16 88.1049 258.845 88.1004H187.275C186.306 88.1004 185.332 88.0731 184.362 88.1004C184.32 88.1015 184.278 88.1004 184.236 88.1004C183.922 88.1048 183.668 88.3585 183.664 88.6728V187.565C183.664 188.9 183.638 190.239 183.664 191.574C183.665 191.632 183.664 191.691 183.664 191.749C183.668 192.063 183.922 192.317 184.236 192.322H255.842C256.81 192.322 257.783 192.349 258.751 192.322C258.793 192.32 258.835 192.322 258.877 192.322C259.191 192.317 259.445 192.063 259.449 191.749V110.19C259.449 109.084 259.476 107.975 259.449 106.869C259.448 106.821 259.449 106.774 259.449 106.726C259.449 105.99 258.304 105.988 258.304 106.726Z" fill="black"/>
<path d="M157.309 230.909L174.026 226.645C176.653 225.975 179.389 225.846 182.067 226.267C188.787 227.323 198.917 226.685 207.154 217.814L210.35 209.653C211.151 208.817 211.363 207.578 210.886 206.524C210.409 205.469 209.338 204.812 208.181 204.863L198.106 205.308C196.463 205.38 194.847 205.749 193.336 206.397L184.624 210.131L182.607 208.837C179.143 206.613 174.979 205.748 170.916 206.405L153.929 209.155L149.917 221.405L157.309 230.909Z" fill="#D08B5B"/>
<path d="M157.461 231.461L165.377 229.442C168.287 228.699 171.198 227.957 174.108 227.214C175.452 226.869 176.828 226.666 178.214 226.611C179.211 226.573 180.209 226.611 181.2 226.722C181.848 226.795 182.491 226.909 183.138 226.988C185.543 227.288 187.976 227.297 190.384 227.018C196.554 226.328 202.303 223.546 206.673 219.135C207.042 218.769 207.54 218.384 207.734 217.895C207.812 217.701 207.887 217.505 207.964 217.31L208.868 214.999L210.786 210.1L210.902 209.804L210.755 210.057C211.736 209.042 211.988 207.527 211.391 206.249C210.793 204.97 209.468 204.193 208.061 204.295C206.098 204.379 204.135 204.466 202.172 204.555L199.016 204.694C198.101 204.717 197.189 204.797 196.284 204.932C194.07 205.306 192.013 206.345 189.964 207.224C188.127 208.011 186.259 208.747 184.447 209.589C184.41 209.606 184.373 209.62 184.336 209.636H184.914C184.241 209.205 183.569 208.773 182.897 208.342C181.167 207.236 179.254 206.447 177.248 206.011C175.208 205.576 173.107 205.508 171.044 205.81C170.676 205.863 170.31 205.926 169.943 205.986L164.536 206.861L157.721 207.964L155.133 208.383C154.704 208.452 154.261 208.497 153.836 208.593C153.817 208.597 153.797 208.599 153.778 208.602C153.583 208.655 153.431 208.807 153.378 209.002L152.08 212.966L149.947 219.476C149.763 220.037 149.562 220.595 149.395 221.161C149.32 221.396 149.373 221.653 149.535 221.839C149.648 221.985 149.762 222.13 149.875 222.276L153.669 227.154L155.719 229.79C156.095 230.272 156.452 230.778 156.849 231.243C156.869 231.265 156.886 231.29 156.905 231.314C157.129 231.535 157.49 231.535 157.714 231.314C157.93 231.087 157.93 230.731 157.714 230.504L155.223 227.302L151.245 222.187L150.322 221L150.469 221.557L151.825 217.417L153.986 210.819L154.482 209.306L154.082 209.706L158.419 209.004L166.53 207.691C168.041 207.447 169.551 207.198 171.063 206.958C173.294 206.606 175.574 206.726 177.756 207.311C179.603 207.844 181.356 208.662 182.951 209.736C183.405 210.028 183.852 210.364 184.328 210.62C184.65 210.792 184.969 210.601 185.269 210.473L188.259 209.191L191.961 207.604C192.653 207.307 193.341 206.99 194.046 206.724C195.497 206.196 197.024 205.904 198.568 205.859L201.791 205.717C203.913 205.623 206.035 205.511 208.158 205.436C208.804 205.401 209.434 205.641 209.894 206.096C210.353 206.551 210.599 207.18 210.57 207.826C210.554 208.165 210.456 208.496 210.286 208.791C210.104 209.024 209.937 209.269 209.788 209.525C209.684 209.783 209.585 210.043 209.484 210.302L206.82 217.107L206.603 217.662L206.75 217.409C203.31 221.099 198.992 223.85 194.104 225.155C190.332 226.13 186.402 226.338 182.548 225.764C181.116 225.532 179.665 225.432 178.214 225.466C176.749 225.522 175.294 225.732 173.872 226.093C173.316 226.233 172.76 226.376 172.204 226.518L163.661 228.698C161.53 229.241 159.382 229.741 157.263 230.33C157.228 230.34 157.192 230.348 157.157 230.357C156.444 230.539 156.746 231.643 157.461 231.461Z" fill="black"/>
<path d="M52.9773 177.262C47.4134 177.262 42.3328 180.423 39.8744 185.414L38.0458 189.127C33.1744 199.017 33.4602 213.214 40.9967 221.26L59.23 240.727C72.6516 255.527 82.2583 255.415 93.7351 253.508L150.55 242.948C147.593 239.146 144.766 227.238 144.343 223.418C143.859 219.286 143.681 215.123 143.811 210.964L85.0744 221.629L55.5063 192.258" fill="#458DC9"/>
<path d="M52.9776 176.689C48.2145 176.716 43.7339 178.953 40.8509 182.745C39.8961 184.007 39.2346 185.421 38.5394 186.832C37.8913 188.148 37.2229 189.455 36.6674 190.813C33.2477 199.179 33.1213 209.661 37.6506 217.649C38.7581 219.602 40.2021 221.248 41.7235 222.873L46.9073 228.407L58.1399 240.4C60.4299 242.845 62.724 245.27 65.3138 247.407C68.6761 250.181 72.4358 252.521 76.6258 253.805C82.3397 255.557 88.4321 255.074 94.2282 253.997L104.062 252.169L121.908 248.852L139.824 245.522L150.215 243.59L150.703 243.5C150.874 243.452 151.013 243.327 151.08 243.163C151.147 242.999 151.134 242.812 151.045 242.659C150.022 241.326 149.346 239.726 148.745 238.17C147.983 236.158 147.322 234.11 146.767 232.032C145.695 228.253 144.981 224.381 144.632 220.469C144.356 217.308 144.273 214.134 144.384 210.964C144.381 210.786 144.297 210.62 144.155 210.512C144.014 210.404 143.831 210.367 143.659 210.412L137.81 211.474L123.767 214.024L106.838 217.097L92.1533 219.764L87.3267 220.64C86.5798 220.776 85.7471 220.83 85.0214 221.059C84.9888 221.067 84.9558 221.073 84.9226 221.077L85.4795 221.224L82.541 218.305L75.4834 211.294L66.9432 202.811L59.5574 195.475C58.3694 194.295 57.2299 193 55.9627 191.904C55.9446 191.888 55.9283 191.87 55.9112 191.853C55.3879 191.333 54.5779 192.142 55.1016 192.662L59.339 196.871L68.8494 206.319L78.7985 216.201L84.4746 221.84C84.7011 222.065 84.8552 222.219 85.2293 222.18C85.3451 222.168 85.4619 222.138 85.5764 222.117L87.873 221.7L97.4702 219.958L111.116 217.48L125.534 214.862L137.475 212.694L143.687 211.566L143.964 211.516L143.239 210.964C143.137 213.814 143.195 216.668 143.414 219.512C143.54 221.646 143.787 223.772 144.155 225.878C144.907 229.989 146.008 234.029 147.444 237.953C148.12 239.772 148.865 241.684 150.056 243.237L150.399 242.396L143.254 243.724L126.779 246.786L108.411 250.2L95.5901 252.583C91.4921 253.345 87.3418 254.006 83.1595 253.788C79.4484 253.592 75.8221 252.605 72.5244 250.891C68.0771 248.588 64.2587 245.227 60.8314 241.613C57.7551 238.369 54.7244 235.079 51.6681 231.816L41.5934 221.06C36.0351 215.125 34.5403 206.415 35.7328 198.578C36.0708 196.331 36.6391 194.125 37.4289 191.995C37.9853 190.585 38.6125 189.203 39.3083 187.857C39.9517 186.55 40.5473 185.198 41.3635 183.987C43.9762 180.139 48.3258 177.834 52.9775 177.834C53.714 177.83 53.7156 176.685 52.9775 176.689H52.9776Z" fill="black"/>
<path d="M146.068 233.775C147.384 239.412 149.033 243.087 150.434 242.932C151.916 242.768 152.732 238.366 152.693 232.031L146.068 233.775Z" fill="black"/>
<path d="M145.516 233.927C145.964 235.984 146.577 238 147.351 239.958C147.822 241.095 148.383 242.455 149.427 243.193C150.261 243.783 151.162 243.444 151.712 242.667C152.429 241.653 152.658 240.255 152.843 239.057C153.168 236.73 153.31 234.38 153.266 232.031C153.263 231.853 153.179 231.686 153.038 231.579C152.896 231.471 152.713 231.434 152.541 231.479L146.757 233.001L145.916 233.223C145.204 233.41 145.506 234.515 146.221 234.327L152.005 232.804L152.846 232.583L152.121 232.031C152.149 234.013 152.057 235.996 151.844 237.967C151.764 238.68 151.644 239.388 151.486 240.087C151.416 240.386 151.338 240.682 151.244 240.974C151.204 241.098 151.161 241.221 151.114 241.342C151.084 241.433 151.046 241.521 151.002 241.605C150.916 241.787 150.815 241.96 150.699 242.123C150.782 242.007 150.636 242.189 150.599 242.228C150.57 242.258 150.538 242.284 150.507 242.311C150.582 242.244 150.566 242.273 150.502 242.309C150.47 242.327 150.436 242.344 150.405 242.362C150.464 242.327 150.512 242.33 150.428 242.349C150.399 242.355 150.37 242.362 150.341 242.371C150.444 242.336 150.423 242.342 150.341 242.364C150.266 242.383 150.28 242.351 150.367 242.373C150.33 242.364 150.292 242.356 150.256 242.347C150.233 242.342 150.127 242.298 150.212 242.334C150.299 242.372 150.155 242.302 150.135 242.29C150.102 242.269 150.07 242.248 150.038 242.227C149.943 242.167 150.049 242.24 150.023 242.217C149.942 242.148 149.865 242.075 149.792 241.999C149.642 241.845 149.51 241.675 149.4 241.491C149.055 240.951 148.759 240.383 148.513 239.791C147.661 237.82 147.109 235.708 146.62 233.622C146.452 232.905 145.348 233.209 145.516 233.927Z" fill="black"/>
<path d="M153.969 209.12L149.794 209.878L143.811 210.964C143.681 215.123 143.859 219.286 144.344 223.418C144.716 226.901 145.292 230.359 146.069 233.775L152.694 232.031L157.323 230.813L155.578 223.929C154.903 221.267 154.488 218.545 154.337 215.803L153.969 209.12Z" fill="white"/>
<path d="M153.816 208.567L145.521 210.073L143.659 210.412C143.412 210.482 143.24 210.707 143.238 210.964C142.986 217.02 143.556 223.148 144.56 229.117C144.831 230.729 145.146 232.334 145.516 233.927C145.604 234.229 145.916 234.406 146.22 234.326L151.09 233.045L154.908 232.04L157.475 231.364C157.776 231.276 157.953 230.964 157.874 230.66L156.166 223.92C155.528 221.425 155.117 218.877 154.939 216.308C154.864 215.178 154.812 214.046 154.75 212.915L154.541 209.119C154.5 208.387 153.355 208.382 153.396 209.119C153.518 211.341 153.64 213.563 153.763 215.785C153.918 218.589 154.342 221.371 155.029 224.093C155.304 225.184 155.581 226.274 155.858 227.364L156.77 230.964L157.17 230.26L152.581 231.468L148.02 232.669L145.916 233.222L146.62 233.622C145.258 227.664 144.5 221.583 144.358 215.473C144.318 213.97 144.321 212.466 144.383 210.963L143.963 211.515L151.842 210.085L154.121 209.671C154.424 209.585 154.602 209.272 154.52 208.967C154.431 208.667 154.12 208.49 153.816 208.567Z" fill="black"/>
<ellipse cx="211.167" cy="206.937" rx="57.4489" ry="12.567" fill="#FFC41F"/>
<path d="M268.043 206.936C268.018 207.588 267.775 208.212 267.352 208.709C266.774 209.394 266.092 209.984 265.33 210.458C262.953 212.002 260.2 212.958 257.502 213.769C248.814 216.382 239.643 217.481 230.627 218.191C218.99 219.097 207.304 219.189 195.654 218.467C186.137 217.885 176.509 216.864 167.262 214.45C164.258 213.665 161.224 212.742 158.46 211.302C157.508 210.831 156.616 210.248 155.805 209.563C155.222 209.047 154.671 208.403 154.456 207.803C154.219 207.231 154.225 206.588 154.474 206.022C154.7 205.431 155.266 204.779 155.857 204.264C157.725 202.638 160.199 201.67 162.505 200.859C166.095 199.644 169.77 198.698 173.5 198.028C178.226 197.123 183.003 196.493 187.791 196.026C199.329 194.931 210.93 194.651 222.507 195.186C232.481 195.623 242.538 196.544 252.292 198.748C255.619 199.499 258.963 200.391 262.106 201.737C263.965 202.533 266.203 203.613 267.387 205.21C267.582 205.477 267.747 205.766 267.878 206.07C267.993 206.344 268.05 206.639 268.043 206.936C268.049 207.673 269.194 207.674 269.188 206.936C269.172 205.069 267.697 203.662 266.27 202.669C263.923 201.035 261.12 200.031 258.411 199.184C254.477 197.998 250.468 197.079 246.41 196.433C241.348 195.578 236.241 194.99 231.124 194.576C219.186 193.621 207.196 193.524 195.244 194.286C185.567 194.895 175.748 195.944 166.364 198.476C163.312 199.3 160.222 200.282 157.444 201.817C155.797 202.727 153.94 203.984 153.318 205.862C152.768 207.524 153.643 209.119 154.844 210.236C156.709 211.968 159.195 213.014 161.55 213.884C165.12 215.202 168.846 216.093 172.575 216.828C177.382 217.775 182.247 218.433 187.121 218.925C198.985 220.088 210.917 220.386 222.824 219.817C232.984 219.359 243.246 218.405 253.17 216.097C256.551 215.311 259.93 214.362 263.105 212.94C265.072 212.059 267.228 210.928 268.475 209.099C268.922 208.465 269.17 207.712 269.188 206.936C269.194 206.199 268.05 206.199 268.043 206.936Z" fill="black"/>
<ellipse cx="211.167" cy="206.382" rx="45.6212" ry="7.57714" fill="#FFC41F"/>
<path d="M256.216 206.382C256.215 206.432 256.211 206.482 256.207 206.532C256.222 206.332 256.211 206.508 256.194 206.557C256.178 206.606 256.164 206.656 256.148 206.705C256.119 206.792 256.167 206.663 256.17 206.656C256.155 206.691 256.139 206.726 256.12 206.759C256.064 206.853 256.01 206.946 255.945 207.035C256.046 206.895 255.922 207.061 255.893 207.092C255.839 207.15 255.786 207.208 255.729 207.264C255.539 207.459 255.324 207.627 255.09 207.764C254.777 207.966 254.453 208.148 254.119 208.31C252.22 209.247 250.028 209.804 247.932 210.283C240.961 211.875 233.757 212.514 226.633 212.941C217.389 213.487 208.123 213.543 198.874 213.109C191.345 212.76 183.759 212.163 176.356 210.698C173.966 210.225 171.556 209.673 169.283 208.78C168.555 208.505 167.858 208.156 167.202 207.737C166.971 207.599 166.761 207.43 166.576 207.235C166.529 207.189 166.485 207.14 166.441 207.092C166.415 207.065 166.287 206.894 166.389 207.035C166.319 206.937 166.256 206.835 166.199 206.73C166.12 206.589 166.209 206.776 166.186 206.705C166.17 206.656 166.156 206.606 166.139 206.557C166.122 206.504 166.112 206.336 166.127 206.532C166.122 206.472 166.12 206.413 166.119 206.353C166.118 206.322 166.136 206.169 166.121 206.28C166.105 206.393 166.136 206.221 166.143 206.193C166.155 206.148 166.171 206.104 166.186 206.06C166.222 205.949 166.124 206.185 166.177 206.079C166.192 206.05 166.204 206.019 166.221 205.991C166.25 205.943 166.279 205.894 166.308 205.846C166.33 205.808 166.45 205.655 166.344 205.788C166.425 205.687 166.512 205.591 166.605 205.501C166.708 205.401 166.817 205.307 166.93 205.218C166.825 205.301 167.011 205.16 167.039 205.139C167.107 205.092 167.175 205.045 167.244 205C168.827 203.967 170.704 203.433 172.533 202.943C179.063 201.196 185.911 200.526 192.633 200.029C201.803 199.37 211.003 199.202 220.191 199.526C228.06 199.788 235.973 200.327 243.742 201.656C246.408 202.074 249.041 202.683 251.621 203.477C252.496 203.747 253.349 204.083 254.173 204.482C254.511 204.648 254.838 204.835 255.152 205.042C255.213 205.083 255.273 205.125 255.333 205.167C255.372 205.194 255.409 205.223 255.447 205.251C255.431 205.239 255.358 205.18 255.439 205.246C255.56 205.344 255.676 205.448 255.786 205.558C255.827 205.6 255.866 205.644 255.906 205.687C255.974 205.76 256 205.808 255.955 205.744C256.018 205.833 256.075 205.926 256.128 206.021C256.208 206.163 256.135 206.021 256.148 206.06C256.164 206.109 256.178 206.159 256.194 206.207C256.21 206.254 256.234 206.438 256.207 206.233C256.213 206.283 256.216 206.333 256.215 206.383C256.224 207.119 257.369 207.121 257.36 206.383C257.345 205.051 256.038 204.171 254.987 203.615C253.042 202.585 250.852 201.997 248.722 201.491C241.638 199.81 234.283 199.15 227.032 198.704C217.546 198.126 208.036 198.067 198.543 198.527C190.847 198.894 183.079 199.517 175.521 201.07C173.153 201.556 170.765 202.126 168.531 203.064C167.312 203.575 165.744 204.275 165.163 205.56C164.602 206.801 165.447 207.883 166.422 208.586C167.957 209.693 169.909 210.277 171.707 210.783C174.601 211.562 177.541 212.159 180.51 212.569C184.378 213.147 188.272 213.549 192.171 213.846C201.579 214.542 211.018 214.719 220.446 214.375C228.487 214.099 236.575 213.53 244.508 212.133C247.189 211.706 249.832 211.069 252.414 210.229C253.889 209.722 255.654 209.1 256.715 207.887C257.105 207.48 257.334 206.946 257.361 206.383C257.369 205.645 256.224 205.645 256.216 206.382Z" fill="black"/>
<path d="M251.297 206.62L260.801 200.495C260.801 200.495 248.604 196.824 238.202 196.693C233.66 199.388 251.297 206.62 251.297 206.62Z" fill="black" stroke="black" stroke-width="1.4577"/>
<path d="M251.297 114.988V206.652H170.826V95.5243H232.262L251.297 114.988Z" fill="white"/>
<path d="M250.725 114.987V202.916C250.725 204.093 250.622 205.323 250.725 206.497C250.729 206.547 250.725 206.6 250.725 206.651L251.297 206.078H174.098C173.072 206.078 171.985 205.975 170.962 206.078C170.918 206.083 170.871 206.078 170.826 206.078L171.399 206.651V100.034C171.399 98.6058 171.496 97.1384 171.399 95.7123C171.395 95.6499 171.399 95.5859 171.399 95.5233L170.826 96.0958H229.754C230.53 96.0958 231.386 96.1979 232.157 96.0958C232.192 96.0935 232.227 96.0935 232.262 96.0958L231.857 95.9281L238.32 102.536L248.532 112.978L250.892 115.392C251.408 115.919 252.218 115.11 251.702 114.582L247.119 109.896L238.365 100.944C236.503 99.0405 234.683 97.0805 232.772 95.2256C232.486 94.9487 232.222 94.9507 231.858 94.9507H175.861C174.254 94.9507 172.645 94.9281 171.039 94.9507C170.968 94.9517 170.897 94.9507 170.826 94.9507C170.512 94.9552 170.258 95.2089 170.254 95.5232V202.14C170.254 203.579 170.226 205.022 170.254 206.462C170.255 206.525 170.254 206.588 170.254 206.651C170.258 206.965 170.512 207.219 170.826 207.223H248.025C249.069 207.223 250.118 207.253 251.161 207.223C251.206 207.222 251.252 207.223 251.297 207.223C251.611 207.219 251.865 206.965 251.87 206.651V118.722C251.87 117.529 251.899 116.333 251.87 115.141C251.868 115.089 251.87 115.038 251.87 114.987C251.87 114.25 250.725 114.249 250.725 114.987Z" fill="black"/>
<path d="M164.878 94.2566C164.878 94.2566 172.438 101.576 161.047 107.324C154.564 109.875 154.007 99.0848 159.934 95.5414" fill="#D08B5B"/>
<path d="M164.474 94.6608C164.687 94.8765 164.887 95.1045 165.073 95.3437C165.126 95.4094 165.097 95.3746 165.057 95.3228C165.079 95.352 165.102 95.3809 165.124 95.4103C165.173 95.4771 165.223 95.5438 165.271 95.6117C165.37 95.7507 165.466 95.8922 165.558 96.0362C165.773 96.3707 165.966 96.7187 166.136 97.0779C166.177 97.1664 166.218 97.2556 166.256 97.3454C166.203 97.2227 166.266 97.3709 166.278 97.3999C166.3 97.4578 166.323 97.5156 166.345 97.5738C166.426 97.7904 166.497 98.0104 166.557 98.2336C166.618 98.4565 166.667 98.6823 166.704 98.9102C166.708 98.9364 166.731 99.0952 166.723 99.034C166.715 98.9734 166.734 99.1396 166.736 99.1603C166.748 99.2801 166.756 99.4003 166.761 99.5207C166.803 100.566 166.539 101.6 166 102.496C165.232 103.816 164.035 104.845 162.772 105.675C162.01 106.175 161.19 106.721 160.307 106.972C159.821 107.132 159.306 107.18 158.799 107.112C158.921 107.128 158.755 107.103 158.726 107.097C158.67 107.085 158.613 107.073 158.557 107.059C158.44 107.029 158.325 106.991 158.212 106.947C158.151 106.924 158.233 106.957 158.24 106.959C158.211 106.947 158.182 106.934 158.154 106.92C158.112 106.898 158.07 106.878 158.029 106.855C157.927 106.799 157.828 106.736 157.733 106.669C157.627 106.595 157.757 106.694 157.683 106.63C157.642 106.595 157.6 106.559 157.56 106.522C157.48 106.447 157.403 106.368 157.331 106.286C157.294 106.244 157.258 106.201 157.224 106.157C157.293 106.245 157.205 106.13 157.184 106.099C157.115 105.998 157.049 105.894 156.988 105.787C156.934 105.692 156.885 105.595 156.838 105.496C156.825 105.468 156.764 105.326 156.803 105.421C156.777 105.357 156.752 105.292 156.728 105.226C156.643 104.989 156.574 104.745 156.521 104.498C156.494 104.37 156.471 104.241 156.451 104.111C156.45 104.109 156.437 104.016 156.445 104.074C156.454 104.14 156.439 104.021 156.437 104.008C156.428 103.931 156.421 103.853 156.414 103.776C156.392 103.498 156.384 103.219 156.391 102.94C156.45 100.467 157.571 98.1396 159.469 96.5532C159.709 96.3647 159.961 96.1917 160.223 96.0353C160.853 95.6547 160.278 94.6642 159.645 95.0467C157.179 96.5369 155.67 99.2212 155.314 102.042C155.049 104.15 155.506 106.987 157.683 107.957C158.87 108.486 160.298 108.325 161.446 107.763C163.179 106.913 164.899 105.754 166.143 104.261C167.029 103.25 167.616 102.012 167.836 100.686C167.986 99.6036 167.878 98.5015 167.52 97.4694C167.073 96.1289 166.325 94.9085 165.333 93.9014C165.316 93.885 165.3 93.8677 165.283 93.8513C164.755 93.3379 163.944 94.1466 164.474 94.6609L164.474 94.6608Z" fill="black"/>
<path d="M159.057 135.004L162.164 122.395L159.747 105.687C159.747 105.687 152.52 95.7192 162.329 92.6723C166.805 91.2821 164.584 89.13 160.239 88.2015C158.619 87.8648 156.966 87.7151 155.312 87.7553C149.298 87.8899 142.513 90.4978 141.796 98.5495C141.453 102.406 142.714 106.967 142.439 109.454C142.085 112.65 141.373 115.796 140.316 118.833L138.763 123.294" fill="#D08B5B"/>
<path d="M159.609 135.156L161.45 127.683L162.509 123.389C162.577 123.113 162.659 122.836 162.714 122.557C162.733 122.326 162.716 122.093 162.662 121.868L161.428 113.338L160.714 108.405C160.581 107.485 160.481 106.554 160.314 105.639C160.286 105.501 160.228 105.37 160.143 105.256C159.941 104.96 159.752 104.653 159.571 104.343C159.27 103.825 158.996 103.291 158.75 102.745C158.717 102.67 158.684 102.595 158.652 102.52C158.586 102.368 158.695 102.627 158.632 102.473C158.619 102.442 158.606 102.411 158.593 102.379C158.522 102.204 158.454 102.028 158.39 101.85C158.262 101.499 158.149 101.142 158.054 100.78C157.956 100.41 157.878 100.035 157.822 99.6559C157.805 99.5407 157.817 99.6202 157.82 99.6446C157.813 99.5901 157.806 99.5354 157.801 99.4807C157.791 99.3895 157.782 99.2982 157.776 99.2067C157.761 99.0056 157.753 98.8039 157.754 98.6023C157.751 97.8985 157.886 97.2009 158.152 96.5494C158.956 94.7316 160.725 93.7944 162.597 93.1872C163.589 92.8656 165.002 92.3471 165.306 91.2093C165.565 90.2438 164.762 89.4613 164.027 88.9897C162.884 88.2574 161.498 87.871 160.18 87.6055C158.554 87.2808 156.895 87.1395 155.237 87.1842C151.02 87.2929 146.425 88.5868 143.698 92.0163C142.115 94.0081 141.341 96.4536 141.192 98.9764C141.019 101.915 141.674 104.799 141.871 107.717C141.921 109.11 141.804 110.505 141.523 111.871C141.229 113.575 140.833 115.26 140.335 116.916C139.849 118.536 139.26 120.126 138.705 121.723L138.211 123.142C137.968 123.839 139.074 124.139 139.315 123.446C140.197 120.913 141.159 118.39 141.841 115.794C142.197 114.44 142.486 113.072 142.708 111.688C142.931 110.55 143.043 109.393 143.043 108.233C142.96 105.905 142.479 103.607 142.348 101.28C142.226 99.12 142.382 96.8925 143.276 94.892C143.976 93.3122 145.083 91.9464 146.484 90.934C149.4 88.8389 153.161 88.2015 156.683 88.3389C157.962 88.383 159.234 88.5516 160.48 88.8422C161.526 89.053 162.529 89.437 163.449 89.9785C163.592 90.0662 163.727 90.1677 163.851 90.2814C163.91 90.3358 163.966 90.3929 164.02 90.4519C164.029 90.4624 164.091 90.5364 164.037 90.4655C164.063 90.5005 164.088 90.5368 164.111 90.5742C164.127 90.6001 164.203 90.7537 164.183 90.7031C164.164 90.6521 164.213 90.819 164.218 90.8554C164.199 90.7263 164.209 90.8759 164.205 90.9245C164.219 90.762 164.162 91.0261 164.185 90.969C164.139 91.0647 164.075 91.1503 163.996 91.2207C163.87 91.3423 163.729 91.4471 163.576 91.5323C163.09 91.8003 162.574 92.012 162.04 92.1633C160.367 92.7029 158.77 93.5747 157.716 95.0177C156.946 96.1229 156.558 97.4491 156.611 98.7949C156.657 101.054 157.583 103.272 158.738 105.183C158.875 105.409 159.017 105.634 159.166 105.852C159.179 105.871 159.226 105.966 159.249 105.971C159.179 105.955 159.204 105.76 159.204 105.903C159.22 106.119 159.252 106.334 159.297 106.546L159.474 107.771L160.632 115.771L161.562 122.203L161.612 122.547V122.243L160.566 126.487L158.889 133.292L158.505 134.851C158.328 135.567 159.432 135.872 159.609 135.156L159.609 135.156Z" fill="black"/>
<path d="M155.396 96.2236C160.581 85.4788 175.243 89.2545 175.243 89.2545C179.976 88.9661 178.715 94.9651 173.186 95.0092C167.657 95.0532 162.658 95.2603 160.703 101.627C158.749 107.994 166.694 107.422 171.795 106.629C177.13 105.8 177.765 110.349 172.023 112.505C171.336 112.763 170.665 113.059 170.011 113.393C166.409 115.258 163.663 118.437 162.34 122.272L159.057 135.005" fill="#D08B5B"/>
<path d="M155.89 96.5117C156.748 94.6945 158.043 93.1183 159.659 91.9237C161.108 90.8985 162.74 90.1618 164.467 89.7537C166.061 89.3637 167.697 89.1721 169.338 89.1831C170.06 89.18 170.781 89.2068 171.502 89.2635C171.818 89.288 172.134 89.3179 172.449 89.3534C172.579 89.368 172.709 89.3835 172.839 89.4C172.873 89.4043 173.108 89.4359 172.935 89.412C173.007 89.422 173.079 89.4321 173.151 89.4424C173.788 89.5342 174.413 89.6624 175.042 89.7936C175.23 89.8199 175.42 89.8275 175.61 89.8162C175.99 89.806 176.369 89.8744 176.722 90.0171C176.627 89.9793 176.814 90.063 176.844 90.079C176.909 90.114 176.971 90.1536 177.033 90.1931C177.165 90.276 177.03 90.1695 177.14 90.2769C177.205 90.3404 177.268 90.4027 177.327 90.472C177.243 90.374 177.356 90.515 177.379 90.5523C177.414 90.6078 177.444 90.6656 177.474 90.7234C177.542 90.8513 177.438 90.6094 177.485 90.7462C177.494 90.7735 177.505 90.8004 177.513 90.8283C177.535 90.9058 177.553 90.983 177.573 91.0613C177.603 91.1824 177.578 90.9993 177.584 91.151C177.587 91.2265 177.591 91.3015 177.589 91.3772C177.587 91.4542 177.581 91.5314 177.571 91.6078C177.589 91.4659 177.546 91.7182 177.535 91.76C177.518 91.8314 177.498 91.9021 177.475 91.972C177.463 92.0063 177.379 92.2201 177.423 92.1179C177.352 92.2791 177.269 92.4345 177.173 92.5825C177.124 92.6597 177.071 92.7358 177.016 92.8087C177.072 92.7354 176.997 92.831 176.983 92.8478C176.952 92.8845 176.921 92.9208 176.889 92.9565C176.756 93.1037 176.613 93.242 176.462 93.3704C176.142 93.6264 175.791 93.8386 175.416 94.0016C174.482 94.4078 173.446 94.4301 172.42 94.4437C171.325 94.4582 170.228 94.4882 169.138 94.5971C167.155 94.7951 165.117 95.2453 163.484 96.4491C161.645 97.8038 160.429 99.9568 159.969 102.178C159.752 103.045 159.783 103.955 160.059 104.805C160.339 105.534 160.845 106.155 161.502 106.576C162.954 107.536 164.888 107.675 166.578 107.674C167.555 107.669 168.532 107.612 169.503 107.504C170.468 107.402 171.427 107.211 172.393 107.128C172.876 107.079 173.364 107.091 173.844 107.165C174.215 107.218 174.571 107.348 174.889 107.548C174.933 107.576 174.976 107.605 175.018 107.637C175 107.623 174.941 107.571 175.022 107.642C175.084 107.697 175.141 107.755 175.199 107.813C175.222 107.835 175.242 107.861 175.262 107.885C175.187 107.796 175.255 107.875 175.272 107.901C175.319 107.971 175.361 108.044 175.4 108.12C175.468 108.25 175.375 108.045 175.406 108.13C175.419 108.165 175.432 108.201 175.442 108.238C175.464 108.311 175.481 108.385 175.494 108.461C175.471 108.326 175.495 108.518 175.496 108.564C175.498 108.652 175.494 108.741 175.483 108.828C175.499 108.697 175.458 108.935 175.448 108.973C175.429 109.049 175.404 109.125 175.378 109.199C175.365 109.25 175.344 109.299 175.317 109.343C175.263 109.449 175.208 109.552 175.145 109.652C174.906 110.014 174.613 110.338 174.276 110.611C173.278 111.457 172.043 111.852 170.862 112.362C168.349 113.432 166.144 115.115 164.45 117.257C163.62 118.31 162.92 119.459 162.366 120.681C162.105 121.223 161.89 121.787 161.724 122.366L160.888 125.609L158.655 134.269L158.505 134.851C158.321 135.565 159.425 135.87 159.609 135.156L161.421 128.127L162.555 123.731L162.853 122.576C163.06 121.868 163.344 121.185 163.7 120.539C164.892 118.183 166.675 116.176 168.875 114.715C169.45 114.339 170.05 114.001 170.669 113.703C171.399 113.349 172.161 113.084 172.903 112.759C173.97 112.327 174.926 111.661 175.701 110.811C176.236 110.181 176.668 109.391 176.641 108.54C176.606 107.744 176.184 107.015 175.511 106.588C173.832 105.458 171.596 106.124 169.792 106.328C167.935 106.538 165.912 106.674 164.128 106.338C163.383 106.233 162.669 105.967 162.036 105.558C161.917 105.481 161.806 105.39 161.707 105.288C161.362 104.967 161.128 104.545 161.038 104.083C160.998 103.934 160.978 103.78 160.978 103.625C160.967 103.385 160.975 103.145 161.002 102.907C161.076 102.39 161.203 101.883 161.38 101.392C161.722 100.323 162.264 99.3278 162.979 98.4612C164.289 96.9397 166.113 96.2132 168.054 95.8852C169.083 95.7259 170.122 95.636 171.163 95.6161C172.314 95.5782 173.489 95.6573 174.624 95.4336C176.344 95.0945 178.054 93.9706 178.594 92.2293C178.818 91.5435 178.771 90.798 178.463 90.1457C178.096 89.4705 177.458 88.9844 176.71 88.81C176.257 88.6852 175.786 88.6402 175.318 88.6772C175.423 88.6665 175.389 88.6974 175.297 88.6777C175.05 88.6248 174.804 88.5689 174.556 88.5217C171.908 88.0004 169.194 87.8983 166.513 88.2192C162.746 88.7004 159.073 90.222 156.626 93.2284C155.949 94.0608 155.37 94.9686 154.901 95.9339C154.58 96.5937 155.567 97.1749 155.89 96.5117V96.5117Z" fill="black"/>
<path d="M138.723 123.192L136.209 130.681L134.25 136.347C137.542 137.765 141.957 139.21 146.886 140.402C150.391 141.264 153.944 141.913 157.528 142.344L159.057 135.935L160.689 128.684C157.152 128.525 153.626 128.172 150.128 127.628C145.059 126.783 138.723 123.192 138.723 123.192Z" fill="white"/>
<path d="M138.171 123.04L136.242 128.785C135.74 130.283 135.229 131.777 134.71 133.269L133.698 136.194C133.629 136.444 133.737 136.71 133.961 136.841C136.705 138 139.518 138.988 142.383 139.8C145.658 140.749 148.979 141.531 152.333 142.142C154.056 142.455 155.788 142.717 157.528 142.916C157.785 142.916 158.011 142.744 158.08 142.496L159.49 136.585C159.89 134.91 160.252 133.227 160.63 131.547L161.24 128.835C161.284 128.663 161.247 128.481 161.14 128.34C161.032 128.198 160.866 128.114 160.688 128.111C157.704 127.995 154.728 127.726 151.772 127.305C149.84 127.042 147.941 126.583 146.102 125.935C144.502 125.356 142.936 124.69 141.409 123.939C140.6 123.546 139.795 123.141 139.012 122.697C138.37 122.334 137.792 123.323 138.434 123.686C140.574 124.886 142.804 125.921 145.102 126.783C146.907 127.481 148.78 127.987 150.691 128.294C152.838 128.625 155.001 128.859 157.167 129.033C158.339 129.127 159.513 129.21 160.688 129.256L160.136 128.531L158.784 134.54C158.426 136.131 158.043 137.716 157.665 139.302L156.975 142.192L157.528 141.771C154.421 141.4 151.337 140.857 148.291 140.144C145.094 139.421 141.937 138.533 138.832 137.484C137.383 136.99 135.946 136.456 134.539 135.852L134.803 136.498L136.712 130.974C137.302 129.27 137.862 127.554 138.436 125.845L139.275 123.344C139.51 122.644 138.404 122.343 138.171 123.04Z" fill="black"/>
<path d="M251.297 115.167H232.288V95.5243L251.297 115.167Z" fill="#FFC41F"/>
<path d="M251.297 114.594H232.288L232.861 115.167V95.5243L231.883 95.9291L233.777 97.8855L238.322 102.583L243.797 108.24L248.551 113.152C249.318 113.945 250.059 114.78 250.86 115.538C250.871 115.549 250.882 115.561 250.892 115.572C251.406 116.102 252.215 115.292 251.702 114.762L249.809 112.806L245.263 108.108L239.788 102.451L235.035 97.5392C234.268 96.7465 233.526 95.9115 232.725 95.1528C232.714 95.1423 232.704 95.1306 232.693 95.1196C232.527 94.9619 232.284 94.9167 232.073 95.0043C231.861 95.0918 231.722 95.2957 231.716 95.5244V115.167C231.72 115.481 231.974 115.735 232.288 115.739H251.297C252.034 115.739 252.035 114.594 251.297 114.594Z" fill="black"/>
<path d="M77.7096 253.575L78.2943 259.674L78.3775 260.54C78.4123 260.904 78.9851 260.907 78.9499 260.54L78.3651 254.442L78.282 253.575C78.2472 253.212 77.6744 253.208 77.7096 253.575V253.575Z" fill="black"/>
<path d="M193.253 120.094H240.855C241.497 120.094 242.142 120.112 242.784 120.094C242.812 120.093 242.839 120.094 242.867 120.094C243.021 120.089 243.143 119.962 243.143 119.808C243.143 119.654 243.021 119.527 242.867 119.522H195.265C194.622 119.522 193.977 119.504 193.335 119.522C193.308 119.522 193.28 119.522 193.253 119.522C193.099 119.527 192.977 119.654 192.977 119.808C192.977 119.962 193.099 120.089 193.253 120.094Z" fill="black"/>
<path d="M177.033 128.109H240.195C241.048 128.109 241.902 128.125 242.755 128.109C242.792 128.108 242.83 128.109 242.867 128.109C243.021 128.103 243.143 127.977 243.143 127.822C243.143 127.668 243.021 127.542 242.867 127.536H179.705C178.853 127.536 177.998 127.52 177.145 127.536C177.108 127.537 177.07 127.536 177.033 127.536C176.879 127.542 176.757 127.668 176.757 127.822C176.757 127.977 176.879 128.103 177.033 128.109H177.033Z" fill="black"/>
<path d="M177.033 136.124H240.195C241.048 136.124 241.902 136.14 242.755 136.124C242.792 136.123 242.83 136.124 242.867 136.124C243.021 136.118 243.143 135.992 243.143 135.838C243.143 135.684 243.021 135.557 242.867 135.551H179.705C178.853 135.551 177.998 135.535 177.145 135.551C177.108 135.552 177.07 135.551 177.033 135.551C176.879 135.557 176.757 135.684 176.757 135.838C176.757 135.992 176.879 136.118 177.033 136.124H177.033Z" fill="black"/>
<path d="M177.033 144.138H240.195C241.048 144.138 241.902 144.154 242.755 144.138C242.792 144.137 242.83 144.138 242.867 144.138C243.021 144.133 243.143 144.006 243.143 143.852C243.143 143.698 243.021 143.571 242.867 143.566H179.705C178.853 143.566 177.998 143.55 177.145 143.566C177.108 143.566 177.07 143.566 177.033 143.566C176.879 143.571 176.757 143.698 176.757 143.852C176.757 144.006 176.879 144.133 177.033 144.138H177.033Z" fill="black"/>
<path d="M177.033 152.153H240.195C241.048 152.153 241.902 152.169 242.755 152.153C242.792 152.153 242.83 152.153 242.867 152.153C243.021 152.148 243.143 152.021 243.143 151.867C243.143 151.713 243.021 151.586 242.867 151.581H179.705C178.853 151.581 177.998 151.565 177.145 151.581C177.108 151.582 177.07 151.581 177.033 151.581C176.879 151.586 176.757 151.713 176.757 151.867C176.757 152.021 176.879 152.148 177.033 152.153H177.033Z" fill="black"/>
<path d="M177.033 160.168H240.195C241.048 160.168 241.902 160.184 242.755 160.168C242.792 160.167 242.83 160.168 242.867 160.168C243.021 160.162 243.143 160.035 243.143 159.881C243.143 159.727 243.021 159.601 242.867 159.595H179.705C178.853 159.595 177.998 159.579 177.145 159.595C177.108 159.596 177.07 159.595 177.033 159.595C176.879 159.601 176.757 159.727 176.757 159.881C176.757 160.035 176.879 160.162 177.033 160.168H177.033Z" fill="black"/>
<path d="M177.033 168.182H240.195C241.048 168.182 241.902 168.198 242.755 168.182C242.792 168.181 242.83 168.182 242.867 168.182C243.021 168.176 243.143 168.05 243.143 167.895C243.143 167.741 243.021 167.615 242.867 167.609H179.705C178.853 167.609 177.998 167.593 177.145 167.609C177.108 167.61 177.07 167.609 177.033 167.609C176.879 167.615 176.757 167.741 176.757 167.895C176.757 168.05 176.879 168.176 177.033 168.182H177.033Z" fill="black"/>
<path d="M177.033 176.197H240.195C241.048 176.197 241.902 176.213 242.755 176.197C242.792 176.196 242.83 176.197 242.867 176.197C243.021 176.191 243.143 176.065 243.143 175.911C243.143 175.756 243.021 175.63 242.867 175.624H179.705C178.853 175.624 177.998 175.608 177.145 175.624C177.108 175.625 177.07 175.624 177.033 175.624C176.879 175.63 176.757 175.756 176.757 175.911C176.757 176.065 176.879 176.191 177.033 176.197H177.033Z" fill="black"/>
<path d="M177.032 184.211H240.194C241.047 184.211 241.902 184.227 242.755 184.211C242.792 184.21 242.829 184.211 242.867 184.211C243.021 184.206 243.143 184.079 243.143 183.925C243.143 183.77 243.021 183.644 242.867 183.639H179.705C178.852 183.639 177.997 183.622 177.144 183.639C177.107 183.639 177.07 183.639 177.032 183.639C176.878 183.644 176.756 183.77 176.756 183.925C176.756 184.079 176.878 184.206 177.032 184.211H177.032Z" fill="black"/>
<path d="M177.033 192.225H224.081C224.717 192.225 225.355 192.242 225.991 192.225C226.019 192.225 226.047 192.225 226.075 192.225C226.229 192.22 226.351 192.094 226.351 191.939C226.351 191.785 226.229 191.658 226.075 191.653H179.027C178.391 191.653 177.753 191.636 177.117 191.653C177.089 191.654 177.061 191.653 177.033 191.653C176.879 191.658 176.757 191.785 176.757 191.939C176.757 192.094 176.879 192.22 177.033 192.225Z" fill="black"/>
<ellipse cx="210.999" cy="154.729" rx="26.9061" ry="26.9061" fill="#389B48"/>
<path d="M237.333 154.729C237.301 168.798 226.156 180.327 212.096 180.836C198.036 181.345 186.087 170.653 185.037 156.623C183.987 142.593 194.211 130.241 208.19 128.652C222.169 127.063 234.906 136.804 237.032 150.712C237.234 152.041 237.335 153.384 237.333 154.729C237.334 155.466 238.479 155.467 238.478 154.729C238.477 139.967 226.813 127.844 212.063 127.273C197.312 126.703 184.746 137.89 183.606 152.607C182.466 167.325 193.159 180.313 207.821 182.022C222.484 183.73 235.876 173.548 238.15 158.962C238.364 157.561 238.474 156.146 238.478 154.729C238.479 153.992 237.334 153.991 237.333 154.729Z" fill="black"/>
<path d="M236.229 131.026C233.966 128.858 230.397 128.858 228.133 131.026C222.051 136.594 216.624 143.011 211.755 149.646C211.193 150.411 210.641 151.185 210.101 151.966C208.555 150.283 206.96 148.646 205.316 147.055C203.164 144.968 199.334 144.753 197.22 147.055C195.149 149.311 194.923 152.924 197.22 155.151C198.376 156.272 199.503 157.425 200.615 158.59C201.623 159.645 202.613 160.717 203.585 161.807C204.12 162.41 204.646 163.02 205.164 163.638C205.4 163.922 205.634 164.208 205.866 164.495C205.979 164.636 206.089 164.778 206.202 164.919C206.301 165.042 206.291 165.026 206.23 164.944C207.412 166.362 208.814 167.323 210.809 167.323C212.843 167.32 214.723 166.241 215.752 164.488C217.323 161.713 219.044 159.025 220.906 156.437C221.33 155.846 221.759 155.259 222.195 154.676C222.41 154.388 222.626 154.101 222.844 153.816L222.855 153.802C222.906 153.736 222.95 153.679 222.971 153.653C223.843 152.542 224.733 151.445 225.643 150.364C228.435 147.041 231.381 143.841 234.477 140.799C235.054 140.232 235.633 139.668 236.229 139.122C238.444 137.094 238.439 133.054 236.229 131.026Z" fill="white"/>
<path d="M236.633 130.621C235.052 129.138 232.841 128.531 230.725 128.999C229.655 129.263 228.666 129.784 227.844 130.517C226.89 131.351 225.983 132.247 225.081 133.136C221.441 136.749 218.029 140.585 214.864 144.621C213.046 146.922 211.276 149.266 209.606 151.677L210.505 151.561C209.444 150.408 208.362 149.277 207.256 148.166C206.346 147.252 205.458 146.231 204.302 145.621C202.353 144.594 199.852 144.53 197.952 145.713C196.033 146.908 194.903 149.274 195.014 151.513C195.061 152.666 195.44 153.782 196.105 154.725C196.512 155.246 196.962 155.732 197.45 156.178C198.008 156.73 198.56 157.287 199.107 157.85C200.305 159.081 201.486 160.329 202.637 161.605C203.216 162.248 203.786 162.898 204.348 163.556C204.866 164.165 205.345 164.811 205.87 165.413C206.295 165.899 207.129 165.261 206.769 164.719C206.755 164.697 206.74 164.676 206.723 164.655L205.824 165.349C206.82 166.534 208.104 167.511 209.658 167.789C211.312 168.086 213.016 167.72 214.4 166.769C215.074 166.307 215.649 165.715 216.093 165.03C216.614 164.217 217.061 163.351 217.562 162.525C218.614 160.791 219.726 159.094 220.896 157.436C223.219 154.168 225.722 151.032 228.395 148.044C229.738 146.526 231.113 145.039 232.522 143.581C233.212 142.868 233.91 142.162 234.616 141.465C235.339 140.751 236.106 140.076 236.816 139.35C239.079 137.034 239 132.835 236.633 130.621C236.095 130.118 235.284 130.926 235.823 131.431C237.647 133.136 237.843 136.369 236.233 138.29C235.674 138.957 234.967 139.517 234.345 140.126C233.662 140.794 232.987 141.468 232.318 142.149C230.958 143.538 229.628 144.955 228.329 146.401C225.788 149.228 223.336 152.145 221.089 155.213C219.943 156.776 218.844 158.371 217.792 159.999C217.265 160.817 216.752 161.644 216.254 162.479C215.803 163.235 215.421 164.078 214.881 164.774C213.846 166.072 212.259 166.804 210.6 166.747C208.95 166.689 207.664 165.764 206.634 164.54C206.22 164.048 205.345 164.71 205.735 165.233C205.751 165.254 205.767 165.275 205.781 165.297L206.68 164.603C205.777 163.57 204.942 162.478 204.031 161.449C203.076 160.372 202.101 159.314 201.105 158.275C200.111 157.233 199.106 156.2 198.079 155.19C197.652 154.81 197.27 154.384 196.937 153.919C196.662 153.495 196.454 153.029 196.323 152.54C195.836 150.58 196.458 148.51 197.943 147.142C199.379 145.843 201.566 145.686 203.307 146.411C204.51 146.912 205.365 147.894 206.267 148.796C207.435 149.964 208.577 151.155 209.695 152.371C209.822 152.493 209.998 152.552 210.173 152.529C210.348 152.507 210.503 152.406 210.594 152.255C213.415 148.198 216.453 144.296 219.695 140.568C221.309 138.706 222.979 136.894 224.704 135.133C225.558 134.264 226.428 133.411 227.312 132.572C228.119 131.807 228.899 130.995 229.908 130.498C231.884 129.566 234.23 129.936 235.823 131.431C236.369 131.924 237.181 131.116 236.633 130.621Z" fill="black"/>
<path d="M58.0952 277.207L59.1044 327.042L58.0952 277.207Z" fill="#458DC9"/>
<path d="M57.8086 277.206L57.8355 278.536L57.9088 282.157L58.0179 287.54L58.1503 294.079L58.2953 301.241L58.4417 308.47L58.5782 315.212L58.6936 320.91L58.7766 325.01C58.7897 325.659 58.7877 326.311 58.8161 326.96C58.8173 326.987 58.8172 327.014 58.8178 327.042C58.8233 327.196 58.9498 327.318 59.104 327.318C59.2582 327.318 59.3847 327.196 59.3903 327.042L59.3633 325.711L59.29 322.091L59.181 316.708L59.0486 310.169L58.9035 303.007L58.7572 295.777L58.6207 289.036L58.5053 283.338L58.4222 279.238C58.4091 278.589 58.4111 277.937 58.3827 277.288C58.3815 277.261 58.3817 277.234 58.3811 277.206C58.3756 277.052 58.2491 276.93 58.0949 276.93C57.9407 276.93 57.8141 277.052 57.8086 277.206L57.8086 277.206Z" fill="black"/>
<path d="M91.0747 274.258L89.2539 325.324L91.0747 274.258Z" fill="#458DC9"/>
<path d="M90.7884 274.258L90.7396 275.625L90.607 279.345L90.4118 284.82L90.1726 291.527L89.9106 298.877L89.646 306.296L89.3993 313.213L89.1917 319.035L89.0417 323.244C89.0181 323.907 88.9721 324.575 88.9706 325.239C88.9706 325.267 88.9685 325.296 88.9675 325.325C88.9544 325.693 89.5268 325.693 89.54 325.325L89.5887 323.958L89.7213 320.238L89.9165 314.763L90.1557 308.055L90.4177 300.706L90.6822 293.287L90.9288 286.37L91.1364 280.548L91.2865 276.339C91.31 275.676 91.356 275.008 91.3576 274.344C91.3576 274.315 91.3596 274.287 91.3607 274.258C91.3738 273.89 90.8013 273.89 90.7882 274.258H90.7884Z" fill="black"/>
</g>
</svg>
