<svg width="242" height="68" viewBox="0 0 242 68" fill="none" xmlns="http://www.w3.org/2000/svg">
<g clip-path="url(#clip0_711_8149)">
<path d="M34.0327 67.6458L-0.000488281 67.6458L36.4213 2.8606L54.3091 31.7858L34.0327 67.6458Z" fill="white"/>
<path d="M95.7692 30.8236L78.6341 58.7927L44.9565 2.8606H78.4622L95.7692 30.8236Z" fill="white"/>
<path d="M95.7692 30.8236L78.6341 2.8606L44.9565 58.7927H78.4622L95.7692 30.8236Z" fill="#B0D6D9"/>
</g>
<path d="M215.458 39.8434V12.8406H221.61L222.155 17.4136C222.99 15.8167 224.187 14.5464 225.748 13.6027C227.345 12.6591 229.214 12.1873 231.355 12.1873C234.694 12.1873 237.289 13.2398 239.14 15.3449C240.991 17.4499 241.917 20.5349 241.917 24.5999V39.8434H234.948V25.2532C234.948 22.9303 234.477 21.1519 233.533 19.9179C232.589 18.6839 231.119 18.0669 229.123 18.0669C227.163 18.0669 225.548 18.7565 224.278 20.1357C223.044 21.5149 222.427 23.4385 222.427 25.9065V39.8434H215.458Z" fill="white"/>
<path d="M195.399 40.4967C192.786 40.4967 190.427 39.8979 188.322 38.7002C186.253 37.5025 184.602 35.8511 183.368 33.746C182.17 31.6047 181.571 29.1367 181.571 26.342C181.571 23.5473 182.188 21.0975 183.422 18.9924C184.656 16.8511 186.308 15.1815 188.376 13.9838C190.482 12.7861 192.841 12.1873 195.454 12.1873C198.031 12.1873 200.354 12.7861 202.422 13.9838C204.527 15.1815 206.179 16.8511 207.376 18.9924C208.61 21.0975 209.227 23.5473 209.227 26.342C209.227 29.1367 208.61 31.6047 207.376 33.746C206.179 35.8511 204.527 37.5025 202.422 38.7002C200.317 39.8979 197.976 40.4967 195.399 40.4967ZM195.399 34.4538C197.214 34.4538 198.793 33.7823 200.136 32.4394C201.479 31.0602 202.15 29.0278 202.15 26.342C202.15 23.6562 201.479 21.6419 200.136 20.299C198.793 18.9198 197.232 18.2302 195.454 18.2302C193.603 18.2302 192.006 18.9198 190.663 20.299C189.356 21.6419 188.703 23.6562 188.703 26.342C188.703 29.0278 189.356 31.0602 190.663 32.4394C192.006 33.7823 193.585 34.4538 195.399 34.4538Z" fill="white"/>
<path d="M161.336 39.8434V12.8406H167.542L168.196 17.9036C169.175 16.1615 170.5 14.7823 172.17 13.7661C173.876 12.7135 175.872 12.1873 178.158 12.1873V19.5368H176.198C174.674 19.5368 173.313 19.7727 172.115 20.2446C170.918 20.7164 169.974 21.533 169.284 22.6944C168.631 23.8558 168.304 25.4709 168.304 27.5397V39.8434H161.336Z" fill="white"/>
<path d="M150.578 8.64863C149.308 8.64863 148.256 8.26754 147.421 7.50536C146.622 6.74318 146.223 5.78138 146.223 4.61997C146.223 3.45855 146.622 2.5149 147.421 1.78902C148.256 1.02684 149.308 0.645752 150.578 0.645752C151.849 0.645752 152.883 1.02684 153.682 1.78902C154.516 2.5149 154.934 3.45855 154.934 4.61997C154.934 5.78138 154.516 6.74318 153.682 7.50536C152.883 8.26754 151.849 8.64863 150.578 8.64863ZM147.094 39.8435V12.8406H154.063V39.8435H147.094Z" fill="white"/>
<path d="M113.917 39.8438V1.73486H128.017C131.066 1.73486 133.588 2.24298 135.584 3.25922C137.58 4.27546 139.068 5.67279 140.048 7.4512C141.028 9.22962 141.518 11.2258 141.518 13.4397C141.518 15.5448 141.046 17.4866 140.103 19.265C139.159 21.0071 137.689 22.4226 135.693 23.5114C133.697 24.5639 131.138 25.0902 128.017 25.0902H120.885V39.8438H113.917ZM120.885 19.4283H127.581C130.013 19.4283 131.755 18.902 132.808 17.8495C133.896 16.7607 134.441 15.2908 134.441 13.4397C134.441 11.5525 133.896 10.0825 132.808 9.03C131.755 7.94118 130.013 7.39676 127.581 7.39676H120.885V19.4283Z" fill="white"/>
<path d="M229.573 67.4051V49.8108H240.192V51.7008H231.704V57.6458H239.642V59.5358H231.704V65.5151H240.329V67.4051H229.573Z" fill="white"/>
<path d="M222.017 55.3091H219.887C219.761 54.6963 219.54 54.1579 219.225 53.694C218.916 53.2301 218.538 52.8406 218.091 52.5256C217.65 52.2049 217.16 51.9643 216.622 51.804C216.084 51.6436 215.522 51.5634 214.938 51.5634C213.873 51.5634 212.908 51.8326 212.043 52.371C211.184 52.9093 210.499 53.7026 209.99 54.7507C209.486 55.7988 209.234 57.0845 209.234 58.608C209.234 60.1315 209.486 61.4173 209.99 62.4654C210.499 63.5135 211.184 64.3067 212.043 64.8451C212.908 65.3834 213.873 65.6526 214.938 65.6526C215.522 65.6526 216.084 65.5724 216.622 65.4121C217.16 65.2517 217.65 65.014 218.091 64.699C218.538 64.3783 218.916 63.986 219.225 63.522C219.54 63.0524 219.761 62.514 219.887 61.9069H222.017C221.857 62.8061 221.565 63.6108 221.141 64.321C220.717 65.0312 220.19 65.6354 219.56 66.1337C218.93 66.6262 218.223 67.0014 217.438 67.2591C216.659 67.5168 215.826 67.6457 214.938 67.6457C213.438 67.6457 212.103 67.2792 210.935 66.5461C209.766 65.813 208.847 64.7706 208.177 63.419C207.507 62.0673 207.172 60.4637 207.172 58.608C207.172 56.7524 207.507 55.1487 208.177 53.7971C208.847 52.4454 209.766 51.4031 210.935 50.67C212.103 49.9369 213.438 49.5703 214.938 49.5703C215.826 49.5703 216.659 49.6992 217.438 49.9569C218.223 50.2146 218.93 50.5926 219.56 51.0909C220.19 51.5835 220.717 52.1848 221.141 52.895C221.565 53.5995 221.857 54.4042 222.017 55.3091Z" fill="white"/>
<path d="M199.483 49.8108V67.4051H197.422L187.834 53.5908H187.662V67.4051H185.532V49.8108H187.594L197.215 63.6594H197.387V49.8108H199.483Z" fill="white"/>
<path d="M165.792 67.4051H163.559L170.019 49.8108H172.218L178.679 67.4051H176.445L171.187 52.5943H171.05L165.792 67.4051ZM166.617 60.5323H175.62V62.4223H166.617V60.5323Z" fill="white"/>
<path d="M156.695 49.8108V67.4051H154.633L145.046 53.5908H144.874V67.4051H142.743V49.8108H144.805L154.427 63.6594H154.599V49.8108H156.695Z" fill="white"/>
<path d="M134.358 49.8108V67.4051H132.228V49.8108H134.358Z" fill="white"/>
<path d="M113.917 67.4051V49.8108H124.466V51.7008H116.047V57.6458H123.676V59.5358H116.047V67.4051H113.917Z" fill="white"/>
<defs>
<clipPath id="clip0_711_8149">
<rect width="95.7694" height="64.7852" fill="white" transform="translate(0 2.8606)"/>
</clipPath>
</defs>
</svg>
