<svg width="48" height="49" viewBox="0 0 48 49" fill="none" xmlns="http://www.w3.org/2000/svg">
<path fill-rule="evenodd" clip-rule="evenodd" d="M9.50977 20.957C10.1907 18.4132 11.5293 16.0936 13.391 14.2312C15.2527 12.3689 17.5719 11.0294 20.1154 10.3476C22.6588 9.66568 25.337 9.66539 27.8806 10.3467C30.4242 11.0281 32.7437 12.367 34.6058 14.229L38.4118 18.035H32.0458C31.6479 18.035 31.2664 18.193 30.9851 18.4743C30.7038 18.7556 30.5458 19.1371 30.5458 19.535C30.5458 19.9328 30.7038 20.3143 30.9851 20.5956C31.2664 20.8769 31.6479 21.035 32.0458 21.035H42.0298C42.4276 21.035 42.8091 20.8769 43.0904 20.5956C43.3717 20.3143 43.5298 19.9328 43.5298 19.535V9.55096C43.5298 9.15313 43.3717 8.7716 43.0904 8.4903C42.8091 8.20899 42.4276 8.05096 42.0298 8.05096C41.632 8.05096 41.2504 8.20899 40.9691 8.4903C40.6878 8.7716 40.5298 9.15313 40.5298 9.55096V15.911L36.7298 12.111C34.4957 9.87587 31.7126 8.26833 28.6602 7.44996C25.6079 6.6316 22.3938 6.63126 19.3413 7.44897C16.2888 8.26668 13.5053 9.87363 11.2708 12.1082C9.03622 14.3429 7.42938 17.1264 6.61177 20.179C6.56082 20.3694 6.54787 20.568 6.57367 20.7634C6.59946 20.9588 6.6635 21.1472 6.76211 21.3179C6.86073 21.4886 6.99199 21.6382 7.14842 21.7581C7.30484 21.878 7.48336 21.966 7.67377 22.017C7.86419 22.0679 8.06278 22.0809 8.2582 22.0551C8.45362 22.0293 8.64205 21.9652 8.81272 21.8666C8.98339 21.768 9.13297 21.6367 9.25292 21.4803C9.37286 21.3239 9.46082 21.1454 9.51177 20.955L9.50977 20.957ZM40.3258 27.661C40.1355 27.6098 39.937 27.5967 39.7416 27.6223C39.5463 27.6479 39.3579 27.7117 39.1872 27.8102C39.0165 27.9086 38.8669 28.0397 38.7469 28.196C38.6269 28.3523 38.5388 28.5306 38.4878 28.721C37.8068 31.2647 36.4682 33.5843 34.6065 35.4467C32.7448 37.309 30.4257 38.6485 27.8822 39.3304C25.3387 40.0122 22.6606 40.0125 20.1169 39.3312C17.5733 38.6499 15.2539 37.3109 13.3918 35.449L9.58777 31.643H15.9538C16.3516 31.643 16.7331 31.4849 17.0144 31.2036C17.2957 30.9223 17.4538 30.5408 17.4538 30.143C17.4538 29.7451 17.2957 29.3636 17.0144 29.0823C16.7331 28.801 16.3516 28.643 15.9538 28.643H5.96777C5.56995 28.643 5.18842 28.801 4.90711 29.0823C4.62581 29.3636 4.46777 29.7451 4.46777 30.143V40.127C4.46777 40.5248 4.62581 40.9063 4.90711 41.1876C5.18842 41.4689 5.56995 41.627 5.96777 41.627C6.3656 41.627 6.74713 41.4689 7.02843 41.1876C7.30974 40.9063 7.46777 40.5248 7.46777 40.127V33.767L11.2678 37.567C13.502 39.802 16.2852 41.4095 19.3377 42.2278C22.3902 43.046 25.6043 43.0462 28.6569 42.2282C31.7095 41.4103 34.4929 39.8031 36.7273 37.5683C38.9618 35.3334 40.5684 32.5497 41.3858 29.497C41.4884 29.1129 41.4344 28.7039 41.2357 28.3596C41.0369 28.0154 40.7097 27.7641 40.3258 27.661Z" fill="#EF841F"/>
</svg>
