<svg width="48" height="49" viewBox="0 0 48 49" fill="none" xmlns="http://www.w3.org/2000/svg">
<path fill-rule="evenodd" clip-rule="evenodd" d="M24 5.33887C34.77 5.33887 43.5 14.0689 43.5 24.8389C43.5 35.6089 34.77 44.3389 24 44.3389C13.23 44.3389 4.5 35.6089 4.5 24.8389C4.5 14.0689 13.23 5.33887 24 5.33887ZM35.476 12.9829C37.91 15.3395 39.5596 18.3882 40.2007 21.715C40.8417 25.0417 40.4432 28.4851 39.0592 31.5775C37.6752 34.6698 35.3728 37.2612 32.4648 38.9995C29.5569 40.7379 26.1843 41.5389 22.8052 41.2939C19.4262 41.0488 16.2044 39.7695 13.5777 37.6298C10.951 35.49 9.04665 32.5936 8.12332 29.3339C7.19999 26.0742 7.30247 22.6093 8.41683 19.4099C9.53119 16.2105 11.6034 13.4316 14.352 11.4509C15.0284 12.5321 15.927 13.4572 16.988 14.1649L19.5 15.8389L19.17 16.4989C19.0181 16.8027 18.9657 17.1466 19.0203 17.4819C19.0748 17.8172 19.2334 18.1268 19.4737 18.3669C19.714 18.6069 20.0238 18.7653 20.3591 18.8195C20.6944 18.8737 21.0383 18.821 21.342 18.6689L22.55 18.0649C22.9721 17.8538 23.4499 17.7808 23.9157 17.8561C24.3816 17.9315 24.812 18.1515 25.146 18.4849L25.41 18.7469C26.288 19.6269 26.288 21.0509 25.41 21.9289L24.818 22.5209C24.306 23.0349 23.574 23.2689 22.858 23.1489L20.518 22.7589C19.872 22.6509 19.21 22.8309 18.708 23.2489L16.048 25.4649C15.408 25.9989 15.128 26.8529 15.332 27.6649C16.0972 30.723 17.6789 33.5158 19.908 35.7449L21.354 37.1929C21.688 37.5263 22.1184 37.7462 22.5843 37.8216C23.0501 37.897 23.5279 37.824 23.95 37.6129L24.256 37.4609C24.6297 37.2741 24.944 36.9869 25.1637 36.6315C25.3835 36.2762 25.4999 35.8667 25.5 35.4489V33.2709C25.5 32.6749 25.738 32.1009 26.16 31.6789L28.854 28.9849C29.1874 28.6509 29.4074 28.2205 29.4827 27.7546C29.5581 27.2887 29.4851 26.811 29.274 26.3889L28.5 24.8389L31.78 21.5589C33.549 19.79 34.721 17.5125 35.132 15.0449L35.476 12.9829Z" fill="#1B8600"/>
</svg>
