<svg width="48" height="49" viewBox="0 0 48 49" fill="none" xmlns="http://www.w3.org/2000/svg">
<path d="M24 15.8389C22.8065 15.8389 21.6619 16.313 20.818 17.1569C19.9741 18.0008 19.5 19.1454 19.5 20.3389C19.5 21.5323 19.9741 22.6769 20.818 23.5208C21.6619 24.3648 22.8065 24.8389 24 24.8389C25.1935 24.8389 26.3381 24.3648 27.182 23.5208C28.0259 22.6769 28.5 21.5323 28.5 20.3389C28.5 19.1454 28.0259 18.0008 27.182 17.1569C26.3381 16.313 25.1935 15.8389 24 15.8389Z" fill="#1F83F9"/>
<path d="M16.5 20.3389C16.5 18.3497 17.2902 16.4421 18.6967 15.0356C20.1032 13.629 22.0109 12.8389 24 12.8389C25.9891 12.8389 27.8968 13.629 29.3033 15.0356C30.7098 16.4421 31.5 18.3497 31.5 20.3389C31.5 22.328 30.7098 24.2356 29.3033 25.6422C27.8968 27.0487 25.9891 27.8389 24 27.8389C22.0109 27.8389 20.1032 27.0487 18.6967 25.6422C17.2902 24.2356 16.5 22.328 16.5 20.3389Z" fill="#1F83F9"/>
<path d="M37.5 18.8389C37.1022 18.8389 36.7206 18.9969 36.4393 19.2782C36.158 19.5595 36 19.941 36 20.3389V20.3549C36 21.1829 36.672 21.8549 37.5 21.8549H37.516C37.9138 21.8549 38.2954 21.6968 38.5767 21.4155C38.858 21.1342 39.016 20.7527 39.016 20.3549V20.3389C39.016 19.941 38.858 19.5595 38.5767 19.2782C38.2954 18.9969 37.9138 18.8389 37.516 18.8389H37.5Z" fill="#1F83F9"/>
<path d="M9 20.3389C9 19.941 9.15804 19.5595 9.43934 19.2782C9.72064 18.9969 10.1022 18.8389 10.5 18.8389H10.516C10.9138 18.8389 11.2954 18.9969 11.5767 19.2782C11.858 19.5595 12.016 19.941 12.016 20.3389V20.3549C12.016 20.7527 11.858 21.1342 11.5767 21.4155C11.2954 21.6968 10.9138 21.8549 10.516 21.8549H10.5C10.1022 21.8549 9.72064 21.6968 9.43934 21.4155C9.15804 21.1342 9 20.7527 9 20.3549V20.3389Z" fill="#1F83F9"/>
<path fill-rule="evenodd" clip-rule="evenodd" d="M3 10.5889C3 8.51687 4.68 6.83887 6.75 6.83887H41.25C43.32 6.83887 45 8.51887 45 10.5889V30.0889C45 32.1609 43.32 33.8389 41.25 33.8389H6.75C6.25754 33.8389 5.76991 33.7419 5.31494 33.5534C4.85997 33.365 4.44657 33.0887 4.09835 32.7405C3.75013 32.3923 3.47391 31.9789 3.28545 31.5239C3.097 31.069 3 30.5813 3 30.0889V10.5889ZM18.6967 15.0356C17.2902 16.4421 16.5 18.3497 16.5 20.3389C16.5 22.328 17.2902 24.2356 18.6967 25.6422C20.1032 27.0487 22.0109 27.8389 24 27.8389C25.9891 27.8389 27.8968 27.0487 29.3033 25.6422C30.7098 24.2356 31.5 22.328 31.5 20.3389C31.5 18.3497 30.7098 16.4421 29.3033 15.0356C27.8968 13.629 25.9891 12.8389 24 12.8389C22.0109 12.8389 20.1032 13.629 18.6967 15.0356ZM36.4393 19.2782C36.7206 18.9969 37.1022 18.8389 37.5 18.8389H37.516C37.9138 18.8389 38.2954 18.9969 38.5767 19.2782C38.858 19.5595 39.016 19.941 39.016 20.3389V20.3549C39.016 20.7527 38.858 21.1342 38.5767 21.4155C38.2954 21.6968 37.9138 21.8549 37.516 21.8549H37.5C36.672 21.8549 36 21.1829 36 20.3549V20.3389C36 19.941 36.158 19.5595 36.4393 19.2782ZM9.43934 19.2782C9.15804 19.5595 9 19.941 9 20.3389V20.3549C9 20.7527 9.15804 21.1342 9.43934 21.4155C9.72064 21.6968 10.1022 21.8549 10.5 21.8549H10.516C10.9138 21.8549 11.2954 21.6968 11.5767 21.4155C11.858 21.1342 12.016 20.7527 12.016 20.3549V20.3389C12.016 19.941 11.858 19.5595 11.5767 19.2782C11.2954 18.9969 10.9138 18.8389 10.516 18.8389H10.5C10.1022 18.8389 9.72064 18.9969 9.43934 19.2782Z" fill="#1F83F9"/>
<path d="M4.5 36.8389C4.10218 36.8389 3.72064 36.9969 3.43934 37.2782C3.15804 37.5595 3 37.941 3 38.3389C3 38.7367 3.15804 39.1182 3.43934 39.3995C3.72064 39.6808 4.10218 39.8389 4.5 39.8389C15.3 39.8389 25.76 41.2829 35.7 43.9889C38.08 44.6369 40.5 42.8729 40.5 40.3489V38.3389C40.5 37.941 40.342 37.5595 40.0607 37.2782C39.7794 36.9969 39.3978 36.8389 39 36.8389H4.5Z" fill="#1F83F9"/>
<path d="M13.7198 14.3082C13.8605 14.1678 14.0511 14.0889 14.2498 14.0889C14.4486 14.0889 14.6392 14.1678 14.7798 14.3082L20.9998 20.5282L24.7558 16.7722C24.8842 16.6439 25.0548 16.5664 25.2359 16.5543C25.4171 16.5422 25.5965 16.5961 25.7408 16.7062C27.9814 18.4131 29.5908 20.8165 30.3158 23.5382L30.6238 24.6872L32.9008 20.7442C32.9497 20.6582 33.0151 20.5828 33.0933 20.5222C33.1715 20.4616 33.2609 20.417 33.3563 20.3911C33.4518 20.3652 33.5514 20.3584 33.6495 20.3712C33.7476 20.3839 33.8422 20.4159 33.9278 20.4654C34.0135 20.5148 34.0885 20.5808 34.1486 20.6593C34.2087 20.7379 34.2526 20.8276 34.2779 20.9232C34.3032 21.0188 34.3093 21.1185 34.2959 21.2165C34.2825 21.3145 34.2499 21.4089 34.1998 21.4942L31.0178 27.0042C30.9686 27.0896 30.9031 27.1645 30.8249 27.2245C30.7468 27.2846 30.6575 27.3286 30.5623 27.3542C30.4671 27.3797 30.3678 27.3862 30.2701 27.3734C30.1724 27.3605 30.0782 27.3285 29.9928 27.2792L24.4818 24.0982C24.3094 23.9988 24.1836 23.8349 24.1321 23.6427C24.0805 23.4504 24.1074 23.2456 24.2068 23.0732C24.3063 22.9008 24.4702 22.775 24.6624 22.7234C24.8546 22.6719 25.0594 22.6988 25.2318 22.7982L29.1748 25.0752L28.8668 23.9262C28.2853 21.7404 27.0553 19.7821 25.3388 18.3092L21.5298 22.1192C21.3892 22.2597 21.1986 22.3385 20.9998 22.3385C20.8011 22.3385 20.6105 22.2597 20.4698 22.1192L13.7198 15.3682C13.6501 15.2986 13.5949 15.2159 13.5571 15.1248C13.5194 15.0338 13.5 14.9362 13.5 14.8377C13.5 14.7392 13.5194 14.6416 13.5571 14.5506C13.5949 14.4596 13.6501 14.3779 13.7198 14.3082Z" fill="#F3FBFB"/>
</svg>
