<svg width="48" height="49" viewBox="0 0 48 49" fill="none" xmlns="http://www.w3.org/2000/svg">
<path d="M24 30.8389C25.5913 30.8389 27.1174 30.2067 28.2426 29.0815C29.3679 27.9563 30 26.4302 30 24.8389C30 23.2476 29.3679 21.7214 28.2426 20.5962C27.1174 19.471 25.5913 18.8389 24 18.8389C22.4087 18.8389 20.8826 19.471 19.7574 20.5962C18.6321 21.7214 18 23.2476 18 24.8389C18 26.4302 18.6321 27.9563 19.7574 29.0815C20.8826 30.2067 22.4087 30.8389 24 30.8389Z" fill="#6B0086"/>
<path fill-rule="evenodd" clip-rule="evenodd" d="M2.64615 23.7329C5.62215 14.7909 14.0562 8.33887 24.0022 8.33887C33.9422 8.33887 42.3722 14.7849 45.3522 23.7189C45.5922 24.4429 45.5922 25.2229 45.3522 25.9449C42.3782 34.8869 33.9422 41.3389 23.9981 41.3389C14.0582 41.3389 5.62615 34.8929 2.64815 25.9589C2.40765 25.2364 2.40765 24.4554 2.64815 23.7329H2.64615ZM34.5002 24.8389C34.5002 27.6236 33.3939 30.2944 31.4248 32.2635C29.4556 34.2326 26.7849 35.3389 24.0002 35.3389C21.2154 35.3389 18.5447 34.2326 16.5755 32.2635C14.6064 30.2944 13.5002 27.6236 13.5002 24.8389C13.5002 22.0541 14.6064 19.3834 16.5755 17.4142C18.5447 15.4451 21.2154 14.3389 24.0002 14.3389C26.7849 14.3389 29.4556 15.4451 31.4248 17.4142C33.3939 19.3834 34.5002 22.0541 34.5002 24.8389Z" fill="#6B0086"/>
</svg>
