<svg width="48" height="49" viewBox="0 0 48 49" fill="none" xmlns="http://www.w3.org/2000/svg">
<path fill-rule="evenodd" clip-rule="evenodd" d="M18.63 16.0069C24.39 8.60487 33.39 3.83887 43.5 3.83887C43.8978 3.83887 44.2794 3.9969 44.5607 4.27821C44.842 4.55951 45 4.94104 45 5.33887C45 15.4509 40.234 24.4489 32.832 30.2109C33.1398 32.1393 33.0256 34.1117 32.4972 35.9917C31.9688 37.8717 31.0388 39.6148 29.7713 41.1005C28.5039 42.5862 26.9292 43.7793 25.1559 44.5973C23.3826 45.4154 21.4529 45.839 19.5 45.8389C19.1022 45.8389 18.7206 45.6808 18.4393 45.3995C18.158 45.1182 18 44.7367 18 44.3389V36.0769C16.0559 34.5416 14.2985 32.7836 12.764 30.8389H4.5C4.10218 30.8389 3.72064 30.6808 3.43934 30.3995C3.15804 30.1182 3 29.7367 3 29.3389C2.99984 27.3858 3.42347 25.4559 4.24165 23.6824C5.05982 21.909 6.25306 20.3342 7.73902 19.0667C9.22497 17.7992 10.9683 16.8692 12.8485 16.341C14.7288 15.8127 16.7014 15.6987 18.63 16.0069ZM30 14.3389C28.8065 14.3389 27.6619 14.813 26.818 15.6569C25.9741 16.5008 25.5 17.6454 25.5 18.8389C25.5 20.0323 25.9741 21.1769 26.818 22.0208C27.6619 22.8648 28.8065 23.3389 30 23.3389C31.1935 23.3389 32.3381 22.8648 33.182 22.0208C34.0259 21.1769 34.5 20.0323 34.5 18.8389C34.5 17.6454 34.0259 16.5008 33.182 15.6569C32.3381 14.813 31.1935 14.3389 30 14.3389Z" fill="#F01D87"/>
<path d="M10.5196 35.3227C10.6776 35.205 10.8108 35.0572 10.9117 34.8879C11.0125 34.7186 11.0791 34.5311 11.1075 34.3361C11.1359 34.1411 11.1257 33.9424 11.0773 33.7514C11.0289 33.5604 10.9434 33.3807 10.8256 33.2227C10.7078 33.0648 10.56 32.9315 10.3907 32.8307C10.2215 32.7298 10.034 32.6632 9.83896 32.6348C9.64396 32.6064 9.44527 32.6167 9.25423 32.6651C9.0632 32.7134 8.88356 32.799 8.72558 32.9167C7.19136 34.058 5.9984 35.597 5.27575 37.3673C4.5531 39.1377 4.32827 41.0719 4.62558 42.9607C4.67394 43.2754 4.82111 43.5664 5.04582 43.7919C5.27054 44.0173 5.56113 44.1654 5.87558 44.2147C7.76465 44.5118 9.69899 44.2867 11.4693 43.5637C13.2397 42.8407 14.7786 41.6473 15.9196 40.1127C16.0412 39.9552 16.1302 39.775 16.1815 39.5827C16.2327 39.3904 16.2452 39.1898 16.2182 38.9926C16.1912 38.7954 16.1252 38.6056 16.024 38.4342C15.9229 38.2628 15.7887 38.1132 15.6292 37.9942C15.4697 37.8751 15.2881 37.789 15.095 37.7409C14.9019 37.6927 14.7011 37.6835 14.5044 37.7137C14.3077 37.7439 14.1189 37.813 13.9492 37.9168C13.7794 38.0207 13.632 38.1573 13.5156 38.3187C12.8181 39.2568 11.9107 40.0185 10.8661 40.5429C9.82141 41.0673 8.66848 41.3399 7.49958 41.3387C7.49958 38.8787 8.68359 36.6927 10.5196 35.3227Z" fill="#F01D87"/>
</svg>
