<svg width="1312" height="296" viewBox="0 0 1312 296" fill="none" xmlns="http://www.w3.org/2000/svg">
<g clip-path="url(#clip0_1079_4758)">
<rect width="1312" height="296" rx="16" fill="#E6F2F3"/>
<path d="M42.1354 46.9286L21.9457 82.6352L-11.7436 82.6352L24.4279 18.2951L42.1354 46.9286Z" stroke="#B0D6D9" stroke-width="0.3"/>
<path d="M42.1354 176.929L21.9457 212.635L-11.7436 212.635L24.4279 148.295L42.1354 176.929Z" stroke="#B0D6D9" stroke-width="0.3"/>
<path d="M42.1354 306.929L21.9457 342.635L-11.7436 342.635L24.4279 278.295L42.1354 306.929Z" stroke="#B0D6D9" stroke-width="0.3"/>
<path d="M150.135 46.9286L129.946 82.6352L96.2564 82.6352L132.428 18.2951L150.135 46.9286Z" stroke="#B0D6D9" stroke-width="0.3"/>
<path d="M150.135 176.929L129.946 212.635L96.2564 212.635L132.428 148.295L150.135 176.929Z" stroke="#B0D6D9" stroke-width="0.3"/>
<path d="M150.135 306.929L129.946 342.635L96.2564 342.635L132.428 278.295L150.135 306.929Z" stroke="#B0D6D9" stroke-width="0.3"/>
<path d="M258.135 46.9286L237.946 82.6352L204.256 82.6352L240.428 18.2951L258.135 46.9286Z" stroke="#B0D6D9" stroke-width="0.3"/>
<path d="M258.135 176.929L237.946 212.635L204.256 212.635L240.428 148.295L258.135 176.929Z" stroke="#B0D6D9" stroke-width="0.3"/>
<path d="M258.135 306.929L237.946 342.635L204.256 342.635L240.428 278.295L258.135 306.929Z" stroke="#B0D6D9" stroke-width="0.3"/>
<path d="M366.135 46.9286L345.946 82.6352L312.256 82.6352L348.428 18.2951L366.135 46.9286Z" stroke="#B0D6D9" stroke-width="0.3"/>
<path d="M366.135 176.929L345.946 212.635L312.256 212.635L348.428 148.295L366.135 176.929Z" stroke="#B0D6D9" stroke-width="0.3"/>
<path d="M366.135 306.929L345.946 342.635L312.256 342.635L348.428 278.295L366.135 306.929Z" stroke="#B0D6D9" stroke-width="0.3"/>
<path d="M474.135 46.9286L453.946 82.6352L420.256 82.6352L456.428 18.2951L474.135 46.9286Z" stroke="#B0D6D9" stroke-width="0.3"/>
<path d="M474.135 176.929L453.946 212.635L420.256 212.635L456.428 148.295L474.135 176.929Z" stroke="#B0D6D9" stroke-width="0.3"/>
<path d="M474.135 306.929L453.946 342.635L420.256 342.635L456.428 278.295L474.135 306.929Z" stroke="#B0D6D9" stroke-width="0.3"/>
<path d="M582.135 46.9286L561.946 82.6352L528.256 82.6352L564.428 18.2951L582.135 46.9286Z" stroke="#B0D6D9" stroke-width="0.3"/>
<path d="M582.135 176.929L561.946 212.635L528.256 212.635L564.428 148.295L582.135 176.929Z" stroke="#B0D6D9" stroke-width="0.3"/>
<path d="M582.135 306.929L561.946 342.635L528.256 342.635L564.428 278.295L582.135 306.929Z" stroke="#B0D6D9" stroke-width="0.3"/>
<path d="M690.135 46.9286L669.946 82.6352L636.256 82.6352L672.428 18.2951L690.135 46.9286Z" stroke="#B0D6D9" stroke-width="0.3"/>
<path d="M690.135 176.929L669.946 212.635L636.256 212.635L672.428 148.295L690.135 176.929Z" stroke="#B0D6D9" stroke-width="0.3"/>
<path d="M690.135 306.929L669.946 342.635L636.256 342.635L672.428 278.295L690.135 306.929Z" stroke="#B0D6D9" stroke-width="0.3"/>
<path d="M798.135 46.9286L777.946 82.6352L744.256 82.6352L780.428 18.2951L798.135 46.9286Z" stroke="#B0D6D9" stroke-width="0.3"/>
<path d="M798.135 176.929L777.946 212.635L744.256 212.635L780.428 148.295L798.135 176.929Z" stroke="#B0D6D9" stroke-width="0.3"/>
<path d="M798.135 306.929L777.946 342.635L744.256 342.635L780.428 278.295L798.135 306.929Z" stroke="#B0D6D9" stroke-width="0.3"/>
<path d="M906.135 46.9286L885.946 82.6352L852.256 82.6352L888.428 18.2951L906.135 46.9286Z" stroke="#B0D6D9" stroke-width="0.3"/>
<path d="M906.135 176.929L885.946 212.635L852.256 212.635L888.428 148.295L906.135 176.929Z" stroke="#B0D6D9" stroke-width="0.3"/>
<path d="M906.135 306.929L885.946 342.635L852.256 342.635L888.428 278.295L906.135 306.929Z" stroke="#B0D6D9" stroke-width="0.3"/>
<path d="M1014.14 46.9286L993.946 82.6352L960.256 82.6352L996.428 18.2951L1014.14 46.9286Z" stroke="#B0D6D9" stroke-width="0.3"/>
<path d="M1014.14 176.929L993.946 212.635L960.256 212.635L996.428 148.295L1014.14 176.929Z" stroke="#B0D6D9" stroke-width="0.3"/>
<path d="M1014.14 306.929L993.946 342.635L960.256 342.635L996.428 278.295L1014.14 306.929Z" stroke="#B0D6D9" stroke-width="0.3"/>
<path d="M1122.14 46.9286L1101.95 82.6352L1068.26 82.6352L1104.43 18.2951L1122.14 46.9286Z" stroke="#B0D6D9" stroke-width="0.3"/>
<path d="M1122.14 176.929L1101.95 212.635L1068.26 212.635L1104.43 148.295L1122.14 176.929Z" stroke="#B0D6D9" stroke-width="0.3"/>
<path d="M1122.14 306.929L1101.95 342.635L1068.26 342.635L1104.43 278.295L1122.14 306.929Z" stroke="#B0D6D9" stroke-width="0.3"/>
<path d="M1230.14 46.9286L1209.95 82.6352L1176.26 82.6352L1212.43 18.2951L1230.14 46.9286Z" stroke="#B0D6D9" stroke-width="0.3"/>
<path d="M1230.14 176.929L1209.95 212.635L1176.26 212.635L1212.43 148.295L1230.14 176.929Z" stroke="#B0D6D9" stroke-width="0.3"/>
<path d="M1230.14 306.929L1209.95 342.635L1176.26 342.635L1212.43 278.295L1230.14 306.929Z" stroke="#B0D6D9" stroke-width="0.3"/>
<path d="M81.1354 -11.1435L60.9457 -46.85L27.2564 -46.85L63.4279 17.49L81.1354 -11.1435Z" stroke="#B0D6D9" stroke-width="0.3"/>
<path d="M81.1354 118.857L60.9457 83.15L27.2564 83.15L63.4279 147.49L81.1354 118.857Z" stroke="#B0D6D9" stroke-width="0.3"/>
<path d="M81.1354 248.857L60.9457 213.15L27.2564 213.15L63.4279 277.49L81.1354 248.857Z" stroke="#B0D6D9" stroke-width="0.3"/>
<path d="M189.135 -11.1435L168.946 -46.85L135.256 -46.85L171.428 17.49L189.135 -11.1435Z" stroke="#B0D6D9" stroke-width="0.3"/>
<path d="M189.135 118.857L168.946 83.15L135.256 83.15L171.428 147.49L189.135 118.857Z" stroke="#B0D6D9" stroke-width="0.3"/>
<path d="M189.135 248.857L168.946 213.15L135.256 213.15L171.428 277.49L189.135 248.857Z" stroke="#B0D6D9" stroke-width="0.3"/>
<path d="M297.135 -11.1435L276.946 -46.85L243.256 -46.85L279.428 17.49L297.135 -11.1435Z" stroke="#B0D6D9" stroke-width="0.3"/>
<path d="M297.135 118.857L276.946 83.15L243.256 83.15L279.428 147.49L297.135 118.857Z" stroke="#B0D6D9" stroke-width="0.3"/>
<path d="M297.135 248.857L276.946 213.15L243.256 213.15L279.428 277.49L297.135 248.857Z" stroke="#B0D6D9" stroke-width="0.3"/>
<path d="M405.135 -11.1435L384.946 -46.85L351.256 -46.85L387.428 17.49L405.135 -11.1435Z" stroke="#B0D6D9" stroke-width="0.3"/>
<path d="M405.135 118.857L384.946 83.15L351.256 83.15L387.428 147.49L405.135 118.857Z" stroke="#B0D6D9" stroke-width="0.3"/>
<path d="M405.135 248.857L384.946 213.15L351.256 213.15L387.428 277.49L405.135 248.857Z" stroke="#B0D6D9" stroke-width="0.3"/>
<path d="M513.135 -11.1435L492.946 -46.85L459.256 -46.85L495.428 17.49L513.135 -11.1435Z" stroke="#B0D6D9" stroke-width="0.3"/>
<path d="M513.135 118.857L492.946 83.15L459.256 83.15L495.428 147.49L513.135 118.857Z" stroke="#B0D6D9" stroke-width="0.3"/>
<path d="M513.135 248.857L492.946 213.15L459.256 213.15L495.428 277.49L513.135 248.857Z" stroke="#B0D6D9" stroke-width="0.3"/>
<path d="M621.135 -11.1435L600.946 -46.85L567.256 -46.85L603.428 17.49L621.135 -11.1435Z" stroke="#B0D6D9" stroke-width="0.3"/>
<path d="M621.135 118.857L600.946 83.15L567.256 83.15L603.428 147.49L621.135 118.857Z" stroke="#B0D6D9" stroke-width="0.3"/>
<path d="M621.135 248.857L600.946 213.15L567.256 213.15L603.428 277.49L621.135 248.857Z" stroke="#B0D6D9" stroke-width="0.3"/>
<path d="M729.135 -11.1435L708.946 -46.85L675.256 -46.85L711.428 17.49L729.135 -11.1435Z" stroke="#B0D6D9" stroke-width="0.3"/>
<path d="M729.135 118.857L708.946 83.15L675.256 83.15L711.428 147.49L729.135 118.857Z" stroke="#B0D6D9" stroke-width="0.3"/>
<path d="M729.135 248.857L708.946 213.15L675.256 213.15L711.428 277.49L729.135 248.857Z" stroke="#B0D6D9" stroke-width="0.3"/>
<path d="M837.135 -11.1435L816.946 -46.85L783.256 -46.85L819.428 17.49L837.135 -11.1435Z" stroke="#B0D6D9" stroke-width="0.3"/>
<path d="M837.135 118.857L816.946 83.15L783.256 83.15L819.428 147.49L837.135 118.857Z" stroke="#B0D6D9" stroke-width="0.3"/>
<path d="M837.135 248.857L816.946 213.15L783.256 213.15L819.428 277.49L837.135 248.857Z" stroke="#B0D6D9" stroke-width="0.3"/>
<path d="M945.135 -11.1435L924.946 -46.85L891.256 -46.85L927.428 17.49L945.135 -11.1435Z" stroke="#B0D6D9" stroke-width="0.3"/>
<path d="M945.135 118.857L924.946 83.15L891.256 83.15L927.428 147.49L945.135 118.857Z" stroke="#B0D6D9" stroke-width="0.3"/>
<path d="M945.135 248.857L924.946 213.15L891.256 213.15L927.428 277.49L945.135 248.857Z" stroke="#B0D6D9" stroke-width="0.3"/>
<path d="M1053.14 -11.1435L1032.95 -46.85L999.256 -46.85L1035.43 17.49L1053.14 -11.1435Z" stroke="#B0D6D9" stroke-width="0.3"/>
<path d="M1053.14 118.857L1032.95 83.15L999.256 83.15L1035.43 147.49L1053.14 118.857Z" stroke="#B0D6D9" stroke-width="0.3"/>
<path d="M1053.14 248.857L1032.95 213.15L999.256 213.15L1035.43 277.49L1053.14 248.857Z" stroke="#B0D6D9" stroke-width="0.3"/>
<path d="M1161.14 -11.1435L1140.95 -46.85L1107.26 -46.85L1143.43 17.49L1161.14 -11.1435Z" stroke="#B0D6D9" stroke-width="0.3"/>
<path d="M1161.14 118.857L1140.95 83.15L1107.26 83.15L1143.43 147.49L1161.14 118.857Z" stroke="#B0D6D9" stroke-width="0.3"/>
<path d="M1161.14 248.857L1140.95 213.15L1107.26 213.15L1143.43 277.49L1161.14 248.857Z" stroke="#B0D6D9" stroke-width="0.3"/>
<path d="M1269.14 -11.1435L1248.95 -46.85L1215.26 -46.85L1251.43 17.49L1269.14 -11.1435Z" stroke="#B0D6D9" stroke-width="0.3"/>
<path d="M1269.14 118.857L1248.95 83.15L1215.26 83.15L1251.43 147.49L1269.14 118.857Z" stroke="#B0D6D9" stroke-width="0.3"/>
<path d="M1269.14 248.857L1248.95 213.15L1215.26 213.15L1251.43 277.49L1269.14 248.857Z" stroke="#B0D6D9" stroke-width="0.3"/>
<path d="M96.1354 53.8565L75.9457 18.15L42.2564 18.15L78.4279 82.49L96.1354 53.8565Z" stroke="#B0D6D9" stroke-width="0.3"/>
<path d="M96.1354 183.857L75.9457 148.15L42.2564 148.15L78.4279 212.49L96.1354 183.857Z" stroke="#B0D6D9" stroke-width="0.3"/>
<path d="M96.1354 313.857L75.9457 278.15L42.2564 278.15L78.4279 342.49L96.1354 313.857Z" stroke="#B0D6D9" stroke-width="0.3"/>
<path d="M204.135 53.8565L183.946 18.15L150.256 18.15L186.428 82.49L204.135 53.8565Z" stroke="#B0D6D9" stroke-width="0.3"/>
<path d="M204.135 183.857L183.946 148.15L150.256 148.15L186.428 212.49L204.135 183.857Z" stroke="#B0D6D9" stroke-width="0.3"/>
<path d="M204.135 313.857L183.946 278.15L150.256 278.15L186.428 342.49L204.135 313.857Z" stroke="#B0D6D9" stroke-width="0.3"/>
<path d="M312.135 53.8565L291.946 18.15L258.256 18.15L294.428 82.49L312.135 53.8565Z" stroke="#B0D6D9" stroke-width="0.3"/>
<path d="M312.135 183.857L291.946 148.15L258.256 148.15L294.428 212.49L312.135 183.857Z" stroke="#B0D6D9" stroke-width="0.3"/>
<path d="M312.135 313.857L291.946 278.15L258.256 278.15L294.428 342.49L312.135 313.857Z" stroke="#B0D6D9" stroke-width="0.3"/>
<path d="M420.135 53.8565L399.946 18.15L366.256 18.15L402.428 82.49L420.135 53.8565Z" stroke="#B0D6D9" stroke-width="0.3"/>
<path d="M420.135 183.857L399.946 148.15L366.256 148.15L402.428 212.49L420.135 183.857Z" stroke="#B0D6D9" stroke-width="0.3"/>
<path d="M420.135 313.857L399.946 278.15L366.256 278.15L402.428 342.49L420.135 313.857Z" stroke="#B0D6D9" stroke-width="0.3"/>
<path d="M528.135 53.8565L507.946 18.15L474.256 18.15L510.428 82.49L528.135 53.8565Z" stroke="#B0D6D9" stroke-width="0.3"/>
<path d="M528.135 183.857L507.946 148.15L474.256 148.15L510.428 212.49L528.135 183.857Z" stroke="#B0D6D9" stroke-width="0.3"/>
<path d="M528.135 313.857L507.946 278.15L474.256 278.15L510.428 342.49L528.135 313.857Z" stroke="#B0D6D9" stroke-width="0.3"/>
<path d="M636.135 53.8565L615.946 18.15L582.256 18.15L618.428 82.49L636.135 53.8565Z" stroke="#B0D6D9" stroke-width="0.3"/>
<path d="M636.135 183.857L615.946 148.15L582.256 148.15L618.428 212.49L636.135 183.857Z" stroke="#B0D6D9" stroke-width="0.3"/>
<path d="M636.135 313.857L615.946 278.15L582.256 278.15L618.428 342.49L636.135 313.857Z" stroke="#B0D6D9" stroke-width="0.3"/>
<path d="M744.135 53.8565L723.946 18.15L690.256 18.15L726.428 82.49L744.135 53.8565Z" stroke="#B0D6D9" stroke-width="0.3"/>
<path d="M744.135 183.857L723.946 148.15L690.256 148.15L726.428 212.49L744.135 183.857Z" stroke="#B0D6D9" stroke-width="0.3"/>
<path d="M744.135 313.857L723.946 278.15L690.256 278.15L726.428 342.49L744.135 313.857Z" stroke="#B0D6D9" stroke-width="0.3"/>
<path d="M852.135 53.8565L831.946 18.15L798.256 18.15L834.428 82.49L852.135 53.8565Z" stroke="#B0D6D9" stroke-width="0.3"/>
<path d="M852.135 183.857L831.946 148.15L798.256 148.15L834.428 212.49L852.135 183.857Z" stroke="#B0D6D9" stroke-width="0.3"/>
<path d="M852.135 313.857L831.946 278.15L798.256 278.15L834.428 342.49L852.135 313.857Z" stroke="#B0D6D9" stroke-width="0.3"/>
<path d="M960.135 53.8565L939.946 18.15L906.256 18.15L942.428 82.49L960.135 53.8565Z" stroke="#B0D6D9" stroke-width="0.3"/>
<path d="M960.135 183.857L939.946 148.15L906.256 148.15L942.428 212.49L960.135 183.857Z" stroke="#B0D6D9" stroke-width="0.3"/>
<path d="M960.135 313.857L939.946 278.15L906.256 278.15L942.428 342.49L960.135 313.857Z" stroke="#B0D6D9" stroke-width="0.3"/>
<path d="M1068.14 53.8565L1047.95 18.15L1014.26 18.15L1050.43 82.49L1068.14 53.8565Z" stroke="#B0D6D9" stroke-width="0.3"/>
<path d="M1068.14 183.857L1047.95 148.15L1014.26 148.15L1050.43 212.49L1068.14 183.857Z" stroke="#B0D6D9" stroke-width="0.3"/>
<path d="M1068.14 313.857L1047.95 278.15L1014.26 278.15L1050.43 342.49L1068.14 313.857Z" stroke="#B0D6D9" stroke-width="0.3"/>
<path d="M1176.14 53.8565L1155.95 18.15L1122.26 18.15L1158.43 82.49L1176.14 53.8565Z" stroke="#B0D6D9" stroke-width="0.3"/>
<path d="M1176.14 183.857L1155.95 148.15L1122.26 148.15L1158.43 212.49L1176.14 183.857Z" stroke="#B0D6D9" stroke-width="0.3"/>
<path d="M1176.14 313.857L1155.95 278.15L1122.26 278.15L1158.43 342.49L1176.14 313.857Z" stroke="#B0D6D9" stroke-width="0.3"/>
<path d="M1284.14 53.8565L1263.95 18.15L1230.26 18.15L1266.43 82.49L1284.14 53.8565Z" stroke="#B0D6D9" stroke-width="0.3"/>
<path d="M1284.14 183.857L1263.95 148.15L1230.26 148.15L1266.43 212.49L1284.14 183.857Z" stroke="#B0D6D9" stroke-width="0.3"/>
<path d="M1284.14 313.857L1263.95 278.15L1230.26 278.15L1266.43 342.49L1284.14 313.857Z" stroke="#B0D6D9" stroke-width="0.3"/>
<path d="M135.135 -18.0714L114.946 17.6352L81.2564 17.6352L117.428 -46.7049L135.135 -18.0714Z" stroke="#B0D6D9" stroke-width="0.3"/>
<path d="M135.135 111.929L114.946 147.635L81.2564 147.635L117.428 83.2951L135.135 111.929Z" stroke="#B0D6D9" stroke-width="0.3"/>
<path d="M135.135 241.929L114.946 277.635L81.2564 277.635L117.428 213.295L135.135 241.929Z" stroke="#B0D6D9" stroke-width="0.3"/>
<path d="M243.135 -18.0714L222.946 17.6352L189.256 17.6352L225.428 -46.7049L243.135 -18.0714Z" stroke="#B0D6D9" stroke-width="0.3"/>
<path d="M243.135 111.929L222.946 147.635L189.256 147.635L225.428 83.2951L243.135 111.929Z" stroke="#B0D6D9" stroke-width="0.3"/>
<path d="M243.135 241.929L222.946 277.635L189.256 277.635L225.428 213.295L243.135 241.929Z" stroke="#B0D6D9" stroke-width="0.3"/>
<path d="M351.135 -18.0714L330.946 17.6352L297.256 17.6352L333.428 -46.7049L351.135 -18.0714Z" stroke="#B0D6D9" stroke-width="0.3"/>
<path d="M351.135 111.929L330.946 147.635L297.256 147.635L333.428 83.2951L351.135 111.929Z" stroke="#B0D6D9" stroke-width="0.3"/>
<path d="M351.135 241.929L330.946 277.635L297.256 277.635L333.428 213.295L351.135 241.929Z" stroke="#B0D6D9" stroke-width="0.3"/>
<path d="M459.135 -18.0714L438.946 17.6352L405.256 17.6352L441.428 -46.7049L459.135 -18.0714Z" stroke="#B0D6D9" stroke-width="0.3"/>
<path d="M459.135 111.929L438.946 147.635L405.256 147.635L441.428 83.2951L459.135 111.929Z" stroke="#B0D6D9" stroke-width="0.3"/>
<path d="M459.135 241.929L438.946 277.635L405.256 277.635L441.428 213.295L459.135 241.929Z" stroke="#B0D6D9" stroke-width="0.3"/>
<path d="M567.135 -18.0714L546.946 17.6352L513.256 17.6352L549.428 -46.7049L567.135 -18.0714Z" stroke="#B0D6D9" stroke-width="0.3"/>
<path d="M567.135 111.929L546.946 147.635L513.256 147.635L549.428 83.2951L567.135 111.929Z" stroke="#B0D6D9" stroke-width="0.3"/>
<path d="M567.135 241.929L546.946 277.635L513.256 277.635L549.428 213.295L567.135 241.929Z" stroke="#B0D6D9" stroke-width="0.3"/>
<path d="M675.135 -18.0714L654.946 17.6352L621.256 17.6352L657.428 -46.7049L675.135 -18.0714Z" stroke="#B0D6D9" stroke-width="0.3"/>
<path d="M675.135 111.929L654.946 147.635L621.256 147.635L657.428 83.2951L675.135 111.929Z" stroke="#B0D6D9" stroke-width="0.3"/>
<path d="M675.135 241.929L654.946 277.635L621.256 277.635L657.428 213.295L675.135 241.929Z" stroke="#B0D6D9" stroke-width="0.3"/>
<path d="M783.135 -18.0714L762.946 17.6352L729.256 17.6352L765.428 -46.7049L783.135 -18.0714Z" stroke="#B0D6D9" stroke-width="0.3"/>
<path d="M783.135 111.929L762.946 147.635L729.256 147.635L765.428 83.2951L783.135 111.929Z" stroke="#B0D6D9" stroke-width="0.3"/>
<path d="M783.135 241.929L762.946 277.635L729.256 277.635L765.428 213.295L783.135 241.929Z" stroke="#B0D6D9" stroke-width="0.3"/>
<path d="M891.135 -18.0714L870.946 17.6352L837.256 17.6352L873.428 -46.7049L891.135 -18.0714Z" stroke="#B0D6D9" stroke-width="0.3"/>
<path d="M891.135 111.929L870.946 147.635L837.256 147.635L873.428 83.2951L891.135 111.929Z" stroke="#B0D6D9" stroke-width="0.3"/>
<path d="M891.135 241.929L870.946 277.635L837.256 277.635L873.428 213.295L891.135 241.929Z" stroke="#B0D6D9" stroke-width="0.3"/>
<path d="M999.135 -18.0714L978.946 17.6352L945.256 17.6352L981.428 -46.7049L999.135 -18.0714Z" stroke="#B0D6D9" stroke-width="0.3"/>
<path d="M999.135 111.929L978.946 147.635L945.256 147.635L981.428 83.2951L999.135 111.929Z" stroke="#B0D6D9" stroke-width="0.3"/>
<path d="M999.135 241.929L978.946 277.635L945.256 277.635L981.428 213.295L999.135 241.929Z" stroke="#B0D6D9" stroke-width="0.3"/>
<path d="M1107.14 -18.0714L1086.95 17.6352L1053.26 17.6352L1089.43 -46.7049L1107.14 -18.0714Z" stroke="#B0D6D9" stroke-width="0.3"/>
<path d="M1107.14 111.929L1086.95 147.635L1053.26 147.635L1089.43 83.2951L1107.14 111.929Z" stroke="#B0D6D9" stroke-width="0.3"/>
<path d="M1107.14 241.929L1086.95 277.635L1053.26 277.635L1089.43 213.295L1107.14 241.929Z" stroke="#B0D6D9" stroke-width="0.3"/>
<path d="M1215.14 -18.0714L1194.95 17.6352L1161.26 17.6352L1197.43 -46.7049L1215.14 -18.0714Z" stroke="#B0D6D9" stroke-width="0.3"/>
<path d="M1215.14 111.929L1194.95 147.635L1161.26 147.635L1197.43 83.2951L1215.14 111.929Z" stroke="#B0D6D9" stroke-width="0.3"/>
<path d="M1215.14 241.929L1194.95 277.635L1161.26 277.635L1197.43 213.295L1215.14 241.929Z" stroke="#B0D6D9" stroke-width="0.3"/>
<path d="M1323.14 -18.0714L1302.95 17.6352L1269.26 17.6352L1305.43 -46.7049L1323.14 -18.0714Z" stroke="#B0D6D9" stroke-width="0.3"/>
<path d="M1323.14 111.929L1302.95 147.635L1269.26 147.635L1305.43 83.2951L1323.14 111.929Z" stroke="#B0D6D9" stroke-width="0.3"/>
<path d="M1323.14 241.929L1302.95 277.635L1269.26 277.635L1305.43 213.295L1323.14 241.929Z" stroke="#B0D6D9" stroke-width="0.3"/>
</g>
<defs>
<clipPath id="clip0_1079_4758">
<rect width="1312" height="296" rx="16" fill="white"/>
</clipPath>
</defs>
</svg>
