<svg width="18" height="17" viewBox="0 0 18 17" fill="none" xmlns="http://www.w3.org/2000/svg">
<path d="M15.875 10.2917V13.8333C15.875 14.745 15.2192 15.53 14.315 15.65C12.5759 15.8808 10.8017 16 9.00005 16C7.19838 16 5.42421 15.8808 3.68505 15.65C2.78088 15.53 2.12505 14.745 2.12505 13.8333V10.2917M15.875 10.2917C16.0729 10.1197 16.2312 9.90696 16.3391 9.66803C16.447 9.4291 16.5019 9.16965 16.5 8.9075V5.755C16.5 4.85417 15.86 4.07583 14.9692 3.9425C14.0253 3.80118 13.0766 3.69361 12.125 3.62M15.875 10.2917C15.7134 10.4292 15.525 10.5375 15.3142 10.6083C13.2777 11.284 11.1457 11.6273 9.00005 11.625C6.79338 11.625 4.67088 11.2675 2.68588 10.6083C2.48026 10.5399 2.28982 10.4324 2.12505 10.2917M2.12505 10.2917C1.92717 10.1197 1.76885 9.90696 1.66096 9.66803C1.55308 9.4291 1.49818 9.16965 1.50005 8.9075V5.755C1.50005 4.85417 2.14005 4.07583 3.03088 3.9425C3.97479 3.80118 4.92345 3.69361 5.87505 3.62M12.125 3.62V2.875C12.125 2.37772 11.9275 1.90081 11.5759 1.54917C11.2242 1.19754 10.7473 1 10.25 1H7.75005C7.25277 1 6.77585 1.19754 6.42422 1.54917C6.07259 1.90081 5.87505 2.37772 5.87505 2.875V3.62M12.125 3.62C10.0448 3.45923 7.95528 3.45923 5.87505 3.62M9.00005 9.125H9.00671V9.13167H9.00005V9.125Z" stroke="#76888A" stroke-width="1.25" stroke-linecap="round" stroke-linejoin="round"/>
</svg>
