<svg width="16" height="15" viewBox="0 0 16 15" fill="none" xmlns="http://www.w3.org/2000/svg">
<path fill-rule="evenodd" clip-rule="evenodd" d="M7.99959 3.5C5.79045 3.5 3.99959 5.29086 3.99959 7.5C3.99959 9.70914 5.79045 11.5 7.99959 11.5C10.2087 11.5 11.9996 9.70914 11.9996 7.5C11.9996 5.29086 10.2087 3.5 7.99959 3.5ZM5.33292 7.5C5.33292 6.02724 6.52683 4.83334 7.99959 4.83334C9.47235 4.83334 10.6663 6.02724 10.6663 7.5C10.6663 8.97276 9.47235 10.1667 7.99959 10.1667C6.52683 10.1667 5.33292 8.97276 5.33292 7.5Z" fill="#76888A"/>
<path fill-rule="evenodd" clip-rule="evenodd" d="M9.66746 0.852603C8.73751 -0.0470286 7.26166 -0.0470286 6.33171 0.852603C6.09551 1.0811 5.76708 1.18782 5.44168 1.14179C4.16055 0.960583 2.96656 1.82807 2.74301 3.10249C2.68623 3.42619 2.48324 3.70557 2.19294 3.8596C1.04997 4.46603 0.593903 5.86965 1.16213 7.03208C1.30646 7.32734 1.30646 7.67267 1.16213 7.96792C0.593903 9.13035 1.04997 10.534 2.19294 11.1404C2.48324 11.2944 2.68623 11.5738 2.74301 11.8975C2.96656 13.1719 4.16055 14.0394 5.44168 13.8582C5.76708 13.8122 6.09551 13.9189 6.33171 14.1474C7.26166 15.047 8.73751 15.047 9.66746 14.1474C9.90366 13.9189 10.2321 13.8122 10.5575 13.8582C11.8386 14.0394 13.0326 13.1719 13.2562 11.8975C13.3129 11.5738 13.5159 11.2944 13.8062 11.1404C14.9492 10.534 15.4053 9.13035 14.837 7.96792C14.6927 7.67267 14.6927 7.32734 14.837 7.03208C15.4053 5.86965 14.9492 4.46603 13.8062 3.8596C13.5159 3.70557 13.3129 3.42619 13.2562 3.10249C13.0326 1.82807 11.8386 0.960583 10.5575 1.14179C10.2321 1.18782 9.90366 1.0811 9.66746 0.852603ZM7.25877 1.8109C7.67182 1.41132 8.32735 1.41132 8.7404 1.8109C9.27218 2.32535 10.0116 2.56561 10.7442 2.46198C11.3133 2.3815 11.8436 2.76681 11.9429 3.33286C12.0707 4.06164 12.5277 4.69063 13.1813 5.03742C13.689 5.30677 13.8916 5.93022 13.6392 6.44653C13.3142 7.11126 13.3142 7.88875 13.6392 8.55348C13.8916 9.06979 13.689 9.69323 13.1813 9.96259C12.5277 10.3094 12.0707 10.9384 11.9429 11.6671C11.8436 12.2332 11.3133 12.6185 10.7442 12.538C10.0116 12.4344 9.27218 12.6747 8.7404 13.1891C8.32735 13.5887 7.67182 13.5887 7.25877 13.1891C6.72699 12.6747 5.98756 12.4344 5.25495 12.538C4.68591 12.6185 4.15558 12.2332 4.05629 11.6671C3.92845 10.9384 3.47146 10.3094 2.81786 9.96259C2.31019 9.69323 2.10762 9.06979 2.36001 8.55348C2.68495 7.88875 2.68495 7.11126 2.36001 6.44653C2.10762 5.93022 2.31019 5.30677 2.81786 5.03742C3.47146 4.69063 3.92845 4.06164 4.05629 3.33286C4.15558 2.76681 4.68591 2.3815 5.25495 2.46198C5.98756 2.56561 6.72699 2.32535 7.25877 1.8109Z" fill="#76888A"/>
</svg>
