<svg width="18" height="16" viewBox="0 0 18 16" fill="none" xmlns="http://www.w3.org/2000/svg">
<path d="M13.2148 10.4342C13.6046 10.168 14.0619 10.0176 14.5336 10.0004C15.0053 9.98317 15.4723 10.0999 15.8805 10.337C16.2887 10.5741 16.6214 10.922 16.8401 11.3403C17.0588 11.7586 17.1546 12.2303 17.1165 12.7008C16.1166 13.0503 15.0546 13.1863 13.999 13.1C13.9957 12.1555 13.7237 11.2306 13.2148 10.435C12.7631 9.72649 12.1399 9.14336 11.403 8.73959C10.6661 8.33581 9.83925 8.12443 8.99897 8.125C8.15884 8.12457 7.33216 8.33602 6.59541 8.73979C5.85866 9.14356 5.23564 9.72661 4.78397 10.435M13.9981 13.0992L13.999 13.125C13.999 13.3125 13.989 13.4975 13.9681 13.68C12.4559 14.5476 10.7424 15.0028 8.99897 15C7.19064 15 5.49314 14.52 4.0298 13.68C4.00838 13.4871 3.99808 13.2932 3.99897 13.0992M3.99897 13.0992C2.94366 13.1886 1.88223 13.0531 0.883137 12.7017C0.845096 12.2313 0.940966 11.7598 1.15966 11.3416C1.37836 10.9234 1.71094 10.5757 2.11897 10.3386C2.527 10.1015 2.9938 9.98471 3.4654 10.0018C3.937 10.0188 4.39415 10.169 4.78397 10.435M3.99897 13.0992C4.00196 12.1548 4.27532 11.2307 4.78397 10.435M11.499 3.125C11.499 3.78804 11.2356 4.42393 10.7667 4.89277C10.2979 5.36161 9.66201 5.625 8.99897 5.625C8.33593 5.625 7.70004 5.36161 7.2312 4.89277C6.76236 4.42393 6.49897 3.78804 6.49897 3.125C6.49897 2.46196 6.76236 1.82607 7.2312 1.35723C7.70004 0.888392 8.33593 0.625 8.99897 0.625C9.66201 0.625 10.2979 0.888392 10.7667 1.35723C11.2356 1.82607 11.499 2.46196 11.499 3.125ZM16.499 5.625C16.499 5.87123 16.4505 6.11505 16.3562 6.34253C16.262 6.57002 16.1239 6.77672 15.9498 6.95083C15.7757 7.12494 15.569 7.26305 15.3415 7.35727C15.114 7.4515 14.8702 7.5 14.624 7.5C14.3777 7.5 14.1339 7.4515 13.9064 7.35727C13.679 7.26305 13.4723 7.12494 13.2981 6.95083C13.124 6.77672 12.9859 6.57002 12.8917 6.34253C12.7975 6.11505 12.749 5.87123 12.749 5.625C12.749 5.12772 12.9465 4.65081 13.2981 4.29918C13.6498 3.94754 14.1267 3.75 14.624 3.75C15.1213 3.75 15.5982 3.94754 15.9498 4.29918C16.3014 4.65081 16.499 5.12772 16.499 5.625ZM5.24897 5.625C5.24897 5.87123 5.20047 6.11505 5.10624 6.34253C5.01202 6.57002 4.87391 6.77672 4.6998 6.95083C4.52569 7.12494 4.31899 7.26305 4.0915 7.35727C3.86402 7.4515 3.6202 7.5 3.37397 7.5C3.12774 7.5 2.88392 7.4515 2.65644 7.35727C2.42895 7.26305 2.22225 7.12494 2.04815 6.95083C1.87404 6.77672 1.73592 6.57002 1.6417 6.34253C1.54747 6.11505 1.49897 5.87123 1.49897 5.625C1.49897 5.12772 1.69651 4.65081 2.04815 4.29918C2.39978 3.94754 2.87669 3.75 3.37397 3.75C3.87125 3.75 4.34816 3.94754 4.6998 4.29918C5.05143 4.65081 5.24897 5.12772 5.24897 5.625Z" stroke="#76888A" stroke-width="1.25" stroke-linecap="round" stroke-linejoin="round"/>
</svg>
