<svg xmlns="http://www.w3.org/2000/svg" width="16" height="17" viewBox="0 0 16 17" fill="none">
  <path fill-rule="evenodd" clip-rule="evenodd" d="M7.99959 4.5C5.79045 4.5 3.99959 6.29086 3.99959 8.5C3.99959 10.7091 5.79045 12.5 7.99959 12.5C10.2087 12.5 11.9996 10.7091 11.9996 8.5C11.9996 6.29086 10.2087 4.5 7.99959 4.5ZM5.33292 8.5C5.33292 7.02724 6.52683 5.83334 7.99959 5.83334C9.47235 5.83334 10.6663 7.02724 10.6663 8.5C10.6663 9.97276 9.47235 11.1667 7.99959 11.1667C6.52683 11.1667 5.33292 9.97276 5.33292 8.5Z" fill="#76888A"/>
  <path fill-rule="evenodd" clip-rule="evenodd" d="M9.66746 1.8526C8.73751 0.952971 7.26166 0.952971 6.33171 1.8526C6.09551 2.0811 5.76708 2.18782 5.44168 2.14179C4.16055 1.96058 2.96656 2.82807 2.74301 4.10249C2.68623 4.42619 2.48324 4.70557 2.19294 4.8596C1.04997 5.46603 0.593903 6.86965 1.16213 8.03208C1.30646 8.32734 1.30646 8.67267 1.16213 8.96792C0.593903 10.1304 1.04997 11.534 2.19294 12.1404C2.48324 12.2944 2.68623 12.5738 2.74301 12.8975C2.96656 14.1719 4.16055 15.0394 5.44168 14.8582C5.76708 14.8122 6.09551 14.9189 6.33171 15.1474C7.26166 16.047 8.73751 16.047 9.66746 15.1474C9.90366 14.9189 10.2321 14.8122 10.5575 14.8582C11.8386 15.0394 13.0326 14.1719 13.2562 12.8975C13.3129 12.5738 13.5159 12.2944 13.8062 12.1404C14.9492 11.534 15.4053 10.1304 14.837 8.96792C14.6927 8.67267 14.6927 8.32734 14.837 8.03208C15.4053 6.86965 14.9492 5.46603 13.8062 4.8596C13.5159 4.70557 13.3129 4.42619 13.2562 4.10249C13.0326 2.82807 11.8386 1.96058 10.5575 2.14179C10.2321 2.18782 9.90366 2.0811 9.66746 1.8526ZM7.25877 2.8109C7.67182 2.41132 8.32735 2.41132 8.7404 2.8109C9.27218 3.32535 10.0116 3.56561 10.7442 3.46198C11.3133 3.3815 11.8436 3.76681 11.9429 4.33286C12.0707 5.06164 12.5277 5.69063 13.1813 6.03742C13.689 6.30677 13.8916 6.93022 13.6392 7.44653C13.3142 8.11126 13.3142 8.88875 13.6392 9.55348C13.8916 10.0698 13.689 10.6932 13.1813 10.9626C12.5277 11.3094 12.0707 11.9384 11.9429 12.6671C11.8436 13.2332 11.3133 13.6185 10.7442 13.538C10.0116 13.4344 9.27218 13.6747 8.7404 14.1891C8.32735 14.5887 7.67182 14.5887 7.25877 14.1891C6.72699 13.6747 5.98756 13.4344 5.25495 13.538C4.68591 13.6185 4.15558 13.2332 4.05629 12.6671C3.92845 11.9384 3.47146 11.3094 2.81786 10.9626C2.31019 10.6932 2.10762 10.0698 2.36001 9.55348C2.68495 8.88875 2.68495 8.11126 2.36001 7.44653C2.10762 6.93022 2.31019 6.30677 2.81786 6.03742C3.47146 5.69063 3.92845 5.06164 4.05629 4.33286C4.15558 3.76681 4.68591 3.3815 5.25495 3.46198C5.98756 3.56561 6.72699 3.32535 7.25877 2.8109Z" fill="#76888A"/>
</svg>