<svg width="18" height="17" viewBox="0 0 18 17" fill="none" xmlns="http://www.w3.org/2000/svg">
<path d="M10.249 16V9.75C10.249 9.58424 10.3149 9.42527 10.4321 9.30806C10.5493 9.19085 10.7083 9.125 10.874 9.125H13.374C13.5398 9.125 13.6988 9.19085 13.816 9.30806C13.9332 9.42527 13.999 9.58424 13.999 9.75V16M10.249 16H0.965703M10.249 16H13.999M13.999 16H17.0324M15.874 16V6.29083M15.874 6.29083C15.3741 6.57925 14.7898 6.68587 14.2202 6.59261C13.6507 6.49935 13.1309 6.21196 12.749 5.77917C12.2907 6.2975 11.6207 6.625 10.874 6.625C10.5193 6.62534 10.1685 6.55 9.84517 6.40399C9.52184 6.25799 9.23338 6.04469 8.99904 5.77833C8.5407 6.2975 7.8707 6.625 7.12404 6.625C6.76927 6.62534 6.41851 6.55 6.09517 6.40399C5.77184 6.25799 5.48338 6.04469 5.24904 5.77833C4.8673 6.21126 4.34757 6.49881 3.77799 6.59223C3.20841 6.68564 2.62405 6.57915 2.12404 6.29083M15.874 6.29083C16.2062 6.09909 16.4898 5.83349 16.7029 5.51459C16.9159 5.1957 17.0528 4.83205 17.1028 4.45179C17.1529 4.07154 17.1147 3.68487 16.9914 3.32171C16.868 2.95855 16.6628 2.62864 16.3915 2.3575L15.3999 1.36667C15.1657 1.13218 14.8479 1.00029 14.5165 1H3.4807C3.14941 1.00007 2.8317 1.13165 2.59737 1.36583L1.60654 2.3575C1.3359 2.62895 1.13121 2.95892 1.00826 3.32198C0.885305 3.68503 0.847365 4.07148 0.897366 4.45151C0.947367 4.83155 1.08397 5.19503 1.29665 5.51393C1.50933 5.83283 1.7924 6.09862 2.12404 6.29083M2.12404 16V6.29083M4.62404 13.5H7.74904C7.9148 13.5 8.07377 13.4342 8.19098 13.3169C8.30819 13.1997 8.37404 13.0408 8.37404 12.875V9.75C8.37404 9.58424 8.30819 9.42527 8.19098 9.30806C8.07377 9.19085 7.9148 9.125 7.74904 9.125H4.62404C4.45828 9.125 4.2993 9.19085 4.18209 9.30806C4.06488 9.42527 3.99904 9.58424 3.99904 9.75V12.875C3.99904 13.22 4.27904 13.5 4.62404 13.5Z" stroke="#76888A" stroke-width="1.25" stroke-linecap="round" stroke-linejoin="round"/>
</svg>
