<svg width="16" height="18" viewBox="0 0 16 18" fill="none" xmlns="http://www.w3.org/2000/svg">
<path fill-rule="evenodd" clip-rule="evenodd" d="M8.80208 0.904537C8.75186 0.837237 8.6886 0.780747 8.61606 0.738441C8.54353 0.696134 8.46321 0.668877 8.37991 0.658299C8.2966 0.647721 8.21202 0.654038 8.13122 0.676873C8.05041 0.699707 7.97503 0.738592 7.90958 0.791204C6.31254 2.07335 5.2591 3.91173 4.96042 5.93787C4.41306 5.54095 3.93329 5.05837 3.53958 4.5087C3.48611 4.43396 3.41681 4.37192 3.33662 4.32702C3.25642 4.28212 3.16732 4.25545 3.07564 4.24893C2.98397 4.2424 2.89198 4.25618 2.80624 4.28927C2.7205 4.32236 2.64311 4.37395 2.57958 4.44037C1.47902 5.59167 0.773538 7.06344 0.565339 8.64249C0.357141 10.2215 0.657035 11.8259 1.42158 13.2231C2.18612 14.6203 3.37562 15.7378 4.81776 16.4138C6.25989 17.0898 7.87979 17.2892 9.4428 16.983C11.0058 16.6768 12.4308 15.881 13.5112 14.7108C14.5917 13.5407 15.2716 12.0569 15.4525 10.4745C15.6333 8.89207 15.3057 7.29317 14.5171 5.90939C13.7285 4.52562 12.5199 3.42882 11.0663 2.77787C10.1727 2.34335 9.39625 1.70095 8.80208 0.904537ZM11.1246 10.8745C11.1243 11.3266 11.0259 11.7731 10.8363 12.1835C10.6466 12.5938 10.3702 12.9581 10.0261 13.2512C9.68202 13.5443 9.27843 13.7593 8.84318 13.8814C8.40794 14.0034 7.9514 14.0295 7.50507 13.958C7.05874 13.8865 6.63324 13.719 6.25793 13.467C5.88262 13.2151 5.56642 12.8848 5.33117 12.4988C5.09591 12.1128 4.94719 11.6804 4.89527 11.2313C4.84335 10.7823 4.88946 10.3274 5.03042 9.89787C5.55375 10.2854 6.15542 10.5729 6.80792 10.7312C6.98482 9.59033 7.55172 8.54605 8.41208 7.7762C9.16292 7.87619 9.85189 8.24549 10.3508 8.81541C10.8498 9.38533 11.1247 10.1171 11.1246 10.8745Z" fill="#007A86"/>
</svg>
