<svg xmlns="http://www.w3.org/2000/svg" width="13" height="13" viewBox="0 0 13 13" fill="none">
  <g clip-path="url(#clip0_637_10154)">
    <path fill-rule="evenodd" clip-rule="evenodd" d="M6.39982 1.7001C3.4543 1.7001 1.06648 4.08791 1.06648 7.03343V8.62496C1.06638 8.63106 1.06638 8.63714 1.06648 8.64321V9.91971C1.06648 10.6821 1.68451 11.3001 2.44688 11.3001C3.20925 11.3001 3.82727 10.6821 3.82727 9.91971V8.76712C3.82727 7.73152 2.91268 7.25184 2.13315 7.41091V7.03343C2.13315 4.67702 4.0434 2.76676 6.39982 2.76676C8.75623 2.76676 10.6665 4.67702 10.6665 7.03343V7.40527C9.88718 7.24599 8.97237 7.72419 8.97237 8.76084V9.91971C8.97237 10.1738 9.04103 10.4119 9.16082 10.6164C8.68874 10.8511 8.04456 11.0335 7.19982 11.0335C6.90527 11.0335 6.66648 11.2722 6.66648 11.5668C6.66648 11.8613 6.90527 12.1001 7.19982 12.1001C8.50323 12.1001 9.46942 11.7324 10.1312 11.2824C10.2034 11.2941 10.2774 11.3001 10.3528 11.3001C11.1151 11.3001 11.7332 10.6821 11.7332 9.91971V8.64292C11.7332 8.63705 11.7332 8.63117 11.7332 8.62526V7.03343C11.7332 4.08791 9.34534 1.7001 6.39982 1.7001ZM10.2675 10.2217C10.2946 10.2293 10.3232 10.2334 10.3528 10.2334C10.526 10.2334 10.6665 10.093 10.6665 9.91971V8.68049C10.6446 8.57982 10.5992 8.52879 10.5578 8.49909C10.5039 8.46044 10.4243 8.4364 10.3337 8.44322C10.243 8.45003 10.1679 8.4857 10.1204 8.53199C10.0801 8.57121 10.039 8.63681 10.039 8.76084V9.91971C10.039 10.0366 10.103 10.1386 10.1979 10.1926C10.2216 10.2006 10.2449 10.2103 10.2675 10.2217ZM2.13315 9.91971V8.68286C2.15586 8.58386 2.20113 8.53344 2.2426 8.50401C2.29676 8.4656 2.37636 8.44198 2.4667 8.44911C2.55703 8.45624 2.63194 8.49205 2.67941 8.53849C2.71973 8.57793 2.7606 8.64364 2.7606 8.76712V9.91971C2.7606 10.093 2.62014 10.2334 2.44688 10.2334C2.27361 10.2334 2.13315 10.093 2.13315 9.91971Z" fill="#76888A"/>
  </g>
  <defs>
    <clipPath id="clip0_637_10154">
      <rect width="12.8" height="12.8" fill="white" transform="translate(0 0.1)"/>
    </clipPath>
  </defs>
</svg>