<svg width="101" height="101" viewBox="0 0 101 101" fill="none" xmlns="http://www.w3.org/2000/svg">
<path fill-rule="evenodd" clip-rule="evenodd" d="M50.5 100.146C78.1142 100.146 100.5 77.76 100.5 50.1457C100.5 22.5315 78.1142 0.145752 50.5 0.145752C22.8858 0.145752 0.5 22.5315 0.5 50.1457C0.5 77.76 22.8858 100.146 50.5 100.146Z" fill="#007A86"/>
<mask id="mask0_711_7591" style="mask-type:luminance" maskUnits="userSpaceOnUse" x="0" y="0" width="101" height="101">
<path fill-rule="evenodd" clip-rule="evenodd" d="M50.5 100.146C78.1142 100.146 100.5 77.76 100.5 50.1457C100.5 22.5315 78.1142 0.145752 50.5 0.145752C22.8858 0.145752 0.5 22.5315 0.5 50.1457C0.5 77.76 22.8858 100.146 50.5 100.146Z" fill="white"/>
</mask>
<g mask="url(#mask0_711_7591)">
<path fill-rule="evenodd" clip-rule="evenodd" d="M70.9697 84.0752C70.043 83.7457 69.1498 83.3652 68.336 82.8055C65.99 81.0643 64.4604 78.4439 63.015 75.9612C60.9791 72.3504 59.5287 68.5028 58.5261 64.4889C58.0953 62.7644 57.949 60.765 56.9702 59.236C54.7514 56.0347 48.245 56.4494 44.7901 57.0114C42.4765 57.4196 41.9983 60.0013 41.4728 61.9117C41.0353 63.4991 40.7489 65.1044 40.5085 66.7312C39.9365 67.1062 39.2907 67.4108 38.6752 67.676C31.9671 69.7271 30.7882 73.5296 28.226 79.4033C23.8986 87.9406 12.1561 91.2833 10.3824 101.387C9.23958 108.057 12.4894 114.333 15.8399 119.878C18.9603 125.935 23.3166 128.842 30.254 127.411C36.761 125.956 43.0146 123.521 49.4071 121.639C52.5032 120.88 55.5944 118.906 58.8513 119.594C65.5621 121.097 72.4571 121.804 79.3345 121.609C88.9906 121.998 88.9891 112.757 87.998 105.6C87.3038 94.4633 81.6703 87.312 70.9697 84.0752Z" fill="#D08B5B"/>
<path fill-rule="evenodd" clip-rule="evenodd" d="M71.6151 100.191C72.422 100.723 73.1006 101.529 73.6454 102.378C71.3711 102.142 69.1007 101.87 66.8353 101.561C67.1319 101.372 67.4312 101.187 67.7374 101.012C68.8544 100.385 70.3678 99.3683 71.6151 100.191ZM33.8287 106.894C33.412 106.732 33.2507 106.098 33.0883 105.735C32.579 104.596 32.1143 103.438 31.6308 102.288C33.4667 101.766 35.2521 101.187 37.1539 100.909C39.1989 100.61 41.2741 100.538 43.338 100.605C47.5185 100.741 51.6601 101.422 55.7702 102.152C59.8754 102.882 63.9805 103.583 68.1144 104.133C72.1646 104.672 76.2276 105.067 80.2981 105.413C81.089 105.48 82.4077 105.764 83.0437 105.143C83.5473 104.652 83.5637 103.745 82.9335 103.346C82.541 103.097 81.9723 103.093 81.5239 103.036C80.9591 102.963 80.3922 102.915 79.824 102.877C79.5925 102.862 79.3611 102.848 79.1295 102.834C80.9882 102.135 82.9294 101.754 84.9444 101.86C85.0584 102.551 85.5718 103.261 85.8528 103.83C86.3435 104.824 86.726 105.83 86.9771 106.911C87.5019 109.17 87.5247 111.514 87.3765 113.818C87.2403 115.739 86.9478 117.864 85.4367 119.224C84.2926 120.254 82.6784 120.636 81.1809 120.755C79.4404 120.895 77.6729 120.746 75.947 120.513C73.5263 120.187 71.0942 119.755 68.7211 119.177C64.1247 118.057 59.7191 116.274 55.6544 113.857C53.6722 112.679 51.7807 111.353 49.7713 110.219C47.7237 109.064 45.545 108.167 43.2572 107.611C40.697 106.988 38.0206 106.722 35.3892 106.876C34.9326 106.903 34.2728 107.068 33.8287 106.894ZM30.8618 105.738C31.1308 106.608 31.3367 107.602 31.9109 108.334C32.4797 109.059 33.3378 109.315 34.2267 109.379C35.2986 109.457 36.383 109.407 37.4572 109.447C39.6604 109.528 41.8333 109.885 43.9395 110.54C45.9022 111.15 47.7241 112.101 49.4792 113.157C51.1021 114.133 52.6775 115.181 54.3009 116.154C53.8688 116.352 53.4416 116.566 53.0121 116.752C52.1112 117.142 51.2048 117.518 50.2943 117.885C48.4988 118.609 46.6957 119.315 44.8742 119.971C41.2012 121.293 37.4679 122.449 33.6896 123.433C31.8876 123.902 30.06 124.451 28.1879 124.529C26.5278 124.598 24.9902 124.13 23.6513 123.146C20.8744 121.105 18.665 118.158 16.879 115.252C15.818 113.525 14.892 111.711 14.1261 109.835C13.7387 108.886 13.3874 107.923 13.0712 106.948C12.9229 106.491 12.7822 106.031 12.649 105.568C12.5904 105.365 12.5343 105.161 12.4787 104.957C15.3183 104.093 18.1916 103.313 21.1324 102.88C22.7025 102.649 24.2935 102.532 25.8808 102.549C26.6687 102.557 27.4562 102.6 28.2399 102.681C28.6617 102.724 29.0819 102.781 29.5002 102.85C29.6731 102.879 29.8508 102.921 30.029 102.952C30.3012 103.882 30.5757 104.812 30.8618 105.738ZM89.5599 102.04C89.7129 101.731 89.7775 101.427 89.8323 101.091C89.8742 100.835 89.9852 100.474 89.8879 100.141C89.7791 99.7684 89.4825 99.435 89.2696 99.1171C89.0345 98.7657 88.7997 98.4141 88.5651 98.0623C88.0959 97.3588 87.6277 96.6547 87.1603 95.9501C85.2515 93.0726 83.3557 90.1868 81.4569 87.3029C79.7718 84.7436 78.1152 82.1613 76.3788 79.6364C74.8941 77.4773 73.2757 75.3538 71.2434 73.6747C68.6738 71.5515 65.6141 70.5514 62.418 69.771C62.069 69.4097 61.6027 69.2124 61.1044 69.2524C60.4003 68.4561 59.8406 67.8999 59.587 66.8873C59.4654 66.4023 59.5035 65.0395 59.0298 64.7525C58.4671 64.4116 58.1732 64.8628 58.018 65.3714C57.4989 67.0729 58.0948 69.3605 59.4661 71.0649C58.8883 73.056 58.1223 75.8857 56.7558 77.4808C55.2925 79.1888 53.2689 79.7204 51.0855 79.7554C46.9216 79.8223 42.7622 78.2792 39.5862 75.6049C38.6209 74.7921 37.7243 73.8843 36.9132 72.9188C36.3048 72.1945 35.5851 71.0766 35.1092 70.2317C35.1092 69.9025 34.7193 69.5581 38.6884 69.2921C42.6575 69.0261 42.9585 63.6069 43.0468 62.8693C43.1185 62.2705 43.4235 61.3408 43.0003 60.8525C42.8207 60.6451 42.4521 60.6117 42.2243 60.7526C41.7949 61.0185 41.6538 61.6985 41.5188 62.1602C41.3297 62.8071 40.7115 66.8217 39.5401 67.2865C38.9917 67.5041 38.3627 67.5081 37.7826 67.5483C37.0662 67.5983 36.3484 67.6348 35.6349 67.7179C35.3717 67.7485 35.0846 67.8334 34.825 67.8359C34.6561 67.8375 34.4818 67.7556 34.3185 67.6982C33.7674 67.504 33.2168 67.6497 32.6491 67.7257C27.6296 68.3984 22.4612 69.9336 18.1798 72.6959C14.4061 75.1306 11.7475 78.632 9.9932 82.7259C8.20326 86.9038 7.17729 91.4217 6.31749 95.8693C6.02946 97.3595 5.77793 98.8566 5.56183 100.359C5.35299 101.81 5.09175 103.294 5.02921 104.761C5.00446 105.341 5.14351 105.88 5.35747 106.41C5.59843 107.006 6.16798 107.241 6.71425 107.52C7.91342 108.131 9.17843 108.606 10.4817 108.942C11.278 110.386 11.948 111.887 12.4865 113.444C12.2867 113.839 12.2826 114.428 12.2442 114.812C12.1489 115.767 12.1081 116.727 12.0996 117.687C12.0824 119.61 12.1984 121.532 12.2893 123.452C12.3815 125.4 12.688 133.085 12.7379 134.023C12.7768 134.752 12.7245 135.772 13.1096 136.419C13.7015 137.414 15.1622 137.381 15.8388 136.574C32.6491 140.178 64.2477 139.092 76.974 137.279C78.6298 137.043 78.1098 137.305 78.5309 136.888C78.8469 136.575 79.1159 136.038 79.2032 135.607C79.32 135.032 79.1315 134.511 78.8011 134.045C78.4538 133.556 78.3905 132.763 78.2615 132.181C77.9564 130.805 77.8047 124.762 77.6622 124.092C77.6178 123.883 77.5748 123.663 77.5229 123.442C79.8573 123.663 82.2897 123.663 84.5105 122.884C85.7699 122.443 86.9444 121.749 87.8485 120.759C88.9432 119.56 89.5522 118.051 89.8654 116.475C90.2696 114.444 90.3554 112.34 90.276 110.274C90.1656 107.834 89.7597 105.359 88.7521 103.118C89.0836 102.811 89.3615 102.44 89.5599 102.04Z" fill="black"/>
<path fill-rule="evenodd" clip-rule="evenodd" d="M69.1304 42.172C69.088 39.7882 69.0412 37.3567 68.6866 34.9961C68.3398 32.6882 67.386 30.6022 65.7469 28.9263C62.2654 25.3665 57.2188 24.497 52.5213 23.7002L44.4899 22.3378C42.0397 21.9223 39.4256 21.2581 36.95 21.8474C35.7302 22.1378 34.6943 22.8124 33.7474 23.6106C32.8348 24.38 31.8536 25.2062 31.2352 26.2412C30.6158 27.2778 30.4027 28.4895 30.2013 29.6618C29.9742 30.9835 29.7977 32.3156 29.6724 33.6508C29.4212 36.326 29.3869 39.0213 29.5691 41.702C29.6574 43.0023 29.7978 44.2988 29.9772 45.5896C30.0661 46.2296 30.1666 46.8681 30.2801 47.5043C30.3136 47.6919 30.339 47.8996 30.3733 48.1095C30.12 48.8295 29.976 49.5751 29.9876 50.3175C30.0218 52.5045 31.8691 53.8813 33.7314 54.6206C34.8112 55.0492 35.9401 55.3404 37.0011 55.8193C38.1172 56.3229 38.8769 57.1394 39.64 58.0709C41.0954 59.8473 42.7378 61.4439 44.6132 62.7759C48.5894 65.6002 53.6255 66.936 58.45 65.9221C59.6075 65.6788 60.7753 65.3011 61.8158 64.7319C62.9144 64.131 63.7404 63.2602 64.4341 62.2307C65.7221 60.3194 66.6458 58.1673 67.3446 55.9772C68.0573 53.7432 68.5633 51.5052 68.8392 49.1757C69.1141 46.8538 69.1721 44.5083 69.1304 42.172Z" fill="#D08B5B"/>
<path fill-rule="evenodd" clip-rule="evenodd" d="M43.5014 14.0339C46.825 13.5771 51.4123 15.0618 53.0675 18.0556C60.9697 16.1941 70.9365 16.1331 77.4495 22.3302C84.2457 29.6813 75.7094 39.3737 70.0491 41.559C70.4612 43.5603 69.8186 56.3812 65.272 62.1001C61.6637 66.9456 53.2608 69.1819 49.3726 63.3943L49.3422 63.3465C48.9257 62.6781 49.2844 62.6996 49.712 63.1968C53.5195 66.5426 58.6963 66.5997 62.6856 63.0688C70.1621 56.6149 69.3912 40.7905 65.8335 31.6358C55.7031 30.524 44.8566 33.5922 37.8596 41.2122L38.3328 44.0585C38.4134 44.5434 38.505 45.0279 38.5748 45.5145C38.6196 45.8263 38.6246 46.1364 38.4084 46.3888C37.6946 47.222 36.4916 45.97 35.5017 45.4719C35.2095 45.4309 34.9168 45.415 34.6297 45.4352C29.874 46.0473 30.811 55.2657 36.0378 53.6499C36.477 53.3765 36.8543 53.4599 37.0247 53.8566C38.2705 54.9969 39.092 57.0307 41.1618 58.9895C41.8921 59.7243 42.5567 60.339 43.3782 60.9284C43.8607 61.416 45.3167 61.9131 44.8551 62.7475C43.9823 64.6461 38.8355 58.6823 37.9256 57.033C35.0745 58.158 31.9149 57.7759 28.9603 57.5009C13.3733 56.6911 15.4541 40.2729 28.2305 29.9073C30.6354 28.1381 33.2889 26.6948 36.0471 25.5842C36.4236 25.4326 36.2591 24.8148 35.8772 24.9685C34.0522 25.7035 32.273 26.5783 30.5771 27.5908L30.5745 26.9855C30.572 25.9659 30.588 24.9045 30.7652 23.9729C30.8538 23.3274 31.0028 22.638 31.2322 22.1194C31.5158 20.5293 35.958 15.0712 43.5014 14.0339ZM34.4217 47.5516C34.6623 47.3231 35.1116 47.5956 35.3259 47.5887C35.8738 47.6637 36.3943 47.8949 36.8002 48.1803C37.0683 48.3303 37.2561 48.4712 37.4131 48.6008L37.4174 48.5997C37.4162 48.5997 37.4147 48.6008 37.4134 48.6011L37.4282 48.6111C37.6567 48.7734 38.4934 49.6874 37.9648 49.4416C37.9254 49.3904 37.8851 49.3412 37.8444 49.293C37.84 49.2996 37.8339 49.3061 37.8267 49.3124L37.8564 49.3564C38.3057 50.0318 37.53 49.3203 37.4106 49.1313C37.405 49.1359 37.3986 49.139 37.3923 49.1422L37.5477 49.3313C37.5695 49.3581 37.5866 49.3795 37.6007 49.3976L37.6335 49.4292C38.153 49.9395 38.1692 50.3986 37.5657 49.6443C37.5894 49.6798 37.6085 49.7175 37.6112 49.7509L37.6469 49.7965C38.1208 50.4066 37.7354 50.1899 37.4999 49.9293L37.4802 49.9069L37.4842 49.913C37.7033 50.2502 37.2687 50.0136 37.1919 49.8332L37.1886 49.8251C37.1049 49.7569 37.0534 49.6803 37.0358 49.6609L37.0325 49.6577C36.6251 49.2406 36.0345 48.8876 35.5328 48.7272C35.4601 48.7134 35.3865 48.7023 35.3121 48.6945C35.0105 48.6272 34.7055 48.5811 34.3973 48.5562C34.3596 48.5518 34.3214 48.5241 34.2928 48.4883C33.8268 48.4726 33.9706 48.2818 34.164 48.2463L34.1674 48.2457L34.129 48.2425C33.8299 48.2134 33.6257 48.1061 33.9281 48.0403L33.9664 48.0327C33.9617 48.0254 33.9576 48.018 33.9535 48.0107C33.6945 47.9823 33.8635 47.7307 34.0073 47.7916C33.9468 47.594 34.2233 47.6926 34.2578 47.6632C34.2841 47.6341 34.3168 47.6083 34.3356 47.6069C34.4189 47.5482 34.3785 47.5535 34.4217 47.5516ZM36.0063 44.3523L35.9456 44.3877C35.8965 44.4164 35.846 44.4354 35.7953 44.4466C35.8669 44.477 35.9376 44.5099 36.0076 44.545C36.0064 44.5021 36.0056 44.4592 36.0056 44.4164L36.0063 44.3523Z" fill="black"/>
<path fill-rule="evenodd" clip-rule="evenodd" d="M47.4566 49.6661C47.8278 48.8306 49.4988 47.5333 49.4988 47.5333C49.4988 47.5333 50.0059 50.4039 49.6126 51.2892C49.2884 52.019 48.1208 53.3361 47.2646 52.9658C46.4084 52.5954 46.8466 51.0394 47.4566 49.6661Z" fill="white"/>
<path fill-rule="evenodd" clip-rule="evenodd" d="M68.229 48.9101C67.9239 48.204 66.5504 47.1076 66.5504 47.1076C66.5504 47.1076 66.1335 49.5337 66.4568 50.2818C66.7233 50.8987 67.6831 52.0118 68.3869 51.6988C69.0907 51.3858 68.7305 50.0707 68.229 48.9101Z" fill="white"/>
<path fill-rule="evenodd" clip-rule="evenodd" d="M54.0044 53.0302H63.3779L63.9388 54.5748C63.9388 54.5748 56.944 56.1936 54.4878 55.1516L54.0044 53.0302Z" fill="white"/>
<path fill-rule="evenodd" clip-rule="evenodd" d="M60.9186 50.0302C61.7855 48.8193 60.5576 47.6804 59.7518 47.192C59.5406 47.0409 59.7082 46.5403 60.1594 46.6177C64.2569 47.3197 62.1338 54.3578 56.9022 50.4956C56.2794 49.9946 57.0336 48.891 57.7049 49.3201C57.7384 49.3457 57.7734 49.3727 57.8099 49.4008L57.8108 49.4015L57.8114 49.402L57.8119 49.4023C58.5661 49.9838 59.9461 51.0477 60.9186 50.0302ZM52.6713 37.8421L52.4709 37.8771C51.8225 37.9895 51.1812 38.2344 50.5951 38.5297C49.497 39.0829 48.4007 39.9905 47.835 41.0954C47.7736 41.2153 47.9049 41.3793 48.0335 41.2933C49.0135 40.6378 49.9484 40.0409 51.0958 39.7139C51.6188 39.5648 52.1407 39.4752 52.6836 39.4441C52.852 39.4345 53.0169 39.4386 53.1785 39.4426C53.6493 39.4542 54.0908 39.4651 54.5001 39.1348C54.8127 38.8826 54.7327 38.3929 54.5001 38.1294C54.0617 37.6325 53.2911 37.7352 52.6713 37.8421ZM63.3604 37.4135L63.2071 37.3822C63.0268 37.3461 62.8454 37.3614 62.6861 37.426C62.5299 37.4894 62.3938 37.5998 62.2987 37.759C62.1722 37.9711 62.1553 38.1491 62.214 38.3841C62.2593 38.5658 62.3586 38.7024 62.4886 38.8011C62.6256 38.9051 62.7992 38.9658 62.9794 38.9869C63.8112 39.0843 64.6303 39.2668 65.4266 39.5258C65.7998 39.6471 66.1519 39.8116 66.5009 39.9822L66.8017 40.13C67.0792 40.2653 67.3658 40.3957 67.728 40.4904C67.7564 40.4978 67.7846 40.5048 67.8125 40.5114C67.9011 40.4837 67.9248 40.4508 67.9437 40.4245L67.9513 40.4143L67.9599 40.4035C67.9858 40.3711 68.0176 40.3216 67.9875 40.0905C67.1972 38.4561 65.0292 37.7613 63.3604 37.4135ZM54.679 45.4529C54.3548 45.6417 54.0083 45.5502 53.7322 45.3311C53.5613 45.1956 53.4317 45.0223 53.3018 44.8486C53.1495 44.645 52.9968 44.4408 52.7768 44.2964C52.4319 44.07 51.9696 44.0581 51.5731 44.1235C50.9777 44.2218 50.4638 44.5019 49.9483 44.7828L49.9483 44.7828C49.6563 44.9419 49.3639 45.1012 49.056 45.228C48.9366 45.2771 48.8667 45.1244 48.9068 45.0345C49.4227 43.8785 50.4997 42.8473 51.781 42.6408C53.1208 42.4248 54.5703 43.3047 55.038 44.573C55.1561 44.893 54.96 45.2893 54.679 45.4529ZM67.4084 44.1055C67.4361 44.1157 67.4639 44.0846 67.4558 44.0582C67.1171 42.9594 65.8411 42.4969 64.7702 42.5885C64.1075 42.6452 63.4984 42.8869 62.996 43.328C62.5168 43.7489 62.1436 44.5453 62.5773 45.1276C63.0233 45.7262 63.9387 45.5327 63.9909 44.7459C64.0246 44.2356 64.9051 43.9208 65.3512 43.8422C66.0439 43.7204 66.7605 43.866 67.4084 44.1055ZM55.0051 54.6451C55.3188 54.7689 57.9718 54.8906 59.5384 54.8193C60.6066 54.7714 63.3776 54.1257 63.3776 53.8487C63.3776 53.5716 63.2595 53.3213 63.1582 53.3318C62.7459 53.3762 59.4628 53.4123 57.151 53.4376H57.1509L57.1498 53.4377L57.147 53.4377C56.1273 53.4489 55.2972 53.458 54.9869 53.4649C54.8343 53.4682 54.6743 53.4649 54.5121 53.4606C54.3997 53.8073 54.6913 54.5211 55.0051 54.6451ZM60.3161 52.6288C61.5494 52.6181 63.0471 52.6052 64.1143 52.6679C64.4953 52.6903 64.6831 53.233 64.7098 53.4905C64.9627 55.8837 63.0461 57.7927 60.9299 58.5323C58.9664 59.2186 56.3732 59.3484 54.622 58.0662C53.8611 57.5097 53.2848 56.7382 52.9092 55.8794C52.7064 55.4165 52.5581 54.9366 52.4759 54.4386C52.4681 54.3915 52.4594 54.3424 52.4505 54.2917C52.3873 53.9339 52.3108 53.5006 52.4332 53.1734C52.6106 52.7027 53.0802 52.6975 53.5115 52.6928C53.5473 52.6924 53.5828 52.692 53.6178 52.6913C53.7908 52.6879 53.9637 52.6841 54.1367 52.6804L54.1377 52.6803L54.1387 52.6803L54.1388 52.6803L54.1389 52.6803C54.5969 52.6704 55.0547 52.6605 55.512 52.6552C56.4962 52.644 57.4804 52.6412 58.4641 52.6383C58.8063 52.6373 59.1483 52.6363 59.4903 52.635C59.7442 52.6337 60.0222 52.6313 60.3152 52.6288L60.3156 52.6288L60.3161 52.6288ZM49.2519 50.8892C49.0916 51.503 48.754 52.2167 48.1818 52.5511C47.8756 52.7302 47.4214 52.7962 47.2449 52.4283C46.9156 51.7419 47.3773 50.6834 47.6576 50.066C47.8927 49.548 48.1892 49.0537 48.5483 48.6114C48.7453 48.3686 48.9636 48.1458 49.1834 47.9238C49.2264 47.8804 49.2727 47.8402 49.3185 47.8004L49.3185 47.8004L49.3185 47.8004C49.3827 47.7446 49.446 47.6896 49.4984 47.6274C49.3376 47.9873 49.3311 48.457 49.3295 48.8129C49.3285 49.0053 49.3358 49.1975 49.3431 49.3894V49.3894C49.3622 49.8926 49.3813 50.3936 49.2519 50.8892ZM50.3053 47.434C50.2788 47.2246 50.0879 47.0852 49.8837 47.1929C49.765 47.2555 49.6729 47.344 49.5997 47.448L49.6044 47.4342C49.6077 47.4251 49.611 47.4159 49.6133 47.406C49.6171 47.3892 49.6083 47.3659 49.5889 47.3631C49.1162 47.2923 48.5107 47.9451 48.1777 48.3041L48.1113 48.3755C47.6407 48.8779 47.2205 49.4565 46.9317 50.0822C46.5633 50.8804 46.1654 52.0869 46.6716 52.9141C47.3755 54.0646 48.8504 53.1966 49.4096 52.4018C49.8781 51.7359 50.1203 50.9241 50.1475 50.1155C50.1555 49.8777 50.1461 49.6399 50.1367 49.4022C50.1278 49.1772 50.1188 48.9521 50.1247 48.7269C50.1296 48.5381 50.1747 48.348 50.2196 48.1588C50.2776 47.9142 50.3353 47.6711 50.3053 47.434ZM67.1705 51.3014C67.5005 51.6027 68.074 51.7143 68.4576 51.4301C68.9672 51.0525 68.5279 50.3584 68.2469 49.9143C68.2186 49.8695 68.1918 49.8273 68.1678 49.7882C67.7811 49.1576 67.4002 48.5239 67.0219 47.8883C66.9534 47.7732 66.8724 47.6525 66.7884 47.528C66.7615 47.7074 66.7274 47.8832 66.6961 48.0444C66.6687 48.1856 66.6435 48.3156 66.6271 48.4272C66.4887 49.368 66.3906 50.5898 67.1705 51.3014ZM68.5507 48.594C68.9248 49.1816 69.3176 49.7986 69.4882 50.4459C69.8195 51.7024 68.7261 52.6246 67.5141 52.3547C66.2494 52.0731 65.7799 50.6066 65.8065 49.4611C65.8188 48.9337 65.9288 48.3992 66.0358 47.8796C66.0504 47.8084 66.065 47.7375 66.0793 47.6669C66.1084 47.5229 66.1296 47.3737 66.1508 47.2236C66.1805 47.0145 66.2104 46.8037 66.2624 46.6025C66.2031 46.4391 66.1682 46.2737 66.1744 46.1083C66.1842 45.8451 66.449 45.7053 66.6787 45.8197C67.0055 45.9824 67.1754 46.2846 67.348 46.5914C67.3834 46.6543 67.4189 46.7174 67.4558 46.7795L68.2121 48.0505C68.3182 48.2288 68.4335 48.4099 68.5507 48.594Z" fill="black"/>
<path fill-rule="evenodd" clip-rule="evenodd" d="M50.2447 58.1338C51.1087 56.1155 52.9944 54.6321 55.1656 54.0898C56.7599 53.6926 58.4331 53.7053 60.0584 53.8629C60.9099 53.9449 61.8233 54.0122 62.6258 54.3275C63.311 54.5969 63.8695 55.1061 64.2894 55.7038C64.7892 56.4121 65.1292 57.2227 65.3679 58.0536C65.4018 58.1717 65.4337 58.2907 65.4634 58.4104C65.3596 59.0373 65.1392 59.5708 64.5569 59.965C63.9886 60.3499 63.3106 60.5073 62.6347 60.5632C62.5684 60.5315 62.5044 60.4989 62.4456 60.4654C61.3924 59.8642 60.651 58.4434 59.3216 58.6357C58.1353 58.8074 57.3543 60.2959 56.6488 61.1687C54.3841 61.4318 52.1211 60.7533 50.2784 59.462C50.1848 59.02 50.1794 58.5743 50.2447 58.1338ZM67.0026 56.6027C66.8215 56.0958 66.5933 55.6048 66.3228 55.1423C65.4287 53.6127 64.056 52.3939 62.4265 51.6973C58.5717 50.0514 53.584 51.2116 50.471 53.9108C49.4076 54.8336 48.3324 56.1895 48.0072 57.6481C47.9101 57.6672 47.8185 57.7176 47.743 57.7886C45.4939 56.3766 43.1777 55.0181 41.3653 53.0608C40.0491 51.6387 39.1336 49.9557 38.573 48.1063C38.5272 47.9541 38.281 47.9763 38.2885 48.1448C38.2906 48.1842 38.2928 48.2235 38.2949 48.2629C38.2714 48.1905 38.1606 48.2277 38.1521 48.298C37.8505 50.5447 37.4732 52.9266 37.8206 55.1849C38.0285 56.5324 38.6423 57.519 39.4629 58.5842C40.3422 59.7261 41.3376 60.7881 42.3554 61.8066C43.0012 62.4531 43.6758 63.1988 44.4666 63.6728C45.3863 64.2235 46.4297 64.6423 47.4112 65.0672C48.4098 65.5008 49.4234 65.9013 50.4561 66.2486C52.5204 66.9453 54.654 67.4267 56.8249 67.6377C58.5632 67.806 60.5497 67.9893 62.2154 67.3373C63.4922 66.8377 64.5228 65.9344 65.3402 64.8478C66.2301 63.6643 66.9336 62.3162 67.3225 60.8946C67.7266 59.418 67.0878 56.8408 67.0026 56.6027Z" fill="black"/>
<path fill-rule="evenodd" clip-rule="evenodd" d="M68.7503 48.1445C68.0318 49.107 66.6997 49.4135 65.4711 49.3077C62.8213 49.0533 61.9873 46.0524 61.9004 43.72C63.6773 44.2184 61.7502 40.6883 67.8243 40.3002C69.9656 40.1222 69.3752 41.4117 70.3212 42.3539C70.3018 44.3312 69.9717 46.4798 68.7503 48.1445ZM56.1289 45.8724C54.5645 53.1778 45.9975 51.4401 45.0976 44.8548C45.9286 44.2699 45.7097 42.8258 46.7421 42.3026C48.3783 41.2602 50.4236 41.3048 52.2816 41.3293C54.6565 41.492 55.3333 42.473 56.5533 43.5433C56.4946 44.2581 56.3254 45.1054 56.1289 45.8724ZM72.1439 39.0903C72.0561 39.0757 71.9682 39.062 71.8802 39.0491C71.8116 39.0102 71.7311 38.9803 71.6374 38.9624C71.4234 38.9082 71.2109 38.8717 70.9988 38.852C67.954 38.1687 60.91 39.1389 60.6193 41.7298C59.6497 42.0525 58.8107 41.7635 57.6868 41.7923C56.8314 38.227 42.0424 38.7302 41.3312 40.8797C41.3285 40.8789 41.3258 40.8783 41.3231 40.8774C40.6397 40.6665 39.6322 40.7174 38.8499 40.684C37.1797 40.6491 35.5076 40.7975 33.8735 41.1488C30.8134 41.6337 26.6371 42.2014 28.7653 46.0118C28.7657 46.0124 28.766 46.0132 28.7666 46.0138L28.7669 46.0135C29.1337 46.3884 29.7561 46.0865 29.7793 45.579C29.0638 43.7739 30.6799 43.5571 31.9233 43.0383C35.0173 41.93 38.1674 41.7763 41.3673 42.1192C41.6081 42.4018 41.9734 42.6482 42.3595 42.7772C44.499 43.1313 43.3715 44.7139 44.7239 44.9441C44.4754 50.4606 51.1922 53.4719 55.0841 49.8455C56.6379 48.3306 57.0083 46.0865 57.3686 44.0637C57.5591 44.021 57.6802 43.9172 57.751 43.7797C58.2091 43.3236 58.4969 42.9024 59.4028 42.7772C60.3087 42.6521 61.0061 42.9033 61.1005 42.9802C61.1243 43.028 61.1498 43.0759 61.1794 43.1238C61.2208 43.1952 61.2772 43.2521 61.3412 43.2969C60.4466 48.7903 64.7235 52.2644 69.0411 49.4152C70.9171 47.6555 71.3136 44.9614 71.3919 42.5567C71.6462 42.4037 71.8073 42.1071 71.7192 41.7343C71.5979 41.2203 71.8824 40.7753 72.3355 40.5518C72.9242 40.2616 72.8201 39.2019 72.1439 39.0903Z" fill="black"/>
</g>
</svg>
