<svg width="127" height="35" viewBox="0 0 127 35" fill="none" xmlns="http://www.w3.org/2000/svg">
<g clip-path="url(#clip0_711_7533)">
<path d="M17.779 35.0001L0.000488281 35.0001L19.0268 1.15723L28.3712 16.2674L17.779 35.0001Z" fill="#007A86"/>
<path d="M50.0293 15.7647L41.0781 30.3754L23.4854 1.15723H40.9883L50.0293 15.7647Z" fill="#007A86"/>
<path d="M50.0293 15.7647L41.0781 1.15723L23.4854 30.3754H40.9883L50.0293 15.7647Z" fill="#B0D6D9"/>
</g>
<path d="M112.553 20.4766V6.37063H115.766L116.051 8.75954C116.487 7.92532 117.113 7.26173 117.928 6.76878C118.762 6.27583 119.738 6.02936 120.857 6.02936C122.601 6.02936 123.957 6.57919 124.924 7.67884C125.891 8.7785 126.374 10.3901 126.374 12.5135V20.4766H122.734V12.8548C122.734 11.6414 122.488 10.7124 121.995 10.0678C121.502 9.42313 120.734 9.10081 119.691 9.10081C118.667 9.10081 117.824 9.46105 117.16 10.1815C116.515 10.902 116.193 11.9068 116.193 13.1961V20.4766H112.553Z" fill="black"/>
<path d="M102.075 20.8179C100.71 20.8179 99.4772 20.505 98.3776 19.8794C97.2969 19.2537 96.4342 18.391 95.7896 17.2914C95.1639 16.1727 94.8511 14.8835 94.8511 13.4236C94.8511 11.9637 95.1734 10.6839 95.818 9.58428C96.4626 8.46567 97.3253 7.59353 98.406 6.96786C99.5057 6.34219 100.738 6.02936 102.103 6.02936C103.449 6.02936 104.663 6.34219 105.743 6.96786C106.843 7.59353 107.706 8.46567 108.331 9.58428C108.976 10.6839 109.298 11.9637 109.298 13.4236C109.298 14.8835 108.976 16.1727 108.331 17.2914C107.706 18.391 106.843 19.2537 105.743 19.8794C104.644 20.505 103.421 20.8179 102.075 20.8179ZM102.075 17.6611C103.023 17.6611 103.847 17.3103 104.549 16.6088C105.25 15.8884 105.601 14.8266 105.601 13.4236C105.601 12.0206 105.25 10.9683 104.549 10.2668C103.847 9.54636 103.032 9.18613 102.103 9.18613C101.136 9.18613 100.302 9.54636 99.6005 10.2668C98.9179 10.9683 98.5767 12.0206 98.5767 13.4236C98.5767 14.8266 98.9179 15.8884 99.6005 16.6088C100.302 17.3103 101.127 17.6611 102.075 17.6611Z" fill="black"/>
<path d="M84.2803 20.4766V6.37063H87.5224L87.8637 9.0155C88.3756 8.10543 89.0676 7.38497 89.9397 6.8541C90.8309 6.30427 91.8736 6.02936 93.0681 6.02936V9.86868H92.0443C91.248 9.86868 90.537 9.99192 89.9113 10.2384C89.2856 10.4849 88.7927 10.9115 88.4324 11.5182C88.0912 12.1249 87.9205 12.9686 87.9205 14.0493V20.4766H84.2803Z" fill="black"/>
<path d="M78.6604 4.18072C77.9968 4.18072 77.447 3.98164 77.0109 3.58349C76.5938 3.18534 76.3853 2.68291 76.3853 2.0762C76.3853 1.46949 76.5938 0.976542 77.0109 0.597349C77.447 0.199198 77.9968 0.00012207 78.6604 0.00012207C79.324 0.00012207 79.8644 0.199198 80.2815 0.597349C80.7175 0.976542 80.9356 1.46949 80.9356 2.0762C80.9356 2.68291 80.7175 3.18534 80.2815 3.58349C79.8644 3.98164 79.324 4.18072 78.6604 4.18072ZM76.8403 20.4765V6.37055H80.4805V20.4765H76.8403Z" fill="black"/>
<path d="M59.5088 20.4764V0.568848H66.8746C68.4672 0.568848 69.7849 0.834282 70.8277 1.36515C71.8705 1.89602 72.6479 2.62597 73.1598 3.55499C73.6717 4.48401 73.9276 5.52679 73.9276 6.68332C73.9276 7.78298 73.6812 8.79732 73.1882 9.72634C72.6953 10.6364 71.9274 11.3758 70.8846 11.9446C69.8418 12.4944 68.5052 12.7694 66.8746 12.7694H63.1491V20.4764H59.5088ZM63.1491 9.81166H66.6471C67.9174 9.81166 68.8275 9.53674 69.3773 8.98691C69.9461 8.41813 70.2305 7.65026 70.2305 6.68332C70.2305 5.69742 69.9461 4.92956 69.3773 4.37973C68.8275 3.81094 67.9174 3.52655 66.6471 3.52655H63.1491V9.81166Z" fill="black"/>
<path d="M119.926 34.8745V25.6835H125.473V26.6708H121.039V29.7764H125.186V30.7637H121.039V33.8872H125.545V34.8745H119.926Z" fill="black"/>
<path d="M115.98 28.5557H114.867C114.801 28.2355 114.686 27.9543 114.521 27.7119C114.359 27.4696 114.162 27.2662 113.929 27.1016C113.698 26.9341 113.442 26.8084 113.161 26.7246C112.88 26.6409 112.587 26.599 112.282 26.599C111.725 26.599 111.221 26.7396 110.769 27.0208C110.32 27.3021 109.963 27.7164 109.697 28.2639C109.433 28.8115 109.302 29.4831 109.302 30.279C109.302 31.0748 109.433 31.7465 109.697 32.294C109.963 32.8415 110.32 33.2559 110.769 33.5371C111.221 33.8184 111.725 33.959 112.282 33.959C112.587 33.959 112.88 33.9171 113.161 33.8333C113.442 33.7495 113.698 33.6254 113.929 33.4608C114.162 33.2933 114.359 33.0883 114.521 32.846C114.686 32.6007 114.801 32.3194 114.867 32.0023H115.98C115.896 32.472 115.743 32.8924 115.522 33.2634C115.3 33.6344 115.025 33.95 114.696 34.2103C114.367 34.4676 113.997 34.6636 113.588 34.7982C113.181 34.9328 112.745 35.0001 112.282 35.0001C111.498 35.0001 110.801 34.8087 110.19 34.4257C109.58 34.0427 109.1 33.4982 108.75 32.7921C108.4 32.0861 108.225 31.2483 108.225 30.279C108.225 29.3096 108.4 28.4719 108.75 27.7658C109.1 27.0597 109.58 26.5152 110.19 26.1322C110.801 25.7493 111.498 25.5578 112.282 25.5578C112.745 25.5578 113.181 25.6251 113.588 25.7598C113.997 25.8944 114.367 26.0918 114.696 26.3521C115.025 26.6094 115.3 26.9236 115.522 27.2946C115.743 27.6626 115.896 28.0829 115.98 28.5557Z" fill="black"/>
<path d="M104.208 25.6833V34.8744H103.131L98.1227 27.658H98.0329V34.8744H96.9199V25.6833H97.997L103.023 32.9177H103.113V25.6833H104.208Z" fill="black"/>
<path d="M86.6082 34.8745H85.4414L88.8163 25.6835H89.9651L93.34 34.8745H92.1731L89.4266 27.1375H89.3548L86.6082 34.8745ZM87.0391 31.2843H91.7423V32.2716H87.0391V31.2843Z" fill="black"/>
<path d="M81.8561 25.6835V34.8745H80.779L75.7706 27.6581H75.6809V34.8745H74.5679V25.6835H75.645L80.6713 32.9178H80.7611V25.6835H81.8561Z" fill="black"/>
<path d="M70.1872 25.6833V34.8744H69.0742V25.6833H70.1872Z" fill="black"/>
<path d="M59.5088 34.8744V25.6833H65.0198V26.6707H60.6218V29.7762H64.607V30.7635H60.6218V34.8744H59.5088Z" fill="black"/>
<defs>
<clipPath id="clip0_711_7533">
<rect width="50.0289" height="33.8429" fill="white" transform="translate(0 1.15723)"/>
</clipPath>
</defs>
</svg>
