<svg width="428" height="120" viewBox="0 0 428 120" fill="none" xmlns="http://www.w3.org/2000/svg">
<g filter="url(#filter0_d_1053_12850)">
<mask id="path-1-inside-1_1053_12850" fill="white">
<path d="M41.5 30.3228C41.5 14.3065 54.4837 1.32275 70.5 1.32275H178.5C194.516 1.32275 207.5 14.3065 207.5 30.3228C207.5 46.339 194.516 59.3228 178.5 59.3228H70.5C54.4837 59.3228 41.5 46.339 41.5 30.3228Z"/>
</mask>
<path d="M41.5 1.32275H207.5H41.5ZM207.5 30.3228C207.5 46.8913 194.069 60.3228 177.5 60.3228H71.5C54.9315 60.3228 41.5 46.8913 41.5 30.3228C41.5 45.7867 54.4837 58.3228 70.5 58.3228H178.5C194.516 58.3228 207.5 45.7867 207.5 30.3228ZM41.5 59.3228V1.32275V59.3228ZM207.5 1.32275V59.3228V1.32275Z" fill="#33959E" mask="url(#path-1-inside-1_1053_12850)"/>
<path d="M67.0661 26.4958C66.0565 26.4958 65.1718 26.2747 64.4122 25.8324C63.6622 25.3901 63.0709 24.7795 62.6382 24.0006C62.2151 23.2122 62.0036 22.3035 62.0036 21.2747C62.0036 20.2458 62.2151 19.342 62.6382 18.5631C63.0709 17.7747 63.6622 17.1593 64.4122 16.717C65.1718 16.2747 66.0565 16.0535 67.0661 16.0535C68.0661 16.0535 68.9459 16.2747 69.7055 16.717C70.4651 17.1593 71.0565 17.7747 71.4795 18.5631C71.9026 19.342 72.1141 20.2458 72.1141 21.2747C72.1141 22.3035 71.9026 23.2122 71.4795 24.0006C71.0565 24.7795 70.4651 25.3901 69.7055 25.8324C68.9459 26.2747 68.0661 26.4958 67.0661 26.4958ZM67.0661 24.8372C68.0276 24.8372 68.792 24.5199 69.3593 23.8853C69.9363 23.2506 70.2247 22.3804 70.2247 21.2747C70.2247 20.1689 69.9363 19.2987 69.3593 18.6641C68.792 18.0295 68.0276 17.7122 67.0661 17.7122C66.1045 17.7122 65.3353 18.0295 64.7584 18.6641C64.1815 19.2987 63.893 20.1689 63.893 21.2747C63.893 22.3804 64.1815 23.2506 64.7584 23.8853C65.3353 24.5199 66.1045 24.8372 67.0661 24.8372ZM73.4124 26.3228V19.1689H75.0423L75.1865 20.3804C75.4076 19.9574 75.7249 19.6208 76.1384 19.3708C76.5615 19.1208 77.0567 18.9958 77.624 18.9958C78.5086 18.9958 79.1961 19.2747 79.6865 19.8324C80.1769 20.3901 80.4221 21.2074 80.4221 22.2843V26.3228H78.5759V22.4574C78.5759 21.842 78.4509 21.3708 78.2009 21.0439C77.9509 20.717 77.5615 20.5535 77.0326 20.5535C76.5134 20.5535 76.0855 20.7362 75.749 21.1016C75.4221 21.467 75.2586 21.9766 75.2586 22.6304V26.3228H73.4124ZM81.7403 22.9189V21.3756H87.7836V22.9189H81.7403ZM93.8318 26.4958C92.8126 26.4958 91.9376 26.2795 91.2068 25.8468C90.476 25.4045 89.9135 24.7939 89.5193 24.0151C89.1251 23.2266 88.928 22.3179 88.928 21.2891C88.928 20.2603 89.1251 19.3516 89.5193 18.5631C89.9135 17.7747 90.476 17.1593 91.2068 16.717C91.9376 16.2747 92.8126 16.0535 93.8318 16.0535C95.0433 16.0535 96.0337 16.3564 96.803 16.9622C97.5818 17.5583 98.0674 18.3997 98.2597 19.4862H96.226C96.101 18.9381 95.8318 18.5103 95.4183 18.2026C95.0145 17.8853 94.476 17.7266 93.803 17.7266C92.8703 17.7266 92.1395 18.0439 91.6107 18.6785C91.0818 19.3131 90.8174 20.1833 90.8174 21.2891C90.8174 22.3949 91.0818 23.2651 91.6107 23.8997C92.1395 24.5247 92.8703 24.8372 93.803 24.8372C94.476 24.8372 95.0145 24.6929 95.4183 24.4045C95.8318 24.1064 96.101 23.6978 96.226 23.1785H98.2597C98.0674 24.217 97.5818 25.0295 96.803 25.616C96.0337 26.2026 95.0433 26.4958 93.8318 26.4958ZM99.5622 26.3228V15.9381H101.408V20.2651C101.649 19.8708 101.971 19.5631 102.375 19.342C102.788 19.1112 103.259 18.9958 103.788 18.9958C104.673 18.9958 105.355 19.2747 105.836 19.8324C106.327 20.3901 106.572 21.2074 106.572 22.2843V26.3228H104.74V22.4574C104.74 21.842 104.615 21.3708 104.365 21.0439C104.125 20.717 103.74 20.5535 103.211 20.5535C102.692 20.5535 102.259 20.7362 101.913 21.1016C101.577 21.467 101.408 21.9766 101.408 22.6304V26.3228H99.5622ZM110.515 26.4958C109.9 26.4958 109.395 26.3997 109.001 26.2074C108.606 26.0054 108.313 25.741 108.121 25.4141C107.928 25.0872 107.832 24.7266 107.832 24.3324C107.832 23.6689 108.092 23.1304 108.611 22.717C109.13 22.3035 109.909 22.0968 110.948 22.0968H112.765V21.9237C112.765 21.4333 112.626 21.0728 112.347 20.842C112.068 20.6112 111.722 20.4958 111.308 20.4958C110.933 20.4958 110.606 20.5872 110.328 20.7699C110.049 20.9429 109.876 21.2026 109.808 21.5487H108.005C108.053 21.0295 108.227 20.5776 108.525 20.1929C108.832 19.8083 109.227 19.5151 109.707 19.3131C110.188 19.1016 110.727 18.9958 111.323 18.9958C112.342 18.9958 113.145 19.2506 113.731 19.7603C114.318 20.2699 114.611 20.991 114.611 21.9237V26.3228H113.039L112.866 25.1689C112.654 25.5535 112.356 25.8708 111.972 26.1208C111.597 26.3708 111.111 26.4958 110.515 26.4958ZM110.933 25.0535C111.462 25.0535 111.871 24.8804 112.159 24.5343C112.457 24.1881 112.645 23.7603 112.722 23.2506H111.15C110.659 23.2506 110.308 23.342 110.097 23.5247C109.885 23.6978 109.779 23.9141 109.779 24.1737C109.779 24.4526 109.885 24.6689 110.097 24.8228C110.308 24.9766 110.587 25.0535 110.933 25.0535ZM117.08 18.0583C116.743 18.0583 116.464 17.9574 116.243 17.7554C116.032 17.5535 115.926 17.2987 115.926 16.991C115.926 16.6833 116.032 16.4333 116.243 16.241C116.464 16.0391 116.743 15.9381 117.08 15.9381C117.416 15.9381 117.69 16.0391 117.902 16.241C118.123 16.4333 118.234 16.6833 118.234 16.991C118.234 17.2987 118.123 17.5535 117.902 17.7554C117.69 17.9574 117.416 18.0583 117.08 18.0583ZM116.157 26.3228V19.1689H118.003V26.3228H116.157ZM119.641 26.3228V19.1689H121.271L121.415 20.3804C121.636 19.9574 121.954 19.6208 122.367 19.3708C122.79 19.1208 123.285 18.9958 123.853 18.9958C124.737 18.9958 125.425 19.2747 125.915 19.8324C126.406 20.3901 126.651 21.2074 126.651 22.2843V26.3228H124.805V22.4574C124.805 21.842 124.68 21.3708 124.43 21.0439C124.18 20.717 123.79 20.5535 123.261 20.5535C122.742 20.5535 122.314 20.7362 121.978 21.1016C121.651 21.467 121.487 21.9766 121.487 22.6304V26.3228H119.641ZM133.742 26.4958C133.127 26.4958 132.622 26.3997 132.228 26.2074C131.834 26.0054 131.54 25.741 131.348 25.4141C131.156 25.0872 131.06 24.7266 131.06 24.3324C131.06 23.6689 131.319 23.1304 131.839 22.717C132.358 22.3035 133.137 22.0968 134.175 22.0968H135.992V21.9237C135.992 21.4333 135.853 21.0728 135.574 20.842C135.295 20.6112 134.949 20.4958 134.536 20.4958C134.161 20.4958 133.834 20.5872 133.555 20.7699C133.276 20.9429 133.103 21.2026 133.036 21.5487H131.233C131.281 21.0295 131.454 20.5776 131.752 20.1929C132.06 19.8083 132.454 19.5151 132.935 19.3131C133.415 19.1016 133.954 18.9958 134.55 18.9958C135.569 18.9958 136.372 19.2506 136.959 19.7603C137.545 20.2699 137.839 20.991 137.839 21.9237V26.3228H136.266L136.093 25.1689C135.882 25.5535 135.584 25.8708 135.199 26.1208C134.824 26.3708 134.339 26.4958 133.742 26.4958ZM134.161 25.0535C134.689 25.0535 135.098 24.8804 135.387 24.5343C135.685 24.1881 135.872 23.7603 135.949 23.2506H134.377C133.887 23.2506 133.536 23.342 133.324 23.5247C133.113 23.6978 133.007 23.9141 133.007 24.1737C133.007 24.4526 133.113 24.6689 133.324 24.8228C133.536 24.9766 133.814 25.0535 134.161 25.0535ZM139.312 26.3228V19.1689H140.942L141.086 20.3804C141.307 19.9574 141.624 19.6208 142.038 19.3708C142.461 19.1208 142.956 18.9958 143.523 18.9958C144.408 18.9958 145.095 19.2747 145.586 19.8324C146.076 20.3901 146.321 21.2074 146.321 22.2843V26.3228H144.475V22.4574C144.475 21.842 144.35 21.3708 144.1 21.0439C143.85 20.717 143.461 20.5535 142.932 20.5535C142.413 20.5535 141.985 20.7362 141.648 21.1016C141.321 21.467 141.158 21.9766 141.158 22.6304V26.3228H139.312ZM151.087 26.4958C150.414 26.4958 149.813 26.3324 149.284 26.0054C148.755 25.6785 148.337 25.2314 148.029 24.6641C147.721 24.0968 147.568 23.4526 147.568 22.7314C147.568 22.0103 147.721 21.3708 148.029 20.8131C148.337 20.2458 148.755 19.8035 149.284 19.4862C149.813 19.1593 150.414 18.9958 151.087 18.9958C151.625 18.9958 152.096 19.0968 152.5 19.2987C152.904 19.5006 153.231 19.7843 153.481 20.1497V15.9381H155.327V26.3228H153.683L153.481 25.2987C153.25 25.616 152.943 25.8949 152.558 26.1353C152.183 26.3756 151.693 26.4958 151.087 26.4958ZM151.476 24.8804C152.072 24.8804 152.558 24.6833 152.933 24.2891C153.318 23.8853 153.51 23.3708 153.51 22.7458C153.51 22.1208 153.318 21.6112 152.933 21.217C152.558 20.8131 152.072 20.6112 151.476 20.6112C150.89 20.6112 150.404 20.8083 150.019 21.2026C149.635 21.5968 149.443 22.1064 149.443 22.7314C149.443 23.3564 149.635 23.8708 150.019 24.2747C150.404 24.6785 150.89 24.8804 151.476 24.8804ZM164.841 26.4958C163.831 26.4958 162.947 26.2747 162.187 25.8324C161.437 25.3901 160.846 24.7795 160.413 24.0006C159.99 23.2122 159.779 22.3035 159.779 21.2747C159.779 20.2458 159.99 19.342 160.413 18.5631C160.846 17.7747 161.437 17.1593 162.187 16.717C162.947 16.2747 163.831 16.0535 164.841 16.0535C165.841 16.0535 166.721 16.2747 167.48 16.717C168.24 17.1593 168.831 17.7747 169.254 18.5631C169.678 19.342 169.889 20.2458 169.889 21.2747C169.889 22.3035 169.678 23.2122 169.254 24.0006C168.831 24.7795 168.24 25.3901 167.48 25.8324C166.721 26.2747 165.841 26.4958 164.841 26.4958ZM164.841 24.8372C165.803 24.8372 166.567 24.5199 167.134 23.8853C167.711 23.2506 168 22.3804 168 21.2747C168 20.1689 167.711 19.2987 167.134 18.6641C166.567 18.0295 165.803 17.7122 164.841 17.7122C163.879 17.7122 163.11 18.0295 162.533 18.6641C161.956 19.2987 161.668 20.1689 161.668 21.2747C161.668 22.3804 161.956 23.2506 162.533 23.8853C163.11 24.5199 163.879 24.8372 164.841 24.8372ZM171.519 26.3228V20.7122H170.538V19.1689H171.519V18.3324C171.519 17.467 171.735 16.8516 172.168 16.4862C172.61 16.1208 173.207 15.9381 173.957 15.9381H174.75V17.5103H174.245C173.928 17.5103 173.702 17.5728 173.567 17.6978C173.433 17.8228 173.365 18.0343 173.365 18.3324V19.1689H174.909V20.7122H173.365V26.3228H171.519ZM176.414 26.3228V20.7122H175.433V19.1689H176.414V18.3324C176.414 17.467 176.63 16.8516 177.063 16.4862C177.505 16.1208 178.101 15.9381 178.851 15.9381H179.645V17.5103H179.14C178.823 17.5103 178.597 17.5728 178.462 17.6978C178.327 17.8228 178.26 18.0343 178.26 18.3324V19.1689H179.803V20.7122H178.26V26.3228H176.414ZM180.818 22.9189V21.3756H186.862V22.9189H180.818ZM78.6757 43.4958C77.6565 43.4958 76.7815 43.2795 76.0507 42.8468C75.32 42.4045 74.7575 41.7939 74.3632 41.0151C73.969 40.2266 73.7719 39.3179 73.7719 38.2891C73.7719 37.2603 73.969 36.3516 74.3632 35.5631C74.7575 34.7747 75.32 34.1593 76.0507 33.717C76.7815 33.2747 77.6565 33.0535 78.6757 33.0535C79.8873 33.0535 80.8777 33.3564 81.6469 33.9622C82.4257 34.5583 82.9113 35.3997 83.1036 36.4862H81.07C80.945 35.9381 80.6757 35.5103 80.2623 35.2026C79.8584 34.8853 79.32 34.7266 78.6469 34.7266C77.7142 34.7266 76.9834 35.0439 76.4546 35.6785C75.9257 36.3131 75.6613 37.1833 75.6613 38.2891C75.6613 39.3949 75.9257 40.2651 76.4546 40.8997C76.9834 41.5247 77.7142 41.8372 78.6469 41.8372C79.32 41.8372 79.8584 41.6929 80.2623 41.4045C80.6757 41.1064 80.945 40.6978 81.07 40.1785H83.1036C82.9113 41.217 82.4257 42.0295 81.6469 42.616C80.8777 43.2026 79.8873 43.4958 78.6757 43.4958ZM84.4061 43.3228V32.9381H86.2523V37.2651C86.4926 36.8708 86.8148 36.5631 87.2186 36.342C87.6321 36.1112 88.1032 35.9958 88.6321 35.9958C89.5167 35.9958 90.1994 36.2747 90.6801 36.8324C91.1705 37.3901 91.4157 38.2074 91.4157 39.2843V43.3228H89.584V39.4574C89.584 38.842 89.459 38.3708 89.209 38.0439C88.9686 37.717 88.584 37.5535 88.0551 37.5535C87.5359 37.5535 87.1032 37.7362 86.7571 38.1016C86.4205 38.467 86.2523 38.9766 86.2523 39.6304V43.3228H84.4061ZM95.359 43.4958C94.7436 43.4958 94.2388 43.3997 93.8445 43.2074C93.4503 43.0054 93.157 42.741 92.9647 42.4141C92.7724 42.0872 92.6763 41.7266 92.6763 41.3324C92.6763 40.6689 92.9359 40.1304 93.4551 39.717C93.9743 39.3035 94.7532 39.0968 95.7917 39.0968H97.609V38.9237C97.609 38.4333 97.4695 38.0728 97.1907 37.842C96.9118 37.6112 96.5657 37.4958 96.1522 37.4958C95.7772 37.4958 95.4503 37.5872 95.1715 37.7699C94.8926 37.9429 94.7195 38.2026 94.6522 38.5487H92.8493C92.8974 38.0295 93.0705 37.5776 93.3686 37.1929C93.6763 36.8083 94.0705 36.5151 94.5513 36.3131C95.032 36.1016 95.5705 35.9958 96.1667 35.9958C97.1859 35.9958 97.9888 36.2506 98.5753 36.7603C99.1618 37.2699 99.4551 37.991 99.4551 38.9237V43.3228H97.883L97.7099 42.1689C97.4984 42.5535 97.2003 42.8708 96.8157 43.1208C96.4407 43.3708 95.9551 43.4958 95.359 43.4958ZM95.7772 42.0535C96.3061 42.0535 96.7147 41.8804 97.0032 41.5343C97.3013 41.1881 97.4888 40.7603 97.5657 40.2506H95.9936C95.5032 40.2506 95.1522 40.342 94.9407 40.5247C94.7292 40.6978 94.6234 40.9141 94.6234 41.1737C94.6234 41.4526 94.7292 41.6689 94.9407 41.8228C95.1522 41.9766 95.4311 42.0535 95.7772 42.0535ZM101.924 35.0583C101.587 35.0583 101.308 34.9574 101.087 34.7554C100.876 34.5535 100.77 34.2987 100.77 33.991C100.77 33.6833 100.876 33.4333 101.087 33.241C101.308 33.0391 101.587 32.9381 101.924 32.9381C102.26 32.9381 102.534 33.0391 102.746 33.241C102.967 33.4333 103.077 33.6833 103.077 33.991C103.077 34.2987 102.967 34.5535 102.746 34.7554C102.534 34.9574 102.26 35.0583 101.924 35.0583ZM101.001 43.3228V36.1689H102.847V43.3228H101.001ZM104.485 43.3228V36.1689H106.115L106.259 37.3804C106.48 36.9574 106.798 36.6208 107.211 36.3708C107.634 36.1208 108.129 35.9958 108.697 35.9958C109.581 35.9958 110.269 36.2747 110.759 36.8324C111.25 37.3901 111.495 38.2074 111.495 39.2843V43.3228H109.649V39.4574C109.649 38.842 109.524 38.3708 109.274 38.0439C109.024 37.717 108.634 37.5535 108.105 37.5535C107.586 37.5535 107.158 37.7362 106.822 38.1016C106.495 38.467 106.331 38.9766 106.331 39.6304V43.3228H104.485ZM116.163 43.3228V33.2266H118.009V43.3228H116.163ZM119.634 43.3228V36.1689H121.264L121.409 37.3804C121.63 36.9574 121.947 36.6208 122.36 36.3708C122.784 36.1208 123.279 35.9958 123.846 35.9958C124.731 35.9958 125.418 36.2747 125.909 36.8324C126.399 37.3901 126.644 38.2074 126.644 39.2843V43.3228H124.798V39.4574C124.798 38.842 124.673 38.3708 124.423 38.0439C124.173 37.717 123.784 37.5535 123.255 37.5535C122.735 37.5535 122.308 37.7362 121.971 38.1016C121.644 38.467 121.481 38.9766 121.481 39.6304V43.3228H119.634ZM129.983 43.3228L127.358 36.1689H129.291L131.108 41.5776L132.926 36.1689H134.858L132.219 43.3228H129.983ZM138.858 43.4958C138.137 43.4958 137.497 43.342 136.94 43.0343C136.382 42.7266 135.945 42.2939 135.627 41.7362C135.31 41.1785 135.151 40.5343 135.151 39.8035C135.151 39.0631 135.305 38.4045 135.613 37.8276C135.93 37.2506 136.363 36.8035 136.911 36.4862C137.469 36.1593 138.122 35.9958 138.872 35.9958C139.574 35.9958 140.195 36.1497 140.733 36.4574C141.272 36.7651 141.69 37.1881 141.988 37.7266C142.296 38.2554 142.449 38.8468 142.449 39.5006C142.449 39.6064 142.445 39.717 142.435 39.8324C142.435 39.9478 142.43 40.0679 142.421 40.1929H136.983C137.022 40.7506 137.214 41.1881 137.56 41.5054C137.916 41.8228 138.344 41.9814 138.844 41.9814C139.219 41.9814 139.531 41.8997 139.781 41.7362C140.041 41.5631 140.233 41.342 140.358 41.0728H142.233C142.098 41.5247 141.872 41.9381 141.555 42.3131C141.247 42.6785 140.863 42.967 140.401 43.1785C139.949 43.3901 139.435 43.4958 138.858 43.4958ZM138.872 37.4958C138.421 37.4958 138.022 37.6256 137.675 37.8853C137.329 38.1353 137.108 38.5199 137.012 39.0391H140.574C140.546 38.5679 140.372 38.1929 140.055 37.9141C139.738 37.6353 139.344 37.4958 138.872 37.4958ZM146.67 43.4958C146.036 43.4958 145.478 43.3949 144.997 43.1929C144.517 42.9814 144.132 42.6929 143.843 42.3276C143.555 41.9622 143.382 41.5391 143.324 41.0583H145.185C145.243 41.3372 145.396 41.5776 145.646 41.7795C145.906 41.9718 146.238 42.0679 146.642 42.0679C147.045 42.0679 147.339 41.9862 147.521 41.8228C147.714 41.6593 147.81 41.4718 147.81 41.2603C147.81 40.9526 147.675 40.7458 147.406 40.6401C147.137 40.5247 146.762 40.4141 146.281 40.3083C145.973 40.241 145.661 40.1593 145.343 40.0631C145.026 39.967 144.733 39.8468 144.464 39.7026C144.204 39.5487 143.993 39.3564 143.829 39.1256C143.666 38.8853 143.584 38.592 143.584 38.2458C143.584 37.6112 143.834 37.0776 144.334 36.6449C144.843 36.2122 145.555 35.9958 146.468 35.9958C147.315 35.9958 147.988 36.1929 148.488 36.5872C148.997 36.9814 149.3 37.5247 149.396 38.217H147.651C147.545 37.6881 147.146 37.4237 146.454 37.4237C146.108 37.4237 145.839 37.491 145.646 37.6256C145.464 37.7603 145.372 37.9285 145.372 38.1304C145.372 38.342 145.512 38.5103 145.791 38.6353C146.069 38.7603 146.44 38.8756 146.901 38.9814C147.401 39.0968 147.858 39.2266 148.271 39.3708C148.694 39.5054 149.031 39.7122 149.281 39.991C149.531 40.2603 149.656 40.6497 149.656 41.1593C149.666 41.6016 149.55 42.0006 149.31 42.3564C149.069 42.7122 148.723 42.991 148.271 43.1929C147.819 43.3949 147.286 43.4958 146.67 43.4958ZM153.965 43.3228C153.215 43.3228 152.614 43.1401 152.162 42.7747C151.71 42.4093 151.484 41.7603 151.484 40.8276V37.7122H150.258V36.1689H151.484L151.701 34.2506H153.33V36.1689H155.263V37.7122H153.33V40.842C153.33 41.1881 153.403 41.4285 153.547 41.5631C153.701 41.6881 153.96 41.7506 154.326 41.7506H155.22V43.3228H153.965ZM157.555 35.0583C157.218 35.0583 156.94 34.9574 156.718 34.7554C156.507 34.5535 156.401 34.2987 156.401 33.991C156.401 33.6833 156.507 33.4333 156.718 33.241C156.94 33.0391 157.218 32.9381 157.555 32.9381C157.892 32.9381 158.166 33.0391 158.377 33.241C158.598 33.4333 158.709 33.6833 158.709 33.991C158.709 34.2987 158.598 34.5535 158.377 34.7554C158.166 34.9574 157.892 35.0583 157.555 35.0583ZM156.632 43.3228V36.1689H158.478V43.3228H156.632ZM160.117 43.3228V36.1689H161.746L161.891 37.3804C162.112 36.9574 162.429 36.6208 162.843 36.3708C163.266 36.1208 163.761 35.9958 164.328 35.9958C165.213 35.9958 165.9 36.2747 166.391 36.8324C166.881 37.3901 167.126 38.2074 167.126 39.2843V43.3228H165.28V39.4574C165.28 38.842 165.155 38.3708 164.905 38.0439C164.655 37.717 164.266 37.5535 163.737 37.5535C163.218 37.5535 162.79 37.7362 162.453 38.1016C162.126 38.467 161.963 38.9766 161.963 39.6304V43.3228H160.117ZM171.632 41.1881C171.286 41.1881 170.964 41.1497 170.666 41.0728L170.132 41.6064C170.295 41.6929 170.517 41.7651 170.795 41.8228C171.074 41.8804 171.526 41.9381 172.151 41.9958C173.103 42.0824 173.795 42.3083 174.228 42.6737C174.661 43.0391 174.877 43.5439 174.877 44.1881C174.877 44.6112 174.762 45.0103 174.531 45.3853C174.3 45.7699 173.944 46.0776 173.464 46.3083C172.983 46.5487 172.367 46.6689 171.617 46.6689C170.598 46.6689 169.776 46.4766 169.151 46.092C168.526 45.717 168.214 45.1497 168.214 44.3901C168.214 43.7458 168.526 43.1881 169.151 42.717C168.959 42.6304 168.791 42.5391 168.646 42.4429C168.512 42.3468 168.392 42.2458 168.286 42.1401V41.8083L169.541 40.4814C168.983 39.991 168.704 39.3612 168.704 38.592C168.704 38.1112 168.819 37.6737 169.05 37.2795C169.291 36.8853 169.627 36.5728 170.06 36.342C170.492 36.1112 171.017 35.9958 171.632 35.9958C172.036 35.9958 172.411 36.0535 172.757 36.1689H175.468V37.2939L174.242 37.3804C174.435 37.7458 174.531 38.1497 174.531 38.592C174.531 39.0728 174.416 39.5103 174.185 39.9045C173.954 40.2987 173.617 40.6112 173.175 40.842C172.742 41.0728 172.228 41.1881 171.632 41.1881ZM171.632 39.7747C172.007 39.7747 172.315 39.6737 172.555 39.4718C172.805 39.2699 172.93 38.9814 172.93 38.6064C172.93 38.2314 172.805 37.9429 172.555 37.741C172.315 37.5391 172.007 37.4381 171.632 37.4381C171.238 37.4381 170.92 37.5391 170.68 37.741C170.44 37.9429 170.319 38.2314 170.319 38.6064C170.319 38.9814 170.44 39.2699 170.68 39.4718C170.92 39.6737 171.238 39.7747 171.632 39.7747ZM169.901 44.2026C169.901 44.5583 170.065 44.8228 170.392 44.9958C170.728 45.1785 171.137 45.2699 171.617 45.2699C172.079 45.2699 172.454 45.1737 172.742 44.9814C173.031 44.7987 173.175 44.5487 173.175 44.2314C173.175 43.9718 173.079 43.7554 172.887 43.5824C172.704 43.4093 172.334 43.3035 171.776 43.2651C171.382 43.2362 171.017 43.1929 170.68 43.1353C170.401 43.2891 170.199 43.4574 170.074 43.6401C169.959 43.8228 169.901 44.0103 169.901 44.2026Z" fill="#546162"/>
</g>
<g filter="url(#filter1_d_1053_12850)">
<mask id="path-4-inside-2_1053_12850" fill="white">
<path d="M45 88.3228C45 72.3065 57.9837 59.3228 74 59.3228H175C191.016 59.3228 204 72.3065 204 88.3228C204 104.339 191.016 117.323 175 117.323H74C57.9837 117.323 45 104.339 45 88.3228Z"/>
</mask>
<path d="M45 88.3228C45 71.7542 58.4315 58.3228 75 58.3228H174C190.569 58.3228 204 71.7542 204 88.3228C204 72.8588 191.016 60.3228 175 60.3228H74C57.9837 60.3228 45 72.8588 45 88.3228ZM204 117.323H45H204ZM45 117.323V59.3228V117.323ZM204 59.3228V117.323V59.3228Z" fill="#EF841F" mask="url(#path-4-inside-2_1053_12850)"/>
<path d="M81.4419 84.3228V74.2266H85.4948C86.5429 74.2266 87.341 74.4718 87.889 74.9622C88.4467 75.4429 88.7256 76.0631 88.7256 76.8228C88.7256 77.4574 88.5525 77.967 88.2064 78.3516C87.8698 78.7266 87.4564 78.9814 86.966 79.116C87.5429 79.2314 88.0189 79.5199 88.3939 79.9814C88.7689 80.4333 88.9564 80.9622 88.9564 81.5679C88.9564 82.366 88.6679 83.0247 88.091 83.5439C87.514 84.0631 86.6967 84.3228 85.639 84.3228H81.4419ZM83.2881 78.467H85.2208C85.74 78.467 86.139 78.3468 86.4179 78.1064C86.6967 77.866 86.8362 77.5247 86.8362 77.0824C86.8362 76.6593 86.6967 76.3276 86.4179 76.0872C86.1487 75.8372 85.74 75.7122 85.1919 75.7122H83.2881V78.467ZM83.2881 82.8228H85.3506C85.8987 82.8228 86.3217 82.6978 86.6198 82.4478C86.9275 82.1881 87.0814 81.8276 87.0814 81.366C87.0814 80.8949 86.9227 80.5247 86.6054 80.2554C86.2881 79.9862 85.8602 79.8516 85.3217 79.8516H83.2881V82.8228ZM92.8918 84.4958C91.9976 84.4958 91.3053 84.217 90.8149 83.6593C90.3341 83.1016 90.0937 82.2843 90.0937 81.2074V77.1689H91.9255V81.0343C91.9255 81.6497 92.0505 82.1208 92.3005 82.4478C92.5505 82.7747 92.9447 82.9381 93.4832 82.9381C93.9928 82.9381 94.4111 82.7554 94.738 82.3901C95.0745 82.0247 95.2428 81.5151 95.2428 80.8612V77.1689H97.0889V84.3228H95.4591L95.3149 83.1112C95.0937 83.5343 94.7716 83.8708 94.3486 84.1208C93.9351 84.3708 93.4495 84.4958 92.8918 84.4958ZM99.6908 76.0583C99.3543 76.0583 99.0755 75.9574 98.8543 75.7554C98.6428 75.5535 98.537 75.2987 98.537 74.991C98.537 74.6833 98.6428 74.4333 98.8543 74.241C99.0755 74.0391 99.3543 73.9381 99.6908 73.9381C100.027 73.9381 100.301 74.0391 100.513 74.241C100.734 74.4333 100.845 74.6833 100.845 74.991C100.845 75.2987 100.734 75.5535 100.513 75.7554C100.301 75.9574 100.027 76.0583 99.6908 76.0583ZM98.7678 84.3228V77.1689H100.614V84.3228H98.7678ZM102.252 84.3228V73.9381H104.099V84.3228H102.252ZM108.884 84.3228C108.134 84.3228 107.533 84.1401 107.081 83.7747C106.629 83.4093 106.403 82.7603 106.403 81.8276V78.7122H105.177V77.1689H106.403L106.62 75.2506H108.249V77.1689H110.182V78.7122H108.249V81.842C108.249 82.1881 108.321 82.4285 108.466 82.5631C108.62 82.6881 108.879 82.7506 109.245 82.7506H110.139V84.3228H108.884ZM116.026 84.3228L113.935 77.1689H115.766L117.007 82.3179L118.449 77.1689H120.497L121.939 82.3179L123.194 77.1689H125.026L122.92 84.3228H121.002L119.473 78.9718L117.944 84.3228H116.026ZM126.897 76.0583C126.561 76.0583 126.282 75.9574 126.061 75.7554C125.849 75.5535 125.744 75.2987 125.744 74.991C125.744 74.6833 125.849 74.4333 126.061 74.241C126.282 74.0391 126.561 73.9381 126.897 73.9381C127.234 73.9381 127.508 74.0391 127.72 74.241C127.941 74.4333 128.051 74.6833 128.051 74.991C128.051 75.2987 127.941 75.5535 127.72 75.7554C127.508 75.9574 127.234 76.0583 126.897 76.0583ZM125.974 84.3228V77.1689H127.821V84.3228H125.974ZM132.647 84.3228C131.897 84.3228 131.296 84.1401 130.844 83.7747C130.392 83.4093 130.166 82.7603 130.166 81.8276V78.7122H128.94V77.1689H130.166L130.382 75.2506H132.012V77.1689H133.945V78.7122H132.012V81.842C132.012 82.1881 132.084 82.4285 132.228 82.5631C132.382 82.6881 132.642 82.7506 133.007 82.7506H133.901V84.3228H132.647ZM135.241 84.3228V73.9381H137.087V78.2651C137.328 77.8708 137.65 77.5631 138.054 77.342C138.467 77.1112 138.938 76.9958 139.467 76.9958C140.352 76.9958 141.035 77.2747 141.515 77.8324C142.006 78.3901 142.251 79.2074 142.251 80.2843V84.3228H140.419V80.4574C140.419 79.842 140.294 79.3708 140.044 79.0439C139.804 78.717 139.419 78.5535 138.89 78.5535C138.371 78.5535 137.938 78.7362 137.592 79.1016C137.256 79.467 137.087 79.9766 137.087 80.6304V84.3228H135.241ZM150.064 84.3228C149.314 84.3228 148.713 84.1401 148.261 83.7747C147.809 83.4093 147.583 82.7603 147.583 81.8276V78.7122H146.357V77.1689H147.583L147.799 75.2506H149.429V77.1689H151.362V78.7122H149.429V81.842C149.429 82.1881 149.501 82.4285 149.645 82.5631C149.799 82.6881 150.059 82.7506 150.424 82.7506H151.318V84.3228H150.064ZM152.658 84.3228V73.9381H154.504V78.2651C154.745 77.8708 155.067 77.5631 155.471 77.342C155.884 77.1112 156.355 76.9958 156.884 76.9958C157.769 76.9958 158.452 77.2747 158.932 77.8324C159.423 78.3901 159.668 79.2074 159.668 80.2843V84.3228H157.836V80.4574C157.836 79.842 157.711 79.3708 157.461 79.0439C157.221 78.717 156.836 78.5535 156.307 78.5535C155.788 78.5535 155.355 78.7362 155.009 79.1016C154.673 79.467 154.504 79.9766 154.504 80.6304V84.3228H152.658ZM164.621 84.4958C163.9 84.4958 163.26 84.342 162.702 84.0343C162.145 83.7266 161.707 83.2939 161.39 82.7362C161.073 82.1785 160.914 81.5343 160.914 80.8035C160.914 80.0631 161.068 79.4045 161.376 78.8276C161.693 78.2506 162.126 77.8035 162.674 77.4862C163.231 77.1593 163.885 76.9958 164.635 76.9958C165.337 76.9958 165.957 77.1497 166.496 77.4574C167.034 77.7651 167.452 78.1881 167.751 78.7266C168.058 79.2554 168.212 79.8468 168.212 80.5006C168.212 80.6064 168.207 80.717 168.198 80.8324C168.198 80.9478 168.193 81.0679 168.183 81.1929H162.746C162.784 81.7506 162.976 82.1881 163.323 82.5054C163.678 82.8228 164.106 82.9814 164.606 82.9814C164.981 82.9814 165.294 82.8997 165.544 82.7362C165.803 82.5631 165.996 82.342 166.121 82.0728H167.996C167.861 82.5247 167.635 82.9381 167.318 83.3131C167.01 83.6785 166.626 83.967 166.164 84.1785C165.712 84.3901 165.198 84.4958 164.621 84.4958ZM164.635 78.4958C164.183 78.4958 163.784 78.6256 163.438 78.8853C163.092 79.1353 162.871 79.5199 162.775 80.0391H166.337C166.308 79.5679 166.135 79.1929 165.818 78.9141C165.501 78.6353 165.106 78.4958 164.635 78.4958ZM75.3293 101.323V91.2266H79.0649C79.8726 91.2266 80.5408 91.3612 81.0697 91.6304C81.5985 91.8997 81.9928 92.2699 82.2524 92.741C82.512 93.2122 82.6418 93.741 82.6418 94.3276C82.6418 94.8853 82.5168 95.3997 82.2668 95.8708C82.0168 96.3324 81.6274 96.7074 81.0985 96.9958C80.5697 97.2747 79.8918 97.4141 79.0649 97.4141H77.1755V101.323H75.3293ZM77.1755 95.9141H78.9495C79.5937 95.9141 80.0553 95.7747 80.3341 95.4958C80.6226 95.2074 80.7668 94.8179 80.7668 94.3276C80.7668 93.8276 80.6226 93.4381 80.3341 93.1593C80.0553 92.8708 79.5937 92.7266 78.9495 92.7266H77.1755V95.9141ZM86.825 101.496C86.1326 101.496 85.5076 101.337 84.95 101.02C84.4019 100.703 83.9644 100.265 83.6375 99.7074C83.3201 99.1401 83.1615 98.4862 83.1615 97.7458C83.1615 97.0054 83.325 96.3564 83.6519 95.7987C83.9788 95.2314 84.4163 94.7891 84.9644 94.4718C85.5221 94.1545 86.1471 93.9958 86.8394 93.9958C87.5221 93.9958 88.1375 94.1545 88.6855 94.4718C89.2432 94.7891 89.6807 95.2314 89.998 95.7987C90.325 96.3564 90.4884 97.0054 90.4884 97.7458C90.4884 98.4862 90.325 99.1401 89.998 99.7074C89.6807 100.265 89.2432 100.703 88.6855 101.02C88.1278 101.337 87.5076 101.496 86.825 101.496ZM86.825 99.8949C87.3057 99.8949 87.724 99.717 88.0798 99.3612C88.4355 98.9958 88.6134 98.4574 88.6134 97.7458C88.6134 97.0343 88.4355 96.5006 88.0798 96.1449C87.724 95.7795 87.3105 95.5968 86.8394 95.5968C86.349 95.5968 85.9259 95.7795 85.5701 96.1449C85.224 96.5006 85.0509 97.0343 85.0509 97.7458C85.0509 98.4574 85.224 98.9958 85.5701 99.3612C85.9259 99.717 86.3442 99.8949 86.825 99.8949ZM92.9961 101.323L90.9048 94.1689H92.7365L93.9769 99.3179L95.4192 94.1689H97.4673L98.9096 99.3179L100.164 94.1689H101.996L99.8903 101.323H97.9721L96.4432 95.9718L94.9144 101.323H92.9961ZM106.095 101.496C105.374 101.496 104.734 101.342 104.177 101.034C103.619 100.727 103.181 100.294 102.864 99.7362C102.547 99.1785 102.388 98.5343 102.388 97.8035C102.388 97.0631 102.542 96.4045 102.85 95.8276C103.167 95.2506 103.6 94.8035 104.148 94.4862C104.705 94.1593 105.359 93.9958 106.109 93.9958C106.811 93.9958 107.431 94.1497 107.97 94.4574C108.508 94.7651 108.927 95.1881 109.225 95.7266C109.532 96.2554 109.686 96.8468 109.686 97.5006C109.686 97.6064 109.681 97.717 109.672 97.8324C109.672 97.9478 109.667 98.0679 109.657 98.1929H104.22C104.258 98.7506 104.451 99.1881 104.797 99.5054C105.153 99.8228 105.58 99.9814 106.08 99.9814C106.455 99.9814 106.768 99.8997 107.018 99.7362C107.278 99.5631 107.47 99.342 107.595 99.0728H109.47C109.335 99.5247 109.109 99.9381 108.792 100.313C108.484 100.679 108.1 100.967 107.638 101.179C107.186 101.39 106.672 101.496 106.095 101.496ZM106.109 95.4958C105.657 95.4958 105.258 95.6256 104.912 95.8853C104.566 96.1353 104.345 96.5199 104.249 97.0391H107.811C107.782 96.5679 107.609 96.1929 107.292 95.9141C106.975 95.6353 106.58 95.4958 106.109 95.4958ZM110.95 101.323V94.1689H112.595L112.768 95.5103C113.027 95.0487 113.378 94.6833 113.821 94.4141C114.273 94.1353 114.801 93.9958 115.407 93.9958V95.9429H114.888C114.484 95.9429 114.124 96.0054 113.806 96.1304C113.489 96.2554 113.239 96.4718 113.056 96.7795C112.883 97.0872 112.797 97.5151 112.797 98.0631V101.323H110.95ZM122.962 101.496C122.269 101.496 121.644 101.337 121.087 101.02C120.538 100.703 120.101 100.265 119.774 99.7074C119.457 99.1401 119.298 98.4862 119.298 97.7458C119.298 97.0054 119.462 96.3564 119.788 95.7987C120.115 95.2314 120.553 94.7891 121.101 94.4718C121.659 94.1545 122.284 93.9958 122.976 93.9958C123.659 93.9958 124.274 94.1545 124.822 94.4718C125.38 94.7891 125.817 95.2314 126.135 95.7987C126.462 96.3564 126.625 97.0054 126.625 97.7458C126.625 98.4862 126.462 99.1401 126.135 99.7074C125.817 100.265 125.38 100.703 124.822 101.02C124.264 101.337 123.644 101.496 122.962 101.496ZM122.962 99.8949C123.442 99.8949 123.861 99.717 124.216 99.3612C124.572 98.9958 124.75 98.4574 124.75 97.7458C124.75 97.0343 124.572 96.5006 124.216 96.1449C123.861 95.7795 123.447 95.5968 122.976 95.5968C122.486 95.5968 122.062 95.7795 121.707 96.1449C121.361 96.5006 121.187 97.0343 121.187 97.7458C121.187 98.4574 121.361 98.9958 121.707 99.3612C122.062 99.717 122.481 99.8949 122.962 99.8949ZM128.319 101.323V95.7122H127.338V94.1689H128.319V93.3324C128.319 92.467 128.535 91.8516 128.968 91.4862C129.41 91.1208 130.006 90.9381 130.756 90.9381H131.55V92.5103H131.045C130.728 92.5103 130.502 92.5728 130.367 92.6978C130.232 92.8228 130.165 93.0343 130.165 93.3324V94.1689H131.708V95.7122H130.165V101.323H128.319ZM138.122 101.323L135.453 91.2266H137.429L139.247 99.2603L141.381 91.2266H143.415L145.492 99.2603L147.309 91.2266H149.3L146.559 101.323H144.367L142.362 93.8372L140.3 101.323H138.122ZM153.021 101.496C152.3 101.496 151.661 101.342 151.103 101.034C150.545 100.727 150.108 100.294 149.79 99.7362C149.473 99.1785 149.314 98.5343 149.314 97.8035C149.314 97.0631 149.468 96.4045 149.776 95.8276C150.093 95.2506 150.526 94.8035 151.074 94.4862C151.632 94.1593 152.286 93.9958 153.036 93.9958C153.737 93.9958 154.358 94.1497 154.896 94.4574C155.435 94.7651 155.853 95.1881 156.151 95.7266C156.459 96.2554 156.612 96.8468 156.612 97.5006C156.612 97.6064 156.608 97.717 156.598 97.8324C156.598 97.9478 156.593 98.0679 156.584 98.1929H151.146C151.185 98.7506 151.377 99.1881 151.723 99.5054C152.079 99.8228 152.507 99.9814 153.007 99.9814C153.382 99.9814 153.694 99.8997 153.944 99.7362C154.204 99.5631 154.396 99.342 154.521 99.0728H156.396C156.262 99.5247 156.036 99.9381 155.718 100.313C155.411 100.679 155.026 100.967 154.564 101.179C154.112 101.39 153.598 101.496 153.021 101.496ZM153.036 95.4958C152.584 95.4958 152.185 95.6256 151.838 95.8853C151.492 96.1353 151.271 96.5199 151.175 97.0391H154.737C154.709 96.5679 154.536 96.1929 154.218 95.9141C153.901 95.6353 153.507 95.4958 153.036 95.4958ZM162.117 101.496C161.579 101.496 161.108 101.395 160.704 101.193C160.3 100.991 159.973 100.707 159.723 100.342L159.521 101.323H157.877V90.9381H159.723V95.1929C159.954 94.8756 160.257 94.5968 160.632 94.3564C161.016 94.116 161.511 93.9958 162.117 93.9958C162.79 93.9958 163.391 94.1593 163.92 94.4862C164.449 94.8131 164.867 95.2603 165.175 95.8276C165.483 96.3949 165.636 97.0391 165.636 97.7603C165.636 98.4814 165.483 99.1256 165.175 99.6929C164.867 100.251 164.449 100.693 163.92 101.02C163.391 101.337 162.79 101.496 162.117 101.496ZM161.728 99.8804C162.314 99.8804 162.8 99.6833 163.184 99.2891C163.569 98.8949 163.761 98.3853 163.761 97.7603C163.761 97.1353 163.569 96.6208 163.184 96.217C162.8 95.8131 162.314 95.6112 161.728 95.6112C161.132 95.6112 160.641 95.8131 160.257 96.217C159.882 96.6112 159.694 97.1208 159.694 97.7458C159.694 98.3708 159.882 98.8853 160.257 99.2891C160.641 99.6833 161.132 99.8804 161.728 99.8804ZM170.343 101.496C169.68 101.496 169.079 101.38 168.54 101.15C168.002 100.909 167.569 100.544 167.242 100.054C166.915 99.5631 166.742 98.9478 166.723 98.2074H168.54C168.55 98.6978 168.709 99.1112 169.016 99.4478C169.334 99.7747 169.776 99.9381 170.343 99.9381C170.882 99.9381 171.295 99.7891 171.584 99.491C171.872 99.1929 172.016 98.8179 172.016 98.366C172.016 97.8372 171.824 97.4381 171.439 97.1689C171.064 96.8901 170.579 96.7506 169.983 96.7506H169.233V95.2362H169.997C170.487 95.2362 170.896 95.1208 171.223 94.8901C171.55 94.6593 171.713 94.3179 171.713 93.866C171.713 93.491 171.588 93.1929 171.338 92.9718C171.098 92.741 170.762 92.6256 170.329 92.6256C169.858 92.6256 169.487 92.7651 169.218 93.0439C168.959 93.3228 168.814 93.6641 168.786 94.0679H166.983C167.021 93.1353 167.343 92.3997 167.949 91.8612C168.564 91.3228 169.358 91.0535 170.329 91.0535C171.021 91.0535 171.603 91.1785 172.074 91.4285C172.555 91.6689 172.915 91.991 173.156 92.3949C173.406 92.7987 173.531 93.2458 173.531 93.7362C173.531 94.3035 173.372 94.7843 173.055 95.1785C172.747 95.5631 172.362 95.8228 171.901 95.9574C172.468 96.0728 172.93 96.3516 173.286 96.7939C173.641 97.2266 173.819 97.7747 173.819 98.4381C173.819 98.9958 173.685 99.5054 173.415 99.967C173.146 100.429 172.752 100.799 172.233 101.078C171.723 101.356 171.093 101.496 170.343 101.496Z" fill="#546162"/>
</g>
<g filter="url(#filter2_d_1053_12850)">
<mask id="path-7-inside-3_1053_12850" fill="white">
<path d="M212 30.3228C212 14.3065 224.984 1.32275 241 1.32275H357C373.016 1.32275 386 14.3065 386 30.3228C386 46.339 373.016 59.3228 357 59.3228H241C224.984 59.3228 212 46.339 212 30.3228Z"/>
</mask>
<path d="M212 1.32275H386H212ZM386 30.3228C386 46.8913 372.569 60.3228 356 60.3228H242C225.431 60.3228 212 46.8913 212 30.3228C212 45.7867 224.984 58.3228 241 58.3228H357C373.016 58.3228 386 45.7867 386 30.3228ZM212 59.3228V1.32275V59.3228ZM386 1.32275V59.3228V1.32275Z" fill="#EF1FCE" mask="url(#path-7-inside-3_1053_12850)"/>
<path d="M236.131 26.3228V16.2266H242.722V17.7122H237.977V20.4814H242.289V21.9237H237.977V24.8372H242.722V26.3228H236.131ZM246.604 26.4958C245.988 26.4958 245.484 26.3997 245.089 26.2074C244.695 26.0054 244.402 25.741 244.209 25.4141C244.017 25.0872 243.921 24.7266 243.921 24.3324C243.921 23.6689 244.181 23.1304 244.7 22.717C245.219 22.3035 245.998 22.0968 247.036 22.0968H248.854V21.9237C248.854 21.4333 248.714 21.0728 248.435 20.842C248.157 20.6112 247.81 20.4958 247.397 20.4958C247.022 20.4958 246.695 20.5872 246.416 20.7699C246.137 20.9429 245.964 21.2026 245.897 21.5487H244.094C244.142 21.0295 244.315 20.5776 244.613 20.1929C244.921 19.8083 245.315 19.5151 245.796 19.3131C246.277 19.1016 246.815 18.9958 247.411 18.9958C248.431 18.9958 249.234 19.2506 249.82 19.7603C250.407 20.2699 250.7 20.991 250.7 21.9237V26.3228H249.128L248.955 25.1689C248.743 25.5535 248.445 25.8708 248.06 26.1208C247.685 26.3708 247.2 26.4958 246.604 26.4958ZM247.022 25.0535C247.551 25.0535 247.959 24.8804 248.248 24.5343C248.546 24.1881 248.734 23.7603 248.81 23.2506H247.238C246.748 23.2506 246.397 23.342 246.185 23.5247C245.974 23.6978 245.868 23.9141 245.868 24.1737C245.868 24.4526 245.974 24.6689 246.185 24.8228C246.397 24.9766 246.676 25.0535 247.022 25.0535ZM255.13 26.4958C254.495 26.4958 253.938 26.3949 253.457 26.1929C252.976 25.9814 252.591 25.6929 252.303 25.3276C252.015 24.9622 251.841 24.5391 251.784 24.0583H253.644C253.702 24.3372 253.856 24.5776 254.106 24.7795C254.365 24.9718 254.697 25.0679 255.101 25.0679C255.505 25.0679 255.798 24.9862 255.981 24.8228C256.173 24.6593 256.269 24.4718 256.269 24.2603C256.269 23.9526 256.135 23.7458 255.865 23.6401C255.596 23.5247 255.221 23.4141 254.74 23.3083C254.433 23.241 254.12 23.1593 253.803 23.0631C253.486 22.967 253.192 22.8468 252.923 22.7026C252.664 22.5487 252.452 22.3564 252.289 22.1256C252.125 21.8853 252.043 21.592 252.043 21.2458C252.043 20.6112 252.293 20.0776 252.793 19.6449C253.303 19.2122 254.015 18.9958 254.928 18.9958C255.774 18.9958 256.447 19.1929 256.947 19.5872C257.457 19.9814 257.76 20.5247 257.856 21.217H256.111C256.005 20.6881 255.606 20.4237 254.914 20.4237C254.567 20.4237 254.298 20.491 254.106 20.6256C253.923 20.7603 253.832 20.9285 253.832 21.1304C253.832 21.342 253.971 21.5103 254.25 21.6353C254.529 21.7603 254.899 21.8756 255.361 21.9814C255.861 22.0968 256.317 22.2266 256.731 22.3708C257.154 22.5054 257.49 22.7122 257.74 22.991C257.99 23.2603 258.115 23.6497 258.115 24.1593C258.125 24.6016 258.01 25.0006 257.769 25.3564C257.529 25.7122 257.183 25.991 256.731 26.1929C256.279 26.3949 255.745 26.4958 255.13 26.4958ZM259.976 29.4958L261.635 25.8468H261.202L258.419 19.1689H260.424L262.428 24.2026L264.52 19.1689H266.481L261.938 29.4958H259.976ZM270.591 26.3228V16.2266H272.437V26.3228H270.591ZM274.062 26.3228V19.1689H275.692L275.836 20.3804C276.058 19.9574 276.375 19.6208 276.788 19.3708C277.211 19.1208 277.707 18.9958 278.274 18.9958C279.159 18.9958 279.846 19.2747 280.336 19.8324C280.827 20.3901 281.072 21.2074 281.072 22.2843V26.3228H279.226V22.4574C279.226 21.842 279.101 21.3708 278.851 21.0439C278.601 20.717 278.211 20.5535 277.683 20.5535C277.163 20.5535 276.736 20.7362 276.399 21.1016C276.072 21.467 275.909 21.9766 275.909 22.6304V26.3228H274.062ZM284.411 26.3228L281.786 19.1689H283.719L285.536 24.5776L287.354 19.1689H289.286L286.647 26.3228H284.411ZM293.286 26.4958C292.565 26.4958 291.925 26.342 291.368 26.0343C290.81 25.7266 290.373 25.2939 290.055 24.7362C289.738 24.1785 289.579 23.5343 289.579 22.8035C289.579 22.0631 289.733 21.4045 290.041 20.8276C290.358 20.2506 290.791 19.8035 291.339 19.4862C291.897 19.1593 292.55 18.9958 293.3 18.9958C294.002 18.9958 294.623 19.1497 295.161 19.4574C295.7 19.7651 296.118 20.1881 296.416 20.7266C296.724 21.2554 296.877 21.8468 296.877 22.5006C296.877 22.6064 296.873 22.717 296.863 22.8324C296.863 22.9478 296.858 23.0679 296.849 23.1929H291.411C291.45 23.7506 291.642 24.1881 291.988 24.5054C292.344 24.8228 292.772 24.9814 293.272 24.9814C293.647 24.9814 293.959 24.8997 294.209 24.7362C294.469 24.5631 294.661 24.342 294.786 24.0728H296.661C296.526 24.5247 296.3 24.9381 295.983 25.3131C295.675 25.6785 295.291 25.967 294.829 26.1785C294.377 26.3901 293.863 26.4958 293.286 26.4958ZM293.3 20.4958C292.849 20.4958 292.45 20.6256 292.103 20.8853C291.757 21.1353 291.536 21.5199 291.44 22.0391H295.002C294.974 21.5679 294.8 21.1929 294.483 20.9141C294.166 20.6353 293.772 20.4958 293.3 20.4958ZM301.098 26.4958C300.464 26.4958 299.906 26.3949 299.425 26.1929C298.945 25.9814 298.56 25.6929 298.271 25.3276C297.983 24.9622 297.81 24.5391 297.752 24.0583H299.613C299.671 24.3372 299.824 24.5776 300.074 24.7795C300.334 24.9718 300.666 25.0679 301.07 25.0679C301.473 25.0679 301.767 24.9862 301.949 24.8228C302.142 24.6593 302.238 24.4718 302.238 24.2603C302.238 23.9526 302.103 23.7458 301.834 23.6401C301.565 23.5247 301.19 23.4141 300.709 23.3083C300.401 23.241 300.089 23.1593 299.771 23.0631C299.454 22.967 299.161 22.8468 298.892 22.7026C298.632 22.5487 298.421 22.3564 298.257 22.1256C298.094 21.8853 298.012 21.592 298.012 21.2458C298.012 20.6112 298.262 20.0776 298.762 19.6449C299.271 19.2122 299.983 18.9958 300.896 18.9958C301.743 18.9958 302.416 19.1929 302.916 19.5872C303.425 19.9814 303.728 20.5247 303.824 21.217H302.079C301.973 20.6881 301.574 20.4237 300.882 20.4237C300.536 20.4237 300.267 20.491 300.074 20.6256C299.892 20.7603 299.8 20.9285 299.8 21.1304C299.8 21.342 299.94 21.5103 300.219 21.6353C300.497 21.7603 300.868 21.8756 301.329 21.9814C301.829 22.0968 302.286 22.2266 302.699 22.3708C303.122 22.5054 303.459 22.7122 303.709 22.991C303.959 23.2603 304.084 23.6497 304.084 24.1593C304.094 24.6016 303.978 25.0006 303.738 25.3564C303.497 25.7122 303.151 25.991 302.699 26.1929C302.247 26.3949 301.714 26.4958 301.098 26.4958ZM308.393 26.3228C307.643 26.3228 307.042 26.1401 306.59 25.7747C306.138 25.4093 305.912 24.7603 305.912 23.8276V20.7122H304.686V19.1689H305.912L306.129 17.2506H307.758V19.1689H309.691V20.7122H307.758V23.842C307.758 24.1881 307.831 24.4285 307.975 24.5631C308.129 24.6881 308.388 24.7506 308.754 24.7506H309.648V26.3228H308.393ZM311.983 18.0583C311.646 18.0583 311.368 17.9574 311.146 17.7554C310.935 17.5535 310.829 17.2987 310.829 16.991C310.829 16.6833 310.935 16.4333 311.146 16.241C311.368 16.0391 311.646 15.9381 311.983 15.9381C312.32 15.9381 312.594 16.0391 312.805 16.241C313.026 16.4333 313.137 16.6833 313.137 16.991C313.137 17.2987 313.026 17.5535 312.805 17.7554C312.594 17.9574 312.32 18.0583 311.983 18.0583ZM311.06 26.3228V19.1689H312.906V26.3228H311.06ZM314.545 26.3228V19.1689H316.174L316.319 20.3804C316.54 19.9574 316.857 19.6208 317.27 19.3708C317.694 19.1208 318.189 18.9958 318.756 18.9958C319.641 18.9958 320.328 19.2747 320.819 19.8324C321.309 20.3901 321.554 21.2074 321.554 22.2843V26.3228H319.708V22.4574C319.708 21.842 319.583 21.3708 319.333 21.0439C319.083 20.717 318.694 20.5535 318.165 20.5535C317.645 20.5535 317.218 20.7362 316.881 21.1016C316.554 21.467 316.391 21.9766 316.391 22.6304V26.3228H314.545ZM326.06 24.1881C325.714 24.1881 325.392 24.1497 325.094 24.0728L324.56 24.6064C324.723 24.6929 324.944 24.7651 325.223 24.8228C325.502 24.8804 325.954 24.9381 326.579 24.9958C327.531 25.0824 328.223 25.3083 328.656 25.6737C329.089 26.0391 329.305 26.5439 329.305 27.1881C329.305 27.6112 329.19 28.0103 328.959 28.3853C328.728 28.7699 328.372 29.0776 327.892 29.3083C327.411 29.5487 326.795 29.6689 326.045 29.6689C325.026 29.6689 324.204 29.4766 323.579 29.092C322.954 28.717 322.642 28.1497 322.642 27.3901C322.642 26.7458 322.954 26.1881 323.579 25.717C323.387 25.6304 323.219 25.5391 323.074 25.4429C322.94 25.3468 322.819 25.2458 322.714 25.1401V24.8083L323.969 23.4814C323.411 22.991 323.132 22.3612 323.132 21.592C323.132 21.1112 323.247 20.6737 323.478 20.2795C323.719 19.8853 324.055 19.5728 324.488 19.342C324.92 19.1112 325.444 18.9958 326.06 18.9958C326.464 18.9958 326.839 19.0535 327.185 19.1689H329.896V20.2939L328.67 20.3804C328.863 20.7458 328.959 21.1497 328.959 21.592C328.959 22.0728 328.844 22.5103 328.613 22.9045C328.382 23.2987 328.045 23.6112 327.603 23.842C327.17 24.0728 326.656 24.1881 326.06 24.1881ZM326.06 22.7747C326.435 22.7747 326.743 22.6737 326.983 22.4718C327.233 22.2699 327.358 21.9814 327.358 21.6064C327.358 21.2314 327.233 20.9429 326.983 20.741C326.743 20.5391 326.435 20.4381 326.06 20.4381C325.666 20.4381 325.348 20.5391 325.108 20.741C324.868 20.9429 324.747 21.2314 324.747 21.6064C324.747 21.9814 324.868 22.2699 325.108 22.4718C325.348 22.6737 325.666 22.7747 326.06 22.7747ZM324.329 27.2026C324.329 27.5583 324.493 27.8228 324.819 27.9958C325.156 28.1785 325.565 28.2699 326.045 28.2699C326.507 28.2699 326.882 28.1737 327.17 27.9814C327.459 27.7987 327.603 27.5487 327.603 27.2314C327.603 26.9718 327.507 26.7554 327.315 26.5824C327.132 26.4093 326.762 26.3035 326.204 26.2651C325.81 26.2362 325.444 26.1929 325.108 26.1353C324.829 26.2891 324.627 26.4574 324.502 26.6401C324.387 26.8228 324.329 27.0103 324.329 27.2026ZM334.146 26.3228V16.2266H337.593C338.776 16.2266 339.747 16.4381 340.506 16.8612C341.276 17.2747 341.843 17.8612 342.208 18.6208C342.583 19.3708 342.771 20.2554 342.771 21.2747C342.771 22.2939 342.583 23.1833 342.208 23.9429C341.843 24.6929 341.276 25.2795 340.506 25.7026C339.747 26.116 338.776 26.3228 337.593 26.3228H334.146ZM335.992 24.7362H337.506C338.352 24.7362 339.021 24.6016 339.511 24.3324C340.001 24.0535 340.352 23.6593 340.564 23.1497C340.776 22.6304 340.881 22.0054 340.881 21.2747C340.881 20.5535 340.776 19.9333 340.564 19.4141C340.352 18.8949 340.001 18.4958 339.511 18.217C339.021 17.9381 338.352 17.7987 337.506 17.7987H335.992V24.7362ZM342.814 26.3228L346.507 16.2266H348.583L352.276 26.3228H350.314L349.507 23.9862H345.569L344.747 26.3228H342.814ZM346.074 22.5439H349.002L347.531 18.3468L346.074 22.5439ZM357.441 26.4958C356.432 26.4958 355.547 26.2747 354.787 25.8324C354.037 25.3901 353.446 24.7795 353.013 24.0006C352.59 23.2122 352.379 22.3035 352.379 21.2747C352.379 20.2458 352.59 19.342 353.013 18.5631C353.446 17.7747 354.037 17.1593 354.787 16.717C355.547 16.2747 356.432 16.0535 357.441 16.0535C358.441 16.0535 359.321 16.2747 360.081 16.717C360.84 17.1593 361.432 17.7747 361.855 18.5631C362.278 19.342 362.489 20.2458 362.489 21.2747C362.489 22.3035 362.278 23.2122 361.855 24.0006C361.432 24.7795 360.84 25.3901 360.081 25.8324C359.321 26.2747 358.441 26.4958 357.441 26.4958ZM357.441 24.8372C358.403 24.8372 359.167 24.5199 359.734 23.8853C360.311 23.2506 360.6 22.3804 360.6 21.2747C360.6 20.1689 360.311 19.2987 359.734 18.6641C359.167 18.0295 358.403 17.7122 357.441 17.7122C356.48 17.7122 355.71 18.0295 355.133 18.6641C354.557 19.2987 354.268 20.1689 354.268 21.2747C354.268 22.3804 354.557 23.2506 355.133 23.8853C355.71 24.5199 356.48 24.8372 357.441 24.8372ZM248.879 43.4958C248.263 43.4958 247.759 43.3997 247.364 43.2074C246.97 43.0054 246.677 42.741 246.485 42.4141C246.292 42.0872 246.196 41.7266 246.196 41.3324C246.196 40.6689 246.456 40.1304 246.975 39.717C247.494 39.3035 248.273 39.0968 249.311 39.0968H251.129V38.9237C251.129 38.4333 250.989 38.0728 250.71 37.842C250.432 37.6112 250.085 37.4958 249.672 37.4958C249.297 37.4958 248.97 37.5872 248.691 37.7699C248.412 37.9429 248.239 38.2026 248.172 38.5487H246.369C246.417 38.0295 246.59 37.5776 246.888 37.1929C247.196 36.8083 247.59 36.5151 248.071 36.3131C248.552 36.1016 249.09 35.9958 249.686 35.9958C250.706 35.9958 251.509 36.2506 252.095 36.7603C252.682 37.2699 252.975 37.991 252.975 38.9237V43.3228H251.403L251.23 42.1689C251.018 42.5535 250.72 42.8708 250.335 43.1208C249.96 43.3708 249.475 43.4958 248.879 43.4958ZM249.297 42.0535C249.826 42.0535 250.235 41.8804 250.523 41.5343C250.821 41.1881 251.009 40.7603 251.085 40.2506H249.513C249.023 40.2506 248.672 40.342 248.46 40.5247C248.249 40.6978 248.143 40.9141 248.143 41.1737C248.143 41.4526 248.249 41.6689 248.46 41.8228C248.672 41.9766 248.951 42.0535 249.297 42.0535ZM254.448 43.3228V36.1689H256.078L256.222 37.3804C256.443 36.9574 256.761 36.6208 257.174 36.3708C257.597 36.1208 258.092 35.9958 258.66 35.9958C259.544 35.9958 260.232 36.2747 260.722 36.8324C261.213 37.3901 261.458 38.2074 261.458 39.2843V43.3228H259.612V39.4574C259.612 38.842 259.487 38.3708 259.237 38.0439C258.987 37.717 258.597 37.5535 258.068 37.5535C257.549 37.5535 257.121 37.7362 256.785 38.1016C256.458 38.467 256.294 38.9766 256.294 39.6304V43.3228H254.448ZM266.223 43.4958C265.55 43.4958 264.949 43.3324 264.42 43.0054C263.891 42.6785 263.473 42.2314 263.165 41.6641C262.858 41.0968 262.704 40.4526 262.704 39.7314C262.704 39.0103 262.858 38.3708 263.165 37.8131C263.473 37.2458 263.891 36.8035 264.42 36.4862C264.949 36.1593 265.55 35.9958 266.223 35.9958C266.762 35.9958 267.233 36.0968 267.637 36.2987C268.04 36.5006 268.367 36.7843 268.617 37.1497V32.9381H270.464V43.3228H268.819L268.617 42.2987C268.387 42.616 268.079 42.8949 267.694 43.1353C267.319 43.3756 266.829 43.4958 266.223 43.4958ZM266.613 41.8804C267.209 41.8804 267.694 41.6833 268.069 41.2891C268.454 40.8853 268.646 40.3708 268.646 39.7458C268.646 39.1208 268.454 38.6112 268.069 38.217C267.694 37.8131 267.209 37.6112 266.613 37.6112C266.026 37.6112 265.54 37.8083 265.156 38.2026C264.771 38.5968 264.579 39.1064 264.579 39.7314C264.579 40.3564 264.771 40.8708 265.156 41.2747C265.54 41.6785 266.026 41.8804 266.613 41.8804ZM275.247 43.3228V33.2266H277.093V41.8804H281.564V43.3228H275.247ZM286.011 43.4958C285.29 43.4958 284.65 43.342 284.093 43.0343C283.535 42.7266 283.097 42.2939 282.78 41.7362C282.463 41.1785 282.304 40.5343 282.304 39.8035C282.304 39.0631 282.458 38.4045 282.766 37.8276C283.083 37.2506 283.516 36.8035 284.064 36.4862C284.621 36.1593 285.275 35.9958 286.025 35.9958C286.727 35.9958 287.347 36.1497 287.886 36.4574C288.424 36.7651 288.843 37.1881 289.141 37.7266C289.448 38.2554 289.602 38.8468 289.602 39.5006C289.602 39.6064 289.597 39.717 289.588 39.8324C289.588 39.9478 289.583 40.0679 289.573 40.1929H284.136C284.174 40.7506 284.367 41.1881 284.713 41.5054C285.069 41.8228 285.496 41.9814 285.996 41.9814C286.371 41.9814 286.684 41.8997 286.934 41.7362C287.194 41.5631 287.386 41.342 287.511 41.0728H289.386C289.251 41.5247 289.025 41.9381 288.708 42.3131C288.4 42.6785 288.016 42.967 287.554 43.1785C287.102 43.3901 286.588 43.4958 286.011 43.4958ZM286.025 37.4958C285.573 37.4958 285.174 37.6256 284.828 37.8853C284.482 38.1353 284.261 38.5199 284.165 39.0391H287.727C287.698 38.5679 287.525 38.1929 287.208 37.9141C286.891 37.6353 286.496 37.4958 286.025 37.4958ZM293.74 41.1881C293.394 41.1881 293.072 41.1497 292.774 41.0728L292.24 41.6064C292.404 41.6929 292.625 41.7651 292.904 41.8228C293.183 41.8804 293.635 41.9381 294.26 41.9958C295.212 42.0824 295.904 42.3083 296.337 42.6737C296.769 43.0391 296.986 43.5439 296.986 44.1881C296.986 44.6112 296.87 45.0103 296.639 45.3853C296.409 45.7699 296.053 46.0776 295.572 46.3083C295.091 46.5487 294.476 46.6689 293.726 46.6689C292.707 46.6689 291.885 46.4766 291.26 46.092C290.635 45.717 290.322 45.1497 290.322 44.3901C290.322 43.7458 290.635 43.1881 291.26 42.717C291.067 42.6304 290.899 42.5391 290.755 42.4429C290.62 42.3468 290.5 42.2458 290.394 42.1401V41.8083L291.649 40.4814C291.091 39.991 290.812 39.3612 290.812 38.592C290.812 38.1112 290.928 37.6737 291.159 37.2795C291.399 36.8853 291.736 36.5728 292.168 36.342C292.601 36.1112 293.125 35.9958 293.74 35.9958C294.144 35.9958 294.519 36.0535 294.865 36.1689H297.577V37.2939L296.351 37.3804C296.543 37.7458 296.639 38.1497 296.639 38.592C296.639 39.0728 296.524 39.5103 296.293 39.9045C296.062 40.2987 295.726 40.6112 295.284 40.842C294.851 41.0728 294.337 41.1881 293.74 41.1881ZM293.74 39.7747C294.115 39.7747 294.423 39.6737 294.663 39.4718C294.913 39.2699 295.038 38.9814 295.038 38.6064C295.038 38.2314 294.913 37.9429 294.663 37.741C294.423 37.5391 294.115 37.4381 293.74 37.4381C293.346 37.4381 293.029 37.5391 292.788 37.741C292.548 37.9429 292.428 38.2314 292.428 38.6064C292.428 38.9814 292.548 39.2699 292.788 39.4718C293.029 39.6737 293.346 39.7747 293.74 39.7747ZM292.01 44.2026C292.01 44.5583 292.173 44.8228 292.5 44.9958C292.837 45.1785 293.245 45.2699 293.726 45.2699C294.187 45.2699 294.562 45.1737 294.851 44.9814C295.139 44.7987 295.284 44.5487 295.284 44.2314C295.284 43.9718 295.187 43.7554 294.995 43.5824C294.812 43.4093 294.442 43.3035 293.885 43.2651C293.49 43.2362 293.125 43.1929 292.788 43.1353C292.51 43.2891 292.308 43.4574 292.183 43.6401C292.067 43.8228 292.01 44.0103 292.01 44.2026ZM301.101 43.4958C300.486 43.4958 299.981 43.3997 299.587 43.2074C299.192 43.0054 298.899 42.741 298.707 42.4141C298.514 42.0872 298.418 41.7266 298.418 41.3324C298.418 40.6689 298.678 40.1304 299.197 39.717C299.716 39.3035 300.495 39.0968 301.534 39.0968H303.351V38.9237C303.351 38.4333 303.212 38.0728 302.933 37.842C302.654 37.6112 302.308 37.4958 301.894 37.4958C301.519 37.4958 301.192 37.5872 300.913 37.7699C300.635 37.9429 300.462 38.2026 300.394 38.5487H298.591C298.639 38.0295 298.813 37.5776 299.111 37.1929C299.418 36.8083 299.813 36.5151 300.293 36.3131C300.774 36.1016 301.313 35.9958 301.909 35.9958C302.928 35.9958 303.731 36.2506 304.317 36.7603C304.904 37.2699 305.197 37.991 305.197 38.9237V43.3228H303.625L303.452 42.1689C303.24 42.5535 302.942 42.8708 302.558 43.1208C302.183 43.3708 301.697 43.4958 301.101 43.4958ZM301.519 42.0535C302.048 42.0535 302.457 41.8804 302.745 41.5343C303.043 41.1881 303.231 40.7603 303.308 40.2506H301.736C301.245 40.2506 300.894 40.342 300.683 40.5247C300.471 40.6978 300.365 40.9141 300.365 41.1737C300.365 41.4526 300.471 41.6689 300.683 41.8228C300.894 41.9766 301.173 42.0535 301.519 42.0535ZM306.67 43.3228V32.9381H308.517V43.3228H306.67ZM316.753 43.4958C316.013 43.4958 315.359 43.3708 314.792 43.1208C314.224 42.8612 313.777 42.4958 313.45 42.0247C313.123 41.5439 312.955 40.9622 312.945 40.2795H314.893C314.912 40.7506 315.08 41.1497 315.397 41.4766C315.724 41.7939 316.171 41.9526 316.739 41.9526C317.229 41.9526 317.619 41.8372 317.907 41.6064C318.195 41.366 318.34 41.0487 318.34 40.6545C318.34 40.241 318.21 39.9189 317.95 39.6881C317.7 39.4574 317.364 39.2699 316.941 39.1256C316.518 38.9814 316.066 38.8276 315.585 38.6641C314.806 38.3949 314.21 38.0487 313.796 37.6256C313.393 37.2026 313.191 36.6401 313.191 35.9381C313.181 35.342 313.32 34.8324 313.609 34.4093C313.907 33.9766 314.311 33.6449 314.82 33.4141C315.33 33.1737 315.917 33.0535 316.58 33.0535C317.253 33.0535 317.845 33.1737 318.354 33.4141C318.873 33.6545 319.277 33.991 319.566 34.4237C319.864 34.8564 320.022 35.3708 320.042 35.967H318.066C318.056 35.6112 317.917 35.2987 317.647 35.0295C317.388 34.7506 317.022 34.6112 316.551 34.6112C316.147 34.6016 315.806 34.7026 315.527 34.9141C315.258 35.116 315.123 35.4141 315.123 35.8083C315.123 36.1449 315.229 36.4141 315.441 36.616C315.652 36.8083 315.941 36.9718 316.306 37.1064C316.671 37.241 317.09 37.3853 317.561 37.5391C318.061 37.7122 318.518 37.9141 318.931 38.1449C319.345 38.3756 319.676 38.6833 319.926 39.0679C320.176 39.4429 320.301 39.9285 320.301 40.5247C320.301 41.0535 320.167 41.5439 319.897 41.9958C319.628 42.4478 319.229 42.8131 318.7 43.092C318.171 43.3612 317.522 43.4958 316.753 43.4958ZM325.056 43.4958C324.335 43.4958 323.696 43.342 323.138 43.0343C322.58 42.7266 322.143 42.2939 321.825 41.7362C321.508 41.1785 321.35 40.5343 321.35 39.8035C321.35 39.0631 321.503 38.4045 321.811 37.8276C322.128 37.2506 322.561 36.8035 323.109 36.4862C323.667 36.1593 324.321 35.9958 325.071 35.9958C325.773 35.9958 326.393 36.1497 326.931 36.4574C327.47 36.7651 327.888 37.1881 328.186 37.7266C328.494 38.2554 328.648 38.8468 328.648 39.5006C328.648 39.6064 328.643 39.717 328.633 39.8324C328.633 39.9478 328.628 40.0679 328.619 40.1929H323.181C323.22 40.7506 323.412 41.1881 323.758 41.5054C324.114 41.8228 324.542 41.9814 325.042 41.9814C325.417 41.9814 325.729 41.8997 325.979 41.7362C326.239 41.5631 326.431 41.342 326.556 41.0728H328.431C328.297 41.5247 328.071 41.9381 327.753 42.3131C327.446 42.6785 327.061 42.967 326.6 43.1785C326.148 43.3901 325.633 43.4958 325.056 43.4958ZM325.071 37.4958C324.619 37.4958 324.22 37.6256 323.874 37.8853C323.527 38.1353 323.306 38.5199 323.21 39.0391H326.773C326.744 38.5679 326.571 38.1929 326.253 37.9141C325.936 37.6353 325.542 37.4958 325.071 37.4958ZM332.973 43.3228C332.223 43.3228 331.622 43.1401 331.17 42.7747C330.718 42.4093 330.492 41.7603 330.492 40.8276V37.7122H329.266V36.1689H330.492L330.708 34.2506H332.338V36.1689H334.271V37.7122H332.338V40.842C332.338 41.1881 332.41 41.4285 332.554 41.5631C332.708 41.6881 332.968 41.7506 333.333 41.7506H334.227V43.3228H332.973ZM338.25 43.4958C337.356 43.4958 336.663 43.217 336.173 42.6593C335.692 42.1016 335.452 41.2843 335.452 40.2074V36.1689H337.284V40.0343C337.284 40.6497 337.409 41.1208 337.659 41.4478C337.909 41.7747 338.303 41.9381 338.841 41.9381C339.351 41.9381 339.769 41.7554 340.096 41.3901C340.433 41.0247 340.601 40.5151 340.601 39.8612V36.1689H342.447V43.3228H340.817L340.673 42.1112C340.452 42.5343 340.13 42.8708 339.707 43.1208C339.293 43.3708 338.808 43.4958 338.25 43.4958ZM344.054 46.4958V36.1689H345.698L345.9 37.1929C346.131 36.8756 346.434 36.5968 346.809 36.3564C347.193 36.116 347.688 35.9958 348.294 35.9958C348.967 35.9958 349.568 36.1593 350.097 36.4862C350.626 36.8131 351.044 37.2603 351.352 37.8276C351.66 38.3949 351.813 39.0391 351.813 39.7603C351.813 40.4814 351.66 41.1256 351.352 41.6929C351.044 42.2506 350.626 42.6929 350.097 43.0199C349.568 43.3372 348.967 43.4958 348.294 43.4958C347.756 43.4958 347.285 43.3949 346.881 43.1929C346.477 42.991 346.15 42.7074 345.9 42.342V46.4958H344.054ZM347.905 41.8804C348.491 41.8804 348.977 41.6833 349.361 41.2891C349.746 40.8949 349.938 40.3853 349.938 39.7603C349.938 39.1353 349.746 38.6208 349.361 38.217C348.977 37.8131 348.491 37.6112 347.905 37.6112C347.309 37.6112 346.818 37.8131 346.434 38.217C346.059 38.6112 345.871 39.1208 345.871 39.7458C345.871 40.3708 346.059 40.8853 346.434 41.2891C346.818 41.6833 347.309 41.8804 347.905 41.8804Z" fill="#546162"/>
</g>
<g filter="url(#filter3_d_1053_12850)">
<mask id="path-10-inside-4_1053_12850" fill="white">
<path d="M211.5 88.3228C211.5 72.3065 224.484 59.3228 240.5 59.3228H357.5C373.516 59.3228 386.5 72.3065 386.5 88.3228C386.5 104.339 373.516 117.323 357.5 117.323H240.5C224.484 117.323 211.5 104.339 211.5 88.3228Z"/>
</mask>
<path d="M211.5 88.3228C211.5 71.7542 224.931 58.3228 241.5 58.3228H356.5C373.069 58.3228 386.5 71.7542 386.5 88.3228C386.5 72.8588 373.516 60.3228 357.5 60.3228H240.5C224.484 60.3228 211.5 72.8588 211.5 88.3228ZM386.5 117.323H211.5H386.5ZM211.5 117.323V59.3228V117.323ZM386.5 59.3228V117.323V59.3228Z" fill="#0A94E2" mask="url(#path-10-inside-4_1053_12850)"/>
<path d="M241.492 84.4958C240.473 84.4958 239.598 84.2795 238.867 83.8468C238.136 83.4045 237.574 82.7939 237.179 82.0151C236.785 81.2266 236.588 80.3179 236.588 79.2891C236.588 78.2603 236.785 77.3516 237.179 76.5631C237.574 75.7747 238.136 75.1593 238.867 74.717C239.598 74.2747 240.473 74.0535 241.492 74.0535C242.703 74.0535 243.694 74.3564 244.463 74.9622C245.242 75.5583 245.728 76.3997 245.92 77.4862H243.886C243.761 76.9381 243.492 76.5103 243.078 76.2026C242.675 75.8853 242.136 75.7266 241.463 75.7266C240.53 75.7266 239.8 76.0439 239.271 76.6785C238.742 77.3131 238.478 78.1833 238.478 79.2891C238.478 80.3949 238.742 81.2651 239.271 81.8997C239.8 82.5247 240.53 82.8372 241.463 82.8372C242.136 82.8372 242.675 82.6929 243.078 82.4045C243.492 82.1064 243.761 81.6978 243.886 81.1785H245.92C245.728 82.217 245.242 83.0295 244.463 83.616C243.694 84.2026 242.703 84.4958 241.492 84.4958ZM250.655 84.4958C249.963 84.4958 249.338 84.3372 248.78 84.0199C248.232 83.7026 247.794 83.2651 247.467 82.7074C247.15 82.1401 246.992 81.4862 246.992 80.7458C246.992 80.0054 247.155 79.3564 247.482 78.7987C247.809 78.2314 248.246 77.7891 248.794 77.4718C249.352 77.1545 249.977 76.9958 250.669 76.9958C251.352 76.9958 251.967 77.1545 252.516 77.4718C253.073 77.7891 253.511 78.2314 253.828 78.7987C254.155 79.3564 254.318 80.0054 254.318 80.7458C254.318 81.4862 254.155 82.1401 253.828 82.7074C253.511 83.2651 253.073 83.7026 252.516 84.0199C251.958 84.3372 251.338 84.4958 250.655 84.4958ZM250.655 82.8949C251.136 82.8949 251.554 82.717 251.91 82.3612C252.266 81.9958 252.443 81.4574 252.443 80.7458C252.443 80.0343 252.266 79.5006 251.91 79.1449C251.554 78.7795 251.141 78.5968 250.669 78.5968C250.179 78.5968 249.756 78.7795 249.4 79.1449C249.054 79.5006 248.881 80.0343 248.881 80.7458C248.881 81.4574 249.054 81.9958 249.4 82.3612C249.756 82.717 250.174 82.8949 250.655 82.8949ZM255.681 84.3228V77.1689H257.31L257.469 78.1353C257.7 77.7891 258.003 77.5151 258.378 77.3131C258.762 77.1016 259.205 76.9958 259.705 76.9958C260.81 76.9958 261.594 77.4237 262.056 78.2795C262.315 77.8853 262.661 77.5728 263.094 77.342C263.536 77.1112 264.017 76.9958 264.536 76.9958C265.469 76.9958 266.185 77.2747 266.685 77.8324C267.185 78.3901 267.435 79.2074 267.435 80.2843V84.3228H265.589V80.4574C265.589 79.842 265.469 79.3708 265.229 79.0439C264.998 78.717 264.637 78.5535 264.147 78.5535C263.647 78.5535 263.243 78.7362 262.935 79.1016C262.637 79.467 262.488 79.9766 262.488 80.6304V84.3228H260.642V80.4574C260.642 79.842 260.522 79.3708 260.282 79.0439C260.041 78.717 259.671 78.5535 259.171 78.5535C258.681 78.5535 258.282 78.7362 257.974 79.1016C257.676 79.467 257.527 79.9766 257.527 80.6304V84.3228H255.681ZM268.9 84.3228V77.1689H270.53L270.688 78.1353C270.919 77.7891 271.222 77.5151 271.597 77.3131C271.981 77.1016 272.424 76.9958 272.924 76.9958C274.03 76.9958 274.813 77.4237 275.275 78.2795C275.534 77.8853 275.88 77.5728 276.313 77.342C276.755 77.1112 277.236 76.9958 277.755 76.9958C278.688 76.9958 279.405 77.2747 279.905 77.8324C280.405 78.3901 280.655 79.2074 280.655 80.2843V84.3228H278.808V80.4574C278.808 79.842 278.688 79.3708 278.448 79.0439C278.217 78.717 277.856 78.5535 277.366 78.5535C276.866 78.5535 276.462 78.7362 276.155 79.1016C275.856 79.467 275.707 79.9766 275.707 80.6304V84.3228H273.861V80.4574C273.861 79.842 273.741 79.3708 273.501 79.0439C273.26 78.717 272.89 78.5535 272.39 78.5535C271.9 78.5535 271.501 78.7362 271.193 79.1016C270.895 79.467 270.746 79.9766 270.746 80.6304V84.3228H268.9ZM284.801 84.4958C283.907 84.4958 283.215 84.217 282.725 83.6593C282.244 83.1016 282.003 82.2843 282.003 81.2074V77.1689H283.835V81.0343C283.835 81.6497 283.96 82.1208 284.21 82.4478C284.46 82.7747 284.854 82.9381 285.393 82.9381C285.902 82.9381 286.321 82.7554 286.648 82.3901C286.984 82.0247 287.152 81.5151 287.152 80.8612V77.1689H288.999V84.3228H287.369L287.225 83.1112C287.003 83.5343 286.681 83.8708 286.258 84.1208C285.845 84.3708 285.359 84.4958 284.801 84.4958ZM290.605 84.3228V77.1689H292.235L292.379 78.3804C292.601 77.9574 292.918 77.6208 293.331 77.3708C293.754 77.1208 294.25 76.9958 294.817 76.9958C295.701 76.9958 296.389 77.2747 296.879 77.8324C297.37 78.3901 297.615 79.2074 297.615 80.2843V84.3228H295.769V80.4574C295.769 79.842 295.644 79.3708 295.394 79.0439C295.144 78.717 294.754 78.5535 294.226 78.5535C293.706 78.5535 293.278 78.7362 292.942 79.1016C292.615 79.467 292.451 79.9766 292.451 80.6304V84.3228H290.605ZM300.087 76.0583C299.75 76.0583 299.472 75.9574 299.25 75.7554C299.039 75.5535 298.933 75.2987 298.933 74.991C298.933 74.6833 299.039 74.4333 299.25 74.241C299.472 74.0391 299.75 73.9381 300.087 73.9381C300.424 73.9381 300.698 74.0391 300.909 74.241C301.13 74.4333 301.241 74.6833 301.241 74.991C301.241 75.2987 301.13 75.5535 300.909 75.7554C300.698 75.9574 300.424 76.0583 300.087 76.0583ZM299.164 84.3228V77.1689H301.01V84.3228H299.164ZM305.836 84.3228C305.086 84.3228 304.485 84.1401 304.033 83.7747C303.581 83.4093 303.355 82.7603 303.355 81.8276V78.7122H302.129V77.1689H303.355L303.572 75.2506H305.201V77.1689H307.134V78.7122H305.201V81.842C305.201 82.1881 305.274 82.4285 305.418 82.5631C305.572 82.6881 305.831 82.7506 306.197 82.7506H307.091V84.3228H305.836ZM309.325 87.4958L310.984 83.8468H310.551L307.767 77.1689H309.772L311.777 82.2026L313.868 77.1689H315.83L311.287 87.4958H309.325ZM319.94 84.3228V74.2266H323.387C324.57 74.2266 325.541 74.4381 326.3 74.8612C327.07 75.2747 327.637 75.8612 328.002 76.6208C328.377 77.3708 328.565 78.2554 328.565 79.2747C328.565 80.2939 328.377 81.1833 328.002 81.9429C327.637 82.6929 327.07 83.2795 326.3 83.7026C325.541 84.116 324.57 84.3228 323.387 84.3228H319.94ZM321.786 82.7362H323.3C324.147 82.7362 324.815 82.6016 325.305 82.3324C325.796 82.0535 326.147 81.6593 326.358 81.1497C326.57 80.6304 326.675 80.0054 326.675 79.2747C326.675 78.5535 326.57 77.9333 326.358 77.4141C326.147 76.8949 325.796 76.4958 325.305 76.217C324.815 75.9381 324.147 75.7987 323.3 75.7987H321.786V82.7362ZM329.862 84.3228V77.1689H331.506L331.679 78.5103C331.939 78.0487 332.29 77.6833 332.732 77.4141C333.184 77.1353 333.713 76.9958 334.319 76.9958V78.9429H333.8C333.396 78.9429 333.035 79.0054 332.718 79.1304C332.4 79.2554 332.15 79.4718 331.968 79.7795C331.795 80.0872 331.708 80.5151 331.708 81.0631V84.3228H329.862ZM336.287 76.0583C335.951 76.0583 335.672 75.9574 335.451 75.7554C335.239 75.5535 335.133 75.2987 335.133 74.991C335.133 74.6833 335.239 74.4333 335.451 74.241C335.672 74.0391 335.951 73.9381 336.287 73.9381C336.624 73.9381 336.898 74.0391 337.109 74.241C337.331 74.4333 337.441 74.6833 337.441 74.991C337.441 75.2987 337.331 75.5535 337.109 75.7554C336.898 75.9574 336.624 76.0583 336.287 76.0583ZM335.364 84.3228V77.1689H337.21V84.3228H335.364ZM340.782 84.3228L338.157 77.1689H340.089L341.907 82.5776L343.724 77.1689H345.657L343.017 84.3228H340.782ZM349.656 84.4958C348.935 84.4958 348.296 84.342 347.738 84.0343C347.18 83.7266 346.743 83.2939 346.426 82.7362C346.108 82.1785 345.95 81.5343 345.95 80.8035C345.95 80.0631 346.103 79.4045 346.411 78.8276C346.728 78.2506 347.161 77.8035 347.709 77.4862C348.267 77.1593 348.921 76.9958 349.671 76.9958C350.373 76.9958 350.993 77.1497 351.531 77.4574C352.07 77.7651 352.488 78.1881 352.786 78.7266C353.094 79.2554 353.248 79.8468 353.248 80.5006C353.248 80.6064 353.243 80.717 353.233 80.8324C353.233 80.9478 353.228 81.0679 353.219 81.1929H347.781C347.82 81.7506 348.012 82.1881 348.358 82.5054C348.714 82.8228 349.142 82.9814 349.642 82.9814C350.017 82.9814 350.329 82.8997 350.579 82.7362C350.839 82.5631 351.031 82.342 351.156 82.0728H353.031C352.897 82.5247 352.671 82.9381 352.353 83.3131C352.046 83.6785 351.661 83.967 351.2 84.1785C350.748 84.3901 350.233 84.4958 349.656 84.4958ZM349.671 78.4958C349.219 78.4958 348.82 78.6256 348.474 78.8853C348.127 79.1353 347.906 79.5199 347.81 80.0391H351.373C351.344 79.5679 351.171 79.1929 350.853 78.9141C350.536 78.6353 350.142 78.4958 349.671 78.4958ZM354.512 84.3228V77.1689H356.142L356.286 78.3804C356.507 77.9574 356.824 77.6208 357.238 77.3708C357.661 77.1208 358.156 76.9958 358.723 76.9958C359.608 76.9958 360.296 77.2747 360.786 77.8324C361.276 78.3901 361.522 79.2074 361.522 80.2843V84.3228H359.675V80.4574C359.675 79.842 359.55 79.3708 359.3 79.0439C359.05 78.717 358.661 78.5535 358.132 78.5535C357.613 78.5535 357.185 78.7362 356.848 79.1016C356.522 79.467 356.358 79.9766 356.358 80.6304V84.3228H354.512ZM245.082 101.323V91.2266H248.529C249.712 91.2266 250.683 91.4381 251.443 91.8612C252.212 92.2747 252.779 92.8612 253.145 93.6208C253.52 94.3708 253.707 95.2554 253.707 96.2747C253.707 97.2939 253.52 98.1833 253.145 98.9429C252.779 99.6929 252.212 100.279 251.443 100.703C250.683 101.116 249.712 101.323 248.529 101.323H245.082ZM246.929 99.7362H248.443C249.289 99.7362 249.957 99.6016 250.448 99.3324C250.938 99.0535 251.289 98.6593 251.501 98.1497C251.712 97.6304 251.818 97.0054 251.818 96.2747C251.818 95.5535 251.712 94.9333 251.501 94.4141C251.289 93.8949 250.938 93.4958 250.448 93.217C249.957 92.9381 249.289 92.7987 248.443 92.7987H246.929V99.7362ZM258.481 101.496C257.759 101.496 257.12 101.342 256.562 101.034C256.005 100.727 255.567 100.294 255.25 99.7362C254.932 99.1785 254.774 98.5343 254.774 97.8035C254.774 97.0631 254.928 96.4045 255.235 95.8276C255.553 95.2506 255.985 94.8035 256.533 94.4862C257.091 94.1593 257.745 93.9958 258.495 93.9958C259.197 93.9958 259.817 94.1497 260.356 94.4574C260.894 94.7651 261.312 95.1881 261.61 95.7266C261.918 96.2554 262.072 96.8468 262.072 97.5006C262.072 97.6064 262.067 97.717 262.057 97.8324C262.057 97.9478 262.053 98.0679 262.043 98.1929H256.606C256.644 98.7506 256.836 99.1881 257.182 99.5054C257.538 99.8228 257.966 99.9814 258.466 99.9814C258.841 99.9814 259.154 99.8997 259.404 99.7362C259.663 99.5631 259.856 99.342 259.981 99.0728H261.856C261.721 99.5247 261.495 99.9381 261.178 100.313C260.87 100.679 260.485 100.967 260.024 101.179C259.572 101.39 259.057 101.496 258.481 101.496ZM258.495 95.4958C258.043 95.4958 257.644 95.6256 257.298 95.8853C256.952 96.1353 256.731 96.5199 256.634 97.0391H260.197C260.168 96.5679 259.995 96.1929 259.678 95.9141C259.36 95.6353 258.966 95.4958 258.495 95.4958ZM266.841 101.496C266.11 101.496 265.466 101.337 264.908 101.02C264.351 100.703 263.908 100.26 263.581 99.6929C263.264 99.1256 263.105 98.4766 263.105 97.7458C263.105 97.0151 263.264 96.366 263.581 95.7987C263.908 95.2314 264.351 94.7891 264.908 94.4718C265.466 94.1545 266.11 93.9958 266.841 93.9958C267.754 93.9958 268.524 94.2362 269.149 94.717C269.774 95.1881 270.173 95.842 270.346 96.6785H268.399C268.302 96.3324 268.11 96.0631 267.822 95.8708C267.543 95.6689 267.211 95.5679 266.827 95.5679C266.317 95.5679 265.884 95.7603 265.528 96.1449C265.173 96.5295 264.995 97.0631 264.995 97.7458C264.995 98.4285 265.173 98.9622 265.528 99.3468C265.884 99.7314 266.317 99.9237 266.827 99.9237C267.211 99.9237 267.543 99.8276 267.822 99.6353C268.11 99.4429 268.302 99.1689 268.399 98.8131H270.346C270.173 99.6208 269.774 100.27 269.149 100.76C268.524 101.251 267.754 101.496 266.841 101.496ZM272.691 93.0583C272.355 93.0583 272.076 92.9574 271.855 92.7554C271.643 92.5535 271.537 92.2987 271.537 91.991C271.537 91.6833 271.643 91.4333 271.855 91.241C272.076 91.0391 272.355 90.9381 272.691 90.9381C273.028 90.9381 273.302 91.0391 273.513 91.241C273.734 91.4333 273.845 91.6833 273.845 91.991C273.845 92.2987 273.734 92.5535 273.513 92.7554C273.302 92.9574 273.028 93.0583 272.691 93.0583ZM271.768 101.323V94.1689H273.614V101.323H271.768ZM278.209 101.496C277.575 101.496 277.017 101.395 276.536 101.193C276.056 100.981 275.671 100.693 275.382 100.328C275.094 99.9622 274.921 99.5391 274.863 99.0583H276.724C276.781 99.3372 276.935 99.5776 277.185 99.7795C277.445 99.9718 277.777 100.068 278.181 100.068C278.584 100.068 278.878 99.9862 279.06 99.8228C279.253 99.6593 279.349 99.4718 279.349 99.2603C279.349 98.9526 279.214 98.7458 278.945 98.6401C278.676 98.5247 278.301 98.4141 277.82 98.3083C277.512 98.241 277.2 98.1593 276.882 98.0631C276.565 97.967 276.272 97.8468 276.003 97.7026C275.743 97.5487 275.531 97.3564 275.368 97.1256C275.205 96.8853 275.123 96.592 275.123 96.2458C275.123 95.6112 275.373 95.0776 275.873 94.6449C276.382 94.2122 277.094 93.9958 278.007 93.9958C278.854 93.9958 279.527 94.1929 280.027 94.5872C280.536 94.9814 280.839 95.5247 280.935 96.217H279.19C279.084 95.6881 278.685 95.4237 277.993 95.4237C277.647 95.4237 277.378 95.491 277.185 95.6256C277.003 95.7603 276.911 95.9285 276.911 96.1304C276.911 96.342 277.051 96.5103 277.33 96.6353C277.608 96.7603 277.979 96.8756 278.44 96.9814C278.94 97.0968 279.397 97.2266 279.81 97.3708C280.233 97.5054 280.57 97.7122 280.82 97.991C281.07 98.2603 281.195 98.6497 281.195 99.1593C281.205 99.6016 281.089 100.001 280.849 100.356C280.608 100.712 280.262 100.991 279.81 101.193C279.358 101.395 278.825 101.496 278.209 101.496ZM283.537 93.0583C283.201 93.0583 282.922 92.9574 282.701 92.7554C282.489 92.5535 282.383 92.2987 282.383 91.991C282.383 91.6833 282.489 91.4333 282.701 91.241C282.922 91.0391 283.201 90.9381 283.537 90.9381C283.874 90.9381 284.148 91.0391 284.359 91.241C284.58 91.4333 284.691 91.6833 284.691 91.991C284.691 92.2987 284.58 92.5535 284.359 92.7554C284.148 92.9574 283.874 93.0583 283.537 93.0583ZM282.614 101.323V94.1689H284.46V101.323H282.614ZM289.531 101.496C288.839 101.496 288.214 101.337 287.656 101.02C287.108 100.703 286.671 100.265 286.344 99.7074C286.027 99.1401 285.868 98.4862 285.868 97.7458C285.868 97.0054 286.031 96.3564 286.358 95.7987C286.685 95.2314 287.123 94.7891 287.671 94.4718C288.228 94.1545 288.853 93.9958 289.546 93.9958C290.228 93.9958 290.844 94.1545 291.392 94.4718C291.95 94.7891 292.387 95.2314 292.704 95.7987C293.031 96.3564 293.195 97.0054 293.195 97.7458C293.195 98.4862 293.031 99.1401 292.704 99.7074C292.387 100.265 291.95 100.703 291.392 101.02C290.834 101.337 290.214 101.496 289.531 101.496ZM289.531 99.8949C290.012 99.8949 290.43 99.717 290.786 99.3612C291.142 98.9958 291.32 98.4574 291.32 97.7458C291.32 97.0343 291.142 96.5006 290.786 96.1449C290.43 95.7795 290.017 95.5968 289.546 95.5968C289.055 95.5968 288.632 95.7795 288.277 96.1449C287.93 96.5006 287.757 97.0343 287.757 97.7458C287.757 98.4574 287.93 98.9958 288.277 99.3612C288.632 99.717 289.051 99.8949 289.531 99.8949ZM294.557 101.323V94.1689H296.187L296.331 95.3804C296.552 94.9574 296.87 94.6208 297.283 94.3708C297.706 94.1208 298.201 93.9958 298.769 93.9958C299.653 93.9958 300.341 94.2747 300.831 94.8324C301.321 95.3901 301.567 96.2074 301.567 97.2843V101.323H299.72V97.4574C299.72 96.842 299.595 96.3708 299.345 96.0439C299.095 95.717 298.706 95.5535 298.177 95.5535C297.658 95.5535 297.23 95.7362 296.894 96.1016C296.567 96.467 296.403 96.9766 296.403 97.6304V101.323H294.557ZM306.235 101.323V91.2266H308.427L311.644 97.6304L314.817 91.2266H317.009V101.323H315.163V94.3564L312.35 99.8804H310.894L308.081 94.3564V101.323H306.235ZM321.103 101.496C320.487 101.496 319.982 101.4 319.588 101.207C319.194 101.005 318.901 100.741 318.708 100.414C318.516 100.087 318.42 99.7266 318.42 99.3324C318.42 98.6689 318.679 98.1304 319.199 97.717C319.718 97.3035 320.497 97.0968 321.535 97.0968H323.353V96.9237C323.353 96.4333 323.213 96.0728 322.934 95.842C322.655 95.6112 322.309 95.4958 321.896 95.4958C321.521 95.4958 321.194 95.5872 320.915 95.7699C320.636 95.9429 320.463 96.2026 320.396 96.5487H318.593C318.641 96.0295 318.814 95.5776 319.112 95.1929C319.42 94.8083 319.814 94.5151 320.295 94.3131C320.776 94.1016 321.314 93.9958 321.91 93.9958C322.93 93.9958 323.732 94.2506 324.319 94.7603C324.905 95.2699 325.199 95.991 325.199 96.9237V101.323H323.627L323.454 100.169C323.242 100.554 322.944 100.871 322.559 101.121C322.184 101.371 321.699 101.496 321.103 101.496ZM321.521 100.054C322.05 100.054 322.458 99.8804 322.747 99.5343C323.045 99.1881 323.232 98.7603 323.309 98.2506H321.737C321.247 98.2506 320.896 98.342 320.684 98.5247C320.473 98.6978 320.367 98.9141 320.367 99.1737C320.367 99.4526 320.473 99.6689 320.684 99.8228C320.896 99.9766 321.175 100.054 321.521 100.054ZM326.672 101.323V90.9381H328.518V97.0679L331.057 94.1689H333.249L330.321 97.4285L333.725 101.323H331.417L328.518 97.7314V101.323H326.672ZM335.576 93.0583C335.24 93.0583 334.961 92.9574 334.74 92.7554C334.528 92.5535 334.422 92.2987 334.422 91.991C334.422 91.6833 334.528 91.4333 334.74 91.241C334.961 91.0391 335.24 90.9381 335.576 90.9381C335.913 90.9381 336.187 91.0391 336.398 91.241C336.62 91.4333 336.73 91.6833 336.73 91.991C336.73 92.2987 336.62 92.5535 336.398 92.7554C336.187 92.9574 335.913 93.0583 335.576 93.0583ZM334.653 101.323V94.1689H336.499V101.323H334.653ZM338.138 101.323V94.1689H339.768L339.912 95.3804C340.133 94.9574 340.45 94.6208 340.864 94.3708C341.287 94.1208 341.782 93.9958 342.349 93.9958C343.234 93.9958 343.921 94.2747 344.412 94.8324C344.902 95.3901 345.147 96.2074 345.147 97.2843V101.323H343.301V97.4574C343.301 96.842 343.176 96.3708 342.926 96.0439C342.676 95.717 342.287 95.5535 341.758 95.5535C341.239 95.5535 340.811 95.7362 340.474 96.1016C340.147 96.467 339.984 96.9766 339.984 97.6304V101.323H338.138ZM349.653 99.1881C349.307 99.1881 348.985 99.1497 348.687 99.0728L348.153 99.6064C348.317 99.6929 348.538 99.7651 348.817 99.8228C349.095 99.8804 349.547 99.9381 350.172 99.9958C351.124 100.082 351.817 100.308 352.249 100.674C352.682 101.039 352.898 101.544 352.898 102.188C352.898 102.611 352.783 103.01 352.552 103.385C352.321 103.77 351.966 104.078 351.485 104.308C351.004 104.549 350.389 104.669 349.639 104.669C348.62 104.669 347.797 104.477 347.172 104.092C346.547 103.717 346.235 103.15 346.235 102.39C346.235 101.746 346.547 101.188 347.172 100.717C346.98 100.63 346.812 100.539 346.668 100.443C346.533 100.347 346.413 100.246 346.307 100.14V99.8083L347.562 98.4814C347.004 97.991 346.725 97.3612 346.725 96.592C346.725 96.1112 346.841 95.6737 347.071 95.2795C347.312 94.8853 347.648 94.5728 348.081 94.342C348.514 94.1112 349.038 93.9958 349.653 93.9958C350.057 93.9958 350.432 94.0535 350.778 94.1689H353.49V95.2939L352.264 95.3804C352.456 95.7458 352.552 96.1497 352.552 96.592C352.552 97.0728 352.437 97.5103 352.206 97.9045C351.975 98.2987 351.639 98.6112 351.196 98.842C350.764 99.0728 350.249 99.1881 349.653 99.1881ZM349.653 97.7747C350.028 97.7747 350.336 97.6737 350.576 97.4718C350.826 97.2699 350.951 96.9814 350.951 96.6064C350.951 96.2314 350.826 95.9429 350.576 95.741C350.336 95.5391 350.028 95.4381 349.653 95.4381C349.259 95.4381 348.942 95.5391 348.701 95.741C348.461 95.9429 348.341 96.2314 348.341 96.6064C348.341 96.9814 348.461 97.2699 348.701 97.4718C348.942 97.6737 349.259 97.7747 349.653 97.7747ZM347.922 102.203C347.922 102.558 348.086 102.823 348.413 102.996C348.749 103.179 349.158 103.27 349.639 103.27C350.1 103.27 350.475 103.174 350.764 102.981C351.052 102.799 351.196 102.549 351.196 102.231C351.196 101.972 351.1 101.755 350.908 101.582C350.725 101.409 350.355 101.304 349.797 101.265C349.403 101.236 349.038 101.193 348.701 101.135C348.422 101.289 348.22 101.457 348.095 101.64C347.98 101.823 347.922 102.01 347.922 102.203Z" fill="#546162"/>
</g>
<defs>
<filter id="filter0_d_1053_12850" x="40.0577" y="0.6016" width="168.885" height="60.8846" filterUnits="userSpaceOnUse" color-interpolation-filters="sRGB">
<feFlood flood-opacity="0" result="BackgroundImageFix"/>
<feColorMatrix in="SourceAlpha" type="matrix" values="0 0 0 0 0 0 0 0 0 0 0 0 0 0 0 0 0 0 127 0" result="hardAlpha"/>
<feOffset dy="0.721154"/>
<feGaussianBlur stdDeviation="0.721154"/>
<feComposite in2="hardAlpha" operator="out"/>
<feColorMatrix type="matrix" values="0 0 0 0 0 0 0 0 0 0 0 0 0 0 0 0 0 0 0.05 0"/>
<feBlend mode="normal" in2="BackgroundImageFix" result="effect1_dropShadow_1053_12850"/>
<feBlend mode="normal" in="SourceGraphic" in2="effect1_dropShadow_1053_12850" result="shape"/>
</filter>
<filter id="filter1_d_1053_12850" x="43.5577" y="58.6016" width="161.885" height="60.8846" filterUnits="userSpaceOnUse" color-interpolation-filters="sRGB">
<feFlood flood-opacity="0" result="BackgroundImageFix"/>
<feColorMatrix in="SourceAlpha" type="matrix" values="0 0 0 0 0 0 0 0 0 0 0 0 0 0 0 0 0 0 127 0" result="hardAlpha"/>
<feOffset dy="0.721154"/>
<feGaussianBlur stdDeviation="0.721154"/>
<feComposite in2="hardAlpha" operator="out"/>
<feColorMatrix type="matrix" values="0 0 0 0 0 0 0 0 0 0 0 0 0 0 0 0 0 0 0.05 0"/>
<feBlend mode="normal" in2="BackgroundImageFix" result="effect1_dropShadow_1053_12850"/>
<feBlend mode="normal" in="SourceGraphic" in2="effect1_dropShadow_1053_12850" result="shape"/>
</filter>
<filter id="filter2_d_1053_12850" x="210.558" y="0.6016" width="176.885" height="60.8846" filterUnits="userSpaceOnUse" color-interpolation-filters="sRGB">
<feFlood flood-opacity="0" result="BackgroundImageFix"/>
<feColorMatrix in="SourceAlpha" type="matrix" values="0 0 0 0 0 0 0 0 0 0 0 0 0 0 0 0 0 0 127 0" result="hardAlpha"/>
<feOffset dy="0.721154"/>
<feGaussianBlur stdDeviation="0.721154"/>
<feComposite in2="hardAlpha" operator="out"/>
<feColorMatrix type="matrix" values="0 0 0 0 0 0 0 0 0 0 0 0 0 0 0 0 0 0 0.05 0"/>
<feBlend mode="normal" in2="BackgroundImageFix" result="effect1_dropShadow_1053_12850"/>
<feBlend mode="normal" in="SourceGraphic" in2="effect1_dropShadow_1053_12850" result="shape"/>
</filter>
<filter id="filter3_d_1053_12850" x="210.058" y="58.6016" width="177.885" height="60.8846" filterUnits="userSpaceOnUse" color-interpolation-filters="sRGB">
<feFlood flood-opacity="0" result="BackgroundImageFix"/>
<feColorMatrix in="SourceAlpha" type="matrix" values="0 0 0 0 0 0 0 0 0 0 0 0 0 0 0 0 0 0 127 0" result="hardAlpha"/>
<feOffset dy="0.721154"/>
<feGaussianBlur stdDeviation="0.721154"/>
<feComposite in2="hardAlpha" operator="out"/>
<feColorMatrix type="matrix" values="0 0 0 0 0 0 0 0 0 0 0 0 0 0 0 0 0 0 0.05 0"/>
<feBlend mode="normal" in2="BackgroundImageFix" result="effect1_dropShadow_1053_12850"/>
<feBlend mode="normal" in="SourceGraphic" in2="effect1_dropShadow_1053_12850" result="shape"/>
</filter>
</defs>
</svg>
