<svg width="101" height="101" viewBox="0 0 101 101" fill="none" xmlns="http://www.w3.org/2000/svg">
<path fill-rule="evenodd" clip-rule="evenodd" d="M50.5 100.646C22.8858 100.646 0.500008 78.26 0.500008 50.6457C0.500008 23.0315 22.8858 0.645752 50.5 0.645752C78.1142 0.645752 100.5 23.0315 100.5 50.6457C100.5 78.26 78.1142 100.646 50.5 100.646Z" fill="white"/>
<mask id="mask0_711_7601" style="mask-type:luminance" maskUnits="userSpaceOnUse" x="0" y="0" width="101" height="101">
<path fill-rule="evenodd" clip-rule="evenodd" d="M50.5 100.646C22.8858 100.646 0.500008 78.26 0.500008 50.6457C0.500008 23.0315 22.8858 0.645752 50.5 0.645752C78.1142 0.645752 100.5 23.0315 100.5 50.6457C100.5 78.26 78.1142 100.646 50.5 100.646Z" fill="white"/>
</mask>
<g mask="url(#mask0_711_7601)">
<mask id="mask1_711_7601" style="mask-type:luminance" maskUnits="userSpaceOnUse" x="-27" y="-13" width="127" height="171">
<rect x="1.10909" y="-1.10909" width="124.218" height="166.918" transform="matrix(-1 0 0 1 99.7182 -9.85425)" fill="white" stroke="white" stroke-width="2.21818"/>
</mask>
<g mask="url(#mask1_711_7601)">
<path fill-rule="evenodd" clip-rule="evenodd" d="M-18.4585 93.9826C-16.5259 94.1723 -14.5934 94.3617 -12.6609 94.5514C-3.40569 95.2583 5.84591 96.7346 15.0303 97.6206C15.259 97.2485 15.7066 97.3098 15.9783 97.5684C16.8948 97.4881 17.922 96.7879 18.7521 97.5163C18.7791 97.5125 18.806 97.508 18.8333 97.5055C20.3114 94.6694 21.3331 91.6444 22.3248 88.6154C22.9577 86.7531 23.8093 84.9504 25.3829 83.7C28.0685 81.8364 34.2219 78.0573 37.3754 78.2162C37.4276 77.6517 37.6909 77.07 38.123 76.6942C37.1705 75.0708 40.979 74.0116 41.2477 74.1998C41.0755 68.7763 43.6275 64.0663 49.2547 62.9863C54.296 61.9361 61.4663 61.7597 64.1777 67.0264C64.4757 66.9929 67.5222 66.977 67.817 67.0101C68.2753 66.4298 73.3083 71.9283 71.2455 73.8425C89.6879 81.9981 100.174 81.0249 105.279 103.952C105.969 106.106 106.019 108.463 106.748 110.569C109.34 116.621 111.443 123.065 111.966 129.649C113.23 129.973 113.376 132.201 111.912 132.523C111.353 132.647 110.885 132.815 110.477 133.134C110.796 138.53 109.49 150.857 108.668 150.819C106.99 156.155 99.509 157.661 94.2123 155.786C95.1254 157.503 94.2123 158.583 94.2123 159.501C75.1536 160.221 54.3148 159.806 35.2613 160.795C32.8241 160.76 30.2605 161.393 27.8566 161.029C26.3905 160.678 26.3881 158.373 27.8752 158.088L21.3774 156.677C21.5226 156.623 18.6989 154.745 16.5649 151.237C14.5785 147.312 15.9304 142.574 15.0303 138.305C8.00045 137.73 0.85434 137.485 -6.09859 136.294C-7.04662 139.13 -11.1504 135.739 -12.4549 134.375C-12.4533 134.372 -12.4517 134.37 -12.45 134.368C-13.0813 134.196 -13.5876 133.604 -13.6045 132.904C-14.0472 132.272 -14.1402 131.38 -13.7156 130.769C-15.6615 119.544 -18.6281 108.084 -19.7003 96.7534C-20.0794 96.6695 -20.4363 96.5034 -20.739 96.2474L-20.7144 96.2229C-21.2272 95.6514 -21.3269 94.665 -20.4721 94.1795C-19.7825 93.7874 -19.2068 93.909 -18.4585 93.9826Z" fill="#D08B5B"/>
<path fill-rule="evenodd" clip-rule="evenodd" d="M55.0393 135.994L53.5506 136.941L41.3705 140.865L33.9271 141.812L27.837 140.865V151.282L26.619 161.023C27.1604 162.015 32.3031 162.015 42.0472 161.023C48.2588 160.39 70.9606 160.083 76.1293 159.948L76.4221 159.94C82.4959 159.765 88.4957 159.765 94.4216 159.94V156.288L77.5048 147.9L62.3473 139.376L55.0393 135.994ZM63.6697 66.175L62.551 67.0101L64.9934 71.0214L53.0957 80.642V88.3264L49.329 91.8878L47.176 88.3264L44.1422 84.2932L41.9862 77.7554L42.7203 73.4482L41.244 73.3092C41.2369 73.6036 41.2381 73.9006 41.2476 74.1998C40.979 74.0116 37.1705 75.0708 38.123 76.6942C37.6908 77.07 37.4276 77.6518 37.3753 78.2162C34.2218 78.0574 28.0684 81.8364 25.3828 83.7C23.8092 84.9504 22.9576 86.7531 22.3247 88.6154L22.1757 89.0697L22.0218 89.5361L21.8668 90.0021C21.0104 92.5639 20.0856 95.1025 18.8332 97.5055C18.806 97.508 18.779 97.5125 18.7521 97.5163C17.9219 96.7879 16.8947 97.4882 15.9783 97.5684C15.7128 97.3159 15.2797 97.2515 15.0466 97.5954L15.0303 97.6206L26.4486 99.8693L33.9814 126.284L40.5414 120.961L44.0626 121.484L53.3613 124.837L64.1762 127.645L88.8654 134.45H92.0095L110.305 130.033L111.953 129.489C111.409 122.96 109.319 116.571 106.748 110.569C106.019 108.463 105.969 106.106 105.279 103.952C100.174 81.025 89.6878 81.9981 71.2455 73.8425C73.3083 71.9283 68.2752 66.4298 67.817 67.0101L67.7881 67.0076L67.7256 67.0042L67.6451 67.0014C66.9257 66.9805 64.445 66.9964 64.1776 67.0265C64.0225 66.7251 63.8527 66.4416 63.6697 66.175Z" fill="#FFCF77"/>
<path fill-rule="evenodd" clip-rule="evenodd" d="M-20.2835 94.7847L-19.9434 96.6794C-19.8625 96.7058 -19.7803 96.7282 -19.697 96.7467C-19.5901 97.8762 -19.4644 99.007 -19.3227 100.139L-17.2141 111.887C-16.8504 113.966 -16.5051 116.049 -16.1624 118.132L-15.7082 120.37L-15.427 121.761C-14.8198 124.774 -14.2299 127.777 -13.7123 130.762C-13.7904 130.875 -13.851 130.997 -13.8951 131.125L-13.8553 131.293L-13.8276 131.405L-13.7993 131.516C-13.3909 133.086 -12.6802 134.608 -11.0055 135.07C-9.74224 135.418 -8.35617 135.449 -7.05175 135.587L-6.90716 135.602L15.9182 138.168C18.6762 138.478 21.433 138.798 24.1894 139.121L26.579 139.401C29.9096 139.786 33.2594 140.09 36.5409 140.788C36.6615 140.813 36.7614 140.861 36.8429 140.925C36.182 138.424 35.5495 135.927 34.9762 133.401C34.3309 130.558 33.7185 127.71 33.0283 124.877C31.6379 119.171 30.0792 113.502 28.3729 107.881C28.0149 106.702 27.6485 105.524 27.2741 104.35L27.0114 103.529L26.8092 102.874C26.4964 101.877 26.1092 100.852 25.1918 100.301C24.1181 99.6574 22.6539 99.5506 21.4362 99.3279L20.6116 99.173C19.3778 98.9429 18.1425 98.7216 16.9056 98.5089C10.9839 97.4907 5.02868 96.674 -0.948509 96.0605C-7.16822 95.4219 -13.4096 95.007 -19.6586 94.8042L-20.2835 94.7847ZM36.3699 133.957L36.3116 133.962L37.1642 140.775C37.3005 140.68 37.4736 140.621 37.6848 140.622C40.4815 140.63 43.1623 139.737 45.7553 138.754L46.1502 138.604L47.2511 138.181C48.3702 137.752 49.4952 137.333 50.6412 136.985L51.1045 136.846L51.34 136.776C52.2077 136.523 53.1204 136.293 54.023 136.236L54.146 136.229L53.8832 136.091C53.8447 136.071 53.811 136.048 53.7811 136.024C53.2843 136.061 52.7866 136.051 52.2625 135.956C51.277 135.779 50.3187 135.436 49.4388 134.959L49.0458 134.746L48.8849 134.661L48.7786 134.606L48.6729 134.552C47.9172 134.176 47.1945 133.94 46.2403 134.14C45.157 134.368 44.2078 134.952 43.2313 135.445L43.058 135.531L42.9415 135.588L42.8227 135.643L42.7025 135.698C41.382 136.292 39.2805 136.933 38.7742 135.139C38.5707 134.418 38.73 133.742 39.083 133.15C38.4253 133.093 37.2503 133.869 36.3699 133.957ZM3.50007 111.509L3.48416 111.59C3.29744 112.595 3.76569 113.556 4.47428 114.257C5.05554 114.832 6.08421 115.151 6.37559 115.978C6.54151 116.449 6.36503 116.895 6.02426 117.206L6.10275 117.244L6.17948 117.284L6.25439 117.323L6.32743 117.363L6.39856 117.403C7.55622 118.068 8.49898 119.149 7.45488 120.455C6.27046 121.937 3.79558 121.985 2.0519 121.869L1.93443 121.861C0.243652 121.734 -1.75918 121.166 -2.67599 119.606C-3.09647 118.89 -3.05019 118.024 -2.46405 117.411C-2.11042 117.041 -1.47963 116.662 -0.901211 116.617C-0.926517 116.291 -0.887676 115.976 -0.773048 115.711C-0.525116 115.137 0.13464 114.75 0.770985 114.736C0.719456 113.517 1.69606 112.314 2.41515 111.34L2.48857 111.24L2.55983 111.142C2.88977 110.683 3.59573 110.94 3.50007 111.509ZM2.53532 112.806L1.88017 115.259L1.89142 115.28C2.12219 115.718 1.51724 116.215 1.15842 115.847L1.12229 115.808C0.69643 115.368 0.0427399 115.959 0.0346107 116.427C0.0229721 117.086 0.451962 117.595 0.963081 117.932L0.998871 117.955L1.09311 118.013C1.51257 118.291 1.195 118.87 0.733883 118.8C0.163315 118.712 -0.304268 118.26 -0.592529 117.695C-0.900551 117.783 -1.25106 117.773 -1.57546 117.954C-2.3929 118.411 -1.92277 119.21 -1.39046 119.694L-1.36885 119.713L-1.3255 119.751C-0.348896 120.583 0.980755 120.873 2.23412 120.935L2.30634 120.938C3.57239 120.992 5.22184 121.01 6.30696 120.266C6.98228 119.803 7.17783 119.146 6.60632 118.523C6.28314 118.172 5.95685 117.817 5.62094 117.474C5.11818 117.714 4.66914 117.617 4.155 117.39C4.0891 117.361 4.12564 117.26 4.19019 117.26C4.47385 117.259 5.51471 116.733 5.56532 116.397C5.61209 116.085 5.03632 115.823 4.75633 115.673L4.71571 115.65L4.68051 115.63C4.38764 115.453 4.11197 115.246 3.85997 115.014C3.22041 114.426 2.75589 113.688 2.55304 112.88L2.53532 112.806Z" fill="white"/>
<path fill-rule="evenodd" clip-rule="evenodd" d="M63.8262 65.8033C63.252 64.3607 61.3109 64.9214 61.5273 66.437C61.6568 67.3448 62.1542 68.3036 62.6009 69.0992C62.9647 69.7468 63.3796 70.3789 63.9422 70.8643C62.9408 71.7984 61.9012 72.6983 60.8354 73.5528C59.6723 74.4851 58.4493 75.3445 57.1851 76.1343C56.0766 76.827 54.918 77.4407 53.8731 78.231C52.9015 78.9658 52.0164 79.8495 51.566 81.0031C51.0862 82.2316 51.2947 83.5003 51.648 84.7279L51.6886 84.8667C52.0496 86.083 52.6744 87.5491 51.808 88.695C51.3669 89.2784 50.7257 89.6916 50.1721 90.1579C49.68 90.5725 49.2181 91.0233 48.7945 91.5075C47.8708 92.563 47.1196 93.7507 46.6455 95.0741L46.6031 95.1943C46.1968 96.3659 45.8998 97.8011 46.4489 98.9513C46.6064 99.281 47.1145 99.1738 47.2027 98.8528C47.4022 98.1255 47.3918 97.3638 47.559 96.6262C47.7331 95.8591 48.0227 95.1309 48.4009 94.442C49.1328 93.1093 50.124 91.9709 51.295 91.0085L51.6456 90.7235C52.5591 89.9741 53.3984 89.179 53.5839 87.9386C53.7823 86.6116 53.2504 85.3474 52.9084 84.0914C52.6701 83.2161 52.5923 82.377 52.8498 81.5859C53.1645 82.0994 53.5937 82.5867 53.9333 83.0214C54.6096 83.8874 55.2922 84.7481 55.9731 85.6104C56.6711 86.4947 57.352 87.3929 58.0004 88.3143C58.2904 88.7266 58.5773 89.1412 58.8633 89.5563C59.0783 89.8683 59.3782 90.18 59.6126 90.4982C59.5556 90.6684 59.56 90.8646 59.6632 91.0039C60.9063 92.6829 62.6747 89.1797 63.1359 88.2946C64.0751 86.4921 64.7741 84.5772 65.7165 82.7752C66.6929 80.9071 67.8048 79.0888 69.0441 77.3833C69.7937 76.3517 70.6338 75.3828 71.3196 74.3184C72.9351 75.7828 75.0609 76.7645 77.0135 77.6547C79.1589 78.6326 81.3877 79.4316 83.5874 80.2799L84.2371 80.5322C88.0271 82.0108 91.9097 83.6353 95.06 86.2617C98.7618 89.3481 100.952 93.6498 102.582 98.1044C104.459 103.233 106.012 108.499 107.459 113.762C108.2 116.455 108.903 119.16 109.563 121.874C110.145 124.265 110.628 126.68 111.302 129.046C109.935 128.998 108.376 129.527 107.209 129.679C101.891 130.375 96.6438 131.485 91.6225 133.405C91.0022 133.643 90.8228 134.262 90.9578 134.764C90.6002 134.663 90.2427 134.561 89.8851 134.46C90.2769 133.86 90.0899 132.787 90.0591 132.121L90.0572 132.076C90.0255 131.189 89.9293 130.302 89.8669 129.417C89.7481 127.73 89.5934 126.055 89.3878 124.378L89.3353 123.959C89.1023 122.134 88.93 120.298 88.6757 118.477L88.6457 118.268C88.7676 117.802 88.9096 117.342 89.0586 116.883C89.4556 115.662 90.0161 114.513 90.5072 113.33C90.5651 113.191 90.3667 113.111 90.274 113.195C89.4422 113.943 88.7815 114.892 88.2507 115.884C88.2415 115.837 88.2334 115.79 88.2238 115.744L88.1632 115.446C88.0139 114.719 87.8322 113.954 87.3862 113.365C87.3387 113.302 87.2448 113.289 87.1999 113.365C86.773 114.087 86.7253 115.001 86.6596 115.823C86.5853 116.752 86.576 117.693 86.5891 118.625C86.6147 120.447 86.7431 122.273 86.8454 124.092C86.9458 125.879 87.1429 127.643 87.397 129.412L87.4452 129.744C87.5694 130.586 87.6711 131.439 87.8349 132.276L87.8812 132.503C87.9687 132.918 88.0226 133.503 88.1969 133.989C83.7122 132.738 79.2206 131.516 74.7204 130.316C71.4679 129.448 68.212 128.593 64.9575 127.733C64.7858 127.424 64.5719 127.135 64.3051 126.877C63.4258 126.025 62.2606 125.646 61.1918 126.301C61.1049 126.354 61.0976 126.49 61.1918 126.542C61.3966 126.654 61.6018 126.768 61.8033 126.888L59.849 126.359C58.3884 125.963 56.9102 125.469 55.4152 125.193C52.6616 123.834 49.6999 122.851 46.7991 121.879L46.4573 121.764C44.972 121.258 43.4358 120.691 41.9012 120.41C40.7778 120.205 39.4591 120.453 39.0074 121.603C38.4355 121.98 37.8974 122.423 37.3781 122.858C37.0027 123.173 36.6428 123.508 36.2769 123.833L36.2094 123.893C35.9102 124.152 35.6732 124.326 35.5998 124.739C35.5619 124.952 35.6975 125.241 35.9607 125.212C36.7661 125.126 37.421 124.193 37.9672 123.636C38.3892 123.205 38.8145 122.76 39.1997 122.286C39.4242 122.408 39.732 122.386 39.8749 122.116C40.616 120.713 42.6461 121.685 43.7694 122.018L45.3785 122.494C46.183 122.732 46.9872 122.972 47.7901 123.216C49.9965 123.885 52.1922 124.635 54.4187 125.25C54.2195 125.469 54.247 125.858 54.6254 126.007C56.3682 126.69 58.2802 127.044 60.0909 127.513C61.2341 127.809 62.3765 128.107 63.5186 128.407C63.7145 128.724 63.8553 129.083 63.9146 129.501C64.1326 131.037 63.7122 132.808 63.3028 134.294L63.2411 134.515C62.9045 135.709 62.4093 137.173 61.3787 137.927C61.1271 138.111 60.8068 138.239 60.4839 138.268C58.4665 137.23 56.4492 136.192 54.4306 135.156C54.0567 134.964 53.7112 135.224 53.6273 135.533C52.9156 135.416 52.2055 135.232 51.5587 135.012C50.472 134.644 49.6234 133.94 48.6046 133.453C46.6333 132.512 44.6203 133.668 42.8553 134.547L42.4485 134.747C41.657 135.131 40.0104 135.869 39.6306 134.819C39.2633 133.803 40.4246 132.717 41.1746 132.26C42.0686 131.715 43.1096 131.423 44.12 131.18C44.697 131.042 45.281 130.928 45.8684 130.846C46.5348 130.752 47.2231 130.766 47.8648 130.55C48.1836 130.443 48.2326 129.937 47.8648 129.853C46.8771 129.628 45.6982 129.873 44.6675 130.124L44.1288 130.257C43.0904 130.511 42.042 130.831 41.0961 131.339C40.4084 131.709 39.6824 132.27 39.2082 132.957C38.7964 132.575 38.2839 132.588 37.75 132.73L37.4602 132.81C36.9816 132.943 36.5938 133.034 36.1281 132.942C36.0659 132.604 36.0028 132.265 35.9353 131.926C35.2717 128.596 34.5441 125.279 33.7411 121.979C32.3561 116.288 30.7535 110.659 28.9468 105.088L28.7654 104.531C28.3487 103.256 28.0133 101.868 27.3415 100.697C26.7061 99.5905 25.6882 98.9529 24.4787 98.6152C23.1061 98.2321 21.6639 98.0316 20.2637 97.7728C19.9513 97.7151 19.6382 97.6603 19.3255 97.6036C19.5897 97.1268 19.7869 96.5855 19.9646 96.1701L19.9957 96.0981C20.3773 95.2284 20.7201 94.343 21.0511 93.4528L21.2988 92.7837C21.8964 91.1722 22.5134 89.5873 23.3538 88.0802C24.2383 86.494 25.4118 85.1973 26.8746 84.124C29.8571 81.9355 33.452 80.8193 36.3448 78.4805C36.4634 78.3847 36.3114 78.2209 36.1911 78.2815C34.2378 79.2626 32.1291 79.9297 30.0975 80.7285L29.6967 80.8866C28.0909 81.5229 26.4601 82.2157 25.0702 83.246C23.5206 84.3948 22.3002 85.8216 21.3829 87.5183C20.4789 89.1908 19.9006 91.0628 19.2627 92.8491L19.0921 93.3251C18.8349 94.0389 18.5692 94.7505 18.2647 95.4451C18.0229 95.9965 17.5719 96.626 17.3668 97.2559C16.8059 97.1587 16.2451 97.0611 15.6836 96.9674C3.52145 94.9375 -8.77655 93.7448 -21.1019 93.3958C-21.5841 93.3822 -21.8335 93.8422 -21.7624 94.2626C-20.5796 101.255 -19.5285 108.27 -18.3752 115.268C-17.8717 118.322 -17.3582 121.373 -16.8327 124.423C-16.5665 125.969 -16.2588 127.508 -16.0067 129.056C-15.8031 130.305 -15.6553 131.565 -15.3059 132.786C-14.9925 133.88 -14.5115 134.936 -13.7215 135.771C-12.87 136.671 -11.6815 137.107 -10.4851 137.313C-7.4481 137.835 -4.33297 138.049 -1.27129 138.397L15.0294 140.251C14.7911 142.415 14.7733 144.546 14.8826 146.736L14.9449 147.931C14.9958 148.892 15.0567 149.855 15.1949 150.807C15.3681 152.001 15.9143 153.011 16.7189 153.903C17.4576 154.722 18.3552 155.42 19.2282 156.09C20.1344 156.785 21.0708 157.456 22.1363 157.886L22.2746 157.94C23.2093 158.305 24.9628 158.87 26.2405 158.664C26.0735 159.5 25.7503 160.4 26.0368 161.227C26.1697 161.612 26.6724 161.803 26.9805 161.476C27.5907 160.828 27.6383 159.972 27.7829 159.127C27.9332 158.247 28.0629 157.364 28.178 156.478C28.4008 154.767 28.5742 153.04 28.6271 151.314C28.6815 149.541 28.6605 147.766 28.565 145.995C28.5158 145.086 28.4549 144.177 28.3395 143.274C28.2902 142.889 28.2399 142.503 28.1824 142.119C28.1614 141.978 28.1381 141.839 28.1131 141.7L29.5762 141.865C31.8196 142.115 34.064 142.341 36.3233 142.376C36.5908 142.38 36.7967 142.259 36.9312 142.081C37.0745 142.315 37.3241 142.482 37.6815 142.48C40.8366 142.468 43.7747 141.437 46.6443 140.222C48.0908 139.609 49.5148 138.945 50.9634 138.338C52.3155 137.771 53.761 137.366 55.0805 136.727L58.5478 138.545C58.5732 138.635 58.6059 138.719 58.6405 138.79C58.8662 139.251 59.3114 139.5 59.7659 139.689C60.2023 139.87 60.6541 139.926 61.0944 139.88C63.724 141.258 66.3542 142.634 68.9861 144.007L71.6187 145.379C76.8637 148.109 82.088 150.884 87.3661 153.55L87.7546 153.745C89.5777 154.659 91.5353 155.585 93.5584 156.276C93.5944 156.788 93.5717 157.286 93.5288 157.828L93.5185 157.946C93.4582 158.586 93.3288 159.389 93.8426 159.845C94.1099 160.082 94.5874 160.083 94.7691 159.725C95.0989 159.077 94.8028 158.055 94.6984 157.351C94.6613 157.101 94.6161 156.843 94.5492 156.593C96.8686 157.284 99.2582 157.618 101.618 157.231C103.916 156.854 105.696 155.406 107.131 153.636C108.645 151.768 109.721 149.591 110.299 147.258C110.956 144.602 110.999 141.86 110.983 139.14C110.967 136.243 110.86 133.333 110.507 130.456C110.893 130.365 111.322 130.287 111.712 130.314C111.905 130.623 112.28 130.753 112.619 130.713C113.355 131.525 111.487 132.355 110.89 132.563C110.682 132.635 110.705 132.972 110.944 132.961L111.094 132.954C112.017 132.905 112.97 132.748 113.513 131.891C113.947 131.204 113.817 130.39 113.298 129.829C112.956 126.594 112.138 123.444 111.376 120.288C110.629 117.191 109.798 114.113 108.917 111.051L108.522 109.681C107.135 104.879 105.686 100.039 103.772 95.429C102.817 93.1269 101.717 90.8671 100.225 88.8598C98.8342 86.9886 97.1924 85.3875 95.3053 84.02C91.7873 81.4703 87.6593 79.9298 83.6033 78.462L83.4217 78.3963C81.3199 77.6363 79.2231 76.8672 77.1452 76.0436C75.3075 75.3154 73.5469 74.392 71.7179 73.6528C71.7773 73.545 71.8347 73.4359 71.8899 73.3257L71.9237 73.3541C71.9295 73.3587 71.9354 73.3631 71.9416 73.3673C72.1255 73.4948 72.3963 73.4321 72.5479 73.2891C72.9759 72.8854 72.831 72.4373 72.5453 72.0186L72.5081 71.9653C72.1587 71.476 71.847 70.9586 71.5245 70.4516L71.3225 70.1345C70.7812 69.2873 70.2123 68.4345 69.4905 67.7344C69.1563 67.41 68.7903 67.1672 68.4026 66.9864C68.4357 66.9163 68.145 66.773 68.0626 66.8451C66.8342 66.3957 65.4209 66.4899 64.0816 66.6138M15.8181 140.34L17.526 140.535C19.405 140.748 21.2847 140.955 23.1647 141.16L27.248 141.603C27.2585 141.836 27.2867 142.063 27.2919 142.239C27.3186 143.145 27.3384 144.052 27.3573 144.958C27.395 146.775 27.3536 148.593 27.234 150.406C27.118 152.163 26.9653 153.92 26.728 155.665L26.6794 156.014L26.6512 156.198C26.4576 156.216 26.2673 156.308 26.1091 156.497C25.7637 156.91 24.5131 156.509 24.0246 156.335C23.2214 156.049 22.465 155.567 21.7671 155.083C21.0855 154.61 20.4718 154.059 19.8821 153.478L19.3995 153.001C18.9195 152.524 18.439 152.016 18.1449 151.416C17.7461 150.603 17.6945 149.605 17.5776 148.719C17.4336 147.629 17.2621 146.54 17.0809 145.455M65.3986 128.903L65.5757 128.949C72.011 130.659 78.4367 132.418 84.8917 134.052C88.0862 134.861 91.2958 135.611 94.4941 136.404L95.012 136.534C97.5351 137.171 100.089 137.938 102.021 139.768C102.092 139.835 102.196 139.732 102.128 139.66C100.046 137.444 97.0844 136.506 94.2408 135.693C93.7151 135.543 93.1888 135.396 92.6631 135.246C96.5304 133.868 100.459 132.669 104.478 131.814C105.513 131.594 106.56 131.432 107.594 131.211C108.315 131.057 109.019 130.834 109.733 130.649L110.294 130.507L110.301 132.281C110.311 134.792 110.306 137.302 110.178 139.813L110.154 140.279C110.004 143.073 109.771 145.926 108.779 148.561C107.973 150.703 106.688 152.72 105.007 154.28C104.157 155.069 103.243 155.683 102.113 155.987C101.063 156.268 99.9641 156.301 98.8855 156.226C93.7118 155.865 89.1063 153.056 84.6121 150.729C77.2612 146.925 69.9094 143.122 62.551 139.332C62.7499 139.196 62.9372 139.039 63.1076 138.863C64.0943 137.844 64.6148 136.45 64.9567 135.099C65.3206 133.662 65.5382 132.121 65.5635 130.637M56.0357 140.8C55.9707 140.765 55.8955 140.809 55.8925 140.882C55.8698 141.444 56.1804 141.998 56.4124 142.505L56.437 142.559C56.7189 143.186 57.0276 143.804 57.3468 144.413C57.9849 145.629 58.6481 146.833 59.3402 148.019C60.7319 150.406 62.2785 152.692 64.1066 154.77C64.5196 155.239 65.1987 154.637 64.9337 154.132C63.6561 151.695 62.1668 149.395 60.6337 147.114C59.8662 145.972 59.0993 144.829 58.3242 143.693C58.0009 143.218 57.6734 142.746 57.3371 142.28L57.1342 142.002M-20.2868 94.7914C-13.8291 94.9863 -7.37891 95.4074 -0.951881 96.0672C5.02531 96.6807 10.9806 97.4975 16.9023 98.5157C18.1391 98.7283 19.3745 98.9497 20.6082 99.1798L21.3483 99.3189C22.5823 99.5527 24.0897 99.6491 25.1884 100.308C26.3467 101.003 26.6598 102.455 27.0452 103.652C27.4983 105.06 27.9399 106.472 28.3696 107.888C30.0759 113.508 31.6345 119.177 33.0249 124.884C33.7151 127.716 34.3275 130.565 34.9728 133.408C35.5461 135.934 36.1786 138.431 36.8395 140.931C36.758 140.868 36.6581 140.82 36.5375 140.794C33.256 140.096 29.9062 139.793 26.5756 139.407L26.2533 139.37C22.8079 138.965 19.3624 138.563 15.9149 138.175L-6.91052 135.609C-8.2567 135.458 -9.69882 135.437 -11.0089 135.076C-13.2362 134.462 -13.7582 131.973 -14.1319 129.99L-14.1432 129.93C-15.2699 123.941 -16.1667 117.899 -17.2175 111.894M36.3082 133.969C37.1944 133.91 38.4073 133.099 39.0796 133.157C38.7267 133.749 38.5674 134.424 38.7708 135.145C39.3369 137.152 41.897 136.114 43.1302 135.501C44.1413 134.998 45.1176 134.383 46.2369 134.147C47.505 133.881 48.3641 134.385 49.4354 134.966C50.3154 135.443 51.2737 135.786 52.2592 135.963C52.7832 136.057 53.2809 136.067 53.7778 136.031C53.8077 136.055 53.8414 136.078 53.8798 136.098L54.1426 136.236C52.9542 136.29 51.7438 136.657 50.6379 136.992C49.4919 137.34 48.3668 137.759 47.2477 138.188L46.1468 138.611C43.4313 139.65 40.6203 140.637 37.6815 140.629C37.4702 140.628 37.2971 140.687 37.1608 140.782M41.2663 127.681C40.3908 127.574 39.5827 127.689 38.8832 128.259C38.0395 128.946 37.4727 130.085 36.2599 130.16C35.9062 130.182 35.8241 130.679 36.1755 130.783C37.0784 131.05 37.8093 130.561 38.4244 129.927L38.838 129.496C39.4458 128.866 40.0064 128.38 41.0378 128.418C42.1424 128.458 43.2489 128.713 44.3464 128.843C45.5895 128.99 46.8325 129.115 48.0796 129.223C48.1375 129.228 48.1474 129.137 48.0931 129.123L46.6963 128.776M42.1115 124.103L41.9671 124.089C40.6958 123.965 39.5331 123.961 38.3977 124.644L38.18 124.776C37.1563 125.398 36.0421 126.131 35.402 127.138C35.2972 127.303 35.4703 127.496 35.6456 127.454C36.8759 127.159 37.7753 126.257 38.81 125.582C39.9711 124.824 41.1706 124.949 42.4946 125.066C43.7765 125.18 45.0577 125.337 46.327 125.551C47.5197 125.751 48.7162 126.068 49.9209 126.169L49.9207 126.166C50.0583 126.166 50.1368 125.959 49.9965 125.889C48.7738 125.279 47.3578 124.99 46.0279 124.711M3.49175 111.542C3.61464 110.955 2.89168 110.682 2.55659 111.148L2.48533 111.247C1.7614 112.238 0.714439 113.482 0.767738 114.743C0.131393 114.757 -0.528358 115.144 -0.776291 115.718C-0.890923 115.983 -0.929764 116.298 -0.904457 116.624C-1.48287 116.669 -2.11367 117.048 -2.4673 117.418C-3.05343 118.03 -3.09972 118.896 -2.67923 119.612C-1.76243 121.173 0.24041 121.741 1.93118 121.867L1.99143 121.872C3.73779 121.992 6.2542 121.96 7.45164 120.462C8.60673 119.017 7.33012 117.848 6.02103 117.212C6.36179 116.901 6.53827 116.455 6.37235 115.985C6.08098 115.158 5.0523 114.839 4.47104 114.264C3.76245 113.563 3.2942 112.602 3.48092 111.597M2.53194 112.813C2.72453 113.649 3.19765 114.415 3.8566 115.021C4.10859 115.253 4.38427 115.459 4.67713 115.637L4.71234 115.657C4.97225 115.803 5.61111 116.076 5.56195 116.403C5.51134 116.74 4.47047 117.266 4.18681 117.266C4.12226 117.266 4.08572 117.367 4.15163 117.397C4.66576 117.624 5.11481 117.721 5.61757 117.481C5.95347 117.824 6.27976 118.178 6.60294 118.53C7.17446 119.152 6.9789 119.809 6.30358 120.273C5.21847 121.017 3.56902 120.999 2.30296 120.945C1.02865 120.89 -0.333496 120.606 -1.32888 119.758L-1.37224 119.72C-1.91321 119.239 -2.40733 118.424 -1.57884 117.961C-1.25445 117.779 -0.903931 117.79 -0.595909 117.702C-0.307648 118.267 0.159935 118.719 0.730507 118.806C1.19162 118.877 1.50919 118.297 1.08973 118.02L0.995491 117.962C0.468773 117.626 0.0193253 117.108 0.0312347 116.434C0.03936 115.966 0.693054 115.375 1.11891 115.815L1.1384 115.836C1.49475 116.237 2.12242 115.731 1.88804 115.286L1.87679 115.266M85.6434 89.5456C85.645 89.4451 85.5036 89.4075 85.4542 89.4945C84.627 90.9492 84.1946 92.7325 83.754 94.3353C83.2925 96.0142 82.9199 97.7102 82.5852 99.4187C81.9073 102.878 81.5461 106.318 81.5216 109.844C81.5182 110.347 82.3386 110.481 82.4189 109.965C82.9517 106.535 83.4622 103.102 83.999 99.6734C84.2692 97.9489 84.5836 96.231 84.8844 94.5116M77.4546 92.0795C77.5155 91.8789 77.2235 91.8118 77.1488 91.9952C75.4887 96.0687 74.9266 100.685 75.9923 104.983C76.1554 105.64 77.1186 105.355 76.9956 104.706M56.0424 88.46C56.0508 88.3098 55.8558 88.2861 55.7823 88.3895C54.9957 89.4974 54.6694 90.9811 53.2894 91.5537C52.6004 91.8395 51.8251 91.7897 51.2164 92.2726C50.8094 92.5955 50.4973 93.1053 50.8028 93.5944C50.9013 93.7524 51.1771 93.8316 51.3108 93.6599C51.506 93.4097 51.6092 93.1102 51.8744 92.9227C52.2483 92.6582 52.7525 92.6418 53.1813 92.5175C53.7359 92.3568 54.2247 92.0755 54.625 91.6576M42.9015 69.9815C42.8204 69.9402 42.7426 69.9666 42.6908 70.0367C42.6168 70.1365 42.6258 70.2337 42.7165 70.3021C42.5954 70.5496 42.4523 71.1695 42.4319 71.2597C42.3491 71.6255 42.261 71.9892 42.1688 72.3526C41.9829 73.0855 41.8199 73.824 41.6338 74.5571C41.4365 75.3343 41.2014 76.1031 40.9398 76.8609C40.923 76.9099 40.9044 76.96 40.8849 77.0109L40.8551 77.0876L40.8478 77.076C40.7946 76.992 40.6839 77.0507 40.6971 77.1394C40.7092 77.2203 40.7256 77.3008 40.7394 77.3817L40.712 77.4542C40.5409 77.9146 40.4237 78.3995 40.7376 78.8058C40.8551 78.9577 40.9844 79.0477 41.1454 79.0745C41.4036 79.9255 41.7276 80.7606 42.0745 81.5626L42.1761 81.7968C42.6864 82.9671 43.2305 84.122 44.0429 85.1183C44.9299 86.206 46.1499 86.9488 46.9226 88.1407C47.282 88.6951 47.5321 89.2781 47.7351 89.9042L47.8115 90.1419C47.9556 90.5847 48.1218 91.014 48.5374 91.2738C48.67 91.3566 48.8687 91.3302 48.9756 91.2172C49.8278 90.316 48.9357 88.6333 48.4218 87.7608C47.7075 86.5475 46.6737 85.7714 45.6385 84.856C44.5227 83.8693 43.811 82.5494 43.1225 81.2491C42.7008 80.4526 42.2937 79.6388 41.8651 78.8387C42.3129 78.443 42.4562 77.6572 42.608 77.1109L42.6218 77.0619C42.8726 76.1871 43.0718 75.2896 43.1976 74.3882C43.3188 73.5214 43.3693 72.6671 43.3372 71.7955L43.328 71.5735M41.2367 74.1067C41.3356 73.9712 41.1719 73.8176 41.0361 73.8459C40.2108 74.0165 39.4039 74.5159 38.6632 74.9197L38.5841 74.9626C37.9929 75.2813 37.3979 75.6718 37.0875 76.291C36.7498 76.964 36.7776 77.7392 36.8237 78.4706L36.828 78.539C36.8845 79.4161 36.8935 80.3274 37.0792 81.1887C37.1742 81.6294 37.5736 81.7536 37.915 81.6495C38.3213 82.9319 39.4626 83.8767 40.2962 84.8887C41.3592 86.1788 41.1591 87.9207 41.048 89.4745C41.0031 90.1036 41.7859 90.2825 42.189 89.9468L43.1181 89.1754C43.2729 89.0466 43.4274 88.9176 43.5815 88.788C43.7135 88.677 43.8443 88.5651 43.974 88.4519L44.1678 88.2808C44.2537 88.204 44.6328 87.7807 44.7436 87.7631C45.0121 87.7204 45.6499 88.4277 45.8682 88.6496L45.8959 88.6772C46.3067 89.08 46.6779 89.5133 47.0237 89.9729C47.0873 90.0573 47.2117 89.9873 47.1662 89.8897C46.8564 89.2262 46.4961 88.5919 46.0684 87.9982L45.9819 87.88C45.6973 87.4966 45.3153 86.8196 44.8129 86.7063C44.1995 86.5682 43.587 87.1831 43.1407 87.5244L43.1124 87.5458C42.9001 87.705 42.6902 87.8671 42.4807 88.0303C42.5026 86.8734 42.3564 85.7045 41.7589 84.7076C41.3376 84.0045 40.7064 83.4837 40.1663 82.8795C39.565 82.2067 39.2511 81.3798 38.7067 80.6792C38.6366 80.589 38.54 80.5405 38.4354 80.5251C38.4145 79.9618 38.3315 79.3929 38.2674 78.8357L38.2488 78.6689C38.1839 78.0634 38.0307 77.324 38.3273 76.757C38.6074 76.2214 39.25 75.8434 39.7259 75.48L40.1145 75.1787M68.0213 67.705C68.2698 67.8487 68.5021 68.0274 68.7128 68.2508C69.376 68.9542 69.8503 69.8295 70.3117 70.6716C70.5602 71.125 70.7998 71.5835 71.0503 72.036C71.1592 72.2328 71.2713 72.4275 71.3845 72.6219C71.4369 72.7115 71.5926 72.8895 71.6697 72.9992C71.584 73.1193 71.4954 73.2375 71.405 73.3544C71.3705 73.399 68.9912 75.99 68.1618 77.0041C66.8918 78.5574 65.7567 80.198 64.7862 81.9541C63.8359 83.6738 63.1124 85.4945 62.232 87.2475C61.7914 88.1251 61.2993 88.9965 60.672 89.756C60.6478 89.7856 60.6222 89.8136 60.5974 89.8429C60.358 89.1963 59.7446 88.5041 59.4433 88.1066L59.4152 88.0691C58.7318 87.1483 58.0102 86.2552 57.2729 85.3773C56.5995 84.5757 55.909 83.7914 55.2017 83.02L54.9357 82.7313C54.443 82.1992 53.817 81.403 53.0957 81.0229C53.173 80.8852 53.2624 80.7489 53.3653 80.6144C54.0412 79.7316 54.9965 79.0908 55.9392 78.5127L56.5506 78.1409C58.8551 76.7371 61.1236 75.2681 63.1243 73.4441C64.1827 72.4789 65.2266 71.4679 66.1162 70.3421L66.4309 69.9441M64.1762 67.0101C65.2554 67.1006 66.4207 67.0791 67.418 67.4305C66.5314 68.2684 65.6887 69.1731 64.823 70.025C64.746 69.4488 64.5884 68.8796 64.455 68.3178" fill="black"/>
<path fill-rule="evenodd" clip-rule="evenodd" d="M53.208 13.7267C45.5398 13.7267 37.6084 19.6811 34.7976 23.4808C32.4343 26.6754 31.1619 41.1211 31.1619 50.8836C31.1619 52.9254 30.0372 56.7743 30.3654 58.7273C31.5682 65.884 36.8084 71.8862 47.18 71.8862C57.5516 71.8862 64.9878 67.7677 72.6968 56.7102C76.4372 56.7102 78.2499 53.8367 78.2762 49.3019C78.3026 44.7671 74.6658 43.1173 74.6658 43.1173C74.6658 43.1173 75.9625 25.2212 72.6968 20.5619C69.431 15.9026 60.8762 13.7267 53.208 13.7267Z" fill="#D08B5B"/>
<path fill-rule="evenodd" clip-rule="evenodd" d="M56.4351 11.1963C51.5936 10.7052 46.8493 11.1179 42.078 11.9717C41.7134 12.0378 41.5068 12.2774 41.4299 12.5655C39.1826 12.6683 36.9326 12.8335 34.6883 12.9566C33.8738 13.0012 33.4121 13.8074 33.7834 14.5354C33.8576 14.6801 33.9347 14.8208 34.013 14.9615L33.9146 14.929C33.2394 14.712 32.5101 14.605 31.8522 14.9494C31.0149 15.3878 30.6866 16.355 30.8716 17.2452C30.919 17.4725 30.9986 17.6903 31.0891 17.9028C30.9054 17.8906 30.7204 17.8947 30.5367 17.919C29.559 18.0489 28.8324 18.7998 28.7811 19.7996C28.7055 21.3093 29.6765 22.8409 30.8203 23.9217C30.6544 24.2642 30.5907 24.6673 30.6598 25.0759C30.7975 25.8836 31.3914 26.3673 32.0799 26.6827C31.7928 27.5961 31.6571 28.551 31.7372 29.5268C31.7639 29.8526 32.0483 30.1217 32.3485 30.1877C31.2295 33.2742 30.6631 36.588 30.2558 39.817C29.9655 42.1144 29.8223 44.4251 29.8049 46.7398C29.7964 47.7848 29.8136 48.8311 29.8573 49.8763L29.875 50.2682C29.929 51.398 29.9317 52.5843 30.1343 53.702C29.4428 54.8802 29.1646 56.3428 29.0471 57.6631C28.9013 59.2974 29.1322 60.9832 29.6469 62.5378C31.5889 68.412 37.4499 72.1189 43.3368 73.0823C48.7859 73.9739 55.0913 72.7738 58.2758 67.8153C58.3258 67.7369 58.2191 67.6721 58.1569 67.7235C55.8787 69.5795 53.2359 70.4075 50.3646 70.8106C45.4002 71.5062 39.8201 70.3263 35.8362 67.1985C33.9239 65.6968 32.545 63.5105 31.9385 61.1577C31.6293 59.9551 31.5226 58.7008 31.6443 57.463C31.7685 56.2076 32.3234 55.1361 32.6732 53.9496C32.7907 53.549 32.6664 53.1769 32.422 52.9119C32.3533 51.9485 32.1911 50.9771 32.1291 50.0167C32.0602 48.9247 32.0182 47.8329 32.0034 46.7398C31.975 44.4723 32.0695 42.2008 32.2599 39.943C32.6084 35.8083 33.5335 31.7741 34.0764 27.6747C34.2774 27.8553 34.5655 27.9295 34.8675 27.7717L34.8988 27.7545L35.0636 27.66C35.073 27.66 35.0838 27.6613 35.0934 27.6625C36.2209 27.7722 37.3905 27.6153 38.4709 27.2783C39.6013 26.9267 40.6505 26.3855 41.5879 25.6644C41.7661 26.5694 41.8405 27.4839 41.8417 28.4066C41.843 28.983 42.4521 29.2821 42.9356 29.0359C45.0788 27.9453 47.1261 26.6886 49.0695 25.2761C49.2965 26.441 49.5233 27.6057 49.7516 28.7719C49.8393 29.2212 50.4107 29.4025 50.7767 29.1887C52.2323 28.3403 53.4897 27.2297 54.5133 25.9092C54.7177 26.3007 54.9227 26.6922 55.1291 27.0828L55.4398 27.6679C55.7463 28.2429 56.1569 28.8789 56.8281 29.0628C57.5384 29.2576 58.1314 28.7964 58.3703 28.1523C58.4433 27.9522 58.5108 27.7464 58.5729 27.5394C59.1781 28.9236 59.8613 30.2765 60.6338 31.5671C61.7925 33.503 63.1836 35.228 64.5704 36.9976C64.9918 37.5348 65.7129 37.0219 65.771 36.4998C65.8048 36.1927 65.8331 35.8842 65.8576 35.577C66.6657 37.2108 67.509 38.8292 68.4277 40.4008L68.2962 40.9172C67.9171 42.443 67.6023 43.9796 67.2601 45.5135C67.1496 46.0084 67.4121 46.716 67.9893 46.8003C68.6789 46.9009 69.3313 47.2539 70.0376 47.0111C70.8078 46.7462 70.96 46.0793 71.3236 45.4472C71.3961 45.3213 71.4805 45.2056 71.5712 45.0958L71.5943 45.1258C71.6511 45.2003 71.7861 45.1192 71.7523 45.0339L71.7128 44.9354C72.0251 44.6033 72.399 44.3262 72.7427 44.0282C73.5594 43.8903 74.4782 44.0413 75.0409 44.3737C76.3225 45.1312 76.9112 46.6924 76.9234 48.128C76.9382 49.8083 76.4184 51.697 75.5406 53.1338C75.1542 53.7656 74.6248 54.3364 73.9254 54.6165C73.2311 54.8951 72.4789 54.8086 71.7726 55.071C71.3053 55.2456 71.0177 55.7652 71.2999 56.2358C71.3188 56.2684 71.3404 56.2981 71.3608 56.3293L71.1508 56.6086C71.0063 56.8021 70.8556 57.0092 70.7152 57.2248C70.3559 57.6389 69.9778 58.038 69.6118 58.4453C68.9353 59.196 68.2789 59.9673 67.6132 60.7288C66.9851 61.4473 66.3207 62.1223 65.636 62.7866C64.9891 63.4158 64.1815 63.9447 63.5873 64.6158C63.0094 65.2706 62.8526 66.4137 63.8035 66.7927C64.8554 67.2129 65.7867 66.228 66.4948 65.5713L66.5246 65.5438C67.8227 64.3472 68.9949 62.9796 69.9258 61.474C70.8479 62.1028 72.1817 62.1629 73.0999 61.5342C73.5831 61.2034 73.9538 60.6475 74.1339 60.0428C74.3038 60.0809 74.4736 60.1032 74.6391 60.1007C74.7244 60.1502 74.8098 60.1983 74.8963 60.2433C75.5811 60.6003 76.4223 60.4408 76.7356 59.6817C77.021 58.9926 76.727 58.2099 76.47 57.546L76.4169 57.4088C76.2711 57.0301 76.1104 56.6175 75.9105 56.2292C76.4669 55.8098 76.9424 55.2888 77.3447 54.6964C78.6966 52.7008 79.3718 49.7825 79.0733 47.4015C78.8937 45.9647 78.22 44.4765 77.1166 43.5077L77.157 43.4022C77.4663 42.6163 77.7473 41.8274 77.9295 40.9969C78.1429 40.0255 78.247 39.0189 78.3414 38.0299C78.5413 35.9411 78.4872 33.8048 78.2212 31.7241C77.7215 27.8074 76.4547 23.9625 74.2062 20.7033C74.8437 19.9388 75.3487 19.0391 75.0855 18.0043C74.9652 17.5293 74.6911 17.0789 74.2778 16.8068C74.0497 16.6568 73.7781 16.6338 73.5498 16.5093L73.4812 16.4715C73.381 16.4129 73.4576 16.4191 73.5174 16.1467C73.7538 15.0589 73.5579 14.0078 72.3628 13.6466C71.2378 13.307 70.1736 14.0281 69.5078 14.8872C67.7657 13.6492 65.4699 13.0012 63.4509 12.4506C61.155 11.8268 58.7999 11.4373 56.4351 11.1963ZM75.2528 47.6842C75.261 46.798 74.4224 46.2514 73.5971 46.3963C73.0429 46.493 72.5807 46.8243 72.1466 47.1667L71.9349 47.3345C71.4063 47.7502 70.7995 48.1984 70.4843 48.7869C70.0225 49.6555 70.9987 50.8243 71.9103 50.2155C72.5356 49.7956 72.9365 49.123 73.3466 48.4981L73.3891 48.4337C73.5755 48.1536 73.7389 47.856 73.9943 47.6314L74.0494 47.583C74.1334 47.5113 74.2235 47.4459 74.3319 47.4149C74.541 47.3547 74.9283 47.4391 75.0205 47.6884L75.0287 47.7139C75.0625 47.8399 75.2514 47.8127 75.2528 47.6842Z" fill="black"/>
<path fill-rule="evenodd" clip-rule="evenodd" d="M41.7841 58.6556C41.5765 58.2948 41.0985 57.9605 40.6611 58.0118C38.7016 58.2415 38.705 60.6164 39.4616 62.0028C40.1325 63.2322 41.5209 63.9539 42.9105 63.8485C44.3704 63.7377 45.6142 62.8797 46.1616 61.5144C46.5237 60.6114 46.6909 58.9442 45.7279 58.3374C45.71 58.3261 45.6805 58.3289 45.6663 58.3453C45.2046 58.8822 45.1864 59.6884 44.7822 60.2863C44.4062 60.8423 43.8221 61.3015 43.1379 61.3724C42.6268 61.4254 42.1099 61.2412 41.91 60.7825C41.8018 60.5345 41.8141 60.3998 41.8548 60.229L41.8917 60.0806C42.0197 59.5609 42.0772 59.1652 41.7841 58.6556ZM41.2602 48.2403C40.2383 48.8613 38.6811 50.3093 39.7805 51.8489C41.0746 53.2063 42.9378 51.6499 43.856 50.946C44.7073 50.4005 45.6639 51.8035 44.874 52.4405C38.2394 57.3509 35.5469 48.4027 40.7433 47.5102C41.3155 47.4119 41.528 48.0482 41.2602 48.2403ZM52.0523 43.9821C51.425 43.0413 49.9931 43.1799 49.6476 44.2963C49.4605 44.901 49.7189 45.4446 49.7055 46.0485C49.6943 46.5587 49.7277 47.1272 49.8842 47.6213C50.2409 48.748 51.2546 49.5438 52.4538 49.5108C53.6491 49.4779 54.7018 48.7216 55.2024 47.6565C55.7048 46.5873 55.5984 45.4807 55.2317 44.3935C55.2141 44.3413 55.1456 44.316 55.1043 44.36C54.6708 44.8205 54.3534 45.3067 54.025 45.8225L53.6885 46.3511C53.4313 46.7491 53.0576 47.2576 52.5774 47.2256L52.5053 47.2185C52.3718 47.2071 52.3923 47.2336 52.2894 47.0517C52.2417 46.9676 52.2504 46.8112 52.2274 46.7119L52.2194 46.6783L52.2237 46.6602C52.2339 46.6122 52.244 46.5215 52.2522 46.3643L52.2539 46.3295C52.2887 45.594 52.4967 44.6487 52.0523 43.9821ZM36.1515 44.6084C36.264 43.4052 34.5718 43.138 34.0092 44.0283C33.7158 44.4926 33.6304 45.0759 33.5655 45.6285L33.5351 45.8907C33.4685 46.4583 33.4422 47.0487 33.6886 47.5781C34.0767 48.4119 34.9208 48.8526 35.8313 48.7828C36.7009 48.716 37.4942 48.212 37.9124 47.447C38.2852 46.7643 38.6559 45.4314 38.2031 44.7194C38.1757 44.6762 38.1211 44.6707 38.0836 44.704C37.6557 45.0837 37.586 45.7764 37.3315 46.2712C37.0691 46.7815 36.6711 47.2788 36.0679 47.3563C35.4908 47.4305 35.2704 47.1154 35.4176 46.5654C35.6075 45.8554 36.0801 45.3724 36.1515 44.6084ZM51.5951 36.8284L51.3183 36.7225C50.3701 36.3644 49.0684 35.9505 48.2975 36.7213C47.8219 37.1965 47.7314 37.8967 48.0708 38.4767C48.4821 39.1792 49.2198 39.1965 49.9322 39.3C50.7424 39.4177 51.5665 39.6415 52.3209 39.9605C53.1706 40.32 53.9592 40.7681 54.7318 41.2685C55.4662 41.7441 56.1979 42.5213 57.0769 42.6678C57.1128 42.6738 57.1535 42.6584 57.1629 42.619C57.3625 41.7599 56.8077 40.9145 56.3127 40.2442C55.7137 39.4328 54.9879 38.7667 54.1767 38.1696C53.3938 37.5931 52.4992 37.1765 51.5951 36.8284ZM34.3714 39.8828L34.2869 39.868C33.7119 39.7723 33.1909 39.7943 32.7575 40.2496C32.4268 40.5969 32.2993 41.047 32.457 41.5062C32.6024 41.9297 32.9278 42.3601 33.4 42.4489C34.9941 42.7487 36.7598 42.6991 38.3619 42.4721C39.0949 42.3682 39.8345 42.2411 40.5484 42.0406L40.8769 41.9454C41.4729 41.7752 42.1553 41.5974 42.5882 41.1591C42.7439 41.0017 42.6542 40.7763 42.4679 40.7033C41.7125 40.4076 40.677 40.5649 39.8715 40.5418C38.9345 40.515 37.9959 40.4448 37.0633 40.3481C36.152 40.2534 35.2702 40.0476 34.3714 39.8828Z" fill="black"/>
</g>
</g>
</svg>
