<svg width="1440" height="428" viewBox="0 0 1440 428" fill="none" xmlns="http://www.w3.org/2000/svg">
<path d="M-2.883 100.078C-7.01478 100.078 -10.5403 99.1572 -13.4595 97.3159C-16.3337 95.4296 -18.5343 92.8697 -20.0613 89.6361C-21.5434 86.4026 -22.2844 82.7424 -22.2844 78.6555V20.3166C-22.2844 16.2747 -21.5209 12.6369 -19.9939 9.40333C-18.4221 6.16977 -16.1765 3.60986 -13.2574 1.72361C-10.3382 -0.16263 -6.88005 -1.10575 -2.883 -1.10575C0.126009 -1.10575 2.82065 -0.544369 5.20091 0.578395C7.58117 1.70116 9.60215 3.25058 11.2638 5.22664C12.9704 7.1578 14.2729 9.42579 15.1711 12.0306C16.0693 14.5905 16.5184 17.3525 16.5184 20.3166V33.9245H2.91047V20.3166C2.91047 18.2507 2.48382 16.5217 1.63051 15.1294C0.777213 13.7372 -0.637471 13.0411 -2.61354 13.0411C-4.40996 13.0411 -5.71237 13.7597 -6.52076 15.1968C-7.32915 16.6339 -7.73335 18.3405 -7.73335 20.3166V78.6555C-7.73335 80.6316 -7.3067 82.3382 -6.4534 83.7753C-5.55518 85.2124 -4.27523 85.931 -2.61354 85.931C-0.592561 85.931 0.822123 85.2349 1.63051 83.8427C2.48382 82.4504 2.91047 80.7214 2.91047 78.6555V65.0476H16.5184V78.6555C16.5184 82.6974 15.7324 86.3352 14.1606 89.5688C12.5887 92.8023 10.3432 95.3622 7.42398 97.2485C4.5497 99.1347 1.11404 100.078 -2.883 100.078ZM42.71 100.078C38.6681 100.078 35.1875 99.1347 32.2683 97.2485C29.394 95.3622 27.171 92.8023 25.5991 89.5688C24.0721 86.3352 23.3087 82.6974 23.3087 78.6555V20.3166C23.3087 16.2297 24.0721 12.592 25.5991 9.40333C27.171 6.16977 29.394 3.60986 32.2683 1.72361C35.1875 -0.16263 38.6681 -1.10575 42.71 -1.10575C46.752 -1.10575 50.2101 -0.16263 53.0844 1.72361C56.0036 3.60986 58.2267 6.16977 59.7536 9.40333C61.3255 12.6369 62.1114 16.2747 62.1114 20.3166V78.6555C62.1114 82.6974 61.3255 86.3352 59.7536 89.5688C58.2267 92.8023 56.0036 95.3622 53.0844 97.2485C50.2101 99.1347 46.752 100.078 42.71 100.078ZM42.71 85.931C44.5065 85.931 45.764 85.19 46.4825 83.7079C47.2011 82.181 47.5604 80.4968 47.5604 78.6555V20.3166C47.5604 18.4753 47.1786 16.8136 46.4152 15.3315C45.6517 13.8046 44.4166 13.0411 42.71 13.0411C41.0483 13.0411 39.8133 13.8046 39.0049 15.3315C38.2414 16.8136 37.8597 18.4753 37.8597 20.3166V78.6555C37.8597 80.4968 38.2414 82.181 39.0049 83.7079C39.7684 85.19 41.0034 85.931 42.71 85.931ZM69.5754 99V-0.0278946H88.0336L95.9828 51.3049L96.6565 56.5595H96.9259L97.5996 51.3049L105.549 -0.0278946H124.007V99H110.534V32.5772H109.725L109.187 36.7539L100.564 99H93.0187L84.3959 36.7539L83.8569 32.5772H83.0485V99H69.5754ZM132.141 99V-0.0278946H146.692V99H132.141ZM154.841 99V-0.0278946H168.449L181.922 51.5744L183.134 56.1553H183.943V-0.0278946H197.281V99H185.021L170.2 47.3977L168.987 42.8168H168.179V99H154.841ZM221.739 100.078C217.742 100.078 214.486 99.1347 211.971 97.2485C209.456 95.3622 207.592 92.8023 206.38 89.5688C205.212 86.3352 204.628 82.6974 204.628 78.6555V20.3166C204.628 16.3196 205.414 12.7043 206.986 9.47069C208.558 6.23713 210.803 3.67723 213.723 1.79098C216.642 -0.140174 220.077 -1.10575 224.03 -1.10575C227.039 -1.10575 229.733 -0.544369 232.114 0.578395C234.539 1.65625 236.582 3.18321 238.244 5.15928C239.95 7.13534 241.23 9.42579 242.084 12.0306C242.982 14.5905 243.431 17.3525 243.431 20.3166V35.5413H228.88V20.3166C228.88 18.3405 228.521 16.6339 227.802 15.1968C227.084 13.7597 225.826 13.0411 224.03 13.0411C222.278 13.0411 221.021 13.8046 220.257 15.3315C219.539 16.8136 219.179 18.4753 219.179 20.3166V79.8681C219.179 81.7992 219.561 83.5058 220.324 84.9879C221.088 86.425 222.323 87.1436 224.03 87.1436C225.826 87.1436 227.084 86.425 227.802 84.9879C228.521 83.5058 228.88 81.7992 228.88 79.8681V63.2961H223.086V49.6881H243.431V99H234.808L233.057 93.6107C231.799 95.6317 230.182 97.226 228.206 98.3937C226.275 99.5165 224.119 100.078 221.739 100.078ZM287.162 100.078C283.165 100.078 279.842 99.4267 277.192 98.1242C274.542 96.7769 272.454 94.8458 270.927 92.3308C269.4 89.8158 268.3 86.7843 267.626 83.2364C266.997 79.6884 266.683 75.6914 266.683 71.2452L280.964 69.8979C280.964 72.0536 281.032 74.142 281.166 76.163C281.346 78.139 281.638 79.9354 282.042 81.5522C282.491 83.1241 283.12 84.3816 283.928 85.3247C284.782 86.2678 285.86 86.7394 287.162 86.7394C289.318 86.7394 290.845 85.7514 291.743 83.7753C292.641 81.7543 293.09 79.3292 293.09 76.4998C293.09 73.6704 292.349 70.7288 290.867 67.6748C289.385 64.6209 287.611 61.7242 285.545 58.9846C282.042 54.3139 278.966 49.9801 276.316 45.983C273.711 41.986 271.668 38.0563 270.186 34.194C268.749 30.3317 268.03 26.2897 268.03 22.0681C268.03 18.7447 268.457 15.6908 269.31 12.9064C270.163 10.077 271.398 7.62936 273.015 5.56347C274.677 3.45268 276.675 1.81344 279.011 0.645764C281.346 -0.521913 284.018 -1.10575 287.027 -1.10575C290.755 -1.10575 293.899 -0.477003 296.458 0.780494C299.063 2.03799 301.152 3.83442 302.724 6.16977C304.34 8.50512 305.508 11.2896 306.227 14.5231C306.99 17.7118 307.372 21.2597 307.372 25.167L293.09 26.5143C293.09 24.8526 293 23.1909 292.821 21.5292C292.686 19.8226 292.417 18.2732 292.012 16.8809C291.608 15.4887 291.024 14.366 290.261 13.5127C289.497 12.6593 288.509 12.2327 287.297 12.2327C285.41 12.2327 284.108 13.0411 283.389 14.6579C282.671 16.2297 282.312 18.4753 282.312 21.3945C282.312 25.167 283.322 28.8047 285.343 32.3077C287.364 35.8108 290.081 39.8976 293.494 44.5683C297.581 50.0923 300.905 55.1672 303.465 59.793C306.069 64.4188 307.372 69.5386 307.372 75.1525C307.372 78.7004 306.99 82.0013 306.227 85.0553C305.463 88.0643 304.25 90.6915 302.589 92.9371C300.972 95.1826 298.884 96.9341 296.324 98.1916C293.809 99.4491 290.755 100.078 287.162 100.078ZM331.205 100.078C327.163 100.078 323.682 99.1347 320.763 97.2485C317.889 95.3622 315.665 92.8023 314.094 89.5688C312.567 86.3352 311.803 82.6974 311.803 78.6555V20.3166C311.803 16.2297 312.567 12.592 314.094 9.40333C315.665 6.16977 317.889 3.60986 320.763 1.72361C323.682 -0.16263 327.163 -1.10575 331.205 -1.10575C335.247 -1.10575 338.705 -0.16263 341.579 1.72361C344.498 3.60986 346.721 6.16977 348.248 9.40333C349.82 12.6369 350.606 16.2747 350.606 20.3166V78.6555C350.606 82.6974 349.82 86.3352 348.248 89.5688C346.721 92.8023 344.498 95.3622 341.579 97.2485C338.705 99.1347 335.247 100.078 331.205 100.078ZM331.205 85.931C333.001 85.931 334.258 85.19 334.977 83.7079C335.696 82.181 336.055 80.4968 336.055 78.6555V20.3166C336.055 18.4753 335.673 16.8136 334.91 15.3315C334.146 13.8046 332.911 13.0411 331.205 13.0411C329.543 13.0411 328.308 13.8046 327.499 15.3315C326.736 16.8136 326.354 18.4753 326.354 20.3166V78.6555C326.354 80.4968 326.736 82.181 327.499 83.7079C328.263 85.19 329.498 85.931 331.205 85.931ZM376.798 100.078C372.756 100.078 369.275 99.1347 366.356 97.2485C363.482 95.3622 361.259 92.8023 359.687 89.5688C358.16 86.3352 357.396 82.6974 357.396 78.6555V20.3166C357.396 16.2297 358.16 12.592 359.687 9.40333C361.259 6.16977 363.482 3.60986 366.356 1.72361C369.275 -0.16263 372.756 -1.10575 376.798 -1.10575C380.84 -1.10575 384.298 -0.16263 387.172 1.72361C390.091 3.60986 392.314 6.16977 393.841 9.40333C395.413 12.6369 396.199 16.2747 396.199 20.3166V78.6555C396.199 82.6974 395.413 86.3352 393.841 89.5688C392.314 92.8023 390.091 95.3622 387.172 97.2485C384.298 99.1347 380.84 100.078 376.798 100.078ZM376.798 85.931C378.594 85.931 379.852 85.19 380.57 83.7079C381.289 82.181 381.648 80.4968 381.648 78.6555V20.3166C381.648 18.4753 381.266 16.8136 380.503 15.3315C379.739 13.8046 378.504 13.0411 376.798 13.0411C375.136 13.0411 373.901 13.8046 373.092 15.3315C372.329 16.8136 371.947 18.4753 371.947 20.3166V78.6555C371.947 80.4968 372.329 82.181 373.092 83.7079C373.856 85.19 375.091 85.931 376.798 85.931ZM403.663 99V-0.0278946H417.271L430.744 51.5744L431.957 56.1553H432.765V-0.0278946H446.103V99H433.843L419.022 47.3977L417.81 42.8168H417.001V99H403.663Z" fill="#F3FBFB"/>
<path d="M-2.883 209.986C-7.01478 209.986 -10.5403 209.065 -13.4595 207.224C-16.3337 205.338 -18.5343 202.778 -20.0613 199.544C-21.5434 196.311 -22.2844 192.651 -22.2844 188.564V130.225C-22.2844 126.183 -21.5209 122.545 -19.9939 119.312C-18.4221 116.078 -16.1765 113.518 -13.2574 111.632C-10.3382 109.746 -6.88005 108.802 -2.883 108.802C0.126009 108.802 2.82065 109.364 5.20091 110.487C7.58117 111.609 9.60215 113.159 11.2638 115.135C12.9704 117.066 14.2729 119.334 15.1711 121.939C16.0693 124.499 16.5184 127.261 16.5184 130.225V143.833H2.91047V130.225C2.91047 128.159 2.48382 126.43 1.63051 125.038C0.777213 123.645 -0.637471 122.949 -2.61354 122.949C-4.40996 122.949 -5.71237 123.668 -6.52076 125.105C-7.32915 126.542 -7.73335 128.249 -7.73335 130.225V188.564C-7.73335 190.54 -7.3067 192.246 -6.4534 193.684C-5.55518 195.121 -4.27523 195.839 -2.61354 195.839C-0.592561 195.839 0.822123 195.143 1.63051 193.751C2.48382 192.359 2.91047 190.63 2.91047 188.564V174.956H16.5184V188.564C16.5184 192.606 15.7324 196.243 14.1606 199.477C12.5887 202.711 10.3432 205.27 7.42398 207.157C4.5497 209.043 1.11404 209.986 -2.883 209.986ZM42.71 209.986C38.6681 209.986 35.1875 209.043 32.2683 207.157C29.394 205.27 27.171 202.711 25.5991 199.477C24.0721 196.243 23.3087 192.606 23.3087 188.564V130.225C23.3087 126.138 24.0721 122.5 25.5991 119.312C27.171 116.078 29.394 113.518 32.2683 111.632C35.1875 109.746 38.6681 108.802 42.71 108.802C46.752 108.802 50.2101 109.746 53.0844 111.632C56.0036 113.518 58.2267 116.078 59.7536 119.312C61.3255 122.545 62.1114 126.183 62.1114 130.225V188.564C62.1114 192.606 61.3255 196.243 59.7536 199.477C58.2267 202.711 56.0036 205.27 53.0844 207.157C50.2101 209.043 46.752 209.986 42.71 209.986ZM42.71 195.839C44.5065 195.839 45.764 195.098 46.4825 193.616C47.2011 192.089 47.5604 190.405 47.5604 188.564V130.225C47.5604 128.383 47.1786 126.722 46.4152 125.24C45.6517 123.713 44.4166 122.949 42.71 122.949C41.0483 122.949 39.8133 123.713 39.0049 125.24C38.2414 126.722 37.8597 128.383 37.8597 130.225V188.564C37.8597 190.405 38.2414 192.089 39.0049 193.616C39.7684 195.098 41.0034 195.839 42.71 195.839ZM69.5754 208.908V109.88H88.0336L95.9828 161.213L96.6565 166.468H96.9259L97.5996 161.213L105.549 109.88H124.007V208.908H110.534V142.485H109.725L109.187 146.662L100.564 208.908H93.0187L84.3959 146.662L83.8569 142.485H83.0485V208.908H69.5754ZM132.141 208.908V109.88H146.692V208.908H132.141ZM154.841 208.908V109.88H168.449L181.922 161.483L183.134 166.063H183.943V109.88H197.281V208.908H185.021L170.2 157.306L168.987 152.725H168.179V208.908H154.841ZM221.739 209.986C217.742 209.986 214.486 209.043 211.971 207.157C209.456 205.27 207.592 202.711 206.38 199.477C205.212 196.243 204.628 192.606 204.628 188.564V130.225C204.628 126.228 205.414 122.612 206.986 119.379C208.558 116.145 210.803 113.585 213.723 111.699C216.642 109.768 220.077 108.802 224.03 108.802C227.039 108.802 229.733 109.364 232.114 110.487C234.539 111.564 236.582 113.091 238.244 115.067C239.95 117.044 241.23 119.334 242.084 121.939C242.982 124.499 243.431 127.261 243.431 130.225V145.45H228.88V130.225C228.88 128.249 228.521 126.542 227.802 125.105C227.084 123.668 225.826 122.949 224.03 122.949C222.278 122.949 221.021 123.713 220.257 125.24C219.539 126.722 219.179 128.383 219.179 130.225V189.776C219.179 191.707 219.561 193.414 220.324 194.896C221.088 196.333 222.323 197.052 224.03 197.052C225.826 197.052 227.084 196.333 227.802 194.896C228.521 193.414 228.88 191.707 228.88 189.776V173.204H223.086V159.596H243.431V208.908H234.808L233.057 203.519C231.799 205.54 230.182 207.134 228.206 208.302C226.275 209.425 224.119 209.986 221.739 209.986ZM287.162 209.986C283.165 209.986 279.842 209.335 277.192 208.032C274.542 206.685 272.454 204.754 270.927 202.239C269.4 199.724 268.3 196.693 267.626 193.145C266.997 189.597 266.683 185.6 266.683 181.153L280.964 179.806C280.964 181.962 281.032 184.05 281.166 186.071C281.346 188.047 281.638 189.844 282.042 191.46C282.491 193.032 283.12 194.29 283.928 195.233C284.782 196.176 285.86 196.648 287.162 196.648C289.318 196.648 290.845 195.66 291.743 193.684C292.641 191.663 293.09 189.237 293.09 186.408C293.09 183.579 292.349 180.637 290.867 177.583C289.385 174.529 287.611 171.632 285.545 168.893C282.042 164.222 278.966 159.888 276.316 155.891C273.711 151.894 271.668 147.965 270.186 144.102C268.749 140.24 268.03 136.198 268.03 131.976C268.03 128.653 268.457 125.599 269.31 122.815C270.163 119.985 271.398 117.538 273.015 115.472C274.677 113.361 276.675 111.722 279.011 110.554C281.346 109.386 284.018 108.802 287.027 108.802C290.755 108.802 293.899 109.431 296.458 110.689C299.063 111.946 301.152 113.743 302.724 116.078C304.34 118.413 305.508 121.198 306.227 124.431C306.99 127.62 307.372 131.168 307.372 135.075L293.09 136.422C293.09 134.761 293 133.099 292.821 131.437C292.686 129.731 292.417 128.181 292.012 126.789C291.608 125.397 291.024 124.274 290.261 123.421C289.497 122.568 288.509 122.141 287.297 122.141C285.41 122.141 284.108 122.949 283.389 124.566C282.671 126.138 282.312 128.383 282.312 131.303C282.312 135.075 283.322 138.713 285.343 142.216C287.364 145.719 290.081 149.806 293.494 154.477C297.581 160.001 300.905 165.075 303.465 169.701C306.069 174.327 307.372 179.447 307.372 185.061C307.372 188.609 306.99 191.91 306.227 194.963C305.463 197.972 304.25 200.6 302.589 202.845C300.972 205.091 298.884 206.842 296.324 208.1C293.809 209.357 290.755 209.986 287.162 209.986ZM331.205 209.986C327.163 209.986 323.682 209.043 320.763 207.157C317.889 205.27 315.665 202.711 314.094 199.477C312.567 196.243 311.803 192.606 311.803 188.564V130.225C311.803 126.138 312.567 122.5 314.094 119.312C315.665 116.078 317.889 113.518 320.763 111.632C323.682 109.746 327.163 108.802 331.205 108.802C335.247 108.802 338.705 109.746 341.579 111.632C344.498 113.518 346.721 116.078 348.248 119.312C349.82 122.545 350.606 126.183 350.606 130.225V188.564C350.606 192.606 349.82 196.243 348.248 199.477C346.721 202.711 344.498 205.27 341.579 207.157C338.705 209.043 335.247 209.986 331.205 209.986ZM331.205 195.839C333.001 195.839 334.258 195.098 334.977 193.616C335.696 192.089 336.055 190.405 336.055 188.564V130.225C336.055 128.383 335.673 126.722 334.91 125.24C334.146 123.713 332.911 122.949 331.205 122.949C329.543 122.949 328.308 123.713 327.499 125.24C326.736 126.722 326.354 128.383 326.354 130.225V188.564C326.354 190.405 326.736 192.089 327.499 193.616C328.263 195.098 329.498 195.839 331.205 195.839ZM376.798 209.986C372.756 209.986 369.275 209.043 366.356 207.157C363.482 205.27 361.259 202.711 359.687 199.477C358.16 196.243 357.396 192.606 357.396 188.564V130.225C357.396 126.138 358.16 122.5 359.687 119.312C361.259 116.078 363.482 113.518 366.356 111.632C369.275 109.746 372.756 108.802 376.798 108.802C380.84 108.802 384.298 109.746 387.172 111.632C390.091 113.518 392.314 116.078 393.841 119.312C395.413 122.545 396.199 126.183 396.199 130.225V188.564C396.199 192.606 395.413 196.243 393.841 199.477C392.314 202.711 390.091 205.27 387.172 207.157C384.298 209.043 380.84 209.986 376.798 209.986ZM376.798 195.839C378.594 195.839 379.852 195.098 380.57 193.616C381.289 192.089 381.648 190.405 381.648 188.564V130.225C381.648 128.383 381.266 126.722 380.503 125.24C379.739 123.713 378.504 122.949 376.798 122.949C375.136 122.949 373.901 123.713 373.092 125.24C372.329 126.722 371.947 128.383 371.947 130.225V188.564C371.947 190.405 372.329 192.089 373.092 193.616C373.856 195.098 375.091 195.839 376.798 195.839ZM403.663 208.908V109.88H417.271L430.744 161.483L431.957 166.063H432.765V109.88H446.103V208.908H433.843L419.022 157.306L417.81 152.725H417.001V208.908H403.663Z" fill="#F3FBFB"/>
<path d="M-2.883 319.892C-7.01478 319.892 -10.5403 318.972 -13.4595 317.13C-16.3337 315.244 -18.5343 312.684 -20.0613 309.451C-21.5434 306.217 -22.2844 302.557 -22.2844 298.47V240.131C-22.2844 236.089 -21.5209 232.451 -19.9939 229.218C-18.4221 225.984 -16.1765 223.424 -13.2574 221.538C-10.3382 219.652 -6.88005 218.709 -2.883 218.709C0.126009 218.709 2.82065 219.27 5.20091 220.393C7.58117 221.516 9.60215 223.065 11.2638 225.041C12.9704 226.972 14.2729 229.24 15.1711 231.845C16.0693 234.405 16.5184 237.167 16.5184 240.131V253.739H2.91047V240.131C2.91047 238.065 2.48382 236.336 1.63051 234.944C0.777213 233.552 -0.637471 232.856 -2.61354 232.856C-4.40996 232.856 -5.71237 233.574 -6.52076 235.011C-7.32915 236.448 -7.73335 238.155 -7.73335 240.131V298.47C-7.73335 300.446 -7.3067 302.153 -6.4534 303.59C-5.55518 305.027 -4.27523 305.745 -2.61354 305.745C-0.592561 305.745 0.822123 305.049 1.63051 303.657C2.48382 302.265 2.91047 300.536 2.91047 298.47V284.862H16.5184V298.47C16.5184 302.512 15.7324 306.15 14.1606 309.383C12.5887 312.617 10.3432 315.177 7.42398 317.063C4.5497 318.949 1.11404 319.892 -2.883 319.892ZM42.71 319.892C38.6681 319.892 35.1875 318.949 32.2683 317.063C29.394 315.177 27.171 312.617 25.5991 309.383C24.0721 306.15 23.3087 302.512 23.3087 298.47V240.131C23.3087 236.044 24.0721 232.406 25.5991 229.218C27.171 225.984 29.394 223.424 32.2683 221.538C35.1875 219.652 38.6681 218.709 42.71 218.709C46.752 218.709 50.2101 219.652 53.0844 221.538C56.0036 223.424 58.2267 225.984 59.7536 229.218C61.3255 232.451 62.1114 236.089 62.1114 240.131V298.47C62.1114 302.512 61.3255 306.15 59.7536 309.383C58.2267 312.617 56.0036 315.177 53.0844 317.063C50.2101 318.949 46.752 319.892 42.71 319.892ZM42.71 305.745C44.5065 305.745 45.764 305.004 46.4825 303.522C47.2011 301.995 47.5604 300.311 47.5604 298.47V240.131C47.5604 238.29 47.1786 236.628 46.4152 235.146C45.6517 233.619 44.4166 232.856 42.71 232.856C41.0483 232.856 39.8133 233.619 39.0049 235.146C38.2414 236.628 37.8597 238.29 37.8597 240.131V298.47C37.8597 300.311 38.2414 301.995 39.0049 303.522C39.7684 305.004 41.0034 305.745 42.71 305.745ZM69.5754 318.814V219.787H88.0336L95.9828 271.119L96.6565 276.374H96.9259L97.5996 271.119L105.549 219.787H124.007V318.814H110.534V252.392H109.725L109.187 256.568L100.564 318.814H93.0187L84.3959 256.568L83.8569 252.392H83.0485V318.814H69.5754ZM132.141 318.814V219.787H146.692V318.814H132.141ZM154.841 318.814V219.787H168.449L181.922 271.389L183.134 275.97H183.943V219.787H197.281V318.814H185.021L170.2 267.212L168.987 262.631H168.179V318.814H154.841ZM221.739 319.892C217.742 319.892 214.486 318.949 211.971 317.063C209.456 315.177 207.592 312.617 206.38 309.383C205.212 306.15 204.628 302.512 204.628 298.47V240.131C204.628 236.134 205.414 232.519 206.986 229.285C208.558 226.052 210.803 223.492 213.723 221.605C216.642 219.674 220.077 218.709 224.03 218.709C227.039 218.709 229.733 219.27 232.114 220.393C234.539 221.471 236.582 222.998 238.244 224.974C239.95 226.95 241.23 229.24 242.084 231.845C242.982 234.405 243.431 237.167 243.431 240.131V255.356H228.88V240.131C228.88 238.155 228.521 236.448 227.802 235.011C227.084 233.574 225.826 232.856 224.03 232.856C222.278 232.856 221.021 233.619 220.257 235.146C219.539 236.628 219.179 238.29 219.179 240.131V299.683C219.179 301.614 219.561 303.32 220.324 304.802C221.088 306.239 222.323 306.958 224.03 306.958C225.826 306.958 227.084 306.239 227.802 304.802C228.521 303.32 228.88 301.614 228.88 299.683V283.111H223.086V269.503H243.431V318.814H234.808L233.057 313.425C231.799 315.446 230.182 317.04 228.206 318.208C226.275 319.331 224.119 319.892 221.739 319.892ZM287.162 319.892C283.165 319.892 279.842 319.241 277.192 317.939C274.542 316.591 272.454 314.66 270.927 312.145C269.4 309.63 268.3 306.599 267.626 303.051C266.997 299.503 266.683 295.506 266.683 291.06L280.964 289.712C280.964 291.868 281.032 293.956 281.166 295.977C281.346 297.953 281.638 299.75 282.042 301.367C282.491 302.939 283.12 304.196 283.928 305.139C284.782 306.082 285.86 306.554 287.162 306.554C289.318 306.554 290.845 305.566 291.743 303.59C292.641 301.569 293.09 299.144 293.09 296.314C293.09 293.485 292.349 290.543 290.867 287.489C289.385 284.435 287.611 281.539 285.545 278.799C282.042 274.128 278.966 269.795 276.316 265.797C273.711 261.8 271.668 257.871 270.186 254.008C268.749 250.146 268.03 246.104 268.03 241.883C268.03 238.559 268.457 235.505 269.31 232.721C270.163 229.891 271.398 227.444 273.015 225.378C274.677 223.267 276.675 221.628 279.011 220.46C281.346 219.293 284.018 218.709 287.027 218.709C290.755 218.709 293.899 219.337 296.458 220.595C299.063 221.852 301.152 223.649 302.724 225.984C304.34 228.32 305.508 231.104 306.227 234.338C306.99 237.526 307.372 241.074 307.372 244.981L293.09 246.329C293.09 244.667 293 243.005 292.821 241.344C292.686 239.637 292.417 238.088 292.012 236.695C291.608 235.303 291.024 234.18 290.261 233.327C289.497 232.474 288.509 232.047 287.297 232.047C285.41 232.047 284.108 232.856 283.389 234.472C282.671 236.044 282.312 238.29 282.312 241.209C282.312 244.981 283.322 248.619 285.343 252.122C287.364 255.625 290.081 259.712 293.494 264.383C297.581 269.907 300.905 274.982 303.465 279.607C306.069 284.233 307.372 289.353 307.372 294.967C307.372 298.515 306.99 301.816 306.227 304.87C305.463 307.879 304.25 310.506 302.589 312.752C300.972 314.997 298.884 316.749 296.324 318.006C293.809 319.264 290.755 319.892 287.162 319.892ZM331.205 319.892C327.163 319.892 323.682 318.949 320.763 317.063C317.889 315.177 315.665 312.617 314.094 309.383C312.567 306.15 311.803 302.512 311.803 298.47V240.131C311.803 236.044 312.567 232.406 314.094 229.218C315.665 225.984 317.889 223.424 320.763 221.538C323.682 219.652 327.163 218.709 331.205 218.709C335.247 218.709 338.705 219.652 341.579 221.538C344.498 223.424 346.721 225.984 348.248 229.218C349.82 232.451 350.606 236.089 350.606 240.131V298.47C350.606 302.512 349.82 306.15 348.248 309.383C346.721 312.617 344.498 315.177 341.579 317.063C338.705 318.949 335.247 319.892 331.205 319.892ZM331.205 305.745C333.001 305.745 334.258 305.004 334.977 303.522C335.696 301.995 336.055 300.311 336.055 298.47V240.131C336.055 238.29 335.673 236.628 334.91 235.146C334.146 233.619 332.911 232.856 331.205 232.856C329.543 232.856 328.308 233.619 327.499 235.146C326.736 236.628 326.354 238.29 326.354 240.131V298.47C326.354 300.311 326.736 301.995 327.499 303.522C328.263 305.004 329.498 305.745 331.205 305.745ZM376.798 319.892C372.756 319.892 369.275 318.949 366.356 317.063C363.482 315.177 361.259 312.617 359.687 309.383C358.16 306.15 357.396 302.512 357.396 298.47V240.131C357.396 236.044 358.16 232.406 359.687 229.218C361.259 225.984 363.482 223.424 366.356 221.538C369.275 219.652 372.756 218.709 376.798 218.709C380.84 218.709 384.298 219.652 387.172 221.538C390.091 223.424 392.314 225.984 393.841 229.218C395.413 232.451 396.199 236.089 396.199 240.131V298.47C396.199 302.512 395.413 306.15 393.841 309.383C392.314 312.617 390.091 315.177 387.172 317.063C384.298 318.949 380.84 319.892 376.798 319.892ZM376.798 305.745C378.594 305.745 379.852 305.004 380.57 303.522C381.289 301.995 381.648 300.311 381.648 298.47V240.131C381.648 238.29 381.266 236.628 380.503 235.146C379.739 233.619 378.504 232.856 376.798 232.856C375.136 232.856 373.901 233.619 373.092 235.146C372.329 236.628 371.947 238.29 371.947 240.131V298.47C371.947 300.311 372.329 301.995 373.092 303.522C373.856 305.004 375.091 305.745 376.798 305.745ZM403.663 318.814V219.787H417.271L430.744 271.389L431.957 275.97H432.765V219.787H446.103V318.814H433.843L419.022 267.212L417.81 262.631H417.001V318.814H403.663Z" fill="#F3FBFB"/>
<path d="M-2.883 429.801C-7.01478 429.801 -10.5403 428.88 -13.4595 427.039C-16.3337 425.152 -18.5343 422.592 -20.0613 419.359C-21.5434 416.125 -22.2844 412.465 -22.2844 408.378V350.039C-22.2844 345.997 -21.5209 342.36 -19.9939 339.126C-18.4221 335.892 -16.1765 333.333 -13.2574 331.446C-10.3382 329.56 -6.88005 328.617 -2.883 328.617C0.126009 328.617 2.82065 329.178 5.20091 330.301C7.58117 331.424 9.60215 332.973 11.2638 334.949C12.9704 336.88 14.2729 339.148 15.1711 341.753C16.0693 344.313 16.5184 347.075 16.5184 350.039V363.647H2.91047V350.039C2.91047 347.973 2.48382 346.244 1.63051 344.852C0.777213 343.46 -0.637471 342.764 -2.61354 342.764C-4.40996 342.764 -5.71237 343.482 -6.52076 344.919C-7.32915 346.357 -7.73335 348.063 -7.73335 350.039V408.378C-7.73335 410.354 -7.3067 412.061 -6.4534 413.498C-5.55518 414.935 -4.27523 415.654 -2.61354 415.654C-0.592561 415.654 0.822123 414.958 1.63051 413.565C2.48382 412.173 2.91047 410.444 2.91047 408.378V394.77H16.5184V408.378C16.5184 412.42 15.7324 416.058 14.1606 419.291C12.5887 422.525 10.3432 425.085 7.42398 426.971C4.5497 428.857 1.11404 429.801 -2.883 429.801ZM42.71 429.801C38.6681 429.801 35.1875 428.857 32.2683 426.971C29.394 425.085 27.171 422.525 25.5991 419.291C24.0721 416.058 23.3087 412.42 23.3087 408.378V350.039C23.3087 345.952 24.0721 342.315 25.5991 339.126C27.171 335.892 29.394 333.333 32.2683 331.446C35.1875 329.56 38.6681 328.617 42.71 328.617C46.752 328.617 50.2101 329.56 53.0844 331.446C56.0036 333.333 58.2267 335.892 59.7536 339.126C61.3255 342.36 62.1114 345.997 62.1114 350.039V408.378C62.1114 412.42 61.3255 416.058 59.7536 419.291C58.2267 422.525 56.0036 425.085 53.0844 426.971C50.2101 428.857 46.752 429.801 42.71 429.801ZM42.71 415.654C44.5065 415.654 45.764 414.913 46.4825 413.431C47.2011 411.904 47.5604 410.219 47.5604 408.378V350.039C47.5604 348.198 47.1786 346.536 46.4152 345.054C45.6517 343.527 44.4166 342.764 42.71 342.764C41.0483 342.764 39.8133 343.527 39.0049 345.054C38.2414 346.536 37.8597 348.198 37.8597 350.039V408.378C37.8597 410.219 38.2414 411.904 39.0049 413.431C39.7684 414.913 41.0034 415.654 42.71 415.654ZM69.5754 428.723V329.695H88.0336L95.9828 381.028L96.6565 386.282H96.9259L97.5996 381.028L105.549 329.695H124.007V428.723H110.534V362.3H109.725L109.187 366.477L100.564 428.723H93.0187L84.3959 366.477L83.8569 362.3H83.0485V428.723H69.5754ZM132.141 428.723V329.695H146.692V428.723H132.141ZM154.841 428.723V329.695H168.449L181.922 381.297L183.134 385.878H183.943V329.695H197.281V428.723H185.021L170.2 377.12L168.987 372.539H168.179V428.723H154.841ZM221.739 429.801C217.742 429.801 214.486 428.857 211.971 426.971C209.456 425.085 207.592 422.525 206.38 419.291C205.212 416.058 204.628 412.42 204.628 408.378V350.039C204.628 346.042 205.414 342.427 206.986 339.193C208.558 335.96 210.803 333.4 213.723 331.514C216.642 329.582 220.077 328.617 224.03 328.617C227.039 328.617 229.733 329.178 232.114 330.301C234.539 331.379 236.582 332.906 238.244 334.882C239.95 336.858 241.23 339.148 242.084 341.753C242.982 344.313 243.431 347.075 243.431 350.039V365.264H228.88V350.039C228.88 348.063 228.521 346.357 227.802 344.919C227.084 343.482 225.826 342.764 224.03 342.764C222.278 342.764 221.021 343.527 220.257 345.054C219.539 346.536 219.179 348.198 219.179 350.039V409.591C219.179 411.522 219.561 413.228 220.324 414.711C221.088 416.148 222.323 416.866 224.03 416.866C225.826 416.866 227.084 416.148 227.802 414.711C228.521 413.228 228.88 411.522 228.88 409.591V393.019H223.086V379.411H243.431V428.723H234.808L233.057 423.333C231.799 425.354 230.182 426.949 228.206 428.116C226.275 429.239 224.119 429.801 221.739 429.801ZM287.162 429.801C283.165 429.801 279.842 429.149 277.192 427.847C274.542 426.5 272.454 424.568 270.927 422.053C269.4 419.538 268.3 416.507 267.626 412.959C266.997 409.411 266.683 405.414 266.683 400.968L280.964 399.621C280.964 401.776 281.032 403.865 281.166 405.886C281.346 407.862 281.638 409.658 282.042 411.275C282.491 412.847 283.12 414.104 283.928 415.047C284.782 415.99 285.86 416.462 287.162 416.462C289.318 416.462 290.845 415.474 291.743 413.498C292.641 411.477 293.09 409.052 293.09 406.222C293.09 403.393 292.349 400.451 290.867 397.398C289.385 394.344 287.611 391.447 285.545 388.707C282.042 384.037 278.966 379.703 276.316 375.706C273.711 371.709 271.668 367.779 270.186 363.917C268.749 360.054 268.03 356.012 268.03 351.791C268.03 348.467 268.457 345.413 269.31 342.629C270.163 339.8 271.398 337.352 273.015 335.286C274.677 333.175 276.675 331.536 279.011 330.368C281.346 329.201 284.018 328.617 287.027 328.617C290.755 328.617 293.899 329.246 296.458 330.503C299.063 331.761 301.152 333.557 302.724 335.892C304.34 338.228 305.508 341.012 306.227 344.246C306.99 347.434 307.372 350.982 307.372 354.89L293.09 356.237C293.09 354.575 293 352.914 292.821 351.252C292.686 349.545 292.417 347.996 292.012 346.604C291.608 345.211 291.024 344.089 290.261 343.235C289.497 342.382 288.509 341.955 287.297 341.955C285.41 341.955 284.108 342.764 283.389 344.381C282.671 345.952 282.312 348.198 282.312 351.117C282.312 354.89 283.322 358.527 285.343 362.03C287.364 365.533 290.081 369.62 293.494 374.291C297.581 379.815 300.905 384.89 303.465 389.516C306.069 394.141 307.372 399.261 307.372 404.875C307.372 408.423 306.99 411.724 306.227 414.778C305.463 417.787 304.25 420.414 302.589 422.66C300.972 424.905 298.884 426.657 296.324 427.914C293.809 429.172 290.755 429.801 287.162 429.801ZM331.205 429.801C327.163 429.801 323.682 428.857 320.763 426.971C317.889 425.085 315.665 422.525 314.094 419.291C312.567 416.058 311.803 412.42 311.803 408.378V350.039C311.803 345.952 312.567 342.315 314.094 339.126C315.665 335.892 317.889 333.333 320.763 331.446C323.682 329.56 327.163 328.617 331.205 328.617C335.247 328.617 338.705 329.56 341.579 331.446C344.498 333.333 346.721 335.892 348.248 339.126C349.82 342.36 350.606 345.997 350.606 350.039V408.378C350.606 412.42 349.82 416.058 348.248 419.291C346.721 422.525 344.498 425.085 341.579 426.971C338.705 428.857 335.247 429.801 331.205 429.801ZM331.205 415.654C333.001 415.654 334.258 414.913 334.977 413.431C335.696 411.904 336.055 410.219 336.055 408.378V350.039C336.055 348.198 335.673 346.536 334.91 345.054C334.146 343.527 332.911 342.764 331.205 342.764C329.543 342.764 328.308 343.527 327.499 345.054C326.736 346.536 326.354 348.198 326.354 350.039V408.378C326.354 410.219 326.736 411.904 327.499 413.431C328.263 414.913 329.498 415.654 331.205 415.654ZM376.798 429.801C372.756 429.801 369.275 428.857 366.356 426.971C363.482 425.085 361.259 422.525 359.687 419.291C358.16 416.058 357.396 412.42 357.396 408.378V350.039C357.396 345.952 358.16 342.315 359.687 339.126C361.259 335.892 363.482 333.333 366.356 331.446C369.275 329.56 372.756 328.617 376.798 328.617C380.84 328.617 384.298 329.56 387.172 331.446C390.091 333.333 392.314 335.892 393.841 339.126C395.413 342.36 396.199 345.997 396.199 350.039V408.378C396.199 412.42 395.413 416.058 393.841 419.291C392.314 422.525 390.091 425.085 387.172 426.971C384.298 428.857 380.84 429.801 376.798 429.801ZM376.798 415.654C378.594 415.654 379.852 414.913 380.57 413.431C381.289 411.904 381.648 410.219 381.648 408.378V350.039C381.648 348.198 381.266 346.536 380.503 345.054C379.739 343.527 378.504 342.764 376.798 342.764C375.136 342.764 373.901 343.527 373.092 345.054C372.329 346.536 371.947 348.198 371.947 350.039V408.378C371.947 410.219 372.329 411.904 373.092 413.431C373.856 414.913 375.091 415.654 376.798 415.654ZM403.663 428.723V329.695H417.271L430.744 381.297L431.957 385.878H432.765V329.695H446.103V428.723H433.843L419.022 377.12L417.81 372.539H417.001V428.723H403.663Z" fill="#F3FBFB"/>
<path d="M504.132 100.078C500 100.078 496.474 99.1572 493.555 97.3159C490.681 95.4296 488.48 92.8697 486.953 89.6361C485.471 86.4026 484.73 82.7424 484.73 78.6555V20.3166C484.73 16.2747 485.494 12.6369 487.021 9.40333C488.593 6.16977 490.838 3.60986 493.757 1.72361C496.676 -0.16263 500.135 -1.10575 504.132 -1.10575C507.141 -1.10575 509.835 -0.544369 512.216 0.578395C514.596 1.70116 516.617 3.25058 518.278 5.22664C519.985 7.1578 521.287 9.42579 522.186 12.0306C523.084 14.5905 523.533 17.3525 523.533 20.3166V33.9245H509.925V20.3166C509.925 18.2507 509.498 16.5217 508.645 15.1294C507.792 13.7372 506.377 13.0411 504.401 13.0411C502.605 13.0411 501.302 13.7597 500.494 15.1968C499.685 16.6339 499.281 18.3405 499.281 20.3166V78.6555C499.281 80.6316 499.708 82.3382 500.561 83.7753C501.459 85.2124 502.739 85.931 504.401 85.931C506.422 85.931 507.837 85.2349 508.645 83.8427C509.498 82.4504 509.925 80.7214 509.925 78.6555V65.0476H523.533V78.6555C523.533 82.6974 522.747 86.3352 521.175 89.5688C519.603 92.8023 517.358 95.3622 514.439 97.2485C511.564 99.1347 508.129 100.078 504.132 100.078ZM549.725 100.078C545.683 100.078 542.202 99.1347 539.283 97.2485C536.409 95.3622 534.186 92.8023 532.614 89.5688C531.087 86.3352 530.323 82.6974 530.323 78.6555V20.3166C530.323 16.2297 531.087 12.592 532.614 9.40333C534.186 6.16977 536.409 3.60986 539.283 1.72361C542.202 -0.16263 545.683 -1.10575 549.725 -1.10575C553.767 -1.10575 557.225 -0.16263 560.099 1.72361C563.018 3.60986 565.241 6.16977 566.768 9.40333C568.34 12.6369 569.126 16.2747 569.126 20.3166V78.6555C569.126 82.6974 568.34 86.3352 566.768 89.5688C565.241 92.8023 563.018 95.3622 560.099 97.2485C557.225 99.1347 553.767 100.078 549.725 100.078ZM549.725 85.931C551.521 85.931 552.779 85.19 553.497 83.7079C554.216 82.181 554.575 80.4968 554.575 78.6555V20.3166C554.575 18.4753 554.193 16.8136 553.43 15.3315C552.666 13.8046 551.431 13.0411 549.725 13.0411C548.063 13.0411 546.828 13.8046 546.02 15.3315C545.256 16.8136 544.874 18.4753 544.874 20.3166V78.6555C544.874 80.4968 545.256 82.181 546.02 83.7079C546.783 85.19 548.018 85.931 549.725 85.931ZM576.59 99V-0.0278946H595.048L602.997 51.3049L603.671 56.5595H603.941L604.614 51.3049L612.563 -0.0278946H631.022V99H617.548V32.5772H616.74L616.201 36.7539L607.578 99H600.033L591.411 36.7539L590.872 32.5772H590.063V99H576.59ZM639.156 99V-0.0278946H653.707V99H639.156ZM661.855 99V-0.0278946H675.463L688.936 51.5744L690.149 56.1553H690.957V-0.0278946H704.296V99H692.035L677.215 47.3977L676.002 42.8168H675.194V99H661.855ZM728.754 100.078C724.757 100.078 721.501 99.1347 718.986 97.2485C716.471 95.3622 714.607 92.8023 713.394 89.5688C712.227 86.3352 711.643 82.6974 711.643 78.6555V20.3166C711.643 16.3196 712.429 12.7043 714.001 9.47069C715.573 6.23713 717.818 3.67723 720.737 1.79098C723.656 -0.140174 727.092 -1.10575 731.044 -1.10575C734.053 -1.10575 736.748 -0.544369 739.128 0.578395C741.553 1.65625 743.597 3.18321 745.258 5.15928C746.965 7.13534 748.245 9.42579 749.098 12.0306C749.997 14.5905 750.446 17.3525 750.446 20.3166V35.5413H735.895V20.3166C735.895 18.3405 735.535 16.6339 734.817 15.1968C734.098 13.7597 732.841 13.0411 731.044 13.0411C729.293 13.0411 728.035 13.8046 727.272 15.3315C726.553 16.8136 726.194 18.4753 726.194 20.3166V79.8681C726.194 81.7992 726.576 83.5058 727.339 84.9879C728.103 86.425 729.338 87.1436 731.044 87.1436C732.841 87.1436 734.098 86.425 734.817 84.9879C735.535 83.5058 735.895 81.7992 735.895 79.8681V63.2961H730.101V49.6881H750.446V99H741.823L740.071 93.6107C738.814 95.6317 737.197 97.226 735.221 98.3937C733.29 99.5165 731.134 100.078 728.754 100.078ZM794.177 100.078C790.18 100.078 786.856 99.4267 784.206 98.1242C781.557 96.7769 779.468 94.8458 777.941 92.3308C776.414 89.8158 775.314 86.7843 774.641 83.2364C774.012 79.6884 773.697 75.6914 773.697 71.2452L787.979 69.8979C787.979 72.0536 788.046 74.142 788.181 76.163C788.361 78.139 788.653 79.9354 789.057 81.5522C789.506 83.1241 790.135 84.3816 790.943 85.3247C791.796 86.2678 792.874 86.7394 794.177 86.7394C796.332 86.7394 797.859 85.7514 798.758 83.7753C799.656 81.7543 800.105 79.3292 800.105 76.4998C800.105 73.6704 799.364 70.7288 797.882 67.6748C796.4 64.6209 794.626 61.7242 792.56 58.9846C789.057 54.3139 785.98 49.9801 783.331 45.983C780.726 41.986 778.682 38.0563 777.2 34.194C775.763 30.3317 775.045 26.2897 775.045 22.0681C775.045 18.7447 775.471 15.6908 776.325 12.9064C777.178 10.077 778.413 7.62936 780.03 5.56347C781.691 3.45268 783.69 1.81344 786.025 0.645764C788.361 -0.521913 791.033 -1.10575 794.042 -1.10575C797.769 -1.10575 800.913 -0.477003 803.473 0.780494C806.078 2.03799 808.166 3.83442 809.738 6.16977C811.355 8.50512 812.523 11.2896 813.241 14.5231C814.005 17.7118 814.386 21.2597 814.386 25.167L800.105 26.5143C800.105 24.8526 800.015 23.1909 799.835 21.5292C799.701 19.8226 799.431 18.2732 799.027 16.8809C798.623 15.4887 798.039 14.366 797.275 13.5127C796.512 12.6593 795.524 12.2327 794.311 12.2327C792.425 12.2327 791.123 13.0411 790.404 14.6579C789.686 16.2297 789.326 18.4753 789.326 21.3945C789.326 25.167 790.337 28.8047 792.358 32.3077C794.379 35.8108 797.096 39.8976 800.509 44.5683C804.596 50.0923 807.919 55.1672 810.479 59.793C813.084 64.4188 814.386 69.5386 814.386 75.1525C814.386 78.7004 814.005 82.0013 813.241 85.0553C812.478 88.0643 811.265 90.6915 809.603 92.9371C807.987 95.1826 805.898 96.9341 803.338 98.1916C800.823 99.4491 797.769 100.078 794.177 100.078ZM838.219 100.078C834.177 100.078 830.697 99.1347 827.777 97.2485C824.903 95.3622 822.68 92.8023 821.108 89.5688C819.581 86.3352 818.818 82.6974 818.818 78.6555V20.3166C818.818 16.2297 819.581 12.592 821.108 9.40333C822.68 6.16977 824.903 3.60986 827.777 1.72361C830.697 -0.16263 834.177 -1.10575 838.219 -1.10575C842.261 -1.10575 845.719 -0.16263 848.594 1.72361C851.513 3.60986 853.736 6.16977 855.263 9.40333C856.835 12.6369 857.621 16.2747 857.621 20.3166V78.6555C857.621 82.6974 856.835 86.3352 855.263 89.5688C853.736 92.8023 851.513 95.3622 848.594 97.2485C845.719 99.1347 842.261 100.078 838.219 100.078ZM838.219 85.931C840.016 85.931 841.273 85.19 841.992 83.7079C842.71 82.181 843.07 80.4968 843.07 78.6555V20.3166C843.07 18.4753 842.688 16.8136 841.924 15.3315C841.161 13.8046 839.926 13.0411 838.219 13.0411C836.558 13.0411 835.322 13.8046 834.514 15.3315C833.751 16.8136 833.369 18.4753 833.369 20.3166V78.6555C833.369 80.4968 833.751 82.181 834.514 83.7079C835.278 85.19 836.513 85.931 838.219 85.931ZM883.812 100.078C879.77 100.078 876.29 99.1347 873.371 97.2485C870.496 95.3622 868.273 92.8023 866.701 89.5688C865.174 86.3352 864.411 82.6974 864.411 78.6555V20.3166C864.411 16.2297 865.174 12.592 866.701 9.40333C868.273 6.16977 870.496 3.60986 873.371 1.72361C876.29 -0.16263 879.77 -1.10575 883.812 -1.10575C887.854 -1.10575 891.312 -0.16263 894.187 1.72361C897.106 3.60986 899.329 6.16977 900.856 9.40333C902.428 12.6369 903.214 16.2747 903.214 20.3166V78.6555C903.214 82.6974 902.428 86.3352 900.856 89.5688C899.329 92.8023 897.106 95.3622 894.187 97.2485C891.312 99.1347 887.854 100.078 883.812 100.078ZM883.812 85.931C885.609 85.931 886.866 85.19 887.585 83.7079C888.303 82.181 888.663 80.4968 888.663 78.6555V20.3166C888.663 18.4753 888.281 16.8136 887.517 15.3315C886.754 13.8046 885.519 13.0411 883.812 13.0411C882.151 13.0411 880.916 13.8046 880.107 15.3315C879.344 16.8136 878.962 18.4753 878.962 20.3166V78.6555C878.962 80.4968 879.344 82.181 880.107 83.7079C880.871 85.19 882.106 85.931 883.812 85.931ZM910.678 99V-0.0278946H924.285L937.759 51.5744L938.971 56.1553H939.78V-0.0278946H953.118V99H940.858L926.037 47.3977L924.824 42.8168H924.016V99H910.678Z" fill="#F3FBFB"/>
<path d="M504.132 209.986C500 209.986 496.474 209.065 493.555 207.224C490.681 205.338 488.48 202.778 486.953 199.544C485.471 196.311 484.73 192.651 484.73 188.564V130.225C484.73 126.183 485.494 122.545 487.021 119.312C488.593 116.078 490.838 113.518 493.757 111.632C496.676 109.746 500.135 108.802 504.132 108.802C507.141 108.802 509.835 109.364 512.216 110.487C514.596 111.609 516.617 113.159 518.278 115.135C519.985 117.066 521.287 119.334 522.186 121.939C523.084 124.499 523.533 127.261 523.533 130.225V143.833H509.925V130.225C509.925 128.159 509.498 126.43 508.645 125.038C507.792 123.645 506.377 122.949 504.401 122.949C502.605 122.949 501.302 123.668 500.494 125.105C499.685 126.542 499.281 128.249 499.281 130.225V188.564C499.281 190.54 499.708 192.246 500.561 193.684C501.459 195.121 502.739 195.839 504.401 195.839C506.422 195.839 507.837 195.143 508.645 193.751C509.498 192.359 509.925 190.63 509.925 188.564V174.956H523.533V188.564C523.533 192.606 522.747 196.243 521.175 199.477C519.603 202.711 517.358 205.27 514.439 207.157C511.564 209.043 508.129 209.986 504.132 209.986ZM549.725 209.986C545.683 209.986 542.202 209.043 539.283 207.157C536.409 205.27 534.186 202.711 532.614 199.477C531.087 196.243 530.323 192.606 530.323 188.564V130.225C530.323 126.138 531.087 122.5 532.614 119.312C534.186 116.078 536.409 113.518 539.283 111.632C542.202 109.746 545.683 108.802 549.725 108.802C553.767 108.802 557.225 109.746 560.099 111.632C563.018 113.518 565.241 116.078 566.768 119.312C568.34 122.545 569.126 126.183 569.126 130.225V188.564C569.126 192.606 568.34 196.243 566.768 199.477C565.241 202.711 563.018 205.27 560.099 207.157C557.225 209.043 553.767 209.986 549.725 209.986ZM549.725 195.839C551.521 195.839 552.779 195.098 553.497 193.616C554.216 192.089 554.575 190.405 554.575 188.564V130.225C554.575 128.383 554.193 126.722 553.43 125.24C552.666 123.713 551.431 122.949 549.725 122.949C548.063 122.949 546.828 123.713 546.02 125.24C545.256 126.722 544.874 128.383 544.874 130.225V188.564C544.874 190.405 545.256 192.089 546.02 193.616C546.783 195.098 548.018 195.839 549.725 195.839ZM576.59 208.908V109.88H595.048L602.997 161.213L603.671 166.468H603.941L604.614 161.213L612.563 109.88H631.022V208.908H617.548V142.485H616.74L616.201 146.662L607.578 208.908H600.033L591.411 146.662L590.872 142.485H590.063V208.908H576.59ZM639.156 208.908V109.88H653.707V208.908H639.156ZM661.855 208.908V109.88H675.463L688.936 161.483L690.149 166.063H690.957V109.88H704.296V208.908H692.035L677.215 157.306L676.002 152.725H675.194V208.908H661.855ZM728.754 209.986C724.757 209.986 721.501 209.043 718.986 207.157C716.471 205.27 714.607 202.711 713.394 199.477C712.227 196.243 711.643 192.606 711.643 188.564V130.225C711.643 126.228 712.429 122.612 714.001 119.379C715.573 116.145 717.818 113.585 720.737 111.699C723.656 109.768 727.092 108.802 731.044 108.802C734.053 108.802 736.748 109.364 739.128 110.487C741.553 111.564 743.597 113.091 745.258 115.067C746.965 117.044 748.245 119.334 749.098 121.939C749.997 124.499 750.446 127.261 750.446 130.225V145.45H735.895V130.225C735.895 128.249 735.535 126.542 734.817 125.105C734.098 123.668 732.841 122.949 731.044 122.949C729.293 122.949 728.035 123.713 727.272 125.24C726.553 126.722 726.194 128.383 726.194 130.225V189.776C726.194 191.707 726.576 193.414 727.339 194.896C728.103 196.333 729.338 197.052 731.044 197.052C732.841 197.052 734.098 196.333 734.817 194.896C735.535 193.414 735.895 191.707 735.895 189.776V173.204H730.101V159.596H750.446V208.908H741.823L740.071 203.519C738.814 205.54 737.197 207.134 735.221 208.302C733.29 209.425 731.134 209.986 728.754 209.986ZM794.177 209.986C790.18 209.986 786.856 209.335 784.206 208.032C781.557 206.685 779.468 204.754 777.941 202.239C776.414 199.724 775.314 196.693 774.641 193.145C774.012 189.597 773.697 185.6 773.697 181.153L787.979 179.806C787.979 181.962 788.046 184.05 788.181 186.071C788.361 188.047 788.653 189.844 789.057 191.46C789.506 193.032 790.135 194.29 790.943 195.233C791.796 196.176 792.874 196.648 794.177 196.648C796.332 196.648 797.859 195.66 798.758 193.684C799.656 191.663 800.105 189.237 800.105 186.408C800.105 183.579 799.364 180.637 797.882 177.583C796.4 174.529 794.626 171.632 792.56 168.893C789.057 164.222 785.98 159.888 783.331 155.891C780.726 151.894 778.682 147.965 777.2 144.102C775.763 140.24 775.045 136.198 775.045 131.976C775.045 128.653 775.471 125.599 776.325 122.815C777.178 119.985 778.413 117.538 780.03 115.472C781.691 113.361 783.69 111.722 786.025 110.554C788.361 109.386 791.033 108.802 794.042 108.802C797.769 108.802 800.913 109.431 803.473 110.689C806.078 111.946 808.166 113.743 809.738 116.078C811.355 118.413 812.523 121.198 813.241 124.431C814.005 127.62 814.386 131.168 814.386 135.075L800.105 136.422C800.105 134.761 800.015 133.099 799.835 131.437C799.701 129.731 799.431 128.181 799.027 126.789C798.623 125.397 798.039 124.274 797.275 123.421C796.512 122.568 795.524 122.141 794.311 122.141C792.425 122.141 791.123 122.949 790.404 124.566C789.686 126.138 789.326 128.383 789.326 131.303C789.326 135.075 790.337 138.713 792.358 142.216C794.379 145.719 797.096 149.806 800.509 154.477C804.596 160.001 807.919 165.075 810.479 169.701C813.084 174.327 814.386 179.447 814.386 185.061C814.386 188.609 814.005 191.91 813.241 194.963C812.478 197.972 811.265 200.6 809.603 202.845C807.987 205.091 805.898 206.842 803.338 208.1C800.823 209.357 797.769 209.986 794.177 209.986ZM838.219 209.986C834.177 209.986 830.697 209.043 827.777 207.157C824.903 205.27 822.68 202.711 821.108 199.477C819.581 196.243 818.818 192.606 818.818 188.564V130.225C818.818 126.138 819.581 122.5 821.108 119.312C822.68 116.078 824.903 113.518 827.777 111.632C830.697 109.746 834.177 108.802 838.219 108.802C842.261 108.802 845.719 109.746 848.594 111.632C851.513 113.518 853.736 116.078 855.263 119.312C856.835 122.545 857.621 126.183 857.621 130.225V188.564C857.621 192.606 856.835 196.243 855.263 199.477C853.736 202.711 851.513 205.27 848.594 207.157C845.719 209.043 842.261 209.986 838.219 209.986ZM838.219 195.839C840.016 195.839 841.273 195.098 841.992 193.616C842.71 192.089 843.07 190.405 843.07 188.564V130.225C843.07 128.383 842.688 126.722 841.924 125.24C841.161 123.713 839.926 122.949 838.219 122.949C836.558 122.949 835.322 123.713 834.514 125.24C833.751 126.722 833.369 128.383 833.369 130.225V188.564C833.369 190.405 833.751 192.089 834.514 193.616C835.278 195.098 836.513 195.839 838.219 195.839ZM883.812 209.986C879.77 209.986 876.29 209.043 873.371 207.157C870.496 205.27 868.273 202.711 866.701 199.477C865.174 196.243 864.411 192.606 864.411 188.564V130.225C864.411 126.138 865.174 122.5 866.701 119.312C868.273 116.078 870.496 113.518 873.371 111.632C876.29 109.746 879.77 108.802 883.812 108.802C887.854 108.802 891.312 109.746 894.187 111.632C897.106 113.518 899.329 116.078 900.856 119.312C902.428 122.545 903.214 126.183 903.214 130.225V188.564C903.214 192.606 902.428 196.243 900.856 199.477C899.329 202.711 897.106 205.27 894.187 207.157C891.312 209.043 887.854 209.986 883.812 209.986ZM883.812 195.839C885.609 195.839 886.866 195.098 887.585 193.616C888.303 192.089 888.663 190.405 888.663 188.564V130.225C888.663 128.383 888.281 126.722 887.517 125.24C886.754 123.713 885.519 122.949 883.812 122.949C882.151 122.949 880.916 123.713 880.107 125.24C879.344 126.722 878.962 128.383 878.962 130.225V188.564C878.962 190.405 879.344 192.089 880.107 193.616C880.871 195.098 882.106 195.839 883.812 195.839ZM910.678 208.908V109.88H924.285L937.759 161.483L938.971 166.063H939.78V109.88H953.118V208.908H940.858L926.037 157.306L924.824 152.725H924.016V208.908H910.678Z" fill="#F3FBFB"/>
<path d="M504.132 319.892C500 319.892 496.474 318.972 493.555 317.13C490.681 315.244 488.48 312.684 486.953 309.451C485.471 306.217 484.73 302.557 484.73 298.47V240.131C484.73 236.089 485.494 232.451 487.021 229.218C488.593 225.984 490.838 223.424 493.757 221.538C496.676 219.652 500.135 218.709 504.132 218.709C507.141 218.709 509.835 219.27 512.216 220.393C514.596 221.516 516.617 223.065 518.278 225.041C519.985 226.972 521.287 229.24 522.186 231.845C523.084 234.405 523.533 237.167 523.533 240.131V253.739H509.925V240.131C509.925 238.065 509.498 236.336 508.645 234.944C507.792 233.552 506.377 232.856 504.401 232.856C502.605 232.856 501.302 233.574 500.494 235.011C499.685 236.448 499.281 238.155 499.281 240.131V298.47C499.281 300.446 499.708 302.153 500.561 303.59C501.459 305.027 502.739 305.745 504.401 305.745C506.422 305.745 507.837 305.049 508.645 303.657C509.498 302.265 509.925 300.536 509.925 298.47V284.862H523.533V298.47C523.533 302.512 522.747 306.15 521.175 309.383C519.603 312.617 517.358 315.177 514.439 317.063C511.564 318.949 508.129 319.892 504.132 319.892ZM549.725 319.892C545.683 319.892 542.202 318.949 539.283 317.063C536.409 315.177 534.186 312.617 532.614 309.383C531.087 306.15 530.323 302.512 530.323 298.47V240.131C530.323 236.044 531.087 232.406 532.614 229.218C534.186 225.984 536.409 223.424 539.283 221.538C542.202 219.652 545.683 218.709 549.725 218.709C553.767 218.709 557.225 219.652 560.099 221.538C563.018 223.424 565.241 225.984 566.768 229.218C568.34 232.451 569.126 236.089 569.126 240.131V298.47C569.126 302.512 568.34 306.15 566.768 309.383C565.241 312.617 563.018 315.177 560.099 317.063C557.225 318.949 553.767 319.892 549.725 319.892ZM549.725 305.745C551.521 305.745 552.779 305.004 553.497 303.522C554.216 301.995 554.575 300.311 554.575 298.47V240.131C554.575 238.29 554.193 236.628 553.43 235.146C552.666 233.619 551.431 232.856 549.725 232.856C548.063 232.856 546.828 233.619 546.02 235.146C545.256 236.628 544.874 238.29 544.874 240.131V298.47C544.874 300.311 545.256 301.995 546.02 303.522C546.783 305.004 548.018 305.745 549.725 305.745ZM576.59 318.814V219.787H595.048L602.997 271.119L603.671 276.374H603.941L604.614 271.119L612.563 219.787H631.022V318.814H617.548V252.392H616.74L616.201 256.568L607.578 318.814H600.033L591.411 256.568L590.872 252.392H590.063V318.814H576.59ZM639.156 318.814V219.787H653.707V318.814H639.156ZM661.855 318.814V219.787H675.463L688.936 271.389L690.149 275.97H690.957V219.787H704.296V318.814H692.035L677.215 267.212L676.002 262.631H675.194V318.814H661.855ZM728.754 319.892C724.757 319.892 721.501 318.949 718.986 317.063C716.471 315.177 714.607 312.617 713.394 309.383C712.227 306.15 711.643 302.512 711.643 298.47V240.131C711.643 236.134 712.429 232.519 714.001 229.285C715.573 226.052 717.818 223.492 720.737 221.605C723.656 219.674 727.092 218.709 731.044 218.709C734.053 218.709 736.748 219.27 739.128 220.393C741.553 221.471 743.597 222.998 745.258 224.974C746.965 226.95 748.245 229.24 749.098 231.845C749.997 234.405 750.446 237.167 750.446 240.131V255.356H735.895V240.131C735.895 238.155 735.535 236.448 734.817 235.011C734.098 233.574 732.841 232.856 731.044 232.856C729.293 232.856 728.035 233.619 727.272 235.146C726.553 236.628 726.194 238.29 726.194 240.131V299.683C726.194 301.614 726.576 303.32 727.339 304.802C728.103 306.239 729.338 306.958 731.044 306.958C732.841 306.958 734.098 306.239 734.817 304.802C735.535 303.32 735.895 301.614 735.895 299.683V283.111H730.101V269.503H750.446V318.814H741.823L740.071 313.425C738.814 315.446 737.197 317.04 735.221 318.208C733.29 319.331 731.134 319.892 728.754 319.892ZM794.177 319.892C790.18 319.892 786.856 319.241 784.206 317.939C781.557 316.591 779.468 314.66 777.941 312.145C776.414 309.63 775.314 306.599 774.641 303.051C774.012 299.503 773.697 295.506 773.697 291.06L787.979 289.712C787.979 291.868 788.046 293.956 788.181 295.977C788.361 297.953 788.653 299.75 789.057 301.367C789.506 302.939 790.135 304.196 790.943 305.139C791.796 306.082 792.874 306.554 794.177 306.554C796.332 306.554 797.859 305.566 798.758 303.59C799.656 301.569 800.105 299.144 800.105 296.314C800.105 293.485 799.364 290.543 797.882 287.489C796.4 284.435 794.626 281.539 792.56 278.799C789.057 274.128 785.98 269.795 783.331 265.797C780.726 261.8 778.682 257.871 777.2 254.008C775.763 250.146 775.045 246.104 775.045 241.883C775.045 238.559 775.471 235.505 776.325 232.721C777.178 229.891 778.413 227.444 780.03 225.378C781.691 223.267 783.69 221.628 786.025 220.46C788.361 219.293 791.033 218.709 794.042 218.709C797.769 218.709 800.913 219.337 803.473 220.595C806.078 221.852 808.166 223.649 809.738 225.984C811.355 228.32 812.523 231.104 813.241 234.338C814.005 237.526 814.386 241.074 814.386 244.981L800.105 246.329C800.105 244.667 800.015 243.005 799.835 241.344C799.701 239.637 799.431 238.088 799.027 236.695C798.623 235.303 798.039 234.18 797.275 233.327C796.512 232.474 795.524 232.047 794.311 232.047C792.425 232.047 791.123 232.856 790.404 234.472C789.686 236.044 789.326 238.29 789.326 241.209C789.326 244.981 790.337 248.619 792.358 252.122C794.379 255.625 797.096 259.712 800.509 264.383C804.596 269.907 807.919 274.982 810.479 279.607C813.084 284.233 814.386 289.353 814.386 294.967C814.386 298.515 814.005 301.816 813.241 304.87C812.478 307.879 811.265 310.506 809.603 312.752C807.987 314.997 805.898 316.749 803.338 318.006C800.823 319.264 797.769 319.892 794.177 319.892ZM838.219 319.892C834.177 319.892 830.697 318.949 827.777 317.063C824.903 315.177 822.68 312.617 821.108 309.383C819.581 306.15 818.818 302.512 818.818 298.47V240.131C818.818 236.044 819.581 232.406 821.108 229.218C822.68 225.984 824.903 223.424 827.777 221.538C830.697 219.652 834.177 218.709 838.219 218.709C842.261 218.709 845.719 219.652 848.594 221.538C851.513 223.424 853.736 225.984 855.263 229.218C856.835 232.451 857.621 236.089 857.621 240.131V298.47C857.621 302.512 856.835 306.15 855.263 309.383C853.736 312.617 851.513 315.177 848.594 317.063C845.719 318.949 842.261 319.892 838.219 319.892ZM838.219 305.745C840.016 305.745 841.273 305.004 841.992 303.522C842.71 301.995 843.07 300.311 843.07 298.47V240.131C843.07 238.29 842.688 236.628 841.924 235.146C841.161 233.619 839.926 232.856 838.219 232.856C836.558 232.856 835.322 233.619 834.514 235.146C833.751 236.628 833.369 238.29 833.369 240.131V298.47C833.369 300.311 833.751 301.995 834.514 303.522C835.278 305.004 836.513 305.745 838.219 305.745ZM883.812 319.892C879.77 319.892 876.29 318.949 873.371 317.063C870.496 315.177 868.273 312.617 866.701 309.383C865.174 306.15 864.411 302.512 864.411 298.47V240.131C864.411 236.044 865.174 232.406 866.701 229.218C868.273 225.984 870.496 223.424 873.371 221.538C876.29 219.652 879.77 218.709 883.812 218.709C887.854 218.709 891.312 219.652 894.187 221.538C897.106 223.424 899.329 225.984 900.856 229.218C902.428 232.451 903.214 236.089 903.214 240.131V298.47C903.214 302.512 902.428 306.15 900.856 309.383C899.329 312.617 897.106 315.177 894.187 317.063C891.312 318.949 887.854 319.892 883.812 319.892ZM883.812 305.745C885.609 305.745 886.866 305.004 887.585 303.522C888.303 301.995 888.663 300.311 888.663 298.47V240.131C888.663 238.29 888.281 236.628 887.517 235.146C886.754 233.619 885.519 232.856 883.812 232.856C882.151 232.856 880.916 233.619 880.107 235.146C879.344 236.628 878.962 238.29 878.962 240.131V298.47C878.962 300.311 879.344 301.995 880.107 303.522C880.871 305.004 882.106 305.745 883.812 305.745ZM910.678 318.814V219.787H924.285L937.759 271.389L938.971 275.97H939.78V219.787H953.118V318.814H940.858L926.037 267.212L924.824 262.631H924.016V318.814H910.678Z" fill="#F3FBFB"/>
<path d="M504.132 429.801C500 429.801 496.474 428.88 493.555 427.039C490.681 425.152 488.48 422.592 486.953 419.359C485.471 416.125 484.73 412.465 484.73 408.378V350.039C484.73 345.997 485.494 342.36 487.021 339.126C488.593 335.892 490.838 333.333 493.757 331.446C496.676 329.56 500.135 328.617 504.132 328.617C507.141 328.617 509.835 329.178 512.216 330.301C514.596 331.424 516.617 332.973 518.278 334.949C519.985 336.88 521.287 339.148 522.186 341.753C523.084 344.313 523.533 347.075 523.533 350.039V363.647H509.925V350.039C509.925 347.973 509.498 346.244 508.645 344.852C507.792 343.46 506.377 342.764 504.401 342.764C502.605 342.764 501.302 343.482 500.494 344.919C499.685 346.357 499.281 348.063 499.281 350.039V408.378C499.281 410.354 499.708 412.061 500.561 413.498C501.459 414.935 502.739 415.654 504.401 415.654C506.422 415.654 507.837 414.958 508.645 413.565C509.498 412.173 509.925 410.444 509.925 408.378V394.77H523.533V408.378C523.533 412.42 522.747 416.058 521.175 419.291C519.603 422.525 517.358 425.085 514.439 426.971C511.564 428.857 508.129 429.801 504.132 429.801ZM549.725 429.801C545.683 429.801 542.202 428.857 539.283 426.971C536.409 425.085 534.186 422.525 532.614 419.291C531.087 416.058 530.323 412.42 530.323 408.378V350.039C530.323 345.952 531.087 342.315 532.614 339.126C534.186 335.892 536.409 333.333 539.283 331.446C542.202 329.56 545.683 328.617 549.725 328.617C553.767 328.617 557.225 329.56 560.099 331.446C563.018 333.333 565.241 335.892 566.768 339.126C568.34 342.36 569.126 345.997 569.126 350.039V408.378C569.126 412.42 568.34 416.058 566.768 419.291C565.241 422.525 563.018 425.085 560.099 426.971C557.225 428.857 553.767 429.801 549.725 429.801ZM549.725 415.654C551.521 415.654 552.779 414.913 553.497 413.431C554.216 411.904 554.575 410.219 554.575 408.378V350.039C554.575 348.198 554.193 346.536 553.43 345.054C552.666 343.527 551.431 342.764 549.725 342.764C548.063 342.764 546.828 343.527 546.02 345.054C545.256 346.536 544.874 348.198 544.874 350.039V408.378C544.874 410.219 545.256 411.904 546.02 413.431C546.783 414.913 548.018 415.654 549.725 415.654ZM576.59 428.723V329.695H595.048L602.997 381.028L603.671 386.282H603.941L604.614 381.028L612.563 329.695H631.022V428.723H617.548V362.3H616.74L616.201 366.477L607.578 428.723H600.033L591.411 366.477L590.872 362.3H590.063V428.723H576.59ZM639.156 428.723V329.695H653.707V428.723H639.156ZM661.855 428.723V329.695H675.463L688.936 381.297L690.149 385.878H690.957V329.695H704.296V428.723H692.035L677.215 377.12L676.002 372.539H675.194V428.723H661.855ZM728.754 429.801C724.757 429.801 721.501 428.857 718.986 426.971C716.471 425.085 714.607 422.525 713.394 419.291C712.227 416.058 711.643 412.42 711.643 408.378V350.039C711.643 346.042 712.429 342.427 714.001 339.193C715.573 335.96 717.818 333.4 720.737 331.514C723.656 329.582 727.092 328.617 731.044 328.617C734.053 328.617 736.748 329.178 739.128 330.301C741.553 331.379 743.597 332.906 745.258 334.882C746.965 336.858 748.245 339.148 749.098 341.753C749.997 344.313 750.446 347.075 750.446 350.039V365.264H735.895V350.039C735.895 348.063 735.535 346.357 734.817 344.919C734.098 343.482 732.841 342.764 731.044 342.764C729.293 342.764 728.035 343.527 727.272 345.054C726.553 346.536 726.194 348.198 726.194 350.039V409.591C726.194 411.522 726.576 413.228 727.339 414.711C728.103 416.148 729.338 416.866 731.044 416.866C732.841 416.866 734.098 416.148 734.817 414.711C735.535 413.228 735.895 411.522 735.895 409.591V393.019H730.101V379.411H750.446V428.723H741.823L740.071 423.333C738.814 425.354 737.197 426.949 735.221 428.116C733.29 429.239 731.134 429.801 728.754 429.801ZM794.177 429.801C790.18 429.801 786.856 429.149 784.206 427.847C781.557 426.5 779.468 424.568 777.941 422.053C776.414 419.538 775.314 416.507 774.641 412.959C774.012 409.411 773.697 405.414 773.697 400.968L787.979 399.621C787.979 401.776 788.046 403.865 788.181 405.886C788.361 407.862 788.653 409.658 789.057 411.275C789.506 412.847 790.135 414.104 790.943 415.047C791.796 415.99 792.874 416.462 794.177 416.462C796.332 416.462 797.859 415.474 798.758 413.498C799.656 411.477 800.105 409.052 800.105 406.222C800.105 403.393 799.364 400.451 797.882 397.398C796.4 394.344 794.626 391.447 792.56 388.707C789.057 384.037 785.98 379.703 783.331 375.706C780.726 371.709 778.682 367.779 777.2 363.917C775.763 360.054 775.045 356.012 775.045 351.791C775.045 348.467 775.471 345.413 776.325 342.629C777.178 339.8 778.413 337.352 780.03 335.286C781.691 333.175 783.69 331.536 786.025 330.368C788.361 329.201 791.033 328.617 794.042 328.617C797.769 328.617 800.913 329.246 803.473 330.503C806.078 331.761 808.166 333.557 809.738 335.892C811.355 338.228 812.523 341.012 813.241 344.246C814.005 347.434 814.386 350.982 814.386 354.89L800.105 356.237C800.105 354.575 800.015 352.914 799.835 351.252C799.701 349.545 799.431 347.996 799.027 346.604C798.623 345.211 798.039 344.089 797.275 343.235C796.512 342.382 795.524 341.955 794.311 341.955C792.425 341.955 791.123 342.764 790.404 344.381C789.686 345.952 789.326 348.198 789.326 351.117C789.326 354.89 790.337 358.527 792.358 362.03C794.379 365.533 797.096 369.62 800.509 374.291C804.596 379.815 807.919 384.89 810.479 389.516C813.084 394.141 814.386 399.261 814.386 404.875C814.386 408.423 814.005 411.724 813.241 414.778C812.478 417.787 811.265 420.414 809.603 422.66C807.987 424.905 805.898 426.657 803.338 427.914C800.823 429.172 797.769 429.801 794.177 429.801ZM838.219 429.801C834.177 429.801 830.697 428.857 827.777 426.971C824.903 425.085 822.68 422.525 821.108 419.291C819.581 416.058 818.818 412.42 818.818 408.378V350.039C818.818 345.952 819.581 342.315 821.108 339.126C822.68 335.892 824.903 333.333 827.777 331.446C830.697 329.56 834.177 328.617 838.219 328.617C842.261 328.617 845.719 329.56 848.594 331.446C851.513 333.333 853.736 335.892 855.263 339.126C856.835 342.36 857.621 345.997 857.621 350.039V408.378C857.621 412.42 856.835 416.058 855.263 419.291C853.736 422.525 851.513 425.085 848.594 426.971C845.719 428.857 842.261 429.801 838.219 429.801ZM838.219 415.654C840.016 415.654 841.273 414.913 841.992 413.431C842.71 411.904 843.07 410.219 843.07 408.378V350.039C843.07 348.198 842.688 346.536 841.924 345.054C841.161 343.527 839.926 342.764 838.219 342.764C836.558 342.764 835.322 343.527 834.514 345.054C833.751 346.536 833.369 348.198 833.369 350.039V408.378C833.369 410.219 833.751 411.904 834.514 413.431C835.278 414.913 836.513 415.654 838.219 415.654ZM883.812 429.801C879.77 429.801 876.29 428.857 873.371 426.971C870.496 425.085 868.273 422.525 866.701 419.291C865.174 416.058 864.411 412.42 864.411 408.378V350.039C864.411 345.952 865.174 342.315 866.701 339.126C868.273 335.892 870.496 333.333 873.371 331.446C876.29 329.56 879.77 328.617 883.812 328.617C887.854 328.617 891.312 329.56 894.187 331.446C897.106 333.333 899.329 335.892 900.856 339.126C902.428 342.36 903.214 345.997 903.214 350.039V408.378C903.214 412.42 902.428 416.058 900.856 419.291C899.329 422.525 897.106 425.085 894.187 426.971C891.312 428.857 887.854 429.801 883.812 429.801ZM883.812 415.654C885.609 415.654 886.866 414.913 887.585 413.431C888.303 411.904 888.663 410.219 888.663 408.378V350.039C888.663 348.198 888.281 346.536 887.517 345.054C886.754 343.527 885.519 342.764 883.812 342.764C882.151 342.764 880.916 343.527 880.107 345.054C879.344 346.536 878.962 348.198 878.962 350.039V408.378C878.962 410.219 879.344 411.904 880.107 413.431C880.871 414.913 882.106 415.654 883.812 415.654ZM910.678 428.723V329.695H924.285L937.759 381.297L938.971 385.878H939.78V329.695H953.118V428.723H940.858L926.037 377.12L924.824 372.539H924.016V428.723H910.678Z" fill="#F3FBFB"/>
<path d="M1011.15 100.078C1007.02 100.078 1003.49 99.1572 1000.57 97.3159C997.697 95.4296 995.496 92.8697 993.969 89.6361C992.487 86.4026 991.746 82.7424 991.746 78.6555V20.3166C991.746 16.2747 992.509 12.6369 994.036 9.40333C995.608 6.16977 997.854 3.60986 1000.77 1.72361C1003.69 -0.16263 1007.15 -1.10575 1011.15 -1.10575C1014.16 -1.10575 1016.85 -0.544369 1019.23 0.578395C1021.61 1.70116 1023.63 3.25058 1025.29 5.22664C1027 7.1578 1028.3 9.42579 1029.2 12.0306C1030.1 14.5905 1030.55 17.3525 1030.55 20.3166V33.9245H1016.94V20.3166C1016.94 18.2507 1016.51 16.5217 1015.66 15.1294C1014.81 13.7372 1013.39 13.0411 1011.42 13.0411C1009.62 13.0411 1008.32 13.7597 1007.51 15.1968C1006.7 16.6339 1006.3 18.3405 1006.3 20.3166V78.6555C1006.3 80.6316 1006.72 82.3382 1007.58 83.7753C1008.48 85.2124 1009.76 85.931 1011.42 85.931C1013.44 85.931 1014.85 85.2349 1015.66 83.8427C1016.51 82.4504 1016.94 80.7214 1016.94 78.6555V65.0476H1030.55V78.6555C1030.55 82.6974 1029.76 86.3352 1028.19 89.5688C1026.62 92.8023 1024.37 95.3622 1021.45 97.2485C1018.58 99.1347 1015.14 100.078 1011.15 100.078ZM1056.74 100.078C1052.7 100.078 1049.22 99.1347 1046.3 97.2485C1043.42 95.3622 1041.2 92.8023 1039.63 89.5688C1038.1 86.3352 1037.34 82.6974 1037.34 78.6555V20.3166C1037.34 16.2297 1038.1 12.592 1039.63 9.40333C1041.2 6.16977 1043.42 3.60986 1046.3 1.72361C1049.22 -0.16263 1052.7 -1.10575 1056.74 -1.10575C1060.78 -1.10575 1064.24 -0.16263 1067.11 1.72361C1070.03 3.60986 1072.26 6.16977 1073.78 9.40333C1075.36 12.6369 1076.14 16.2747 1076.14 20.3166V78.6555C1076.14 82.6974 1075.36 86.3352 1073.78 89.5688C1072.26 92.8023 1070.03 95.3622 1067.11 97.2485C1064.24 99.1347 1060.78 100.078 1056.74 100.078ZM1056.74 85.931C1058.54 85.931 1059.79 85.19 1060.51 83.7079C1061.23 82.181 1061.59 80.4968 1061.59 78.6555V20.3166C1061.59 18.4753 1061.21 16.8136 1060.45 15.3315C1059.68 13.8046 1058.45 13.0411 1056.74 13.0411C1055.08 13.0411 1053.84 13.8046 1053.04 15.3315C1052.27 16.8136 1051.89 18.4753 1051.89 20.3166V78.6555C1051.89 80.4968 1052.27 82.181 1053.04 83.7079C1053.8 85.19 1055.03 85.931 1056.74 85.931ZM1083.61 99V-0.0278946H1102.06L1110.01 51.3049L1110.69 56.5595H1110.96L1111.63 51.3049L1119.58 -0.0278946H1138.04V99H1124.56V32.5772H1123.76L1123.22 36.7539L1114.59 99H1107.05L1098.43 36.7539L1097.89 32.5772H1097.08V99H1083.61ZM1146.17 99V-0.0278946H1160.72V99H1146.17ZM1168.87 99V-0.0278946H1182.48L1195.95 51.5744L1197.16 56.1553H1197.97V-0.0278946H1211.31V99H1199.05L1184.23 47.3977L1183.02 42.8168H1182.21V99H1168.87ZM1235.77 100.078C1231.77 100.078 1228.52 99.1347 1226 97.2485C1223.49 95.3622 1221.62 92.8023 1220.41 89.5688C1219.24 86.3352 1218.66 82.6974 1218.66 78.6555V20.3166C1218.66 16.3196 1219.44 12.7043 1221.02 9.47069C1222.59 6.23713 1224.83 3.67723 1227.75 1.79098C1230.67 -0.140174 1234.11 -1.10575 1238.06 -1.10575C1241.07 -1.10575 1243.76 -0.544369 1246.14 0.578395C1248.57 1.65625 1250.61 3.18321 1252.27 5.15928C1253.98 7.13534 1255.26 9.42579 1256.11 12.0306C1257.01 14.5905 1257.46 17.3525 1257.46 20.3166V35.5413H1242.91V20.3166C1242.91 18.3405 1242.55 16.6339 1241.83 15.1968C1241.11 13.7597 1239.86 13.0411 1238.06 13.0411C1236.31 13.0411 1235.05 13.8046 1234.29 15.3315C1233.57 16.8136 1233.21 18.4753 1233.21 20.3166V79.8681C1233.21 81.7992 1233.59 83.5058 1234.35 84.9879C1235.12 86.425 1236.35 87.1436 1238.06 87.1436C1239.86 87.1436 1241.11 86.425 1241.83 84.9879C1242.55 83.5058 1242.91 81.7992 1242.91 79.8681V63.2961H1237.12V49.6881H1257.46V99H1248.84L1247.09 93.6107C1245.83 95.6317 1244.21 97.226 1242.24 98.3937C1240.31 99.5165 1238.15 100.078 1235.77 100.078ZM1301.19 100.078C1297.2 100.078 1293.87 99.4267 1291.22 98.1242C1288.57 96.7769 1286.48 94.8458 1284.96 92.3308C1283.43 89.8158 1282.33 86.7843 1281.66 83.2364C1281.03 79.6884 1280.71 75.6914 1280.71 71.2452L1294.99 69.8979C1294.99 72.0536 1295.06 74.142 1295.2 76.163C1295.38 78.139 1295.67 79.9354 1296.07 81.5522C1296.52 83.1241 1297.15 84.3816 1297.96 85.3247C1298.81 86.2678 1299.89 86.7394 1301.19 86.7394C1303.35 86.7394 1304.87 85.7514 1305.77 83.7753C1306.67 81.7543 1307.12 79.3292 1307.12 76.4998C1307.12 73.6704 1306.38 70.7288 1304.9 67.6748C1303.42 64.6209 1301.64 61.7242 1299.58 58.9846C1296.07 54.3139 1293 49.9801 1290.35 45.983C1287.74 41.986 1285.7 38.0563 1284.22 34.194C1282.78 30.3317 1282.06 26.2897 1282.06 22.0681C1282.06 18.7447 1282.49 15.6908 1283.34 12.9064C1284.19 10.077 1285.43 7.62936 1287.05 5.56347C1288.71 3.45268 1290.71 1.81344 1293.04 0.645764C1295.38 -0.521913 1298.05 -1.10575 1301.06 -1.10575C1304.79 -1.10575 1307.93 -0.477003 1310.49 0.780494C1313.09 2.03799 1315.18 3.83442 1316.75 6.16977C1318.37 8.50512 1319.54 11.2896 1320.26 14.5231C1321.02 17.7118 1321.4 21.2597 1321.4 25.167L1307.12 26.5143C1307.12 24.8526 1307.03 23.1909 1306.85 21.5292C1306.72 19.8226 1306.45 18.2732 1306.04 16.8809C1305.64 15.4887 1305.05 14.366 1304.29 13.5127C1303.53 12.6593 1302.54 12.2327 1301.33 12.2327C1299.44 12.2327 1298.14 13.0411 1297.42 14.6579C1296.7 16.2297 1296.34 18.4753 1296.34 21.3945C1296.34 25.167 1297.35 28.8047 1299.37 32.3077C1301.39 35.8108 1304.11 39.8976 1307.52 44.5683C1311.61 50.0923 1314.93 55.1672 1317.49 59.793C1320.1 64.4188 1321.4 69.5386 1321.4 75.1525C1321.4 78.7004 1321.02 82.0013 1320.26 85.0553C1319.49 88.0643 1318.28 90.6915 1316.62 92.9371C1315 95.1826 1312.91 96.9341 1310.35 98.1916C1307.84 99.4491 1304.79 100.078 1301.19 100.078ZM1345.23 100.078C1341.19 100.078 1337.71 99.1347 1334.79 97.2485C1331.92 95.3622 1329.7 92.8023 1328.12 89.5688C1326.6 86.3352 1325.83 82.6974 1325.83 78.6555V20.3166C1325.83 16.2297 1326.6 12.592 1328.12 9.40333C1329.7 6.16977 1331.92 3.60986 1334.79 1.72361C1337.71 -0.16263 1341.19 -1.10575 1345.23 -1.10575C1349.28 -1.10575 1352.73 -0.16263 1355.61 1.72361C1358.53 3.60986 1360.75 6.16977 1362.28 9.40333C1363.85 12.6369 1364.64 16.2747 1364.64 20.3166V78.6555C1364.64 82.6974 1363.85 86.3352 1362.28 89.5688C1360.75 92.8023 1358.53 95.3622 1355.61 97.2485C1352.73 99.1347 1349.28 100.078 1345.23 100.078ZM1345.23 85.931C1347.03 85.931 1348.29 85.19 1349.01 83.7079C1349.73 82.181 1350.09 80.4968 1350.09 78.6555V20.3166C1350.09 18.4753 1349.7 16.8136 1348.94 15.3315C1348.18 13.8046 1346.94 13.0411 1345.23 13.0411C1343.57 13.0411 1342.34 13.8046 1341.53 15.3315C1340.77 16.8136 1340.38 18.4753 1340.38 20.3166V78.6555C1340.38 80.4968 1340.77 82.181 1341.53 83.7079C1342.29 85.19 1343.53 85.931 1345.23 85.931ZM1390.83 100.078C1386.79 100.078 1383.31 99.1347 1380.39 97.2485C1377.51 95.3622 1375.29 92.8023 1373.72 89.5688C1372.19 86.3352 1371.43 82.6974 1371.43 78.6555V20.3166C1371.43 16.2297 1372.19 12.592 1373.72 9.40333C1375.29 6.16977 1377.51 3.60986 1380.39 1.72361C1383.31 -0.16263 1386.79 -1.10575 1390.83 -1.10575C1394.87 -1.10575 1398.33 -0.16263 1401.2 1.72361C1404.12 3.60986 1406.34 6.16977 1407.87 9.40333C1409.44 12.6369 1410.23 16.2747 1410.23 20.3166V78.6555C1410.23 82.6974 1409.44 86.3352 1407.87 89.5688C1406.34 92.8023 1404.12 95.3622 1401.2 97.2485C1398.33 99.1347 1394.87 100.078 1390.83 100.078ZM1390.83 85.931C1392.62 85.931 1393.88 85.19 1394.6 83.7079C1395.32 82.181 1395.68 80.4968 1395.68 78.6555V20.3166C1395.68 18.4753 1395.3 16.8136 1394.53 15.3315C1393.77 13.8046 1392.53 13.0411 1390.83 13.0411C1389.17 13.0411 1387.93 13.8046 1387.12 15.3315C1386.36 16.8136 1385.98 18.4753 1385.98 20.3166V78.6555C1385.98 80.4968 1386.36 82.181 1387.12 83.7079C1387.89 85.19 1389.12 85.931 1390.83 85.931ZM1417.69 99V-0.0278946H1431.3L1444.77 51.5744L1445.99 56.1553H1446.8V-0.0278946H1460.13V99H1447.87L1433.05 47.3977L1431.84 42.8168H1431.03V99H1417.69Z" fill="#F3FBFB"/>
<path d="M1011.15 209.986C1007.02 209.986 1003.49 209.065 1000.57 207.224C997.697 205.338 995.496 202.778 993.969 199.544C992.487 196.311 991.746 192.651 991.746 188.564V130.225C991.746 126.183 992.509 122.545 994.036 119.312C995.608 116.078 997.854 113.518 1000.77 111.632C1003.69 109.746 1007.15 108.802 1011.15 108.802C1014.16 108.802 1016.85 109.364 1019.23 110.487C1021.61 111.609 1023.63 113.159 1025.29 115.135C1027 117.066 1028.3 119.334 1029.2 121.939C1030.1 124.499 1030.55 127.261 1030.55 130.225V143.833H1016.94V130.225C1016.94 128.159 1016.51 126.43 1015.66 125.038C1014.81 123.645 1013.39 122.949 1011.42 122.949C1009.62 122.949 1008.32 123.668 1007.51 125.105C1006.7 126.542 1006.3 128.249 1006.3 130.225V188.564C1006.3 190.54 1006.72 192.246 1007.58 193.684C1008.48 195.121 1009.76 195.839 1011.42 195.839C1013.44 195.839 1014.85 195.143 1015.66 193.751C1016.51 192.359 1016.94 190.63 1016.94 188.564V174.956H1030.55V188.564C1030.55 192.606 1029.76 196.243 1028.19 199.477C1026.62 202.711 1024.37 205.27 1021.45 207.157C1018.58 209.043 1015.14 209.986 1011.15 209.986ZM1056.74 209.986C1052.7 209.986 1049.22 209.043 1046.3 207.157C1043.42 205.27 1041.2 202.711 1039.63 199.477C1038.1 196.243 1037.34 192.606 1037.34 188.564V130.225C1037.34 126.138 1038.1 122.5 1039.63 119.312C1041.2 116.078 1043.42 113.518 1046.3 111.632C1049.22 109.746 1052.7 108.802 1056.74 108.802C1060.78 108.802 1064.24 109.746 1067.11 111.632C1070.03 113.518 1072.26 116.078 1073.78 119.312C1075.36 122.545 1076.14 126.183 1076.14 130.225V188.564C1076.14 192.606 1075.36 196.243 1073.78 199.477C1072.26 202.711 1070.03 205.27 1067.11 207.157C1064.24 209.043 1060.78 209.986 1056.74 209.986ZM1056.74 195.839C1058.54 195.839 1059.79 195.098 1060.51 193.616C1061.23 192.089 1061.59 190.405 1061.59 188.564V130.225C1061.59 128.383 1061.21 126.722 1060.45 125.24C1059.68 123.713 1058.45 122.949 1056.74 122.949C1055.08 122.949 1053.84 123.713 1053.04 125.24C1052.27 126.722 1051.89 128.383 1051.89 130.225V188.564C1051.89 190.405 1052.27 192.089 1053.04 193.616C1053.8 195.098 1055.03 195.839 1056.74 195.839ZM1083.61 208.908V109.88H1102.06L1110.01 161.213L1110.69 166.468H1110.96L1111.63 161.213L1119.58 109.88H1138.04V208.908H1124.56V142.485H1123.76L1123.22 146.662L1114.59 208.908H1107.05L1098.43 146.662L1097.89 142.485H1097.08V208.908H1083.61ZM1146.17 208.908V109.88H1160.72V208.908H1146.17ZM1168.87 208.908V109.88H1182.48L1195.95 161.483L1197.16 166.063H1197.97V109.88H1211.31V208.908H1199.05L1184.23 157.306L1183.02 152.725H1182.21V208.908H1168.87ZM1235.77 209.986C1231.77 209.986 1228.52 209.043 1226 207.157C1223.49 205.27 1221.62 202.711 1220.41 199.477C1219.24 196.243 1218.66 192.606 1218.66 188.564V130.225C1218.66 126.228 1219.44 122.612 1221.02 119.379C1222.59 116.145 1224.83 113.585 1227.75 111.699C1230.67 109.768 1234.11 108.802 1238.06 108.802C1241.07 108.802 1243.76 109.364 1246.14 110.487C1248.57 111.564 1250.61 113.091 1252.27 115.067C1253.98 117.044 1255.26 119.334 1256.11 121.939C1257.01 124.499 1257.46 127.261 1257.46 130.225V145.45H1242.91V130.225C1242.91 128.249 1242.55 126.542 1241.83 125.105C1241.11 123.668 1239.86 122.949 1238.06 122.949C1236.31 122.949 1235.05 123.713 1234.29 125.24C1233.57 126.722 1233.21 128.383 1233.21 130.225V189.776C1233.21 191.707 1233.59 193.414 1234.35 194.896C1235.12 196.333 1236.35 197.052 1238.06 197.052C1239.86 197.052 1241.11 196.333 1241.83 194.896C1242.55 193.414 1242.91 191.707 1242.91 189.776V173.204H1237.12V159.596H1257.46V208.908H1248.84L1247.09 203.519C1245.83 205.54 1244.21 207.134 1242.24 208.302C1240.31 209.425 1238.15 209.986 1235.77 209.986ZM1301.19 209.986C1297.2 209.986 1293.87 209.335 1291.22 208.032C1288.57 206.685 1286.48 204.754 1284.96 202.239C1283.43 199.724 1282.33 196.693 1281.66 193.145C1281.03 189.597 1280.71 185.6 1280.71 181.153L1294.99 179.806C1294.99 181.962 1295.06 184.05 1295.2 186.071C1295.38 188.047 1295.67 189.844 1296.07 191.46C1296.52 193.032 1297.15 194.29 1297.96 195.233C1298.81 196.176 1299.89 196.648 1301.19 196.648C1303.35 196.648 1304.87 195.66 1305.77 193.684C1306.67 191.663 1307.12 189.237 1307.12 186.408C1307.12 183.579 1306.38 180.637 1304.9 177.583C1303.42 174.529 1301.64 171.632 1299.58 168.893C1296.07 164.222 1293 159.888 1290.35 155.891C1287.74 151.894 1285.7 147.965 1284.22 144.102C1282.78 140.24 1282.06 136.198 1282.06 131.976C1282.06 128.653 1282.49 125.599 1283.34 122.815C1284.19 119.985 1285.43 117.538 1287.05 115.472C1288.71 113.361 1290.71 111.722 1293.04 110.554C1295.38 109.386 1298.05 108.802 1301.06 108.802C1304.79 108.802 1307.93 109.431 1310.49 110.689C1313.09 111.946 1315.18 113.743 1316.75 116.078C1318.37 118.413 1319.54 121.198 1320.26 124.431C1321.02 127.62 1321.4 131.168 1321.4 135.075L1307.12 136.422C1307.12 134.761 1307.03 133.099 1306.85 131.437C1306.72 129.731 1306.45 128.181 1306.04 126.789C1305.64 125.397 1305.05 124.274 1304.29 123.421C1303.53 122.568 1302.54 122.141 1301.33 122.141C1299.44 122.141 1298.14 122.949 1297.42 124.566C1296.7 126.138 1296.34 128.383 1296.34 131.303C1296.34 135.075 1297.35 138.713 1299.37 142.216C1301.39 145.719 1304.11 149.806 1307.52 154.477C1311.61 160.001 1314.93 165.075 1317.49 169.701C1320.1 174.327 1321.4 179.447 1321.4 185.061C1321.4 188.609 1321.02 191.91 1320.26 194.963C1319.49 197.972 1318.28 200.6 1316.62 202.845C1315 205.091 1312.91 206.842 1310.35 208.1C1307.84 209.357 1304.79 209.986 1301.19 209.986ZM1345.23 209.986C1341.19 209.986 1337.71 209.043 1334.79 207.157C1331.92 205.27 1329.7 202.711 1328.12 199.477C1326.6 196.243 1325.83 192.606 1325.83 188.564V130.225C1325.83 126.138 1326.6 122.5 1328.12 119.312C1329.7 116.078 1331.92 113.518 1334.79 111.632C1337.71 109.746 1341.19 108.802 1345.23 108.802C1349.28 108.802 1352.73 109.746 1355.61 111.632C1358.53 113.518 1360.75 116.078 1362.28 119.312C1363.85 122.545 1364.64 126.183 1364.64 130.225V188.564C1364.64 192.606 1363.85 196.243 1362.28 199.477C1360.75 202.711 1358.53 205.27 1355.61 207.157C1352.73 209.043 1349.28 209.986 1345.23 209.986ZM1345.23 195.839C1347.03 195.839 1348.29 195.098 1349.01 193.616C1349.73 192.089 1350.09 190.405 1350.09 188.564V130.225C1350.09 128.383 1349.7 126.722 1348.94 125.24C1348.18 123.713 1346.94 122.949 1345.23 122.949C1343.57 122.949 1342.34 123.713 1341.53 125.24C1340.77 126.722 1340.38 128.383 1340.38 130.225V188.564C1340.38 190.405 1340.77 192.089 1341.53 193.616C1342.29 195.098 1343.53 195.839 1345.23 195.839ZM1390.83 209.986C1386.79 209.986 1383.31 209.043 1380.39 207.157C1377.51 205.27 1375.29 202.711 1373.72 199.477C1372.19 196.243 1371.43 192.606 1371.43 188.564V130.225C1371.43 126.138 1372.19 122.5 1373.72 119.312C1375.29 116.078 1377.51 113.518 1380.39 111.632C1383.31 109.746 1386.79 108.802 1390.83 108.802C1394.87 108.802 1398.33 109.746 1401.2 111.632C1404.12 113.518 1406.34 116.078 1407.87 119.312C1409.44 122.545 1410.23 126.183 1410.23 130.225V188.564C1410.23 192.606 1409.44 196.243 1407.87 199.477C1406.34 202.711 1404.12 205.27 1401.2 207.157C1398.33 209.043 1394.87 209.986 1390.83 209.986ZM1390.83 195.839C1392.62 195.839 1393.88 195.098 1394.6 193.616C1395.32 192.089 1395.68 190.405 1395.68 188.564V130.225C1395.68 128.383 1395.3 126.722 1394.53 125.24C1393.77 123.713 1392.53 122.949 1390.83 122.949C1389.17 122.949 1387.93 123.713 1387.12 125.24C1386.36 126.722 1385.98 128.383 1385.98 130.225V188.564C1385.98 190.405 1386.36 192.089 1387.12 193.616C1387.89 195.098 1389.12 195.839 1390.83 195.839ZM1417.69 208.908V109.88H1431.3L1444.77 161.483L1445.99 166.063H1446.8V109.88H1460.13V208.908H1447.87L1433.05 157.306L1431.84 152.725H1431.03V208.908H1417.69Z" fill="#F3FBFB"/>
<path d="M1011.15 319.892C1007.02 319.892 1003.49 318.972 1000.57 317.13C997.697 315.244 995.496 312.684 993.969 309.451C992.487 306.217 991.746 302.557 991.746 298.47V240.131C991.746 236.089 992.509 232.451 994.036 229.218C995.608 225.984 997.854 223.424 1000.77 221.538C1003.69 219.652 1007.15 218.709 1011.15 218.709C1014.16 218.709 1016.85 219.27 1019.23 220.393C1021.61 221.516 1023.63 223.065 1025.29 225.041C1027 226.972 1028.3 229.24 1029.2 231.845C1030.1 234.405 1030.55 237.167 1030.55 240.131V253.739H1016.94V240.131C1016.94 238.065 1016.51 236.336 1015.66 234.944C1014.81 233.552 1013.39 232.856 1011.42 232.856C1009.62 232.856 1008.32 233.574 1007.51 235.011C1006.7 236.448 1006.3 238.155 1006.3 240.131V298.47C1006.3 300.446 1006.72 302.153 1007.58 303.59C1008.48 305.027 1009.76 305.745 1011.42 305.745C1013.44 305.745 1014.85 305.049 1015.66 303.657C1016.51 302.265 1016.94 300.536 1016.94 298.47V284.862H1030.55V298.47C1030.55 302.512 1029.76 306.15 1028.19 309.383C1026.62 312.617 1024.37 315.177 1021.45 317.063C1018.58 318.949 1015.14 319.892 1011.15 319.892ZM1056.74 319.892C1052.7 319.892 1049.22 318.949 1046.3 317.063C1043.42 315.177 1041.2 312.617 1039.63 309.383C1038.1 306.15 1037.34 302.512 1037.34 298.47V240.131C1037.34 236.044 1038.1 232.406 1039.63 229.218C1041.2 225.984 1043.42 223.424 1046.3 221.538C1049.22 219.652 1052.7 218.709 1056.74 218.709C1060.78 218.709 1064.24 219.652 1067.11 221.538C1070.03 223.424 1072.26 225.984 1073.78 229.218C1075.36 232.451 1076.14 236.089 1076.14 240.131V298.47C1076.14 302.512 1075.36 306.15 1073.78 309.383C1072.26 312.617 1070.03 315.177 1067.11 317.063C1064.24 318.949 1060.78 319.892 1056.74 319.892ZM1056.74 305.745C1058.54 305.745 1059.79 305.004 1060.51 303.522C1061.23 301.995 1061.59 300.311 1061.59 298.47V240.131C1061.59 238.29 1061.21 236.628 1060.45 235.146C1059.68 233.619 1058.45 232.856 1056.74 232.856C1055.08 232.856 1053.84 233.619 1053.04 235.146C1052.27 236.628 1051.89 238.29 1051.89 240.131V298.47C1051.89 300.311 1052.27 301.995 1053.04 303.522C1053.8 305.004 1055.03 305.745 1056.74 305.745ZM1083.61 318.814V219.787H1102.06L1110.01 271.119L1110.69 276.374H1110.96L1111.63 271.119L1119.58 219.787H1138.04V318.814H1124.56V252.392H1123.76L1123.22 256.568L1114.59 318.814H1107.05L1098.43 256.568L1097.89 252.392H1097.08V318.814H1083.61ZM1146.17 318.814V219.787H1160.72V318.814H1146.17ZM1168.87 318.814V219.787H1182.48L1195.95 271.389L1197.16 275.97H1197.97V219.787H1211.31V318.814H1199.05L1184.23 267.212L1183.02 262.631H1182.21V318.814H1168.87ZM1235.77 319.892C1231.77 319.892 1228.52 318.949 1226 317.063C1223.49 315.177 1221.62 312.617 1220.41 309.383C1219.24 306.15 1218.66 302.512 1218.66 298.47V240.131C1218.66 236.134 1219.44 232.519 1221.02 229.285C1222.59 226.052 1224.83 223.492 1227.75 221.605C1230.67 219.674 1234.11 218.709 1238.06 218.709C1241.07 218.709 1243.76 219.27 1246.14 220.393C1248.57 221.471 1250.61 222.998 1252.27 224.974C1253.98 226.95 1255.26 229.24 1256.11 231.845C1257.01 234.405 1257.46 237.167 1257.46 240.131V255.356H1242.91V240.131C1242.91 238.155 1242.55 236.448 1241.83 235.011C1241.11 233.574 1239.86 232.856 1238.06 232.856C1236.31 232.856 1235.05 233.619 1234.29 235.146C1233.57 236.628 1233.21 238.29 1233.21 240.131V299.683C1233.21 301.614 1233.59 303.32 1234.35 304.802C1235.12 306.239 1236.35 306.958 1238.06 306.958C1239.86 306.958 1241.11 306.239 1241.83 304.802C1242.55 303.32 1242.91 301.614 1242.91 299.683V283.111H1237.12V269.503H1257.46V318.814H1248.84L1247.09 313.425C1245.83 315.446 1244.21 317.04 1242.24 318.208C1240.31 319.331 1238.15 319.892 1235.77 319.892ZM1301.19 319.892C1297.2 319.892 1293.87 319.241 1291.22 317.939C1288.57 316.591 1286.48 314.66 1284.96 312.145C1283.43 309.63 1282.33 306.599 1281.66 303.051C1281.03 299.503 1280.71 295.506 1280.71 291.06L1294.99 289.712C1294.99 291.868 1295.06 293.956 1295.2 295.977C1295.38 297.953 1295.67 299.75 1296.07 301.367C1296.52 302.939 1297.15 304.196 1297.96 305.139C1298.81 306.082 1299.89 306.554 1301.19 306.554C1303.35 306.554 1304.87 305.566 1305.77 303.59C1306.67 301.569 1307.12 299.144 1307.12 296.314C1307.12 293.485 1306.38 290.543 1304.9 287.489C1303.42 284.435 1301.64 281.539 1299.58 278.799C1296.07 274.128 1293 269.795 1290.35 265.797C1287.74 261.8 1285.7 257.871 1284.22 254.008C1282.78 250.146 1282.06 246.104 1282.06 241.883C1282.06 238.559 1282.49 235.505 1283.34 232.721C1284.19 229.891 1285.43 227.444 1287.05 225.378C1288.71 223.267 1290.71 221.628 1293.04 220.46C1295.38 219.293 1298.05 218.709 1301.06 218.709C1304.79 218.709 1307.93 219.337 1310.49 220.595C1313.09 221.852 1315.18 223.649 1316.75 225.984C1318.37 228.32 1319.54 231.104 1320.26 234.338C1321.02 237.526 1321.4 241.074 1321.4 244.981L1307.12 246.329C1307.12 244.667 1307.03 243.005 1306.85 241.344C1306.72 239.637 1306.45 238.088 1306.04 236.695C1305.64 235.303 1305.05 234.18 1304.29 233.327C1303.53 232.474 1302.54 232.047 1301.33 232.047C1299.44 232.047 1298.14 232.856 1297.42 234.472C1296.7 236.044 1296.34 238.29 1296.34 241.209C1296.34 244.981 1297.35 248.619 1299.37 252.122C1301.39 255.625 1304.11 259.712 1307.52 264.383C1311.61 269.907 1314.93 274.982 1317.49 279.607C1320.1 284.233 1321.4 289.353 1321.4 294.967C1321.4 298.515 1321.02 301.816 1320.26 304.87C1319.49 307.879 1318.28 310.506 1316.62 312.752C1315 314.997 1312.91 316.749 1310.35 318.006C1307.84 319.264 1304.79 319.892 1301.19 319.892ZM1345.23 319.892C1341.19 319.892 1337.71 318.949 1334.79 317.063C1331.92 315.177 1329.7 312.617 1328.12 309.383C1326.6 306.15 1325.83 302.512 1325.83 298.47V240.131C1325.83 236.044 1326.6 232.406 1328.12 229.218C1329.7 225.984 1331.92 223.424 1334.79 221.538C1337.71 219.652 1341.19 218.709 1345.23 218.709C1349.28 218.709 1352.73 219.652 1355.61 221.538C1358.53 223.424 1360.75 225.984 1362.28 229.218C1363.85 232.451 1364.64 236.089 1364.64 240.131V298.47C1364.64 302.512 1363.85 306.15 1362.28 309.383C1360.75 312.617 1358.53 315.177 1355.61 317.063C1352.73 318.949 1349.28 319.892 1345.23 319.892ZM1345.23 305.745C1347.03 305.745 1348.29 305.004 1349.01 303.522C1349.73 301.995 1350.09 300.311 1350.09 298.47V240.131C1350.09 238.29 1349.7 236.628 1348.94 235.146C1348.18 233.619 1346.94 232.856 1345.23 232.856C1343.57 232.856 1342.34 233.619 1341.53 235.146C1340.77 236.628 1340.38 238.29 1340.38 240.131V298.47C1340.38 300.311 1340.77 301.995 1341.53 303.522C1342.29 305.004 1343.53 305.745 1345.23 305.745ZM1390.83 319.892C1386.79 319.892 1383.31 318.949 1380.39 317.063C1377.51 315.177 1375.29 312.617 1373.72 309.383C1372.19 306.15 1371.43 302.512 1371.43 298.47V240.131C1371.43 236.044 1372.19 232.406 1373.72 229.218C1375.29 225.984 1377.51 223.424 1380.39 221.538C1383.31 219.652 1386.79 218.709 1390.83 218.709C1394.87 218.709 1398.33 219.652 1401.2 221.538C1404.12 223.424 1406.34 225.984 1407.87 229.218C1409.44 232.451 1410.23 236.089 1410.23 240.131V298.47C1410.23 302.512 1409.44 306.15 1407.87 309.383C1406.34 312.617 1404.12 315.177 1401.2 317.063C1398.33 318.949 1394.87 319.892 1390.83 319.892ZM1390.83 305.745C1392.62 305.745 1393.88 305.004 1394.6 303.522C1395.32 301.995 1395.68 300.311 1395.68 298.47V240.131C1395.68 238.29 1395.3 236.628 1394.53 235.146C1393.77 233.619 1392.53 232.856 1390.83 232.856C1389.17 232.856 1387.93 233.619 1387.12 235.146C1386.36 236.628 1385.98 238.29 1385.98 240.131V298.47C1385.98 300.311 1386.36 301.995 1387.12 303.522C1387.89 305.004 1389.12 305.745 1390.83 305.745ZM1417.69 318.814V219.787H1431.3L1444.77 271.389L1445.99 275.97H1446.8V219.787H1460.13V318.814H1447.87L1433.05 267.212L1431.84 262.631H1431.03V318.814H1417.69Z" fill="#F3FBFB"/>
<path d="M1011.15 429.801C1007.02 429.801 1003.49 428.88 1000.57 427.039C997.697 425.152 995.496 422.592 993.969 419.359C992.487 416.125 991.746 412.465 991.746 408.378V350.039C991.746 345.997 992.509 342.36 994.036 339.126C995.608 335.892 997.854 333.333 1000.77 331.446C1003.69 329.56 1007.15 328.617 1011.15 328.617C1014.16 328.617 1016.85 329.178 1019.23 330.301C1021.61 331.424 1023.63 332.973 1025.29 334.949C1027 336.88 1028.3 339.148 1029.2 341.753C1030.1 344.313 1030.55 347.075 1030.55 350.039V363.647H1016.94V350.039C1016.94 347.973 1016.51 346.244 1015.66 344.852C1014.81 343.46 1013.39 342.764 1011.42 342.764C1009.62 342.764 1008.32 343.482 1007.51 344.919C1006.7 346.357 1006.3 348.063 1006.3 350.039V408.378C1006.3 410.354 1006.72 412.061 1007.58 413.498C1008.48 414.935 1009.76 415.654 1011.42 415.654C1013.44 415.654 1014.85 414.958 1015.66 413.565C1016.51 412.173 1016.94 410.444 1016.94 408.378V394.77H1030.55V408.378C1030.55 412.42 1029.76 416.058 1028.19 419.291C1026.62 422.525 1024.37 425.085 1021.45 426.971C1018.58 428.857 1015.14 429.801 1011.15 429.801ZM1056.74 429.801C1052.7 429.801 1049.22 428.857 1046.3 426.971C1043.42 425.085 1041.2 422.525 1039.63 419.291C1038.1 416.058 1037.34 412.42 1037.34 408.378V350.039C1037.34 345.952 1038.1 342.315 1039.63 339.126C1041.2 335.892 1043.42 333.333 1046.3 331.446C1049.22 329.56 1052.7 328.617 1056.74 328.617C1060.78 328.617 1064.24 329.56 1067.11 331.446C1070.03 333.333 1072.26 335.892 1073.78 339.126C1075.36 342.36 1076.14 345.997 1076.14 350.039V408.378C1076.14 412.42 1075.36 416.058 1073.78 419.291C1072.26 422.525 1070.03 425.085 1067.11 426.971C1064.24 428.857 1060.78 429.801 1056.74 429.801ZM1056.74 415.654C1058.54 415.654 1059.79 414.913 1060.51 413.431C1061.23 411.904 1061.59 410.219 1061.59 408.378V350.039C1061.59 348.198 1061.21 346.536 1060.45 345.054C1059.68 343.527 1058.45 342.764 1056.74 342.764C1055.08 342.764 1053.84 343.527 1053.04 345.054C1052.27 346.536 1051.89 348.198 1051.89 350.039V408.378C1051.89 410.219 1052.27 411.904 1053.04 413.431C1053.8 414.913 1055.03 415.654 1056.74 415.654ZM1083.61 428.723V329.695H1102.06L1110.01 381.028L1110.69 386.282H1110.96L1111.63 381.028L1119.58 329.695H1138.04V428.723H1124.56V362.3H1123.76L1123.22 366.477L1114.59 428.723H1107.05L1098.43 366.477L1097.89 362.3H1097.08V428.723H1083.61ZM1146.17 428.723V329.695H1160.72V428.723H1146.17ZM1168.87 428.723V329.695H1182.48L1195.95 381.297L1197.16 385.878H1197.97V329.695H1211.31V428.723H1199.05L1184.23 377.12L1183.02 372.539H1182.21V428.723H1168.87ZM1235.77 429.801C1231.77 429.801 1228.52 428.857 1226 426.971C1223.49 425.085 1221.62 422.525 1220.41 419.291C1219.24 416.058 1218.66 412.42 1218.66 408.378V350.039C1218.66 346.042 1219.44 342.427 1221.02 339.193C1222.59 335.96 1224.83 333.4 1227.75 331.514C1230.67 329.582 1234.11 328.617 1238.06 328.617C1241.07 328.617 1243.76 329.178 1246.14 330.301C1248.57 331.379 1250.61 332.906 1252.27 334.882C1253.98 336.858 1255.26 339.148 1256.11 341.753C1257.01 344.313 1257.46 347.075 1257.46 350.039V365.264H1242.91V350.039C1242.91 348.063 1242.55 346.357 1241.83 344.919C1241.11 343.482 1239.86 342.764 1238.06 342.764C1236.31 342.764 1235.05 343.527 1234.29 345.054C1233.57 346.536 1233.21 348.198 1233.21 350.039V409.591C1233.21 411.522 1233.59 413.228 1234.35 414.711C1235.12 416.148 1236.35 416.866 1238.06 416.866C1239.86 416.866 1241.11 416.148 1241.83 414.711C1242.55 413.228 1242.91 411.522 1242.91 409.591V393.019H1237.12V379.411H1257.46V428.723H1248.84L1247.09 423.333C1245.83 425.354 1244.21 426.949 1242.24 428.116C1240.31 429.239 1238.15 429.801 1235.77 429.801ZM1301.19 429.801C1297.2 429.801 1293.87 429.149 1291.22 427.847C1288.57 426.5 1286.48 424.568 1284.96 422.053C1283.43 419.538 1282.33 416.507 1281.66 412.959C1281.03 409.411 1280.71 405.414 1280.71 400.968L1294.99 399.621C1294.99 401.776 1295.06 403.865 1295.2 405.886C1295.38 407.862 1295.67 409.658 1296.07 411.275C1296.52 412.847 1297.15 414.104 1297.96 415.047C1298.81 415.99 1299.89 416.462 1301.19 416.462C1303.35 416.462 1304.87 415.474 1305.77 413.498C1306.67 411.477 1307.12 409.052 1307.12 406.222C1307.12 403.393 1306.38 400.451 1304.9 397.398C1303.42 394.344 1301.64 391.447 1299.58 388.707C1296.07 384.037 1293 379.703 1290.35 375.706C1287.74 371.709 1285.7 367.779 1284.22 363.917C1282.78 360.054 1282.06 356.012 1282.06 351.791C1282.06 348.467 1282.49 345.413 1283.34 342.629C1284.19 339.8 1285.43 337.352 1287.05 335.286C1288.71 333.175 1290.71 331.536 1293.04 330.368C1295.38 329.201 1298.05 328.617 1301.06 328.617C1304.79 328.617 1307.93 329.246 1310.49 330.503C1313.09 331.761 1315.18 333.557 1316.75 335.892C1318.37 338.228 1319.54 341.012 1320.26 344.246C1321.02 347.434 1321.4 350.982 1321.4 354.89L1307.12 356.237C1307.12 354.575 1307.03 352.914 1306.85 351.252C1306.72 349.545 1306.45 347.996 1306.04 346.604C1305.64 345.211 1305.05 344.089 1304.29 343.235C1303.53 342.382 1302.54 341.955 1301.33 341.955C1299.44 341.955 1298.14 342.764 1297.42 344.381C1296.7 345.952 1296.34 348.198 1296.34 351.117C1296.34 354.89 1297.35 358.527 1299.37 362.03C1301.39 365.533 1304.11 369.62 1307.52 374.291C1311.61 379.815 1314.93 384.89 1317.49 389.516C1320.1 394.141 1321.4 399.261 1321.4 404.875C1321.4 408.423 1321.02 411.724 1320.26 414.778C1319.49 417.787 1318.28 420.414 1316.62 422.66C1315 424.905 1312.91 426.657 1310.35 427.914C1307.84 429.172 1304.79 429.801 1301.19 429.801ZM1345.23 429.801C1341.19 429.801 1337.71 428.857 1334.79 426.971C1331.92 425.085 1329.7 422.525 1328.12 419.291C1326.6 416.058 1325.83 412.42 1325.83 408.378V350.039C1325.83 345.952 1326.6 342.315 1328.12 339.126C1329.7 335.892 1331.92 333.333 1334.79 331.446C1337.71 329.56 1341.19 328.617 1345.23 328.617C1349.28 328.617 1352.73 329.56 1355.61 331.446C1358.53 333.333 1360.75 335.892 1362.28 339.126C1363.85 342.36 1364.64 345.997 1364.64 350.039V408.378C1364.64 412.42 1363.85 416.058 1362.28 419.291C1360.75 422.525 1358.53 425.085 1355.61 426.971C1352.73 428.857 1349.28 429.801 1345.23 429.801ZM1345.23 415.654C1347.03 415.654 1348.29 414.913 1349.01 413.431C1349.73 411.904 1350.09 410.219 1350.09 408.378V350.039C1350.09 348.198 1349.7 346.536 1348.94 345.054C1348.18 343.527 1346.94 342.764 1345.23 342.764C1343.57 342.764 1342.34 343.527 1341.53 345.054C1340.77 346.536 1340.38 348.198 1340.38 350.039V408.378C1340.38 410.219 1340.77 411.904 1341.53 413.431C1342.29 414.913 1343.53 415.654 1345.23 415.654ZM1390.83 429.801C1386.79 429.801 1383.31 428.857 1380.39 426.971C1377.51 425.085 1375.29 422.525 1373.72 419.291C1372.19 416.058 1371.43 412.42 1371.43 408.378V350.039C1371.43 345.952 1372.19 342.315 1373.72 339.126C1375.29 335.892 1377.51 333.333 1380.39 331.446C1383.31 329.56 1386.79 328.617 1390.83 328.617C1394.87 328.617 1398.33 329.56 1401.2 331.446C1404.12 333.333 1406.34 335.892 1407.87 339.126C1409.44 342.36 1410.23 345.997 1410.23 350.039V408.378C1410.23 412.42 1409.44 416.058 1407.87 419.291C1406.34 422.525 1404.12 425.085 1401.2 426.971C1398.33 428.857 1394.87 429.801 1390.83 429.801ZM1390.83 415.654C1392.62 415.654 1393.88 414.913 1394.6 413.431C1395.32 411.904 1395.68 410.219 1395.68 408.378V350.039C1395.68 348.198 1395.3 346.536 1394.53 345.054C1393.77 343.527 1392.53 342.764 1390.83 342.764C1389.17 342.764 1387.93 343.527 1387.12 345.054C1386.36 346.536 1385.98 348.198 1385.98 350.039V408.378C1385.98 410.219 1386.36 411.904 1387.12 413.431C1387.89 414.913 1389.12 415.654 1390.83 415.654ZM1417.69 428.723V329.695H1431.3L1444.77 381.297L1445.99 385.878H1446.8V329.695H1460.13V428.723H1447.87L1433.05 377.12L1431.84 372.539H1431.03V428.723H1417.69Z" fill="#F3FBFB"/>
</svg>
