<svg width="826" height="95" viewBox="0 0 826 95" fill="none" xmlns="http://www.w3.org/2000/svg">
<g filter="url(#filter0_d_711_7578)">
<mask id="path-1-inside-1_711_7578" fill="white">
<path d="M1.53857 46.7996C1.53857 21.4795 22.0646 0.953491 47.3847 0.953491H158.923C184.243 0.953491 204.769 21.4795 204.769 46.7996C204.769 72.1198 184.243 92.6458 158.923 92.6458H47.3847C22.0646 92.6458 1.53857 72.1198 1.53857 46.7996Z"/>
</mask>
<path d="M1.53857 0.953491H204.769H1.53857ZM204.769 46.7996C204.769 72.6721 183.796 93.6458 157.923 93.6458H48.3847C22.5123 93.6458 1.53857 72.6721 1.53857 46.7996C1.53857 71.5675 22.0646 91.6458 47.3847 91.6458H158.923C184.243 91.6458 204.769 71.5675 204.769 46.7996ZM1.53857 92.6458V0.953491V92.6458ZM204.769 0.953491V92.6458V0.953491Z" fill="#33959E" mask="url(#path-1-inside-1_711_7578)"/>
<path d="M45.7199 42.9727C44.7103 42.9727 43.8256 42.7516 43.066 42.3093C42.316 41.867 41.7247 41.2564 41.292 40.4775C40.8689 39.6891 40.6574 38.7804 40.6574 37.7516C40.6574 36.7227 40.8689 35.8189 41.292 35.04C41.7247 34.2516 42.316 33.6362 43.066 33.1939C43.8256 32.7516 44.7103 32.5304 45.7199 32.5304C46.7199 32.5304 47.5997 32.7516 48.3593 33.1939C49.1189 33.6362 49.7103 34.2516 50.1333 35.04C50.5564 35.8189 50.768 36.7227 50.768 37.7516C50.768 38.7804 50.5564 39.6891 50.1333 40.4775C49.7103 41.2564 49.1189 41.867 48.3593 42.3093C47.5997 42.7516 46.7199 42.9727 45.7199 42.9727ZM45.7199 41.3141C46.6814 41.3141 47.4458 40.9968 48.0131 40.3622C48.5901 39.7275 48.8785 38.8573 48.8785 37.7516C48.8785 36.6458 48.5901 35.7756 48.0131 35.141C47.4458 34.5064 46.6814 34.1891 45.7199 34.1891C44.7583 34.1891 43.9891 34.5064 43.4122 35.141C42.8353 35.7756 42.5468 36.6458 42.5468 37.7516C42.5468 38.8573 42.8353 39.7275 43.4122 40.3622C43.9891 40.9968 44.7583 41.3141 45.7199 41.3141ZM52.0663 42.7997V35.6458H53.6961L53.8403 36.8573C54.0614 36.4343 54.3788 36.0977 54.7922 35.8477C55.2153 35.5977 55.7105 35.4727 56.2778 35.4727C57.1624 35.4727 57.8499 35.7516 58.3403 36.3093C58.8307 36.867 59.0759 37.6843 59.0759 38.7612V42.7997H57.2297V38.9343C57.2297 38.3189 57.1047 37.8477 56.8547 37.5208C56.6047 37.1939 56.2153 37.0304 55.6864 37.0304C55.1672 37.0304 54.7393 37.2131 54.4028 37.5785C54.0759 37.9439 53.9124 38.4535 53.9124 39.1073V42.7997H52.0663ZM60.3941 39.3958V37.8525H66.4374V39.3958H60.3941ZM72.4856 42.9727C71.4664 42.9727 70.5914 42.7564 69.8606 42.3237C69.1298 41.8814 68.5673 41.2708 68.1731 40.492C67.7789 39.7035 67.5818 38.7948 67.5818 37.766C67.5818 36.7372 67.7789 35.8285 68.1731 35.04C68.5673 34.2516 69.1298 33.6362 69.8606 33.1939C70.5914 32.7516 71.4664 32.5304 72.4856 32.5304C73.6972 32.5304 74.6875 32.8333 75.4568 33.4391C76.2356 34.0352 76.7212 34.8766 76.9135 35.9631H74.8798C74.7548 35.415 74.4856 34.9872 74.0722 34.6795C73.6683 34.3622 73.1298 34.2035 72.4568 34.2035C71.5241 34.2035 70.7933 34.5208 70.2645 35.1554C69.7356 35.79 69.4712 36.6602 69.4712 37.766C69.4712 38.8718 69.7356 39.742 70.2645 40.3766C70.7933 41.0016 71.5241 41.3141 72.4568 41.3141C73.1298 41.3141 73.6683 41.1698 74.0722 40.8814C74.4856 40.5833 74.7548 40.1747 74.8798 39.6554H76.9135C76.7212 40.6939 76.2356 41.5064 75.4568 42.0929C74.6875 42.6795 73.6972 42.9727 72.4856 42.9727ZM78.216 42.7997V32.415H80.0621V36.742C80.3025 36.3477 80.6246 36.04 81.0285 35.8189C81.4419 35.5881 81.9131 35.4727 82.4419 35.4727C83.3265 35.4727 84.0092 35.7516 84.49 36.3093C84.9804 36.867 85.2256 37.6843 85.2256 38.7612V42.7997H83.3939V38.9343C83.3939 38.3189 83.2689 37.8477 83.0189 37.5208C82.7785 37.1939 82.3939 37.0304 81.865 37.0304C81.3458 37.0304 80.9131 37.2131 80.5669 37.5785C80.2304 37.9439 80.0621 38.4535 80.0621 39.1073V42.7997H78.216ZM89.1688 42.9727C88.5534 42.9727 88.0486 42.8766 87.6544 42.6843C87.2602 42.4823 86.9669 42.2179 86.7746 41.891C86.5823 41.5641 86.4861 41.2035 86.4861 40.8093C86.4861 40.1458 86.7458 39.6073 87.265 39.1939C87.7842 38.7804 88.5631 38.5737 89.6015 38.5737H91.4188V38.4006C91.4188 37.9102 91.2794 37.5497 91.0006 37.3189C90.7217 37.0881 90.3756 36.9727 89.9621 36.9727C89.5871 36.9727 89.2602 37.0641 88.9813 37.2468C88.7025 37.4198 88.5294 37.6795 88.4621 38.0256H86.6592C86.7073 37.5064 86.8804 37.0545 87.1784 36.6698C87.4861 36.2852 87.8804 35.992 88.3611 35.79C88.8419 35.5785 89.3804 35.4727 89.9765 35.4727C90.9958 35.4727 91.7986 35.7275 92.3852 36.2372C92.9717 36.7468 93.265 37.4679 93.265 38.4006V42.7997H91.6929L91.5198 41.6458C91.3083 42.0304 91.0102 42.3477 90.6256 42.5977C90.2506 42.8477 89.765 42.9727 89.1688 42.9727ZM89.5871 41.5304C90.1159 41.5304 90.5246 41.3573 90.8131 41.0112C91.1111 40.665 91.2986 40.2372 91.3756 39.7275H89.8034C89.3131 39.7275 88.9621 39.8189 88.7506 40.0016C88.539 40.1747 88.4333 40.391 88.4333 40.6506C88.4333 40.9295 88.539 41.1458 88.7506 41.2997C88.9621 41.4535 89.2409 41.5304 89.5871 41.5304ZM95.7335 34.5352C95.3969 34.5352 95.1181 34.4343 94.8969 34.2323C94.6854 34.0304 94.5796 33.7756 94.5796 33.4679C94.5796 33.1602 94.6854 32.9102 94.8969 32.7179C95.1181 32.516 95.3969 32.415 95.7335 32.415C96.07 32.415 96.3441 32.516 96.5556 32.7179C96.7767 32.9102 96.8873 33.1602 96.8873 33.4679C96.8873 33.7756 96.7767 34.0304 96.5556 34.2323C96.3441 34.4343 96.07 34.5352 95.7335 34.5352ZM94.8104 42.7997V35.6458H96.6566V42.7997H94.8104ZM98.295 42.7997V35.6458H99.9248L100.069 36.8573C100.29 36.4343 100.608 36.0977 101.021 35.8477C101.444 35.5977 101.939 35.4727 102.507 35.4727C103.391 35.4727 104.079 35.7516 104.569 36.3093C105.059 36.867 105.305 37.6843 105.305 38.7612V42.7997H103.458V38.9343C103.458 38.3189 103.333 37.8477 103.083 37.5208C102.833 37.1939 102.444 37.0304 101.915 37.0304C101.396 37.0304 100.968 37.2131 100.632 37.5785C100.305 37.9439 100.141 38.4535 100.141 39.1073V42.7997H98.295ZM112.396 42.9727C111.781 42.9727 111.276 42.8766 110.882 42.6843C110.488 42.4823 110.194 42.2179 110.002 41.891C109.81 41.5641 109.713 41.2035 109.713 40.8093C109.713 40.1458 109.973 39.6073 110.492 39.1939C111.012 38.7804 111.79 38.5737 112.829 38.5737H114.646V38.4006C114.646 37.9102 114.507 37.5497 114.228 37.3189C113.949 37.0881 113.603 36.9727 113.189 36.9727C112.814 36.9727 112.488 37.0641 112.209 37.2468C111.93 37.4198 111.757 37.6795 111.689 38.0256H109.887C109.935 37.5064 110.108 37.0545 110.406 36.6698C110.713 36.2852 111.108 35.992 111.588 35.79C112.069 35.5785 112.608 35.4727 113.204 35.4727C114.223 35.4727 115.026 35.7275 115.613 36.2372C116.199 36.7468 116.492 37.4679 116.492 38.4006V42.7997H114.92L114.747 41.6458C114.536 42.0304 114.238 42.3477 113.853 42.5977C113.478 42.8477 112.992 42.9727 112.396 42.9727ZM112.814 41.5304C113.343 41.5304 113.752 41.3573 114.04 41.0112C114.338 40.665 114.526 40.2372 114.603 39.7275H113.031C112.54 39.7275 112.189 39.8189 111.978 40.0016C111.766 40.1747 111.661 40.391 111.661 40.6506C111.661 40.9295 111.766 41.1458 111.978 41.2997C112.189 41.4535 112.468 41.5304 112.814 41.5304ZM117.966 42.7997V35.6458H119.595L119.74 36.8573C119.961 36.4343 120.278 36.0977 120.692 35.8477C121.115 35.5977 121.61 35.4727 122.177 35.4727C123.062 35.4727 123.749 35.7516 124.24 36.3093C124.73 36.867 124.975 37.6843 124.975 38.7612V42.7997H123.129V38.9343C123.129 38.3189 123.004 37.8477 122.754 37.5208C122.504 37.1939 122.115 37.0304 121.586 37.0304C121.067 37.0304 120.639 37.2131 120.302 37.5785C119.975 37.9439 119.812 38.4535 119.812 39.1073V42.7997H117.966ZM129.741 42.9727C129.068 42.9727 128.467 42.8093 127.938 42.4823C127.409 42.1554 126.991 41.7083 126.683 41.141C126.375 40.5737 126.221 39.9295 126.221 39.2083C126.221 38.4872 126.375 37.8477 126.683 37.29C126.991 36.7227 127.409 36.2804 127.938 35.9631C128.467 35.6362 129.068 35.4727 129.741 35.4727C130.279 35.4727 130.75 35.5737 131.154 35.7756C131.558 35.9775 131.885 36.2612 132.135 36.6266V32.415H133.981V42.7997H132.337L132.135 41.7756C131.904 42.0929 131.596 42.3718 131.212 42.6122C130.837 42.8525 130.346 42.9727 129.741 42.9727ZM130.13 41.3573C130.726 41.3573 131.212 41.1602 131.587 40.766C131.971 40.3622 132.164 39.8477 132.164 39.2227C132.164 38.5977 131.971 38.0881 131.587 37.6939C131.212 37.29 130.726 37.0881 130.13 37.0881C129.543 37.0881 129.058 37.2852 128.673 37.6795C128.289 38.0737 128.096 38.5833 128.096 39.2083C128.096 39.8333 128.289 40.3477 128.673 40.7516C129.058 41.1554 129.543 41.3573 130.13 41.3573ZM143.495 42.9727C142.485 42.9727 141.601 42.7516 140.841 42.3093C140.091 41.867 139.5 41.2564 139.067 40.4775C138.644 39.6891 138.432 38.7804 138.432 37.7516C138.432 36.7227 138.644 35.8189 139.067 35.04C139.5 34.2516 140.091 33.6362 140.841 33.1939C141.601 32.7516 142.485 32.5304 143.495 32.5304C144.495 32.5304 145.375 32.7516 146.134 33.1939C146.894 33.6362 147.485 34.2516 147.908 35.04C148.331 35.8189 148.543 36.7227 148.543 37.7516C148.543 38.7804 148.331 39.6891 147.908 40.4775C147.485 41.2564 146.894 41.867 146.134 42.3093C145.375 42.7516 144.495 42.9727 143.495 42.9727ZM143.495 41.3141C144.456 41.3141 145.221 40.9968 145.788 40.3622C146.365 39.7275 146.653 38.8573 146.653 37.7516C146.653 36.6458 146.365 35.7756 145.788 35.141C145.221 34.5064 144.456 34.1891 143.495 34.1891C142.533 34.1891 141.764 34.5064 141.187 35.141C140.61 35.7756 140.322 36.6458 140.322 37.7516C140.322 38.8573 140.61 39.7275 141.187 40.3622C141.764 40.9968 142.533 41.3141 143.495 41.3141ZM150.173 42.7997V37.1891H149.192V35.6458H150.173V34.8093C150.173 33.9439 150.389 33.3285 150.822 32.9631C151.264 32.5977 151.86 32.415 152.61 32.415H153.404V33.9872H152.899C152.582 33.9872 152.356 34.0497 152.221 34.1747C152.086 34.2997 152.019 34.5112 152.019 34.8093V35.6458H153.562V37.1891H152.019V42.7997H150.173ZM155.068 42.7997V37.1891H154.087V35.6458H155.068V34.8093C155.068 33.9439 155.284 33.3285 155.717 32.9631C156.159 32.5977 156.755 32.415 157.505 32.415H158.299V33.9872H157.794C157.476 33.9872 157.25 34.0497 157.116 34.1747C156.981 34.2997 156.914 34.5112 156.914 34.8093V35.6458H158.457V37.1891H156.914V42.7997H155.068ZM159.472 39.3958V37.8525H165.515V39.3958H159.472ZM57.3296 59.9727C56.3103 59.9727 55.4353 59.7564 54.7046 59.3237C53.9738 58.8814 53.4113 58.2708 53.0171 57.492C52.6228 56.7035 52.4257 55.7948 52.4257 54.766C52.4257 53.7372 52.6228 52.8285 53.0171 52.04C53.4113 51.2516 53.9738 50.6362 54.7046 50.1939C55.4353 49.7516 56.3103 49.5304 57.3296 49.5304C58.5411 49.5304 59.5315 49.8333 60.3007 50.4391C61.0796 51.0352 61.5651 51.8766 61.7574 52.9631H59.7238C59.5988 52.415 59.3296 51.9872 58.9161 51.6795C58.5122 51.3622 57.9738 51.2035 57.3007 51.2035C56.368 51.2035 55.6372 51.5208 55.1084 52.1554C54.5796 52.79 54.3151 53.6602 54.3151 54.766C54.3151 55.8718 54.5796 56.742 55.1084 57.3766C55.6372 58.0016 56.368 58.3141 57.3007 58.3141C57.9738 58.3141 58.5122 58.1698 58.9161 57.8814C59.3296 57.5833 59.5988 57.1747 59.7238 56.6554H61.7574C61.5651 57.6939 61.0796 58.5064 60.3007 59.0929C59.5315 59.6795 58.5411 59.9727 57.3296 59.9727ZM63.0599 59.7997V49.415H64.9061V53.742C65.1464 53.3477 65.4686 53.04 65.8724 52.8189C66.2859 52.5881 66.757 52.4727 67.2859 52.4727C68.1705 52.4727 68.8532 52.7516 69.3339 53.3093C69.8243 53.867 70.0695 54.6843 70.0695 55.7612V59.7997H68.2378V55.9343C68.2378 55.3189 68.1128 54.8477 67.8628 54.5208C67.6224 54.1939 67.2378 54.0304 66.7089 54.0304C66.1897 54.0304 65.757 54.2131 65.4109 54.5785C65.0743 54.9439 64.9061 55.4535 64.9061 56.1073V59.7997H63.0599ZM74.0128 59.9727C73.3974 59.9727 72.8926 59.8766 72.4983 59.6843C72.1041 59.4823 71.8108 59.2179 71.6185 58.891C71.4262 58.5641 71.3301 58.2035 71.3301 57.8093C71.3301 57.1458 71.5897 56.6073 72.1089 56.1939C72.6282 55.7804 73.407 55.5737 74.4455 55.5737H76.2628V55.4006C76.2628 54.9102 76.1233 54.5497 75.8445 54.3189C75.5657 54.0881 75.2195 53.9727 74.806 53.9727C74.431 53.9727 74.1041 54.0641 73.8253 54.2468C73.5464 54.4198 73.3733 54.6795 73.306 55.0256H71.5032C71.5512 54.5064 71.7243 54.0545 72.0224 53.6698C72.3301 53.2852 72.7243 52.992 73.2051 52.79C73.6858 52.5785 74.2243 52.4727 74.8205 52.4727C75.8397 52.4727 76.6426 52.7275 77.2291 53.2372C77.8157 53.7468 78.1089 54.4679 78.1089 55.4006V59.7997H76.5368L76.3637 58.6458C76.1522 59.0304 75.8541 59.3477 75.4695 59.5977C75.0945 59.8477 74.6089 59.9727 74.0128 59.9727ZM74.431 58.5304C74.9599 58.5304 75.3685 58.3573 75.657 58.0112C75.9551 57.665 76.1426 57.2372 76.2195 56.7275H74.6474C74.157 56.7275 73.806 56.8189 73.5945 57.0016C73.383 57.1747 73.2772 57.391 73.2772 57.6506C73.2772 57.9295 73.383 58.1458 73.5945 58.2997C73.806 58.4535 74.0849 58.5304 74.431 58.5304ZM80.5774 51.5352C80.2409 51.5352 79.962 51.4343 79.7409 51.2323C79.5293 51.0304 79.4236 50.7756 79.4236 50.4679C79.4236 50.1602 79.5293 49.9102 79.7409 49.7179C79.962 49.516 80.2409 49.415 80.5774 49.415C80.914 49.415 81.188 49.516 81.3995 49.7179C81.6207 49.9102 81.7313 50.1602 81.7313 50.4679C81.7313 50.7756 81.6207 51.0304 81.3995 51.2323C81.188 51.4343 80.914 51.5352 80.5774 51.5352ZM79.6543 59.7997V52.6458H81.5005V59.7997H79.6543ZM83.139 59.7997V52.6458H84.7688L84.913 53.8573C85.1342 53.4343 85.4515 53.0977 85.8649 52.8477C86.288 52.5977 86.7832 52.4727 87.3505 52.4727C88.2351 52.4727 88.9226 52.7516 89.413 53.3093C89.9034 53.867 90.1486 54.6843 90.1486 55.7612V59.7997H88.3024V55.9343C88.3024 55.3189 88.1774 54.8477 87.9274 54.5208C87.6774 54.1939 87.288 54.0304 86.7592 54.0304C86.2399 54.0304 85.8121 54.2131 85.4755 54.5785C85.1486 54.9439 84.9851 55.4535 84.9851 56.1073V59.7997H83.139ZM94.817 59.7997V49.7035H96.6632V59.7997H94.817ZM98.2883 59.7997V52.6458H99.9181L100.062 53.8573C100.283 53.4343 100.601 53.0977 101.014 52.8477C101.437 52.5977 101.933 52.4727 102.5 52.4727C103.384 52.4727 104.072 52.7516 104.562 53.3093C105.053 53.867 105.298 54.6843 105.298 55.7612V59.7997H103.452V55.9343C103.452 55.3189 103.327 54.8477 103.077 54.5208C102.827 54.1939 102.437 54.0304 101.908 54.0304C101.389 54.0304 100.961 54.2131 100.625 54.5785C100.298 54.9439 100.134 55.4535 100.134 56.1073V59.7997H98.2883ZM108.637 59.7997L106.012 52.6458H107.945L109.762 58.0545L111.579 52.6458H113.512L110.873 59.7997H108.637ZM117.512 59.9727C116.791 59.9727 116.151 59.8189 115.594 59.5112C115.036 59.2035 114.598 58.7708 114.281 58.2131C113.964 57.6554 113.805 57.0112 113.805 56.2804C113.805 55.54 113.959 54.8814 114.267 54.3045C114.584 53.7275 115.017 53.2804 115.565 52.9631C116.122 52.6362 116.776 52.4727 117.526 52.4727C118.228 52.4727 118.848 52.6266 119.387 52.9343C119.925 53.242 120.344 53.665 120.642 54.2035C120.949 54.7323 121.103 55.3237 121.103 55.9775C121.103 56.0833 121.098 56.1939 121.089 56.3093C121.089 56.4247 121.084 56.5448 121.074 56.6698H115.637C115.675 57.2275 115.868 57.665 116.214 57.9823C116.57 58.2997 116.997 58.4583 117.497 58.4583C117.872 58.4583 118.185 58.3766 118.435 58.2131C118.695 58.04 118.887 57.8189 119.012 57.5497H120.887C120.752 58.0016 120.526 58.415 120.209 58.79C119.901 59.1554 119.517 59.4439 119.055 59.6554C118.603 59.867 118.089 59.9727 117.512 59.9727ZM117.526 53.9727C117.074 53.9727 116.675 54.1025 116.329 54.3622C115.983 54.6122 115.762 54.9968 115.666 55.516H119.228C119.199 55.0448 119.026 54.6698 118.709 54.391C118.392 54.1122 117.997 53.9727 117.526 53.9727ZM125.324 59.9727C124.69 59.9727 124.132 59.8718 123.651 59.6698C123.17 59.4583 122.786 59.1698 122.497 58.8045C122.209 58.4391 122.036 58.016 121.978 57.5352H123.839C123.896 57.8141 124.05 58.0545 124.3 58.2564C124.56 58.4487 124.892 58.5448 125.295 58.5448C125.699 58.5448 125.992 58.4631 126.175 58.2997C126.367 58.1362 126.464 57.9487 126.464 57.7372C126.464 57.4295 126.329 57.2227 126.06 57.117C125.791 57.0016 125.416 56.891 124.935 56.7852C124.627 56.7179 124.315 56.6362 123.997 56.54C123.68 56.4439 123.387 56.3237 123.117 56.1795C122.858 56.0256 122.646 55.8333 122.483 55.6025C122.319 55.3622 122.238 55.0689 122.238 54.7227C122.238 54.0881 122.488 53.5545 122.988 53.1218C123.497 52.6891 124.209 52.4727 125.122 52.4727C125.968 52.4727 126.642 52.6698 127.142 53.0641C127.651 53.4583 127.954 54.0016 128.05 54.6939H126.305C126.199 54.165 125.8 53.9006 125.108 53.9006C124.762 53.9006 124.492 53.9679 124.3 54.1025C124.117 54.2372 124.026 54.4054 124.026 54.6073C124.026 54.8189 124.166 54.9872 124.444 55.1122C124.723 55.2372 125.093 55.3525 125.555 55.4583C126.055 55.5737 126.512 55.7035 126.925 55.8477C127.348 55.9823 127.685 56.1891 127.935 56.4679C128.185 56.7372 128.31 57.1266 128.31 57.6362C128.319 58.0785 128.204 58.4775 127.964 58.8333C127.723 59.1891 127.377 59.4679 126.925 59.6698C126.473 59.8718 125.94 59.9727 125.324 59.9727ZM132.619 59.7997C131.869 59.7997 131.268 59.617 130.816 59.2516C130.364 58.8862 130.138 58.2372 130.138 57.3045V54.1891H128.912V52.6458H130.138L130.354 50.7275H131.984V52.6458H133.917V54.1891H131.984V57.3189C131.984 57.665 132.056 57.9054 132.201 58.04C132.354 58.165 132.614 58.2275 132.979 58.2275H133.874V59.7997H132.619ZM136.209 51.5352C135.872 51.5352 135.593 51.4343 135.372 51.2323C135.161 51.0304 135.055 50.7756 135.055 50.4679C135.055 50.1602 135.161 49.9102 135.372 49.7179C135.593 49.516 135.872 49.415 136.209 49.415C136.545 49.415 136.819 49.516 137.031 49.7179C137.252 49.9102 137.363 50.1602 137.363 50.4679C137.363 50.7756 137.252 51.0304 137.031 51.2323C136.819 51.4343 136.545 51.5352 136.209 51.5352ZM135.286 59.7997V52.6458H137.132V59.7997H135.286ZM138.77 59.7997V52.6458H140.4L140.544 53.8573C140.766 53.4343 141.083 53.0977 141.496 52.8477C141.919 52.5977 142.415 52.4727 142.982 52.4727C143.867 52.4727 144.554 52.7516 145.044 53.3093C145.535 53.867 145.78 54.6843 145.78 55.7612V59.7997H143.934V55.9343C143.934 55.3189 143.809 54.8477 143.559 54.5208C143.309 54.1939 142.919 54.0304 142.391 54.0304C141.871 54.0304 141.443 54.2131 141.107 54.5785C140.78 54.9439 140.617 55.4535 140.617 56.1073V59.7997H138.77ZM150.286 57.665C149.94 57.665 149.617 57.6266 149.319 57.5497L148.786 58.0833C148.949 58.1698 149.17 58.242 149.449 58.2997C149.728 58.3573 150.18 58.415 150.805 58.4727C151.757 58.5593 152.449 58.7852 152.882 59.1506C153.315 59.516 153.531 60.0208 153.531 60.665C153.531 61.0881 153.416 61.4872 153.185 61.8622C152.954 62.2468 152.598 62.5545 152.117 62.7852C151.637 63.0256 151.021 63.1458 150.271 63.1458C149.252 63.1458 148.43 62.9535 147.805 62.5689C147.18 62.1939 146.867 61.6266 146.867 60.867C146.867 60.2227 147.18 59.665 147.805 59.1939C147.613 59.1073 147.444 59.016 147.3 58.9198C147.166 58.8237 147.045 58.7227 146.94 58.617V58.2852L148.194 56.9583C147.637 56.4679 147.358 55.8381 147.358 55.0689C147.358 54.5881 147.473 54.1506 147.704 53.7564C147.944 53.3622 148.281 53.0497 148.714 52.8189C149.146 52.5881 149.67 52.4727 150.286 52.4727C150.69 52.4727 151.065 52.5304 151.411 52.6458H154.122V53.7708L152.896 53.8573C153.089 54.2227 153.185 54.6266 153.185 55.0689C153.185 55.5497 153.069 55.9872 152.839 56.3814C152.608 56.7756 152.271 57.0881 151.829 57.3189C151.396 57.5497 150.882 57.665 150.286 57.665ZM150.286 56.2516C150.661 56.2516 150.968 56.1506 151.209 55.9487C151.459 55.7468 151.584 55.4583 151.584 55.0833C151.584 54.7083 151.459 54.4198 151.209 54.2179C150.968 54.016 150.661 53.915 150.286 53.915C149.891 53.915 149.574 54.016 149.334 54.2179C149.093 54.4198 148.973 54.7083 148.973 55.0833C148.973 55.4583 149.093 55.7468 149.334 55.9487C149.574 56.1506 149.891 56.2516 150.286 56.2516ZM148.555 60.6795C148.555 61.0352 148.718 61.2997 149.045 61.4727C149.382 61.6554 149.791 61.7468 150.271 61.7468C150.733 61.7468 151.108 61.6506 151.396 61.4583C151.685 61.2756 151.829 61.0256 151.829 60.7083C151.829 60.4487 151.733 60.2323 151.541 60.0593C151.358 59.8862 150.988 59.7804 150.43 59.742C150.036 59.7131 149.67 59.6698 149.334 59.6122C149.055 59.766 148.853 59.9343 148.728 60.117C148.613 60.2997 148.555 60.4872 148.555 60.6795Z" fill="#546162"/>
</g>
<g filter="url(#filter1_d_711_7578)">
<mask id="path-4-inside-2_711_7578" fill="white">
<path d="M204.77 46.7996C204.77 21.4795 225.296 0.953491 250.616 0.953491H355.154C380.474 0.953491 401 21.4795 401 46.7996C401 72.1198 380.474 92.6458 355.154 92.6458H250.616C225.296 92.6458 204.77 72.1198 204.77 46.7996Z"/>
</mask>
<path d="M204.77 46.7996C204.77 20.9272 225.743 -0.0465088 251.616 -0.0465088H354.154C380.027 -0.0465088 401 20.9272 401 46.7996C401 22.0318 380.474 1.95349 355.154 1.95349H250.616C225.296 1.95349 204.77 22.0318 204.77 46.7996ZM401 92.6458H204.77H401ZM204.77 92.6458V0.953491V92.6458ZM401 0.953491V92.6458V0.953491Z" fill="#EF841F" mask="url(#path-4-inside-2_711_7578)"/>
<path d="M259.827 42.7997V32.7035H263.88C264.928 32.7035 265.726 32.9487 266.274 33.4391C266.832 33.9198 267.111 34.54 267.111 35.2997C267.111 35.9343 266.938 36.4439 266.591 36.8285C266.255 37.2035 265.841 37.4583 265.351 37.5929C265.928 37.7083 266.404 37.9968 266.779 38.4583C267.154 38.9102 267.341 39.4391 267.341 40.0448C267.341 40.8429 267.053 41.5016 266.476 42.0208C265.899 42.54 265.082 42.7997 264.024 42.7997H259.827ZM261.673 36.9439H263.606C264.125 36.9439 264.524 36.8237 264.803 36.5833C265.082 36.3429 265.221 36.0016 265.221 35.5593C265.221 35.1362 265.082 34.8045 264.803 34.5641C264.534 34.3141 264.125 34.1891 263.577 34.1891H261.673V36.9439ZM261.673 41.2997H263.736C264.284 41.2997 264.707 41.1747 265.005 40.9247C265.313 40.665 265.466 40.3045 265.466 39.8429C265.466 39.3718 265.308 39.0016 264.99 38.7323C264.673 38.4631 264.245 38.3285 263.707 38.3285H261.673V41.2997ZM271.277 42.9727C270.383 42.9727 269.69 42.6939 269.2 42.1362C268.719 41.5785 268.479 40.7612 268.479 39.6843V35.6458H270.31V39.5112C270.31 40.1266 270.435 40.5977 270.685 40.9247C270.935 41.2516 271.33 41.415 271.868 41.415C272.378 41.415 272.796 41.2323 273.123 40.867C273.46 40.5016 273.628 39.992 273.628 39.3381V35.6458H275.474V42.7997H273.844L273.7 41.5881C273.479 42.0112 273.157 42.3477 272.734 42.5977C272.32 42.8477 271.835 42.9727 271.277 42.9727ZM278.076 34.5352C277.739 34.5352 277.46 34.4343 277.239 34.2323C277.028 34.0304 276.922 33.7756 276.922 33.4679C276.922 33.1602 277.028 32.9102 277.239 32.7179C277.46 32.516 277.739 32.415 278.076 32.415C278.412 32.415 278.686 32.516 278.898 32.7179C279.119 32.9102 279.23 33.1602 279.23 33.4679C279.23 33.7756 279.119 34.0304 278.898 34.2323C278.686 34.4343 278.412 34.5352 278.076 34.5352ZM277.153 42.7997V35.6458H278.999V42.7997H277.153ZM280.637 42.7997V32.415H282.484V42.7997H280.637ZM287.269 42.7997C286.519 42.7997 285.918 42.617 285.466 42.2516C285.014 41.8862 284.788 41.2372 284.788 40.3045V37.1891H283.562V35.6458H284.788L285.005 33.7275H286.634V35.6458H288.567V37.1891H286.634V40.3189C286.634 40.665 286.706 40.9054 286.851 41.04C287.005 41.165 287.264 41.2275 287.63 41.2275H288.524V42.7997H287.269ZM294.411 42.7997L292.32 35.6458H294.151L295.392 40.7948L296.834 35.6458H298.882L300.324 40.7948L301.579 35.6458H303.411L301.305 42.7997H299.387L297.858 37.4487L296.329 42.7997H294.411ZM305.283 34.5352C304.946 34.5352 304.667 34.4343 304.446 34.2323C304.234 34.0304 304.129 33.7756 304.129 33.4679C304.129 33.1602 304.234 32.9102 304.446 32.7179C304.667 32.516 304.946 32.415 305.283 32.415C305.619 32.415 305.893 32.516 306.105 32.7179C306.326 32.9102 306.436 33.1602 306.436 33.4679C306.436 33.7756 306.326 34.0304 306.105 34.2323C305.893 34.4343 305.619 34.5352 305.283 34.5352ZM304.359 42.7997V35.6458H306.206V42.7997H304.359ZM311.032 42.7997C310.282 42.7997 309.681 42.617 309.229 42.2516C308.777 41.8862 308.551 41.2372 308.551 40.3045V37.1891H307.325V35.6458H308.551L308.767 33.7275H310.397V35.6458H312.33V37.1891H310.397V40.3189C310.397 40.665 310.469 40.9054 310.613 41.04C310.767 41.165 311.027 41.2275 311.392 41.2275H312.286V42.7997H311.032ZM313.626 42.7997V32.415H315.472V36.742C315.713 36.3477 316.035 36.04 316.439 35.8189C316.852 35.5881 317.323 35.4727 317.852 35.4727C318.737 35.4727 319.42 35.7516 319.9 36.3093C320.391 36.867 320.636 37.6843 320.636 38.7612V42.7997H318.804V38.9343C318.804 38.3189 318.679 37.8477 318.429 37.5208C318.189 37.1939 317.804 37.0304 317.275 37.0304C316.756 37.0304 316.323 37.2131 315.977 37.5785C315.641 37.9439 315.472 38.4535 315.472 39.1073V42.7997H313.626ZM328.449 42.7997C327.699 42.7997 327.098 42.617 326.646 42.2516C326.194 41.8862 325.968 41.2372 325.968 40.3045V37.1891H324.742V35.6458H325.968L326.184 33.7275H327.814V35.6458H329.747V37.1891H327.814V40.3189C327.814 40.665 327.886 40.9054 328.03 41.04C328.184 41.165 328.444 41.2275 328.809 41.2275H329.703V42.7997H328.449ZM331.043 42.7997V32.415H332.889V36.742C333.13 36.3477 333.452 36.04 333.856 35.8189C334.269 35.5881 334.74 35.4727 335.269 35.4727C336.154 35.4727 336.837 35.7516 337.317 36.3093C337.808 36.867 338.053 37.6843 338.053 38.7612V42.7997H336.221V38.9343C336.221 38.3189 336.096 37.8477 335.846 37.5208C335.606 37.1939 335.221 37.0304 334.692 37.0304C334.173 37.0304 333.74 37.2131 333.394 37.5785C333.058 37.9439 332.889 38.4535 332.889 39.1073V42.7997H331.043ZM343.006 42.9727C342.285 42.9727 341.645 42.8189 341.087 42.5112C340.53 42.2035 340.092 41.7708 339.775 41.2131C339.458 40.6554 339.299 40.0112 339.299 39.2804C339.299 38.54 339.453 37.8814 339.761 37.3045C340.078 36.7275 340.511 36.2804 341.059 35.9631C341.616 35.6362 342.27 35.4727 343.02 35.4727C343.722 35.4727 344.342 35.6266 344.881 35.9343C345.419 36.242 345.837 36.665 346.136 37.2035C346.443 37.7323 346.597 38.3237 346.597 38.9775C346.597 39.0833 346.592 39.1939 346.583 39.3093C346.583 39.4247 346.578 39.5448 346.568 39.6698H341.131C341.169 40.2275 341.362 40.665 341.708 40.9823C342.063 41.2997 342.491 41.4583 342.991 41.4583C343.366 41.4583 343.679 41.3766 343.929 41.2131C344.188 41.04 344.381 40.8189 344.506 40.5497H346.381C346.246 41.0016 346.02 41.415 345.703 41.79C345.395 42.1554 345.011 42.4439 344.549 42.6554C344.097 42.867 343.583 42.9727 343.006 42.9727ZM343.02 36.9727C342.568 36.9727 342.169 37.1025 341.823 37.3622C341.477 37.6122 341.256 37.9968 341.16 38.516H344.722C344.693 38.0448 344.52 37.6698 344.203 37.391C343.886 37.1122 343.491 36.9727 343.02 36.9727ZM253.714 59.7997V49.7035H257.45C258.258 49.7035 258.926 49.8381 259.455 50.1073C259.984 50.3766 260.378 50.7468 260.637 51.2179C260.897 51.6891 261.027 52.2179 261.027 52.8045C261.027 53.3622 260.902 53.8766 260.652 54.3477C260.402 54.8093 260.012 55.1843 259.484 55.4727C258.955 55.7516 258.277 55.891 257.45 55.891H255.56V59.7997H253.714ZM255.56 54.391H257.335C257.979 54.391 258.44 54.2516 258.719 53.9727C259.008 53.6843 259.152 53.2948 259.152 52.8045C259.152 52.3045 259.008 51.915 258.719 51.6362C258.44 51.3477 257.979 51.2035 257.335 51.2035H255.56V54.391ZM265.21 59.9727C264.518 59.9727 263.893 59.8141 263.335 59.4968C262.787 59.1795 262.349 58.742 262.022 58.1843C261.705 57.617 261.547 56.9631 261.547 56.2227C261.547 55.4823 261.71 54.8333 262.037 54.2756C262.364 53.7083 262.801 53.266 263.349 52.9487C263.907 52.6314 264.532 52.4727 265.224 52.4727C265.907 52.4727 266.522 52.6314 267.071 52.9487C267.628 53.266 268.066 53.7083 268.383 54.2756C268.71 54.8333 268.873 55.4823 268.873 56.2227C268.873 56.9631 268.71 57.617 268.383 58.1843C268.066 58.742 267.628 59.1795 267.071 59.4968C266.513 59.8141 265.893 59.9727 265.21 59.9727ZM265.21 58.3718C265.691 58.3718 266.109 58.1939 266.465 57.8381C266.821 57.4727 266.998 56.9343 266.998 56.2227C266.998 55.5112 266.821 54.9775 266.465 54.6218C266.109 54.2564 265.696 54.0737 265.224 54.0737C264.734 54.0737 264.311 54.2564 263.955 54.6218C263.609 54.9775 263.436 55.5112 263.436 56.2227C263.436 56.9343 263.609 57.4727 263.955 57.8381C264.311 58.1939 264.729 58.3718 265.21 58.3718ZM271.381 59.7997L269.29 52.6458H271.122L272.362 57.7948L273.804 52.6458H275.852L277.295 57.7948L278.549 52.6458H280.381L278.275 59.7997H276.357L274.828 54.4487L273.299 59.7997H271.381ZM284.48 59.9727C283.759 59.9727 283.119 59.8189 282.562 59.5112C282.004 59.2035 281.566 58.7708 281.249 58.2131C280.932 57.6554 280.773 57.0112 280.773 56.2804C280.773 55.54 280.927 54.8814 281.235 54.3045C281.552 53.7275 281.985 53.2804 282.533 52.9631C283.09 52.6362 283.744 52.4727 284.494 52.4727C285.196 52.4727 285.816 52.6266 286.355 52.9343C286.893 53.242 287.312 53.665 287.61 54.2035C287.917 54.7323 288.071 55.3237 288.071 55.9775C288.071 56.0833 288.066 56.1939 288.057 56.3093C288.057 56.4247 288.052 56.5448 288.042 56.6698H282.605C282.643 57.2275 282.836 57.665 283.182 57.9823C283.538 58.2997 283.965 58.4583 284.465 58.4583C284.84 58.4583 285.153 58.3766 285.403 58.2131C285.663 58.04 285.855 57.8189 285.98 57.5497H287.855C287.72 58.0016 287.494 58.415 287.177 58.79C286.869 59.1554 286.485 59.4439 286.023 59.6554C285.571 59.867 285.057 59.9727 284.48 59.9727ZM284.494 53.9727C284.042 53.9727 283.643 54.1025 283.297 54.3622C282.951 54.6122 282.73 54.9968 282.634 55.516H286.196C286.167 55.0448 285.994 54.6698 285.677 54.391C285.36 54.1122 284.965 53.9727 284.494 53.9727ZM289.335 59.7997V52.6458H290.98L291.153 53.9872C291.412 53.5256 291.763 53.1602 292.206 52.891C292.658 52.6122 293.186 52.4727 293.792 52.4727V54.4198H293.273C292.869 54.4198 292.509 54.4823 292.191 54.6073C291.874 54.7323 291.624 54.9487 291.441 55.2564C291.268 55.5641 291.182 55.992 291.182 56.54V59.7997H289.335ZM301.347 59.9727C300.654 59.9727 300.029 59.8141 299.472 59.4968C298.923 59.1795 298.486 58.742 298.159 58.1843C297.842 57.617 297.683 56.9631 297.683 56.2227C297.683 55.4823 297.847 54.8333 298.173 54.2756C298.5 53.7083 298.938 53.266 299.486 52.9487C300.044 52.6314 300.669 52.4727 301.361 52.4727C302.044 52.4727 302.659 52.6314 303.207 52.9487C303.765 53.266 304.202 53.7083 304.52 54.2756C304.847 54.8333 305.01 55.4823 305.01 56.2227C305.01 56.9631 304.847 57.617 304.52 58.1843C304.202 58.742 303.765 59.1795 303.207 59.4968C302.649 59.8141 302.029 59.9727 301.347 59.9727ZM301.347 58.3718C301.827 58.3718 302.246 58.1939 302.601 57.8381C302.957 57.4727 303.135 56.9343 303.135 56.2227C303.135 55.5112 302.957 54.9775 302.601 54.6218C302.246 54.2564 301.832 54.0737 301.361 54.0737C300.871 54.0737 300.447 54.2564 300.092 54.6218C299.746 54.9775 299.572 55.5112 299.572 56.2227C299.572 56.9343 299.746 57.4727 300.092 57.8381C300.447 58.1939 300.866 58.3718 301.347 58.3718ZM306.704 59.7997V54.1891H305.723V52.6458H306.704V51.8093C306.704 50.9439 306.92 50.3285 307.353 49.9631C307.795 49.5977 308.391 49.415 309.141 49.415H309.935V50.9872H309.43C309.113 50.9872 308.887 51.0497 308.752 51.1747C308.617 51.2997 308.55 51.5112 308.55 51.8093V52.6458H310.093V54.1891H308.55V59.7997H306.704ZM316.507 59.7997L313.838 49.7035H315.814L317.632 57.7372L319.766 49.7035H321.8L323.877 57.7372L325.694 49.7035H327.685L324.944 59.7997H322.752L320.747 52.3141L318.685 59.7997H316.507ZM331.406 59.9727C330.685 59.9727 330.046 59.8189 329.488 59.5112C328.93 59.2035 328.493 58.7708 328.175 58.2131C327.858 57.6554 327.699 57.0112 327.699 56.2804C327.699 55.54 327.853 54.8814 328.161 54.3045C328.478 53.7275 328.911 53.2804 329.459 52.9631C330.017 52.6362 330.671 52.4727 331.421 52.4727C332.122 52.4727 332.743 52.6266 333.281 52.9343C333.82 53.242 334.238 53.665 334.536 54.2035C334.844 54.7323 334.997 55.3237 334.997 55.9775C334.997 56.0833 334.993 56.1939 334.983 56.3093C334.983 56.4247 334.978 56.5448 334.969 56.6698H329.531C329.57 57.2275 329.762 57.665 330.108 57.9823C330.464 58.2997 330.892 58.4583 331.392 58.4583C331.767 58.4583 332.079 58.3766 332.329 58.2131C332.589 58.04 332.781 57.8189 332.906 57.5497H334.781C334.647 58.0016 334.421 58.415 334.103 58.79C333.796 59.1554 333.411 59.4439 332.949 59.6554C332.497 59.867 331.983 59.9727 331.406 59.9727ZM331.421 53.9727C330.969 53.9727 330.57 54.1025 330.223 54.3622C329.877 54.6122 329.656 54.9968 329.56 55.516H333.122C333.094 55.0448 332.921 54.6698 332.603 54.391C332.286 54.1122 331.892 53.9727 331.421 53.9727ZM340.502 59.9727C339.964 59.9727 339.493 59.8718 339.089 59.6698C338.685 59.4679 338.358 59.1843 338.108 58.8189L337.906 59.7997H336.262V49.415H338.108V53.6698C338.339 53.3525 338.642 53.0737 339.017 52.8333C339.401 52.5929 339.896 52.4727 340.502 52.4727C341.175 52.4727 341.776 52.6362 342.305 52.9631C342.834 53.29 343.252 53.7372 343.56 54.3045C343.868 54.8718 344.021 55.516 344.021 56.2372C344.021 56.9583 343.868 57.6025 343.56 58.1698C343.252 58.7275 342.834 59.1698 342.305 59.4968C341.776 59.8141 341.175 59.9727 340.502 59.9727ZM340.113 58.3573C340.699 58.3573 341.185 58.1602 341.569 57.766C341.954 57.3718 342.146 56.8622 342.146 56.2372C342.146 55.6122 341.954 55.0977 341.569 54.6939C341.185 54.29 340.699 54.0881 340.113 54.0881C339.517 54.0881 339.026 54.29 338.642 54.6939C338.267 55.0881 338.079 55.5977 338.079 56.2227C338.079 56.8477 338.267 57.3622 338.642 57.766C339.026 58.1602 339.517 58.3573 340.113 58.3573ZM348.728 59.9727C348.065 59.9727 347.464 59.8573 346.925 59.6266C346.387 59.3862 345.954 59.0208 345.627 58.5304C345.3 58.04 345.127 57.4247 345.108 56.6843H346.925C346.935 57.1747 347.094 57.5881 347.401 57.9247C347.719 58.2516 348.161 58.415 348.728 58.415C349.267 58.415 349.68 58.266 349.969 57.9679C350.257 57.6698 350.401 57.2948 350.401 56.8429C350.401 56.3141 350.209 55.915 349.824 55.6458C349.449 55.367 348.964 55.2275 348.368 55.2275H347.618V53.7131H348.382C348.872 53.7131 349.281 53.5977 349.608 53.367C349.935 53.1362 350.098 52.7948 350.098 52.3429C350.098 51.9679 349.973 51.6698 349.723 51.4487C349.483 51.2179 349.147 51.1025 348.714 51.1025C348.243 51.1025 347.872 51.242 347.603 51.5208C347.344 51.7997 347.199 52.141 347.171 52.5448H345.368C345.406 51.6122 345.728 50.8766 346.334 50.3381C346.949 49.7997 347.743 49.5304 348.714 49.5304C349.406 49.5304 349.988 49.6554 350.459 49.9054C350.94 50.1458 351.3 50.4679 351.541 50.8718C351.791 51.2756 351.916 51.7227 351.916 52.2131C351.916 52.7804 351.757 53.2612 351.44 53.6554C351.132 54.04 350.747 54.2997 350.286 54.4343C350.853 54.5497 351.315 54.8285 351.671 55.2708C352.026 55.7035 352.204 56.2516 352.204 56.915C352.204 57.4727 352.07 57.9823 351.8 58.4439C351.531 58.9054 351.137 59.2756 350.618 59.5545C350.108 59.8333 349.478 59.9727 348.728 59.9727Z" fill="#546162"/>
</g>
<g filter="url(#filter2_d_711_7578)">
<mask id="path-7-inside-3_711_7578" fill="white">
<path d="M401 46.7996C401 21.4795 421.526 0.953491 446.846 0.953491H566.385C591.705 0.953491 612.231 21.4795 612.231 46.7996C612.231 72.1198 591.705 92.6458 566.385 92.6458H446.846C421.526 92.6458 401 72.1198 401 46.7996Z"/>
</mask>
<path d="M401 0.953491H612.231H401ZM612.231 46.7996C612.231 72.6721 591.257 93.6458 565.385 93.6458H447.846C421.974 93.6458 401 72.6721 401 46.7996C401 71.5675 421.526 91.6458 446.846 91.6458H566.385C591.705 91.6458 612.231 71.5675 612.231 46.7996ZM401 92.6458V0.953491V92.6458ZM612.231 0.953491V92.6458V0.953491Z" fill="#EF1FCE" mask="url(#path-7-inside-3_711_7578)"/>
<path d="M443.746 42.7997V32.7035H450.338V34.1891H445.592V36.9583H449.905V38.4006H445.592V41.3141H450.338V42.7997H443.746ZM454.219 42.9727C453.604 42.9727 453.099 42.8766 452.705 42.6843C452.311 42.4823 452.017 42.2179 451.825 41.891C451.633 41.5641 451.537 41.2035 451.537 40.8093C451.537 40.1458 451.796 39.6073 452.315 39.1939C452.835 38.7804 453.613 38.5737 454.652 38.5737H456.469V38.4006C456.469 37.9102 456.33 37.5497 456.051 37.3189C455.772 37.0881 455.426 36.9727 455.012 36.9727C454.637 36.9727 454.311 37.0641 454.032 37.2468C453.753 37.4198 453.58 37.6795 453.512 38.0256H451.71C451.758 37.5064 451.931 37.0545 452.229 36.6698C452.537 36.2852 452.931 35.992 453.412 35.79C453.892 35.5785 454.431 35.4727 455.027 35.4727C456.046 35.4727 456.849 35.7275 457.436 36.2372C458.022 36.7468 458.315 37.4679 458.315 38.4006V42.7997H456.743L456.57 41.6458C456.359 42.0304 456.061 42.3477 455.676 42.5977C455.301 42.8477 454.815 42.9727 454.219 42.9727ZM454.637 41.5304C455.166 41.5304 455.575 41.3573 455.863 41.0112C456.162 40.665 456.349 40.2372 456.426 39.7275H454.854C454.363 39.7275 454.012 39.8189 453.801 40.0016C453.589 40.1747 453.484 40.391 453.484 40.6506C453.484 40.9295 453.589 41.1458 453.801 41.2997C454.012 41.4535 454.291 41.5304 454.637 41.5304ZM462.745 42.9727C462.111 42.9727 461.553 42.8718 461.072 42.6698C460.592 42.4583 460.207 42.1698 459.918 41.8045C459.63 41.4391 459.457 41.016 459.399 40.5352H461.26C461.317 40.8141 461.471 41.0545 461.721 41.2564C461.981 41.4487 462.313 41.5448 462.717 41.5448C463.12 41.5448 463.414 41.4631 463.596 41.2997C463.789 41.1362 463.885 40.9487 463.885 40.7372C463.885 40.4295 463.75 40.2227 463.481 40.117C463.212 40.0016 462.837 39.891 462.356 39.7852C462.048 39.7179 461.736 39.6362 461.418 39.54C461.101 39.4439 460.808 39.3237 460.539 39.1795C460.279 39.0256 460.067 38.8333 459.904 38.6025C459.741 38.3622 459.659 38.0689 459.659 37.7227C459.659 37.0881 459.909 36.5545 460.409 36.1218C460.918 35.6891 461.63 35.4727 462.543 35.4727C463.39 35.4727 464.063 35.6698 464.563 36.0641C465.072 36.4583 465.375 37.0016 465.471 37.6939H463.726C463.62 37.165 463.221 36.9006 462.529 36.9006C462.183 36.9006 461.914 36.9679 461.721 37.1025C461.539 37.2372 461.447 37.4054 461.447 37.6073C461.447 37.8189 461.587 37.9872 461.866 38.1122C462.144 38.2372 462.515 38.3525 462.976 38.4583C463.476 38.5737 463.933 38.7035 464.346 38.8477C464.769 38.9823 465.106 39.1891 465.356 39.4679C465.606 39.7372 465.731 40.1266 465.731 40.6362C465.741 41.0785 465.625 41.4775 465.385 41.8333C465.144 42.1891 464.798 42.4679 464.346 42.6698C463.894 42.8718 463.361 42.9727 462.745 42.9727ZM467.592 45.9727L469.251 42.3237H468.818L466.034 35.6458H468.039L470.044 40.6795L472.135 35.6458H474.097L469.553 45.9727H467.592ZM478.207 42.7997V32.7035H480.053V42.7997H478.207ZM481.678 42.7997V35.6458H483.308L483.452 36.8573C483.673 36.4343 483.99 36.0977 484.404 35.8477C484.827 35.5977 485.322 35.4727 485.889 35.4727C486.774 35.4727 487.462 35.7516 487.952 36.3093C488.442 36.867 488.688 37.6843 488.688 38.7612V42.7997H486.841V38.9343C486.841 38.3189 486.716 37.8477 486.466 37.5208C486.216 37.1939 485.827 37.0304 485.298 37.0304C484.779 37.0304 484.351 37.2131 484.014 37.5785C483.688 37.9439 483.524 38.4535 483.524 39.1073V42.7997H481.678ZM492.027 42.7997L489.402 35.6458H491.334L493.152 41.0545L494.969 35.6458H496.902L494.262 42.7997H492.027ZM500.902 42.9727C500.18 42.9727 499.541 42.8189 498.983 42.5112C498.426 42.2035 497.988 41.7708 497.671 41.2131C497.353 40.6554 497.195 40.0112 497.195 39.2804C497.195 38.54 497.349 37.8814 497.656 37.3045C497.974 36.7275 498.406 36.2804 498.954 35.9631C499.512 35.6362 500.166 35.4727 500.916 35.4727C501.618 35.4727 502.238 35.6266 502.777 35.9343C503.315 36.242 503.733 36.665 504.031 37.2035C504.339 37.7323 504.493 38.3237 504.493 38.9775C504.493 39.0833 504.488 39.1939 504.478 39.3093C504.478 39.4247 504.474 39.5448 504.464 39.6698H499.027C499.065 40.2275 499.257 40.665 499.603 40.9823C499.959 41.2997 500.387 41.4583 500.887 41.4583C501.262 41.4583 501.575 41.3766 501.825 41.2131C502.084 41.04 502.277 40.8189 502.402 40.5497H504.277C504.142 41.0016 503.916 41.415 503.599 41.79C503.291 42.1554 502.906 42.4439 502.445 42.6554C501.993 42.867 501.478 42.9727 500.902 42.9727ZM500.916 36.9727C500.464 36.9727 500.065 37.1025 499.719 37.3622C499.373 37.6122 499.152 37.9968 499.055 38.516H502.618C502.589 38.0448 502.416 37.6698 502.099 37.391C501.781 37.1122 501.387 36.9727 500.916 36.9727ZM508.714 42.9727C508.079 42.9727 507.522 42.8718 507.041 42.6698C506.56 42.4583 506.175 42.1698 505.887 41.8045C505.598 41.4391 505.425 41.016 505.368 40.5352H507.228C507.286 40.8141 507.44 41.0545 507.69 41.2564C507.949 41.4487 508.281 41.5448 508.685 41.5448C509.089 41.5448 509.382 41.4631 509.565 41.2997C509.757 41.1362 509.853 40.9487 509.853 40.7372C509.853 40.4295 509.719 40.2227 509.449 40.117C509.18 40.0016 508.805 39.891 508.324 39.7852C508.017 39.7179 507.704 39.6362 507.387 39.54C507.07 39.4439 506.776 39.3237 506.507 39.1795C506.248 39.0256 506.036 38.8333 505.873 38.6025C505.709 38.3622 505.627 38.0689 505.627 37.7227C505.627 37.0881 505.877 36.5545 506.377 36.1218C506.887 35.6891 507.598 35.4727 508.512 35.4727C509.358 35.4727 510.031 35.6698 510.531 36.0641C511.041 36.4583 511.344 37.0016 511.44 37.6939H509.695C509.589 37.165 509.19 36.9006 508.498 36.9006C508.151 36.9006 507.882 36.9679 507.69 37.1025C507.507 37.2372 507.416 37.4054 507.416 37.6073C507.416 37.8189 507.555 37.9872 507.834 38.1122C508.113 38.2372 508.483 38.3525 508.945 38.4583C509.445 38.5737 509.901 38.7035 510.315 38.8477C510.738 38.9823 511.074 39.1891 511.324 39.4679C511.574 39.7372 511.699 40.1266 511.699 40.6362C511.709 41.0785 511.594 41.4775 511.353 41.8333C511.113 42.1891 510.767 42.4679 510.315 42.6698C509.863 42.8718 509.329 42.9727 508.714 42.9727ZM516.009 42.7997C515.259 42.7997 514.658 42.617 514.206 42.2516C513.754 41.8862 513.528 41.2372 513.528 40.3045V37.1891H512.302V35.6458H513.528L513.744 33.7275H515.374V35.6458H517.307V37.1891H515.374V40.3189C515.374 40.665 515.446 40.9054 515.59 41.04C515.744 41.165 516.004 41.2275 516.369 41.2275H517.263V42.7997H516.009ZM519.598 34.5352C519.262 34.5352 518.983 34.4343 518.762 34.2323C518.55 34.0304 518.445 33.7756 518.445 33.4679C518.445 33.1602 518.55 32.9102 518.762 32.7179C518.983 32.516 519.262 32.415 519.598 32.415C519.935 32.415 520.209 32.516 520.421 32.7179C520.642 32.9102 520.752 33.1602 520.752 33.4679C520.752 33.7756 520.642 34.0304 520.421 34.2323C520.209 34.4343 519.935 34.5352 519.598 34.5352ZM518.675 42.7997V35.6458H520.522V42.7997H518.675ZM522.16 42.7997V35.6458H523.79L523.934 36.8573C524.155 36.4343 524.473 36.0977 524.886 35.8477C525.309 35.5977 525.804 35.4727 526.372 35.4727C527.256 35.4727 527.944 35.7516 528.434 36.3093C528.924 36.867 529.17 37.6843 529.17 38.7612V42.7997H527.323V38.9343C527.323 38.3189 527.198 37.8477 526.948 37.5208C526.698 37.1939 526.309 37.0304 525.78 37.0304C525.261 37.0304 524.833 37.2131 524.497 37.5785C524.17 37.9439 524.006 38.4535 524.006 39.1073V42.7997H522.16ZM533.675 40.665C533.329 40.665 533.007 40.6266 532.709 40.5497L532.175 41.0833C532.339 41.1698 532.56 41.242 532.839 41.2997C533.118 41.3573 533.57 41.415 534.195 41.4727C535.147 41.5593 535.839 41.7852 536.272 42.1506C536.704 42.516 536.921 43.0208 536.921 43.665C536.921 44.0881 536.805 44.4872 536.574 44.8622C536.344 45.2468 535.988 45.5545 535.507 45.7852C535.026 46.0256 534.411 46.1458 533.661 46.1458C532.642 46.1458 531.82 45.9535 531.195 45.5689C530.57 45.1939 530.257 44.6266 530.257 43.867C530.257 43.2227 530.57 42.665 531.195 42.1939C531.002 42.1073 530.834 42.016 530.69 41.9198C530.555 41.8237 530.435 41.7227 530.329 41.617V41.2852L531.584 39.9583C531.026 39.4679 530.747 38.8381 530.747 38.0689C530.747 37.5881 530.863 37.1506 531.094 36.7564C531.334 36.3622 531.671 36.0497 532.103 35.8189C532.536 35.5881 533.06 35.4727 533.675 35.4727C534.079 35.4727 534.454 35.5304 534.8 35.6458H537.512V36.7708L536.286 36.8573C536.478 37.2227 536.574 37.6266 536.574 38.0689C536.574 38.5497 536.459 38.9872 536.228 39.3814C535.997 39.7756 535.661 40.0881 535.219 40.3189C534.786 40.5497 534.272 40.665 533.675 40.665ZM533.675 39.2516C534.05 39.2516 534.358 39.1506 534.598 38.9487C534.848 38.7468 534.973 38.4583 534.973 38.0833C534.973 37.7083 534.848 37.4198 534.598 37.2179C534.358 37.016 534.05 36.915 533.675 36.915C533.281 36.915 532.964 37.016 532.723 37.2179C532.483 37.4198 532.363 37.7083 532.363 38.0833C532.363 38.4583 532.483 38.7468 532.723 38.9487C532.964 39.1506 533.281 39.2516 533.675 39.2516ZM531.945 43.6795C531.945 44.0352 532.108 44.2997 532.435 44.4727C532.772 44.6554 533.18 44.7468 533.661 44.7468C534.122 44.7468 534.497 44.6506 534.786 44.4583C535.074 44.2756 535.219 44.0256 535.219 43.7083C535.219 43.4487 535.122 43.2323 534.93 43.0593C534.747 42.8862 534.377 42.7804 533.82 42.742C533.425 42.7131 533.06 42.6698 532.723 42.6122C532.445 42.766 532.243 42.9343 532.118 43.117C532.002 43.2997 531.945 43.4872 531.945 43.6795ZM541.761 42.7997V32.7035H545.208C546.391 32.7035 547.362 32.915 548.122 33.3381C548.891 33.7516 549.458 34.3381 549.824 35.0977C550.199 35.8477 550.386 36.7323 550.386 37.7516C550.386 38.7708 550.199 39.6602 549.824 40.4198C549.458 41.1698 548.891 41.7564 548.122 42.1795C547.362 42.5929 546.391 42.7997 545.208 42.7997H541.761ZM543.607 41.2131H545.122C545.968 41.2131 546.636 41.0785 547.127 40.8093C547.617 40.5304 547.968 40.1362 548.179 39.6266C548.391 39.1073 548.497 38.4823 548.497 37.7516C548.497 37.0304 548.391 36.4102 548.179 35.891C547.968 35.3718 547.617 34.9727 547.127 34.6939C546.636 34.415 545.968 34.2756 545.122 34.2756H543.607V41.2131ZM550.43 42.7997L554.122 32.7035H556.199L559.891 42.7997H557.93L557.122 40.4631H553.185L552.362 42.7997H550.43ZM553.689 39.0208H556.617L555.146 34.8237L553.689 39.0208ZM565.057 42.9727C564.047 42.9727 563.162 42.7516 562.403 42.3093C561.653 41.867 561.061 41.2564 560.629 40.4775C560.206 39.6891 559.994 38.7804 559.994 37.7516C559.994 36.7227 560.206 35.8189 560.629 35.04C561.061 34.2516 561.653 33.6362 562.403 33.1939C563.162 32.7516 564.047 32.5304 565.057 32.5304C566.057 32.5304 566.936 32.7516 567.696 33.1939C568.456 33.6362 569.047 34.2516 569.47 35.04C569.893 35.8189 570.105 36.7227 570.105 37.7516C570.105 38.7804 569.893 39.6891 569.47 40.4775C569.047 41.2564 568.456 41.867 567.696 42.3093C566.936 42.7516 566.057 42.9727 565.057 42.9727ZM565.057 41.3141C566.018 41.3141 566.783 40.9968 567.35 40.3622C567.927 39.7275 568.215 38.8573 568.215 37.7516C568.215 36.6458 567.927 35.7756 567.35 35.141C566.783 34.5064 566.018 34.1891 565.057 34.1891C564.095 34.1891 563.326 34.5064 562.749 35.141C562.172 35.7756 561.884 36.6458 561.884 37.7516C561.884 38.8573 562.172 39.7275 562.749 40.3622C563.326 40.9968 564.095 41.3141 565.057 41.3141ZM456.494 59.9727C455.879 59.9727 455.374 59.8766 454.98 59.6843C454.586 59.4823 454.292 59.2179 454.1 58.891C453.908 58.5641 453.812 58.2035 453.812 57.8093C453.812 57.1458 454.071 56.6073 454.59 56.1939C455.11 55.7804 455.888 55.5737 456.927 55.5737H458.744V55.4006C458.744 54.9102 458.605 54.5497 458.326 54.3189C458.047 54.0881 457.701 53.9727 457.287 53.9727C456.912 53.9727 456.586 54.0641 456.307 54.2468C456.028 54.4198 455.855 54.6795 455.787 55.0256H453.985C454.033 54.5064 454.206 54.0545 454.504 53.6698C454.812 53.2852 455.206 52.992 455.687 52.79C456.167 52.5785 456.706 52.4727 457.302 52.4727C458.321 52.4727 459.124 52.7275 459.711 53.2372C460.297 53.7468 460.59 54.4679 460.59 55.4006V59.7997H459.018L458.845 58.6458C458.634 59.0304 458.336 59.3477 457.951 59.5977C457.576 59.8477 457.09 59.9727 456.494 59.9727ZM456.912 58.5304C457.441 58.5304 457.85 58.3573 458.138 58.0112C458.437 57.665 458.624 57.2372 458.701 56.7275H457.129C456.638 56.7275 456.287 56.8189 456.076 57.0016C455.864 57.1747 455.759 57.391 455.759 57.6506C455.759 57.9295 455.864 58.1458 456.076 58.2997C456.287 58.4535 456.566 58.5304 456.912 58.5304ZM462.064 59.7997V52.6458H463.693L463.838 53.8573C464.059 53.4343 464.376 53.0977 464.79 52.8477C465.213 52.5977 465.708 52.4727 466.275 52.4727C467.16 52.4727 467.847 52.7516 468.338 53.3093C468.828 53.867 469.073 54.6843 469.073 55.7612V59.7997H467.227V55.9343C467.227 55.3189 467.102 54.8477 466.852 54.5208C466.602 54.1939 466.213 54.0304 465.684 54.0304C465.165 54.0304 464.737 54.2131 464.4 54.5785C464.073 54.9439 463.91 55.4535 463.91 56.1073V59.7997H462.064ZM473.839 59.9727C473.166 59.9727 472.565 59.8093 472.036 59.4823C471.507 59.1554 471.089 58.7083 470.781 58.141C470.473 57.5737 470.319 56.9295 470.319 56.2083C470.319 55.4872 470.473 54.8477 470.781 54.29C471.089 53.7227 471.507 53.2804 472.036 52.9631C472.565 52.6362 473.166 52.4727 473.839 52.4727C474.377 52.4727 474.848 52.5737 475.252 52.7756C475.656 52.9775 475.983 53.2612 476.233 53.6266V49.415H478.079V59.7997H476.435L476.233 58.7756C476.002 59.0929 475.694 59.3718 475.31 59.6122C474.935 59.8525 474.444 59.9727 473.839 59.9727ZM474.228 58.3573C474.824 58.3573 475.31 58.1602 475.685 57.766C476.069 57.3622 476.262 56.8477 476.262 56.2227C476.262 55.5977 476.069 55.0881 475.685 54.6939C475.31 54.29 474.824 54.0881 474.228 54.0881C473.642 54.0881 473.156 54.2852 472.771 54.6795C472.387 55.0737 472.194 55.5833 472.194 56.2083C472.194 56.8333 472.387 57.3477 472.771 57.7516C473.156 58.1554 473.642 58.3573 474.228 58.3573ZM482.862 59.7997V49.7035H484.708V58.3573H489.179V59.7997H482.862ZM493.626 59.9727C492.905 59.9727 492.266 59.8189 491.708 59.5112C491.15 59.2035 490.713 58.7708 490.396 58.2131C490.078 57.6554 489.92 57.0112 489.92 56.2804C489.92 55.54 490.073 54.8814 490.381 54.3045C490.698 53.7275 491.131 53.2804 491.679 52.9631C492.237 52.6362 492.891 52.4727 493.641 52.4727C494.343 52.4727 494.963 52.6266 495.501 52.9343C496.04 53.242 496.458 53.665 496.756 54.2035C497.064 54.7323 497.218 55.3237 497.218 55.9775C497.218 56.0833 497.213 56.1939 497.203 56.3093C497.203 56.4247 497.198 56.5448 497.189 56.6698H491.751C491.79 57.2275 491.982 57.665 492.328 57.9823C492.684 58.2997 493.112 58.4583 493.612 58.4583C493.987 58.4583 494.299 58.3766 494.549 58.2131C494.809 58.04 495.001 57.8189 495.126 57.5497H497.001C496.867 58.0016 496.641 58.415 496.323 58.79C496.016 59.1554 495.631 59.4439 495.17 59.6554C494.718 59.867 494.203 59.9727 493.626 59.9727ZM493.641 53.9727C493.189 53.9727 492.79 54.1025 492.444 54.3622C492.097 54.6122 491.876 54.9968 491.78 55.516H495.343C495.314 55.0448 495.141 54.6698 494.823 54.391C494.506 54.1122 494.112 53.9727 493.641 53.9727ZM501.356 57.665C501.01 57.665 500.688 57.6266 500.389 57.5497L499.856 58.0833C500.019 58.1698 500.24 58.242 500.519 58.2997C500.798 58.3573 501.25 58.415 501.875 58.4727C502.827 58.5593 503.519 58.7852 503.952 59.1506C504.385 59.516 504.601 60.0208 504.601 60.665C504.601 61.0881 504.486 61.4872 504.255 61.8622C504.024 62.2468 503.668 62.5545 503.188 62.7852C502.707 63.0256 502.091 63.1458 501.341 63.1458C500.322 63.1458 499.5 62.9535 498.875 62.5689C498.25 62.1939 497.938 61.6266 497.938 60.867C497.938 60.2227 498.25 59.665 498.875 59.1939C498.683 59.1073 498.514 59.016 498.37 58.9198C498.236 58.8237 498.115 58.7227 498.01 58.617V58.2852L499.264 56.9583C498.707 56.4679 498.428 55.8381 498.428 55.0689C498.428 54.5881 498.543 54.1506 498.774 53.7564C499.014 53.3622 499.351 53.0497 499.784 52.8189C500.216 52.5881 500.74 52.4727 501.356 52.4727C501.76 52.4727 502.135 52.5304 502.481 52.6458H505.192V53.7708L503.966 53.8573C504.159 54.2227 504.255 54.6266 504.255 55.0689C504.255 55.5497 504.139 55.9872 503.909 56.3814C503.678 56.7756 503.341 57.0881 502.899 57.3189C502.466 57.5497 501.952 57.665 501.356 57.665ZM501.356 56.2516C501.731 56.2516 502.039 56.1506 502.279 55.9487C502.529 55.7468 502.654 55.4583 502.654 55.0833C502.654 54.7083 502.529 54.4198 502.279 54.2179C502.039 54.016 501.731 53.915 501.356 53.915C500.962 53.915 500.644 54.016 500.404 54.2179C500.164 54.4198 500.043 54.7083 500.043 55.0833C500.043 55.4583 500.164 55.7468 500.404 55.9487C500.644 56.1506 500.962 56.2516 501.356 56.2516ZM499.625 60.6795C499.625 61.0352 499.789 61.2997 500.115 61.4727C500.452 61.6554 500.861 61.7468 501.341 61.7468C501.803 61.7468 502.178 61.6506 502.466 61.4583C502.755 61.2756 502.899 61.0256 502.899 60.7083C502.899 60.4487 502.803 60.2323 502.611 60.0593C502.428 59.8862 502.058 59.7804 501.5 59.742C501.106 59.7131 500.74 59.6698 500.404 59.6122C500.125 59.766 499.923 59.9343 499.798 60.117C499.683 60.2997 499.625 60.4872 499.625 60.6795ZM508.716 59.9727C508.101 59.9727 507.596 59.8766 507.202 59.6843C506.808 59.4823 506.515 59.2179 506.322 58.891C506.13 58.5641 506.034 58.2035 506.034 57.8093C506.034 57.1458 506.293 56.6073 506.813 56.1939C507.332 55.7804 508.111 55.5737 509.149 55.5737H510.966V55.4006C510.966 54.9102 510.827 54.5497 510.548 54.3189C510.269 54.0881 509.923 53.9727 509.51 53.9727C509.135 53.9727 508.808 54.0641 508.529 54.2468C508.25 54.4198 508.077 54.6795 508.01 55.0256H506.207C506.255 54.5064 506.428 54.0545 506.726 53.6698C507.034 53.2852 507.428 52.992 507.909 52.79C508.39 52.5785 508.928 52.4727 509.524 52.4727C510.543 52.4727 511.346 52.7275 511.933 53.2372C512.519 53.7468 512.813 54.4679 512.813 55.4006V59.7997H511.24L511.067 58.6458C510.856 59.0304 510.558 59.3477 510.173 59.5977C509.798 59.8477 509.313 59.9727 508.716 59.9727ZM509.135 58.5304C509.664 58.5304 510.072 58.3573 510.361 58.0112C510.659 57.665 510.846 57.2372 510.923 56.7275H509.351C508.861 56.7275 508.51 56.8189 508.298 57.0016C508.087 57.1747 507.981 57.391 507.981 57.6506C507.981 57.9295 508.087 58.1458 508.298 58.2997C508.51 58.4535 508.789 58.5304 509.135 58.5304ZM514.286 59.7997V49.415H516.132V59.7997H514.286ZM524.369 59.9727C523.628 59.9727 522.974 59.8477 522.407 59.5977C521.84 59.3381 521.393 58.9727 521.066 58.5016C520.739 58.0208 520.571 57.4391 520.561 56.7564H522.508C522.527 57.2275 522.696 57.6266 523.013 57.9535C523.34 58.2708 523.787 58.4295 524.354 58.4295C524.845 58.4295 525.234 58.3141 525.522 58.0833C525.811 57.8429 525.955 57.5256 525.955 57.1314C525.955 56.7179 525.825 56.3958 525.566 56.165C525.316 55.9343 524.979 55.7468 524.556 55.6025C524.133 55.4583 523.681 55.3045 523.2 55.141C522.422 54.8718 521.825 54.5256 521.412 54.1025C521.008 53.6795 520.806 53.117 520.806 52.415C520.797 51.8189 520.936 51.3093 521.224 50.8862C521.522 50.4535 521.926 50.1218 522.436 49.891C522.946 49.6506 523.532 49.5304 524.196 49.5304C524.869 49.5304 525.46 49.6506 525.97 49.891C526.489 50.1314 526.893 50.4679 527.181 50.9006C527.479 51.3333 527.638 51.8477 527.657 52.4439H525.681C525.672 52.0881 525.532 51.7756 525.263 51.5064C525.003 51.2275 524.638 51.0881 524.167 51.0881C523.763 51.0785 523.422 51.1795 523.143 51.391C522.873 51.5929 522.739 51.891 522.739 52.2852C522.739 52.6218 522.845 52.891 523.056 53.0929C523.268 53.2852 523.556 53.4487 523.922 53.5833C524.287 53.7179 524.705 53.8622 525.176 54.016C525.676 54.1891 526.133 54.391 526.547 54.6218C526.96 54.8525 527.292 55.1602 527.542 55.5448C527.792 55.9198 527.917 56.4054 527.917 57.0016C527.917 57.5304 527.782 58.0208 527.513 58.4727C527.244 58.9247 526.845 59.29 526.316 59.5689C525.787 59.8381 525.138 59.9727 524.369 59.9727ZM532.672 59.9727C531.951 59.9727 531.311 59.8189 530.753 59.5112C530.196 59.2035 529.758 58.7708 529.441 58.2131C529.124 57.6554 528.965 57.0112 528.965 56.2804C528.965 55.54 529.119 54.8814 529.427 54.3045C529.744 53.7275 530.177 53.2804 530.725 52.9631C531.282 52.6362 531.936 52.4727 532.686 52.4727C533.388 52.4727 534.008 52.6266 534.547 52.9343C535.085 53.242 535.503 53.665 535.802 54.2035C536.109 54.7323 536.263 55.3237 536.263 55.9775C536.263 56.0833 536.258 56.1939 536.249 56.3093C536.249 56.4247 536.244 56.5448 536.234 56.6698H530.797C530.835 57.2275 531.027 57.665 531.374 57.9823C531.729 58.2997 532.157 58.4583 532.657 58.4583C533.032 58.4583 533.345 58.3766 533.595 58.2131C533.854 58.04 534.047 57.8189 534.172 57.5497H536.047C535.912 58.0016 535.686 58.415 535.369 58.79C535.061 59.1554 534.677 59.4439 534.215 59.6554C533.763 59.867 533.249 59.9727 532.672 59.9727ZM532.686 53.9727C532.234 53.9727 531.835 54.1025 531.489 54.3622C531.143 54.6122 530.922 54.9968 530.826 55.516H534.388C534.359 55.0448 534.186 54.6698 533.869 54.391C533.552 54.1122 533.157 53.9727 532.686 53.9727ZM540.588 59.7997C539.838 59.7997 539.237 59.617 538.785 59.2516C538.333 58.8862 538.107 58.2372 538.107 57.3045V54.1891H536.881V52.6458H538.107L538.324 50.7275H539.953V52.6458H541.886V54.1891H539.953V57.3189C539.953 57.665 540.026 57.9054 540.17 58.04C540.324 58.165 540.583 58.2275 540.949 58.2275H541.843V59.7997H540.588ZM545.865 59.9727C544.971 59.9727 544.279 59.6939 543.789 59.1362C543.308 58.5785 543.067 57.7612 543.067 56.6843V52.6458H544.899V56.5112C544.899 57.1266 545.024 57.5977 545.274 57.9247C545.524 58.2516 545.918 58.415 546.457 58.415C546.966 58.415 547.385 58.2323 547.712 57.867C548.048 57.5016 548.216 56.992 548.216 56.3381V52.6458H550.063V59.7997H548.433L548.289 58.5881C548.067 59.0112 547.745 59.3477 547.322 59.5977C546.909 59.8477 546.423 59.9727 545.865 59.9727ZM551.669 62.9727V52.6458H553.314L553.515 53.6698C553.746 53.3525 554.049 53.0737 554.424 52.8333C554.809 52.5929 555.304 52.4727 555.91 52.4727C556.583 52.4727 557.184 52.6362 557.713 52.9631C558.241 53.29 558.66 53.7372 558.967 54.3045C559.275 54.8718 559.429 55.516 559.429 56.2372C559.429 56.9583 559.275 57.6025 558.967 58.1698C558.66 58.7275 558.241 59.1698 557.713 59.4968C557.184 59.8141 556.583 59.9727 555.91 59.9727C555.371 59.9727 554.9 59.8718 554.496 59.6698C554.092 59.4679 553.765 59.1843 553.515 58.8189V62.9727H551.669ZM555.52 58.3573C556.107 58.3573 556.592 58.1602 556.977 57.766C557.362 57.3718 557.554 56.8622 557.554 56.2372C557.554 55.6122 557.362 55.0977 556.977 54.6939C556.592 54.29 556.107 54.0881 555.52 54.0881C554.924 54.0881 554.434 54.29 554.049 54.6939C553.674 55.0881 553.487 55.5977 553.487 56.2227C553.487 56.8477 553.674 57.3622 554.049 57.766C554.434 58.1602 554.924 58.3573 555.52 58.3573Z" fill="#546162"/>
</g>
<g filter="url(#filter3_d_711_7578)">
<mask id="path-10-inside-4_711_7578" fill="white">
<path d="M612.231 46.7996C612.231 21.4795 632.757 0.953491 658.077 0.953491H778.616C803.936 0.953491 824.462 21.4795 824.462 46.7996C824.462 72.1198 803.936 92.6458 778.616 92.6458H658.077C632.757 92.6458 612.231 72.1198 612.231 46.7996Z"/>
</mask>
<path d="M612.231 46.7996C612.231 20.9272 633.205 -0.0465088 659.077 -0.0465088H777.616C803.488 -0.0465088 824.462 20.9272 824.462 46.7996C824.462 22.0318 803.936 1.95349 778.616 1.95349H658.077C632.757 1.95349 612.231 22.0318 612.231 46.7996ZM824.462 92.6458H612.231H824.462ZM612.231 92.6458V0.953491V92.6458ZM824.462 0.953491V92.6458V0.953491Z" fill="#0A94E2" mask="url(#path-10-inside-4_711_7578)"/>
<path d="M660.838 42.9727C659.819 42.9727 658.944 42.7564 658.213 42.3237C657.483 41.8814 656.92 41.2708 656.526 40.492C656.132 39.7035 655.935 38.7948 655.935 37.766C655.935 36.7372 656.132 35.8285 656.526 35.04C656.92 34.2516 657.483 33.6362 658.213 33.1939C658.944 32.7516 659.819 32.5304 660.838 32.5304C662.05 32.5304 663.04 32.8333 663.81 33.4391C664.588 34.0352 665.074 34.8766 665.266 35.9631H663.233C663.108 35.415 662.838 34.9872 662.425 34.6795C662.021 34.3622 661.483 34.2035 660.81 34.2035C659.877 34.2035 659.146 34.5208 658.617 35.1554C658.088 35.79 657.824 36.6602 657.824 37.766C657.824 38.8718 658.088 39.742 658.617 40.3766C659.146 41.0016 659.877 41.3141 660.81 41.3141C661.483 41.3141 662.021 41.1698 662.425 40.8814C662.838 40.5833 663.108 40.1747 663.233 39.6554H665.266C665.074 40.6939 664.588 41.5064 663.81 42.0929C663.04 42.6795 662.05 42.9727 660.838 42.9727ZM670.001 42.9727C669.309 42.9727 668.684 42.8141 668.126 42.4968C667.578 42.1795 667.141 41.742 666.814 41.1843C666.497 40.617 666.338 39.9631 666.338 39.2227C666.338 38.4823 666.501 37.8333 666.828 37.2756C667.155 36.7083 667.593 36.266 668.141 35.9487C668.699 35.6314 669.324 35.4727 670.016 35.4727C670.699 35.4727 671.314 35.6314 671.862 35.9487C672.42 36.266 672.857 36.7083 673.174 37.2756C673.501 37.8333 673.665 38.4823 673.665 39.2227C673.665 39.9631 673.501 40.617 673.174 41.1843C672.857 41.742 672.42 42.1795 671.862 42.4968C671.304 42.8141 670.684 42.9727 670.001 42.9727ZM670.001 41.3718C670.482 41.3718 670.9 41.1939 671.256 40.8381C671.612 40.4727 671.79 39.9343 671.79 39.2227C671.79 38.5112 671.612 37.9775 671.256 37.6218C670.9 37.2564 670.487 37.0737 670.016 37.0737C669.525 37.0737 669.102 37.2564 668.747 37.6218C668.4 37.9775 668.227 38.5112 668.227 39.2227C668.227 39.9343 668.4 40.4727 668.747 40.8381C669.102 41.1939 669.521 41.3718 670.001 41.3718ZM675.027 42.7997V35.6458H676.657L676.816 36.6122C677.046 36.266 677.349 35.992 677.724 35.79C678.109 35.5785 678.551 35.4727 679.051 35.4727C680.157 35.4727 680.941 35.9006 681.402 36.7564C681.662 36.3622 682.008 36.0497 682.441 35.8189C682.883 35.5881 683.364 35.4727 683.883 35.4727C684.816 35.4727 685.532 35.7516 686.032 36.3093C686.532 36.867 686.782 37.6843 686.782 38.7612V42.7997H684.936V38.9343C684.936 38.3189 684.816 37.8477 684.575 37.5208C684.344 37.1939 683.984 37.0304 683.493 37.0304C682.993 37.0304 682.59 37.2131 682.282 37.5785C681.984 37.9439 681.835 38.4535 681.835 39.1073V42.7997H679.989V38.9343C679.989 38.3189 679.868 37.8477 679.628 37.5208C679.388 37.1939 679.017 37.0304 678.517 37.0304C678.027 37.0304 677.628 37.2131 677.32 37.5785C677.022 37.9439 676.873 38.4535 676.873 39.1073V42.7997H675.027ZM688.246 42.7997V35.6458H689.876L690.035 36.6122C690.265 36.266 690.568 35.992 690.943 35.79C691.328 35.5785 691.77 35.4727 692.27 35.4727C693.376 35.4727 694.16 35.9006 694.621 36.7564C694.881 36.3622 695.227 36.0497 695.66 35.8189C696.102 35.5881 696.583 35.4727 697.102 35.4727C698.035 35.4727 698.751 35.7516 699.251 36.3093C699.751 36.867 700.001 37.6843 700.001 38.7612V42.7997H698.155V38.9343C698.155 38.3189 698.035 37.8477 697.794 37.5208C697.563 37.1939 697.203 37.0304 696.712 37.0304C696.212 37.0304 695.809 37.2131 695.501 37.5785C695.203 37.9439 695.054 38.4535 695.054 39.1073V42.7997H693.208V38.9343C693.208 38.3189 693.087 37.8477 692.847 37.5208C692.607 37.1939 692.237 37.0304 691.737 37.0304C691.246 37.0304 690.847 37.2131 690.539 37.5785C690.241 37.9439 690.092 38.4535 690.092 39.1073V42.7997H688.246ZM704.148 42.9727C703.254 42.9727 702.561 42.6939 702.071 42.1362C701.59 41.5785 701.35 40.7612 701.35 39.6843V35.6458H703.182V39.5112C703.182 40.1266 703.307 40.5977 703.557 40.9247C703.807 41.2516 704.201 41.415 704.739 41.415C705.249 41.415 705.667 41.2323 705.994 40.867C706.331 40.5016 706.499 39.992 706.499 39.3381V35.6458H708.345V42.7997H706.715L706.571 41.5881C706.35 42.0112 706.028 42.3477 705.605 42.5977C705.191 42.8477 704.706 42.9727 704.148 42.9727ZM709.952 42.7997V35.6458H711.582L711.726 36.8573C711.947 36.4343 712.264 36.0977 712.678 35.8477C713.101 35.5977 713.596 35.4727 714.163 35.4727C715.048 35.4727 715.735 35.7516 716.226 36.3093C716.716 36.867 716.961 37.6843 716.961 38.7612V42.7997H715.115V38.9343C715.115 38.3189 714.99 37.8477 714.74 37.5208C714.49 37.1939 714.101 37.0304 713.572 37.0304C713.053 37.0304 712.625 37.2131 712.288 37.5785C711.961 37.9439 711.798 38.4535 711.798 39.1073V42.7997H709.952ZM719.433 34.5352C719.097 34.5352 718.818 34.4343 718.597 34.2323C718.385 34.0304 718.28 33.7756 718.28 33.4679C718.28 33.1602 718.385 32.9102 718.597 32.7179C718.818 32.516 719.097 32.415 719.433 32.415C719.77 32.415 720.044 32.516 720.256 32.7179C720.477 32.9102 720.587 33.1602 720.587 33.4679C720.587 33.7756 720.477 34.0304 720.256 34.2323C720.044 34.4343 719.77 34.5352 719.433 34.5352ZM718.51 42.7997V35.6458H720.357V42.7997H718.51ZM725.183 42.7997C724.433 42.7997 723.832 42.617 723.38 42.2516C722.928 41.8862 722.702 41.2372 722.702 40.3045V37.1891H721.476V35.6458H722.702L722.918 33.7275H724.548V35.6458H726.481V37.1891H724.548V40.3189C724.548 40.665 724.62 40.9054 724.764 41.04C724.918 41.165 725.178 41.2275 725.543 41.2275H726.437V42.7997H725.183ZM728.671 45.9727L730.33 42.3237H729.897L727.114 35.6458H729.119L731.123 40.6795L733.215 35.6458H735.176L730.633 45.9727H728.671ZM739.286 42.7997V32.7035H742.733C743.916 32.7035 744.887 32.915 745.647 33.3381C746.416 33.7516 746.983 34.3381 747.349 35.0977C747.724 35.8477 747.911 36.7323 747.911 37.7516C747.911 38.7708 747.724 39.6602 747.349 40.4198C746.983 41.1698 746.416 41.7564 745.647 42.1795C744.887 42.5929 743.916 42.7997 742.733 42.7997H739.286ZM741.132 41.2131H742.647C743.493 41.2131 744.161 41.0785 744.652 40.8093C745.142 40.5304 745.493 40.1362 745.705 39.6266C745.916 39.1073 746.022 38.4823 746.022 37.7516C746.022 37.0304 745.916 36.4102 745.705 35.891C745.493 35.3718 745.142 34.9727 744.652 34.6939C744.161 34.415 743.493 34.2756 742.647 34.2756H741.132V41.2131ZM749.208 42.7997V35.6458H750.853L751.026 36.9872C751.285 36.5256 751.636 36.1602 752.079 35.891C752.531 35.6122 753.059 35.4727 753.665 35.4727V37.4198H753.146C752.742 37.4198 752.382 37.4823 752.064 37.6073C751.747 37.7323 751.497 37.9487 751.314 38.2564C751.141 38.5641 751.055 38.992 751.055 39.54V42.7997H749.208ZM755.634 34.5352C755.297 34.5352 755.018 34.4343 754.797 34.2323C754.586 34.0304 754.48 33.7756 754.48 33.4679C754.48 33.1602 754.586 32.9102 754.797 32.7179C755.018 32.516 755.297 32.415 755.634 32.415C755.97 32.415 756.244 32.516 756.456 32.7179C756.677 32.9102 756.788 33.1602 756.788 33.4679C756.788 33.7756 756.677 34.0304 756.456 34.2323C756.244 34.4343 755.97 34.5352 755.634 34.5352ZM754.711 42.7997V35.6458H756.557V42.7997H754.711ZM760.128 42.7997L757.503 35.6458H759.436L761.253 41.0545L763.07 35.6458H765.003L762.364 42.7997H760.128ZM769.003 42.9727C768.282 42.9727 767.642 42.8189 767.084 42.5112C766.527 42.2035 766.089 41.7708 765.772 41.2131C765.455 40.6554 765.296 40.0112 765.296 39.2804C765.296 38.54 765.45 37.8814 765.758 37.3045C766.075 36.7275 766.508 36.2804 767.056 35.9631C767.613 35.6362 768.267 35.4727 769.017 35.4727C769.719 35.4727 770.339 35.6266 770.878 35.9343C771.416 36.242 771.834 36.665 772.133 37.2035C772.44 37.7323 772.594 38.3237 772.594 38.9775C772.594 39.0833 772.589 39.1939 772.58 39.3093C772.58 39.4247 772.575 39.5448 772.565 39.6698H767.128C767.166 40.2275 767.359 40.665 767.705 40.9823C768.06 41.2997 768.488 41.4583 768.988 41.4583C769.363 41.4583 769.676 41.3766 769.926 41.2131C770.185 41.04 770.378 40.8189 770.503 40.5497H772.378C772.243 41.0016 772.017 41.415 771.7 41.79C771.392 42.1554 771.008 42.4439 770.546 42.6554C770.094 42.867 769.58 42.9727 769.003 42.9727ZM769.017 36.9727C768.565 36.9727 768.166 37.1025 767.82 37.3622C767.474 37.6122 767.253 37.9968 767.157 38.516H770.719C770.69 38.0448 770.517 37.6698 770.2 37.391C769.883 37.1122 769.488 36.9727 769.017 36.9727ZM773.858 42.7997V35.6458H775.488L775.632 36.8573C775.854 36.4343 776.171 36.0977 776.584 35.8477C777.007 35.5977 777.503 35.4727 778.07 35.4727C778.955 35.4727 779.642 35.7516 780.132 36.3093C780.623 36.867 780.868 37.6843 780.868 38.7612V42.7997H779.022V38.9343C779.022 38.3189 778.897 37.8477 778.647 37.5208C778.397 37.1939 778.007 37.0304 777.479 37.0304C776.959 37.0304 776.531 37.2131 776.195 37.5785C775.868 37.9439 775.705 38.4535 775.705 39.1073V42.7997H773.858ZM664.429 59.7997V49.7035H667.876C669.059 49.7035 670.03 49.915 670.789 50.3381C671.559 50.7516 672.126 51.3381 672.491 52.0977C672.866 52.8477 673.054 53.7323 673.054 54.7516C673.054 55.7708 672.866 56.6602 672.491 57.4198C672.126 58.1698 671.559 58.7564 670.789 59.1795C670.03 59.5929 669.059 59.7997 667.876 59.7997H664.429ZM666.275 58.2131H667.789C668.636 58.2131 669.304 58.0785 669.794 57.8093C670.285 57.5304 670.636 57.1362 670.847 56.6266C671.059 56.1073 671.164 55.4823 671.164 54.7516C671.164 54.0304 671.059 53.4102 670.847 52.891C670.636 52.3718 670.285 51.9727 669.794 51.6939C669.304 51.415 668.636 51.2756 667.789 51.2756H666.275V58.2131ZM677.827 59.9727C677.106 59.9727 676.466 59.8189 675.909 59.5112C675.351 59.2035 674.913 58.7708 674.596 58.2131C674.279 57.6554 674.12 57.0112 674.12 56.2804C674.12 55.54 674.274 54.8814 674.582 54.3045C674.899 53.7275 675.332 53.2804 675.88 52.9631C676.438 52.6362 677.091 52.4727 677.841 52.4727C678.543 52.4727 679.163 52.6266 679.702 52.9343C680.24 53.242 680.659 53.665 680.957 54.2035C681.264 54.7323 681.418 55.3237 681.418 55.9775C681.418 56.0833 681.413 56.1939 681.404 56.3093C681.404 56.4247 681.399 56.5448 681.389 56.6698H675.952C675.99 57.2275 676.183 57.665 676.529 57.9823C676.885 58.2997 677.313 58.4583 677.813 58.4583C678.188 58.4583 678.5 58.3766 678.75 58.2131C679.01 58.04 679.202 57.8189 679.327 57.5497H681.202C681.067 58.0016 680.841 58.415 680.524 58.79C680.216 59.1554 679.832 59.4439 679.37 59.6554C678.918 59.867 678.404 59.9727 677.827 59.9727ZM677.841 53.9727C677.389 53.9727 676.99 54.1025 676.644 54.3622C676.298 54.6122 676.077 54.9968 675.981 55.516H679.543C679.514 55.0448 679.341 54.6698 679.024 54.391C678.707 54.1122 678.313 53.9727 677.841 53.9727ZM686.187 59.9727C685.457 59.9727 684.812 59.8141 684.255 59.4968C683.697 59.1795 683.255 58.7372 682.928 58.1698C682.61 57.6025 682.452 56.9535 682.452 56.2227C682.452 55.492 682.61 54.8429 682.928 54.2756C683.255 53.7083 683.697 53.266 684.255 52.9487C684.812 52.6314 685.457 52.4727 686.187 52.4727C687.101 52.4727 687.87 52.7131 688.495 53.1939C689.12 53.665 689.519 54.3189 689.692 55.1554H687.745C687.649 54.8093 687.457 54.54 687.168 54.3477C686.889 54.1458 686.558 54.0448 686.173 54.0448C685.663 54.0448 685.231 54.2372 684.875 54.6218C684.519 55.0064 684.341 55.54 684.341 56.2227C684.341 56.9054 684.519 57.4391 684.875 57.8237C685.231 58.2083 685.663 58.4006 686.173 58.4006C686.558 58.4006 686.889 58.3045 687.168 58.1122C687.457 57.9198 687.649 57.6458 687.745 57.29H689.692C689.519 58.0977 689.12 58.7468 688.495 59.2372C687.87 59.7275 687.101 59.9727 686.187 59.9727ZM692.038 51.5352C691.701 51.5352 691.422 51.4343 691.201 51.2323C690.989 51.0304 690.884 50.7756 690.884 50.4679C690.884 50.1602 690.989 49.9102 691.201 49.7179C691.422 49.516 691.701 49.415 692.038 49.415C692.374 49.415 692.648 49.516 692.86 49.7179C693.081 49.9102 693.191 50.1602 693.191 50.4679C693.191 50.7756 693.081 51.0304 692.86 51.2323C692.648 51.4343 692.374 51.5352 692.038 51.5352ZM691.114 59.7997V52.6458H692.961V59.7997H691.114ZM697.556 59.9727C696.921 59.9727 696.363 59.8718 695.883 59.6698C695.402 59.4583 695.017 59.1698 694.729 58.8045C694.44 58.4391 694.267 58.016 694.21 57.5352H696.07C696.128 57.8141 696.282 58.0545 696.532 58.2564C696.791 58.4487 697.123 58.5448 697.527 58.5448C697.931 58.5448 698.224 58.4631 698.407 58.2997C698.599 58.1362 698.695 57.9487 698.695 57.7372C698.695 57.4295 698.561 57.2227 698.291 57.117C698.022 57.0016 697.647 56.891 697.166 56.7852C696.859 56.7179 696.546 56.6362 696.229 56.54C695.912 56.4439 695.618 56.3237 695.349 56.1795C695.089 56.0256 694.878 55.8333 694.714 55.6025C694.551 55.3622 694.469 55.0689 694.469 54.7227C694.469 54.0881 694.719 53.5545 695.219 53.1218C695.729 52.6891 696.44 52.4727 697.354 52.4727C698.2 52.4727 698.873 52.6698 699.373 53.0641C699.883 53.4583 700.186 54.0016 700.282 54.6939H698.537C698.431 54.165 698.032 53.9006 697.339 53.9006C696.993 53.9006 696.724 53.9679 696.532 54.1025C696.349 54.2372 696.258 54.4054 696.258 54.6073C696.258 54.8189 696.397 54.9872 696.676 55.1122C696.955 55.2372 697.325 55.3525 697.787 55.4583C698.287 55.5737 698.743 55.7035 699.157 55.8477C699.58 55.9823 699.916 56.1891 700.166 56.4679C700.416 56.7372 700.541 57.1266 700.541 57.6362C700.551 58.0785 700.436 58.4775 700.195 58.8333C699.955 59.1891 699.609 59.4679 699.157 59.6698C698.705 59.8718 698.171 59.9727 697.556 59.9727ZM702.884 51.5352C702.547 51.5352 702.268 51.4343 702.047 51.2323C701.835 51.0304 701.73 50.7756 701.73 50.4679C701.73 50.1602 701.835 49.9102 702.047 49.7179C702.268 49.516 702.547 49.415 702.884 49.415C703.22 49.415 703.494 49.516 703.706 49.7179C703.927 49.9102 704.037 50.1602 704.037 50.4679C704.037 50.7756 703.927 51.0304 703.706 51.2323C703.494 51.4343 703.22 51.5352 702.884 51.5352ZM701.96 59.7997V52.6458H703.807V59.7997H701.96ZM708.878 59.9727C708.185 59.9727 707.56 59.8141 707.003 59.4968C706.455 59.1795 706.017 58.742 705.69 58.1843C705.373 57.617 705.214 56.9631 705.214 56.2227C705.214 55.4823 705.378 54.8333 705.705 54.2756C706.032 53.7083 706.469 53.266 707.017 52.9487C707.575 52.6314 708.2 52.4727 708.892 52.4727C709.575 52.4727 710.19 52.6314 710.738 52.9487C711.296 53.266 711.734 53.7083 712.051 54.2756C712.378 54.8333 712.541 55.4823 712.541 56.2227C712.541 56.9631 712.378 57.617 712.051 58.1843C711.734 58.742 711.296 59.1795 710.738 59.4968C710.181 59.8141 709.56 59.9727 708.878 59.9727ZM708.878 58.3718C709.359 58.3718 709.777 58.1939 710.133 57.8381C710.488 57.4727 710.666 56.9343 710.666 56.2227C710.666 55.5112 710.488 54.9775 710.133 54.6218C709.777 54.2564 709.363 54.0737 708.892 54.0737C708.402 54.0737 707.979 54.2564 707.623 54.6218C707.277 54.9775 707.104 55.5112 707.104 56.2227C707.104 56.9343 707.277 57.4727 707.623 57.8381C707.979 58.1939 708.397 58.3718 708.878 58.3718ZM713.903 59.7997V52.6458H715.533L715.677 53.8573C715.899 53.4343 716.216 53.0977 716.629 52.8477C717.052 52.5977 717.548 52.4727 718.115 52.4727C719 52.4727 719.687 52.7516 720.177 53.3093C720.668 53.867 720.913 54.6843 720.913 55.7612V59.7997H719.067V55.9343C719.067 55.3189 718.942 54.8477 718.692 54.5208C718.442 54.1939 718.052 54.0304 717.524 54.0304C717.004 54.0304 716.577 54.2131 716.24 54.5785C715.913 54.9439 715.75 55.4535 715.75 56.1073V59.7997H713.903ZM725.582 59.7997V49.7035H727.774L730.99 56.1073L734.163 49.7035H736.356V59.7997H734.509V52.8333L731.697 58.3573H730.24L727.428 52.8333V59.7997H725.582ZM740.449 59.9727C739.834 59.9727 739.329 59.8766 738.935 59.6843C738.54 59.4823 738.247 59.2179 738.055 58.891C737.862 58.5641 737.766 58.2035 737.766 57.8093C737.766 57.1458 738.026 56.6073 738.545 56.1939C739.064 55.7804 739.843 55.5737 740.882 55.5737H742.699V55.4006C742.699 54.9102 742.56 54.5497 742.281 54.3189C742.002 54.0881 741.656 53.9727 741.242 53.9727C740.867 53.9727 740.54 54.0641 740.262 54.2468C739.983 54.4198 739.81 54.6795 739.742 55.0256H737.939C737.987 54.5064 738.161 54.0545 738.459 53.6698C738.766 53.2852 739.161 52.992 739.641 52.79C740.122 52.5785 740.661 52.4727 741.257 52.4727C742.276 52.4727 743.079 52.7275 743.665 53.2372C744.252 53.7468 744.545 54.4679 744.545 55.4006V59.7997H742.973L742.8 58.6458C742.588 59.0304 742.29 59.3477 741.906 59.5977C741.531 59.8477 741.045 59.9727 740.449 59.9727ZM740.867 58.5304C741.396 58.5304 741.805 58.3573 742.093 58.0112C742.391 57.665 742.579 57.2372 742.656 56.7275H741.084C740.593 56.7275 740.242 56.8189 740.031 57.0016C739.819 57.1747 739.713 57.391 739.713 57.6506C739.713 57.9295 739.819 58.1458 740.031 58.2997C740.242 58.4535 740.521 58.5304 740.867 58.5304ZM746.018 59.7997V49.415H747.865V55.5448L750.403 52.6458H752.595L749.668 55.9054L753.071 59.7997H750.764L747.865 56.2083V59.7997H746.018ZM754.923 51.5352C754.586 51.5352 754.307 51.4343 754.086 51.2323C753.875 51.0304 753.769 50.7756 753.769 50.4679C753.769 50.1602 753.875 49.9102 754.086 49.7179C754.307 49.516 754.586 49.415 754.923 49.415C755.259 49.415 755.533 49.516 755.745 49.7179C755.966 49.9102 756.077 50.1602 756.077 50.4679C756.077 50.7756 755.966 51.0304 755.745 51.2323C755.533 51.4343 755.259 51.5352 754.923 51.5352ZM754 59.7997V52.6458H755.846V59.7997H754ZM757.484 59.7997V52.6458H759.114L759.258 53.8573C759.479 53.4343 759.797 53.0977 760.21 52.8477C760.633 52.5977 761.128 52.4727 761.696 52.4727C762.58 52.4727 763.268 52.7516 763.758 53.3093C764.249 53.867 764.494 54.6843 764.494 55.7612V59.7997H762.648V55.9343C762.648 55.3189 762.523 54.8477 762.273 54.5208C762.023 54.1939 761.633 54.0304 761.104 54.0304C760.585 54.0304 760.157 54.2131 759.821 54.5785C759.494 54.9439 759.33 55.4535 759.33 56.1073V59.7997H757.484ZM769 57.665C768.653 57.665 768.331 57.6266 768.033 57.5497L767.5 58.0833C767.663 58.1698 767.884 58.242 768.163 58.2997C768.442 58.3573 768.894 58.415 769.519 58.4727C770.471 58.5593 771.163 58.7852 771.596 59.1506C772.028 59.516 772.245 60.0208 772.245 60.665C772.245 61.0881 772.129 61.4872 771.899 61.8622C771.668 62.2468 771.312 62.5545 770.831 62.7852C770.351 63.0256 769.735 63.1458 768.985 63.1458C767.966 63.1458 767.144 62.9535 766.519 62.5689C765.894 62.1939 765.581 61.6266 765.581 60.867C765.581 60.2227 765.894 59.665 766.519 59.1939C766.327 59.1073 766.158 59.016 766.014 58.9198C765.879 58.8237 765.759 58.7227 765.653 58.617V58.2852L766.908 56.9583C766.351 56.4679 766.072 55.8381 766.072 55.0689C766.072 54.5881 766.187 54.1506 766.418 53.7564C766.658 53.3622 766.995 53.0497 767.427 52.8189C767.86 52.5881 768.384 52.4727 769 52.4727C769.403 52.4727 769.778 52.5304 770.125 52.6458H772.836V53.7708L771.61 53.8573C771.802 54.2227 771.899 54.6266 771.899 55.0689C771.899 55.5497 771.783 55.9872 771.552 56.3814C771.322 56.7756 770.985 57.0881 770.543 57.3189C770.11 57.5497 769.596 57.665 769 57.665ZM769 56.2516C769.375 56.2516 769.682 56.1506 769.923 55.9487C770.173 55.7468 770.298 55.4583 770.298 55.0833C770.298 54.7083 770.173 54.4198 769.923 54.2179C769.682 54.016 769.375 53.915 769 53.915C768.605 53.915 768.288 54.016 768.048 54.2179C767.807 54.4198 767.687 54.7083 767.687 55.0833C767.687 55.4583 767.807 55.7468 768.048 55.9487C768.288 56.1506 768.605 56.2516 769 56.2516ZM767.269 60.6795C767.269 61.0352 767.432 61.2997 767.759 61.4727C768.096 61.6554 768.504 61.7468 768.985 61.7468C769.447 61.7468 769.822 61.6506 770.11 61.4583C770.399 61.2756 770.543 61.0256 770.543 60.7083C770.543 60.4487 770.447 60.2323 770.254 60.0593C770.072 59.8862 769.702 59.7804 769.144 59.742C768.75 59.7131 768.384 59.6698 768.048 59.6122C767.769 59.766 767.567 59.9343 767.442 60.117C767.327 60.2997 767.269 60.4872 767.269 60.6795Z" fill="#546162"/>
</g>
<defs>
<filter id="filter0_d_711_7578" x="0.0962665" y="0.232337" width="206.116" height="94.5769" filterUnits="userSpaceOnUse" color-interpolation-filters="sRGB">
<feFlood flood-opacity="0" result="BackgroundImageFix"/>
<feColorMatrix in="SourceAlpha" type="matrix" values="0 0 0 0 0 0 0 0 0 0 0 0 0 0 0 0 0 0 127 0" result="hardAlpha"/>
<feOffset dy="0.721154"/>
<feGaussianBlur stdDeviation="0.721154"/>
<feComposite in2="hardAlpha" operator="out"/>
<feColorMatrix type="matrix" values="0 0 0 0 0 0 0 0 0 0 0 0 0 0 0 0 0 0 0.05 0"/>
<feBlend mode="normal" in2="BackgroundImageFix" result="effect1_dropShadow_711_7578"/>
<feBlend mode="normal" in="SourceGraphic" in2="effect1_dropShadow_711_7578" result="shape"/>
</filter>
<filter id="filter1_d_711_7578" x="203.327" y="0.232337" width="199.115" height="94.5769" filterUnits="userSpaceOnUse" color-interpolation-filters="sRGB">
<feFlood flood-opacity="0" result="BackgroundImageFix"/>
<feColorMatrix in="SourceAlpha" type="matrix" values="0 0 0 0 0 0 0 0 0 0 0 0 0 0 0 0 0 0 127 0" result="hardAlpha"/>
<feOffset dy="0.721154"/>
<feGaussianBlur stdDeviation="0.721154"/>
<feComposite in2="hardAlpha" operator="out"/>
<feColorMatrix type="matrix" values="0 0 0 0 0 0 0 0 0 0 0 0 0 0 0 0 0 0 0.05 0"/>
<feBlend mode="normal" in2="BackgroundImageFix" result="effect1_dropShadow_711_7578"/>
<feBlend mode="normal" in="SourceGraphic" in2="effect1_dropShadow_711_7578" result="shape"/>
</filter>
<filter id="filter2_d_711_7578" x="399.558" y="0.232337" width="214.115" height="94.5769" filterUnits="userSpaceOnUse" color-interpolation-filters="sRGB">
<feFlood flood-opacity="0" result="BackgroundImageFix"/>
<feColorMatrix in="SourceAlpha" type="matrix" values="0 0 0 0 0 0 0 0 0 0 0 0 0 0 0 0 0 0 127 0" result="hardAlpha"/>
<feOffset dy="0.721154"/>
<feGaussianBlur stdDeviation="0.721154"/>
<feComposite in2="hardAlpha" operator="out"/>
<feColorMatrix type="matrix" values="0 0 0 0 0 0 0 0 0 0 0 0 0 0 0 0 0 0 0.05 0"/>
<feBlend mode="normal" in2="BackgroundImageFix" result="effect1_dropShadow_711_7578"/>
<feBlend mode="normal" in="SourceGraphic" in2="effect1_dropShadow_711_7578" result="shape"/>
</filter>
<filter id="filter3_d_711_7578" x="610.789" y="0.232337" width="215.115" height="94.5769" filterUnits="userSpaceOnUse" color-interpolation-filters="sRGB">
<feFlood flood-opacity="0" result="BackgroundImageFix"/>
<feColorMatrix in="SourceAlpha" type="matrix" values="0 0 0 0 0 0 0 0 0 0 0 0 0 0 0 0 0 0 127 0" result="hardAlpha"/>
<feOffset dy="0.721154"/>
<feGaussianBlur stdDeviation="0.721154"/>
<feComposite in2="hardAlpha" operator="out"/>
<feColorMatrix type="matrix" values="0 0 0 0 0 0 0 0 0 0 0 0 0 0 0 0 0 0 0.05 0"/>
<feBlend mode="normal" in2="BackgroundImageFix" result="effect1_dropShadow_711_7578"/>
<feBlend mode="normal" in="SourceGraphic" in2="effect1_dropShadow_711_7578" result="shape"/>
</filter>
</defs>
</svg>
