<svg width="60" height="60" viewBox="0 0 60 60" fill="none" xmlns="http://www.w3.org/2000/svg">
<rect width="60" height="59.5" rx="29.75" fill="#FDF3E9"/>
<path d="M39 25.25L36.75 23.937M39 25.25V27.5M39 25.25L36.75 26.563M21 25.25L23.25 23.937M21 25.25L23.25 26.563M21 25.25V27.5M30 30.5L32.25 29.187M30 30.5L27.75 29.187M30 30.5V32.75M30 39.5L32.25 38.187M30 39.5V37.25M30 39.5L27.75 38.187M27.75 21.312L30 20L32.25 21.313M39 32V34.25L36.75 35.563M23.25 35.563L21 34.25V32" stroke="black" stroke-width="1.5" stroke-linecap="round" stroke-linejoin="round"/>
</svg>
