<svg width="60" height="60" viewBox="0 0 60 60" fill="none" xmlns="http://www.w3.org/2000/svg">
<rect x="0.25" y="0.125" width="59.5" height="59.25" rx="29.625" fill="#E9F0FB"/>
<path d="M27 21.875H24.912C24.4309 21.8751 23.9626 22.0293 23.5756 22.3151C23.1887 22.6009 22.9035 23.0032 22.762 23.463L20.35 31.302C20.2839 31.5161 20.2502 31.7389 20.25 31.963V36.125C20.25 36.7217 20.4871 37.294 20.909 37.716C21.331 38.1379 21.9033 38.375 22.5 38.375H37.5C38.0967 38.375 38.669 38.1379 39.091 37.716C39.5129 37.294 39.75 36.7217 39.75 36.125V31.963C39.75 31.739 39.716 31.516 39.65 31.302L37.24 23.463C37.0985 23.0032 36.8133 22.6009 36.4264 22.3151C36.0394 22.0293 35.5711 21.8751 35.09 21.875H33M20.25 31.625H24.11C24.5278 31.6251 24.9373 31.7415 25.2927 31.9613C25.648 32.181 25.9352 32.4953 26.122 32.869L26.378 33.381C26.5649 33.7549 26.8522 34.0693 27.2078 34.289C27.5633 34.5087 27.973 34.6251 28.391 34.625H31.609C32.027 34.6251 32.4367 34.5087 32.7922 34.289C33.1478 34.0693 33.4351 33.7549 33.622 33.381L33.878 32.869C34.0649 32.4951 34.3522 32.1807 34.7078 31.961C35.0633 31.7413 35.473 31.6249 35.891 31.625H39.75M30 21.125V29.375M30 29.375L27 26.375M30 29.375L33 26.375" stroke="black" stroke-width="1.5" stroke-linecap="round" stroke-linejoin="round"/>
</svg>
