<svg width="60" height="60" viewBox="0 0 60 60" fill="none" xmlns="http://www.w3.org/2000/svg">
<rect x="0.25" width="59.5" height="59.5" rx="29.75" fill="#F3E6EC"/>
<path d="M33.59 32.12C33.7982 33.0011 33.8044 33.9178 33.608 34.8016C33.4116 35.6854 33.0177 36.5133 32.4559 37.2232C31.8941 37.9332 31.1789 38.5068 30.364 38.9011C29.549 39.2954 28.6553 39.5001 27.75 39.5V34.7M33.59 32.12C35.4999 30.7288 37.0536 28.9055 38.1242 26.7991C39.1947 24.6927 39.7519 22.3629 39.75 20C37.3873 19.9983 35.0577 20.5555 32.9515 21.6261C30.8452 22.6967 29.0221 24.2503 27.631 26.16M33.59 32.12C31.8519 33.3913 29.8603 34.2714 27.75 34.7M27.75 34.7C27.647 34.721 27.543 34.741 27.439 34.76C26.5318 34.0406 25.7104 33.2192 24.991 32.312C25.0099 32.2078 25.0289 32.1038 25.05 32M27.631 26.16C26.7499 25.9516 25.833 25.9453 24.9491 26.1416C24.0652 26.338 23.2371 26.7318 22.5271 27.2936C21.817 27.8554 21.2433 28.5707 20.8489 29.3857C20.4546 30.2008 20.2498 31.0946 20.25 32H25.05M27.631 26.16C26.3599 27.8978 25.4788 29.89 25.05 32M22.811 34.39C22.1532 34.8792 21.6417 35.539 21.332 36.298C21.0223 37.057 20.9262 37.8863 21.054 38.696C21.8638 38.8237 22.6932 38.7274 23.4522 38.4175C24.2112 38.1077 24.871 37.596 25.36 36.938M34.5 26.75C34.5 27.1478 34.342 27.5294 34.0607 27.8107C33.7794 28.092 33.3978 28.25 33 28.25C32.6022 28.25 32.2206 28.092 31.9393 27.8107C31.658 27.5294 31.5 27.1478 31.5 26.75C31.5 26.3522 31.658 25.9706 31.9393 25.6893C32.2206 25.408 32.6022 25.25 33 25.25C33.3978 25.25 33.7794 25.408 34.0607 25.6893C34.342 25.9706 34.5 26.3522 34.5 26.75Z" stroke="black" stroke-width="1.5" stroke-linecap="round" stroke-linejoin="round"/>
</svg>
