<svg width="70" height="70" viewBox="0 0 70 70" fill="none" xmlns="http://www.w3.org/2000/svg">
<rect width="70" height="70" rx="35" fill="#00575F"/>
<path d="M15.585 51.7651L34.785 32.5651L31.985 29.7251L30.545 31.1451C30.36 31.3305 30.1402 31.4776 29.8982 31.5779C29.6563 31.6783 29.3969 31.73 29.135 31.73C28.8731 31.73 28.6137 31.6783 28.3718 31.5779C28.1298 31.4776 27.91 31.3305 27.725 31.1451L26.305 29.7251C26.1196 29.54 25.9725 29.3203 25.8721 29.0783C25.7718 28.8364 25.7201 28.577 25.7201 28.3151C25.7201 28.0531 25.7718 27.7938 25.8721 27.5518C25.9725 27.3099 26.1196 27.0901 26.305 26.9051L37.625 15.5851C37.81 15.3997 38.0298 15.2526 38.2718 15.1522C38.5137 15.0518 38.7731 15.0002 39.035 15.0002C39.2969 15.0002 39.5563 15.0518 39.7983 15.1522C40.0402 15.2526 40.26 15.3997 40.445 15.5851L41.865 17.0051C42.645 17.7851 42.645 19.0451 41.865 19.8251L40.445 21.2051L43.285 24.0651C43.47 23.8797 43.6898 23.7326 43.9318 23.6322C44.1737 23.5318 44.4331 23.4802 44.695 23.4802C44.9569 23.4802 45.2163 23.5318 45.4582 23.6322C45.7002 23.7326 45.92 23.8797 46.105 24.0651C46.885 24.8451 46.885 26.1251 46.105 26.9051L48.925 29.7251L50.345 28.3051C51.125 27.5251 52.405 27.5251 53.185 28.3051L54.585 29.7251C55.365 30.5051 55.365 31.7851 54.585 32.5651L43.285 43.8651C42.505 44.6451 41.225 44.6451 40.445 43.8651L39.045 42.4651C38.8551 42.2805 38.7041 42.0598 38.6011 41.8159C38.498 41.572 38.4449 41.3099 38.4449 41.0451C38.4449 40.7803 38.498 40.5182 38.6011 40.2743C38.7041 40.0304 38.8551 39.8096 39.045 39.6251L40.445 38.2051L37.625 35.3851L18.405 54.6051C18.22 54.7905 18.0002 54.9376 17.7582 55.0379C17.5163 55.1383 17.2569 55.19 16.995 55.19C16.7331 55.19 16.4737 55.1383 16.2318 55.0379C15.9898 54.9376 15.77 54.7905 15.585 54.6051C14.805 53.8251 14.805 52.5451 15.585 51.7651ZM50.985 49.2051C52.0459 49.2051 53.0633 49.6265 53.8134 50.3766C54.5636 51.1268 54.985 52.1442 54.985 53.2051V55.2051H34.985V53.2051C34.985 52.1442 35.4064 51.1268 36.1566 50.3766C36.9067 49.6265 37.9241 49.2051 38.985 49.2051H50.985Z" fill="white"/>
</svg>
