<svg width="70" height="70" viewBox="0 0 70 70" fill="none" xmlns="http://www.w3.org/2000/svg">
<rect width="70" height="70" rx="35" fill="#00575F"/>
<path d="M32.4279 29.3251C32.8819 28.9651 33.4219 28.7031 33.9999 28.5371V34.1271C33.4294 33.9709 32.8952 33.7038 32.4279 33.3411C31.6399 32.7151 31.3359 31.9791 31.3359 31.3331C31.3359 30.6871 31.6399 29.9511 32.4279 29.3251ZM36.9999 43.1571V37.5091C37.6939 37.6791 38.3279 37.9651 38.8419 38.3511C39.6959 38.9911 39.9999 39.7231 39.9999 40.3331C39.9999 40.9431 39.6959 41.6751 38.8419 42.3151C38.2907 42.7161 37.6642 43.0038 36.9999 43.1571Z" fill="white"/>
<path fill-rule="evenodd" clip-rule="evenodd" d="M35.5 16.333C24.73 16.333 16 25.063 16 35.833C16 46.603 24.73 55.333 35.5 55.333C46.27 55.333 55 46.603 55 35.833C55 25.063 46.27 16.333 35.5 16.333ZM37 23.833C37 23.4352 36.842 23.0537 36.5607 22.7723C36.2794 22.491 35.8978 22.333 35.5 22.333C35.1022 22.333 34.7206 22.491 34.4393 22.7723C34.158 23.0537 34 23.4352 34 23.833V25.465C32.7457 25.6761 31.5636 26.1956 30.56 26.977C29.136 28.109 28.336 29.677 28.336 31.333C28.336 32.991 29.136 34.557 30.562 35.689C31.566 36.489 32.766 36.983 34 37.201V43.157C33.3356 43.003 32.7092 42.7167 32.158 42.315L30.4 40.995C30.2424 40.8768 30.0631 40.7908 29.8723 40.7419C29.6815 40.6931 29.4829 40.6822 29.2879 40.7101C28.894 40.7663 28.5387 40.9767 28.3 41.295C28.0613 41.6133 27.9588 42.0133 28.0151 42.4071C28.0713 42.801 28.2817 43.1563 28.6 43.395L30.358 44.715C31.424 45.515 32.696 46.005 34 46.215V47.833C34 48.2308 34.158 48.6124 34.4393 48.8937C34.7206 49.175 35.1022 49.333 35.5 49.333C35.8978 49.333 36.2794 49.175 36.5607 48.8937C36.842 48.6124 37 48.2308 37 47.833V46.213C38.3171 46.0151 39.5668 45.5011 40.642 44.715C42.132 43.597 43 42.027 43 40.333C43 38.639 42.132 37.069 40.642 35.951C39.567 35.1641 38.3174 34.6494 37 34.451V28.541C37.58 28.705 38.118 28.967 38.572 29.327L39.402 29.987C39.7136 30.2345 40.1108 30.348 40.5061 30.3026C40.9014 30.2572 41.2626 30.0566 41.51 29.745C41.7574 29.4334 41.871 29.0362 41.8256 28.6409C41.7802 28.2456 41.5796 27.8845 41.268 27.637L40.438 26.977C39.4348 26.1967 38.2534 25.6778 37 25.467V23.833Z" fill="white"/>
</svg>
