<svg width="70" height="70" viewBox="0 0 70 70" fill="none" xmlns="http://www.w3.org/2000/svg">
<rect width="70" height="70" rx="35" fill="#00575F"/>
<path d="M35 41.667C36.5913 41.667 38.1174 41.0349 39.2426 39.9096C40.3679 38.7844 41 37.2583 41 35.667C41 34.0757 40.3679 32.5496 39.2426 31.4244C38.1174 30.2991 36.5913 29.667 35 29.667C33.4087 29.667 31.8826 30.2991 30.7574 31.4244C29.6321 32.5496 29 34.0757 29 35.667C29 37.2583 29.6321 38.7844 30.7574 39.9096C31.8826 41.0349 33.4087 41.667 35 41.667Z" fill="white"/>
<path fill-rule="evenodd" clip-rule="evenodd" d="M13.1784 34.061C16.1544 25.119 24.5884 18.667 34.5344 18.667C44.4744 18.667 52.9044 25.113 55.8844 34.047C56.1244 34.771 56.1244 35.551 55.8844 36.273C52.9104 45.215 44.4744 51.667 34.5304 51.667C24.5904 51.667 16.1584 45.221 13.1804 36.287C12.9399 35.5645 12.9399 34.7835 13.1804 34.061H13.1784ZM45.0324 35.167C45.0324 37.9518 43.9261 40.6225 41.957 42.5916C39.9879 44.5607 37.3172 45.667 34.5324 45.667C31.7476 45.667 29.0769 44.5607 27.1078 42.5916C25.1386 40.6225 24.0324 37.9518 24.0324 35.167C24.0324 32.3822 25.1386 29.7115 27.1078 27.7424C29.0769 25.7732 31.7476 24.667 34.5324 24.667C37.3172 24.667 39.9879 25.7732 41.957 27.7424C43.9261 29.7115 45.0324 32.3822 45.0324 35.167Z" fill="white"/>
</svg>
