<svg width="70" height="70" viewBox="0 0 70 70" fill="none" xmlns="http://www.w3.org/2000/svg">
<rect width="70" height="70" rx="35" fill="#00575F"/>
<path d="M22.132 20.314C22.9039 20.1047 23.7002 19.9991 24.5 20H45.5C46.32 20 47.112 20.11 47.866 20.314C47.3673 19.318 46.6013 18.4804 45.6536 17.8951C44.7058 17.3098 43.6139 16.9999 42.5 17H27.5C26.3858 16.9995 25.2934 17.3092 24.3453 17.8946C23.3972 18.4799 22.6308 19.3177 22.132 20.314ZM15.5 35C15.5 33.4087 16.1321 31.8826 17.2574 30.7574C18.3826 29.6321 19.9087 29 21.5 29H48.5C50.0913 29 51.6174 29.6321 52.7426 30.7574C53.8679 31.8826 54.5 33.4087 54.5 35V47C54.5 48.5913 53.8679 50.1174 52.7426 51.2426C51.6174 52.3679 50.0913 53 48.5 53H21.5C19.9087 53 18.3826 52.3679 17.2574 51.2426C16.1321 50.1174 15.5 48.5913 15.5 47V35ZM21.5 26C20.68 26 19.888 26.11 19.132 26.314C19.6308 25.3177 20.3972 24.4799 21.3453 23.8946C22.2934 23.3092 23.3858 22.9995 24.5 23H45.5C46.6139 22.9999 47.7058 23.3098 48.6536 23.8951C49.6013 24.4804 50.3673 25.318 50.866 26.314C50.0947 26.1049 49.2991 25.9993 48.5 26H21.5Z" fill="white"/>
</svg>
