<svg width="70" height="70" viewBox="0 0 70 70" fill="none" xmlns="http://www.w3.org/2000/svg">
<rect width="70" height="70" rx="35" fill="#00575F"/>
<path fill-rule="evenodd" clip-rule="evenodd" d="M29.63 26.168C35.39 18.766 44.39 14 54.5 14C54.8978 14 55.2794 14.158 55.5607 14.4393C55.842 14.7206 56 15.1022 56 15.5C56 25.612 51.234 34.61 43.832 40.372C44.1398 42.3005 44.0256 44.2728 43.4972 46.1528C42.9688 48.0329 42.0388 49.7759 40.7713 51.2616C39.5039 52.7474 37.9292 53.9404 36.1559 54.7585C34.3826 55.5765 32.4529 56.0001 30.5 56C30.1022 56 29.7206 55.842 29.4393 55.5607C29.158 55.2794 29 54.8978 29 54.5V46.238C27.0559 44.7027 25.2985 42.9447 23.764 41H15.5C15.1022 41 14.7206 40.842 14.4393 40.5607C14.158 40.2794 14 39.8978 14 39.5C13.9998 37.5469 14.4235 35.617 15.2416 33.8436C16.0598 32.0701 17.2531 30.4953 18.739 29.2278C20.225 27.9603 21.9683 27.0304 23.8485 26.5021C25.7288 25.9738 27.7014 25.8598 29.63 26.168ZM41 24.5C39.8065 24.5 38.6619 24.9741 37.818 25.818C36.9741 26.6619 36.5 27.8065 36.5 29C36.5 30.1935 36.9741 31.3381 37.818 32.182C38.6619 33.0259 39.8065 33.5 41 33.5C42.1935 33.5 43.3381 33.0259 44.182 32.182C45.0259 31.3381 45.5 30.1935 45.5 29C45.5 27.8065 45.0259 26.6619 44.182 25.818C43.3381 24.9741 42.1935 24.5 41 24.5Z" fill="white"/>
<path d="M20.0215 46.7036C20.1795 46.5858 20.3127 46.4381 20.4136 46.2688C20.5145 46.0995 20.581 45.912 20.6095 45.717C20.6379 45.522 20.6276 45.3233 20.5792 45.1323C20.5309 44.9412 20.4453 44.7616 20.3275 44.6036C20.2097 44.4456 20.062 44.3124 19.8927 44.2115C19.7234 44.1106 19.5359 44.0441 19.3409 44.0157C19.1459 43.9873 18.9472 43.9975 18.7562 44.0459C18.5652 44.0943 18.3855 44.1798 18.2275 44.2976C16.6933 45.4388 15.5004 46.9779 14.7777 48.7482C14.0551 50.5185 13.8302 52.4527 14.1275 54.3416C14.1759 54.6562 14.3231 54.9473 14.5478 55.1727C14.7725 55.3981 15.0631 55.5462 15.3775 55.5956C17.2666 55.8927 19.2009 55.6676 20.9713 54.9446C22.7416 54.2215 24.2805 53.0282 25.4215 51.4936C25.5431 51.336 25.6321 51.1559 25.6834 50.9636C25.7347 50.7713 25.7472 50.5707 25.7201 50.3735C25.6931 50.1763 25.6271 49.9865 25.526 49.8151C25.4249 49.6436 25.2906 49.4941 25.1311 49.375C24.9716 49.256 24.79 49.1699 24.5969 49.1218C24.4038 49.0736 24.2031 49.0644 24.0064 49.0946C23.8096 49.1248 23.6209 49.1938 23.4511 49.2977C23.2814 49.4016 23.134 49.5382 23.0175 49.6996C22.3201 50.6376 21.4127 51.3993 20.368 51.9237C19.3234 52.4481 18.1704 52.7207 17.0015 52.7196C17.0015 50.2596 18.1855 48.0736 20.0215 46.7036Z" fill="white"/>
</svg>
