<svg width="70" height="70" viewBox="0 0 70 70" fill="none" xmlns="http://www.w3.org/2000/svg">
<rect width="70" height="70" rx="35" fill="#00575F"/>
<path fill-rule="evenodd" clip-rule="evenodd" d="M22.75 14C20.678 14 19 15.68 19 17.75V52.25C19 54.32 20.68 56 22.75 56H48.25C50.32 56 52 54.32 52 52.25V36.5C52 34.5109 51.2098 32.6032 49.8033 31.1967C48.3968 29.7902 46.4891 29 44.5 29H40.75C39.7554 29 38.8016 28.6049 38.0983 27.9017C37.3951 27.1984 37 26.2446 37 25.25V21.5C37 19.5109 36.2098 17.6032 34.8033 16.1967C33.3968 14.7902 31.4891 14 29.5 14H22.75ZM26.5 41C26.5 40.6022 26.658 40.2206 26.9393 39.9393C27.2206 39.658 27.6022 39.5 28 39.5H43C43.3978 39.5 43.7794 39.658 44.0607 39.9393C44.342 40.2206 44.5 40.6022 44.5 41C44.5 41.3978 44.342 41.7794 44.0607 42.0607C43.7794 42.342 43.3978 42.5 43 42.5H28C27.6022 42.5 27.2206 42.342 26.9393 42.0607C26.658 41.7794 26.5 41.3978 26.5 41ZM28 45.5C27.6022 45.5 27.2206 45.658 26.9393 45.9393C26.658 46.2206 26.5 46.6022 26.5 47C26.5 47.3978 26.658 47.7794 26.9393 48.0607C27.2206 48.342 27.6022 48.5 28 48.5H35.5C35.8978 48.5 36.2794 48.342 36.5607 48.0607C36.842 47.7794 37 47.3978 37 47C37 46.6022 36.842 46.2206 36.5607 45.9393C36.2794 45.658 35.8978 45.5 35.5 45.5H28Z" fill="white"/>
<path d="M37.4419 14.6318C39.0949 16.5378 40.0034 18.9769 39.9999 21.4998V25.2498C39.9999 25.6638 40.3359 25.9998 40.7499 25.9998H44.4999C47.0228 25.9963 49.462 26.9048 51.3679 28.5578C50.488 25.2113 48.7349 22.1584 46.2881 19.7116C43.8413 17.2648 40.7885 15.5118 37.4419 14.6318Z" fill="white"/>
</svg>
