<svg width="70" height="70" viewBox="0 0 70 70" fill="none" xmlns="http://www.w3.org/2000/svg">
<rect width="70" height="70" rx="35" fill="#00575F"/>
<path fill-rule="evenodd" clip-rule="evenodd" d="M35.5 16C24.73 16 16 24.73 16 35.5C16 46.27 24.73 55 35.5 55C46.27 55 55 46.27 55 35.5C55 24.73 46.27 16 35.5 16ZM37 23.5C37 23.1022 36.842 22.7206 36.5607 22.4393C36.2794 22.158 35.8978 22 35.5 22C35.1022 22 34.7206 22.158 34.4393 22.4393C34.158 22.7206 34 23.1022 34 23.5V35.5C34 36.328 34.672 37 35.5 37H44.5C44.8978 37 45.2794 36.842 45.5607 36.5607C45.842 36.2794 46 35.8978 46 35.5C46 35.1022 45.842 34.7206 45.5607 34.4393C45.2794 34.158 44.8978 34 44.5 34H37V23.5Z" fill="white"/>
</svg>
