<svg width="347" height="300" viewBox="0 0 347 300" fill="none" xmlns="http://www.w3.org/2000/svg">
<path d="M144.878 37.9566H139.684L139.02 37.9163C134.797 37.6595 131.105 40.7358 130.596 44.9353C130.072 49.2629 130.478 57.3147 135.907 63.9248C135.907 63.9248 135.907 59.2032 137.088 58.259C137.56 60.8558 140.629 63.9248 140.629 63.9248C140.629 63.9248 139.684 59.6755 140.865 58.7312C141.337 59.9116 143.698 65.3413 146.294 66.5216C148.891 67.702 153.141 49.7602 153.141 49.7602" fill="#231F20"/>
<path d="M144.877 37.2491H140.052C139.306 37.2491 138.567 37.1593 137.82 37.2255C134.804 37.4734 132.133 39.2697 130.765 41.9696C130.179 43.2234 129.846 44.5808 129.787 45.9637C129.595 48.6627 129.798 51.3753 130.39 54.0157C131.226 57.83 132.943 61.3955 135.406 64.4264C135.808 64.9196 136.614 64.4971 136.615 63.9256C136.618 63.1455 136.662 62.366 136.746 61.5905C136.802 61.0146 136.902 60.4438 137.046 59.8831C137.106 59.6464 137.184 59.4146 137.28 59.1897C137.336 59.0184 137.443 58.8685 137.588 58.7606L136.404 58.4481C136.69 59.9122 137.535 61.2507 138.423 62.424C138.945 63.1293 139.515 63.7983 140.127 64.4264C140.357 64.6438 140.703 64.6836 140.977 64.5244C141.25 64.3652 141.386 64.0448 141.311 63.7374C141.169 63.0923 141.071 62.4381 141.019 61.7796C140.963 61.2354 140.961 60.687 141.013 60.1423C141.038 59.9397 141.083 59.7401 141.148 59.5464C141.164 59.4882 141.19 59.4335 141.226 59.3851C141.335 59.2015 141.194 59.4431 141.251 59.3416C141.284 59.2998 141.322 59.2632 141.365 59.2328L140.181 58.9203C141.158 61.3511 142.4 63.8706 144.204 65.796C144.832 66.4669 145.874 67.5098 146.902 67.2389C147.557 67.0665 148.024 66.4737 148.388 65.9433C149.517 64.2982 150.184 62.2849 150.829 60.4144C151.588 58.2152 152.242 55.9796 152.851 53.7347C153.192 52.4776 153.523 51.2168 153.823 49.9493C154.033 49.063 152.668 48.6847 152.457 49.5728C151.74 52.5987 150.907 55.6063 149.953 58.5661C149.379 60.5193 148.64 62.4202 147.743 64.2481C147.574 64.5783 147.385 64.8985 147.179 65.207C147.132 65.2767 147.083 65.3452 147.033 65.4132C146.974 65.4934 147.117 65.324 146.984 65.472C146.891 65.5751 146.793 65.6702 146.698 65.7702C146.572 65.9019 146.738 65.7521 146.686 65.7829C146.638 65.8085 146.592 65.8371 146.548 65.8686C146.431 65.964 146.665 65.833 146.58 65.8568C146.391 65.9099 146.58 65.869 146.58 65.869C146.443 65.8651 146.569 65.8604 146.637 65.8871C146.575 65.8626 146.423 65.8058 146.651 65.9108C146.402 65.7966 146.167 65.6552 145.949 65.4891C144.719 64.5482 143.854 63.1046 143.11 61.775C142.742 61.1168 142.4 60.4434 142.081 59.7599C141.959 59.4977 141.84 59.2338 141.724 58.9683C141.707 58.9281 141.69 58.8878 141.672 58.8476C141.591 58.6578 141.724 58.9734 141.652 58.8002C141.617 58.7149 141.582 58.6293 141.547 58.5436C141.474 58.3053 141.283 58.1216 141.042 58.058C140.801 57.9943 140.544 58.0598 140.363 58.2311C139.471 58.998 139.517 60.523 139.588 61.5856C139.644 62.436 139.763 63.2812 139.945 64.1139L141.129 63.4248C140.597 62.8864 140.102 62.3132 139.646 61.7091C138.826 60.6308 138.033 59.4208 137.77 58.0718C137.66 57.5065 136.958 57.4436 136.586 57.7592C135.648 58.556 135.501 60.1689 135.363 61.3023C135.256 62.1727 135.201 63.0488 135.198 63.9258L136.407 63.425C132.651 58.8197 130.934 52.8016 131.151 46.9057C131.15 45.7641 131.314 44.6283 131.637 43.5333C132.521 40.9592 134.764 39.0905 137.455 38.6852C138.249 38.6156 139.047 38.6091 139.842 38.6658C141.521 38.6739 143.199 38.6658 144.877 38.6658C145.789 38.6658 145.79 37.2493 144.877 37.2493L144.877 37.2491Z" fill="black"/>
<path d="M229.871 174.842L249.841 130.16C253.097 122.873 260.645 119.138 267.821 121.26C273.519 122.946 277.314 128.807 276.861 135.223L274.066 174.842H319.35C336.875 174.842 349.54 193.105 344.759 211.481L329.368 270.635C326.146 283.02 315.77 291.567 303.959 291.567H212.432V174.842L229.871 174.842Z" fill="#458DC9"/>
<path d="M230.484 175.2L238.266 157.787L249.268 133.169C250.621 130.142 251.937 127.216 254.499 124.95C259.939 120.138 268.91 120.011 273.505 126.063C275.464 128.71 276.403 131.974 276.151 135.258C276.102 136.034 276.042 136.811 275.987 137.587L275.124 149.824L273.393 174.352L273.359 174.843C273.363 175.232 273.677 175.547 274.067 175.551H313.419C316.331 175.551 319.338 175.378 322.237 175.719C329.964 176.627 336.713 181.475 340.727 188.038C344.927 195.024 346.135 203.408 344.076 211.295C343.579 213.232 343.069 215.166 342.566 217.102L339.01 230.766L334.66 247.487L330.816 262.261C330.133 264.885 329.45 267.509 328.767 270.133C327.11 276.491 323.542 282.311 318.164 286.186C313.863 289.27 308.693 290.907 303.4 290.859H212.433L213.141 291.567V176.613C213.174 176.088 213.174 175.562 213.141 175.038C213.137 174.973 213.137 174.908 213.141 174.843L212.433 175.551H229.872C230.784 175.551 230.785 174.135 229.872 174.135H212.433C212.044 174.14 211.73 174.454 211.724 174.843V286.818C211.724 288.334 211.679 289.857 211.724 291.372C211.726 291.437 211.724 291.502 211.724 291.567C211.73 291.956 212.044 292.27 212.433 292.275H301.53C304.304 292.275 307.03 292.241 309.76 291.595C317.619 289.735 324.182 284.081 327.763 276.916C329.272 273.897 330.083 270.702 330.925 267.466L334.131 255.145L338.453 238.534L342.564 222.732L345.139 212.838C346.447 207.811 346.895 202.727 345.911 197.586C344.451 189.962 340.07 182.896 333.612 178.523C329.015 175.412 323.777 174.135 318.283 174.135H274.067L274.775 174.843L276.328 152.83L277.295 139.129C277.537 135.7 277.925 132.341 276.697 129.012C275.457 125.653 272.995 122.715 269.704 121.218C266.455 119.783 262.798 119.568 259.403 120.612C254.423 122.134 250.952 125.949 248.878 130.589L238.899 152.919L229.425 174.119L229.261 174.485C228.892 175.31 230.112 176.032 230.484 175.2Z" fill="black"/>
<rect x="161.609" y="166.857" width="62.0112" height="132.404" rx="29.6516" fill="white"/>
<path d="M190.075 299.97C192.502 299.97 194.958 300.071 197.38 299.884C210.078 298.92 220.683 289.827 223.572 277.424C224.312 274.225 224.329 271.029 224.329 267.781V196.218C224.329 190.772 223.177 185.499 220.434 180.75C216.303 173.635 209.379 168.578 201.344 166.809C198.153 166.124 194.954 166.15 191.713 166.15C188.227 166.15 184.817 166.404 181.464 167.441C169.269 171.208 160.938 182.466 160.901 195.23C160.899 195.725 160.901 196.22 160.901 196.715V268.518C160.901 269.241 160.901 269.963 160.901 270.686C160.87 278.443 163.93 285.893 169.405 291.388C174.879 296.884 182.318 299.972 190.075 299.97C190.986 299.973 190.988 298.556 190.075 298.553C182.668 298.555 175.569 295.596 170.355 290.335C165.142 285.075 162.248 277.948 162.318 270.542C162.317 268.155 162.317 265.769 162.318 263.382V200.792C162.318 198.97 162.313 197.149 162.318 195.327C162.345 187.337 165.787 179.739 171.776 174.45C174.787 171.803 178.337 169.843 182.181 168.704C185.443 167.741 188.721 167.566 192.093 167.566C195.294 167.566 198.441 167.566 201.581 168.313C213.785 171.216 222.525 181.945 222.9 194.484C222.955 196.395 222.912 198.312 222.912 200.223V270.385C222.964 276.51 221.027 282.487 217.393 287.418C212.471 293.971 204.917 298.028 196.735 298.51C194.522 298.631 192.29 298.553 190.075 298.553C189.163 298.553 189.162 299.97 190.075 299.97Z" fill="black"/>
<path d="M151.015 124.596L98.4072 132.245C98.8791 127.62 103.249 110.916 102.606 104.733C102.277 101.53 101.786 98.3457 101.134 95.1926L140.628 89.6567L155.501 89.1846" fill="white"/>
<path d="M150.827 123.913L145.583 124.675L132.995 126.506L117.819 128.712L104.7 130.62L100.363 131.25C99.686 131.349 98.9755 131.397 98.3076 131.549C98.2788 131.556 98.2483 131.558 98.2191 131.562L99.1156 132.245C99.1301 132.106 99.1467 131.968 99.1642 131.829C99.1809 131.696 99.1648 131.824 99.1615 131.847C99.1669 131.808 99.1724 131.769 99.178 131.73C99.193 131.627 99.2078 131.525 99.2235 131.422C99.2842 131.025 99.3518 130.629 99.4223 130.234C99.5919 129.284 99.7785 128.336 99.9681 127.39C100.449 124.988 100.953 122.59 101.427 120.187C101.932 117.622 102.413 115.051 102.792 112.465C103.153 110.322 103.349 108.154 103.378 105.981C103.316 104.386 103.152 102.797 102.888 101.223C102.601 99.1387 102.244 97.0657 101.817 95.004L101.323 95.8752L108.321 94.8943L123.22 92.8059L136.88 90.8911L140.378 90.4008C140.492 90.3848 140.606 90.3691 140.72 90.3528C140.923 90.3238 140.675 90.385 140.64 90.3642C140.72 90.4116 140.999 90.3529 141.088 90.35L142.123 90.3172L155.168 89.903L155.501 89.8925C156.41 89.8635 156.414 88.447 155.501 88.476L143.498 88.8576C142.448 88.8454 141.399 88.8883 140.353 88.9861C139.456 89.1105 138.559 89.2362 137.662 89.3633L124.795 91.1669L109.552 93.3036L103.872 94.0999C102.943 94.23 101.996 94.3174 101.075 94.4919C101.032 94.4999 100.989 94.5039 100.946 94.51C100.573 94.6188 100.354 95.0048 100.451 95.3812C100.827 97.188 101.148 99.0051 101.413 100.832C101.674 102.375 101.853 103.931 101.95 105.492C101.98 107.52 101.831 109.546 101.503 111.547C100.803 116.548 99.7186 121.487 98.7189 126.433C98.3303 128.356 97.9022 130.291 97.6989 132.246C97.646 132.754 98.1914 132.987 98.5954 132.928L103.839 132.166L116.427 130.336L131.603 128.129L144.722 126.222L149.059 125.591C149.739 125.492 150.442 125.434 151.115 125.292C151.144 125.286 151.174 125.283 151.203 125.279C151.579 125.173 151.799 124.785 151.698 124.408C151.586 124.037 151.203 123.82 150.827 123.913L150.827 123.913Z" fill="black"/>
<path d="M98.2461 132.185C100.536 131.947 102.154 127.7 102.808 121.291L91.1953 121.336C93.2048 128.127 95.8195 132.437 98.2461 132.185Z" fill="black"/>
<path d="M98.2454 132.893C100.053 132.677 101.074 131.014 101.725 129.474C102.814 126.898 103.229 124.054 103.515 121.291C103.512 120.901 103.197 120.586 102.807 120.583L92.636 120.622L91.1946 120.628C90.9745 120.63 90.7679 120.734 90.6345 120.909C90.5012 121.084 90.4558 121.311 90.5117 121.524C91.3678 124.402 92.3868 127.369 94.042 129.899C94.948 131.283 96.3833 133.058 98.2454 132.893C99.1463 132.814 99.1547 131.397 98.2454 131.477C97.7128 131.511 97.1893 131.327 96.7961 130.966C96.1134 130.379 95.535 129.681 95.0853 128.902C93.6059 126.524 92.6718 123.817 91.8775 121.147L91.1946 122.044L101.366 122.005L102.807 121.999L102.099 121.291C101.841 123.776 101.45 126.32 100.538 128.66C100.274 129.388 99.8968 130.07 99.4207 130.682C99.2484 130.895 99.0458 131.082 98.8193 131.236C98.7553 131.277 98.6893 131.313 98.6227 131.35C98.4713 131.431 98.6541 131.35 98.5332 131.392C98.4495 131.421 98.1108 131.493 98.2454 131.477C97.8591 131.488 97.5486 131.799 97.5371 132.185C97.5394 132.575 97.8551 132.891 98.2454 132.893Z" fill="black"/>
<path d="M102.606 104.734C102.277 101.531 101.786 98.3464 101.134 95.1932L87.8091 96.9446L84.0178 97.4428L75.8217 38.6777L52.6475 42.2793L55.8931 101.372C57.6642 113.675 68.4845 122.796 80.9056 123.265L88.9621 123.012L102.807 121.291C103.279 116.667 103.248 110.917 102.606 104.734Z" fill="#D08B5B"/>
<path d="M103.315 104.734C102.98 101.468 102.48 98.2209 101.818 95.0052C101.734 94.6979 101.454 94.485 101.135 94.4852L94.4281 95.3667L87.8076 96.2369L84.019 96.7347L84.702 97.2547L83.8845 91.3938L81.9223 77.3248L79.5625 60.4056L77.5125 45.7069L76.8378 40.8692C76.7325 40.1141 76.6698 39.3369 76.5198 38.5889C76.5132 38.5562 76.5105 38.5225 76.5059 38.4895C76.449 38.0815 75.9703 37.9427 75.6347 37.9949L67.7849 39.2148L55.3269 41.151L52.4604 41.5965C52.153 41.681 51.9402 41.9606 51.9404 42.2794L52.1731 46.5153L52.757 57.1461L53.5185 71.0118L54.2896 85.0511L54.9008 96.1779C54.9946 97.8855 55.0468 99.6013 55.1825 101.306C55.2803 102.237 55.4549 103.157 55.7047 104.059C56.1251 105.711 56.7103 107.318 57.4516 108.853C58.8903 111.824 60.8788 114.496 63.3119 116.727C65.7847 118.993 68.6474 120.792 71.7616 122.037C73.3104 122.659 74.914 123.136 76.5514 123.46C77.9984 123.776 79.4731 123.947 80.9539 123.972C82.8356 123.963 84.722 123.854 86.6027 123.794C87.636 123.762 88.6615 123.758 89.6868 123.63L101.757 122.13L102.808 122C103.193 121.985 103.501 121.676 103.516 121.292C104.009 115.78 103.942 110.232 103.315 104.734C103.304 104.347 102.993 104.036 102.607 104.026C102.217 104.028 101.901 104.344 101.899 104.734C102.525 110.232 102.593 115.78 102.1 121.292L102.808 120.583L92.1599 121.907C91.0737 122.042 89.9738 122.243 88.8807 122.306C86.9866 122.417 85.0813 122.426 83.185 122.486C82.4476 122.509 81.7084 122.549 80.9705 122.555C79.5688 122.537 78.1727 122.374 76.8044 122.069C73.6066 121.421 70.5569 120.184 67.8106 118.422C62.2768 114.9 58.355 109.338 56.8963 102.943C56.7524 102.384 56.6518 101.815 56.5953 101.24C56.5858 101.02 56.5712 100.801 56.5591 100.581L56.4078 97.8283L55.855 87.7636L55.1087 74.1753L54.3351 60.0917L53.7007 48.5415L53.3718 42.5529L53.3567 42.2796L52.8368 42.9626L60.6865 41.7426L73.1445 39.8065L76.0111 39.3609L75.1399 38.8663L75.9573 44.7272L77.9195 58.7962L80.2793 75.7154L82.3294 90.4141L83.0041 95.2518C83.1092 96.0067 83.1711 96.7845 83.3221 97.5321C83.3287 97.5648 83.3314 97.5985 83.336 97.6315C83.4193 97.9397 83.6997 98.1532 84.0189 98.1515L89.3965 97.4447L98.5457 96.2422L101.135 95.9019L100.452 95.3819C101.091 98.4731 101.574 101.594 101.898 104.734C101.909 105.121 102.22 105.432 102.607 105.442C102.997 105.44 103.313 105.124 103.315 104.734Z" fill="black"/>
<path d="M76.3288 42.308L73.7504 21.2612L73.0601 13.2965C72.9559 12.0942 72.2036 11.0448 71.0985 10.5601C69.9934 10.0754 68.7118 10.2327 67.7567 10.9703C67.2619 11.3526 66.8858 11.8676 66.6724 12.4554L63.933 20.0001L54.0727 18.7696C51.8291 18.4855 49.5666 19.1275 47.8066 20.5476C46.0467 21.9678 44.9411 24.0435 44.7446 26.2965L43.8821 36.1902C43.6086 39.3278 45.1312 42.3506 47.8152 43.9984C51.0089 45.9592 53.0373 49.3621 53.2429 53.1039L53.5198 58.145" fill="#D08B5B"/>
<path d="M77.0367 42.3084L76.1543 35.1067L74.7574 23.7038C74.5061 21.6528 74.315 19.6082 74.1364 17.5486C74.0136 16.1319 73.9102 14.7119 73.7679 13.297C73.6721 11.9427 72.897 10.7292 71.7086 10.0727C70.5203 9.41628 69.0803 9.40631 67.883 10.0462C66.2225 10.9284 65.7958 12.7995 65.2045 14.4282L63.3724 19.474L63.2495 19.8123L63.9325 19.2923L55.041 18.1826C54.6546 18.1344 54.2684 18.0801 53.881 18.04C52.4852 17.8982 51.0756 18.0924 49.7701 18.6064C47.1971 19.6187 45.2212 21.7423 44.3967 24.3815C43.982 25.7357 43.9553 27.2213 43.833 28.6254L43.3403 34.276C43.204 35.8392 43.0198 37.3593 43.368 38.9183C43.7027 40.3746 44.3918 41.7258 45.3741 42.8518C46.3567 43.9871 47.6745 44.6164 48.7934 45.5805C51.0033 47.4827 52.3521 50.1962 52.5341 53.1064C52.6243 54.6164 52.7 56.1275 52.783 57.6379L52.8109 58.1454C52.8607 59.052 54.2774 59.0577 54.2273 58.1454L53.9848 53.7304C53.8541 51.3503 53.3072 49.0889 51.9771 47.075C51.1549 45.8343 50.1156 44.7521 48.9092 43.8803C48.3524 43.4759 47.7461 43.1502 47.2236 42.6987C45.5926 41.304 44.6259 39.2858 44.5615 37.1407C44.559 36.6108 44.587 36.0812 44.6454 35.5546C44.9122 32.4942 45.1723 29.4331 45.4458 26.3733C45.6463 24.0971 46.8534 22.0295 48.7372 20.736C50.4078 19.6413 52.426 19.2075 54.3988 19.5191L63.6724 20.6764L63.9326 20.709C64.2504 20.7066 64.5286 20.4948 64.6155 20.1891L66.0008 16.3741C66.4607 15.1075 66.8491 13.7811 67.3936 12.5475C67.8783 11.4294 69.077 10.8005 70.2725 11.0372C71.365 11.2595 72.1978 12.1479 72.3489 13.2526C72.5242 14.5683 72.5784 15.9123 72.693 17.2344C72.8678 19.2519 73.0419 21.2603 73.288 23.2695L74.6048 34.0183C74.9378 36.7366 75.2653 39.4555 75.6038 42.1731C75.6094 42.2182 75.6147 42.2633 75.6204 42.3084C75.6321 42.6946 75.9424 43.0049 76.3286 43.0166C76.7188 43.0143 77.0345 42.6985 77.0369 42.3084L77.0367 42.3084Z" fill="black"/>
<path d="M52.9258 43.9596C52.9258 43.9596 61.0575 45.5654 63.182 45.4586C65.3064 45.3517 67.4573 43.2855 65.2716 41.0969C66.6294 40.8016 67.5864 38.2847 65.9537 36.1534C67.7768 35.5793 68.0168 33.7511 66.2964 31.2837C66.9946 30.8039 67.5236 30.1161 67.8081 29.3182C67.9858 28.6894 67.8862 28.0147 67.5344 27.464C67.1827 26.9134 66.6123 26.5395 65.9671 26.4364L56.5051 24.7347C54.7524 24.4342 53.5438 22.8112 53.7583 21.0459" fill="#D08B5B"/>
<path d="M52.7379 44.6429C54.4788 44.9863 56.2256 45.2996 57.9784 45.5826C59.2355 45.7857 60.4976 45.9792 61.7656 46.1012C62.9892 46.2188 64.1907 46.1988 65.2802 45.5331C66.0755 45.0882 66.6449 44.3269 66.8468 43.4383C67.0361 42.3387 66.5176 41.371 65.7727 40.5966L65.4602 41.7803C66.4902 41.5212 67.1679 40.5479 67.4042 39.5578C67.6921 38.2417 67.3853 36.8656 66.5656 35.7964L66.1424 36.8368C67.2065 36.4814 68.0052 35.7211 68.145 34.5743C68.3048 33.2638 67.6244 31.9718 66.9084 30.9267L66.6543 31.8957C67.5464 31.213 68.3874 30.3019 68.5745 29.1486C68.7418 28.0336 68.265 26.9198 67.3429 26.2712C66.5805 25.7193 65.5778 25.65 64.6774 25.4881L57.1005 24.1254C56.644 24.0716 56.2002 23.9397 55.7884 23.7356C55.321 23.4726 54.9424 23.0766 54.7005 22.598C54.5818 22.3625 54.5005 22.1099 54.4596 21.8494C54.4452 21.7494 54.4375 21.6487 54.4366 21.5477C54.4356 21.5002 54.4652 21.069 54.4417 21.2346C54.5324 20.8592 54.3159 20.4779 53.9471 20.3634C53.5703 20.2623 53.1821 20.4827 53.0759 20.8581C52.7778 22.9972 54.2001 24.9974 56.3184 25.4183C57.0469 25.5622 57.7811 25.6813 58.5118 25.8128C60.8752 26.2378 63.2399 26.6558 65.602 27.0879C66.1786 27.1412 66.6971 27.4611 67.0034 27.9524C67.5764 28.9767 66.7387 30.061 65.9394 30.6726C65.6077 30.8745 65.4954 31.3029 65.6853 31.6416C66.4143 32.7053 67.6034 34.8571 65.7659 35.4709C65.3752 35.6015 65.0541 36.1211 65.3426 36.5113C65.9314 37.225 66.1928 38.1533 66.063 39.0693C65.9559 39.6387 65.6391 40.2748 65.0838 40.4144C64.8435 40.4849 64.6575 40.676 64.5936 40.9181C64.5296 41.1603 64.5971 41.4183 64.7713 41.5982C65.2328 42.0779 65.666 42.7266 65.3932 43.4132C65.1257 43.955 64.6513 44.3663 64.0771 44.5541C63.2085 44.8809 62.251 44.7412 61.3516 44.6417C59.1616 44.3993 56.9854 44.0016 54.8199 43.6011C54.2509 43.4959 53.6822 43.3892 53.1146 43.2772C52.2242 43.1015 51.8431 44.4664 52.738 44.643L52.7379 44.6429Z" fill="black"/>
<path d="M63.7446 19.3176C63.4226 19.429 63.1177 19.585 62.839 19.781C62.1569 20.2526 61.5764 20.8562 61.1318 21.5562C60.788 22.1032 60.5126 22.6902 60.3117 23.3042C60.2105 23.681 60.4309 24.0691 60.8063 24.1754C61.1822 24.2698 61.566 24.0519 61.6775 23.6807C61.7215 23.5512 61.7678 23.4226 61.818 23.2955C61.8284 23.2691 61.8396 23.2431 61.8497 23.2166C61.8871 23.1195 61.8007 23.3252 61.8432 23.2319C61.8694 23.1742 61.8944 23.1158 61.9212 23.0585C62.0245 22.8366 62.14 22.6204 62.2671 22.4112C62.3236 22.3184 62.3825 22.2271 62.4438 22.1374C62.469 22.1004 62.4947 22.0638 62.5208 22.0274C62.5366 22.0054 62.6566 21.8527 62.5819 21.9424C62.5052 22.0345 62.6133 21.9037 62.6307 21.8823C62.6607 21.8456 62.6911 21.8094 62.7221 21.7736C62.7853 21.7001 62.8505 21.6282 62.9176 21.5581C63.0311 21.4396 63.15 21.3267 63.2743 21.2192C63.33 21.1712 63.3904 21.1276 63.445 21.0786C63.3936 21.1247 63.3069 21.1832 63.4075 21.1085C63.4339 21.0889 63.4605 21.0696 63.4873 21.0505C63.6585 20.928 63.8391 20.8193 64.0273 20.7252C64.0624 20.7078 64.0979 20.6918 64.1332 20.6752C64.263 20.6142 63.9398 20.7488 64.0531 20.7088C64.0759 20.7007 64.0981 20.691 64.1211 20.6834C64.3652 20.6162 64.5549 20.4239 64.6187 20.1789C64.6825 19.9339 64.6107 19.6735 64.4303 19.4958C64.25 19.3181 63.9886 19.2502 63.7445 19.3176H63.7446Z" fill="black"/>
<path d="M66.2949 31.2492L56.0928 29.752L66.2949 31.2492Z" fill="#20365C"/>
<path d="M66.4835 30.5659L57.5689 29.2575L56.2815 29.0686C55.906 28.9776 55.5245 29.1942 55.4103 29.5632C55.3092 29.94 55.5296 30.3281 55.9049 30.4344L64.8195 31.7428L66.1069 31.9317C66.4824 32.0227 66.8639 31.8061 66.9781 31.4371C67.0792 31.0603 66.8588 30.6722 66.4835 30.5659Z" fill="black"/>
<path d="M66.167 36.2014L55.9648 34.7041L66.167 36.2014Z" fill="#20365C"/>
<path d="M66.3556 35.518L57.4409 34.2097L56.1535 34.0207C55.7781 33.9297 55.3966 34.1463 55.2823 34.5154C55.1813 34.8922 55.4016 35.2803 55.777 35.3866L64.6915 36.6949L65.9789 36.8839C66.3543 36.9748 66.7358 36.7583 66.8501 36.3892C66.9511 36.0124 66.7308 35.6243 66.3554 35.518H66.3556Z" fill="black"/>
<path d="M65.1523 40.8742L54.9502 39.377L65.1523 40.8742Z" fill="#20365C"/>
<path d="M65.3399 40.1918L56.4253 38.8835L55.1379 38.6945C54.7625 38.6036 54.381 38.8202 54.2667 39.1892C54.1657 39.566 54.386 39.9541 54.7614 40.0604L63.676 41.3687L64.9634 41.5577C65.3388 41.6487 65.7203 41.4321 65.8346 41.063C65.9356 40.6862 65.7153 40.2981 65.3399 40.1918Z" fill="black"/>
<path d="M78.954 4.19641L75.1716 7.25039L74.6353 7.6832C74.3598 7.96023 74.3598 8.40776 74.6353 8.68479C74.9163 8.95049 75.3559 8.95049 75.6369 8.68479L79.4193 5.63081L79.9554 5.198C80.2309 4.92097 80.2309 4.47344 79.9554 4.19641C79.6744 3.93062 79.2348 3.93062 78.9538 4.19641H78.954Z" fill="black"/>
<path d="M82.151 11.2339L77.3545 12.0191L76.6734 12.1306C76.2981 12.237 76.0779 12.625 76.1788 13.0018C76.2903 13.373 76.674 13.5908 77.05 13.4964L81.8465 12.7112L82.5275 12.5998C82.9028 12.4934 83.1231 12.1053 83.0222 11.7285C82.9106 11.3574 82.5269 11.1395 82.151 11.2339Z" fill="black"/>
<path d="M71.4302 0.708246L70.8645 5.53563L70.7842 6.22103C70.7864 6.61124 71.1022 6.927 71.4924 6.92924C71.8798 6.92022 72.1916 6.60837 72.2006 6.22103L72.7664 1.39364L72.8466 0.708246C72.8444 0.318029 72.5287 0.00223864 72.1384 0C71.7511 0.00900094 71.4392 0.320882 71.4302 0.708246H71.4302Z" fill="black"/>
<path d="M52.7642 219.67H66.2611C67.1725 219.67 67.174 218.254 66.2611 218.254H52.7642C51.8528 218.254 51.8513 219.67 52.7642 219.67Z" fill="black"/>
<path d="M130.316 255.218L130.303 277.494L103.419 270.753V246.175" fill="#D08B5B"/>
<path d="M129.608 255.217L129.603 262.747L129.596 274.745L129.595 277.493L130.491 276.811L121.414 274.535L106.94 270.905L103.607 270.07L104.127 270.752V246.174C104.127 245.263 102.711 245.261 102.711 246.174V270.752C102.715 271.07 102.926 271.347 103.231 271.435L112.308 273.711L126.783 277.341L130.115 278.176C130.328 278.232 130.554 278.186 130.729 278.053C130.904 277.92 131.008 277.713 131.011 277.493L131.016 269.964L131.023 257.966L131.024 255.217C131.025 254.306 129.608 254.304 129.608 255.217L129.608 255.217Z" fill="black"/>
<path d="M138.055 157.416L131.93 157.567C131.93 157.567 129.806 164.342 135.57 167.275C141.17 170.124 138.055 157.416 138.055 157.416Z" fill="black"/>
<path d="M138.055 156.708L131.93 156.859C131.613 156.866 131.337 157.076 131.247 157.379C130.856 158.712 130.737 160.11 130.897 161.49C131.136 164.224 132.767 166.641 135.213 167.887C135.979 168.274 136.901 168.58 137.751 168.278C138.492 167.969 139.051 167.338 139.269 166.565C139.863 164.9 139.655 162.913 139.443 161.197C139.285 159.861 139.05 158.536 138.738 157.228C138.522 156.343 137.155 156.718 137.372 157.605C137.598 158.528 137.77 159.467 137.915 160.406C138.034 161.175 138.13 161.976 138.181 162.859C138.206 163.297 138.217 163.736 138.207 164.175C138.203 164.373 138.194 164.57 138.18 164.767C138.173 164.857 138.165 164.946 138.156 165.036C138.151 165.079 138.146 165.123 138.141 165.167C138.121 165.341 138.157 165.079 138.132 165.235C138.079 165.586 137.992 165.93 137.875 166.265C137.839 166.364 137.923 166.186 137.842 166.338C137.806 166.405 137.774 166.472 137.735 166.537C137.702 166.593 137.666 166.646 137.629 166.698C137.57 166.782 137.744 166.57 137.638 166.683C137.612 166.711 137.587 166.739 137.56 166.766C137.517 166.809 137.351 166.924 137.517 166.815C137.468 166.847 137.415 166.875 137.367 166.909C137.22 167.013 137.452 166.901 137.311 166.934C137.243 166.95 137.177 166.97 137.108 166.985C137.314 166.94 137.083 166.985 137.026 166.983C136.946 166.981 136.867 166.979 136.786 166.971C136.948 166.987 136.747 166.961 136.687 166.946C136.582 166.92 136.479 166.892 136.377 166.857C135.838 166.647 135.329 166.365 134.864 166.02C134.385 165.673 133.958 165.259 133.596 164.79C132.95 163.912 132.526 162.891 132.36 161.813C132.281 161.305 132.246 160.791 132.257 160.277C132.26 160.033 132.272 159.79 132.291 159.547C132.3 159.435 132.311 159.324 132.323 159.212C132.328 159.17 132.333 159.127 132.338 159.085C132.357 158.927 132.321 159.197 132.345 159.031C132.402 158.6 132.491 158.173 132.613 157.756L131.93 158.276L138.055 158.125C138.965 158.102 138.968 156.686 138.055 156.708Z" fill="black"/>
<path d="M182.694 150.085C182.694 150.085 193.21 152.107 194.424 158.175C195.637 164.242 180.267 165.658 180.267 165.658" fill="black"/>
<path d="M182.506 150.768C184.092 151.09 185.642 151.57 187.133 152.199C189.506 153.178 192.134 154.664 193.317 157.078C193.448 157.348 193.554 157.629 193.634 157.918C193.681 158.086 193.72 158.257 193.754 158.429C193.759 158.454 193.776 158.569 193.758 158.437C193.77 158.522 193.777 158.609 193.781 158.694C193.785 158.798 193.785 158.903 193.78 159.007C193.777 159.068 193.772 159.13 193.765 159.191C193.784 159.018 193.76 159.215 193.754 159.242C193.732 159.34 193.712 159.437 193.683 159.533C193.666 159.591 193.646 159.647 193.628 159.704C193.614 159.742 193.6 159.779 193.585 159.816C193.614 159.749 193.619 159.738 193.598 159.785C193.173 160.623 192.506 161.314 191.684 161.769C189.656 163.048 187.257 163.693 184.897 164.203C183.78 164.444 182.655 164.643 181.521 164.8C181.471 164.807 181.421 164.814 181.371 164.82C181.225 164.841 181.522 164.801 181.369 164.82C181.276 164.833 181.182 164.845 181.089 164.856C180.944 164.875 180.8 164.892 180.655 164.908C180.526 164.923 180.396 164.937 180.267 164.949C179.88 164.959 179.569 165.271 179.559 165.658C179.561 166.048 179.877 166.363 180.267 166.366C181.719 166.222 183.163 166.004 184.592 165.71C187.13 165.204 189.749 164.521 192.011 163.224C193.035 162.684 193.914 161.905 194.573 160.954C195.191 159.961 195.355 158.751 195.024 157.629C194.238 154.685 191.529 152.718 188.919 151.457C187.003 150.516 184.974 149.826 182.882 149.402C181.991 149.23 181.61 150.595 182.505 150.768L182.506 150.768Z" fill="black"/>
<path d="M146.154 89.2822H174.338C178.365 89.2822 186.44 91.3638 188.168 97.2742C188.168 97.2742 190.128 131.67 194.424 157.654C167.488 164.541 133.074 162.605 133.074 162.605L143.542 104.596" fill="white"/>
<path d="M146.154 89.9896H170.052C171.542 89.9896 173.033 89.9686 174.523 89.9911C176.323 90.0401 178.106 90.3553 179.814 90.9265C181.816 91.5159 183.664 92.5384 185.227 93.9215C185.969 94.604 186.582 95.4135 187.039 96.3118C187.141 96.5154 187.232 96.7244 187.312 96.9379C187.356 97.0576 187.388 97.1847 187.437 97.3024C187.495 97.4428 187.455 97.2547 187.46 97.2783C187.464 97.3118 187.466 97.3455 187.466 97.3791C187.528 97.9234 187.532 98.4804 187.567 99.0268C187.744 101.838 187.938 104.647 188.15 107.456C188.482 111.913 188.849 116.368 189.251 120.821C189.741 126.233 190.291 131.64 190.901 137.041C191.545 142.677 192.265 148.306 193.118 153.914C193.318 155.224 193.525 156.533 193.741 157.841L194.236 156.97C188.88 158.31 183.452 159.344 177.979 160.066C172.629 160.798 167.246 161.29 161.857 161.623C157.175 161.912 152.486 162.08 147.793 162.128C144.385 162.167 140.977 162.144 137.569 162.061C136.552 162.035 135.536 162.002 134.519 161.962C134.059 161.918 133.596 161.897 133.133 161.899C133.113 161.899 133.094 161.898 133.074 161.896L133.757 162.793L134.802 156.997L137.297 143.175L140.328 126.373L142.935 111.927C143.359 109.578 143.809 107.232 144.207 104.879C144.212 104.847 144.218 104.815 144.224 104.784C144.385 103.892 143.02 103.51 142.858 104.407L141.813 110.202L139.318 124.025L136.287 140.826L133.68 155.272C133.256 157.621 132.806 159.967 132.408 162.321C132.403 162.353 132.397 162.384 132.391 162.416C132.337 162.629 132.384 162.854 132.517 163.029C132.649 163.203 132.855 163.308 133.074 163.312C134.282 163.38 135.492 163.419 136.702 163.454C139.912 163.548 143.123 163.582 146.335 163.557C150.949 163.528 155.56 163.388 160.168 163.138C165.525 162.842 170.875 162.387 176.198 161.716C181.731 161.046 187.224 160.079 192.653 158.819C193.307 158.663 193.96 158.502 194.612 158.336C194.983 158.224 195.2 157.84 195.107 157.465C194.188 151.902 193.426 146.314 192.749 140.717C192.081 135.19 191.489 129.655 190.972 124.111C190.521 119.348 190.112 114.582 189.745 109.812C189.496 106.593 189.266 103.373 189.055 100.151C189.003 99.358 188.954 98.565 188.906 97.772C188.829 96.8846 188.548 96.0268 188.086 95.2653C185.986 91.5103 181.475 89.5905 177.421 88.8755C175.621 88.6148 173.801 88.5136 171.983 88.5732H146.154C145.242 88.5732 145.241 89.9896 146.154 89.9896V89.9896Z" fill="black"/>
<path d="M113.119 269.359L116.712 272.323C119.335 274.487 123.144 274.411 125.678 272.144H130.315L130.274 296.026H78.3997C78.3997 296.026 77.5153 281.298 96.882 279.743C100.499 279.44 103.267 276.393 103.224 272.764L103.222 272.579C103.21 271.433 103.665 270.332 104.482 269.528C105.299 268.724 106.408 268.288 107.553 268.318L110.543 268.396C111.486 268.42 112.392 268.76 113.119 269.359Z" fill="#458DC9"/>
<path d="M112.619 269.86L115.821 272.502C116.464 273.07 117.182 273.549 117.955 273.923C120.707 275.169 123.935 274.667 126.179 272.645L125.679 272.852H130.316L129.607 272.144L129.594 280.256L129.571 293.075L129.566 296.026L130.275 295.318H80.4975C79.8375 295.318 79.1502 295.263 78.4921 295.318C78.462 295.321 78.4308 295.318 78.4006 295.318L79.1088 296.026C79.0961 295.74 79.0993 295.453 79.1183 295.167C79.1356 294.834 79.1685 294.503 79.2071 294.172C79.2087 294.129 79.2146 294.086 79.2245 294.044C79.2406 293.939 79.2562 293.835 79.2736 293.73C79.3113 293.505 79.3538 293.281 79.4013 293.057C79.5068 292.56 79.636 292.07 79.789 291.585C79.8719 291.323 79.9616 291.063 80.0582 290.805C80.1103 290.666 80.1653 290.528 80.2205 290.391C80.2317 290.363 80.2434 290.335 80.255 290.307C80.2964 290.208 80.2114 290.408 80.2545 290.309C80.287 290.233 80.32 290.158 80.3534 290.083C80.887 288.896 81.5753 287.785 82.4006 286.778C84.744 283.982 88.0295 282.269 91.5378 281.34C92.7218 281.028 93.9245 280.792 95.1386 280.633C96.4401 280.462 97.7701 280.465 99.0089 279.982C101.339 279.082 103.089 277.109 103.707 274.689C103.86 274.059 103.936 273.413 103.933 272.764C103.912 272.22 104.003 271.677 104.202 271.169C104.644 270.143 105.543 269.384 106.629 269.119C107.341 269.006 108.064 268.985 108.781 269.058C109.44 269.075 110.11 269.058 110.767 269.117C111.443 269.181 112.087 269.439 112.62 269.86C112.901 270.125 113.34 270.125 113.621 269.86C113.895 269.583 113.895 269.136 113.621 268.859C112.683 268.105 111.517 267.69 110.314 267.682L107.925 267.619C106.959 267.561 105.995 267.756 105.128 268.186C103.993 268.794 103.138 269.82 102.744 271.047C102.364 272.224 102.605 273.476 102.243 274.666C101.885 275.821 101.203 276.849 100.278 277.628C99.3845 278.379 98.2944 278.858 97.1367 279.01C95.7556 279.188 94.3772 279.289 93.0062 279.554C89.028 280.322 85.1042 281.957 82.2194 284.876C80.3055 286.825 78.9302 289.238 78.2278 291.878C77.8363 293.205 77.6548 294.584 77.6898 295.967C77.691 295.987 77.6912 296.007 77.6924 296.027C77.6996 296.415 78.0125 296.727 78.4006 296.735H123.908C125.996 296.735 128.096 296.801 130.183 296.735C130.214 296.734 130.244 296.735 130.275 296.735C130.664 296.729 130.977 296.415 130.983 296.026L130.997 287.914L131.019 275.096L131.024 272.144C131.019 271.755 130.705 271.441 130.316 271.436H125.893C125.822 271.436 125.749 271.431 125.678 271.436C125.197 271.468 124.744 272.016 124.344 272.262C122.736 273.248 120.768 273.454 118.99 272.823C117.887 272.434 117.041 271.68 116.157 270.951L113.621 268.859C113.34 268.594 112.901 268.594 112.619 268.859C112.346 269.137 112.346 269.583 112.619 269.86Z" fill="black"/>
<path d="M135.416 201.192C134.953 221.596 133.248 260.756 133.248 260.756L99.4272 260.971L95.8056 184.435C95.5528 177.715 98.0453 171.183 102.71 166.339C107.374 161.496 113.809 158.76 120.533 158.76H198.485L200.618 169.931C202.046 177.404 200.098 185.126 195.298 191.028C190.497 196.93 183.333 200.409 175.727 200.533L135.416 201.192Z" fill="#85A9E0"/>
<path d="M134.708 201.192C134.605 205.746 134.466 210.3 134.317 214.853C134.149 219.975 133.968 225.096 133.773 230.217C133.592 235.045 133.404 239.873 133.208 244.7C133.06 248.373 132.909 252.046 132.754 255.719C132.707 256.849 132.659 257.979 132.61 259.109C132.555 259.634 132.532 260.161 132.542 260.688C132.543 260.711 132.542 260.733 132.539 260.755L133.248 260.047L121.743 260.121L103.568 260.236L99.4272 260.263L100.135 260.971L100.011 258.342L99.6793 251.332L99.1994 241.19L98.6303 229.164L98.0311 216.501L97.4586 204.402L96.9767 194.219L96.6422 187.147C96.5994 186.244 96.5505 185.34 96.5139 184.436C96.0589 172.848 103.945 162.587 115.261 160.046C117.414 159.611 119.609 159.417 121.806 159.468H198.485L197.802 158.948L199.281 166.693C199.494 167.805 199.706 168.918 199.919 170.031C200.314 172.095 200.453 174.2 200.333 176.298C199.733 185.88 193.728 194.284 184.857 197.956C181.796 199.178 178.534 199.814 175.238 199.833L169.72 199.923L160.3 200.077L149.626 200.251L140.488 200.401L135.637 200.48L135.417 200.484C134.506 200.498 134.503 201.915 135.417 201.9L138.904 201.843L147.403 201.704L158.133 201.529L168.147 201.365L174.661 201.259C177.38 201.267 180.088 200.91 182.713 200.199C194.819 196.69 202.764 185.121 201.693 172.562C201.555 171.217 201.349 169.879 201.075 168.554L199.308 159.306L199.168 158.572C199.082 158.265 198.803 158.053 198.485 158.052H123.837C122.751 158.052 121.666 158.05 120.581 158.052C109.537 158.031 99.7395 165.131 96.3208 175.632C95.351 178.692 94.9473 181.903 95.1295 185.108L95.365 190.085L95.7818 198.894L96.3166 210.196L96.9109 222.755L97.505 235.31L98.041 246.638L98.4546 255.379L98.6889 260.331L98.7193 260.971C98.7259 261.359 99.0391 261.673 99.4275 261.679L110.932 261.606L129.108 261.49L133.248 261.464C133.636 261.456 133.949 261.144 133.956 260.756C134.015 259.407 134.072 258.059 134.129 256.71C134.276 253.24 134.42 249.769 134.56 246.298C134.752 241.566 134.938 236.834 135.118 232.102C135.313 226.971 135.498 221.839 135.672 216.707C135.828 212.038 135.968 207.367 136.089 202.697C136.102 202.195 136.113 201.693 136.125 201.192C136.146 200.28 134.729 200.28 134.708 201.192Z" fill="black"/>
<path d="M130.275 296.026H78.4005C78.4005 296.026 78.3665 293.965 79.5367 290.925L86.9564 290.693L90.4777 289.365C93.3071 288.421 96.3681 288.434 99.1893 289.402C101.648 290.245 104.297 290.366 106.823 289.75L109.62 289.067C111.493 288.611 113.442 288.557 115.338 288.911L119.302 289.651C122.235 290.198 125.267 289.766 127.931 288.42L130.316 287.215L130.275 296.026Z" fill="white"/>
<path d="M130.274 295.318H80.4972C79.8372 295.318 79.15 295.262 78.4918 295.318C78.4618 295.32 78.4305 295.318 78.4003 295.318L79.1085 296.026C79.0874 294.376 79.6344 292.654 80.2194 291.113L79.5365 291.633L86.5261 291.415C87.4283 291.387 88.2336 290.965 89.0727 290.649C90.7971 289.998 92.4735 289.441 94.3461 289.382C95.761 289.336 97.1738 289.522 98.5287 289.933C99.8898 290.39 101.3 290.687 102.73 290.817C104.774 290.949 106.706 290.507 108.67 290.028C109.324 289.869 109.977 289.694 110.639 289.575C112.103 289.317 113.602 289.318 115.066 289.579C116.247 289.79 117.426 290.019 118.606 290.24C120.772 290.69 123.009 290.672 125.168 290.187C126.959 289.756 128.561 288.894 130.191 288.07L130.673 287.827L129.608 287.215L129.572 294.911L129.567 296.026C129.562 296.938 130.979 296.939 130.983 296.026L131.019 288.331L131.024 287.215C131.019 286.964 130.883 286.733 130.664 286.608C130.446 286.482 130.178 286.481 129.958 286.604C128.839 287.169 127.727 287.809 126.558 288.267C124.272 289.16 121.782 289.396 119.369 288.946C118.134 288.717 116.9 288.484 115.664 288.254C113.521 287.853 111.316 287.917 109.199 288.442C107.679 288.812 106.141 289.281 104.575 289.394C103.127 289.501 101.671 289.364 100.267 288.99C99.6218 288.817 98.9969 288.578 98.3491 288.412C97.6508 288.235 96.9407 288.11 96.2242 288.036C94.031 287.81 91.8154 288.1 89.7545 288.884L87.6809 289.666C87.4293 289.761 87.1717 289.847 86.9239 289.952C86.8738 289.965 86.8251 289.984 86.7784 290.006C86.7801 289.981 87.0467 290 86.905 289.987C86.5066 289.975 86.1078 289.987 85.7109 290.024L83.5627 290.091L79.7676 290.21L79.5365 290.217C79.221 290.226 78.9465 290.435 78.8536 290.737C78.2287 292.382 77.6692 294.243 77.6921 296.026C77.698 296.415 78.0116 296.729 78.4003 296.735H123.908C125.996 296.735 128.096 296.801 130.183 296.735C130.213 296.734 130.244 296.735 130.274 296.735C131.186 296.734 131.187 295.318 130.274 295.318Z" fill="black"/>
<path d="M100.829 278.348C100.901 278.387 100.971 278.432 101.039 278.477C101.117 278.529 101.19 278.588 101.268 278.64C101.234 278.617 101.118 278.52 101.206 278.592C101.227 278.61 101.249 278.627 101.27 278.644C101.324 278.688 101.376 278.734 101.428 278.78C101.531 278.873 101.631 278.97 101.726 279.072C101.781 279.13 101.833 279.189 101.885 279.25C101.909 279.279 101.933 279.309 101.958 279.338C102.029 279.423 101.864 279.209 101.955 279.334C102.062 279.478 102.16 279.629 102.25 279.785C102.297 279.868 102.342 279.952 102.384 280.038C102.403 280.079 102.422 280.12 102.441 280.161C102.49 280.268 102.393 280.032 102.449 280.184C102.533 280.406 102.599 280.634 102.647 280.866C102.659 280.925 102.668 280.985 102.679 281.044C102.694 281.125 102.67 280.991 102.672 280.987C102.663 281.005 102.682 281.073 102.684 281.094C102.699 281.243 102.705 281.392 102.706 281.541C102.709 281.93 103.025 282.244 103.414 282.244C103.803 282.244 104.12 281.93 104.122 281.541C104.098 279.841 103.243 278.26 101.834 277.309C101.741 277.242 101.644 277.181 101.544 277.126C101.325 276.996 101.054 276.993 100.832 277.119C100.611 277.244 100.474 277.478 100.474 277.732C100.473 277.987 100.608 278.222 100.829 278.349L100.829 278.348Z" fill="black"/>
<path d="M97.405 280.192C97.4776 280.23 97.5471 280.275 97.6154 280.32C97.6933 280.372 97.766 280.432 97.8438 280.483C97.8101 280.461 97.6938 280.364 97.7822 280.436C97.8036 280.453 97.8251 280.47 97.8464 280.488C97.8998 280.532 97.9523 280.577 98.0039 280.623C98.1075 280.716 98.207 280.814 98.3024 280.915C98.3567 280.973 98.4095 281.033 98.4609 281.093C98.4855 281.122 98.5092 281.152 98.5337 281.181C98.6053 281.266 98.44 281.053 98.5309 281.177C98.6378 281.322 98.7364 281.472 98.8264 281.628C98.8736 281.711 98.9181 281.796 98.9597 281.881C98.9795 281.922 98.9979 281.964 99.017 282.005C99.0664 282.111 98.9689 281.875 99.0253 282.028C99.1091 282.249 99.1753 282.477 99.2234 282.709C99.2353 282.768 99.2439 282.828 99.2552 282.888C99.2704 282.968 99.2463 282.835 99.2484 282.831C99.2389 282.849 99.2582 282.916 99.2603 282.938C99.2751 283.086 99.2813 283.235 99.2821 283.384C99.2849 283.773 99.6011 284.087 99.9903 284.087C100.379 284.087 100.696 283.773 100.699 283.384C100.674 281.684 99.8194 280.103 98.4103 279.152C98.3172 279.085 98.2201 279.024 98.1196 278.969C97.7819 278.772 97.348 278.885 97.1506 279.223C96.9532 279.561 97.067 279.995 97.4047 280.192L97.405 280.192Z" fill="black"/>
<path d="M92.7596 280.981C92.8321 281.019 92.9016 281.064 92.9699 281.11C93.0479 281.161 93.1206 281.221 93.1984 281.272C93.1647 281.25 93.0484 281.153 93.1367 281.225C93.1581 281.243 93.1797 281.26 93.2009 281.277C93.2544 281.321 93.3069 281.366 93.3584 281.413C93.462 281.506 93.5615 281.603 93.6569 281.705C93.7112 281.763 93.764 281.822 93.8154 281.883C93.84 281.912 93.8637 281.941 93.8882 281.971C93.9598 282.056 93.7945 281.842 93.8854 281.967C93.9923 282.111 94.091 282.262 94.1809 282.418C94.2281 282.501 94.2726 282.585 94.3143 282.671C94.334 282.712 94.3524 282.753 94.3715 282.794C94.4209 282.901 94.3235 282.665 94.3799 282.817C94.4636 283.039 94.5299 283.267 94.578 283.498C94.5899 283.558 94.5984 283.618 94.6097 283.677C94.625 283.757 94.6009 283.624 94.6029 283.62C94.5935 283.638 94.6128 283.706 94.6149 283.727C94.6296 283.876 94.6358 284.024 94.6366 284.174C94.6394 284.563 94.9557 284.877 95.3449 284.877C95.734 284.877 96.0503 284.563 96.0531 284.174C96.0286 282.473 95.174 280.893 93.7648 279.941C93.6718 279.875 93.5747 279.813 93.4742 279.758C93.2556 279.629 92.9842 279.626 92.7631 279.751C92.542 279.877 92.4051 280.111 92.4043 280.365C92.4035 280.619 92.539 280.855 92.7593 280.981L92.7596 280.981Z" fill="black"/>
<rect x="96.6943" y="251.276" width="39.4176" height="10.666" rx="2.69207" fill="#20365C"/>
<path d="M133.528 261.233H105.096C103.167 261.233 101.234 261.266 99.3046 261.233C98.3684 261.235 97.5693 260.557 97.4194 259.633C97.3676 259.008 97.362 258.38 97.4029 257.754V254.805C97.4029 254.096 97.3184 253.356 97.7641 252.748C98.3614 251.933 99.243 251.983 100.121 251.983H133.318C133.687 251.963 134.055 252.034 134.389 252.192C135.224 252.632 135.404 253.426 135.404 254.284C135.404 255.952 135.417 257.62 135.404 259.288C135.415 259.795 135.223 260.286 134.87 260.651C134.518 261.016 134.035 261.225 133.528 261.233C132.618 261.255 132.615 262.671 133.528 262.649C135.124 262.634 136.484 261.487 136.769 259.916C136.841 259.212 136.858 258.503 136.82 257.796V254.736C136.82 253.864 136.839 253.025 136.39 252.232C135.791 251.204 134.692 250.57 133.502 250.567C133.307 250.564 133.111 250.567 132.915 250.567H106.032C103.813 250.567 101.594 250.554 99.3751 250.567C98.5319 250.557 97.7147 250.858 97.0793 251.413C96.2438 252.149 95.9866 253.167 95.9866 254.234C95.9866 255.931 95.9597 257.63 95.9866 259.326C95.9915 260.754 96.9006 262.022 98.2514 262.485C98.6628 262.609 99.0919 262.665 99.5215 262.649H133.528C134.439 262.649 134.441 261.233 133.528 261.233Z" fill="black"/>
<path d="M137.446 196.886H128.303C127.392 196.886 127.39 198.302 128.303 198.302H137.446C138.358 198.302 138.359 196.886 137.446 196.886Z" fill="black"/>
<path d="M147.272 180.442H139.052C136.289 180.442 133.521 180.391 130.758 180.444C125.035 180.59 119.982 184.217 118.015 189.593C117.292 191.589 117.22 193.626 117.165 195.708L116.976 202.831L116.694 213.489L116.372 225.663L116.063 237.331L115.822 246.474L115.7 251.073L115.695 251.275C115.671 252.187 117.087 252.187 117.111 251.275L117.194 248.129L117.409 240.006L117.702 228.928L118.024 216.781L118.319 205.615L118.539 197.317C118.569 196.18 118.594 195.044 118.629 193.907C118.802 188.701 122.186 184.149 127.12 182.482C128.624 182.027 130.191 181.816 131.761 181.859H147.272C148.183 181.859 148.184 180.442 147.272 180.442L147.272 180.442Z" fill="black"/>
<path d="M65.863 235.522L56.0169 255.504L34.8711 237.586L45.7221 215.533" fill="#D08B5B"/>
<path d="M65.2518 235.163L61.9237 241.917L56.6206 252.679L55.4055 255.145L56.5178 255.002L49.3783 248.952L37.993 239.305L35.372 237.084L35.4827 237.943L39.1569 230.475L45.004 218.592L46.3337 215.89C46.7347 215.075 45.5135 214.356 45.1107 215.175L41.4364 222.642L35.5893 234.525L34.2597 237.228C34.1031 237.507 34.1481 237.856 34.3705 238.086L41.51 244.135L52.8954 253.783L55.5164 256.003C55.6732 256.155 55.8906 256.228 56.1071 256.2C56.3236 256.172 56.5156 256.047 56.6287 255.86L59.9569 249.106L65.2599 238.344L66.475 235.878C66.8765 235.063 65.6554 234.344 65.2519 235.163L65.2518 235.163Z" fill="black"/>
<path d="M95.9572 190.118C86.5327 208.221 67.7145 242.605 67.7145 242.605L37.2734 227.866L67.814 157.594C70.5537 151.454 75.6744 146.692 81.9978 144.406C88.3212 142.12 95.3028 142.505 101.336 145.474L171.28 179.889L203.407 170.636C199.982 190.933 187.838 206.171 167.27 206.99L147.26 207.47C140.799 207.728 134.362 206.542 128.417 204L95.9572 190.118Z" fill="#85A9E0"/>
<path d="M95.3454 189.759C90.8812 198.332 86.3015 206.846 81.7121 215.352C77.6733 222.838 73.6165 230.314 69.5415 237.78C68.7292 239.27 67.9162 240.758 67.1025 242.246L68.0714 241.992L57.7699 237.005L41.4207 229.089L37.6303 227.254L37.8844 228.223L43.1622 216.079L54.4772 190.044L65.0731 165.664C67.4016 160.306 69.3529 154.623 73.6347 150.452C78.4868 145.763 85.072 143.306 91.8095 143.671C95.4123 143.874 98.7578 144.992 101.967 146.571L118.825 154.866L145.31 167.898L166.718 178.432C168.082 179.103 169.435 179.878 170.84 180.46C171.368 180.678 171.775 180.483 172.299 180.332L176.428 179.143L201.748 171.85L203.595 171.318L202.724 170.447C200.846 181.577 195.987 192.867 186.665 199.733C182.109 203.049 176.801 205.18 171.217 205.935C168.091 206.376 164.91 206.338 161.76 206.414L149.646 206.704C148.748 206.726 147.85 206.744 146.952 206.773C142.822 206.906 138.695 206.445 134.697 205.403C131.597 204.593 128.692 203.352 125.761 202.099L115.506 197.713L96.6811 189.662L96.3143 189.505C95.4854 189.151 94.7629 190.371 95.5994 190.728L112.363 197.898C118.113 200.357 123.818 203.007 129.653 205.261C135.586 207.554 141.752 208.31 148.074 208.158L159.324 207.888C162.243 207.818 165.177 207.83 168.093 207.657C173.916 207.312 179.657 205.741 184.685 202.746C194.639 196.816 200.554 186.186 203.203 175.172C203.549 173.734 203.845 172.284 204.09 170.823C204.152 170.579 204.08 170.319 203.902 170.141C203.723 169.962 203.463 169.89 203.219 169.952L192.337 173.086L175.078 178.057L171.091 179.205L171.637 179.277L162.958 175.007L143.041 165.207L120.604 154.167L104.569 146.277C103.622 145.811 102.676 145.341 101.727 144.878C95.4319 141.754 88.1252 141.373 81.5386 143.823C74.9521 146.274 69.6719 151.339 66.9495 157.817L61.5065 170.341L51.9649 192.296L42.4101 214.281L36.9209 226.911L36.6615 227.508C36.4717 227.847 36.584 228.275 36.9156 228.477L47.2171 233.465L63.5662 241.38L67.3566 243.215C67.6954 243.405 68.1234 243.293 68.3256 242.961C70.6356 238.74 72.9382 234.516 75.2336 230.287C79.9391 221.629 84.6186 212.956 89.2723 204.27C91.7243 199.682 94.1563 195.083 96.5685 190.474C96.9889 189.667 95.767 188.95 95.3454 189.759Z" fill="black"/>
<path d="M37.0161 228.82C35.682 228.164 35.1327 226.55 35.7891 225.216L38.121 220.477C38.7774 219.143 40.391 218.594 41.725 219.25L72.2621 234.276C73.5961 234.932 74.1454 236.546 73.489 237.88L71.1572 242.619C70.5007 243.953 68.8872 244.502 67.5531 243.846L37.0161 228.82Z" fill="#20365C"/>
<path d="M68.007 243.284L63.3418 240.988L53.0077 235.903L42.4964 230.731C40.7651 229.879 39.016 229.056 37.2997 228.174C36.4417 227.778 36.0026 226.813 36.2668 225.906C36.4857 225.328 36.7511 224.769 37.0605 224.234L38.3624 221.588C38.6743 220.954 38.9297 220.235 39.5852 219.878C40.4806 219.39 41.2355 219.798 42.026 220.187L44.9542 221.628L54.8913 226.518L65.6415 231.807L71.8133 234.844C72.1675 234.992 72.4803 235.224 72.7245 235.52C73.2714 236.256 73.1073 237.057 72.7377 237.808C72.0015 239.305 71.2762 240.807 70.5284 242.298C70.1038 243.266 68.9755 243.707 68.0072 243.283C67.6679 243.098 67.2429 243.21 67.0382 243.538C66.8438 243.876 66.957 244.307 67.2923 244.507C68.744 245.224 70.5013 244.798 71.4627 243.495C71.8291 242.915 72.1462 242.306 72.4106 241.674L73.7615 238.928C74.1428 238.153 74.5585 237.397 74.5068 236.498C74.4426 235.31 73.7521 234.245 72.6933 233.702C72.5193 233.613 72.3419 233.529 72.1663 233.443L69.3041 232.034L59.1357 227.031L48.0448 221.574C46.0539 220.594 44.0682 219.603 42.0717 218.635C41.322 218.243 40.4547 218.139 39.6337 218.344C38.6222 218.647 37.7995 219.387 37.3914 220.361C36.6423 221.883 35.8703 223.396 35.1434 224.929C34.7377 225.749 34.6828 226.698 34.9914 227.559C35.2999 228.42 35.9453 229.118 36.7792 229.493L39.0922 230.631L48.7364 235.376L60.0377 240.937L66.9552 244.341L67.292 244.507C68.1071 244.908 68.8258 243.687 68.007 243.284Z" fill="black"/>
<path d="M125.444 177.572L118.619 175.167L105.552 170.564C102.823 169.602 100.094 168.641 97.3655 167.68C94.8775 166.805 92.2326 166.346 89.6041 166.735C86.6191 167.205 83.9666 168.902 82.2891 171.415C81.2617 172.911 80.5678 174.688 79.8014 176.327L75.5898 185.333L69.8718 197.561L63.9256 210.276L59.0389 220.726L56.4966 226.162L56.3823 226.406C55.9985 227.227 57.2191 227.947 57.6054 227.121L59.3568 223.376L63.7605 213.959L69.5218 201.639L75.3878 189.095L80.1067 179.005C80.8659 177.381 81.6249 175.758 82.3839 174.135C83.2351 172.318 84.4248 170.653 86.1221 169.539C88.6977 167.848 91.8685 167.712 94.8002 168.397C95.9344 168.688 97.0518 169.041 98.1474 169.454L102.488 170.983L115.341 175.511L124.594 178.771L125.068 178.938C125.929 179.242 126.299 177.874 125.444 177.572L125.444 177.572Z" fill="black"/>
<path d="M44.1906 240.618L46.1057 244.864C47.5035 247.963 50.9553 249.576 54.2294 248.661L58.3904 250.708L47.8095 272.119L1.26465 249.217C1.26465 249.217 6.97405 235.61 25.0391 242.767C28.418 244.091 32.2454 242.58 33.8085 239.305L33.8883 239.138C34.3836 238.105 35.2779 237.317 36.3658 236.957C37.4536 236.596 38.6413 236.693 39.6559 237.226L42.3045 238.616C43.1391 239.054 43.8031 239.759 44.1906 240.618Z" fill="#458DC9"/>
<path d="M43.5792 240.976L45.309 244.811C46.2417 246.879 47.7876 248.486 49.9684 249.23C51.4067 249.712 52.9566 249.752 54.4178 249.344L53.8721 249.273L58.033 251.32L57.7789 250.351L54.1848 257.624L48.5058 269.116L47.1981 271.762L48.1671 271.508L43.5224 269.223L32.4127 263.756L18.9791 257.146L7.33456 251.417L3.50362 249.532C2.91277 249.241 2.31966 248.883 1.70411 248.646C1.67604 248.636 1.6491 248.619 1.62201 248.606L1.94748 249.406C1.7988 249.759 1.93834 249.436 1.98538 249.339C2.08423 249.136 2.19129 248.936 2.3028 248.739C2.47602 248.433 2.66079 248.135 2.8571 247.843C2.97453 247.667 3.09554 247.494 3.22015 247.324C3.28252 247.239 3.34609 247.154 3.40988 247.07C3.51675 246.929 3.35857 247.134 3.43842 247.033C3.48147 246.979 3.52437 246.925 3.56785 246.871C5.10633 244.921 7.1267 243.406 9.42956 242.475C13.0472 241.043 17.0248 241.178 20.749 242.114C22.0441 242.444 23.3178 242.853 24.5628 243.338C25.6997 243.812 26.9309 244.015 28.1596 243.932C30.5782 243.723 32.7588 242.392 34.0503 240.336C34.3484 239.857 34.541 239.315 34.8764 238.859C35.8433 237.573 37.5571 237.104 39.0444 237.717C39.6005 237.95 40.1295 238.275 40.6624 238.554C41.2732 238.834 41.8627 239.158 42.4265 239.523C42.9272 239.902 43.3237 240.402 43.579 240.977C43.9673 241.801 45.1889 241.082 44.802 240.262C43.9487 238.451 42.1511 237.738 40.4887 236.865C39.7533 236.437 38.9392 236.161 38.095 236.053C36.9109 235.954 35.7312 236.289 34.776 236.996C34.2764 237.364 33.8495 237.823 33.517 238.347C33.2019 238.846 32.9904 239.396 32.6539 239.886C31.3142 241.805 29.0102 242.81 26.692 242.485C25.366 242.29 24.1183 241.638 22.846 241.237C18.7636 239.949 14.2665 239.443 10.1178 240.734C7.39697 241.584 4.95808 243.158 3.0612 245.286C2.09321 246.333 1.28892 247.521 0.675543 248.809C0.642905 248.882 0.612588 248.956 0.581618 249.029C0.495376 249.339 0.62917 249.668 0.907091 249.829L5.55173 252.115L16.6617 257.581L30.0953 264.191L41.7397 269.92C43.6158 270.844 45.4812 271.794 47.3701 272.691C47.3976 272.704 47.4248 272.718 47.4522 272.731C47.7907 272.923 48.22 272.81 48.4212 272.477L52.0153 265.204L57.6943 253.713L59.002 251.066C59.1934 250.728 59.0808 250.298 58.7479 250.097L56.1456 248.817C55.6785 248.587 55.2133 248.353 54.7442 248.127C54.5884 248.03 54.4122 247.971 54.2295 247.953C53.8074 247.953 53.3767 248.148 52.9498 248.184C51.1073 248.345 49.2884 247.681 47.9829 246.371C47.1273 245.505 46.6782 244.421 46.1878 243.333L44.8023 240.262C44.6032 239.926 44.1715 239.813 43.8333 240.008C43.5036 240.211 43.3917 240.637 43.5792 240.976Z" fill="black"/>
<path d="M47.8106 272.119L1.26562 249.217C1.26562 249.217 2.14493 247.353 4.53718 245.142L11.2971 248.209L15.0432 248.572C17.9983 248.975 20.739 250.338 22.8434 252.452C24.6775 254.294 27.0011 255.571 29.5391 256.134L32.3496 256.756C34.2322 257.174 36.0046 257.986 37.5492 259.14L40.7793 261.554C43.1696 263.341 46.0811 264.291 49.065 264.26L51.7373 264.231L47.8106 272.119Z" fill="white"/>
<path d="M48.167 271.508L43.5224 269.222L32.4126 263.756L18.9789 257.146L7.33444 251.417L3.5035 249.532C2.91239 249.241 2.31946 248.883 1.70402 248.646C1.67592 248.635 1.64897 248.619 1.62192 248.606L1.87599 249.575C2.59308 248.069 3.83459 246.764 5.03679 245.643L4.17856 245.753L10.6785 248.703C10.9689 248.837 11.2802 248.919 11.5986 248.947L13.7405 249.155C15.5786 249.269 17.3765 249.742 19.0329 250.547C20.1902 251.136 21.2527 251.895 22.1849 252.798C23.1216 253.738 24.1713 254.558 25.3101 255.239C27.044 256.242 28.9112 256.72 30.8427 257.148C31.4843 257.29 32.1323 257.417 32.7668 257.589C34.1376 257.961 35.4382 258.555 36.6171 259.347C37.7469 260.103 38.8137 260.965 39.9025 261.779C41.5703 263.082 43.4877 264.03 45.5362 264.563C47.3966 265.014 49.2642 264.966 51.1589 264.946L51.7365 264.94L51.125 263.874L47.6953 270.763L47.1982 271.762C46.7931 272.575 48.0145 273.294 48.4212 272.477L51.8509 265.588L52.3481 264.589C52.4709 264.369 52.4694 264.101 52.3441 263.883C52.2188 263.665 51.9882 263.528 51.7365 263.523C50.854 263.533 49.9715 263.546 49.0889 263.552C47.083 263.575 45.0988 263.134 43.2923 262.261C41.2885 261.279 39.5745 259.744 37.7801 258.436C36.1856 257.287 34.3722 256.476 32.452 256.055C31.5451 255.852 30.6365 255.657 29.7302 255.452C27.7552 255.018 25.9089 254.129 24.3382 252.856C23.5773 252.23 22.918 251.496 22.1453 250.882C21.3433 250.239 20.4746 249.684 19.554 249.227C17.971 248.454 16.2607 247.974 14.5064 247.812L11.2962 247.501L11.6537 247.598L4.89399 244.53C4.61379 244.379 4.26841 244.424 4.03575 244.641C2.75395 245.836 1.41775 247.255 0.65344 248.86C0.462506 249.198 0.574998 249.627 0.907508 249.829L5.55218 252.114L16.6615 257.581L30.0952 264.191L41.7397 269.92C43.6158 270.843 45.4813 271.794 47.3702 272.691C47.3977 272.704 47.4249 272.717 47.4522 272.731C48.2669 273.132 48.9857 271.911 48.167 271.508Z" fill="black"/>
<path d="M29.1731 243.224C29.2463 243.329 29.3126 243.438 29.3716 243.551C29.4042 243.611 29.4354 243.672 29.4652 243.734C29.4826 243.77 29.5715 243.975 29.5286 243.868C29.4837 243.756 29.533 243.881 29.5426 243.905C29.5595 243.948 29.5758 243.991 29.5914 244.035C29.625 244.128 29.6557 244.222 29.6834 244.317C29.7384 244.511 29.7824 244.707 29.815 244.906C29.8434 245.071 29.8073 244.796 29.8197 244.952C29.8245 245.013 29.8306 245.074 29.8342 245.135C29.8414 245.261 29.8434 245.388 29.8394 245.514C29.8377 245.569 29.8349 245.623 29.831 245.678C29.8293 245.701 29.8117 245.891 29.8199 245.818C29.8296 245.733 29.8046 245.912 29.8018 245.929C29.7892 245.999 29.7749 246.068 29.7588 246.137C29.6975 246.402 29.6084 246.66 29.4931 246.906C29.3654 247.124 29.364 247.394 29.4893 247.614C29.6147 247.834 29.8478 247.97 30.1009 247.972C30.3539 247.973 30.5885 247.839 30.7162 247.621C31.2663 246.511 31.3947 245.239 31.0775 244.041C30.943 243.494 30.7123 242.975 30.3962 242.509C30.1931 242.179 29.7662 242.067 29.4272 242.255C29.0932 242.455 28.9804 242.886 29.1732 243.224H29.1731Z" fill="black"/>
<path d="M25.2873 243.367C25.3606 243.471 25.4269 243.58 25.4859 243.693C25.5185 243.754 25.5496 243.815 25.5794 243.876C25.5968 243.912 25.6857 244.118 25.6428 244.011C25.598 243.899 25.6473 244.023 25.6569 244.048C25.6738 244.091 25.6901 244.134 25.7057 244.177C25.7392 244.271 25.7699 244.365 25.7977 244.46C25.8527 244.653 25.8966 244.85 25.9292 245.049C25.9576 245.214 25.9215 244.939 25.9339 245.095C25.9388 245.156 25.9448 245.216 25.9484 245.277C25.9558 245.403 25.9576 245.53 25.9537 245.657C25.9519 245.711 25.9491 245.766 25.9452 245.821C25.9436 245.844 25.9259 246.033 25.9342 245.961C25.9439 245.875 25.9188 246.055 25.916 246.071C25.9035 246.141 25.8892 246.211 25.8731 246.28C25.8118 246.545 25.7227 246.802 25.6074 247.048C25.4131 247.386 25.5277 247.817 25.8638 248.013C26.2 248.21 26.6317 248.098 26.8304 247.763C27.3805 246.653 27.5089 245.381 27.1918 244.184C27.0573 243.637 26.8266 243.118 26.5105 242.652C26.3073 242.322 25.8805 242.21 25.5415 242.398C25.2075 242.598 25.0946 243.028 25.2874 243.367H25.2873Z" fill="black"/>
<path d="M21.9415 242.824C22.0209 242.938 22.0928 243.056 22.1568 243.179C22.1921 243.244 22.226 243.31 22.2583 243.377C22.2735 243.408 22.2883 243.44 22.3028 243.471C22.3124 243.492 22.3765 243.638 22.3301 243.53C22.2844 243.423 22.3393 243.554 22.3482 243.577C22.3665 243.624 22.3842 243.671 22.4012 243.718C22.4374 243.819 22.4707 243.921 22.5009 244.024C22.5609 244.234 22.6086 244.447 22.6436 244.663C22.6717 244.829 22.6384 244.571 22.6508 244.729C22.656 244.795 22.6627 244.86 22.6666 244.926C22.6746 245.063 22.6765 245.201 22.6723 245.338C22.6704 245.397 22.6674 245.457 22.6631 245.516C22.661 245.545 22.6442 245.723 22.65 245.676C22.6585 245.606 22.6321 245.787 22.6292 245.804C22.6156 245.879 22.6001 245.955 22.5826 246.03C22.5153 246.322 22.4167 246.606 22.2884 246.877C22.1018 247.217 22.2135 247.643 22.5425 247.846C22.8808 248.04 23.3119 247.927 23.5115 247.592C24.1005 246.403 24.2376 245.04 23.8975 243.756C23.7528 243.168 23.5047 242.611 23.1647 242.109C22.9603 241.781 22.5349 241.67 22.1957 241.855C21.8605 242.055 21.7474 242.486 21.9416 242.824H21.9415Z" fill="black"/>
<path d="M185.685 111.262L184.468 141.899C187.572 141.808 190.68 141.876 193.778 142.101C199.759 142.528 214.896 149.481 219.21 150.705L218.261 110.812C217.825 98.8648 211.443 89.9913 201.009 89.1826L174.236 89.2194" fill="white"/>
<path d="M184.976 111.262L184.562 121.682L183.908 138.149L183.759 141.898C183.762 142.288 184.077 142.603 184.467 142.606C186.228 142.553 187.989 142.553 189.751 142.605C191.258 142.65 192.952 142.681 194.369 142.868C196.316 143.188 198.231 143.678 200.092 144.331C204.718 145.828 209.221 147.682 213.743 149.459C215.481 150.142 217.223 150.873 219.021 151.387C219.234 151.443 219.461 151.398 219.636 151.265C219.811 151.131 219.915 150.925 219.917 150.704L219.816 146.451L219.576 136.348L219.292 124.386L219.058 114.551C219.019 112.901 219.022 111.243 218.903 109.596C218.516 104.202 216.865 98.7566 213.296 94.5971C211.713 92.7414 209.759 91.2375 207.56 90.1819C205.505 89.175 203.268 88.594 200.983 88.4738C198.833 88.4084 196.67 88.4798 194.52 88.4827L182.782 88.4988L174.647 88.51L174.236 88.5106C173.325 88.5118 173.323 89.9283 174.236 89.927L180.027 89.9191L191.602 89.9032L200.269 89.8913C203.744 89.9252 207.11 91.1041 209.847 93.2452C213.888 96.4039 216.135 101.266 217.058 106.216C217.427 108.504 217.611 110.819 217.608 113.136L217.817 121.94L218.096 133.69L218.353 144.488L218.494 150.424L218.501 150.704L219.397 150.021C217.836 149.575 216.32 148.953 214.81 148.363C212.618 147.508 210.435 146.631 208.241 145.781C205.91 144.878 203.569 143.996 201.197 143.205C199.234 142.504 197.218 141.957 195.17 141.568C193.66 141.354 192.137 141.238 190.612 141.218C188.565 141.139 186.516 141.13 184.467 141.19L185.175 141.898L185.589 131.478L186.244 115.011L186.393 111.262C186.429 110.35 185.012 110.352 184.976 111.262L184.976 111.262Z" fill="black"/>
<path d="M219.125 150.848C219.283 148.633 215.52 146.384 209.541 144.688L207.636 155.726C214.425 154.957 218.958 153.196 219.125 150.848Z" fill="black"/>
<path d="M219.833 150.848C219.926 149.156 218.411 147.882 217.131 147.051C214.899 145.6 212.271 144.73 209.729 144.004C209.353 143.903 208.965 144.123 208.858 144.499L207.19 154.165L206.953 155.538C206.884 155.938 207.136 156.492 207.636 156.434C210.574 156.097 213.585 155.62 216.321 154.448C217.875 153.783 219.671 152.711 219.833 150.848C219.912 149.94 218.496 149.945 218.417 150.848C218.409 150.931 218.41 150.927 218.421 150.836C218.415 150.875 218.407 150.914 218.398 150.952C218.381 151.009 218.366 151.068 218.35 151.125C218.337 151.163 218.324 151.201 218.309 151.239C218.341 151.164 218.34 151.164 218.305 151.238C218.276 151.294 218.247 151.35 218.214 151.405C218.062 151.652 217.868 151.872 217.642 152.055C216.989 152.577 216.255 152.991 215.47 153.279C212.983 154.264 210.28 154.714 207.636 155.018L208.319 155.914L209.987 146.248L210.224 144.875L209.353 145.37C211.686 146.036 214.053 146.821 216.133 148.095C216.811 148.482 217.42 148.979 217.934 149.566C218.015 149.67 218.09 149.778 218.159 149.889C218.196 149.951 218.23 150.014 218.263 150.077C218.267 150.084 218.352 150.282 218.304 150.158C218.35 150.28 218.386 150.406 218.412 150.534C218.446 150.701 218.413 150.443 218.418 150.597C218.421 150.681 218.422 150.764 218.417 150.848C218.367 151.759 219.784 151.756 219.833 150.848Z" fill="black"/>
<path d="M193.777 142.1C190.679 141.874 187.572 141.807 184.467 141.897L183.895 154.85L183.733 158.535L128.956 157.573L122.768 150.685C119.363 146.895 114.508 144.73 109.412 144.73H99.5674L110.642 156.618C113.046 159.2 114.437 162.563 114.559 166.088C114.711 170.511 117.237 174.507 121.166 176.544C124.406 178.223 127.921 179.307 131.544 179.743L182.747 185.913C194.733 186.294 205.212 177.545 207.742 165.823L208.852 158.127L209.54 144.687C204.385 143.302 199.104 142.436 193.777 142.1Z" fill="#D08B5B"/>
<path d="M193.777 141.392C190.679 141.169 187.572 141.102 184.467 141.19C184.079 141.198 183.767 141.51 183.759 141.898C183.568 146.217 183.377 150.536 183.187 154.855C183.133 156.082 183.079 157.309 183.024 158.536L183.733 157.828L178.287 157.732L165.207 157.502L149.383 157.224L135.701 156.984L131.191 156.905C130.478 156.85 129.763 156.837 129.049 156.867C129.018 156.869 128.987 156.868 128.956 156.866L129.457 157.073L125.962 153.183C124.665 151.739 123.415 150.191 121.975 148.885C119.019 146.213 115.293 144.546 111.331 144.125C109.432 143.922 107.481 144.022 105.576 144.022H99.5673C99.2846 144.03 99.0329 144.203 98.9247 144.464C98.8165 144.725 98.872 145.026 99.0665 145.231L108.122 154.952C109.606 156.545 111.155 158.066 112.201 160.002C112.759 161.038 113.182 162.142 113.461 163.285C113.693 164.396 113.835 165.525 113.884 166.659C114.054 168.838 114.769 170.939 115.963 172.768C118.625 176.799 123.399 178.734 127.936 179.815C129.496 180.162 131.076 180.42 132.666 180.587L143.702 181.917L160.681 183.963L176.168 185.829L181.022 186.414C181.75 186.526 182.483 186.598 183.218 186.632C191.49 186.734 199.286 182.465 204.078 175.799C205.295 174.094 206.308 172.252 207.094 170.31C207.728 168.862 208.186 167.343 208.457 165.785L209.472 158.754C209.68 157.312 209.678 155.835 209.752 154.381L210.169 146.243L210.249 144.687C210.246 144.369 210.034 144.091 209.729 144.004C204.513 142.598 199.169 141.723 193.777 141.392C192.868 141.326 192.872 142.743 193.777 142.809C199.042 143.135 204.26 143.993 209.352 145.37L208.832 144.687L208.176 157.501C208.144 157.702 208.134 157.906 208.145 158.109C208.159 158.18 208.19 157.817 208.16 158.009C208.136 158.16 208.116 158.31 208.094 158.461L207.567 162.111C207.408 163.216 207.258 164.324 207.089 165.428C206.812 166.977 206.356 168.489 205.728 169.933C202.68 177.376 195.978 183.13 188.075 184.757C186.136 185.198 184.139 185.325 182.159 185.134L178.541 184.698L164.472 183.003L147.439 180.951L134.404 179.38C133.497 179.271 132.591 179.162 131.685 179.053C127.987 178.605 124.178 177.513 120.951 175.617C118.184 173.989 116.219 171.283 115.529 168.148C115.357 167.112 115.244 166.067 115.191 165.019C114.803 161.449 113.21 158.338 110.782 155.732L100.974 145.201L100.068 144.229L99.5675 145.438H108.317C110.154 145.389 111.99 145.578 113.779 146C116.767 146.786 119.49 148.357 121.666 150.549C123.819 152.722 125.786 155.104 127.83 157.379C128.229 157.824 128.515 158.266 129.15 158.286C129.659 158.302 130.17 158.304 130.68 158.313L137.473 158.432L147.638 158.61L159.25 158.814L170.386 159.01L179.121 159.163C180.592 159.189 182.067 159.244 183.539 159.241C183.603 159.241 183.668 159.243 183.732 159.244C184.121 159.237 184.434 158.924 184.441 158.536L185.064 144.415L185.175 141.898L184.467 142.606C187.572 142.518 190.679 142.586 193.777 142.809C194.687 142.873 194.683 141.456 193.777 141.392Z" fill="black"/>
<path d="M165.399 105.546C157.81 105.546 151.657 99.3932 151.657 91.8039V89.2188H179.141V91.8039C179.141 95.4484 177.693 98.9437 175.116 101.521C172.539 104.098 169.044 105.546 165.399 105.546Z" fill="#D08B5B"/>
<path d="M165.399 104.838C158.423 104.838 152.684 99.3457 152.377 92.3768C152.334 91.3263 152.365 90.2701 152.365 89.219L151.657 89.9272H179.14L178.432 89.219C178.432 90.0793 178.436 90.9396 178.432 91.7999C178.429 93.4733 178.11 95.131 177.492 96.6861C175.503 101.618 170.716 104.845 165.399 104.838C164.487 104.842 164.486 106.258 165.399 106.254C173.034 106.254 179.351 100.313 179.82 92.6925C179.894 91.5393 179.849 90.3737 179.849 89.219C179.843 88.8301 179.529 88.5163 179.14 88.5107H151.657C151.268 88.5163 150.954 88.8301 150.949 89.219C150.949 90.1655 150.933 91.113 150.951 92.0593C151.091 99.9389 157.518 106.254 165.399 106.254C166.31 106.254 166.312 104.838 165.399 104.838Z" fill="black"/>
<path d="M174.61 91.8302L174.362 73.2109L158.529 79.183L157.952 91.4019" fill="#D08B5B"/>
<path d="M175.318 91.832L175.234 85.5457L175.1 75.5209L175.07 73.2126C175.067 72.9923 174.964 72.7853 174.788 72.6518C174.613 72.5183 174.386 72.4732 174.173 72.5297L168.843 74.5401L160.296 77.7638L158.34 78.5016C158.039 78.5954 157.83 78.8694 157.82 79.1845L157.316 89.8683L157.243 91.4034C157.2 92.3147 158.617 92.3125 158.66 91.4034L159.164 80.7196L159.236 79.1845L158.716 79.8674L164.046 77.857L172.593 74.6333L174.55 73.8955L173.653 73.2126L173.737 79.4988L173.871 89.5237L173.901 91.832C173.914 92.7427 175.33 92.7452 175.318 91.832Z" fill="black"/>
<path d="M174.454 79.6407C183.597 72.6746 180.858 65.5617 181.392 60.4199C181.702 57.4342 177.809 50.9199 177.809 50.9199L147.488 51.7973C147.488 51.7973 134.943 85.5808 164.223 80.8338" fill="#D08B5B"/>
<path d="M174.811 80.2524C177.219 78.4051 179.394 76.1743 180.668 73.3822C181.592 71.2673 182.075 68.9862 182.088 66.6782C182.134 64.7692 181.937 62.8562 182.057 60.9491C182.134 60.0313 182.065 59.1069 181.85 58.2111C181.55 57.1006 181.159 56.0169 180.68 54.9711C180.02 53.4559 179.265 51.9835 178.42 50.5627C178.293 50.3456 178.06 50.2122 177.809 50.2119L167.551 50.5089L151.217 50.9816L147.488 51.0895C147.172 51.0983 146.897 51.3075 146.805 51.6094C146.394 52.717 146.065 53.8595 145.758 54.9993C145.034 57.6438 144.535 60.3446 144.266 63.073C143.973 66.1646 144.023 69.3693 144.861 72.3785C145.703 75.4066 147.443 78.1233 150.134 79.8172C153.697 82.0609 158.201 82.2574 162.27 81.8094C162.986 81.7306 163.7 81.6313 164.411 81.5171C164.786 81.4107 165.007 81.0227 164.906 80.6459C164.794 80.2747 164.41 80.0568 164.035 80.1512C161.637 80.5706 159.196 80.681 156.77 80.4796C155.841 80.39 154.921 80.2202 154.021 79.9721C153.223 79.7608 152.451 79.4644 151.716 79.0882C151.362 78.9066 151.017 78.7064 150.684 78.4885C150.394 78.3035 150.116 78.1001 149.852 77.8797C149.293 77.4131 148.782 76.8912 148.327 76.3221C148.293 76.284 148.262 76.2438 148.234 76.2017C148.186 76.137 148.138 76.0719 148.091 76.0064C147.986 75.8589 147.884 75.709 147.786 75.5567C147.59 75.2521 147.408 74.9389 147.24 74.6172C147.156 74.4562 147.075 74.2934 146.998 74.1289C146.964 74.0557 146.93 73.9821 146.897 73.9082C146.877 73.8641 146.767 73.6047 146.824 73.7423C146.683 73.4033 146.556 73.0592 146.441 72.7102C146.213 72.0114 146.03 71.2987 145.894 70.5765C145.756 69.8835 145.662 69.1825 145.612 68.4776C145.494 66.9502 145.495 65.4159 145.614 63.8886C145.668 63.1524 145.745 62.4184 145.838 61.6863C145.844 61.6459 145.849 61.6054 145.854 61.5649C145.87 61.4439 145.831 61.7368 145.858 61.5415C145.869 61.4613 145.88 61.3811 145.892 61.3009C145.917 61.1222 145.944 60.9436 145.972 60.7652C146.026 60.416 146.085 60.0674 146.147 59.7194C146.37 58.4754 146.639 57.2409 146.955 56.0159C147.187 55.1129 147.442 54.2163 147.721 53.3262C147.855 52.9014 148.046 52.4743 148.15 52.0417C148.156 52.0228 148.163 52.0042 148.171 51.986L147.488 52.5059L157.745 52.2091L174.079 51.7364L177.809 51.6285L177.197 51.2778C177.861 52.3908 178.461 53.5476 179.016 54.7186C179.478 55.6751 179.879 56.6601 180.217 57.6675C180.537 58.4996 180.699 59.384 180.695 60.2755C180.479 64.1024 181.129 68.0221 179.824 71.7187C178.77 74.7054 176.575 77.1276 174.096 79.0296C173.769 79.2348 173.657 79.6592 173.842 79.9986C174.041 80.3341 174.473 80.4473 174.811 80.2527L174.811 80.2524Z" fill="black"/>
<path d="M157.078 59.6733C157.222 59.5927 157.369 59.5197 157.52 59.4544C157.317 59.5503 157.597 59.4264 157.658 59.4042C157.745 59.3728 157.832 59.3433 157.92 59.3157C158.156 59.2416 158.397 59.182 158.641 59.1374C158.7 59.1265 158.759 59.1166 158.818 59.1076C158.695 59.1262 158.926 59.0954 158.926 59.0954C159.07 59.0809 159.214 59.0718 159.358 59.0681C159.638 59.06 159.918 59.0743 160.196 59.1108C160.933 59.2309 161.636 59.5034 162.262 59.9109C163.035 60.3989 163.746 59.1737 162.977 58.6878C161.052 57.4726 158.366 57.2386 156.363 58.4502C155.585 58.9216 156.296 60.1469 157.078 59.6733H157.078Z" fill="black"/>
<path d="M146.43 59.085C148.302 58.3157 151.242 58.4487 151.908 60.7344C152.23 61.8395 151.775 63.0456 151.249 64.0168C150.881 64.69 150.434 65.3172 149.919 65.8851C149.635 66.2002 149.229 66.4835 149.122 66.9067C149.062 67.1525 149.044 67.4068 149.07 67.6586C149.226 69.187 150.933 69.327 152.147 69.2343C153.05 69.1654 153.057 67.7483 152.147 67.8179C151.668 67.8545 150.989 67.9013 150.615 67.7125C150.487 67.6482 150.578 67.7004 150.505 67.6341C150.608 67.7276 150.441 67.4725 150.491 67.6062C150.465 67.4684 150.471 67.3266 150.509 67.1916L150.327 67.5041C151.284 66.5919 152.077 65.5216 152.671 64.3402C153.17 63.4102 153.431 62.3717 153.432 61.3166C153.372 60.1868 152.864 59.1276 152.02 58.3739C151.059 57.5347 149.884 57.2699 148.632 57.2842C147.753 57.2695 146.879 57.417 146.054 57.7192C145.684 57.8333 145.468 58.2149 145.559 58.5904C145.665 58.9659 146.053 59.1864 146.43 59.085Z" fill="black"/>
<ellipse cx="147.505" cy="63.1884" rx="1.06142" ry="1.06143" fill="black"/>
<path d="M146.798 63.1444C146.799 63.1293 146.811 63.032 146.797 63.1213C146.8 63.1022 146.803 63.0831 146.807 63.0642C146.817 63.0171 146.831 62.9723 146.845 62.9267C146.873 62.8393 146.81 62.9876 146.853 62.9073C146.862 62.8909 146.869 62.8739 146.878 62.8575C146.891 62.8331 146.906 62.8092 146.921 62.7859C146.932 62.7695 146.984 62.705 146.931 62.768C146.96 62.7325 146.992 62.6987 147.025 62.6668C147.038 62.6541 147.053 62.6424 147.066 62.6299C147.131 62.569 147.006 62.6644 147.082 62.6179C147.122 62.5937 147.16 62.5681 147.201 62.547C147.218 62.5385 147.235 62.5306 147.251 62.5229C147.172 62.5592 147.267 62.5199 147.285 62.5143C147.331 62.5002 147.377 62.4914 147.423 62.4817C147.477 62.4702 147.338 62.4828 147.429 62.4824C147.454 62.4824 147.478 62.4799 147.503 62.4799C147.527 62.4799 147.552 62.4823 147.577 62.4823C147.669 62.4823 147.53 62.4703 147.585 62.4816C147.636 62.4912 147.688 62.5036 147.738 62.5187C147.752 62.5234 147.838 62.5598 147.759 62.5235C147.776 62.5313 147.793 62.5392 147.809 62.5478C147.851 62.5691 147.889 62.5949 147.929 62.6192C148 62.6636 147.901 62.585 147.934 62.6226C147.949 62.6394 147.97 62.6532 147.986 62.6686C148.002 62.684 148.018 62.7009 148.034 62.7179C148.047 62.7322 148.106 62.8125 148.058 62.7422C148.084 62.7799 148.109 62.819 148.132 62.8593C148.14 62.8757 148.148 62.8925 148.157 62.9089C148.199 62.988 148.139 62.841 148.164 62.9276C148.177 62.9731 148.193 63.0172 148.202 63.0637C148.206 63.0824 148.209 63.1012 148.212 63.12C148.198 63.0305 148.211 63.136 148.211 63.156C148.213 63.2006 148.21 63.2445 148.207 63.289C148.212 63.2016 148.206 63.2929 148.202 63.31C148.198 63.3288 148.194 63.3475 148.189 63.366C148.182 63.3936 148.172 63.4204 148.164 63.4475C148.145 63.5092 148.162 63.4539 148.168 63.4415C148.145 63.4924 148.118 63.5415 148.088 63.5884C148.087 63.59 148.034 63.6636 148.067 63.6201C148.1 63.5767 148.043 63.6466 148.042 63.6482C148.01 63.6827 147.976 63.7128 147.943 63.7444C147.882 63.8014 147.983 63.7276 147.938 63.7483C147.918 63.76 147.899 63.7727 147.88 63.7865C147.864 63.7962 147.848 63.8055 147.832 63.8143C147.815 63.8235 147.706 63.8666 147.79 63.8371C147.746 63.8533 147.701 63.8672 147.655 63.8787C147.637 63.8831 147.618 63.8865 147.6 63.8903C147.511 63.9084 147.65 63.891 147.594 63.8907C147.545 63.8905 147.496 63.8955 147.447 63.8928C147.426 63.8917 147.359 63.883 147.438 63.8951C147.41 63.8907 147.381 63.8853 147.353 63.8786C147.326 63.8721 147.298 63.8644 147.271 63.8556C147.257 63.851 147.174 63.8143 147.25 63.8508C147.199 63.8273 147.15 63.8005 147.103 63.7706C147.088 63.7604 147.073 63.7496 147.057 63.739C147.13 63.7897 147.036 63.7183 147.023 63.7057C146.99 63.6737 146.959 63.6398 146.929 63.6041C146.984 63.6705 146.928 63.5992 146.92 63.5864C146.905 63.5631 146.89 63.5392 146.877 63.5149C146.864 63.4906 146.852 63.4654 146.84 63.44C146.865 63.4955 146.846 63.4519 146.836 63.42C146.818 63.3658 146.805 63.3104 146.796 63.2542C146.799 63.2683 146.801 63.3282 146.8 63.2621C146.799 63.2227 146.797 63.1838 146.798 63.1443C146.796 62.9495 146.639 62.7919 146.444 62.7902C146.25 62.7939 146.093 62.9503 146.09 63.1443C146.07 63.7432 146.43 64.2894 146.988 64.5082C147.546 64.727 148.181 64.5711 148.574 64.1189C148.967 63.6667 149.033 63.016 148.739 62.4941C148.444 61.9722 147.854 61.692 147.263 61.7943C146.603 61.9129 146.115 62.4746 146.09 63.1443C146.091 63.3394 146.249 63.4972 146.444 63.4985C146.638 63.4944 146.794 63.3383 146.798 63.1444Z" fill="black"/>
<ellipse cx="157.518" cy="63.1884" rx="1.06142" ry="1.06143" fill="black"/>
<path d="M156.812 63.1444C156.813 63.1293 156.825 63.032 156.811 63.1213C156.814 63.1022 156.817 63.0831 156.821 63.0642C156.831 63.0171 156.845 62.9723 156.86 62.9267C156.887 62.8393 156.824 62.9876 156.867 62.9073C156.876 62.8909 156.884 62.8739 156.893 62.8575C156.906 62.8331 156.92 62.8092 156.935 62.7859C156.946 62.7695 156.999 62.705 156.945 62.768C156.975 62.7325 157.006 62.6987 157.039 62.6668C157.053 62.6541 157.067 62.6424 157.081 62.6299C157.145 62.569 157.021 62.6643 157.097 62.6179C157.136 62.5937 157.174 62.5681 157.216 62.547C157.232 62.5385 157.249 62.5306 157.266 62.5229C157.186 62.5592 157.281 62.5199 157.299 62.5143C157.345 62.5002 157.391 62.4914 157.438 62.4816C157.492 62.4702 157.353 62.4828 157.444 62.4824C157.468 62.4824 157.493 62.4799 157.517 62.4799C157.542 62.4799 157.567 62.4823 157.591 62.4823C157.684 62.4823 157.545 62.4703 157.599 62.4816C157.651 62.4911 157.702 62.5035 157.752 62.5187C157.767 62.5234 157.853 62.5598 157.773 62.5235C157.79 62.5313 157.807 62.5392 157.824 62.5478C157.865 62.5691 157.904 62.5949 157.943 62.6192C158.015 62.6635 157.916 62.585 157.949 62.6226C157.963 62.6394 157.984 62.6532 158 62.6686C158.016 62.684 158.033 62.7009 158.049 62.7179C158.062 62.7322 158.121 62.8124 158.072 62.7422C158.099 62.7799 158.123 62.819 158.146 62.8593C158.155 62.8757 158.163 62.8925 158.171 62.9089C158.214 62.988 158.154 62.841 158.179 62.9276C158.192 62.9731 158.207 63.0172 158.217 63.0637C158.221 63.0824 158.224 63.1012 158.227 63.12C158.212 63.0305 158.225 63.136 158.226 63.1559C158.227 63.2006 158.224 63.2445 158.222 63.289C158.227 63.2016 158.22 63.2929 158.217 63.31C158.213 63.3287 158.208 63.3475 158.204 63.366C158.196 63.3936 158.187 63.4204 158.178 63.4475C158.159 63.5092 158.177 63.4539 158.183 63.4415C158.16 63.4924 158.133 63.5415 158.102 63.5884C158.101 63.59 158.048 63.6636 158.082 63.6201C158.115 63.5767 158.058 63.6466 158.056 63.6482C158.025 63.6827 157.991 63.7128 157.957 63.7444C157.896 63.8014 157.997 63.7275 157.953 63.7483C157.933 63.76 157.913 63.7727 157.895 63.7865C157.879 63.7962 157.863 63.8055 157.847 63.8143C157.83 63.8235 157.721 63.8666 157.805 63.8371C157.761 63.8533 157.716 63.8671 157.67 63.8787C157.652 63.883 157.633 63.8865 157.614 63.8903C157.525 63.9084 157.665 63.891 157.608 63.8907C157.559 63.8904 157.511 63.8955 157.461 63.8928C157.441 63.8917 157.374 63.883 157.453 63.8951C157.425 63.8907 157.396 63.8852 157.368 63.8786C157.34 63.8721 157.313 63.8644 157.285 63.8556C157.271 63.851 157.188 63.8143 157.265 63.8508C157.214 63.8273 157.165 63.8005 157.118 63.7706C157.102 63.7604 157.087 63.7496 157.072 63.739C157.144 63.7897 157.051 63.7183 157.038 63.7057C157.004 63.6737 156.973 63.6398 156.944 63.6041C156.999 63.6705 156.943 63.5992 156.934 63.5864C156.919 63.5631 156.905 63.5392 156.892 63.5149C156.879 63.4906 156.866 63.4654 156.855 63.44C156.88 63.4955 156.861 63.4519 156.85 63.42C156.833 63.3658 156.82 63.3104 156.811 63.2542C156.813 63.2683 156.816 63.3282 156.814 63.2621C156.813 63.2227 156.811 63.1838 156.812 63.1443C156.811 62.9495 156.653 62.7919 156.458 62.7902C156.264 62.794 156.108 62.9503 156.104 63.1443C156.085 63.7432 156.445 64.2894 157.003 64.5082C157.56 64.727 158.195 64.5711 158.589 64.1189C158.982 63.6667 159.048 63.0161 158.753 62.4941C158.459 61.9722 157.868 61.692 157.278 61.7943C156.618 61.9129 156.13 62.4746 156.104 63.1443C156.106 63.3394 156.263 63.4972 156.458 63.4985C156.652 63.4943 156.808 63.3382 156.812 63.1444Z" fill="black"/>
<path d="M152.873 73.1651L155.294 72.5599L155.634 72.4748L154.737 71.7919C154.737 71.8271 154.736 71.8622 154.734 71.8973C154.721 72.0825 154.765 71.7599 154.737 71.8777C154.717 71.9635 154.689 72.0443 154.665 72.1285C154.727 71.9145 154.703 72.0406 154.67 72.1031C154.65 72.1398 154.629 72.1756 154.606 72.2104C154.511 72.3542 154.701 72.1047 154.624 72.191C154.604 72.2139 154.584 72.2375 154.563 72.2599C154.534 72.2894 154.505 72.3177 154.474 72.3446C154.346 72.4577 154.595 72.2649 154.498 72.3283C154.43 72.3728 154.36 72.4139 154.289 72.4514C154.185 72.5055 154.48 72.3807 154.318 72.4384C154.279 72.452 154.241 72.464 154.202 72.4743C154.162 72.4847 154.122 72.4921 154.083 72.5004C153.961 72.5258 154.286 72.4871 154.134 72.4921C154.057 72.4946 153.982 72.495 153.904 72.4906C153.784 72.4839 154.112 72.529 153.938 72.4933C153.897 72.4847 153.857 72.4743 153.816 72.4621C153.752 72.4426 153.633 72.3704 153.835 72.4777C153.796 72.4572 153.756 72.4407 153.717 72.4194C153.678 72.3976 153.641 72.3722 153.603 72.3484C153.496 72.2813 153.742 72.4687 153.622 72.3637C153.477 72.2363 153.331 72.1089 153.185 71.9816C152.909 71.7051 152.46 71.7051 152.184 71.9817C151.907 72.2582 151.907 72.7067 152.184 72.9832C152.561 73.396 153.042 73.6996 153.577 73.8621C154.383 74.0293 155.215 73.7231 155.72 73.0729C156.002 72.7057 156.155 72.2552 156.154 71.7919C156.151 71.572 156.047 71.3657 155.872 71.2325C155.697 71.0992 155.47 71.0537 155.257 71.109L152.836 71.7142L152.496 71.7993C152.251 71.8653 152.059 72.0577 151.995 72.3035C151.93 72.5494 152.002 72.8109 152.184 72.989C152.365 73.167 152.628 73.2342 152.873 73.1651H152.873Z" fill="black"/>
<path d="M174.86 59.8002C174.427 59.6563 173.962 59.6368 173.518 59.7438C172.485 59.9454 171.685 60.7725 171.16 61.6372C170.661 62.5095 170.294 63.451 170.07 64.431C170.003 64.675 170.071 64.9363 170.249 65.1165C170.426 65.2968 170.687 65.3686 170.932 65.3048C171.177 65.2411 171.369 65.0515 171.436 64.8075C171.546 64.3619 171.68 63.9225 171.838 63.4911C171.872 63.3969 171.909 63.3037 171.946 63.2103C172.016 63.0349 171.906 63.2985 171.953 63.1939C171.972 63.1516 171.99 63.1088 172.009 63.0665C172.081 62.9085 172.158 62.753 172.241 62.6002C172.315 62.4635 172.394 62.3294 172.48 62.199C172.519 62.139 172.559 62.0798 172.601 62.0213C172.617 61.9989 172.634 61.9769 172.65 61.9544C172.731 61.8414 172.541 62.0851 172.649 61.9555C172.8 61.7751 172.964 61.6068 173.141 61.4524C173.282 61.3299 173.052 61.5123 173.132 61.4584C173.173 61.431 173.212 61.4015 173.253 61.3746C173.333 61.3222 173.416 61.2744 173.502 61.2314C173.537 61.2175 173.572 61.2012 173.606 61.1824C173.425 61.3094 173.491 61.2289 173.572 61.1992C173.647 61.172 173.723 61.1489 173.8 61.13C173.864 61.1146 173.932 61.1105 173.994 61.0925C173.757 61.1614 173.838 61.1096 173.921 61.1045C173.955 61.1024 173.988 61.0995 174.021 61.0983C174.13 61.0944 174.235 61.1083 174.343 61.113C174.313 61.1117 174.107 61.0727 174.231 61.0993C174.253 61.1041 174.276 61.1076 174.298 61.1124C174.331 61.1197 174.364 61.1275 174.396 61.1369C174.426 61.1449 174.455 61.1546 174.483 61.1659C174.86 61.2689 175.25 61.0478 175.355 60.6712C175.446 60.2957 175.229 59.9137 174.86 59.8L174.86 59.8002Z" fill="black"/>
<path d="M139.841 37.8428L168.682 38.3769C172.408 38.4468 175.908 40.1762 178.227 43.0931C179.344 41.5874 181.48 39.1446 183.631 39.0724C182.517 40.3402 180.981 44.1084 180.456 45.4459C180.511 45.4474 180.57 45.45 180.633 45.4536C181.266 44.7612 182.759 43.627 185.338 44.3735C184.444 44.5969 183.688 45.3282 183.114 46.0969C185.096 47.0458 187.367 49.3397 187.951 54.8228C188.214 57.3025 187.456 60.3544 186.327 63.3215C183.87 69.7064 179.778 75.3326 174.459 79.6354L174.454 79.6397L173.671 69.6258C175.101 68.5082 177.154 64.2386 177.154 61.7891C177.154 58.0883 175.167 57.2176 172.582 57.2176C171.641 57.2176 170.664 57.8669 169.802 58.8645C167.794 61.3689 168.576 66.1424 168.576 66.1428C167.426 63.2667 166.835 60.1974 166.835 57.0998V51.2672C166.835 51.2672 159.492 55.3204 150.943 54.1697C150.943 54.1697 149.599 53.7732 146.53 53.5371C146.172 54.2249 145.856 54.9345 145.586 55.6618C145.586 55.6618 142.753 54.2454 142.753 50.9402C141.101 51.4123 140.865 52.3566 140.865 52.3566C139.452 51.1304 138.897 49.1863 139.448 47.399" fill="#231F20"/>
<path d="M139.84 38.5513L143.592 38.6208L152.185 38.78L161.669 38.9555L167.947 39.0718C168.592 39.0838 169.237 39.0894 169.879 39.1654C172.332 39.4671 174.628 40.5321 176.442 42.2097C176.903 42.6394 177.332 43.1021 177.726 43.5942C178.041 43.9862 178.596 43.7758 178.838 43.4509C179.455 42.6085 180.159 41.8329 180.937 41.1368C181.682 40.4822 182.607 39.836 183.63 39.781L183.129 38.572C182.343 39.5811 181.697 40.6926 181.21 41.8759C180.694 42.9868 180.22 44.1181 179.772 45.258C179.716 45.4709 179.761 45.6979 179.894 45.8731C180.028 46.0483 180.235 46.1522 180.455 46.1544C180.942 46.1719 181.141 45.909 181.474 45.6236C181.718 45.419 181.991 45.2496 182.282 45.1205C183.202 44.7687 184.215 44.7462 185.149 45.0568V43.691C184.016 44.008 183.195 44.8289 182.501 45.7399C182.305 46.0778 182.418 46.5108 182.755 46.7089C184.103 47.3833 185.193 48.4796 185.86 49.8308C187.006 52.0938 187.479 54.6376 187.224 57.161C186.92 60.1078 185.812 63.031 184.552 65.6921C182.075 70.9148 178.452 75.5114 173.952 79.1393L175.161 79.6401L174.477 70.8831L174.378 69.6263L174.171 70.1271C174.848 69.5179 175.41 68.7914 175.83 67.9826C176.399 66.9923 176.873 65.9499 177.244 64.8695C177.925 62.8994 178.246 60.4965 177.154 58.6019C176.222 56.9853 174.237 56.4058 172.464 56.5131C171.171 56.5913 170.014 57.4702 169.231 58.4524C168.573 59.329 168.134 60.3508 167.952 61.4321C167.647 63.0492 167.626 64.7074 167.892 66.3316L169.258 65.955C168.131 63.123 167.549 60.1035 167.542 57.0554C167.54 55.6617 167.54 54.2681 167.542 52.8744V51.2679C167.538 51.016 167.401 50.7849 167.183 50.6596C166.964 50.5342 166.696 50.533 166.476 50.6564C164.9 51.4852 163.234 52.1316 161.511 52.5831C159.797 53.0789 158.04 53.41 156.264 53.5716C155.244 53.661 154.219 53.688 153.196 53.6524C152.479 53.6488 151.763 53.5869 151.056 53.4673C149.564 53.1493 148.052 52.9362 146.529 52.8296C146.277 52.8256 146.042 52.9602 145.918 53.1804C145.528 53.9213 145.189 54.6877 144.902 55.4742L145.943 55.051C145.808 54.9804 145.678 54.9015 145.553 54.8146C145.484 54.768 145.417 54.7195 145.35 54.6701C145.265 54.607 145.432 54.7359 145.343 54.665C145.307 54.6368 145.272 54.6082 145.237 54.5789C145.059 54.4296 144.889 54.2704 144.728 54.1022C143.917 53.2491 143.463 52.118 143.461 50.941C143.458 50.7209 143.354 50.5144 143.179 50.381C143.004 50.2476 142.777 50.2023 142.564 50.2581C141.63 50.5405 140.458 51.1306 140.181 52.1692L141.364 51.8568C140.137 50.8085 139.652 49.13 140.13 47.5884C140.387 46.7119 139.021 46.3375 138.764 47.2119C138.19 49.1726 138.724 51.5337 140.363 52.8585C140.543 53.0311 140.801 53.0974 141.042 53.0336C141.284 52.9699 141.475 52.7852 141.547 52.546C141.587 52.3933 141.484 52.637 141.538 52.5602C141.569 52.5153 141.593 52.4616 141.622 52.4147C141.708 52.2778 141.589 52.4365 141.689 52.3273C142.034 51.9832 142.467 51.74 142.941 51.6242L142.044 50.9413C142.069 53.0826 143.273 55.2862 145.228 56.2743C145.419 56.3805 145.647 56.3945 145.849 56.3122C146.052 56.2299 146.206 56.0603 146.268 55.851C146.515 55.1803 146.806 54.527 147.141 53.8955L146.529 54.2463C147.899 54.3355 149.26 54.5251 150.602 54.8135C152.242 55.1892 154.073 55.139 155.743 55.0281C159.039 54.7994 162.275 54.0288 165.321 52.747C165.959 52.4912 166.583 52.2017 167.191 51.8796L166.125 51.2681C166.125 54.436 165.947 57.6731 166.407 60.8155C166.687 62.7055 167.186 64.5567 167.892 66.3319C168.007 66.6957 168.389 66.9035 168.757 66.8021C169.124 66.7007 169.346 66.3265 169.258 65.9554C169.256 65.9397 169.253 65.9239 169.251 65.9082C169.224 65.7281 169.264 66.0301 169.252 65.9239C169.23 65.724 169.206 65.5245 169.19 65.3241C169.139 64.7335 169.123 64.1405 169.14 63.548C169.181 62.1392 169.399 60.5083 170.302 59.366C170.807 58.7261 171.613 58.0031 172.464 57.9299C173.1 57.8859 173.739 57.9559 174.35 58.1366C175.536 58.4802 176.163 59.4075 176.367 60.6441C176.63 62.2338 176.179 63.7966 175.59 65.2617C175.072 66.5513 174.382 68.0329 173.335 68.9853C173.076 69.1834 172.94 69.5025 172.977 69.8261L173.048 70.7325L173.294 73.8718L173.745 79.6406C173.754 79.9223 173.928 80.1723 174.188 80.2801C174.448 80.388 174.748 80.3337 174.954 80.1414C179.411 76.5447 183.028 72.0163 185.55 66.8739C186.92 64.0806 188.092 61.0616 188.538 57.9693C188.929 55.1815 188.534 52.3399 187.397 49.7645C186.633 47.9205 185.242 46.4053 183.47 45.4857L183.724 46.4547C184.158 45.8065 184.79 45.3161 185.526 45.0568C185.826 44.965 186.031 44.6879 186.031 44.3739C186.031 44.0599 185.826 43.7827 185.526 43.691C183.607 43.1603 181.53 43.4476 180.131 44.9532L180.632 44.7457C180.573 44.7423 180.514 44.7397 180.455 44.738L181.138 45.6345C181.541 44.6082 181.969 43.5911 182.433 42.5908C182.905 41.5765 183.431 40.3892 184.131 39.5736C184.501 39.1421 184.288 38.3292 183.63 38.3646C181.042 38.5038 179.054 40.8062 177.615 42.736L178.727 42.5927C176.192 39.4945 172.409 37.6876 168.406 37.6639L162.969 37.5632L153.627 37.3902L144.586 37.2228C143.033 37.194 141.462 37.0941 139.908 37.1362C139.885 37.1368 139.863 37.1354 139.84 37.1349C138.928 37.118 138.928 38.5345 139.84 38.5514V38.5513Z" fill="black"/>
<path d="M169.285 66.1428C169.274 65.756 168.963 65.4449 168.576 65.4346L168.388 65.46C168.27 65.4926 168.162 65.5553 168.076 65.6421L167.965 65.7854C167.901 65.8938 167.868 66.0172 167.868 66.1429C167.878 66.5297 168.19 66.8408 168.576 66.8511L168.765 66.8257C168.883 66.7931 168.991 66.7303 169.077 66.6436L169.188 66.5002C169.251 66.3918 169.285 66.2684 169.285 66.1428C169.274 65.756 168.963 65.4449 168.576 65.4346L168.388 65.46C168.27 65.4926 168.162 65.5553 168.076 65.6421L167.965 65.7854C167.901 65.8938 167.868 66.0172 167.868 66.1429C167.878 66.5297 168.19 66.8408 168.576 66.8511L168.765 66.8257C168.883 66.7931 168.991 66.7303 169.077 66.6436L169.188 66.5002C169.251 66.3918 169.285 66.2684 169.285 66.1428Z" fill="black"/>
<path d="M126.895 155.278L132.875 162.581L126.895 155.278Z" fill="#20365C"/>
<path d="M126.394 155.78L131.623 162.165L132.374 163.082C132.652 163.356 133.098 163.356 133.375 163.082C133.643 162.802 133.643 162.361 133.375 162.081L128.146 155.696L127.395 154.779C127.117 154.505 126.671 154.505 126.393 154.779C126.125 155.059 126.125 155.5 126.393 155.78H126.394Z" fill="black"/>
<path d="M83.6758 184.567L95.8665 190.01L83.6758 184.567Z" fill="#20365C"/>
<path d="M83.318 185.179L93.9766 189.938L95.5088 190.621C95.8482 190.806 96.2726 190.695 96.4777 190.367C96.6724 190.029 96.5592 189.598 96.2237 189.398L85.5651 184.64L84.0329 183.956C83.6935 183.772 83.2691 183.883 83.0639 184.21C82.8693 184.548 82.9825 184.98 83.318 185.179Z" fill="black"/>
<path d="M192.615 299.292H165.015C157.604 299.292 151.596 293.284 151.596 285.873V216.055C151.596 208.644 157.604 202.637 165.015 202.637H195.352C198.478 202.637 201.012 200.102 201.012 196.977" fill="white"/>
<path d="M192.616 298.583H165.25C163.648 298.598 162.056 298.326 160.549 297.779C155.871 296 152.658 291.656 152.327 286.661C152.274 285.736 152.304 284.802 152.304 283.877V216.439C152.2 212.95 153.534 209.572 155.994 207.096C158.454 204.619 161.824 203.263 165.313 203.344H192.098C194.043 203.344 196.191 203.576 198.006 202.762C200.261 201.717 201.709 199.462 201.72 196.976C201.72 196.065 200.304 196.063 200.304 196.976C200.284 199.449 198.461 201.537 196.013 201.89C195.44 201.94 194.864 201.953 194.289 201.928H166.768C166.198 201.928 165.629 201.926 165.06 201.928C162.921 201.93 160.809 202.409 158.878 203.33C154.242 205.593 151.193 210.187 150.907 215.338C150.858 216.258 150.888 217.186 150.888 218.107V285.584C150.85 289.032 152.044 292.379 154.256 295.024C157.006 298.22 161.025 300.041 165.24 300H192.616C193.527 300 193.528 298.583 192.616 298.583Z" fill="black"/>
<ellipse cx="197.471" cy="268.381" rx="10.4832" ry="10.4832" fill="black"/>
<path d="M207.246 268.382C207.224 273.61 203.076 277.887 197.851 278.068C192.627 278.249 188.193 274.269 187.81 269.055C187.427 263.841 191.233 259.256 196.428 258.672C201.623 258.088 206.351 261.714 207.136 266.882C207.211 267.379 207.248 267.88 207.246 268.382C207.251 269.293 208.668 269.295 208.662 268.382C208.672 262.367 203.932 257.415 197.922 257.162C191.912 256.908 186.772 261.442 186.274 267.437C185.776 273.431 190.098 278.751 196.067 279.492C202.037 280.234 207.528 276.132 208.511 270.198C208.607 269.597 208.657 268.99 208.662 268.382C208.668 267.471 207.251 267.47 207.246 268.382Z" fill="black"/>
</svg>
