<svg width="406" height="300" viewBox="0 0 406 300" fill="none" xmlns="http://www.w3.org/2000/svg">
<path d="M290.363 19.5299C290.363 19.5299 311.287 15.4439 312.58 44.0455C312.58 65.2413 279.637 57.8355 279.892 75.7115C271.21 62.9429 279.382 45.8331 292.406 39.7042C287.809 36.3843 285.907 26.8633 285.907 26.8633" fill="#91A0A1"/>
<path d="M290.544 20.1906C290.596 20.1805 290.648 20.1722 290.701 20.1638C290.765 20.1534 290.83 20.1452 290.895 20.1351C290.967 20.1238 290.678 20.16 290.848 20.1418C290.895 20.1367 290.943 20.13 290.991 20.1244C291.55 20.0595 292.112 20.0263 292.675 20.0164C293.493 20.0021 294.312 20.0388 295.126 20.1261C295.235 20.1378 295.344 20.1508 295.453 20.1639C295.51 20.1708 295.66 20.1912 295.521 20.1722C295.587 20.1812 295.653 20.1904 295.718 20.2003C295.959 20.2364 296.2 20.276 296.439 20.3208C296.968 20.4195 297.491 20.5409 298.01 20.6847C300.341 21.321 302.5 22.4723 304.327 24.0538C306.767 26.2693 308.616 29.0574 309.709 32.1664C310.481 34.2868 311.039 36.4788 311.376 38.7099C311.749 41.0693 312.044 43.5314 311.803 45.918C311.517 48.9803 310.162 51.8444 307.978 54.0094C305.811 56.1469 303.049 57.5809 300.277 58.7734C297.364 60.0266 294.344 61.0097 291.395 62.1722C288.621 63.2658 285.842 64.4964 283.514 66.3949C281.325 68.1212 279.852 70.5969 279.38 73.3447C279.256 74.1276 279.198 74.9195 279.207 75.712L280.483 75.3664C277.42 70.7997 276.305 65.1996 277.387 59.8081C279.209 51.2754 284.883 44.0692 292.75 40.2961C293.261 40.0539 293.123 39.3872 292.75 39.1134C290.897 37.7526 289.701 35.5739 288.774 33.5202C287.967 31.6941 287.321 29.8011 286.842 27.8628C286.743 27.4712 286.646 27.0777 286.566 26.6816C286.393 25.8181 285.073 26.1836 285.246 27.0457C285.495 28.2336 285.811 29.4066 286.193 30.5589C286.897 32.9112 287.92 35.1562 289.232 37.2316C289.986 38.412 290.943 39.4495 292.059 40.2961V39.1134C286.812 41.6524 282.43 45.6822 279.461 50.6986C276.575 55.5411 275.057 61.2894 275.81 66.9223C276.253 70.196 277.447 73.3227 279.3 76.0577C279.461 76.3159 279.773 76.4381 280.067 76.3585C280.36 76.2789 280.567 76.0163 280.576 75.712C280.475 72.9423 281.521 70.2535 283.467 68.2796C285.447 66.2945 288.099 64.9971 290.7 63.9202C293.704 62.6769 296.8 61.6721 299.809 60.4422C302.749 59.2404 305.653 57.8424 308.086 55.7664C310.519 53.7204 312.206 50.926 312.882 47.8198C313.28 45.6795 313.345 43.4906 313.074 41.3305C312.856 38.8553 312.414 36.4051 311.752 34.0102C310.744 30.4768 309.114 27.0683 306.6 24.3542C304.74 22.3551 302.441 20.8157 299.884 19.8576C297.924 19.1322 295.86 18.7272 293.771 18.6583C292.623 18.589 291.47 18.6511 290.336 18.8432C290.284 18.8534 290.232 18.86 290.18 18.8701C289.315 19.0381 289.681 20.3584 290.544 20.1908L290.544 20.1906Z" fill="black"/>
<path d="M265.82 63.3626L261.876 124.725C260.589 133.293 248.784 139.719 236.658 134.62C232.92 133.54 229.364 131.908 226.107 129.779L194.991 109.562C196.536 107.46 205.116 99.1926 206.649 96.3437C209.045 91.888 210.747 87.6409 211.516 84.4889L236.986 98.3595L243.736 64.466C245.382 56.1983 252.265 49.9946 260.658 49.212L269.362 48.4004" fill="#85E0A3"/>
<path d="M265.135 63.3627L264.776 68.9531L263.902 82.5551L262.818 99.4146L261.83 114.777L261.245 123.889C261.229 124.137 261.218 124.386 261.197 124.634C261.182 124.806 261.211 124.6 261.176 124.787C261.035 125.582 260.807 126.359 260.497 127.105C259.085 130.419 256.112 132.873 252.853 134.264C248.866 135.898 244.457 136.195 240.287 135.111C239.1 134.814 237.989 134.365 236.84 133.96C235.698 133.557 234.534 133.235 233.404 132.791C230.972 131.826 228.643 130.619 226.453 129.188C224.099 127.661 221.745 126.132 219.393 124.601L205.527 115.592L195.827 109.289L195.337 108.97L195.583 109.907C195.608 109.874 195.711 109.779 195.597 109.887C195.635 109.844 195.67 109.8 195.703 109.754C195.785 109.654 195.867 109.555 195.951 109.457C196.156 109.216 196.366 108.98 196.577 108.746C197.114 108.152 197.662 107.569 198.211 106.987C199.586 105.53 200.973 104.086 202.337 102.619C203.587 101.276 204.836 99.9232 205.977 98.4854C207.288 96.8322 208.182 94.9515 209.072 93.0436C210.375 90.3597 211.415 87.5557 212.177 84.6709L211.171 85.0802L219.79 89.7739L233.512 97.2468L236.641 98.9508C236.825 99.0554 237.047 99.0698 237.243 98.99C237.439 98.9102 237.588 98.745 237.647 98.5415L239.189 90.7974L242.21 75.6287L244.298 65.1441C244.687 63.019 245.42 60.9715 246.468 59.082C248.278 55.9261 250.978 53.3732 254.23 51.7419C256.667 50.5188 259.255 50.0275 261.94 49.7772L268.811 49.1364L269.362 49.0851C270.232 49.004 270.241 47.6335 269.362 47.7154L263.462 48.2657C261.052 48.4903 258.649 48.6525 256.33 49.4093C249.557 51.6514 244.499 57.3417 243.066 64.3303C242.473 67.2732 241.894 70.2193 241.307 73.1637L238.244 88.5475L236.998 94.8042C236.786 95.8666 236.483 96.9514 236.356 98.028C236.35 98.0779 236.336 98.1281 236.326 98.1775L237.332 97.7682L228.713 93.0745L214.991 85.6017L211.862 83.8976C211.678 83.7934 211.456 83.7792 211.26 83.8589C211.064 83.9387 210.915 84.1037 210.856 84.3069C210.2 86.8281 209.316 89.2843 208.214 91.6449C207.329 93.6032 206.452 95.6599 205.126 97.368C202.82 100.337 200.1 102.998 197.521 105.724C196.412 106.825 195.37 107.991 194.4 109.216C194.214 109.544 194.323 109.959 194.646 110.153L201.858 114.839L215.822 123.912L225.387 130.127C228.036 131.869 230.872 133.308 233.843 134.417C235.003 134.843 236.185 135.19 237.341 135.625C238.486 136.057 239.662 136.398 240.86 136.645C243.05 137.104 245.297 137.225 247.523 137.005C251.533 136.649 255.325 135.022 258.346 132.361C260.479 130.413 262.291 127.624 262.563 124.684C262.762 122.533 262.841 120.363 262.979 118.207L263.897 103.935L264.991 86.9082L265.961 71.8262L266.48 63.74L266.505 63.3628C266.561 62.4827 265.191 62.4861 265.135 63.3628L265.135 63.3627Z" fill="black"/>
<path d="M194.999 109.617C196.288 110.308 198.99 107.975 201.963 103.917L196.102 100.099C194.195 105.102 193.66 108.899 194.999 109.617Z" fill="black"/>
<path d="M194.655 110.208C195.891 110.826 197.208 109.932 198.155 109.178C199.873 107.811 201.262 106.021 202.555 104.263C202.741 103.935 202.632 103.52 202.31 103.326L196.448 99.5072C196.264 99.4034 196.043 99.3894 195.847 99.4691C195.651 99.5488 195.502 99.7135 195.442 99.9164C194.556 102.072 193.947 104.33 193.629 106.639C193.502 107.816 193.464 109.527 194.655 110.208C194.98 110.384 195.385 110.27 195.572 109.951C195.758 109.632 195.658 109.223 195.346 109.026C195.337 109.021 195.214 108.931 195.281 108.991C195.354 109.055 195.24 108.95 195.229 108.935C195.116 108.796 195.273 109.008 195.212 108.918C195.184 108.876 195.158 108.833 195.135 108.789C195.079 108.678 195.142 108.82 195.112 108.746C195.091 108.693 195.074 108.637 195.057 108.582C195.021 108.461 194.994 108.338 194.975 108.213C194.915 107.591 194.935 106.964 195.035 106.347C195.385 104.267 195.965 102.233 196.763 100.28L195.757 100.69L201.618 104.508L201.373 103.571C200.263 105.155 198.98 106.609 197.549 107.908C197.113 108.309 196.621 108.643 196.089 108.902C196.002 108.942 195.912 108.974 195.82 109C195.759 109.012 195.699 109.028 195.64 109.046C195.589 109.051 195.339 109.05 195.495 109.062C195.458 109.057 195.421 109.049 195.386 109.038C195.218 108.995 195.499 109.102 195.345 109.026C194.56 108.633 193.865 109.814 194.655 110.208Z" fill="black"/>
<path d="M206.648 96.3956C209.038 91.9365 210.734 87.6866 211.498 84.5335L206.769 81.9784L198.99 77.7754L189.584 95.8524L196.103 100.099L201.964 103.918C203.696 101.521 205.261 99.0076 206.648 96.3956Z" fill="#D08B5B"/>
<path d="M207.238 96.7413C209.269 92.9395 211.127 88.9174 212.157 84.7156C212.235 84.4166 212.107 84.1022 211.842 83.9422L201.602 78.4095L199.335 77.1841C199.007 76.9986 198.592 77.1076 198.398 77.4298L195.208 83.5596L190.155 93.2721L188.992 95.5068C188.811 95.8347 188.919 96.247 189.238 96.4438L198.997 102.802L201.617 104.509C201.945 104.691 202.358 104.583 202.554 104.263C204.286 101.866 205.851 99.3528 207.238 96.7413C207.656 95.965 206.474 95.2726 206.056 96.05C204.668 98.6615 203.103 101.175 201.372 103.572L202.309 103.326C198.992 101.166 195.676 99.0052 192.359 96.8446L189.929 95.2611L190.175 96.1981L193.364 90.0683L198.418 80.3559L199.58 78.1211L198.643 78.3667L208.194 83.5269L211.151 85.1249L210.837 84.3515C209.833 88.4446 208.034 92.3465 206.056 96.05C205.641 96.8272 206.822 97.5199 207.238 96.7413Z" fill="black"/>
<path d="M203.694 80.3169L199.01 77.7963L194.818 67.771C193.566 64.5537 190.619 62.3079 187.185 61.9551L172.971 63.5645C172.971 63.5645 162.407 64.298 168.84 70.6319C168.84 70.6319 166.203 73.5203 170.562 76.6477C169.483 78.9022 175.488 82.4405 177.206 82.6488C176.565 85.088 178.207 86.9096 181.434 86.8019L184.325 87.157L186.658 92.2062C187.44 93.8994 188.691 95.3332 190.262 96.3381L194.008 98.7342" fill="#D08B5B"/>
<path d="M204.04 79.7261L199.355 77.2054L199.67 77.6147L196.001 68.8397C195.317 67.2051 194.655 65.6151 193.411 64.3005C192.363 63.2036 191.079 62.3598 189.656 61.8329C188.82 61.4682 187.916 61.2836 187.004 61.2912C183.623 61.5761 180.246 62.0563 176.875 62.4381C174.913 62.6602 172.879 62.7726 170.941 63.1774C169.543 63.4693 167.987 63.946 166.961 64.9928C165.646 66.3335 166.013 68.1509 167.016 69.5631C167.418 70.1182 167.865 70.6379 168.355 71.1168V70.1483C167.785 70.8113 167.442 71.6398 167.377 72.512C167.202 74.5333 168.705 76.1338 170.216 77.2396L169.97 76.3026C169.165 78.1135 170.906 79.7758 172.208 80.7913C173.026 81.4318 173.902 81.9942 174.825 82.4712C175.507 82.8698 176.25 83.1532 177.024 83.3097L176.546 82.4673C176.234 83.5253 176.377 84.6654 176.942 85.6128C177.585 86.5243 178.562 87.1448 179.66 87.3391C180.519 87.5189 181.406 87.4839 182.277 87.5908L184.325 87.8424L183.734 87.5032L185.964 92.3302C186.563 93.6646 187.427 94.863 188.504 95.8523C189.328 96.5421 190.207 97.1629 191.133 97.7084L193.662 99.3262C194.407 99.8026 195.095 98.6176 194.353 98.1436L190.885 95.9253C189.227 94.8768 187.916 93.3621 187.115 91.571L185.137 87.289C185.075 87.1286 185.003 86.9724 184.921 86.8216C184.729 86.5706 184.426 86.4303 184.111 86.4465L181.742 86.1556C180.691 86.0266 179.663 86.1315 178.732 85.5111C177.814 84.9 177.614 83.8501 177.866 82.8316C177.964 82.4672 177.751 82.0919 177.388 81.9891C176.799 81.8789 176.232 81.675 175.708 81.3853C174.909 80.9886 174.145 80.5264 173.422 80.0036C172.744 79.539 172.137 78.9787 171.62 78.3402C171.432 78.1069 171.283 77.8446 171.18 77.5636C171.104 77.3828 171.095 77.1813 171.153 76.9942C171.328 76.6656 171.221 76.2574 170.907 76.0572C169.78 75.2323 168.557 73.9797 168.75 72.4727C168.795 72.1125 168.915 71.7656 169.101 71.4539C169.166 71.339 169.241 71.2315 169.316 71.1224C169.34 71.0861 169.213 71.2398 169.323 71.117C169.584 70.8467 169.584 70.4189 169.323 70.1485C168.548 69.3775 167.662 68.4415 167.466 67.3205C167.455 67.2622 167.45 67.2031 167.449 67.1439C167.447 67.0643 167.447 66.9855 167.452 66.906C167.456 66.8241 167.44 66.908 167.474 66.7665C167.497 66.6641 167.528 66.5636 167.566 66.4659C167.519 66.583 167.598 66.4091 167.617 66.3763C167.659 66.3037 167.702 66.233 167.75 66.1645C167.812 66.076 167.689 66.2373 167.758 66.1523C167.784 66.1191 167.812 66.0868 167.841 66.0555C167.907 65.9837 167.975 65.9144 168.046 65.8483C168.579 65.4156 169.19 65.0899 169.846 64.8892C170.547 64.6576 171.266 64.4839 171.996 64.37C172.125 64.3488 172.254 64.3299 172.384 64.3116C172.382 64.3118 172.266 64.3252 172.425 64.3067C172.482 64.2999 172.54 64.2926 172.598 64.2862C172.716 64.2728 172.835 64.2633 172.954 64.2514C173.214 64.2253 173.473 64.1932 173.732 64.1639L179.187 63.5463L185.399 62.8429C185.941 62.7815 186.485 62.6998 187.029 62.6583C188.009 62.5836 189.16 63.043 190.021 63.4744C191.442 64.1809 192.639 65.2684 193.478 66.6154C193.835 67.2295 194.143 67.8709 194.4 68.5335L196.679 73.9853C197.234 75.3114 197.742 76.6701 198.347 77.974C198.624 78.5686 199.514 78.8459 200.061 79.1396L202.813 80.6206L203.349 80.9088C204.125 81.3264 204.817 80.1444 204.04 79.7261L204.04 79.7261Z" fill="black"/>
<path d="M312.963 113.931L313.806 117.759C314.906 122.753 312.53 127.866 308.003 130.246L295.11 137.024L291.638 110.97" fill="black"/>
<path d="M312.303 114.114C312.72 116.007 313.337 117.973 313.385 119.92C313.466 123.432 311.824 126.762 308.988 128.835C307.739 129.645 306.437 130.37 305.091 131.004L298.91 134.253L294.764 136.433L295.795 137.024L294.623 128.235L292.755 114.21L292.323 110.97C292.31 110.597 292.011 110.298 291.638 110.285C291.26 110.287 290.955 110.593 290.953 110.97L292.124 119.759L293.993 133.784L294.425 137.024C294.431 137.266 294.564 137.488 294.774 137.609C294.985 137.729 295.243 137.732 295.455 137.615L305.389 132.394C306.688 131.711 308.065 131.088 309.295 130.281C312.363 128.256 314.352 124.953 314.705 121.294C314.952 118.748 314.166 116.214 313.624 113.749C313.434 112.889 312.114 113.253 312.303 114.114V114.114Z" fill="black"/>
<path d="M271.35 259.685L268.036 294.726L219.926 290.334C219.926 290.334 220.352 276.627 238.39 276.797C241.786 276.839 244.637 274.248 244.919 270.863C245.265 266.599 245.582 262.471 245.582 262.471" fill="#D08B5B"/>
<path d="M270.664 259.685L269.538 271.596L267.757 290.425L267.35 294.727L268.035 294.042L263.252 293.605L251.766 292.556L237.868 291.288L225.851 290.19L221.878 289.828C221.258 289.734 220.634 289.677 220.008 289.657C219.98 289.656 219.952 289.653 219.925 289.649L220.61 290.334C220.61 290.272 220.614 290.211 220.621 290.15C220.632 290.077 220.634 290.002 220.642 289.929C220.646 289.887 220.652 289.846 220.656 289.804C220.676 289.613 220.654 289.809 220.658 289.784C220.748 289.162 220.879 288.547 221.05 287.943C221.575 286.054 222.509 284.303 223.787 282.815C225.726 280.656 228.254 279.111 231.059 278.367C233.019 277.828 235.04 277.535 237.073 277.495C238.213 277.461 239.336 277.523 240.446 277.202C241.465 276.904 242.406 276.388 243.204 275.689C244.106 274.894 244.793 273.884 245.203 272.753C245.688 271.437 245.675 269.975 245.786 268.593C245.949 266.553 246.109 264.512 246.265 262.471C246.333 261.592 244.963 261.597 244.896 262.471C244.77 264.12 244.641 265.768 244.51 267.416C244.322 269.788 244.466 272.373 242.738 274.235C242.052 274.98 241.184 275.533 240.219 275.84C239.135 276.179 238.033 276.091 236.913 276.13C234.831 276.183 232.764 276.485 230.754 277.03C227.822 277.801 225.161 279.371 223.069 281.565C221.617 283.16 220.527 285.049 219.873 287.104C219.515 288.147 219.303 289.234 219.24 290.334C219.248 290.709 219.55 291.011 219.925 291.019L224.708 291.456L236.194 292.504L250.092 293.773L262.109 294.871L266.082 295.233C266.7 295.29 267.332 295.39 267.953 295.404C267.98 295.405 268.008 295.409 268.035 295.412C268.428 295.448 268.688 295.067 268.72 294.727L269.847 282.816L271.627 263.986L272.034 259.685C272.117 258.808 270.747 258.814 270.664 259.685L270.664 259.685Z" fill="black"/>
<path d="M242.581 274.726C241.298 276.174 239.45 276.995 237.515 276.974C219.002 276.8 218.564 290.868 218.564 290.868L254.923 290.923L254.353 288.84C252.661 282.651 248.366 277.501 242.581 274.726V274.726Z" fill="white"/>
<path d="M242.097 274.24C241.463 274.959 240.669 275.519 239.779 275.876C238.836 276.193 237.842 276.333 236.848 276.287C235.048 276.296 233.251 276.469 231.482 276.803C228.821 277.275 226.295 278.321 224.08 279.868C221.153 281.999 219.08 285.1 218.23 288.619C218.038 289.354 217.921 290.107 217.88 290.866C217.885 291.242 218.188 291.546 218.565 291.551L222.178 291.556L230.857 291.57L241.358 291.586L250.44 291.6C251.907 291.602 253.393 291.672 254.86 291.606C254.881 291.605 254.902 291.606 254.923 291.606C255.136 291.604 255.335 291.503 255.464 291.334C255.593 291.165 255.637 290.945 255.583 290.739C254.977 288.521 254.364 286.338 253.313 284.277C251.046 279.856 247.399 276.295 242.926 274.133C242.136 273.753 241.44 274.934 242.235 275.315C247.751 277.969 251.884 282.837 253.606 288.711C253.836 289.506 254.044 290.306 254.262 291.104L254.923 290.237L251.309 290.231L242.631 290.218L232.13 290.202L223.048 290.188L220.064 290.183C219.586 290.15 219.106 290.149 218.628 290.181C218.607 290.183 218.586 290.183 218.565 290.181L219.25 290.866C219.255 290.714 219.27 290.562 219.287 290.41C219.296 290.333 219.306 290.256 219.315 290.179C219.284 290.429 219.324 290.126 219.339 290.036C219.376 289.805 219.419 289.575 219.468 289.345C219.742 288.024 220.209 286.75 220.852 285.563C223.022 281.542 227.022 279.141 231.454 278.203C233.339 277.822 235.258 277.638 237.18 277.655C239.404 277.731 241.551 276.839 243.065 275.208C243.656 274.557 242.69 273.585 242.097 274.24Z" fill="black"/>
<path d="M257.107 116.14L242.219 261.539L280.589 264.931C280.589 264.931 290.026 158.831 290.313 142.804C290.599 126.777 289.08 105.25 289.08 105.25" fill="#5C5557"/>
<path d="M256.422 116.14L256.024 120.025L254.942 130.597L253.341 146.234L251.387 165.316L249.246 186.219L247.086 207.322L245.07 227.002L243.367 243.639L242.141 255.609C241.948 257.5 241.68 259.4 241.559 261.298C241.554 261.378 241.542 261.459 241.534 261.539C241.494 261.93 241.882 262.194 242.219 262.224L255.148 263.367L275.85 265.197L280.589 265.616C280.965 265.609 281.268 265.306 281.274 264.931C281.395 263.575 281.515 262.219 281.634 260.863C281.956 257.217 282.276 253.572 282.594 249.926C283.057 244.627 283.517 239.326 283.973 234.026C284.518 227.706 285.057 221.386 285.592 215.066C286.158 208.36 286.717 201.655 287.269 194.948C287.798 188.492 288.317 182.036 288.824 175.578C289.261 169.985 289.68 164.391 290.081 158.796C290.366 154.764 290.643 150.73 290.848 146.694C291.153 140.669 291.051 134.629 290.885 128.601C290.683 121.212 290.336 113.828 289.845 106.448C289.819 106.049 289.792 105.649 289.765 105.25C289.703 104.376 288.333 104.369 288.395 105.25C288.78 110.709 289.055 116.178 289.277 121.646C289.588 129.284 289.874 136.968 289.573 144.611C289.432 148.197 289.191 151.779 288.949 155.359C288.594 160.619 288.21 165.876 287.799 171.132C287.315 177.43 286.816 183.728 286.301 190.025C285.756 196.729 285.202 203.432 284.638 210.134C284.092 216.635 283.54 223.136 282.981 229.636C282.502 235.221 282.019 240.806 281.533 246.39C281.174 250.516 280.813 254.642 280.449 258.768C280.278 260.72 279.961 262.717 279.927 264.677C279.926 264.761 279.912 264.847 279.905 264.931L280.59 264.246L267.66 263.103L246.958 261.273L242.219 260.854L242.904 261.539L243.301 257.654L244.384 247.082L245.985 231.444L247.939 212.363L250.079 191.46L252.24 170.357L254.256 150.677L255.959 134.04L257.185 122.07C257.378 120.179 257.646 118.279 257.767 116.381C257.772 116.301 257.784 116.22 257.792 116.14C257.882 115.264 256.511 115.27 256.422 116.14V116.14Z" fill="black"/>
<path d="M367.218 207.626L400.174 219.989L383.351 265.276C383.351 265.276 370.233 261.28 375.114 243.914C376.043 240.647 374.288 237.218 371.095 236.061C367.069 234.611 363.168 233.226 363.168 233.226" fill="#D08B5B"/>
<path d="M367.036 208.286L378.238 212.489L395.946 219.132L399.992 220.649L399.513 219.807L397.841 224.309L393.825 235.121L388.965 248.203L384.763 259.515L383.374 263.255C383.122 263.829 382.904 264.417 382.72 265.016C382.712 265.042 382.702 265.068 382.691 265.094L383.534 264.615C383.47 264.596 383.405 264.576 383.344 264.551C383.279 264.524 383.21 264.501 383.144 264.476C383.102 264.459 383.061 264.442 383.02 264.426C382.851 264.361 383.006 264.422 382.985 264.412C382.407 264.161 381.846 263.871 381.306 263.546C379.602 262.526 378.145 261.139 377.041 259.487C375.455 256.98 374.644 254.061 374.711 251.095C374.738 248.956 375.034 246.83 375.594 244.766C375.921 243.736 376.065 242.656 376.019 241.576C375.933 240.553 375.634 239.559 375.14 238.659C374.569 237.635 373.756 236.766 372.771 236.129C371.568 235.348 370.096 234.975 368.757 234.495C366.956 233.85 365.153 233.207 363.35 232.566C362.518 232.27 362.16 233.593 362.986 233.887C364.484 234.418 365.982 234.952 367.479 235.489C369.634 236.26 372.177 236.772 373.581 238.749C374.179 239.582 374.548 240.557 374.649 241.576C374.75 242.686 374.453 243.669 374.189 244.732C373.664 246.769 373.379 248.86 373.342 250.963C373.259 254.067 374.049 257.132 375.622 259.808C376.78 261.672 378.335 263.257 380.175 264.452C381.1 265.083 382.107 265.582 383.169 265.936C383.533 266.028 383.904 265.817 384.012 265.458L385.684 260.956L389.7 250.144L394.56 237.061L398.762 225.749L400.151 222.01C400.367 221.428 400.629 220.844 400.805 220.249C400.813 220.222 400.824 220.197 400.834 220.171C400.927 219.807 400.716 219.435 400.356 219.328L389.154 215.126L371.445 208.483L367.4 206.966C366.574 206.656 366.217 207.979 367.036 208.286L367.036 208.286Z" fill="black"/>
<path d="M374.211 239.327C375.274 240.943 375.583 242.942 375.056 244.804C370.047 262.627 383.511 266.729 383.511 266.729L393.073 231.65L390.913 231.655C384.497 231.67 378.403 234.469 374.211 239.327Z" fill="white"/>
<path d="M373.619 239.671C374.169 240.506 374.506 241.461 374.601 242.455C374.628 243.501 374.475 244.544 374.151 245.539C373.714 247.238 373.431 248.974 373.305 250.724C373.081 253.414 373.449 256.12 374.385 258.652C375.692 261.987 378.13 264.755 381.272 266.473C381.925 266.846 382.614 267.153 383.328 267.388C383.692 267.483 384.066 267.271 384.17 266.91L385.121 263.423L387.403 255.051L390.165 244.919L392.554 236.157C392.94 234.741 393.395 233.325 393.716 231.893C393.721 231.872 393.727 231.852 393.733 231.831C393.787 231.626 393.743 231.406 393.614 231.237C393.485 231.068 393.285 230.967 393.073 230.965C390.842 230.899 388.61 231.055 386.41 231.43C381.481 232.436 377.023 235.041 373.727 238.841C373.154 239.506 374.118 240.479 374.695 239.81C378.753 235.122 384.628 232.402 390.828 232.34C391.576 232.334 392.324 232.336 393.073 232.334L392.412 231.467L391.462 234.954L389.179 243.327L386.417 253.458L384.029 262.22L383.244 265.099C383.087 265.552 382.961 266.015 382.866 266.484C382.862 266.505 382.857 266.526 382.85 266.546L383.692 266.067C383.547 266.023 383.405 265.968 383.264 265.913C383.194 265.885 383.124 265.856 383.054 265.827C383.274 265.918 382.998 265.802 382.921 265.768C382.706 265.671 382.493 265.569 382.283 265.46C381.084 264.853 379.979 264.073 379.005 263.147C375.735 260.054 374.442 255.653 374.647 251.205C374.754 249.272 375.066 247.356 375.578 245.489C375.917 244.394 376.038 243.243 375.933 242.102C375.794 240.99 375.408 239.923 374.802 238.98C374.329 238.239 373.143 238.926 373.619 239.671Z" fill="black"/>
<path d="M298.964 101.577L309.387 124.299C312.571 131.241 314.756 138.599 315.879 146.153L320.797 179.243C336.192 183.711 374.698 200.079 374.698 200.079L361.389 236.227L319.433 221.407C303.801 215.886 291.409 203.738 285.577 188.22L271.929 151.729L270.714 117.845" fill="#5C5557"/>
<path d="M298.372 101.923L303.891 113.956C305.913 118.364 308.061 122.738 309.92 127.219C312.239 132.811 313.924 138.646 314.943 144.614C315.192 146.072 315.397 147.537 315.614 148.999L318.139 165.991L319.408 174.527C319.639 176.081 319.817 177.655 320.103 179.201C320.117 179.275 320.125 179.351 320.136 179.425C320.198 179.659 320.381 179.842 320.614 179.904C329.07 182.364 337.308 185.659 345.497 188.876C353.554 192.042 361.574 195.302 369.557 198.654C371.264 199.368 372.808 200.015 374.352 200.671L374.037 199.897L369.53 212.139L362.358 231.618L360.728 236.045L361.57 235.567L352.218 232.264L333.728 225.732L320.465 221.048C313.272 218.576 306.644 214.696 300.967 209.635C294.363 203.653 289.286 196.179 286.16 187.835C284.642 183.782 283.126 179.729 281.612 175.674L274.909 157.752L272.882 152.334C272.81 152.14 272.746 151.94 272.664 151.75C272.615 151.637 272.575 151.376 272.612 151.729C272.578 151.406 272.589 151.071 272.577 150.746L272 134.653L271.43 118.756L271.397 117.846C271.366 116.967 269.996 116.963 270.028 117.846L270.461 129.941L271.124 148.426L271.213 150.912C271.2 151.247 271.219 151.582 271.268 151.914C271.589 152.969 271.976 154.004 272.426 155.011L278.679 171.728L284.367 186.936C285.112 188.926 285.88 190.904 286.79 192.827C293.281 206.511 304.966 217.037 319.251 222.069C322.475 223.213 325.7 224.352 328.926 225.486L347.573 232.072L360.54 236.653L361.206 236.888C361.57 236.981 361.942 236.77 362.048 236.41L366.555 224.168L373.727 204.689L375.357 200.262C375.44 199.963 375.311 199.645 375.043 199.488C370.37 197.503 365.683 195.551 360.981 193.634C351.998 189.953 342.984 186.336 333.876 182.973C329.618 181.401 325.338 179.852 320.978 178.583L321.456 179.061L319.796 167.884L317.147 150.065C316.947 148.719 316.747 147.374 316.547 146.028C315.777 140.841 314.507 135.742 312.758 130.799C310.892 125.541 308.394 120.503 306.07 115.436L299.68 101.503L299.555 101.232C299.188 100.431 298.007 101.127 298.372 101.923L298.372 101.923Z" fill="black"/>
<path d="M397.112 230.815C396.792 231.777 397.312 232.816 398.273 233.136L399.922 233.686L386.939 268.49C386.939 268.49 382.892 267.264 380.558 265.203L397.502 218.961L404.574 221.294L401.213 230.246L399.434 229.653C398.472 229.333 397.432 229.853 397.112 230.815Z" fill="white"/>
<path d="M396.452 230.634C396.067 231.905 396.721 233.259 397.957 233.747C398.539 233.976 399.147 234.149 399.74 234.347L399.262 233.505L397.975 236.955L394.865 245.291L391.12 255.33L387.881 264.012L386.808 266.889C386.611 267.331 386.442 267.784 386.302 268.247C386.295 268.268 386.287 268.289 386.278 268.31L387.121 267.831C384.983 267.179 382.738 266.192 381.042 264.72L381.218 265.386L382.901 260.792L386.945 249.756L391.839 236.402L396.071 224.851L397.468 221.04C397.722 220.448 397.944 219.842 398.133 219.226C398.141 219.198 398.151 219.171 398.162 219.144L397.32 219.623L404.391 221.956L403.913 221.113L400.971 228.951L400.553 230.066L401.395 229.587C400.803 229.39 400.214 229.172 399.615 228.994C398.291 228.601 396.893 229.325 396.452 230.634C396.141 231.46 397.464 231.817 397.772 230.998C398.294 229.611 400.101 230.598 401.031 230.908C401.395 231 401.766 230.789 401.873 230.43L404.815 222.592L405.234 221.477C405.328 221.113 405.116 220.74 404.755 220.635L397.684 218.302C397.32 218.209 396.949 218.42 396.842 218.78L395.158 223.375L391.114 234.411L386.221 247.765L381.988 259.316L380.591 263.127C380.371 263.727 380.108 264.328 379.927 264.941C379.919 264.968 379.907 264.995 379.897 265.022C379.827 265.26 379.895 265.516 380.073 265.688C381.954 267.32 384.385 268.429 386.757 269.152C387.12 269.244 387.492 269.033 387.599 268.674L388.886 265.224L391.996 256.887L395.741 246.848L398.98 238.166C399.501 236.769 400.144 235.365 400.559 233.931C400.565 233.91 400.575 233.889 400.583 233.868C400.677 233.504 400.465 233.131 400.104 233.026C399.123 232.699 397.352 232.445 397.772 230.998C398.019 230.15 396.698 229.788 396.452 230.634Z" fill="black"/>
<path d="M386.121 252.01C386.137 251.959 386.158 251.91 386.177 251.86C386.239 251.688 386.12 251.976 386.184 251.842C386.222 251.762 386.257 251.681 386.297 251.601C386.521 251.144 386.79 250.71 387.098 250.305C387.036 250.387 387.158 250.229 387.178 250.205C387.23 250.142 387.282 250.079 387.335 250.017C387.456 249.877 387.582 249.742 387.712 249.61C387.965 249.353 388.237 249.114 388.525 248.897C389.239 248.369 390.041 247.972 390.894 247.724C392.2 247.371 393.563 247.275 394.906 247.441C395.283 247.438 395.588 247.133 395.59 246.756C395.583 246.381 395.281 246.079 394.906 246.071C392.564 245.833 390.108 246.185 388.119 247.514C386.893 248.33 385.889 249.439 385.2 250.741C385.042 251.031 384.909 251.334 384.8 251.646C384.522 252.484 385.844 252.844 386.121 252.01Z" fill="black"/>
<path d="M391.306 232.61L390.814 212.14C390.753 211.274 390.292 210.487 389.567 210.01C388.842 209.533 387.936 209.421 387.118 209.708C386.494 209.723 385.902 209.985 385.472 210.436C385.041 210.888 384.808 211.492 384.823 212.116L385.316 232.586L391.306 232.61Z" fill="white"/>
<path d="M391.991 232.611L391.785 224.063L391.515 212.833C391.509 212.603 391.511 212.371 391.498 212.14C391.413 210.787 390.555 209.605 389.295 209.105C388.592 208.87 387.836 208.842 387.117 209.023C386.292 209.178 385.6 209.31 384.987 209.953C384.399 210.592 384.095 211.441 384.143 212.307C384.208 215.656 384.304 219.003 384.384 222.351C384.465 225.702 384.495 229.057 384.626 232.406C384.629 232.466 384.629 232.526 384.631 232.586C384.637 232.962 384.94 233.265 385.315 233.271L391.306 233.296C391.675 233.283 391.967 232.98 391.967 232.611C391.967 232.242 391.675 231.939 391.306 231.926L385.315 231.902L386 232.586L385.807 224.559L385.535 213.254C385.526 212.901 385.514 212.548 385.509 212.195C385.462 211.256 386.179 210.453 387.117 210.393C387.832 210.289 388.441 210.131 389.105 210.527C389.572 210.808 389.916 211.256 390.067 211.779C390.127 212.056 390.151 212.339 390.14 212.622L390.389 222.958C390.465 226.117 390.491 229.283 390.617 232.441C390.62 232.498 390.62 232.554 390.622 232.611C390.642 233.491 392.012 233.494 391.991 232.611Z" fill="black"/>
<ellipse cx="388.419" cy="231.957" rx="4.56575" ry="4.56574" fill="black"/>
<path d="M387.934 237.181C390.134 237.385 392.225 236.19 393.166 234.192C394.107 232.195 393.697 229.821 392.14 228.255C390.582 226.689 388.211 226.266 386.208 227.197C384.205 228.127 382.999 230.212 383.191 232.412C383.425 234.933 385.414 236.934 387.934 237.181C388.312 237.179 388.617 236.874 388.619 236.497C388.61 236.122 388.309 235.821 387.934 235.812C386.31 235.61 384.987 234.412 384.623 232.816C384.26 231.22 384.936 229.568 386.312 228.683C387.689 227.798 389.473 227.871 390.774 228.864C392.075 229.857 392.614 231.559 392.123 233.12C391.548 234.902 389.794 236.029 387.934 235.812C387.057 235.73 387.063 237.1 387.934 237.181Z" fill="black"/>
<path d="M256.786 294.603C255.774 294.545 254.906 295.319 254.849 296.331L254.75 298.066L217.761 294.637C217.761 294.637 217.887 290.41 219.265 287.618L268.329 291.88L267.927 299.315L258.407 298.413L258.514 296.54C258.571 295.528 257.798 294.661 256.786 294.603Z" fill="white"/>
<path d="M256.785 293.919C255.457 293.881 254.323 294.868 254.177 296.189C254.109 296.81 254.1 297.442 254.064 298.067L254.749 297.382L251.083 297.042L242.223 296.22L231.554 295.231L222.327 294.376L219.269 294.092C218.792 294.018 218.31 293.974 217.827 293.959C217.804 293.958 217.782 293.956 217.76 293.952L218.445 294.637C218.515 292.406 218.881 289.984 219.855 287.964L219.264 288.303L224.139 288.727L235.848 289.744L250.018 290.974L262.274 292.039L266.317 292.39C266.956 292.48 267.598 292.536 268.242 292.557C268.271 292.558 268.3 292.561 268.328 292.565L267.644 291.88L267.241 299.315L267.926 298.63L259.592 297.841L258.407 297.728L259.091 298.413C259.127 297.79 259.183 297.164 259.198 296.54C259.23 295.159 258.164 294.001 256.785 293.918C255.908 293.835 255.914 295.205 256.785 295.288C258.258 295.429 257.777 297.438 257.722 298.413C257.729 298.788 258.032 299.09 258.407 299.098L266.741 299.888L267.926 300C268.302 299.995 268.606 299.691 268.611 299.315L269.013 291.88C269.006 291.505 268.704 291.202 268.328 291.195L263.453 290.772L251.744 289.755L237.575 288.524L225.319 287.46L221.275 287.108C220.638 287.053 219.99 286.956 219.35 286.941C219.322 286.941 219.293 286.936 219.264 286.934C219.02 286.929 218.792 287.06 218.673 287.273C217.588 289.52 217.153 292.154 217.075 294.637C217.083 295.012 217.385 295.314 217.76 295.322L221.426 295.662L230.286 296.483L240.955 297.473L250.182 298.328C251.666 298.466 253.191 298.72 254.683 298.745C254.705 298.746 254.727 298.749 254.749 298.751C255.125 298.746 255.429 298.443 255.434 298.067C255.493 297.032 255.276 295.26 256.785 295.288C257.667 295.304 257.667 293.935 256.785 293.919Z" fill="black"/>
<path d="M233.456 289.537C233.51 289.54 233.564 289.548 233.618 289.552C233.821 289.569 233.425 289.516 233.639 289.555C233.725 289.571 233.811 289.584 233.897 289.6C234.405 289.702 234.903 289.851 235.383 290.046C235.501 290.093 235.392 290.05 235.371 290.04C235.405 290.055 235.439 290.07 235.472 290.085C235.55 290.121 235.628 290.156 235.706 290.193C235.877 290.276 236.046 290.365 236.211 290.46C236.359 290.545 236.504 290.635 236.647 290.729C236.79 290.823 237.04 291.005 237.083 291.04C237.785 291.595 238.382 292.271 238.846 293.036C239.525 294.202 239.972 295.489 240.162 296.824C240.265 297.187 240.64 297.4 241.004 297.303C241.363 297.195 241.574 296.824 241.483 296.46C241.101 294.131 240.109 291.845 238.297 290.275C237.186 289.307 235.85 288.631 234.411 288.311C234.097 288.238 233.778 288.19 233.456 288.167C232.576 288.119 232.578 289.489 233.456 289.537H233.456Z" fill="black"/>
<path d="M253.534 289.469L273.163 283.64C273.983 283.354 274.622 282.704 274.893 281.879C275.164 281.055 275.035 280.152 274.544 279.436C274.367 278.838 273.959 278.335 273.411 278.038C272.862 277.741 272.218 277.674 271.62 277.851L251.991 283.68L253.534 289.469Z" fill="white"/>
<path d="M253.716 290.13L261.813 287.725L272.578 284.529C272.831 284.453 273.088 284.385 273.339 284.303C274.674 283.85 275.609 282.641 275.71 281.235C275.769 280.347 275.389 279.58 275.034 278.814C274.694 278.095 274.086 277.537 273.341 277.26C272.645 277.023 271.891 277.024 271.196 277.263L261.471 280.151C258.309 281.09 255.129 281.982 251.981 282.969C251.924 282.987 251.866 283.003 251.809 283.02C251.448 283.127 251.237 283.499 251.331 283.863L252.874 289.652C252.985 290.004 253.354 290.205 253.71 290.107C254.066 290.009 254.28 289.647 254.195 289.287L252.652 283.499L252.173 284.341L259.771 282.085L270.584 278.874C271.669 278.552 273.044 277.987 273.754 279.311C274.109 279.972 274.482 280.726 274.294 281.494C274.143 282.119 273.719 282.643 273.139 282.923C272.908 283.011 272.672 283.085 272.432 283.143L262.457 286.106C259.475 286.991 256.467 287.816 253.504 288.764C253.454 288.78 253.403 288.794 253.352 288.809C252.509 289.059 252.868 290.382 253.716 290.13Z" fill="black"/>
<ellipse cx="253.41" cy="286.512" rx="4.56575" ry="4.56574" fill="black"/>
<path d="M248.241 287.413C248.62 289.589 250.322 291.294 252.496 291.678C254.671 292.063 256.854 291.045 257.957 289.131C259.06 287.218 258.847 284.819 257.424 283.13C256.001 281.441 253.673 280.823 251.6 281.585C249.227 282.471 247.818 284.916 248.241 287.413C248.343 287.776 248.719 287.99 249.083 287.892C249.441 287.783 249.652 287.413 249.561 287.049C249.333 285.429 250.144 283.839 251.59 283.072C253.036 282.306 254.807 282.527 256.02 283.625C257.233 284.723 257.628 286.464 257.009 287.978C256.389 289.493 254.887 290.458 253.252 290.391C251.382 290.301 249.836 288.901 249.561 287.049C249.411 286.182 248.091 286.55 248.241 287.413Z" fill="black"/>
<path d="M281.438 254.832L277.626 254.484L268.47 253.651L257.387 252.641L247.797 251.768L244.619 251.479C244.122 251.405 243.621 251.359 243.119 251.342C243.096 251.341 243.073 251.339 243.05 251.336C242.611 251.296 242.614 251.981 243.05 252.02L246.862 252.368L256.018 253.201L267.1 254.211L276.69 255.084L279.868 255.373C280.365 255.447 280.866 255.493 281.368 255.51C281.392 255.511 281.415 255.513 281.438 255.516C281.876 255.556 281.874 254.871 281.438 254.832Z" fill="black"/>
<path d="M366.063 196.764L364.739 200.365L361.576 208.963L357.731 219.415L354.406 228.454L353.314 231.422C353.112 231.885 352.938 232.36 352.791 232.844C352.785 232.865 352.777 232.885 352.769 232.905C352.616 233.319 353.278 233.498 353.429 233.087L354.754 229.486L357.916 220.888L361.761 210.436L365.086 201.397L366.178 198.429C366.38 197.966 366.555 197.491 366.701 197.007C366.707 196.986 366.715 196.966 366.723 196.946C366.876 196.532 366.214 196.353 366.063 196.764H366.063Z" fill="black"/>
<path d="M266.766 118.126L266.919 130.489L267.023 138.867C267.041 140.294 266.987 141.745 267.102 143.17C267.328 145.352 268.103 147.442 269.354 149.244L271.463 152.513C271.939 153.252 273.125 152.566 272.645 151.822L270.806 148.971C269.902 147.569 269.066 146.194 268.687 144.538C268.313 142.906 268.421 141.133 268.401 139.466L268.194 122.833L268.135 118.126C268.124 117.246 266.755 117.243 266.766 118.126L266.766 118.126Z" fill="black"/>
<path d="M263.531 62.7L262.794 69.8607C262.495 69.9008 259.349 70.8432 259.05 70.9083C254.016 72.0026 250.381 76.3935 250.245 81.543C250.109 86.6926 253.508 91.269 258.477 92.6272L256.911 126.16C256.911 126.16 307.703 113.54 314 119.052C310.393 100.923 299.715 55.8218 299.715 55.8218C297.527 50.4752 295.402 49.1259 291.644 49.5174L266.498 48.7754" fill="#85E0A3"/>
<path d="M262.846 62.7005L262.109 69.8611L262.612 69.2008C261.904 69.3526 261.206 69.5456 260.521 69.7786C259.799 69.9875 259.076 70.1803 258.35 70.3741C255.924 71.0228 253.769 72.4271 252.195 74.3835C249.676 77.4986 248.9 81.6742 250.13 85.4864C251.36 89.2986 254.431 92.2326 258.295 93.2879L257.793 92.6276L257.26 104.026L256.419 122.042L256.226 126.16C256.229 126.373 256.33 126.573 256.499 126.702C256.668 126.831 256.887 126.875 257.093 126.821C258.779 126.402 260.47 126.006 262.161 125.614C266.265 124.662 270.379 123.761 274.505 122.91C279.635 121.853 284.783 120.876 289.956 120.054C294.702 119.243 299.488 118.694 304.294 118.41C306.108 118.301 307.927 118.318 309.739 118.461C310.396 118.509 311.049 118.611 311.69 118.766C311.967 118.831 312.24 118.91 312.508 119.004C312.572 119.026 312.635 119.05 312.698 119.073C312.877 119.14 312.688 119.065 312.753 119.095C312.865 119.145 312.975 119.197 313.083 119.255C313.183 119.309 313.278 119.371 313.375 119.431C313.6 119.569 313.32 119.369 313.515 119.537C313.738 119.746 314.072 119.784 314.336 119.631C314.6 119.477 314.732 119.168 314.66 118.871C313.936 115.235 313.159 111.61 312.371 107.988C311.401 103.532 310.411 99.0813 309.402 94.6344C308.363 90.0303 307.312 85.4285 306.251 80.8292C305.296 76.6827 304.335 72.5374 303.368 68.3936C302.665 65.3778 301.959 62.3627 301.25 59.3482C300.962 58.1266 300.75 56.8513 300.378 55.6516C300.002 54.5667 299.502 53.5291 298.887 52.5595C298.332 51.5822 297.599 50.718 296.725 50.0118C295.983 49.4395 295.114 49.0557 294.192 48.8933C293.343 48.7867 292.485 48.7664 291.633 48.8328C289.649 48.8845 287.635 48.7149 285.652 48.6564L274.604 48.3304L266.896 48.1029L266.499 48.0912C265.617 48.0652 265.618 49.4348 266.499 49.4608L271.993 49.6229L282.935 49.9458L291 50.1838C291.927 50.2112 292.857 50.062 293.778 50.2054C295.819 50.5237 297.091 52.0938 298.027 53.8177C298.522 54.6468 298.904 55.5378 299.164 56.4675C299.326 57.1511 299.487 57.8348 299.648 58.5185C300.277 61.1912 300.905 63.8646 301.529 66.5385C302.446 70.4616 303.358 74.3857 304.265 78.311C305.312 82.841 306.351 87.373 307.381 91.9068C308.404 96.4092 309.413 100.915 310.409 105.423C311.25 109.247 312.081 113.075 312.869 116.911C313.028 117.685 313.185 118.46 313.339 119.235L314.484 118.569C313.583 117.791 312.374 117.471 311.225 117.28C309.526 117.026 307.809 116.926 306.092 116.981C301.383 117.059 296.678 117.671 292.025 118.359C286.743 119.141 281.489 120.108 276.255 121.159C271.859 122.042 267.475 122.987 263.104 123.992C261.679 124.318 260.256 124.651 258.834 124.99C258.152 125.11 257.479 125.273 256.818 125.478C256.789 125.487 256.759 125.495 256.729 125.5L257.596 126.161L258.129 114.762L258.97 96.7464L259.163 92.6278C259.16 92.3207 258.955 92.052 258.66 91.9674C254.15 90.737 250.997 86.6731 250.925 81.9989C250.854 77.3247 253.881 73.1662 258.351 71.7983C259.134 71.561 259.936 71.3744 260.722 71.1468C261.461 70.8948 262.213 70.6861 262.976 70.5217C263.271 70.4365 263.475 70.1682 263.479 69.8613L264.216 62.7007C264.306 61.8248 262.936 61.8311 262.847 62.7007L262.846 62.7005Z" fill="black"/>
<path d="M289.098 74.1144L293.793 109.832L263.879 113.32C265.268 116.285 266.591 120.943 267.429 126.269C267.892 129.211 265.978 141.468 266.049 143.928L307.858 137.147C320.559 135.515 324.552 122.545 325.166 111.763L325.08 104.76L317.577 59.8279C316.071 50.8096 307.783 44.5383 298.695 45.5407L283.848 47.1782" fill="#85E0A3"/>
<path d="M288.413 74.1142L290 86.1847L292.528 105.421L293.108 109.832L293.793 109.147L283.706 110.323L267.569 112.204L263.879 112.634C263.637 112.641 263.415 112.774 263.295 112.984C263.174 113.194 263.171 113.452 263.287 113.665C264.345 116.06 265.159 118.554 265.72 121.112C266.093 122.675 266.41 124.251 266.67 125.839C266.741 126.174 266.784 126.514 266.801 126.856C266.819 127.189 266.819 127.523 266.814 127.856C266.752 131.691 266.168 135.528 265.746 139.334C265.517 140.855 265.39 142.39 265.364 143.928C265.369 144.14 265.47 144.338 265.638 144.467C265.807 144.595 266.025 144.64 266.231 144.588L276.731 142.885L296.512 139.677C300.34 139.056 304.165 138.401 307.998 137.814C309.776 137.561 311.513 137.075 313.164 136.369C315.077 135.501 316.812 134.284 318.279 132.781C321.257 129.752 323.113 125.781 324.257 121.735C324.837 119.64 325.26 117.505 325.523 115.347C325.73 113.896 325.837 112.432 325.841 110.966L325.783 106.272C325.807 105.674 325.787 105.075 325.724 104.48C325.125 100.686 324.459 96.9019 323.826 93.1137L320.515 73.2896L318.32 60.1426C317.873 57.1805 316.714 54.3711 314.941 51.9562C312.117 48.1895 307.931 45.6774 303.278 44.9571C300.551 44.5554 297.892 44.9443 295.183 45.2429L285.749 46.2834L283.847 46.4932C282.981 46.5888 282.971 47.9595 283.847 47.8628L298.391 46.2588C302.26 45.7794 306.176 46.6474 309.48 48.7166C313.399 51.2333 316.086 55.2744 316.891 59.8614C317.461 63.0968 317.974 66.3433 318.515 69.5837L321.762 89.0252L324.206 103.665C324.272 104.059 324.331 104.456 324.404 104.85C324.451 105.102 324.411 104.589 324.397 104.887C324.37 105.435 324.41 105.995 324.417 106.544L324.473 111.1C324.465 112.565 324.352 114.028 324.136 115.477C323.096 123.407 319.792 132.492 311.65 135.521C309.883 136.178 308.031 136.429 306.182 136.729L299.906 137.747L280.724 140.858L266.598 143.149L265.866 143.268L266.733 143.928C266.752 142.579 266.859 141.232 267.054 139.897C267.277 137.848 267.521 135.802 267.735 133.752C267.931 131.881 268.127 130.002 268.177 128.121C268.237 125.911 267.714 123.721 267.232 121.576C266.62 118.619 265.694 115.735 264.47 112.974L263.879 114.005L273.965 112.829L290.102 110.947L293.793 110.517C294.122 110.479 294.53 110.232 294.477 109.832L292.891 97.7614L290.363 78.5255L289.783 74.1144C289.771 73.7414 289.471 73.4418 289.098 73.4296C288.721 73.4314 288.415 73.7369 288.413 74.1144V74.1142Z" fill="black"/>
<path d="M266.126 143.842C267.63 143.605 268.377 139.832 268.223 134.467L261.015 134.724C262.553 140.348 264.543 144.091 266.126 143.842Z" fill="black"/>
<path d="M266.308 144.501C267.641 144.255 268.161 142.542 268.42 141.421C268.874 139.132 269.038 136.796 268.908 134.466C268.903 134.09 268.599 133.786 268.223 133.781L261.015 134.039C260.802 134.042 260.603 134.142 260.474 134.312C260.345 134.481 260.301 134.7 260.354 134.906C261.019 137.321 261.8 139.79 263.045 141.978C263.634 143.012 264.704 144.712 266.126 144.526C266.499 144.513 266.799 144.214 266.811 143.841C266.809 143.463 266.504 143.158 266.126 143.156C266.05 143.166 265.785 143.136 265.956 143.172C265.903 143.164 265.851 143.15 265.801 143.131C265.683 143.076 265.86 143.162 265.782 143.123C265.578 143.03 265.397 142.893 265.252 142.722C264.774 142.204 264.373 141.619 264.062 140.986C263.029 138.933 262.228 136.772 261.675 134.541L261.015 135.408L268.223 135.151L267.538 134.466C267.651 136.561 267.528 138.661 267.17 140.728C267.066 141.361 266.871 141.977 266.591 142.555C266.51 142.738 266.393 142.902 266.246 143.038C266.129 143.153 266.254 143.058 266.118 143.131C265.962 143.214 266.252 143.083 266.092 143.145C266.044 143.161 265.994 143.173 265.944 143.18C265.079 143.34 265.445 144.66 266.308 144.501Z" fill="black"/>
<path d="M267.43 126.268C266.592 120.943 265.268 116.285 263.879 113.319L258.915 113.906L251.599 114.77L254.341 134.962L261.015 134.723L268.223 134.466C268.131 131.72 267.866 128.981 267.43 126.268Z" fill="#D08B5B"/>
<path d="M268.089 126.086C267.382 121.631 266.38 117.084 264.47 112.973C264.351 112.759 264.124 112.629 263.879 112.634L253.876 113.815L251.598 114.084C251.387 114.091 251.19 114.192 251.062 114.36C250.933 114.529 250.888 114.746 250.938 114.951L251.868 121.798L253.341 132.647L253.68 135.143C253.762 135.44 254.032 135.646 254.341 135.646C258.03 135.514 261.719 135.383 265.408 135.251L268.222 135.15C268.598 135.145 268.902 134.841 268.907 134.465C268.809 131.658 268.536 128.859 268.089 126.086C267.954 125.217 266.634 125.586 266.769 126.45C267.191 129.103 267.448 131.78 267.538 134.466L268.222 133.781L257.257 134.172L254.341 134.276L255.001 134.779L254.071 127.932L252.598 117.083L252.259 114.587L251.598 115.454L261.031 114.34L263.879 114.004L263.287 113.665C265.143 117.657 266.082 122.126 266.769 126.45C266.907 127.318 268.227 126.949 268.089 126.086Z" fill="black"/>
<path d="M288.755 110.419L303.768 108.713L288.755 110.419Z" fill="white"/>
<path d="M288.756 111.104L301.914 109.609L303.769 109.398C304.635 109.3 304.645 107.929 303.769 108.029L290.61 109.524L288.756 109.734C287.89 109.833 287.88 111.204 288.756 111.104H288.756Z" fill="black"/>
<path d="M260.06 135.095L243.963 134.503C242.46 134.831 240.915 134.929 239.382 134.793C235.891 134.483 232.684 134.81 229.784 136.78L226.947 135.739C226.947 135.739 226.453 118.893 227.881 117.962L239.751 117.842L233.003 114.402C232.408 114.099 232.002 113.521 231.918 112.858C231.834 112.196 232.084 111.535 232.585 111.094C233.107 110.634 233.828 110.475 234.494 110.674L247.268 114.482L254.235 114.458" fill="#D08B5B"/>
<path d="M260.06 134.41L251.219 134.085L245.665 133.881L244.19 133.827C244.116 133.824 244.039 133.815 243.964 133.819C243.506 133.839 243.037 133.996 242.581 134.054C242.084 134.116 241.584 134.152 241.084 134.163C240.058 134.187 239.043 134.059 238.019 134.022C237.024 133.98 236.028 134.021 235.04 134.142C233.039 134.379 231.121 135.08 229.439 136.189L229.966 136.12L227.129 135.079L227.632 135.739C227.51 131.577 227.472 127.394 227.676 123.234C227.73 122.147 227.81 120.879 227.955 119.92C228.005 119.549 228.081 119.182 228.182 118.822C228.203 118.75 228.228 118.68 228.252 118.609C228.312 118.426 228.199 118.726 228.272 118.563C228.291 118.521 228.329 118.483 228.344 118.441C228.36 118.396 228.224 118.517 228.296 118.506L228.313 118.489C228.45 118.368 228.307 118.421 227.882 118.647C228.044 118.668 228.207 118.666 228.368 118.642L229.579 118.63L233.339 118.592L239.751 118.527C240.401 118.52 240.72 117.569 240.096 117.251L234.2 114.245C233.366 113.82 232.218 113.312 232.672 112.129C232.939 111.473 233.663 111.132 234.339 111.343C234.551 111.398 234.761 111.468 234.971 111.531L242.256 113.703L245.809 114.762C246.29 114.952 246.79 115.088 247.301 115.167C248.512 115.237 249.75 115.159 250.963 115.155L254.235 115.144C254.604 115.131 254.896 114.828 254.896 114.459C254.896 114.09 254.604 113.787 254.235 113.774L247.507 113.797C247.444 113.79 247.382 113.79 247.319 113.797C247.227 113.82 247.209 113.686 247.449 113.822C247.401 113.803 247.352 113.788 247.302 113.778C246.993 113.671 246.672 113.59 246.358 113.497L242.719 112.412L235.198 110.169C235.025 110.118 234.852 110.06 234.677 110.014C233.32 109.619 231.887 110.338 231.392 111.662C230.897 112.986 231.506 114.469 232.79 115.061C234.987 116.2 237.2 117.309 239.405 118.433L239.751 117.157L234.134 117.214C232.073 117.235 229.983 117.155 227.926 117.277C227.178 117.321 226.927 118.142 226.783 118.757C226.569 119.789 226.436 120.835 226.387 121.887C226.187 124.671 226.171 127.47 226.181 130.26C226.187 132.086 226.209 133.913 226.262 135.739C226.271 136.045 226.473 136.31 226.765 136.4L229.313 137.334C229.407 137.376 229.504 137.411 229.602 137.44C230.12 137.555 230.627 137.04 231.056 136.803C231.917 136.332 232.836 135.978 233.791 135.751C235.738 135.279 237.702 135.365 239.682 135.501C240.81 135.574 241.943 135.526 243.061 135.359C243.408 135.281 243.76 135.226 244.115 135.193C245.625 135.172 247.154 135.305 248.664 135.361L255.745 135.621L260.06 135.78C260.942 135.812 260.941 134.442 260.06 134.41L260.06 134.41Z" fill="black"/>
<path d="M233.548 123.696C224.846 123.659 220.105 123.604 215.039 123.93C209.972 124.256 208.987 120.619 213.933 119.074C221.962 117.385 239.125 117.754 239.125 117.754" fill="#D08B5B"/>
<path d="M233.549 123.011C228.901 122.991 224.249 122.926 219.602 123.044C218.691 123.068 217.781 123.1 216.871 123.143C215.917 123.188 214.95 123.303 213.996 123.255C213.212 123.266 212.443 123.037 211.793 122.6C211.436 122.377 211.287 121.933 211.437 121.54C211.719 120.839 212.51 120.397 213.155 120.097C213.966 119.762 214.821 119.542 215.694 119.445C217.491 119.158 219.307 118.987 221.122 118.85C224.915 118.564 228.721 118.455 232.523 118.417C234.723 118.395 236.925 118.392 239.125 118.439C240.007 118.457 240.007 117.088 239.125 117.069C233.176 116.942 227.192 117.03 221.257 117.47C219.312 117.614 217.368 117.804 215.441 118.107C213.623 118.392 211.508 118.894 210.427 120.543C209.533 121.904 210.229 123.427 211.615 124.084C213.469 124.963 215.633 124.56 217.606 124.48C222.915 124.262 228.237 124.358 233.549 124.38C233.917 124.367 234.21 124.065 234.21 123.696C234.21 123.327 233.917 123.024 233.549 123.011V123.011Z" fill="black"/>
<path d="M263.005 1.01758L254.651 1.40306C250.967 1.57303 247.898 4.28203 247.272 7.91569L246.871 10.2433C246.619 11.7026 245.501 12.8598 244.051 13.1612C239.815 14.0419 236.741 17.722 236.629 22.0476C236.564 24.5636 237.519 26.999 239.277 28.8001C241.035 30.6012 243.447 31.615 245.964 31.6109L260.087 31.5879" fill="#91A0A1"/>
<path d="M263.004 0.33203L258.249 0.551421C256.582 0.628356 254.794 0.556598 253.154 0.913776C250.015 1.62863 247.538 4.03535 246.733 7.15202C246.509 8.04133 246.4 8.96613 246.242 9.86864C246.091 11.1616 245.139 12.2174 243.868 12.5001C239.135 13.5029 235.798 17.7492 235.942 22.5853C236.086 27.4213 239.671 31.4609 244.456 32.1794C245.826 32.3154 247.204 32.3527 248.579 32.2907L259.829 32.2724L260.086 32.272C260.455 32.259 260.747 31.9563 260.747 31.5872C260.747 31.2181 260.455 30.9154 260.086 30.9024L250.481 30.918C249.032 30.9204 247.583 30.9227 246.134 30.9251C243.767 30.9585 241.486 30.0353 239.809 28.3646C237.716 26.2513 236.858 23.21 237.537 20.3145C238.216 17.4189 240.337 15.0764 243.151 14.114C243.854 13.9449 244.546 13.7307 245.221 13.4727C245.924 13.1232 246.518 12.5886 246.94 11.9263C247.513 11.0352 247.607 9.9743 247.783 8.95586C247.915 7.85675 248.234 6.78829 248.726 5.79629C249.43 4.52603 250.498 3.49602 251.793 2.8394C253.421 2.01162 255.216 2.06093 256.989 1.97911L262.615 1.71954L263.003 1.70159C263.881 1.6611 263.886 0.291208 263.003 0.331945L263.004 0.33203Z" fill="black"/>
<path d="M283.811 49.5549L282.107 34.1055L269.433 40.3409L269.936 50.539" fill="#D08B5B"/>
<path d="M284.496 49.5551L283.004 36.0275L282.792 34.1059C282.785 33.8634 282.653 33.6418 282.443 33.521C282.232 33.4003 281.974 33.3978 281.762 33.5145L270.658 38.9772L269.087 39.7497C268.875 39.8703 268.745 40.0969 268.748 40.3411L269.189 49.2683L269.252 50.5392C269.295 51.4164 270.665 51.4218 270.621 50.5392L270.181 41.6119L270.118 40.3411L269.779 40.9324L280.882 35.4699L282.453 34.6973L281.422 34.106L282.914 47.6337L283.127 49.5553C283.222 50.4218 284.593 50.4316 284.496 49.5553L284.496 49.5551Z" fill="black"/>
<path d="M282.701 39.4389C289.736 32.9159 286.889 27.2267 286.919 22.9119C286.936 20.4064 283.178 15.3075 283.178 15.3075L262.359 11.4082L258.057 18.4753C258.057 18.4753 250.352 47.5522 274.297 41.2532" fill="#D08B5B"/>
<path d="M283.185 39.9233C285.273 37.9694 287.03 35.5977 287.748 32.7916C288.277 30.7238 288.19 28.6063 287.935 26.5072C287.823 25.5853 287.687 24.6646 287.629 23.737C287.628 22.8572 287.502 21.9821 287.255 21.1377C286.525 19.2393 285.551 17.4442 284.357 15.798C284.116 15.4444 283.791 14.7913 283.36 14.647C283.209 14.6083 283.056 14.5796 282.902 14.5611L279.83 13.9858L269.571 12.0645C267.266 11.6329 264.965 11.1719 262.655 10.7692C262.617 10.7626 262.579 10.755 262.541 10.748C262.242 10.6749 261.93 10.8018 261.767 11.0627L259.287 15.138L257.816 17.5547C257.644 17.7955 257.5 18.0557 257.388 18.33C256.948 19.9249 256.653 21.5563 256.506 23.2043C256.077 26.2458 256.085 29.3331 256.532 32.3721C257.03 35.432 258.263 38.5481 260.754 40.525C264.041 43.1344 268.467 43.1423 272.407 42.3871C273.103 42.2537 273.793 42.0927 274.479 41.9137C275.331 41.6914 274.97 40.3699 274.115 40.593C270.313 41.5852 265.764 42.152 262.323 39.9722C259.863 38.4149 258.586 35.677 257.999 32.8065C257.482 29.8918 257.41 26.9156 257.785 23.9793C257.863 23.2613 257.909 22.9129 258.008 22.261C258.087 21.7396 258.176 21.2197 258.273 20.7013C258.391 20.0755 258.539 19.458 258.673 18.8356C258.691 18.7859 258.704 18.7344 258.712 18.6821C258.71 18.6202 258.568 18.9129 258.7 18.7372C259.104 18.2012 259.416 17.5614 259.764 16.9889L262.744 12.0936L262.95 11.7541L262.177 12.0688L269.207 13.3854L280.416 15.4848L282.996 15.9679L282.587 15.6532C283.214 16.5062 283.794 17.3987 284.339 18.3062C285.12 19.6064 286.129 21.1843 286.23 22.7414C286.326 24.2282 286.484 25.6916 286.642 27.1745C286.878 28.8804 286.816 30.6143 286.459 32.299C285.816 34.9403 284.174 37.1234 282.216 38.955C281.571 39.5586 282.542 40.5256 283.185 39.9235L283.185 39.9233Z" fill="black"/>
<path d="M266.354 23.799C266.089 24.007 266.257 23.8739 266.324 23.8278C266.411 23.7689 266.5 23.7141 266.591 23.6621C266.724 23.5857 266.862 23.5176 267.001 23.4525C267.079 23.416 267.108 23.4088 267.011 23.4466C267.058 23.4283 267.104 23.4093 267.151 23.3914C267.251 23.3538 267.353 23.3193 267.455 23.288C267.674 23.2221 267.896 23.1708 268.121 23.1345C268.171 23.127 268.163 23.1278 268.097 23.1367C268.13 23.1326 268.162 23.129 268.194 23.1259C268.249 23.1207 268.304 23.1155 268.359 23.1119C268.496 23.1027 268.634 23.0997 268.772 23.1028C268.917 23.1056 269.061 23.1158 269.206 23.1333C269.105 23.1206 269.328 23.1551 269.324 23.1543C269.401 23.1684 269.478 23.1846 269.554 23.2029C269.858 23.2734 270.153 23.3758 270.435 23.5084C270.763 23.6886 271.175 23.5807 271.372 23.2627C271.56 22.9357 271.45 22.5187 271.126 22.3257C269.891 21.7121 268.473 21.5786 267.145 21.9511C266.508 22.1301 265.911 22.4286 265.386 22.8305C265.12 23.0988 265.12 23.5307 265.386 23.799C265.657 24.0573 266.083 24.0573 266.354 23.799H266.354Z" fill="black"/>
<path d="M257.942 24.2575C258.585 23.85 259.393 23.8036 260.079 24.1349C260.88 24.4858 262.033 24.9479 262.408 25.8147C262.741 26.5864 262.355 27.6743 262.039 28.39C261.77 28.9857 261.433 29.5484 261.035 30.0673C260.771 30.3202 260.592 30.6503 260.527 31.0104C260.506 31.2265 260.522 31.4445 260.576 31.6549C260.919 32.935 262.429 32.8377 263.455 32.6599C263.818 32.5568 264.031 32.1818 263.933 31.8175C263.826 31.4583 263.454 31.2475 263.091 31.3392C262.725 31.4168 262.349 31.4269 261.98 31.3689C261.914 31.3445 261.897 31.3147 261.916 31.3554C261.87 31.2146 261.867 31.0635 261.907 30.921L261.707 31.4052C263.115 29.7114 264.921 26.6082 263.198 24.5407C262.819 24.1148 262.366 23.7605 261.861 23.4944C261.295 23.1512 260.69 22.8753 260.06 22.6723C259.109 22.3983 258.086 22.5449 257.251 23.0749C256.536 23.5786 257.219 24.7668 257.942 24.2575L257.942 24.2575Z" fill="black"/>
<ellipse cx="258.988" cy="27.9378" rx="0.886007" ry="0.886006" fill="black"/>
<path d="M258.445 27.9884C258.444 27.9473 258.446 27.9069 258.447 27.8659C258.449 27.7844 258.428 27.9402 258.448 27.8616C258.451 27.8464 258.454 27.8307 258.458 27.8153C258.463 27.7947 258.474 27.7177 258.494 27.7036L258.477 27.7426C258.484 27.7284 258.491 27.7145 258.498 27.7008C258.509 27.6804 258.52 27.6603 258.532 27.6406C258.543 27.6246 258.556 27.6094 258.565 27.5928C258.587 27.5519 258.509 27.652 258.561 27.5988C258.588 27.5712 258.614 27.5427 258.643 27.517C258.653 27.5056 258.665 27.4957 258.678 27.4873L258.645 27.5129C258.658 27.5039 258.671 27.4952 258.684 27.4869C258.697 27.4786 258.71 27.4705 258.724 27.4629C258.733 27.4576 258.813 27.4082 258.767 27.4387C258.723 27.4675 258.78 27.434 258.792 27.4302C258.811 27.4237 258.829 27.4181 258.849 27.4129C258.868 27.4078 258.888 27.4044 258.907 27.3993C258.984 27.3795 258.85 27.4016 258.901 27.3993C258.942 27.3974 258.983 27.3941 259.024 27.3957C259.036 27.3962 259.075 27.3925 259.084 27.4C259.037 27.393 259.026 27.3918 259.052 27.3963C259.064 27.3983 259.076 27.4006 259.088 27.4032C259.126 27.4116 259.163 27.4244 259.2 27.4361C259.276 27.4596 259.136 27.3993 259.204 27.4382C259.218 27.4458 259.232 27.4522 259.245 27.4597C259.267 27.4719 259.33 27.4999 259.342 27.5224L259.309 27.4972C259.318 27.5046 259.327 27.5121 259.336 27.5199C259.355 27.5389 259.375 27.5565 259.393 27.5762C259.404 27.5875 259.414 27.5994 259.424 27.6108C259.477 27.6685 259.387 27.5478 259.426 27.6153C259.446 27.6487 259.465 27.6822 259.485 27.7157C259.5 27.7421 259.515 27.7402 259.479 27.6982C259.491 27.7191 259.499 27.7417 259.503 27.765C259.508 27.7802 259.512 27.7956 259.516 27.811C259.519 27.8207 259.541 27.9177 259.528 27.8606C259.516 27.8035 259.529 27.8805 259.53 27.8886C259.531 27.905 259.531 27.9215 259.531 27.938C259.531 27.9625 259.529 27.9866 259.528 28.0111C259.526 28.0814 259.531 27.9908 259.532 27.9916C259.543 28.0057 259.51 28.0878 259.505 28.1068C259.501 28.1193 259.492 28.1656 259.482 28.1731L259.498 28.1342C259.491 28.1483 259.484 28.1622 259.477 28.1759C259.459 28.2104 259.438 28.2419 259.417 28.2746C259.377 28.3367 259.457 28.2406 259.421 28.2691C259.408 28.2826 259.395 28.2968 259.383 28.3119C259.359 28.3424 259.33 28.3686 259.297 28.3895C259.347 28.3715 259.337 28.3614 259.311 28.3771C259.284 28.3927 259.259 28.4104 259.231 28.4251C259.218 28.4335 259.204 28.4405 259.189 28.446L259.228 28.4302C259.213 28.4361 259.198 28.4416 259.184 28.4467C259.15 28.4583 259.115 28.4677 259.08 28.4751C259.041 28.4833 259.034 28.5061 259.087 28.4764C259.067 28.4815 259.046 28.4831 259.025 28.4811C259 28.4822 258.91 28.4948 258.891 28.4769L258.934 28.4826C258.919 28.48 258.903 28.477 258.888 28.4736C258.865 28.4685 258.842 28.4626 258.819 28.4556C258.801 28.4501 258.782 28.4406 258.764 28.4365C258.74 28.4273 258.749 28.4313 258.792 28.4486C258.778 28.4422 258.764 28.4354 258.75 28.4282C258.721 28.4126 258.647 28.3837 258.633 28.3545C258.634 28.3564 258.695 28.4096 258.648 28.3647C258.632 28.3487 258.614 28.3337 258.598 28.3173C258.582 28.3008 258.567 28.2833 258.551 28.266C258.5 28.209 258.589 28.3273 258.549 28.2615C258.539 28.2445 258.473 28.1613 258.48 28.14C258.472 28.1665 258.503 28.2009 258.484 28.1455C258.474 28.1193 258.466 28.0927 258.459 28.0658C258.455 28.0502 258.452 28.0344 258.449 28.0188C258.442 27.9807 258.443 27.987 258.45 28.0375C258.448 28.0211 258.447 28.0047 258.446 27.9883C258.447 27.865 258.382 27.7506 258.275 27.6885C258.169 27.6265 258.037 27.6265 257.931 27.6885C257.824 27.7506 257.759 27.865 257.761 27.9883C257.782 28.5133 258.134 28.9668 258.638 29.116C259.142 29.2653 259.685 29.0771 259.988 28.6481C260.28 28.2382 260.291 27.6918 260.018 27.2697C259.717 26.8055 259.142 26.6001 258.615 26.7679C258.088 26.9358 257.738 27.4355 257.761 27.9883C257.759 28.1115 257.824 28.226 257.931 28.288C258.037 28.35 258.169 28.35 258.275 28.288C258.382 28.226 258.447 28.1115 258.446 27.9883L258.445 27.9884Z" fill="black"/>
<ellipse cx="267.307" cy="27.1321" rx="0.886007" ry="0.886006" fill="black"/>
<path d="M266.765 27.1827C266.763 27.1416 266.765 27.1012 266.766 27.0602C266.768 26.9787 266.747 27.1345 266.767 27.056C266.771 27.0407 266.773 27.025 266.777 27.0097C266.782 26.989 266.794 26.9121 266.813 26.8979L266.797 26.9369C266.803 26.9227 266.81 26.9088 266.817 26.8952C266.828 26.8747 266.84 26.8546 266.852 26.835C266.862 26.819 266.875 26.8037 266.884 26.7871C266.906 26.7463 266.829 26.8463 266.881 26.7932C266.908 26.7656 266.933 26.737 266.962 26.7113C266.972 26.7 266.984 26.69 266.997 26.6816L266.965 26.7073C266.977 26.6982 266.99 26.6896 267.003 26.6813C267.016 26.673 267.03 26.665 267.043 26.6572C267.053 26.6519 267.132 26.6025 267.086 26.633C267.042 26.6618 267.1 26.6283 267.111 26.6245C267.13 26.6181 267.149 26.6124 267.168 26.6073C267.187 26.6021 267.207 26.5988 267.227 26.5936C267.304 26.5739 267.169 26.5959 267.22 26.5936C267.261 26.5917 267.302 26.5884 267.343 26.5901C267.356 26.5906 267.395 26.5868 267.404 26.5943C267.356 26.5874 267.346 26.5862 267.372 26.5906C267.384 26.5926 267.395 26.5949 267.407 26.5975C267.446 26.606 267.482 26.6187 267.52 26.6304C267.595 26.6539 267.455 26.5937 267.524 26.6325C267.537 26.6401 267.551 26.6465 267.565 26.654C267.587 26.6662 267.65 26.6942 267.662 26.7167L267.629 26.6916C267.638 26.6989 267.647 26.7064 267.655 26.7142C267.674 26.7332 267.694 26.7508 267.713 26.7705C267.723 26.7818 267.733 26.7938 267.743 26.8051C267.796 26.8628 267.706 26.7421 267.746 26.8096C267.765 26.8431 267.785 26.8765 267.804 26.9101C267.82 26.9364 267.834 26.9346 267.799 26.8925C267.81 26.9134 267.818 26.936 267.823 26.9594C267.827 26.9746 267.832 26.99 267.836 27.0054C267.838 27.015 267.86 27.112 267.848 27.0549C267.835 26.9979 267.849 27.0748 267.849 27.0829C267.85 27.0993 267.851 27.1159 267.851 27.1323C267.851 27.1568 267.849 27.181 267.848 27.2054C267.845 27.2757 267.85 27.1851 267.851 27.1859C267.862 27.2 267.83 27.2821 267.824 27.3012C267.82 27.3136 267.811 27.3599 267.801 27.3675L267.817 27.3285C267.811 27.3427 267.804 27.3566 267.797 27.3702C267.779 27.4047 267.757 27.4362 267.736 27.4689C267.697 27.531 267.776 27.435 267.741 27.4634C267.727 27.4769 267.714 27.4912 267.702 27.5062C267.678 27.5367 267.649 27.563 267.617 27.5838C267.667 27.5658 267.657 27.5558 267.63 27.5714C267.604 27.5871 267.578 27.6048 267.55 27.6194C267.537 27.6279 267.523 27.6349 267.509 27.6403L267.547 27.6246C267.533 27.6304 267.518 27.6359 267.503 27.641C267.469 27.6526 267.434 27.6621 267.399 27.6694C267.36 27.6776 267.353 27.7004 267.406 27.6708C267.386 27.6759 267.365 27.6774 267.344 27.6754C267.319 27.6765 267.229 27.6892 267.21 27.6712L267.254 27.677C267.238 27.6744 267.223 27.6714 267.207 27.668C267.184 27.6629 267.161 27.6569 267.139 27.65C267.12 27.6444 267.102 27.635 267.083 27.6309C267.059 27.6216 267.069 27.6257 267.111 27.643C267.097 27.6365 267.083 27.6297 267.07 27.6225C267.04 27.6069 266.966 27.578 266.952 27.5488C266.953 27.5507 267.014 27.604 266.968 27.559C266.951 27.543 266.934 27.5281 266.917 27.5116C266.901 27.4951 266.886 27.4776 266.871 27.4604C266.82 27.4033 266.908 27.5216 266.869 27.4558C266.858 27.4389 266.793 27.3557 266.8 27.3343C266.791 27.3608 266.823 27.3952 266.803 27.3398C266.794 27.3136 266.785 27.2871 266.779 27.2601C266.775 27.2445 266.772 27.2288 266.768 27.2131C266.762 27.1751 266.762 27.1813 266.769 27.2319C266.767 27.2155 266.766 27.1991 266.765 27.1826C266.765 26.9935 266.612 26.8402 266.423 26.8402C266.233 26.8402 266.08 26.9935 266.08 27.1826C266.101 27.7076 266.454 28.1611 266.957 28.3104C267.461 28.4596 268.004 28.2715 268.307 27.8425C268.599 27.4325 268.611 26.8862 268.337 26.464C268.036 25.9999 267.462 25.7944 266.935 25.9623C266.407 26.1301 266.057 26.6298 266.08 27.1826C266.08 27.3717 266.233 27.525 266.423 27.525C266.612 27.525 266.765 27.3717 266.765 27.1826L266.765 27.1827Z" fill="black"/>
<path d="M265.021 34.0547C265.182 34.5434 265.592 34.9091 266.095 35.0135C266.599 35.1179 267.12 34.9452 267.462 34.5607C267.804 34.1761 267.914 33.6383 267.751 33.1504L265.021 34.0547Z" fill="black"/>
<path d="M264.691 34.1456C264.921 34.8651 265.58 35.3609 266.335 35.3821C267.09 35.4033 267.776 34.9453 268.046 34.2398C268.192 33.8618 268.204 33.4452 268.081 33.0592C268.029 32.8784 267.842 32.7723 267.66 32.82L265.269 33.6123L264.931 33.7245C264.751 33.7782 264.645 33.9639 264.691 34.1457C264.743 34.3268 264.93 34.4331 265.113 34.3848L267.503 33.5927L267.842 33.4805L267.421 33.2414C267.618 33.8121 267.316 34.4349 266.746 34.6339C266.176 34.833 265.552 34.5332 265.352 33.9637C265.298 33.7842 265.112 33.6789 264.931 33.7245C264.749 33.7762 264.643 33.9635 264.691 34.1456Z" fill="black"/>
<path d="M281.522 22.8453C281.136 22.7462 280.729 22.7573 280.348 22.8772C279.495 23.1812 278.809 23.8283 278.455 24.6615C278.105 25.4271 277.869 26.2405 277.757 27.0751C277.667 27.4385 277.877 27.8089 278.236 27.9175C278.6 28.0136 278.974 27.8012 279.078 27.4392C279.134 27.0577 279.21 26.6795 279.307 26.3062C279.347 26.1556 279.391 26.0062 279.44 25.8581C279.465 25.7823 279.492 25.7069 279.52 25.632C279.53 25.6033 279.541 25.5746 279.553 25.5461C279.561 25.525 279.569 25.5041 279.578 25.4832C279.597 25.4349 279.588 25.4555 279.551 25.545C279.616 25.4391 279.669 25.3266 279.709 25.2093C279.767 25.0999 279.828 24.9929 279.895 24.8894C279.923 24.8465 279.952 24.8042 279.981 24.7627C279.999 24.7416 280.015 24.7195 280.03 24.6965C280.029 24.6983 279.915 24.8365 279.981 24.7599C280.045 24.6849 280.108 24.6092 280.178 24.5392C280.235 24.4821 280.296 24.4307 280.357 24.3773C280.431 24.3114 280.199 24.4872 280.317 24.4084C280.353 24.3842 280.388 24.3586 280.425 24.3353C280.484 24.298 280.545 24.264 280.608 24.2335C280.633 24.2214 280.66 24.212 280.684 24.1989C280.465 24.3173 280.571 24.2456 280.64 24.2214C280.744 24.1902 280.849 24.1644 280.955 24.1441C280.682 24.2088 280.84 24.1577 280.929 24.1533C280.971 24.1513 281.012 24.1509 281.054 24.152C281.094 24.1532 281.133 24.1585 281.173 24.1602C281.273 24.1644 280.942 24.1145 281.082 24.1488C281.107 24.1551 281.133 24.1585 281.158 24.1662C281.523 24.2629 281.897 24.0502 282.001 23.6879C282.093 23.3242 281.882 22.9524 281.522 22.8455V22.8453Z" fill="black"/>
<path d="M253.025 18.4896L272.684 18.6535L276.384 29.6454C276.384 29.6454 275.698 24.7956 277.165 22.5533C277.801 21.6551 278.56 21.037 279.342 20.9613C281.49 20.7534 283.21 21.3171 283.508 24.3917C283.705 26.4269 282.343 30.1394 281.245 31.1829L282.701 39.4396L282.705 39.4356C286.345 35.8329 292.673 29.6771 293.219 16.6236C293.336 13.7764 292.655 10.9532 291.253 8.47253C288.457 3.52046 283.148 0.525107 277.464 0.693249L256.991 1.27461" fill="#91A0A1"/>
<path d="M253.025 19.1742L259.671 19.2296L270.259 19.3179L272.684 19.3381L272.023 18.8353L275.266 28.4707L275.723 29.8272C275.834 30.1789 276.203 30.3797 276.559 30.2817C276.914 30.1837 277.129 29.8219 277.044 29.463C277.059 29.5727 277.064 29.6404 277.047 29.4758C277.03 29.32 277.012 29.1645 276.998 29.0085C276.953 28.5213 276.925 28.0328 276.913 27.5432C276.84 26.281 276.981 25.0155 277.33 23.8004C277.541 23.1605 277.92 22.5889 278.427 22.1455C278.922 21.7291 279.567 21.535 280.209 21.6088C281.214 21.6303 282.06 22.0034 282.482 22.9606C283.024 24.1882 282.866 25.5752 282.545 26.8338C282.273 28.125 281.748 29.3493 280.999 30.4355C280.731 30.7798 280.522 30.9795 280.598 31.4471C280.635 31.6674 280.676 31.887 280.715 32.107L281.166 34.6655L282.04 39.6214C282.107 39.8543 282.292 40.0346 282.527 40.0965C282.761 40.1584 283.011 40.0928 283.184 39.9236C286.399 36.7677 289.263 33.34 291.108 29.1886C292.425 26.176 293.283 22.9833 293.655 19.7166C293.944 17.7574 293.979 15.7692 293.759 13.8011C292.633 5.64138 285.491 -0.326808 277.261 0.0138804C273.899 0.107945 270.536 0.203467 267.174 0.300446C263.841 0.395119 260.502 0.441586 257.171 0.584762C257.111 0.587351 257.051 0.5882 256.991 0.589897C256.111 0.614891 256.108 1.98462 256.991 1.95954L265.123 1.72852L276.403 1.40809C277.95 1.31572 279.503 1.41518 281.026 1.70421C288.051 3.23078 292.925 9.63534 292.526 16.8132C292.396 20.2227 291.748 23.5927 290.605 26.8075C289.01 31.1865 286.292 34.8781 283.026 38.151C282.757 38.4203 282.487 38.6884 282.216 38.9553L283.361 39.2574L281.905 31.0008L281.729 31.667C282.288 31.0603 282.729 30.355 283.03 29.5871C283.456 28.6374 283.781 27.6453 283.998 26.6275C284.363 24.8635 284.336 22.6555 282.987 21.2821C281.888 20.1627 279.704 19.8742 278.315 20.5707C276.403 21.5293 275.776 23.6872 275.599 25.6512C275.482 27.0434 275.524 28.4445 275.724 29.8273L277.044 29.4632L273.801 19.8277L273.344 18.4713C273.256 18.1784 272.99 17.9755 272.684 17.9685L266.038 17.9132L255.45 17.8249L253.025 17.8047C252.657 17.8176 252.364 18.1204 252.364 18.4895C252.364 18.8585 252.657 19.1613 253.025 19.1743L253.025 19.1742Z" fill="black"/>
<rect x="1.4375" y="73.7354" width="186.992" height="135.031" rx="17.357" fill="white"/>
<path d="M171.767 208.082H23.2965C21.6319 208.082 19.9672 208.085 18.3025 208.082C11.0161 208.068 4.47128 203.228 2.62895 196.109C1.97595 193.586 2.12248 190.95 2.12248 188.366V92.1503C2.12248 91.5786 2.1193 91.0068 2.12248 90.4352C2.11202 86.1908 3.79103 82.1167 6.78894 79.1121C9.78684 76.1075 13.8572 74.4194 18.1016 74.4204C18.4194 74.4184 18.7374 74.4204 19.0552 74.4204H169.955C173.207 74.4204 176.343 74.717 179.296 76.3019C183.381 78.5042 186.318 82.36 187.357 86.8828C187.645 88.2838 187.775 89.7128 187.745 91.1428V186.477C187.745 188.345 187.756 190.214 187.745 192.082C187.664 200.876 180.561 207.989 171.767 208.082C171.398 208.095 171.106 208.398 171.106 208.767C171.106 209.136 171.398 209.439 171.767 209.452C181.304 209.347 189.01 201.641 189.115 192.104C189.126 190.393 189.115 188.681 189.115 186.97V91.1075C189.141 89.5664 188.994 88.0272 188.678 86.5187C187.651 82.1065 184.952 78.2652 181.148 75.8045C177.842 73.6665 174.138 73.0508 170.297 73.0508H18.9433C13.8603 73.0508 9.04449 74.7159 5.49457 78.4816C2.46515 81.7129 0.77108 85.971 0.75284 90.4002C0.749827 90.8808 0.75284 91.3616 0.75284 91.8423V188.404C0.75284 191.108 0.623794 193.829 1.30823 196.473C3.28606 204.115 10.354 209.416 18.1925 209.452C19.7031 209.458 21.2138 209.452 22.7245 209.452H171.767C172.136 209.439 172.428 209.136 172.428 208.767C172.428 208.398 172.136 208.095 171.767 208.082Z" fill="black"/>
<path d="M1.4375 92.5726V82.6987C1.4375 77.7484 5.45055 73.7354 10.4009 73.7354H179.466C184.416 73.7354 188.43 77.7484 188.43 82.6987V92.5726H1.4375Z" fill="black"/>
<path d="M2.12286 92.5718C2.12286 89.2831 2.08084 85.9912 2.12286 82.7026C2.18187 78.0769 5.97371 74.3717 10.5996 74.4195C13.3901 74.4094 16.1808 74.4195 18.9714 74.4195H178.323C179.895 74.4195 181.408 74.4775 182.889 75.1551C185.835 76.5228 187.727 79.4683 187.745 82.7163C187.766 84.4476 187.745 86.1808 187.745 87.9125V92.5719L188.43 91.887H9.02857C6.6059 91.887 4.17821 91.8424 1.756 91.887C1.64991 91.889 1.54383 91.887 1.43803 91.887C1.0692 91.9 0.7769 92.2028 0.7769 92.5719C0.7769 92.9409 1.0692 93.2437 1.43803 93.2567H180.84C183.262 93.2567 185.69 93.3012 188.112 93.2567C188.218 93.2547 188.324 93.2567 188.43 93.2567C188.806 93.2513 189.11 92.9478 189.115 92.5719C189.115 89.2389 189.176 85.9005 189.113 82.5683C188.979 77.2837 184.665 73.0651 179.378 73.0501C176.754 73.0275 174.128 73.0501 171.503 73.0501H11.2414C8.99454 73.0501 6.81247 73.4344 4.91956 74.7602C2.32891 76.579 0.776951 79.5376 0.753212 82.7029C0.732801 84.4082 0.753212 86.1149 0.753212 87.8203V92.5718C0.766199 92.9406 1.06897 93.2329 1.43803 93.2329C1.8071 93.2329 2.10987 92.9406 2.12286 92.5718Z" fill="black"/>
<rect x="65.8174" y="113.142" width="59.7382" height="59.7381" rx="10.6286" fill="#85E0A3"/>
<path d="M115.352 172.195H76.5451C75.1106 172.236 73.6826 171.987 72.346 171.465C69.5482 170.278 67.4766 167.837 66.7594 164.884C66.5522 163.875 66.4659 162.846 66.5024 161.817V124.383C66.4696 123.511 66.5118 122.637 66.6283 121.772C67.1518 118.768 69.0659 116.187 71.7898 114.815C74.1487 113.629 76.7274 113.827 79.276 113.827H113.668C114.226 113.827 114.785 113.824 115.343 113.827C117.89 113.822 120.333 114.84 122.124 116.652C123.915 118.464 124.905 120.919 124.871 123.466C124.872 124.204 124.871 124.941 124.871 125.679V160.181C124.871 160.961 124.871 161.741 124.871 162.521C124.892 164.656 124.21 166.738 122.929 168.446C121.118 170.799 118.321 172.183 115.352 172.195C114.983 172.208 114.691 172.511 114.691 172.88C114.691 173.249 114.983 173.552 115.352 173.565C118.25 173.564 121.029 172.407 123.072 170.352C125.116 168.297 126.256 165.512 126.24 162.613C126.246 160.432 126.24 158.25 126.24 156.068V130.2C126.24 127.947 126.245 125.694 126.24 123.441C126.285 117.567 121.668 112.714 115.799 112.467C113.872 112.385 111.929 112.457 110 112.457H76.3956C74.6093 112.427 72.84 112.808 71.2241 113.57C68.3943 114.967 66.3047 117.517 65.4908 120.566C64.9102 122.783 65.1327 125.272 65.1327 127.545V161.851C65.098 163.015 65.2063 164.18 65.4552 165.318C66.2299 168.378 68.2866 170.955 71.0985 172.39C72.7394 173.192 74.5467 173.595 76.3729 173.565H115.352C115.721 173.552 116.013 173.249 116.013 172.88C116.013 172.511 115.721 172.208 115.352 172.195Z" fill="black"/>
<path d="M94.0732 160.147L75.6357 145.317C74.4739 144.393 73.8955 142.919 74.1199 141.452C74.3443 139.985 75.337 138.751 76.7216 138.217C78.1062 137.684 79.6705 137.933 80.8212 138.869L92.8319 148.53L109.929 127.41C110.859 126.261 112.331 125.696 113.791 125.927C115.251 126.158 116.477 127.15 117.006 128.53C117.536 129.91 117.29 131.467 116.36 132.616L94.0732 160.147Z" fill="black"/>
<path d="M94.5575 159.661L88.9258 155.132L79.3002 147.389L76.4597 145.105C76.184 144.897 75.9236 144.669 75.6806 144.423C74.6991 143.349 74.4955 141.775 75.1713 140.486C75.8471 139.197 77.2575 138.47 78.6994 138.666C79.3912 138.779 80.0383 139.081 80.569 139.539L83.9638 142.27C86.7041 144.474 89.4444 146.678 92.1848 148.882C92.2391 148.926 92.2934 148.969 92.3476 149.013C92.6172 149.275 93.0464 149.275 93.316 149.013L101.632 138.741C104.551 135.135 107.427 131.489 110.391 127.92C111.143 126.931 112.368 126.422 113.599 126.586C114.83 126.75 115.879 127.561 116.346 128.712C116.813 129.863 116.627 131.176 115.859 132.151C115.096 133.152 114.272 134.112 113.48 135.089L102.118 149.125L93.7254 159.493L93.5888 159.662C93.039 160.341 94.0023 161.316 94.5573 160.63L101.931 151.521L113.86 136.785C114.824 135.595 115.791 134.408 116.75 133.215C117.767 132.029 118.17 130.436 117.838 128.91C117.249 126.49 114.926 124.908 112.459 125.245C110.271 125.554 109.144 127.296 107.875 128.864L102.454 135.561L92.5386 147.809L92.3476 148.045H93.3161L85.7564 141.964L81.7771 138.763C81.3941 138.427 80.9819 138.126 80.5455 137.863C78.38 136.677 75.6684 137.319 74.2645 139.35C72.8606 141.381 73.2182 144.144 75.0928 145.751C75.6793 146.246 76.2895 146.715 76.8874 147.196L86.3377 154.798C88.7141 156.709 91.0839 158.628 93.4666 160.532C93.5074 160.564 93.548 160.597 93.5888 160.63C94.2694 161.177 95.2445 160.214 94.5575 159.661Z" fill="black"/>
<path d="M53.4258 186.66H133.919C135.005 186.66 136.095 186.688 137.181 186.66C137.229 186.659 137.276 186.66 137.324 186.66C137.693 186.647 137.985 186.345 137.985 185.975C137.985 185.606 137.693 185.304 137.324 185.291H56.8305C55.7444 185.291 54.6543 185.263 53.5686 185.291C53.5211 185.292 53.4734 185.291 53.4258 185.291C53.0569 185.304 52.7646 185.606 52.7646 185.975C52.7646 186.345 53.0569 186.647 53.4258 186.66Z" fill="black"/>
<path d="M44.9034 193.611H141.76C143.065 193.611 144.373 193.637 145.677 193.611C145.733 193.61 145.79 193.611 145.846 193.611C146.215 193.598 146.507 193.295 146.507 192.926C146.507 192.557 146.215 192.254 145.846 192.241H48.9891C47.6845 192.241 46.3768 192.215 45.0723 192.241C45.016 192.242 44.9596 192.241 44.9033 192.241C44.5345 192.254 44.2422 192.557 44.2422 192.926C44.2422 193.295 44.5345 193.598 44.9033 193.611H44.9034Z" fill="black"/>
<path d="M44.8455 200.562H141.205C142.507 200.562 143.813 200.589 145.116 200.562C145.172 200.56 145.229 200.562 145.286 200.562C145.655 200.549 145.947 200.246 145.947 199.877C145.947 199.508 145.655 199.205 145.286 199.192H48.9267C47.6239 199.192 46.3179 199.164 45.0154 199.192C44.9589 199.193 44.9022 199.192 44.8457 199.192C44.4769 199.205 44.1846 199.508 44.1846 199.877C44.1846 200.246 44.4769 200.549 44.8457 200.562H44.8455Z" fill="black"/>
<ellipse cx="12.8561" cy="82.7564" rx="3.3922" ry="3.39219" fill="#EA2F2F"/>
<ellipse cx="26.0133" cy="82.7564" rx="3.3922" ry="3.39219" fill="#85E0A3"/>
<ellipse cx="39.1705" cy="82.7564" rx="3.3922" ry="3.39219" fill="#5C5557"/>
<path d="M191.061 73.8283L183.354 70.784C182.824 70.5748 182.232 70.5905 181.714 70.8275C181.196 71.0645 180.797 71.5024 180.609 72.0401C180.292 72.9465 180.632 73.9523 181.434 74.4802L188.251 78.9658C186.753 83.241 188.107 87.9966 191.632 90.8415" fill="#D08B5B"/>
<path d="M191.244 73.1689C188.69 72.1602 186.152 71.0942 183.577 70.1407C182.357 69.6738 180.976 70.1206 180.261 71.2138C179.546 72.307 179.689 73.7509 180.606 74.6818C180.986 75.0201 181.401 75.3174 181.843 75.569L184.014 76.9972L187.906 79.5581L187.591 78.7848C186.483 81.5591 186.844 85.0222 188.17 87.635C188.911 89.0487 189.923 90.3031 191.148 91.3269C191.814 91.8975 192.787 90.9331 192.117 90.3584C189.876 88.4384 188.419 85.8503 188.34 82.8673C188.278 81.602 188.472 80.3372 188.912 79.149C188.992 78.8498 188.863 78.5337 188.597 78.3756L181.984 74.0241C181.333 73.6827 181.03 72.9176 181.269 72.2233C181.59 71.386 182.481 71.1821 183.25 71.4765C184.514 71.9602 185.768 72.4707 187.026 72.9677L190.88 74.4898C191.7 74.8136 192.055 73.4896 191.244 73.1691V73.1689Z" fill="black"/>
<path d="M222.701 122.889L221.833 124.752C221.347 125.795 221.377 127.004 221.913 128.021L222.683 129.485L221.876 130.691C221.291 131.568 221.267 132.706 221.817 133.606L222.672 135.006C222.719 136.672 221.2 137.372 221.324 139.652C221.447 141.931 224.683 142.073 226.755 142.119L233.03 142.256C234.848 142.279 236.6 141.579 237.902 140.31C238.935 139.302 240.259 138.647 241.686 138.436L268.321 134.508C268.321 134.508 267.474 125.104 266.717 122.416" fill="#D08B5B"/>
<path d="M222.109 122.543C221.618 123.598 220.959 124.694 220.831 125.866C220.669 127.358 221.429 128.571 222.092 129.83V129.139C221.62 129.845 221.025 130.56 220.83 131.403C220.553 132.6 220.996 133.575 221.6 134.565L221.947 135.133C221.974 135.189 222.007 135.242 222.044 135.292C222.162 135.413 222.064 135.067 221.985 135.194C221.92 135.411 221.869 135.631 221.833 135.854C221.741 136.076 221.635 136.291 221.515 136.499C221.217 137.008 220.977 137.55 220.801 138.113C220.652 138.654 220.421 139.678 220.839 140.136L220.639 139.652C220.86 142.426 224.112 142.723 226.294 142.792C227.806 142.84 229.319 142.86 230.831 142.893C232.84 142.937 234.752 143.042 236.613 142.081C238.044 141.342 238.993 139.993 240.536 139.433C241.041 139.257 241.562 139.134 242.091 139.064L249.627 137.953L261.364 136.222L266.009 135.537C266.797 135.421 267.61 135.35 268.39 135.186C268.427 135.178 268.466 135.175 268.503 135.169C268.801 135.088 269.007 134.817 269.006 134.509C268.715 131.289 268.379 128.064 267.888 124.869C267.77 123.981 267.599 123.102 267.377 122.234C267.266 121.882 266.897 121.681 266.541 121.779C266.185 121.877 265.971 122.239 266.056 122.598C266.467 124.296 266.754 126.021 266.914 127.76C267.144 129.608 267.342 131.46 267.523 133.313C267.562 133.711 267.6 134.11 267.636 134.509L268.139 133.848L262.456 134.686L251.041 136.37L242.363 137.649C241.161 137.771 239.993 138.122 238.923 138.685C238.293 139.081 237.705 139.541 237.168 140.057C236.582 140.572 235.901 140.969 235.164 141.224C234.311 141.494 233.417 141.608 232.525 141.56L227.354 141.447C226.692 141.433 226.029 141.424 225.368 141.376C224.401 141.306 223.045 141.203 222.343 140.435C222.001 140.061 222.125 139.515 221.808 139.168L222.008 139.652C221.965 138.487 222.486 137.701 222.955 136.69C223.201 136.206 223.338 135.675 223.357 135.133C223.325 134.782 223.189 134.449 222.967 134.176C222.496 133.404 221.917 132.652 222.171 131.689C222.348 131.016 222.893 130.401 223.274 129.83C223.398 129.617 223.398 129.353 223.274 129.139C222.735 128.114 222.023 127.087 222.204 125.87C222.34 124.954 222.906 124.063 223.292 123.234C223.662 122.44 222.482 121.744 222.109 122.543L222.109 122.543Z" fill="black"/>
<path d="M266.423 48.6743L266.499 45.1229L286.587 43.2969L287.5 50.1451L280.424 56.765L268.325 54.482L266.423 48.6743Z" fill="#85E0A3"/>
<path d="M267.108 48.674L267.184 45.1229L266.499 45.8077L273.278 45.1914L284.093 44.2083L286.587 43.9815L285.903 43.2967L286.816 50.1449C286.828 50.5178 287.127 50.8173 287.5 50.8297C287.878 50.8279 288.183 50.5223 288.185 50.1449L287.272 43.2967C287.227 42.9565 286.994 42.5749 286.587 42.6119L279.808 43.2282L268.994 44.2113L266.499 44.4381C266.125 44.447 265.823 44.7484 265.815 45.1229L265.738 48.674C265.72 49.5557 267.089 49.5556 267.108 48.674H267.108Z" fill="black"/>
<path d="M312.579 44.0467C312.579 65.2425 279.636 57.8367 279.891 75.7127C271.209 62.9441 279.381 45.8343 292.405 39.7054C292.405 39.7054 297.767 38.1732 301.343 39.7054" fill="#91A0A1"/>
<path d="M311.894 44.0459C311.885 47.4312 310.928 50.7311 308.66 53.2909C306.538 55.6846 303.682 57.2669 300.791 58.5491C297.707 59.9168 294.489 60.9507 291.353 62.1889C288.455 63.3334 285.524 64.6314 283.153 66.6998C280.875 68.6628 279.47 71.4505 279.247 74.4496C279.213 74.8698 279.202 75.2908 279.207 75.7121L280.483 75.3665C278.528 72.5046 277.346 69.1863 277.05 65.733C276.81 62.3524 277.311 58.96 278.52 55.7935C280.983 49.2879 285.755 43.9164 291.925 40.7029C292.939 40.2422 294.025 39.9578 295.135 39.8618C297.135 39.6014 299.27 39.5799 301.161 40.3652C301.525 40.463 301.901 40.2499 302.003 39.8869C302.095 39.5234 301.884 39.1524 301.525 39.0445C299.739 38.3028 297.711 38.2409 295.808 38.418C294.608 38.4917 293.419 38.6981 292.263 39.0333C291.578 39.3007 290.92 39.6329 290.298 40.0254C289.515 40.4687 288.755 40.9499 288.018 41.4691C286.51 42.5283 285.104 43.7242 283.816 45.0416C278.808 50.1715 275.457 57.2396 275.618 64.4946C275.711 68.6224 276.99 72.6363 279.301 76.0578C279.462 76.316 279.773 76.4382 280.067 76.3586C280.361 76.279 280.568 76.0164 280.577 75.7121C280.474 72.8349 281.607 70.0511 283.689 68.0628C285.822 66.029 288.671 64.7274 291.419 63.6283C294.6 62.3559 297.863 61.2953 301.012 59.9375C303.979 58.6577 306.919 57.077 309.189 54.733C311.566 52.2373 312.988 48.9846 313.206 45.5453C313.246 45.0464 313.263 44.5464 313.264 44.046C313.251 43.6772 312.949 43.3849 312.579 43.3849C312.21 43.3849 311.908 43.6772 311.895 44.046L311.894 44.0459Z" fill="black"/>
<path d="M290.023 140.061L291.768 145.324L295.829 157.571L300.444 171.488L303.851 181.764C304.085 182.468 304.314 183.175 304.552 183.878C305.459 186.516 306.937 188.921 308.881 190.922C310.603 192.686 312.645 194.107 314.897 195.11C315.615 195.433 316.334 195.757 317.052 196.08L326.786 200.461L340.139 206.472L352.421 212L359.254 215.076L359.573 215.22C359.972 215.399 360.321 214.809 359.919 214.628L355.143 212.479L343.799 207.372L330.36 201.323L319.331 196.358C317.505 195.537 315.609 194.788 313.846 193.834C310.493 192.014 307.783 189.203 306.087 185.785C305.634 184.836 305.249 183.857 304.934 182.854L302.058 174.181L297.581 160.68L293.246 147.608L290.797 140.222L290.683 139.879C290.545 139.463 289.884 139.641 290.023 140.061H290.023Z" fill="black"/>
<path d="M273.361 156.476L273.087 159.081L272.347 166.136L271.252 176.562L269.911 189.331L268.442 203.321L266.965 217.388L265.588 230.505L264.42 241.63L263.583 249.598C263.451 250.855 263.273 252.117 263.186 253.377C263.183 253.432 263.175 253.487 263.169 253.541C263.123 253.979 263.808 253.976 263.854 253.541L264.128 250.936L264.868 243.881L265.963 233.455L267.304 220.685L268.773 206.696L270.25 192.629L271.627 179.512L272.795 168.387L273.632 160.418C273.764 159.162 273.941 157.9 274.028 156.639C274.032 156.585 274.04 156.53 274.046 156.476C274.092 156.038 273.406 156.041 273.361 156.476L273.361 156.476Z" fill="black"/>
</svg>
