<svg width="40" height="40" viewBox="0 0 40 40" fill="none" xmlns="http://www.w3.org/2000/svg">
<path fill-rule="evenodd" clip-rule="evenodd" d="M17.8767 0.113033C13.9811 0.528956 10.2935 2.07985 7.27155 4.57319C4.24964 7.06653 2.02657 10.3925 0.878311 14.1382C-0.269944 17.8839 -0.292808 21.8843 0.812557 25.6429C1.91792 29.4014 4.10283 32.7526 7.09605 35.2803C9.62329 37.4145 12.6404 38.8886 15.8772 39.5705C19.114 40.2523 22.4694 40.1207 25.6429 39.1874C28.8163 38.2542 31.7087 36.5483 34.0611 34.2227C36.4134 31.8971 38.1522 29.0244 39.1217 25.8618C40.0912 22.6993 40.2611 19.3456 39.6163 16.1012C38.9715 12.8568 37.532 9.82303 35.4268 7.27156C33.3216 4.72008 30.6165 2.7306 27.5536 1.48129C24.4908 0.231979 21.1659 -0.238142 17.8767 0.113033Z" fill="#F56630"/>
<path fill-rule="evenodd" clip-rule="evenodd" d="M22 13C22 10.2386 24.2386 8 27 8C29.7614 8 32 10.2386 32 13C32 15.7614 29.7614 18 27 18C24.2386 18 22 15.7614 22 13Z" fill="white"/>
</svg>
