<svg width="40" height="40" viewBox="0 0 40 40" fill="none" xmlns="http://www.w3.org/2000/svg">
<path fill-rule="evenodd" clip-rule="evenodd" d="M17.8767 0.113033C13.9811 0.528956 10.2935 2.07985 7.27155 4.57319C4.24964 7.06653 2.02657 10.3925 0.878311 14.1382C-0.269944 17.8839 -0.292808 21.8843 0.812557 25.6429C1.91792 29.4014 4.10283 32.7526 7.09605 35.2803C9.62329 37.4145 12.6404 38.8886 15.8772 39.5705C19.114 40.2523 22.4694 40.1207 25.6429 39.1874C28.8163 38.2542 31.7087 36.5483 34.0611 34.2227C36.4134 31.8971 38.1522 29.0244 39.1217 25.8618C40.0912 22.6993 40.2611 19.3456 39.6163 16.1012C38.9715 12.8568 37.532 9.82303 35.4268 7.27156C33.3216 4.72008 30.6165 2.7306 27.5536 1.48129C24.4908 0.231979 21.1659 -0.238142 17.8767 0.113033Z" fill="#20365C"/>
<path fill-rule="evenodd" clip-rule="evenodd" d="M19.4261 4.99805V34.998H20.2894V4.99805H19.4101H19.4261ZM24.7818 26.4049C25.562 26.4049 26.3102 26.095 26.8618 25.5433C27.4135 24.9917 27.7234 24.2435 27.7234 23.4633C27.7234 22.6831 27.4135 21.9349 26.8618 21.3832C26.3102 20.8316 25.562 20.5216 24.7818 20.5216C24.0016 20.5216 23.2534 20.8316 22.7017 21.3832C22.1501 21.9349 21.8401 22.6831 21.8401 23.4633C21.8401 24.2435 22.1501 24.9917 22.7017 25.5433C23.2534 26.095 24.0016 26.4049 24.7818 26.4049ZM27.7154 16.1891C27.7362 16.5878 27.6757 16.9865 27.5374 17.361C27.3992 17.7355 27.1862 18.078 26.9113 18.3675C26.6365 18.6571 26.3056 18.8876 25.9388 19.0452C25.572 19.2028 25.177 19.284 24.7778 19.284C24.3786 19.284 23.9835 19.2028 23.6167 19.0452C23.2499 18.8876 22.919 18.6571 22.6442 18.3675C22.3694 18.078 22.1564 17.7355 22.0181 17.361C21.8799 16.9865 21.8193 16.5878 21.8401 16.1891C21.8794 15.4365 22.206 14.7276 22.7526 14.2088C23.2993 13.69 24.0241 13.4007 24.7778 13.4007C25.5314 13.4007 26.2563 13.69 26.8029 14.2088C27.3495 14.7276 27.6762 15.4365 27.7154 16.1891ZM14.9416 22.7678C15.7218 22.7678 16.47 22.4579 17.0217 21.9062C17.5734 21.3546 17.8833 20.6064 17.8833 19.8262C17.8833 19.046 17.5734 18.2978 17.0217 17.7461C16.47 17.1945 15.7218 16.8845 14.9416 16.8845C14.1615 16.8845 13.4133 17.1945 12.8616 17.7461C12.3099 18.2978 12 19.046 12 19.8262C12 20.6064 12.3099 21.3546 12.8616 21.9062C13.4133 22.4579 14.1615 22.7678 14.9416 22.7678Z" fill="#1DAFEC"/>
</svg>
