<svg width="40" height="40" viewBox="0 0 40 40" fill="none" xmlns="http://www.w3.org/2000/svg">
<path opacity="0.2" fill-rule="evenodd" clip-rule="evenodd" d="M17.8767 0.113033C13.9811 0.528956 10.2935 2.07985 7.27155 4.57319C4.24964 7.06653 2.02657 10.3925 0.878311 14.1382C-0.269944 17.8839 -0.292808 21.8843 0.812557 25.6429C1.91792 29.4014 4.10283 32.7526 7.09605 35.2803C9.62329 37.4145 12.6404 38.8886 15.8772 39.5705C19.114 40.2523 22.4694 40.1207 25.6429 39.1874C28.8163 38.2542 31.7087 36.5483 34.0611 34.2227C36.4134 31.8971 38.1522 29.0244 39.1217 25.8618C40.0912 22.6993 40.2611 19.3456 39.6163 16.1012C38.9715 12.8568 37.532 9.82303 35.4268 7.27156C33.3216 4.72008 30.6165 2.7306 27.5536 1.48129C24.4908 0.231979 21.1659 -0.238142 17.8767 0.113033Z" fill="#29ABE2"/>
<path d="M16.9412 25.4286L17.4149 26.1885C16.6047 25.7232 15.6461 25.5849 14.7365 25.802L12.91 26.2315C9.79214 26.9774 7.6619 23.1339 9.9772 20.8963L15.1389 15.8754C14.5708 17.0352 14.311 18.3206 14.384 19.6089C14.4571 20.8971 14.8607 22.1452 15.5562 23.234L16.9412 25.4286Z" fill="#0371AC"/>
<path d="M27.9554 24.4672L27.9263 27.3505C27.927 28.1454 27.6667 28.9188 27.1851 29.5528C26.7035 30.1868 26.0269 30.6469 25.2584 30.8628C24.4899 31.0788 23.6716 31.0389 22.928 30.7491C22.1844 30.4594 21.5563 29.9357 21.1393 29.2578L18.2064 24.5923L16.7541 22.3157C15.9038 20.9747 15.5338 19.387 15.7041 17.8104C15.7806 17.1323 15.96 16.4697 16.2361 15.8451C16.2508 16.1119 16.2943 16.3764 16.3659 16.634C16.5441 17.3582 16.9121 18.0224 17.4325 18.5587C17.9529 19.095 18.607 19.4842 19.3279 19.6866L25.5396 21.4887C26.1963 21.6859 26.7782 22.0756 27.2091 22.6069C27.6401 23.1382 27.9002 23.7865 27.9554 24.4672Z" fill="#29ABE2"/>
<path d="M27.9986 11.27V11.9878L27.9121 21.4689C27.9121 21.4652 27.9106 21.4616 27.908 21.459C27.9053 21.4564 27.9018 21.4549 27.898 21.4549C27.3674 20.7629 26.6267 20.2598 25.7859 20.0202L19.8035 18.2992C19.2573 18.1427 18.7622 17.8454 18.3684 17.4374C17.9745 17.0294 17.6959 16.5251 17.5606 15.9755C17.4386 15.5194 17.4204 15.0419 17.5074 14.5778C17.5944 14.1138 17.7844 13.675 18.0635 13.2934C18.1765 13.1404 18.3012 12.9965 18.4367 12.8629L22.492 8.91825C22.9511 8.47206 23.5328 8.17148 24.1636 8.05455C24.7944 7.93762 25.4459 8.00961 26.0356 8.2614C26.6253 8.51319 27.1266 8.93347 27.4762 9.46903C27.8259 10.0046 28.008 10.6314 27.9996 11.27H27.9986Z" fill="#FBB416"/>
</svg>
