<svg width="40" height="40" viewBox="0 0 40 40" fill="none" xmlns="http://www.w3.org/2000/svg">
<path d="M0 20C0 8.95431 8.95431 0 20 0C31.0457 0 40 8.95431 40 20C40 31.0457 31.0457 40 20 40C8.95431 40 0 31.0457 0 20Z" fill="#FFEBCC"/>
<path d="M7 14.3677C7 13.0728 7.38911 11.9673 8.20569 11.1727L9.62581 12.5546C8.04521 14.0872 9.42557 18.852 13.9259 23.2355C18.4263 27.619 23.3257 28.9609 24.9049 27.4255L26.325 28.8075C23.6609 31.4 17.5927 29.5606 12.5129 24.6161C8.98959 21.1861 7 17.2946 7 14.3677Z" fill="#009A46"/>
<path d="M15.9549 30C14.6242 30 13.4881 29.6213 12.6701 28.8267L14.0902 27.4448C15.668 28.9801 20.5646 27.6369 25.0692 23.2548C29.5738 18.8727 30.9514 14.1078 29.3736 12.5725L30.7937 11.1906C33.4593 13.7831 31.5677 19.6881 26.4865 24.6312C22.9617 28.0653 18.9627 30 15.9549 30Z" fill="#FF5805"/>
<path d="M26.9571 22.6526C26.0951 20.237 24.3341 17.6556 21.998 15.3837C16.9182 10.4392 10.85 8.59844 8.1859 11.1923C7.99702 11.3775 8.16034 11.8349 8.55229 12.2163C8.94424 12.5977 9.4143 12.7553 9.60318 12.5715C11.1824 11.0362 16.0789 12.3794 20.5822 16.7629C22.7123 18.8358 24.3 21.1505 25.0655 23.2925C25.7358 25.1705 25.6705 26.6851 24.8894 27.4452C24.6991 27.629 24.8638 28.0878 25.2544 28.4678C25.6449 28.8478 26.1164 29.0081 26.3067 28.823C27.6714 27.4949 27.9029 25.3004 26.9571 22.6526Z" fill="#F5AFCB"/>
<path d="M30.7912 11.1926C29.4236 9.86177 27.1713 9.63652 24.4475 10.5583C21.9665 11.3957 19.3123 13.1107 16.9776 15.3826C11.8979 20.3257 10.0063 26.2307 12.6704 28.8246C12.8607 29.0084 13.3308 28.8495 13.7227 28.4694C14.1147 28.0894 14.278 27.6306 14.0877 27.4454C12.5057 25.9101 13.8903 21.1452 18.3949 16.7617C20.5251 14.6888 22.9038 13.1439 25.105 12.399C27.035 11.7481 28.5914 11.8103 29.3739 12.5704C29.5628 12.7541 30.0343 12.5952 30.4248 12.2138C30.8153 11.8324 30.9801 11.3764 30.7912 11.1926Z" fill="#FF9B00"/>
</svg>
