<svg width="40" height="40" viewBox="0 0 40 40" fill="none" xmlns="http://www.w3.org/2000/svg">
<path d="M33.8862 6.11558C32.0724 4.29418 29.9042 2.86439 27.5156 1.91469C25.127 0.964985 22.5689 0.515583 19.9997 0.594289C17.4944 0.549403 15.0048 0.998661 12.6732 1.91639C10.3416 2.83411 8.21375 4.20232 6.41119 5.9428C4.60864 7.68329 3.16673 9.76193 2.1679 12.0599C1.16906 14.3579 0.63287 16.8303 0.58997 19.3356C0.58997 19.5596 0.58997 19.7855 0.58997 20.0095C0.252989 30.543 8.62195 39.3322 19.1628 39.5785H19.9997C30.5405 39.8303 39.3205 31.4632 39.4927 20.9224V19.9188C39.5668 17.355 39.1066 14.8038 38.1414 12.4275C37.1762 10.0511 35.7271 7.90159 33.8862 6.11558Z" fill="#F9A024"/>
<path d="M19.9997 39.997C14.8133 40.0876 9.80136 38.1248 6.0558 34.5363C2.31023 30.9479 0.134632 26.0246 0.00303341 20.8391V20.0022C-0.0880345 14.8157 1.87457 9.80348 5.46314 6.05781C9.0517 2.31214 13.9753 0.136687 19.1609 0.00556941H19.9978C22.5632 -0.0556977 25.1154 0.389032 27.5088 1.31436C29.9023 2.23969 32.0899 3.62749 33.9469 5.39848C35.8038 7.16946 37.2937 9.28894 38.3314 11.6358C39.369 13.9827 39.9341 16.5111 39.9945 19.0764V20.0022C40.0631 22.5694 39.6235 25.1249 38.7008 27.5215C37.7782 29.9182 36.3907 32.1088 34.6183 33.9672C32.8459 35.8257 30.7235 37.3153 28.3732 38.3505C26.0229 39.3856 23.4912 39.9458 20.9236 39.9988L19.9997 39.997ZM19.9997 1.01281C15.0878 0.899853 10.3313 2.73797 6.77176 6.12465C3.21226 9.51132 1.13987 14.1705 1.00842 19.082V20.0078C0.841781 30.2986 8.87191 38.8324 19.2461 38.999H19.9997C22.4373 39.0759 24.8659 38.6678 27.1445 37.7983C29.423 36.9288 31.5062 35.6153 33.2729 33.934C35.0396 32.2528 36.4547 30.2372 37.436 28.0045C38.4172 25.7718 38.9452 23.3664 38.9891 20.928V20.0022C39.2409 9.79652 31.0423 1.26276 20.844 1.09612L19.9997 1.01281Z" fill="#ED017F"/>
<path d="M9.96064 13.3941C10.6465 12.7739 11.5452 12.4423 12.4695 12.4683C13.5034 12.4516 14.5294 12.6509 15.4819 13.0534C16.5166 13.467 17.4991 14.0008 18.4092 14.6438L18.8277 14.3087C18.2426 13.1367 17.3224 12.2165 16.2355 11.4647C15.0613 10.8015 13.7347 10.455 12.3862 10.4594C11.6705 10.4776 10.9633 10.6192 10.2958 10.8778C9.61857 11.1467 9.03794 11.6132 8.62938 12.2165C8.21093 12.7182 7.95912 13.3885 7.70361 13.9736C7.52357 14.5979 7.46697 15.2514 7.53697 15.8973H8.12206C8.56035 14.9478 9.18568 14.0964 9.96064 13.3941ZM22.5937 11.5592C23.4287 10.9741 24.4341 10.6334 25.4377 10.3038C26.2746 10.0539 27.2781 10.2205 28.115 10.7223C29.0098 11.2803 29.8021 11.988 30.4572 12.8145L30.959 12.646C30.8756 12.0609 30.7071 11.3074 30.2887 10.8056C29.9856 10.1704 29.5247 9.62341 28.95 9.21698C28.4483 8.71521 27.6965 8.4634 27.0263 8.29121C26.3109 8.12274 25.5661 8.12274 24.8507 8.29121C23.5778 8.60061 22.4105 9.24425 21.4695 10.1556C20.5285 11.067 19.8479 12.2131 19.4979 13.4755L19.9997 13.7273L22.5085 11.4685M31.544 24.6885C31.151 25.6717 30.5869 26.5776 29.8777 27.3639C29.5444 27.6991 29.2092 28.1175 28.7075 28.4526L27.4521 29.3784C25.6021 30.3671 23.5908 31.0185 21.5124 31.3022C19.4277 31.6225 17.3023 31.5661 15.2375 31.1355C14.224 30.8836 13.2421 30.5184 12.3102 30.0468C11.3067 29.6284 10.4698 28.96 9.54959 28.2897L9.29778 28.5415C10.6376 30.4777 12.5781 31.9184 14.8191 32.6408C17.0701 33.4605 19.4995 33.6625 21.8549 33.2259C24.2114 32.9172 26.4539 32.0263 28.3798 30.6338C30.2998 29.1668 31.5638 27.0019 31.8977 24.6088H31.544V24.6885ZM19.6646 18.4099L20.4181 25.3532L20.8366 25.2698L19.9997 18.4099H19.6646Z" fill="#ED017F"/>
</svg>
