<svg width="40" height="40" viewBox="0 0 40 40" fill="none" xmlns="http://www.w3.org/2000/svg">
<path d="M0 20C0 8.95431 8.95431 0 20 0C31.0457 0 40 8.95431 40 20C40 31.0457 31.0457 40 20 40C8.95431 40 0 31.0457 0 20Z" fill="#FFF2CC"/>
<path d="M22.9252 14.5368C25.0793 14.5368 26.8255 12.8496 26.8255 10.7684C26.8255 8.68717 25.0793 7 22.9252 7C20.7711 7 19.0249 8.68717 19.0249 10.7684C19.0249 12.8496 20.7711 14.5368 22.9252 14.5368Z" fill="#F16522"/>
<path d="M28.4497 31.1163C30.6038 31.1163 32.35 29.4292 32.35 27.3479C32.35 25.2667 30.6038 23.5795 28.4497 23.5795C26.2957 23.5795 24.5494 25.2667 24.5494 27.3479C24.5494 29.4292 26.2957 31.1163 28.4497 31.1163Z" fill="#F16522"/>
<path d="M10.9003 27.6002C13.0544 27.6002 14.8006 25.913 14.8006 23.8318C14.8006 21.7505 13.0544 20.0634 10.9003 20.0634C8.74623 20.0634 7 21.7505 7 23.8318C7 25.913 8.74623 27.6002 10.9003 27.6002Z" fill="#F16522"/>
<path d="M11.4205 18.6812C12.8206 18.6812 13.9557 17.5846 13.9557 16.2318C13.9557 14.8789 12.8206 13.7823 11.4205 13.7823C10.0203 13.7823 8.88525 14.8789 8.88525 16.2318C8.88525 17.5846 10.0203 18.6812 11.4205 18.6812Z" fill="#F6921E"/>
<path d="M29.555 17.6778C30.9551 17.6778 32.0902 16.5811 32.0902 15.2283C32.0902 13.8755 30.9551 12.7789 29.555 12.7789C28.1548 12.7789 27.0198 13.8755 27.0198 15.2283C27.0198 16.5811 28.1548 17.6778 29.555 17.6778Z" fill="#F6921E"/>
<path d="M21.2351 33C22.6353 33 23.7703 31.9033 23.7703 30.5505C23.7703 29.1977 22.6353 28.1011 21.2351 28.1011C19.835 28.1011 18.7 29.1977 18.7 30.5505C18.7 31.9033 19.835 33 21.2351 33Z" fill="#F6921E"/>
<path d="M15.2546 30.8649C16.224 30.8649 17.0098 30.1057 17.0098 29.1691C17.0098 28.2326 16.224 27.4733 15.2546 27.4733C14.2853 27.4733 13.4995 28.2326 13.4995 29.1691C13.4995 30.1057 14.2853 30.8649 15.2546 30.8649Z" fill="#FFC10E"/>
<path d="M31.245 22.4496C32.2143 22.4496 33.0001 21.6904 33.0001 20.7538C33.0001 19.8173 32.2143 19.058 31.245 19.058C30.2757 19.058 29.4899 19.8173 29.4899 20.7538C29.4899 21.6904 30.2757 22.4496 31.245 22.4496Z" fill="#FFC10E"/>
<path d="M15.6448 13.6576C16.6141 13.6576 17.3999 12.8984 17.3999 11.9618C17.3999 11.0253 16.6141 10.2661 15.6448 10.2661C14.6755 10.2661 13.8896 11.0253 13.8896 11.9618C13.8896 12.8984 14.6755 13.6576 15.6448 13.6576Z" fill="#FFC10E"/>
</svg>
